ply
format ascii 1.0
comment Created by Blender 2.91.2 - www.blender.org
element vertex 27
property float x
property float y
property float z
property float s
property float t
element face 13
property list uchar uint vertex_indices
end_header
1.520000 -0.500000 -1.500000 0.994141 0.452390
0.500000 -0.111401 -0.507972 0.511513 0.939627
1.500000 -0.500000 0.520000 0.011398 0.461944
0.500000 -0.111401 -0.507972 0.480411 0.540240
-0.500000 -0.500000 0.520000 0.002729 0.040125
1.500000 -0.500000 0.520000 0.958094 0.040125
-0.500000 -0.111401 -0.507972 0.499885 0.415889
-0.500000 -0.500000 -1.500000 0.017257 0.044635
-0.500000 -0.500000 0.520000 1.000000 0.044635
1.500000 -0.500000 0.520000 1.000000 0.955365
-0.500000 -0.500000 -1.500000 0.017257 0.000000
1.520000 -0.500000 -1.500000 0.017257 0.964919
-0.500000 0.500000 -1.500000 -0.005859 0.978516
-0.500000 -0.111401 -0.507972 -0.005859 0.394404
0.500000 -0.111401 -0.507972 0.480647 0.394404
-0.500000 -0.500000 -1.500000 0.000000 0.044635
0.492028 -0.111401 -1.500000 0.482628 0.415889
1.520000 -0.500000 -1.500000 0.982743 0.044635
0.500000 -0.111401 -0.507972 0.398323 0.499873
0.492028 -0.111401 -1.500000 -0.084305 0.499873
-0.500000 0.500000 -1.500000 -0.084305 1.083984
1.520000 -0.500000 -1.500000 0.994141 0.452390
0.492028 -0.111401 -1.500000 0.994141 0.943435
-0.500000 -0.111401 -0.507972 0.002729 0.540240
-0.500000 0.500000 -1.500000 0.017257 1.000000
-0.500000 -0.500000 0.520000 1.000000 0.000000
-0.500000 0.500000 -1.500000 0.000000 1.000000
3 0 1 2
3 3 4 5
3 6 7 8
3 9 10 11
3 12 13 14
3 15 16 17
3 18 19 20
3 2 21 0
3 0 22 1
3 3 23 4
3 6 24 7
3 9 25 10
3 15 26 16
