ply
format ascii 1.0
comment Created by Blender 2.91.2 - www.blender.org
element vertex 24
property float x
property float y
property float z
property float s
property float t
element face 12
property list uchar uint vertex_indices
end_header
-0.500000 0.500000 -1.500000 0.175000 0.825000
0.500000 -0.500000 -1.500000 0.825000 0.175000
-0.500000 -0.500000 -1.500000 0.175000 0.175000
0.500000 -0.500000 -1.500000 0.127224 0.156287
0.500000 -0.111401 -0.507972 0.618327 0.541039
0.500000 -0.500000 0.520000 1.127224 0.156287
0.500000 -0.111401 -0.507972 0.564242 0.386930
-0.500000 -0.500000 0.520000 -0.072476 -0.009976
0.500000 -0.500000 0.520000 0.564242 -0.009976
-0.500000 -0.111401 -0.507972 0.618327 0.541039
-0.500000 -0.500000 -1.500000 0.127224 0.156287
-0.500000 -0.500000 0.520000 1.127224 0.156287
0.500000 -0.500000 0.520000 1.000000 1.000000
-0.500000 -0.500000 -1.500000 0.000000 0.000000
0.500000 -0.500000 -1.500000 0.000000 1.000000
-0.500000 -0.111401 -0.507972 -0.074219 -0.010092
0.500000 0.500000 -1.500000 0.558594 0.386719
-0.500000 0.500000 -1.500000 -0.074219 0.386719
0.500000 0.500000 -1.500000 0.825000 0.825000
0.500000 0.500000 -1.500000 0.127224 1.146386
-0.500000 -0.111401 -0.507972 -0.072476 0.386930
-0.500000 0.500000 -1.500000 0.127224 1.146386
-0.500000 -0.500000 0.520000 1.000000 0.000000
0.500000 -0.111401 -0.507972 0.558594 -0.010092
3 0 1 2
3 3 4 5
3 6 7 8
3 9 10 11
3 12 13 14
3 15 16 17
3 0 18 1
3 3 19 4
3 6 20 7
3 9 21 10
3 12 22 13
3 15 23 16
