ply
format ascii 1.0
comment Created by Blender 2.91.2 - www.blender.org
element vertex 45
property float x
property float y
property float z
property float s
property float t
element face 32
property list uchar uint vertex_indices
end_header
0.250000 -0.300000 -0.500000 0.625000 0.250000
0.550000 -0.500000 0.500000 0.375000 0.500000
0.550000 -0.500000 -0.500000 0.375000 0.250000
0.250000 -0.300000 0.500000 0.625000 0.500000
-0.550000 -0.500000 0.500000 0.375000 0.750000
-0.250000 -0.300000 0.500000 0.625000 0.750000
-0.550000 -0.500000 -0.500000 0.375000 1.000000
0.550000 -0.500000 0.500000 0.225000 0.750000
-0.550000 -0.500000 -0.500000 0.775000 0.250000
0.550000 -0.500000 -0.500000 0.225000 0.250000
0.200000 0.150000 0.499995 0.249218 0.628124
-0.200000 0.150000 -0.500000 0.749218 0.028210
-0.200000 0.150000 0.499995 0.749218 0.628124
-0.200000 -0.350000 -0.500000 0.562500 0.039522
0.200000 -0.350000 -0.500000 0.562500 0.210478
-0.200000 -0.300000 -0.500000 0.625000 0.025000
0.200000 -0.300000 -0.500000 0.625000 0.225000
0.250000 -0.300000 0.500000 0.375000 0.750000
-0.200000 -0.300000 0.499995 0.600000 0.749998
0.200000 0.150000 0.499995 0.750000 0.703125
-0.200000 -0.300000 0.499995 0.250000 0.253125
0.200000 -0.300000 0.499995 0.750000 0.253125
0.200000 0.150000 -0.500000 0.750000 0.750000
-0.200000 -0.300000 -0.500000 0.250000 0.300000
-0.200000 0.150000 -0.500000 0.250000 0.750000
0.200000 0.150000 0.499995 0.268750 0.628124
0.200000 -0.300000 -0.500000 0.718750 0.028210
0.200000 0.150000 -0.500000 0.268750 0.028210
-0.200000 0.150000 0.499995 0.268750 0.628124
-0.200000 -0.300000 -0.500000 0.718750 0.028210
-0.200000 -0.300000 0.499995 0.718750 0.628124
-0.250000 -0.300000 -0.500000 0.625000 1.000000
-0.550000 -0.500000 0.500000 0.775000 0.750000
0.200000 0.150000 -0.500000 0.249218 0.028210
-0.550000 -0.500000 -0.500000 0.375000 0.000000
-0.250000 -0.300000 -0.500000 0.625000 0.000000
-0.200000 -0.300000 -0.500000 0.600000 0.250000
-0.250000 -0.300000 -0.500000 0.625000 0.250000
0.250000 -0.300000 -0.500000 0.375000 0.250000
0.200000 -0.300000 0.499995 0.400000 0.749998
0.200000 -0.300000 -0.500000 0.400000 0.250000
-0.200000 0.150000 0.499995 0.250000 0.703125
0.200000 -0.300000 -0.500000 0.750000 0.300000
0.200000 -0.300000 0.499995 0.718750 0.628124
-0.200000 0.150000 -0.500000 0.268750 0.028210
3 0 1 2
3 3 4 1
3 5 6 4
3 7 8 9
3 10 11 12
3 13 14 2
3 14 15 16
3 5 17 18
3 19 20 21
3 22 23 24
3 25 26 27
3 28 29 30
3 0 3 1
3 3 5 4
3 5 31 6
3 7 32 8
3 10 33 11
3 16 0 14
3 0 2 14
3 34 35 13
3 35 15 13
3 34 13 2
3 14 13 15
3 18 36 37
3 17 38 39
3 38 40 39
3 18 37 5
3 17 39 18
3 19 41 20
3 22 42 23
3 25 43 26
3 28 44 29
