ply
format ascii 1.0
comment Created by Blender 2.91.2 - www.blender.org
element vertex 47
property float x
property float y
property float z
property float s
property float t
element face 26
property list uchar uint vertex_indices
end_header
-0.509161 0.500000 0.500000 0.000000 0.762086
-0.500000 0.451654 -1.500000 1.000000 0.713741
-0.500000 0.451654 0.500000 0.000000 0.713741
-0.509161 0.500000 -1.500000 -0.003435 0.762086
-0.500000 0.500000 -1.500000 0.001145 0.762086
-0.500000 0.451654 -1.500000 0.001145 0.713741
1.500000 0.451654 -1.500000 1.001145 0.713741
1.500000 -0.500000 -1.500000 1.001145 -0.237914
1.500000 0.451654 -1.500000 1.000000 0.713741
1.500000 -0.500000 0.500000 0.000000 -0.237914
1.500000 -0.500000 -1.500000 1.000000 -0.237914
1.500000 0.500000 0.500000 0.000000 0.762086
1.500000 0.500000 -1.500000 1.000000 0.762086
-0.509161 0.500000 0.500000 -0.003435 0.762086
-0.500000 0.451654 0.500000 0.001145 0.713741
-0.500000 0.500000 0.500000 0.001145 0.762086
1.500000 0.500000 0.500000 1.001145 0.762086
1.500000 -0.500000 0.500000 1.001145 -0.237914
1.500000 -0.500000 -1.500000 1.001145 0.000000
1.500000 -0.500000 0.500000 0.001145 0.000000
-0.500000 0.451654 -1.500000 1.001145 1.000000
-0.509161 0.500000 0.500000 -0.003435 0.000000
-0.500000 0.500000 0.500000 0.001145 0.000000
-0.500000 0.500000 -1.490880 0.001145 0.995440
1.500000 0.500000 -1.500000 1.001145 1.000000
-0.500000 0.500000 -1.500000 0.001145 1.000000
-0.500000 0.500000 -1.509161 0.000000 0.762086
-0.500000 0.451654 -1.500000 0.000000 0.713741
1.500000 0.500000 -1.509161 -0.003435 0.762086
1.500000 0.500000 -1.500000 0.001145 0.762086
1.500000 0.451654 -1.500000 0.001145 0.713741
-0.500000 -0.500000 0.500000 0.000000 -0.237914
1.500000 -0.500000 0.500000 1.000000 -0.237914
-0.500000 -0.500000 0.500000 1.001145 -0.237914
-0.500000 0.451654 0.500000 1.001145 0.713741
-0.500000 0.500000 -1.509161 -0.003435 0.762086
-0.500000 -0.500000 0.500000 0.001145 0.000000
-0.500000 0.451654 -1.500000 0.001145 1.000000
1.500000 -0.500000 0.500000 1.001145 0.000000
-0.500000 0.500000 -1.509161 -0.003435 0.000000
1.500000 0.500000 -1.500000 0.001145 1.000000
1.500000 0.500000 -1.509161 -0.003435 1.000000
-0.509161 0.500000 -1.500000 1.000000 0.762086
-0.509161 0.500000 -1.500000 -0.003435 1.000000
1.500000 0.500000 0.500000 1.001145 0.000000
1.500000 0.500000 -1.509161 1.000000 0.762086
-0.500000 0.500000 -1.500000 0.001145 0.000000
3 0 1 2
3 3 4 5
3 5 6 7
3 8 9 10
3 11 8 12
3 13 14 15
3 16 14 17
3 18 19 20
3 21 22 23
3 24 25 23
3 26 8 27
3 28 29 30
3 2 31 32
3 5 33 34
3 35 5 4
3 36 37 38
3 39 40 41
3 0 42 1
3 11 9 8
3 16 15 14
3 23 25 43
3 43 21 23
3 23 22 44
3 44 24 23
3 26 45 8
3 39 46 40
