ply
format ascii 1.0
comment Created by Blender 2.91.2 - www.blender.org
element vertex 24
property float x
property float y
property float z
property float s
property float t
element face 12
property list uchar uint vertex_indices
end_header
-0.500000 0.500000 -1.509161 0.000000 0.762086
0.500000 0.451654 -1.500000 1.000000 0.713741
-0.500000 0.451654 -1.500000 0.000000 0.713741
0.500000 0.451654 -1.500000 0.001145 0.713741
0.500000 0.500000 0.500000 1.001145 0.762086
0.500000 -0.500000 0.500000 1.001145 -0.237914
0.500000 0.500000 0.500000 1.000000 0.762086
-0.500000 -0.500000 0.500000 0.000000 -0.237914
0.500000 -0.500000 0.500000 1.000000 -0.237914
-0.500000 0.500000 0.500000 1.001145 0.762086
-0.500000 0.451654 -1.500000 0.001145 0.713741
-0.500000 -0.500000 0.500000 1.001145 -0.237914
0.500000 -0.500000 0.500000 1.001145 0.000000
-0.500000 0.451654 -1.500000 0.001145 1.000000
0.500000 0.451654 -1.500000 1.001145 1.000000
0.500000 0.500000 -1.509161 -0.003435 1.000000
-0.500000 0.500000 0.500000 1.001145 0.000000
0.500000 0.500000 0.500000 1.001145 1.000000
0.500000 0.500000 -1.509161 1.000000 0.762086
0.500000 0.500000 -1.509161 -0.003435 0.762086
-0.500000 0.500000 0.500000 0.000000 0.762086
-0.500000 0.500000 -1.509161 -0.003435 0.762086
-0.500000 -0.500000 0.500000 0.001145 0.000000
-0.500000 0.500000 -1.509161 -0.003435 0.000000
3 0 1 2
3 3 4 5
3 6 7 8
3 9 10 11
3 12 13 14
3 15 16 17
3 0 18 1
3 3 19 4
3 6 20 7
3 9 21 10
3 12 22 13
3 15 23 16
