ply
format ascii 1.0
comment Created by Blender 2.91.2 - www.blender.org
element vertex 118
property float x
property float y
property float z
property float s
property float t
element face 74
property list uchar uint vertex_indices
end_header
-0.509161 0.500000 0.500000 1.478186 0.815551
-0.500000 0.451654 -1.500000 -0.521814 0.718859
-0.500000 0.451654 0.500000 1.478186 0.718859
1.700000 0.500000 -1.500000 0.731710 0.879813
1.700000 -0.000000 0.500000 0.231711 -0.120187
1.700000 -0.000000 -1.500000 0.231710 0.879813
1.700000 0.500000 0.500000 1.478186 1.669610
1.500000 0.500000 -1.500000 -0.521814 1.469609
1.500000 0.500000 0.500000 1.478186 1.469609
1.700000 -0.000000 -1.500000 0.264905 0.569610
1.500000 -0.000000 0.500000 0.464905 2.569610
1.500000 -0.000000 -1.500000 0.464905 0.569610
1.500000 0.500000 0.700000 0.731711 -0.115898
-0.500000 -0.000000 0.700000 0.231710 0.884101
1.500000 -0.000000 0.700000 0.231711 -0.115899
-0.509161 0.500000 -1.500000 -0.539552 0.815551
-0.500000 0.500000 -1.500000 -0.530390 0.815551
-0.500000 0.451654 -1.500000 -0.530390 0.718859
1.500000 0.451654 -1.500000 1.469609 0.718859
1.500000 -0.000000 -1.500000 1.469609 -0.184449
1.500000 0.500000 -1.500000 1.469609 0.815551
1.700000 0.500000 -1.500000 1.669610 0.815551
-0.509161 0.500000 0.500000 -0.539552 0.815551
-0.500000 0.451654 0.500000 -0.530390 0.718859
-0.500000 0.500000 0.500000 -0.530390 0.815551
1.500000 -0.000000 -1.500000 -0.521814 1.469609
1.500000 -0.000000 0.500000 1.478186 1.469609
-0.500000 0.451654 -1.500000 -0.521814 -0.530390
-0.509161 0.500000 0.500000 1.478186 -0.539552
-0.500000 0.500000 0.500000 1.478186 -0.530390
-0.500000 0.500000 -1.490880 -0.512694 -0.530390
-0.500000 0.500000 -1.500000 -0.521814 -0.530390
-0.500000 0.500000 -1.509161 -0.530390 0.815551
1.500000 0.500000 -1.509161 -0.530975 0.815551
1.500000 0.500000 -1.500000 -0.521814 0.815551
1.500000 0.451654 -1.500000 -0.521814 0.718859
-0.500000 -0.000000 0.500000 1.478186 -0.184449
-0.500000 0.500000 -1.509161 -0.530975 0.815551
-0.500000 0.500000 -1.500000 -0.521814 0.815551
-0.500000 -0.000000 0.500000 -0.521814 -0.530390
-0.500000 0.451654 -1.500000 -0.521813 1.469609
1.500000 -0.000000 0.500000 1.478186 -0.530391
1.500000 0.500000 -1.509161 -0.530975 1.469609
-0.500000 0.500000 0.700000 1.678187 -0.530390
-0.500000 -0.000000 0.700000 1.678187 -0.184449
-0.500000 0.500000 0.700000 1.678187 0.815551
1.500000 -0.000000 0.700000 1.678187 1.469609
-0.500000 -0.000000 0.500000 1.478186 -0.530390
2.000000 0.625000 0.500000 0.333333 0.625000
2.000000 -0.125000 1.000000 0.583333 0.375000
2.000000 -0.125000 0.500000 0.333333 0.375000
2.000000 0.625000 1.000000 0.583083 0.625000
1.500000 -0.125000 1.000000 0.333083 0.375000
2.000000 -0.125000 1.000000 0.583083 0.375000
2.000000 -0.125000 0.500000 0.585286 0.641276
1.750000 -0.375000 0.750000 0.460286 0.516276
1.500000 -0.125000 0.500000 0.335286 0.641276
2.000000 0.625000 1.000000 0.582583 0.583833
1.753000 0.875000 1.250000 0.459083 0.458833
1.500000 0.625000 1.000000 0.332583 0.583833
1.753000 0.875000 1.250000 0.708333 0.584583
2.253000 0.875000 1.250000 0.709083 0.458833
1.753000 0.875000 0.750000 0.458333 0.584583
1.500000 0.625000 1.000000 0.583333 0.458083
1.500000 0.625000 0.500000 0.333333 0.458083
2.000000 0.625000 1.000000 0.583333 0.458083
2.253000 0.875000 0.750000 0.458333 0.584583
2.253000 0.875000 1.250000 0.708333 0.584583
2.000000 0.625000 0.500000 0.582583 0.631135
1.753000 0.875000 0.750000 0.459083 0.506135
2.253000 0.875000 0.750000 0.709083 0.506135
1.750000 -0.375000 1.250000 0.708333 0.583083
1.750000 -0.375000 0.750000 0.458333 0.583083
2.250000 -0.375000 1.250000 0.707583 0.458833
1.500000 -0.125000 1.000000 0.583333 0.458083
2.000000 -0.125000 1.000000 0.582583 0.583833
1.750000 -0.375000 1.250000 0.457583 0.458833
2.000000 -0.125000 1.000000 0.583333 0.458083
2.250000 -0.375000 0.750000 0.458333 0.583083
2.000000 -0.125000 0.500000 0.333333 0.458083
2.253000 0.875000 1.250000 0.709083 0.256135
2.250000 -0.375000 0.750000 0.710286 0.516276
2.250000 -0.375000 1.250000 0.710286 0.266276
2.000000 0.625000 0.500000 0.583083 0.625000
2.000000 -0.125000 0.500000 0.583083 0.375000
1.700000 0.500000 0.500000 0.433083 0.583333
1.500000 0.500000 0.700000 0.433333 0.583333
1.500000 -0.000000 0.700000 0.433333 0.416667
1.500000 -0.125000 1.000000 0.583333 0.375000
-0.509161 0.500000 -1.500000 -0.521814 0.815551
1.700000 0.500000 0.500000 0.731711 -0.120187
1.700000 0.500000 -1.500000 -0.521814 1.669610
1.700000 -0.000000 0.500000 0.264905 2.569610
-0.500000 0.500000 0.700000 0.731710 0.884101
1.700000 -0.000000 -1.500000 1.669610 -0.184449
-0.509161 0.500000 -1.500000 -0.521814 -0.539552
1.500000 0.500000 -1.509161 1.469609 0.815551
-0.500000 0.500000 -1.509161 -0.530975 -0.530390
1.500000 0.500000 0.700000 1.678187 1.469609
-0.500000 0.500000 0.500000 1.478186 0.815551
-0.500000 -0.000000 0.700000 1.678187 -0.530390
2.000000 0.625000 1.000000 0.583333 0.625000
1.500000 0.625000 1.000000 0.333083 0.625000
2.000000 0.625000 0.500000 0.333333 0.458083
1.500000 0.625000 0.500000 0.332583 0.631135
1.500000 -0.125000 0.500000 0.333333 0.458083
1.500000 -0.125000 1.000000 0.332583 0.583833
2.250000 -0.375000 1.250000 0.708333 0.583083
1.500000 0.500000 0.500000 0.333083 0.583333
1.500000 0.625000 0.500000 0.333083 0.625000
1.500000 -0.125000 0.500000 0.333083 0.375000
1.700000 -0.000000 0.500000 0.433083 0.416667
1.500000 -0.000000 0.500000 0.333083 0.416667
1.500000 -0.000000 0.500000 0.333333 0.416667
1.500000 -0.125000 0.500000 0.333333 0.375000
1.500000 0.625000 1.000000 0.583333 0.625000
1.500000 0.625000 0.500000 0.333333 0.625000
1.500000 0.500000 0.500000 0.333333 0.583333
3 0 1 2
3 3 4 5
3 6 7 8
3 9 10 11
3 12 13 14
3 15 16 17
3 17 18 19
3 18 20 21
3 22 23 24
3 25 26 27
3 28 29 30
3 7 31 30
3 32 18 17
3 33 34 35
3 1 36 2
3 37 1 38
3 39 40 41
3 42 31 7
3 43 8 29
3 2 44 45
3 46 47 26
3 48 49 50
3 51 52 53
3 54 55 56
3 57 58 59
3 60 61 62
3 63 62 64
3 65 66 67
3 68 69 70
3 71 72 73
3 74 72 71
3 75 76 73
3 77 78 79
3 69 80 70
3 81 82 55
3 83 84 85
3 86 87 88
3 0 89 1
3 3 90 4
3 6 91 7
3 9 92 10
3 12 93 13
3 21 94 18
3 94 19 18
3 30 31 95
3 95 28 30
3 30 29 8
3 8 7 30
3 32 96 18
3 42 97 31
3 43 98 8
3 45 99 2
3 2 36 44
3 46 100 47
3 48 101 49
3 51 102 52
3 54 81 55
3 57 61 58
3 63 60 62
3 65 103 66
3 68 104 69
3 74 105 72
3 75 106 76
3 77 107 78
3 108 109 85
3 109 83 85
3 84 110 111
3 110 112 111
3 84 111 85
3 87 113 114
3 115 116 86
3 116 117 86
3 87 114 88
3 115 86 88
