ply
format ascii 1.0
comment Created by Blender 2.91.2 - www.blender.org
element vertex 40
property float x
property float y
property float z
property float s
property float t
element face 20
property list uchar uint vertex_indices
end_header
-0.500000 0.500000 -1.509161 0.000000 0.762086
0.500000 0.451654 -1.500000 1.000000 0.713741
-0.500000 0.451654 -1.500000 0.000000 0.713741
0.500000 0.451654 -1.500000 0.001145 0.713741
0.500000 0.500000 0.500000 1.001145 0.762086
0.500000 0.000000 0.500000 1.001145 -0.237914
0.500000 0.500000 0.500000 0.451176 0.586985
0.500000 0.000000 0.700000 0.011011 0.498952
0.500000 0.000000 0.500000 0.011011 0.586985
-0.500000 0.500000 0.500000 1.001145 0.762086
-0.500000 0.451654 -1.500000 0.001145 0.713741
-0.500000 0.000000 0.500000 1.001145 -0.237914
0.500000 0.000000 0.500000 1.001145 0.000000
-0.500000 0.451654 -1.500000 0.001145 1.000000
0.500000 0.451654 -1.500000 1.001145 1.000000
0.500000 0.500000 -1.509161 -0.528018 1.515625
-0.500000 0.500000 0.500000 1.481143 -0.484375
0.500000 0.500000 0.500000 1.481143 1.515625
0.500000 0.500000 0.700000 0.312500 0.757812
-0.500000 0.000000 0.700000 0.687500 0.007812
0.500000 0.000000 0.700000 0.687500 0.757812
-0.500000 0.500000 0.700000 0.380313 -0.250000
0.500000 0.500000 0.500000 0.230312 1.250000
-0.500000 0.500000 0.500000 0.230312 -0.250000
-0.500000 0.000000 0.700000 0.011011 0.498952
-0.500000 0.500000 0.500000 0.451176 0.586985
-0.500000 0.000000 0.500000 0.011011 0.586985
0.500000 0.000000 0.700000 0.438906 1.250000
-0.500000 0.000000 0.500000 0.288906 -0.250000
0.500000 0.000000 0.500000 0.288906 1.250000
0.500000 0.500000 -1.509161 1.000000 0.762086
0.500000 0.500000 -1.509161 -0.003435 0.762086
0.500000 0.500000 0.700000 0.451176 0.498952
-0.500000 0.500000 -1.509161 -0.003435 0.762086
-0.500000 0.000000 0.500000 0.001145 0.000000
-0.500000 0.500000 -1.509161 -0.528018 -0.484375
-0.500000 0.500000 0.700000 0.312500 0.007812
0.500000 0.500000 0.700000 0.380313 1.250000
-0.500000 0.500000 0.700000 0.451176 0.498952
-0.500000 0.000000 0.700000 0.438906 -0.250000
3 0 1 2
3 3 4 5
3 6 7 8
3 9 10 11
3 12 13 14
3 15 16 17
3 18 19 20
3 21 22 23
3 24 25 26
3 27 28 29
3 0 30 1
3 3 31 4
3 6 32 7
3 9 33 10
3 12 34 13
3 15 35 16
3 18 36 19
3 21 37 22
3 24 38 25
3 27 39 28
