ply
format ascii 1.0
comment Created by Blender 2.79 (sub 0) - www.blender.org, source file: 'pumpkin pre triangulated.blend'
element vertex 532
property float x
property float y
property float z
property uchar red
property uchar green
property uchar blue
element face 723
property list uchar uint vertex_indices
end_header
0.050000 0.270000 -0.000000 0 100 0
0.035355 0.310000 0.035355 116 124 0
0.035355 0.270000 0.035355 0 100 0
0.035355 0.310000 0.035355 115 124 0
0.000000 0.270000 0.050000 0 100 0
0.000000 0.310000 0.050000 120 126 0
-0.035355 0.270000 0.035355 0 100 0
-0.035355 0.310000 0.035355 117 124 0
-0.050000 0.270000 -0.000000 0 100 0
-0.050000 0.310000 -0.000000 123 126 0
-0.035355 0.270000 -0.035355 0 100 0
-0.035355 0.310000 -0.035355 126 130 2
-0.000000 0.270000 -0.050000 0 100 0
-0.000000 0.310000 -0.050000 126 126 2
-0.050000 0.310000 -0.000000 126 126 0
0.000000 0.310000 0.050000 126 126 0
-0.000000 0.310000 -0.050000 102 122 0
0.035355 0.270000 -0.035355 0 100 0
0.050000 0.310000 -0.000000 110 124 0
0.394490 -0.270086 0.237764 255 140 0
0.309476 -0.250000 0.250000 255 127 80
0.396548 -0.250000 0.250000 255 140 0
0.436913 -0.193459 0.239976 255 128 78
0.357644 -0.183040 0.238129 255 127 80
0.388613 -0.324000 0.205374 255 137 18
0.272466 -0.329194 0.202254 255 127 80
0.303902 -0.294000 0.223397 255 129 83
0.359717 -0.183040 0.235393 255 127 80
0.368016 -0.211794 0.202254 255 127 80
0.450105 -0.194372 0.222333 255 140 0
0.416887 -0.302586 0.146946 255 140 0
0.338340 -0.302586 0.146946 255 127 80
0.325202 -0.311159 0.164767 255 127 80
0.458558 -0.193459 0.186237 255 140 0
0.381100 -0.201302 0.193089 255 127 80
0.393128 -0.183040 0.177136 255 127 80
0.413607 -0.324000 0.117230 255 140 0
0.299146 -0.352806 0.077254 255 127 80
0.467301 -0.148483 0.146947 255 127 80
0.399678 -0.148483 0.146947 255 127 80
0.412839 -0.183040 0.086280 255 127 80
0.356793 -0.315000 0.000000 255 127 80
0.435600 -0.324000 0.018391 255 140 0
0.482809 -0.188181 0.077254 255 140 0
0.412385 -0.188181 0.077254 255 127 80
0.416450 -0.183040 0.069633 255 127 80
0.435600 -0.324000 -0.018391 255 140 0
0.299146 -0.352806 -0.077254 255 127 80
0.356793 -0.315000 -0.000000 255 127 80
0.500000 -0.136069 -0.000000 255 135 28
0.431556 -0.136069 -0.000000 255 127 80
0.416450 -0.183040 -0.069633 255 127 80
0.413607 -0.324000 -0.117230 255 140 0
0.338340 -0.302586 -0.146946 255 127 80
0.482809 -0.188181 -0.077254 255 140 0
0.412385 -0.188181 -0.077254 255 127 80
0.412839 -0.183040 -0.086279 255 127 80
0.384141 -0.329194 -0.202254 255 140 0
0.272466 -0.329194 -0.202254 255 127 80
0.325202 -0.311159 -0.164767 255 127 80
0.458558 -0.193459 -0.186237 255 140 0
0.393128 -0.183040 -0.177135 255 128 81
0.381100 -0.201303 -0.193089 255 127 80
0.303902 -0.294000 -0.223397 255 127 80
0.388613 -0.324000 -0.205374 255 140 0
0.368016 -0.211794 -0.202254 255 127 80
0.359718 -0.183040 -0.235393 255 127 80
0.450105 -0.194372 -0.222333 255 140 2
0.394490 -0.270086 -0.237764 255 140 0
0.309476 -0.250000 -0.250000 255 127 80
0.307001 -0.270086 -0.237764 255 127 80
0.357644 -0.183040 -0.238129 255 127 80
0.436913 -0.193459 -0.239976 255 128 77
0.173648 0.297574 -0.000000 0 100 0
0.000000 0.275200 -0.000000 0 100 0
0.156452 0.257574 0.077281 0 100 0
0.156452 0.257574 -0.077281 0 100 0
0.000000 0.275200 -0.000000 0 100 0
0.173648 0.297574 -0.000000 0 100 0
0.156452 0.257574 0.077281 0 100 0
0.108268 0.297574 0.139255 0 100 0
0.108268 0.297574 -0.139255 0 100 0
0.038640 0.257574 0.173648 0 100 0
0.038640 0.257574 -0.173648 0 100 0
-0.038640 0.297574 0.173648 0 100 0
-0.038640 0.297574 -0.173648 0 100 0
-0.108268 0.257574 0.139255 0 100 0
-0.108268 0.257574 -0.139255 0 100 0
-0.156452 0.297574 0.077281 0 100 0
-0.156451 0.297574 -0.077281 0 100 0
-0.173648 0.257574 -0.000000 0 100 0
0.326352 0.182418 -0.000000 255 140 0
0.156452 0.251877 0.077281 255 140 0
0.294033 0.182418 0.145240 255 140 0
0.439693 0.076000 0.000000 255 140 0
0.396149 0.076000 0.195682 255 140 0
0.156452 0.251877 -0.077281 255 140 0
0.294033 0.182418 -0.145240 255 140 0
0.173648 0.251877 -0.000000 255 255 255
0.000000 0.276000 -0.000000 255 255 255
0.156452 0.251877 0.077281 255 255 255
0.108268 0.251877 0.139255 255 140 0
0.203477 0.182418 0.261714 255 140 0
0.450484 -0.054541 0.222521 255 140 0
0.464524 -0.050000 0.150000 255 140 0
0.407200 0.050000 0.200000 255 140 0
0.396149 0.076000 -0.195681 255 140 0
0.274144 0.076000 0.352606 255 140 0
0.108268 0.251877 -0.139255 255 140 0
0.203477 0.182418 -0.261714 255 140 0
0.156452 0.251877 -0.077281 255 255 255
0.108268 0.251877 0.139255 255 255 255
0.038640 0.251877 0.173648 255 140 0
0.072620 0.182418 0.326352 255 140 0
0.429452 0.050000 0.100000 255 140 0
0.464524 -0.050000 0.150000 255 140 0
0.500000 -0.054541 -0.000000 255 140 0
0.407200 0.050000 -0.200000 255 140 0
0.450485 -0.054541 -0.222521 255 140 0
0.274144 0.076000 -0.352606 255 140 0
0.311745 -0.054541 0.400969 255 140 0
0.097841 0.076000 0.439693 255 140 0
0.038640 0.251877 -0.173648 255 140 0
0.072620 0.182418 -0.326352 255 140 0
0.108268 0.251877 -0.139255 255 255 255
0.038640 0.251877 0.173648 255 255 255
-0.072620 0.182418 0.326352 255 140 0
0.338024 0.050000 0.171264 255 129 70
0.353484 0.050000 0.100000 255 127 80
0.464524 -0.050000 -0.150000 255 140 0
0.311745 -0.054541 -0.400969 255 140 0
0.097841 0.076000 -0.439693 255 140 0
0.311745 -0.193459 0.400969 255 140 0
0.436913 -0.193459 0.239976 255 140 0
0.438633 -0.180983 0.237764 255 140 0
0.111261 -0.054541 0.500000 255 140 0
-0.097841 0.076000 0.439693 255 140 0
-0.038640 0.251877 -0.173648 255 140 0
-0.072620 0.182418 -0.326352 255 140 0
0.038640 0.251877 -0.173648 255 255 255
-0.038640 0.251877 0.173648 255 255 255
-0.038640 0.251877 0.173648 255 140 0
-0.203477 0.182418 0.261714 255 140 0
0.356576 0.011327 0.180664 255 127 80
0.323153 0.046000 0.198000 255 127 80
0.175624 0.136455 0.231698 255 127 80
0.253784 0.136455 0.128583 255 127 80
0.316243 0.050000 0.200000 255 127 80
0.379504 0.046000 0.000000 255 127 80
0.357376 0.046000 0.102000 255 127 80
0.338024 0.050000 -0.171264 255 127 80
0.353484 0.050000 -0.100000 255 127 80
0.438633 -0.180983 -0.237764 255 140 0
0.111261 -0.054541 -0.500000 255 140 0
-0.097841 0.076000 -0.439693 255 140 0
0.450105 -0.194372 0.222333 255 140 0
0.450484 -0.193459 0.222521 255 140 0
0.449813 -0.193459 0.223385 255 140 0
0.467301 -0.148483 0.146947 255 140 0
0.500000 -0.136069 0.000000 255 140 0
0.111261 -0.193459 0.500000 255 140 0
0.396548 -0.250000 0.250000 255 140 0
0.274144 -0.324000 0.352606 255 140 0
0.394490 -0.270086 0.237764 255 140 0
-0.111260 -0.054541 0.500000 255 140 0
-0.274144 0.076000 0.352606 255 140 0
-0.203477 0.182418 -0.261714 255 140 0
-0.038640 0.251877 -0.173648 255 255 255
-0.108268 0.251877 0.139255 255 255 255
-0.108268 0.251877 0.139255 255 140 0
-0.294033 0.182418 0.145240 255 140 0
0.464524 -0.050000 0.150000 255 255 255
0.391997 -0.050000 0.150000 255 255 255
0.464524 -0.050000 0.150000 255 255 255
0.356576 0.011327 -0.180664 255 127 80
0.464524 -0.050000 -0.150000 255 140 0
0.464524 -0.050000 -0.150000 255 127 73
0.391997 -0.050000 -0.150000 255 128 74
0.357376 0.046000 -0.102000 255 127 80
0.281678 0.136455 -0.000000 255 127 80
0.253784 0.136455 -0.128582 255 127 80
0.396548 -0.250000 -0.250000 255 140 0
0.394490 -0.270086 -0.237764 255 140 0
0.274144 -0.324000 -0.352606 255 140 0
0.311745 -0.193459 -0.400969 255 140 0
0.111261 -0.193459 -0.500000 255 140 0
0.500000 -0.136069 -0.000000 255 140 0
0.467301 -0.148483 -0.146946 255 140 0
0.449813 -0.193459 -0.223385 255 127 80
0.450484 -0.193459 -0.222521 255 127 80
0.450105 -0.194372 -0.222333 255 127 80
-0.111260 -0.054541 -0.500000 255 140 0
-0.274144 0.076000 -0.352606 255 140 0
0.458558 -0.193459 0.186237 255 140 0
0.446524 -0.211794 0.202254 255 140 0
0.097841 -0.324000 0.439693 255 140 0
-0.111260 -0.193459 0.500000 255 140 0
0.384142 -0.329194 0.202254 255 140 0
0.203477 -0.430418 0.261714 255 140 0
-0.311745 -0.054541 0.400969 255 140 0
-0.396149 0.076000 0.195682 255 140 0
-0.294033 0.182418 -0.145240 255 140 0
-0.108268 0.251877 -0.139255 255 140 0
-0.108268 0.251877 -0.139255 255 255 255
-0.156452 0.251877 0.077281 255 255 255
-0.156452 0.251877 0.077281 255 140 0
-0.326352 0.182418 -0.000000 255 140 0
0.391997 -0.050000 0.150000 255 127 80
0.431556 -0.064960 -0.000000 255 127 80
0.388819 -0.064960 0.197000 255 127 80
0.236617 0.046000 0.312165 255 127 80
0.269071 -0.064960 0.354982 255 127 80
0.093447 0.195495 0.123284 255 127 80
0.135035 0.195495 0.068417 255 127 80
0.149878 0.195495 -0.000000 255 127 80
0.464524 -0.050000 -0.150000 255 255 255
0.391997 -0.050000 -0.150000 255 255 255
0.464524 -0.050000 -0.150000 255 255 255
0.175624 0.136455 -0.231698 255 127 80
0.236617 0.046000 -0.312165 255 127 80
0.316243 0.050000 -0.200000 255 127 80
0.384141 -0.329194 -0.202254 255 140 0
0.394562 -0.325654 -0.194897 255 140 0
0.294033 -0.430418 -0.145240 255 140 0
0.097841 -0.324000 -0.439693 255 140 0
-0.111260 -0.193459 -0.500000 255 140 0
0.450105 -0.194372 -0.222333 255 140 0
0.458558 -0.193459 -0.186237 255 140 0
0.446524 -0.211794 -0.202254 255 140 0
-0.311745 -0.054541 -0.400969 255 140 0
-0.396149 0.076000 -0.195682 255 140 0
0.072620 -0.430418 0.326352 255 140 0
-0.097841 -0.324000 0.439693 255 140 0
-0.311745 -0.193459 0.400969 255 140 0
0.294033 -0.430418 0.145240 255 140 0
0.108268 -0.499877 0.139255 255 140 0
0.156452 -0.499877 0.077281 255 140 0
0.394562 -0.325654 0.194897 255 140 0
0.391822 -0.352806 0.077254 255 140 0
-0.450484 -0.054541 0.222521 255 140 0
-0.439692 0.076000 -0.000000 255 140 0
-0.156451 0.251877 -0.077281 255 140 0
-0.156451 0.251877 -0.077281 255 255 255
-0.173648 0.251877 -0.000000 255 255 255
0.391997 -0.050000 0.150000 255 255 255
0.391997 -0.050000 -0.150000 255 127 80
0.388819 -0.064960 -0.197000 255 127 80
0.084448 0.046000 0.389264 255 127 80
0.062679 0.136455 0.288922 255 127 80
0.033351 0.195495 0.153732 255 127 80
0.000000 0.216000 -0.000000 255 127 80
0.135035 0.195495 -0.068417 255 127 80
0.391997 -0.050000 -0.150000 255 255 255
0.093447 0.195495 -0.123284 255 127 80
0.108268 -0.499877 -0.139255 255 140 0
0.156452 -0.499877 -0.077281 255 140 0
0.072620 -0.430418 -0.326352 255 140 0
0.203477 -0.430418 -0.261714 255 140 0
0.391822 -0.352806 -0.077254 255 140 0
0.439693 -0.324000 0.000000 255 140 0
0.326352 -0.430418 -0.000000 255 140 0
-0.097841 -0.324000 -0.439693 255 140 0
-0.311745 -0.193459 -0.400969 255 140 0
-0.450484 -0.054541 -0.222521 255 140 0
0.038640 -0.499877 0.173648 255 140 0
-0.072620 -0.430418 0.326352 255 140 0
-0.274144 -0.324000 0.352606 255 140 0
-0.450484 -0.193459 0.222521 255 140 0
0.000000 -0.504000 -0.000000 255 140 0
0.173648 -0.499877 -0.000000 255 140 0
0.443850 -0.315000 0.000000 255 140 0
0.435600 -0.324000 0.018391 255 140 0
0.397089 -0.324000 0.191458 255 140 0
0.413607 -0.324000 0.117230 255 140 0
0.416887 -0.302586 0.146946 255 140 0
-0.500000 -0.054541 -0.000000 255 140 0
0.357920 -0.180983 0.237764 255 127 80
0.096030 -0.183040 0.442655 255 127 80
0.269071 -0.183040 0.354981 255 127 80
-0.096030 -0.064960 0.442655 255 127 80
0.096030 -0.064960 0.442655 255 127 80
-0.084448 0.046000 0.389264 255 127 80
-0.062679 0.136455 0.288922 255 127 80
0.269071 -0.064960 -0.354981 255 127 80
0.062679 0.136455 -0.288922 255 127 80
0.084448 0.046000 -0.389264 255 127 80
0.096030 -0.064960 -0.442655 255 127 80
0.033351 0.195495 -0.153732 255 127 80
0.038640 -0.499877 -0.173648 255 140 0
-0.072620 -0.430418 -0.326352 255 140 0
0.413607 -0.324000 -0.117230 255 140 0
0.397089 -0.324000 -0.191458 255 140 0
0.416887 -0.302586 -0.146946 255 140 0
0.435600 -0.324000 -0.018391 255 140 0
0.443850 -0.315000 -0.000000 255 140 0
-0.274144 -0.324000 -0.352606 255 140 0
-0.450484 -0.193459 -0.222521 255 140 0
-0.038640 -0.499877 0.173648 255 140 0
-0.203477 -0.430418 0.261714 255 140 0
-0.396149 -0.324000 0.195682 255 140 0
-0.500000 -0.193459 -0.000000 255 140 0
0.431556 -0.136069 0.000000 255 127 80
0.399678 -0.148483 0.146947 255 127 80
0.359717 -0.183040 0.235393 255 127 80
0.381100 -0.201302 0.193089 255 127 80
0.368016 -0.211794 0.202254 255 128 77
0.309476 -0.250000 0.250000 255 127 80
0.307001 -0.270086 0.237764 255 127 80
0.236617 -0.294000 0.312165 255 127 80
0.084448 -0.294000 0.389264 255 127 80
-0.096030 -0.183040 0.442655 255 127 80
-0.269071 -0.064960 0.354981 255 127 80
-0.236617 0.046000 0.312165 255 127 80
-0.175624 0.136455 0.231698 255 127 80
-0.033351 0.195495 0.153732 255 127 80
0.357920 -0.180983 -0.237764 255 127 80
-0.062679 0.136455 -0.288922 255 127 80
-0.084448 0.046000 -0.389264 255 127 80
-0.096030 -0.064960 -0.442655 255 127 80
0.269071 -0.183040 -0.354981 255 127 80
0.096030 -0.183040 -0.442655 255 127 80
0.399678 -0.148483 -0.146946 255 127 80
0.431556 -0.136069 -0.000000 255 127 80
-0.033351 0.195495 -0.153732 255 127 80
-0.038640 -0.499877 -0.173648 255 140 0
-0.203477 -0.430418 -0.261714 255 140 0
-0.396149 -0.324000 -0.195682 255 140 0
-0.108268 -0.499877 0.139255 255 140 0
-0.294033 -0.430418 0.145240 255 140 0
-0.439692 -0.324000 -0.000000 255 140 0
0.412839 -0.183040 0.086280 255 128 78
0.416450 -0.183040 0.069633 255 127 80
0.412385 -0.188181 0.077254 255 129 71
0.388819 -0.183040 0.197000 255 128 77
0.393128 -0.183040 0.177136 255 127 80
0.303902 -0.294000 0.223397 255 127 80
0.272466 -0.329194 0.202254 255 127 80
0.062679 -0.384455 0.288922 255 127 80
0.175624 -0.384455 0.231698 255 127 79
-0.084448 -0.294000 0.389264 255 127 80
-0.269071 -0.183040 0.354981 255 127 80
-0.388819 -0.064960 0.197000 255 127 80
-0.341921 0.046000 0.173239 255 127 80
-0.253783 0.136455 0.128583 255 127 80
-0.093447 0.195495 0.123284 255 127 80
0.309476 -0.250000 -0.250000 255 127 80
0.357644 -0.183040 -0.238129 255 127 80
0.381100 -0.201303 -0.193089 255 127 80
0.359718 -0.183040 -0.235393 255 127 80
0.368016 -0.211794 -0.202254 255 128 77
-0.236617 0.046000 -0.312165 255 127 80
-0.175624 0.136455 -0.231698 255 127 80
-0.269071 -0.064960 -0.354982 255 127 80
-0.096030 -0.183040 -0.442655 255 127 80
0.084448 -0.294000 -0.389264 255 127 80
0.393128 -0.183040 -0.177135 255 127 80
0.388819 -0.183040 -0.197000 255 127 80
0.416450 -0.183040 -0.069633 255 128 77
0.412839 -0.183040 -0.086279 255 127 80
0.412385 -0.188181 -0.077254 255 129 66
-0.093447 0.195495 -0.123284 255 127 80
-0.108268 -0.499877 -0.139255 255 140 0
-0.294033 -0.430418 -0.145240 255 140 0
-0.156452 -0.499877 0.077281 255 140 0
-0.326352 -0.430418 -0.000000 255 140 0
0.325202 -0.311159 0.164767 255 128 75
0.338340 -0.302586 0.146946 255 127 80
0.299146 -0.352806 0.077254 255 139 3
0.093447 -0.443496 0.123284 255 127 80
0.253784 -0.384455 0.128583 255 127 80
0.135035 -0.443496 0.068417 255 128 78
0.033351 -0.443496 0.153732 255 127 80
-0.388819 -0.183040 0.197000 255 127 79
-0.431556 -0.064960 -0.000000 255 127 80
-0.379504 0.046000 -0.000000 255 127 80
-0.281678 0.136455 -0.000000 255 127 80
-0.135035 0.195495 0.068417 255 127 80
0.272466 -0.329194 -0.202254 255 127 80
0.303902 -0.294000 -0.223397 255 127 80
0.236617 -0.294000 -0.312165 255 127 80
-0.341921 0.046000 -0.173239 255 127 80
-0.253783 0.136455 -0.128583 255 127 80
-0.388819 -0.064960 -0.197000 255 127 80
-0.269071 -0.183040 -0.354982 255 127 80
-0.084448 -0.294000 -0.389264 255 127 80
0.062679 -0.384455 -0.288922 255 127 80
-0.135035 0.195495 -0.068417 255 127 80
-0.156451 -0.499877 -0.077281 255 140 0
-0.173648 -0.499877 -0.000000 255 140 0
0.253784 -0.384455 -0.128582 255 137 12
0.299146 -0.352806 -0.077254 255 137 17
0.325202 -0.311159 -0.164767 255 140 3
0.281678 -0.384455 -0.000000 255 127 80
0.149878 -0.443496 -0.000000 255 127 80
0.000000 -0.464000 -0.000000 255 127 80
-0.033351 -0.443496 0.153732 255 127 80
-0.062679 -0.384455 0.288922 255 127 80
-0.236617 -0.294000 0.312165 255 127 78
-0.431556 -0.183040 -0.000000 255 127 80
-0.149878 0.195495 -0.000000 255 127 80
0.093447 -0.443496 -0.123284 255 127 80
0.253784 -0.384455 -0.128582 255 127 80
0.175624 -0.384455 -0.231698 255 127 80
-0.388819 -0.183040 -0.197000 255 127 80
-0.236617 -0.294000 -0.312165 255 127 80
-0.062679 -0.384455 -0.288922 255 127 80
0.033351 -0.443496 -0.153732 255 127 80
0.135035 -0.443496 -0.068417 255 140 0
0.281678 -0.384455 -0.000000 255 136 24
0.253784 -0.384455 -0.128582 255 137 13
-0.175624 -0.384455 0.231698 255 127 80
-0.341921 -0.294000 0.173239 255 127 80
0.135035 -0.443496 -0.068417 255 127 80
-0.341921 -0.294000 -0.173239 255 127 80
-0.175624 -0.384455 -0.231698 255 127 80
-0.033351 -0.443496 -0.153732 255 127 80
-0.093447 -0.443496 0.123284 255 127 80
-0.253783 -0.384455 0.128583 255 127 80
-0.379504 -0.294000 -0.000000 255 127 80
-0.253783 -0.384455 -0.128583 255 127 80
-0.093447 -0.443496 -0.123284 255 127 80
-0.135035 -0.443496 0.068417 255 127 80
-0.281678 -0.384455 -0.000000 255 127 80
-0.135035 -0.443496 -0.068417 255 127 80
-0.149878 -0.443496 -0.000000 255 127 80
0.156452 0.251877 -0.077281 255 255 255
0.000000 0.276000 -0.000000 255 255 255
0.173648 0.251877 -0.000000 255 255 255
0.108268 0.251877 -0.139255 255 255 255
0.038640 0.251877 -0.173648 255 255 255
-0.038640 0.251877 -0.173648 255 255 255
-0.108268 0.251877 -0.139255 255 255 255
-0.156451 0.251877 -0.077281 255 255 255
-0.173648 0.251877 -0.000000 255 255 255
-0.156452 0.251877 0.077281 255 255 255
-0.108268 0.251877 0.139255 255 255 255
-0.038640 0.251877 0.173648 255 255 255
0.038640 0.251877 0.173648 255 255 255
0.108268 0.251877 0.139255 255 255 255
0.156452 0.251877 0.077281 255 255 255
0.173648 0.251877 -0.000000 255 140 0
0.000000 0.276000 -0.000000 255 140 0
0.156452 0.251877 0.077281 255 140 0
0.156452 0.251877 -0.077281 255 140 0
0.000000 0.276000 -0.000000 255 140 0
0.173648 0.251877 -0.000000 255 140 0
0.108268 0.251877 -0.139255 255 140 0
0.038640 0.251877 -0.173648 255 140 0
-0.038640 0.251877 -0.173648 255 140 0
-0.108268 0.251877 -0.139255 255 140 0
-0.156451 0.251877 -0.077281 255 140 0
-0.173648 0.251877 -0.000000 255 140 0
-0.156452 0.251877 0.077281 255 140 0
-0.108268 0.251877 0.139255 255 140 0
-0.038640 0.251877 0.173648 255 140 0
0.038640 0.251877 0.173648 255 140 0
0.108268 0.251877 0.139255 255 140 0
0.156452 0.251877 0.077281 255 140 0
0.050000 0.310000 -0.000000 116 125 0
0.000000 0.310000 0.050000 104 122 0
-0.035355 0.310000 -0.035355 123 126 0
-0.000000 0.310000 -0.050000 122 126 3
0.035355 0.310000 0.035355 126 126 0
0.050000 0.310000 -0.000000 126 126 0
0.035355 0.310000 -0.035355 126 126 2
-0.035355 0.310000 -0.035355 126 126 0
-0.035355 0.310000 0.035355 126 126 0
0.035355 0.310000 -0.035355 97 120 0
0.035355 0.310000 -0.035355 105 122 0
0.307001 -0.270086 0.237764 255 127 80
0.357920 -0.180983 0.237764 255 127 80
0.438633 -0.180983 0.237764 255 127 80
0.384142 -0.329194 0.202254 255 130 59
0.446524 -0.211794 0.202254 255 140 0
0.449813 -0.193459 0.223385 255 140 0
0.394562 -0.325654 0.194897 255 129 69
0.397089 -0.324000 0.191458 255 130 62
0.391822 -0.352806 0.077254 255 140 0
0.443850 -0.315000 0.000000 255 140 0
0.443850 -0.315000 -0.000000 255 140 0
0.431556 -0.136069 0.000000 255 127 80
0.500000 -0.136069 0.000000 255 135 28
0.391822 -0.352806 -0.077254 255 140 0
0.416887 -0.302586 -0.146946 255 140 0
0.399678 -0.148483 -0.146946 255 127 80
0.467301 -0.148483 -0.146946 255 140 0
0.397089 -0.324000 -0.191458 255 140 0
0.394562 -0.325654 -0.194897 255 140 0
0.446524 -0.211794 -0.202254 255 140 0
0.357920 -0.180983 -0.237764 255 127 80
0.438633 -0.180983 -0.237764 255 127 80
0.449813 -0.193459 -0.223385 255 140 5
0.396548 -0.250000 -0.250000 255 140 0
0.438633 -0.180983 -0.237764 255 128 71
0.173648 0.251877 -0.000000 255 140 0
0.464524 -0.050000 0.150000 255 140 0
0.429452 0.050000 0.100000 255 140 1
0.429452 0.050000 -0.100000 255 140 0
0.464524 -0.050000 -0.150000 255 140 0
0.464524 -0.050000 0.150000 255 129 62
0.391997 -0.050000 0.150000 255 127 80
0.436913 -0.193459 -0.239976 255 140 0
0.450484 -0.193459 -0.222521 255 140 0
0.449813 -0.193459 -0.223385 255 140 0
0.482809 -0.188181 0.077254 255 140 0
0.311745 -0.193459 0.400969 255 137 22
0.388613 -0.324000 0.205374 255 140 0
0.391997 -0.050000 0.150000 255 255 255
0.323153 0.046000 -0.198000 255 127 80
0.388613 -0.324000 -0.205374 255 140 0
0.482809 -0.188181 -0.077254 255 140 0
-0.173648 0.251877 -0.000000 255 140 0
0.391997 -0.050000 0.150000 255 127 80
0.391997 -0.050000 -0.150000 255 255 255
0.464524 -0.050000 0.150000 255 255 255
0.391997 -0.050000 -0.150000 255 127 80
0.391997 -0.050000 -0.150000 255 127 80
0.464524 -0.050000 -0.150000 255 255 255
0.357644 -0.183040 0.238129 255 127 80
0.325202 -0.311159 0.164767 255 127 80
0.307001 -0.270086 -0.237764 255 127 80
0.356793 -0.315000 0.000000 255 127 80
0.281678 -0.384455 -0.000000 255 140 0
0.253784 -0.384455 0.128583 255 131 53
0.175624 -0.384455 -0.231698 255 130 62
0.253784 -0.384455 -0.128582 255 136 25
0.325202 -0.311159 -0.164767 255 129 70
0.281678 -0.384455 -0.000000 255 137 13
0.356793 -0.315000 0.000000 255 130 60
0.356793 -0.315000 -0.000000 255 130 60
0.338340 -0.302586 -0.146946 255 138 9
0.149878 -0.443496 -0.000000 255 140 0
3 0 1 2
3 3 4 2
3 5 6 4
3 7 8 6
3 9 10 8
3 11 12 10
3 13 14 15
3 16 17 12
3 17 18 0
3 2 6 10
3 19 20 21
3 22 20 23
3 24 25 26
3 27 28 29
3 30 31 32
3 33 34 35
3 36 37 31
3 38 39 40
3 41 37 42
3 43 44 45
3 46 47 48
3 49 50 51
3 52 53 47
3 54 55 56
3 57 58 59
3 60 61 62
3 63 58 64
3 65 66 67
3 68 69 70
3 71 69 72
3 73 74 75
3 76 77 78
3 79 77 80
3 81 77 76
3 80 77 82
3 83 77 81
3 82 77 84
3 85 77 83
3 84 77 86
3 87 77 85
3 86 77 88
3 89 77 87
3 88 77 90
3 90 77 89
3 91 92 93
3 94 93 95
3 96 91 97
3 98 99 100
3 93 101 102
3 103 104 105
3 97 94 106
3 95 102 107
3 108 97 109
3 110 99 98
3 100 99 111
3 102 112 113
3 114 115 116
3 117 118 106
3 109 106 119
3 103 107 120
3 107 113 121
3 122 109 123
3 124 99 110
3 111 99 125
3 112 126 113
3 105 127 128
3 129 116 118
3 119 118 130
3 123 119 131
3 132 133 134
3 120 121 135
3 113 136 121
3 137 123 138
3 139 99 124
3 125 99 140
3 141 142 126
3 143 144 105
3 145 146 147
3 148 149 128
3 114 128 149
3 150 117 151
3 130 118 152
3 131 130 153
3 138 131 154
3 155 156 157
3 103 158 159
3 120 160 132
3 161 162 163
3 121 164 135
3 126 165 136
3 166 137 138
3 167 99 139
3 140 99 168
3 169 170 142
3 171 172 173
3 174 175 117
3 176 177 178
3 179 180 151
3 181 182 183
3 153 184 185
3 118 186 187
3 188 189 190
3 154 153 191
3 192 138 154
3 193 155 194
3 132 195 162
3 135 196 160
3 197 162 198
3 136 199 164
3 142 200 165
3 201 202 166
3 203 99 167
3 168 99 204
3 205 206 170
3 207 208 209
3 210 143 211
3 146 212 213
3 179 213 214
3 215 216 217
3 218 219 220
3 221 222 223
3 224 184 183
3 191 185 225
3 226 227 228
3 229 154 191
3 230 166 192
3 162 231 198
3 160 232 195
3 196 199 233
3 234 235 236
3 237 234 238
3 165 239 199
3 170 240 200
3 206 241 201
3 242 99 203
3 204 99 243
3 244 173 172
3 245 246 208
3 211 247 210
3 210 248 145
3 145 249 212
3 213 212 250
3 179 251 180
3 214 213 250
3 252 217 216
3 180 253 218
3 254 223 255
3 256 183 257
3 258 259 260
3 225 224 261
3 229 225 262
3 263 192 229
3 240 201 230
3 198 264 235
3 231 232 265
3 232 233 266
3 199 267 233
3 268 236 235
3 260 236 269
3 259 270 271
3 272 273 274
3 200 275 239
3 243 99 242
3 211 209 276
3 277 211 278
3 279 247 280
3 281 248 247
3 282 249 248
3 212 249 250
3 251 214 250
3 283 174 219
3 219 284 285
3 283 285 286
3 218 287 284
3 253 251 250
3 268 254 255
3 288 257 254
3 255 260 269
3 261 256 289
3 290 291 292
3 270 293 294
3 262 261 295
3 263 262 296
3 275 230 263
3 268 235 264
3 231 297 264
3 265 266 298
3 266 267 299
3 239 300 267
3 268 269 236
3 301 302 209
3 303 304 305
3 306 307 308
3 309 278 308
3 310 280 277
3 311 281 279
3 312 282 281
3 313 314 282
3 249 314 250
3 246 283 315
3 285 316 317
3 286 317 318
3 319 286 320
3 321 322 246
3 284 323 316
3 287 253 250
3 268 255 269
3 268 288 254
3 289 288 324
3 295 289 325
3 296 295 326
3 275 296 300
3 268 264 297
3 297 298 327
3 298 299 328
3 299 300 329
3 330 331 332
3 304 333 334
3 308 335 336
3 337 308 338
3 339 277 309
3 340 279 310
3 341 312 311
3 342 313 312
3 343 344 313
3 314 344 250
3 345 346 319
3 347 348 349
3 350 316 351
3 352 317 350
3 320 318 353
3 354 319 320
3 355 356 347
3 357 358 359
3 351 323 360
3 323 287 250
3 268 324 288
3 325 324 361
3 326 325 362
3 300 326 329
3 268 297 327
3 327 328 363
3 328 329 364
3 365 366 367
3 368 369 370
3 371 338 368
3 337 339 309
3 339 340 310
3 372 311 340
3 373 342 341
3 374 343 342
3 375 376 343
3 344 376 250
3 377 378 379
3 380 351 381
3 382 350 380
3 353 352 383
3 354 353 384
3 385 379 354
3 381 360 386
3 360 323 250
3 268 361 324
3 362 361 387
3 329 362 364
3 268 327 363
3 363 364 388
3 389 390 391
3 370 392 393
3 394 368 370
3 394 371 368
3 395 337 371
3 396 397 339
3 397 372 340
3 398 341 372
3 373 380 374
3 374 381 375
3 375 386 399
3 376 399 250
3 400 401 402
3 383 382 403
3 384 383 404
3 405 354 384
3 406 402 385
3 386 360 250
3 268 387 361
3 364 387 388
3 268 363 388
3 407 408 409
3 394 370 393
3 394 395 371
3 395 410 396
3 410 411 397
3 411 398 372
3 403 373 398
3 399 386 250
3 394 412 400
3 404 403 413
3 405 404 414
3 406 405 415
3 394 400 406
3 268 388 387
3 394 393 412
3 394 416 395
3 416 417 410
3 417 418 411
3 413 398 418
3 414 413 419
3 415 414 420
3 394 406 415
3 394 421 416
3 421 422 417
3 419 418 422
3 420 419 423
3 394 415 420
3 394 424 421
3 423 422 424
3 394 420 423
3 394 423 424
3 425 426 427
3 428 426 425
3 429 426 428
3 430 426 429
3 431 426 430
3 432 426 431
3 433 426 432
3 434 426 433
3 435 426 434
3 436 426 435
3 437 426 436
3 438 426 437
3 439 426 438
3 440 441 442
3 443 444 445
3 446 444 443
3 447 444 446
3 448 444 447
3 449 444 448
3 450 444 449
3 451 444 450
3 452 444 451
3 453 444 452
3 454 444 453
3 455 444 454
3 456 444 455
3 457 444 456
3 0 458 1
3 3 459 4
3 5 7 6
3 7 9 8
3 9 460 10
3 11 461 12
3 15 462 463
3 463 464 13
3 13 465 14
3 14 466 15
3 15 463 13
3 16 467 17
3 17 468 18
3 17 0 2
3 2 4 6
3 6 8 10
3 10 12 17
3 17 2 10
3 19 469 20
3 470 471 23
3 471 22 23
3 22 21 20
3 469 19 26
3 19 24 26
3 24 472 25
3 28 473 29
3 29 474 27
3 474 471 27
3 471 470 27
3 25 472 32
3 472 475 32
3 475 476 32
3 476 30 32
3 39 38 35
3 38 33 35
3 33 473 34
3 473 28 34
3 31 30 36
3 36 477 37
3 44 43 40
3 43 38 40
3 37 477 42
3 42 478 41
3 478 479 41
3 479 48 41
3 480 481 45
3 481 43 45
3 48 479 46
3 46 482 47
3 55 54 51
3 54 49 51
3 49 481 50
3 481 480 50
3 47 482 52
3 52 483 53
3 484 485 56
3 485 54 56
3 53 483 59
3 483 486 59
3 486 487 59
3 487 57 59
3 65 488 62
3 488 60 62
3 60 485 61
3 485 484 61
3 58 57 64
3 64 68 63
3 68 70 63
3 489 490 66
3 490 491 66
3 491 67 66
3 67 488 65
3 68 492 69
3 69 492 72
3 72 493 71
3 493 489 71
3 91 494 92
3 94 91 93
3 96 494 91
3 93 92 101
3 114 94 95
3 115 495 104
3 105 114 95
3 103 115 104
3 105 95 103
3 97 91 94
3 95 93 102
3 108 96 97
3 102 101 112
3 116 94 114
3 115 103 116
3 106 94 117
3 117 175 118
3 109 97 106
3 103 95 107
3 107 102 113
3 122 108 109
3 112 141 126
3 128 496 105
3 105 147 127
3 497 117 94
3 175 498 129
3 497 94 116
3 118 175 129
3 129 497 116
3 119 106 118
3 123 109 119
3 157 156 134
3 156 103 134
3 103 120 134
3 120 132 134
3 120 107 121
3 113 126 136
3 137 122 123
3 141 169 142
3 144 147 105
3 105 499 143
3 499 500 143
3 146 127 147
3 147 144 210
3 210 145 147
3 128 127 146
3 146 179 128
3 179 148 128
3 207 115 149
3 115 114 149
3 220 117 150
3 117 497 151
3 501 184 152
3 184 130 152
3 118 502 152
3 502 503 152
3 131 119 130
3 138 123 131
3 159 186 116
3 116 103 159
3 103 156 158
3 156 193 158
3 158 504 159
3 120 135 160
3 161 133 505
3 505 162 161
3 162 506 163
3 121 136 164
3 126 142 165
3 166 202 137
3 169 205 170
3 171 507 172
3 117 220 508
3 174 245 175
3 117 508 174
3 178 151 497
3 497 176 178
3 180 150 151
3 151 178 148
3 148 179 151
3 509 183 182
3 183 184 181
3 184 501 181
3 153 130 184
3 227 502 187
3 502 118 187
3 118 116 186
3 186 510 187
3 154 131 153
3 192 166 138
3 193 156 155
3 132 160 195
3 135 164 196
3 198 234 197
3 234 237 197
3 197 506 162
3 136 165 199
3 142 170 200
3 201 241 202
3 205 511 206
3 149 148 207
3 148 208 207
3 500 512 207
3 143 500 207
3 209 143 207
3 144 143 210
3 143 209 211
3 146 145 212
3 179 146 213
3 215 513 216
3 219 508 220
3 220 150 180
3 180 218 220
3 223 257 221
3 257 183 221
3 183 509 221
3 224 185 184
3 191 153 185
3 226 502 227
3 229 192 154
3 230 201 166
3 162 195 231
3 160 196 232
3 196 164 199
3 234 198 235
3 234 260 238
3 260 259 238
3 259 271 238
3 238 273 237
3 273 272 237
3 165 200 239
3 170 206 240
3 206 511 241
3 244 514 173
3 208 148 245
3 148 178 245
3 515 516 245
3 245 174 246
3 178 515 245
3 211 280 247
3 210 247 248
3 145 248 249
3 179 214 251
3 252 517 217
3 180 251 253
3 254 257 223
3 256 224 183
3 260 223 258
3 223 222 258
3 222 291 290
3 258 293 259
3 222 290 258
3 225 185 224
3 229 191 225
3 263 230 192
3 240 206 201
3 198 231 264
3 231 195 232
3 232 196 233
3 199 239 267
3 260 234 236
3 200 240 275
3 209 333 276
3 333 303 276
3 276 518 278
3 278 211 276
3 277 280 211
3 279 281 247
3 281 282 248
3 282 314 249
3 246 174 283
3 174 508 219
3 219 218 284
3 283 219 285
3 218 253 287
3 288 256 257
3 255 223 260
3 261 224 256
3 270 259 293
3 262 225 261
3 263 229 262
3 275 240 230
3 231 265 297
3 265 232 266
3 266 233 267
3 239 275 300
3 301 331 302
3 331 330 302
3 302 334 333
3 208 322 301
3 302 333 209
3 208 301 209
3 303 333 304
3 307 335 308
3 308 278 306
3 278 518 306
3 309 277 278
3 310 279 280
3 311 312 281
3 312 313 282
3 313 344 314
3 283 319 315
3 319 346 315
3 315 348 356
3 356 246 315
3 285 284 316
3 286 285 317
3 319 283 286
3 246 356 321
3 356 355 321
3 321 358 357
3 322 208 246
3 321 357 322
3 284 287 323
3 289 256 288
3 295 261 289
3 296 262 295
3 275 263 296
3 297 265 298
3 298 266 299
3 299 267 300
3 519 369 336
3 369 338 336
3 338 308 336
3 337 309 308
3 339 310 277
3 340 311 279
3 341 342 312
3 342 343 313
3 343 376 344
3 319 379 345
3 379 378 520
3 345 379 520
3 347 356 348
3 350 317 316
3 352 318 317
3 320 286 318
3 354 379 319
3 351 316 323
3 325 289 324
3 326 295 325
3 300 296 326
3 327 298 328
3 328 299 329
3 521 522 367
3 522 523 367
3 523 365 367
3 368 338 369
3 371 337 338
3 337 396 339
3 339 397 340
3 372 341 311
3 373 374 342
3 374 375 343
3 375 399 376
3 379 524 377
3 524 525 377
3 525 526 377
3 380 350 351
3 382 352 350
3 353 318 352
3 354 320 353
3 385 402 379
3 381 351 360
3 362 325 361
3 329 326 362
3 363 328 364
3 389 527 390
3 527 528 390
3 528 529 390
3 390 530 391
3 370 369 392
3 395 396 337
3 396 410 397
3 397 411 372
3 398 373 341
3 373 382 380
3 374 380 381
3 375 381 386
3 400 412 401
3 383 352 382
3 384 353 383
3 405 385 354
3 406 400 402
3 364 362 387
3 407 531 408
3 395 416 410
3 410 417 411
3 411 418 398
3 403 382 373
3 404 383 403
3 405 384 404
3 406 385 405
3 416 421 417
3 417 422 418
3 413 403 398
3 414 404 413
3 415 405 414
3 421 424 422
3 419 413 418
3 420 414 419
3 423 419 422
