ply
format ascii 1.0
comment Created by Blender 2.79 (sub 0) - www.blender.org, source file: 'scarecrow.blend'
element vertex 648
property float x
property float y
property float z
property uchar red
property uchar green
property uchar blue
element face 837
property list uchar uint vertex_indices
end_header
0.000000 1.390418 0.025000 104 122 0
0.017678 1.365848 0.017678 0 100 0
0.017678 1.390418 0.017678 115 124 0
0.017678 1.390418 -0.017678 105 122 0
0.025000 1.365848 -0.000000 0 100 0
0.017678 1.365848 -0.017678 0 100 0
-0.250000 1.166498 0.000000 255 140 0
-0.225242 1.081168 0.111261 255 140 0
-0.225242 1.166498 0.111261 255 140 0
0.025000 1.390418 -0.000000 116 125 0
0.225242 1.039127 0.111261 255 140 0
0.225242 1.166498 0.111261 255 140 0
0.218457 1.081168 0.119988 255 140 0
-0.017677 1.390418 0.017678 117 124 0
0.000000 1.365848 0.025000 0 100 0
0.000000 1.390418 0.025000 120 126 0
-0.147016 1.312050 0.072620 255 140 0
-0.219846 1.246683 0.000000 255 140 0
-0.198075 1.246683 0.097841 255 140 0
-0.017677 1.390418 -0.017678 123 126 0
-0.025000 1.365848 0.000000 0 100 0
-0.025000 1.390418 0.000000 123 126 0
-0.147016 1.312050 -0.072620 255 140 0
-0.198075 1.246683 -0.097841 255 140 0
0.218457 1.081168 0.119988 255 128 78
0.198274 1.046437 0.125000 255 140 0
0.178960 1.046790 0.118882 255 127 80
0.147016 1.312050 -0.072620 255 140 0
0.219847 1.246683 -0.000000 255 140 0
0.198075 1.246683 -0.097841 255 140 0
0.195911 0.983289 0.038627 255 140 0
0.149573 0.983289 0.038627 255 127 80
0.169170 1.014136 0.073473 255 127 80
-0.137072 1.246683 -0.176303 255 140 0
-0.036310 1.312050 -0.163176 255 140 0
-0.048921 1.246683 -0.219847 255 140 0
-0.016676 0.927582 -0.076866 255 127 80
-0.087812 0.963848 -0.115849 255 127 80
-0.046724 0.927582 -0.061642 255 127 80
0.194409 1.045527 -0.098500 255 127 80
0.196564 1.045527 -0.088568 255 127 80
0.199839 1.066753 -0.073473 255 127 80
0.241405 1.042369 -0.038627 255 140 0
0.206193 1.042369 -0.038627 255 127 80
0.206419 1.045527 -0.043140 255 127 80
-0.087812 1.283818 0.115849 255 127 80
-0.016675 1.320083 0.076866 255 127 80
-0.031339 1.283818 0.144461 255 127 80
0.067517 0.927582 -0.034208 255 140 0
0.140839 0.963848 -0.000000 255 136 24
0.126892 0.963848 -0.064291 255 137 13
-0.170961 1.019410 0.086619 255 127 80
-0.215778 1.087568 0.000000 255 127 80
-0.194410 1.087568 0.098500 255 127 79
0.086824 1.382785 -0.000000 0 100 0
0.000000 1.369042 -0.000000 0 100 0
0.078226 1.358215 0.038640 0 100 0
0.078226 1.358215 -0.038640 0 100 0
0.000000 1.369042 -0.000000 0 100 0
0.086824 1.382785 -0.000000 0 100 0
0.078226 1.358215 0.038640 0 100 0
0.054134 1.382785 0.069628 0 100 0
0.054134 1.382785 -0.069628 0 100 0
0.019320 1.358215 0.086824 0 100 0
0.019320 1.358215 -0.086824 0 100 0
-0.019320 1.382785 0.086824 0 100 0
-0.019320 1.382785 -0.086824 0 100 0
-0.054134 1.358215 0.069628 0 100 0
-0.054134 1.358215 -0.069628 0 100 0
-0.078226 1.382785 0.038640 0 100 0
-0.078225 1.382785 -0.038640 0 100 0
-0.086824 1.358215 0.000000 0 100 0
-0.101739 0.935616 -0.130857 255 140 0
-0.019320 0.892950 -0.086824 255 140 0
-0.054134 0.892950 -0.069628 255 140 0
-0.078225 1.354716 -0.038640 255 255 255
-0.078226 1.354716 0.038640 255 255 255
0.000000 1.369533 -0.000000 255 255 255
0.031340 1.283818 0.144461 255 127 80
-0.194410 1.160098 0.098500 255 127 80
-0.134536 1.087568 0.177491 255 127 80
0.140839 1.283818 -0.000000 255 127 80
0.067518 1.320083 0.034208 255 127 80
0.074939 1.320083 -0.000000 255 127 80
-0.215778 1.160098 0.000000 255 127 80
-0.170961 1.228256 -0.086619 255 127 80
-0.189752 1.228256 0.000000 255 127 80
-0.019320 1.354716 0.086824 255 255 255
-0.078226 1.354716 0.038640 255 140 0
-0.163176 1.312050 0.000000 255 140 0
-0.036310 0.935616 0.163176 255 140 0
-0.137072 1.000983 0.176303 255 140 0
-0.101739 0.935616 0.130857 255 140 0
0.046723 0.927582 0.061642 255 127 80
0.126892 0.963848 0.064291 255 127 80
0.067517 0.927582 0.034208 255 128 78
-0.126891 1.283818 -0.064291 255 127 80
-0.046723 1.320083 -0.061642 255 127 80
-0.067517 1.320083 -0.034208 255 127 80
-0.019320 1.354716 0.086824 255 255 255
-0.078226 1.354716 0.038640 255 255 255
-0.054134 1.354716 0.069628 255 255 255
0.169012 1.230713 0.085632 255 129 70
0.176742 1.230713 0.050000 255 127 80
0.203600 1.230713 0.100000 255 140 0
0.232262 1.169288 -0.075000 255 140 0
0.250000 1.166498 -0.000000 255 140 0
0.225242 1.166498 -0.111261 255 140 0
-0.198075 1.000983 0.097841 255 140 0
0.054134 1.354716 -0.069628 255 140 0
0.101738 1.312050 -0.130857 255 140 0
0.031339 0.963848 -0.144461 255 127 80
0.016675 0.927582 -0.076866 255 127 80
-0.048015 1.087568 0.221327 255 127 80
0.042224 1.019410 0.194632 255 127 80
-0.042224 1.019410 0.194632 255 127 80
0.019320 1.354716 0.086824 255 255 255
0.194410 1.045527 0.098500 255 128 77
0.184008 1.027864 0.101127 255 128 77
0.179859 1.045527 0.117697 255 127 80
0.126892 1.283818 0.064291 255 127 80
0.214726 1.230713 0.050000 255 140 0
0.178688 1.228256 0.051000 255 127 80
0.195999 1.169288 0.075000 255 127 80
0.147016 1.312050 0.072620 255 140 0
0.054134 1.354716 0.069628 255 140 0
0.101739 1.312050 0.130857 255 140 0
0.225053 1.038566 0.111166 255 140 0
0.224907 1.039128 0.111693 255 140 0
-0.055630 1.081168 0.250000 255 140 0
0.048920 1.000983 0.219847 255 140 0
0.055630 1.081168 0.250000 255 140 0
0.126892 0.963848 0.064291 255 131 53
0.149573 0.983289 0.038627 255 139 3
0.140839 0.963848 -0.000000 255 140 0
-0.019320 1.354716 -0.086824 255 140 0
0.000000 1.369533 -0.000000 255 145 10
0.019320 1.354716 -0.086824 255 140 0
0.078226 1.354716 0.038640 255 255 255
0.019320 1.354716 0.086824 255 255 255
0.054134 1.354716 0.069628 255 255 255
-0.170961 1.019410 -0.086619 255 127 80
-0.189752 1.019410 0.000000 255 127 80
0.232262 1.169288 0.075000 255 255 255
0.195999 1.169288 0.075000 255 255 255
0.232262 1.169288 0.075000 255 255 255
0.161576 1.228256 -0.099000 255 127 80
0.178288 1.206958 -0.090332 255 127 80
0.203600 1.230713 -0.100000 255 140 0
0.178688 1.228256 -0.051000 255 127 80
0.214726 1.230713 -0.050000 255 140 0
0.195999 1.169288 -0.075000 255 128 74
0.224907 1.081168 -0.111693 255 127 80
0.225242 1.081168 -0.111261 255 127 80
0.225053 1.080607 -0.111166 255 127 80
-0.118308 1.228256 0.156082 255 127 80
-0.134536 1.160098 0.177491 255 127 80
0.225242 1.039127 -0.111261 255 140 0
0.223262 1.027864 -0.101127 255 140 0
0.225052 1.038566 -0.111166 255 140 0
0.036310 1.312050 -0.163176 255 140 0
0.137072 1.246683 -0.176303 255 140 0
0.048921 1.246683 -0.219847 255 140 0
-0.078226 0.892950 0.038640 255 140 0
-0.163176 0.935616 0.000000 255 140 0
-0.086824 0.892950 0.000000 255 140 0
0.031340 1.283818 -0.144461 255 127 80
-0.042223 1.228256 -0.194632 255 127 80
0.042224 1.228256 -0.194632 255 127 80
-0.101738 1.312050 -0.130857 255 140 0
-0.137072 1.246683 0.176303 255 140 0
-0.155872 1.166498 0.200484 255 140 0
-0.019320 1.354716 -0.086824 255 255 255
0.054134 1.354716 -0.069628 255 255 255
0.019320 1.354716 -0.086824 255 255 255
-0.046724 0.927582 0.061642 255 127 80
-0.126892 0.963848 0.064291 255 127 80
-0.087812 0.963848 0.115849 255 127 80
0.134536 1.160098 0.177491 255 127 80
0.118308 1.228256 0.156082 255 127 80
0.161576 1.228256 0.099000 255 127 80
0.042224 1.228256 0.194632 255 127 80
0.232262 1.169288 -0.075000 255 255 255
0.195999 1.169288 -0.075000 255 255 255
0.232262 1.169288 -0.075000 255 255 255
-0.140839 1.283818 0.000000 255 127 80
0.134536 1.087568 0.177491 255 127 80
0.118308 1.019410 0.156082 255 127 80
-0.055630 1.166498 -0.250000 255 140 0
0.218457 1.081168 -0.119988 255 140 0
0.155872 1.166498 -0.200484 255 140 0
-0.170961 1.228256 0.086619 255 127 80
0.163176 0.935616 -0.000000 255 140 0
0.078226 0.892950 0.038640 255 140 0
0.086824 0.892950 -0.000000 255 140 0
0.019320 1.354716 -0.086824 255 140 0
-0.019320 1.354716 -0.086824 255 140 0
-0.198075 1.000983 -0.097841 255 140 0
-0.147017 0.935616 -0.072620 255 140 0
-0.017677 1.365848 0.017678 0 100 0
0.219316 1.046790 -0.118882 255 128 71
0.178960 1.046790 -0.118882 255 127 80
0.218457 1.081168 -0.119988 255 128 77
-0.078226 1.354716 0.038640 255 140 0
-0.078225 1.354716 -0.038640 255 140 0
-0.086824 1.354716 0.000000 255 140 0
0.195999 1.169288 0.075000 255 255 255
0.134536 1.160098 -0.177491 255 127 80
0.048015 1.160098 -0.221327 255 127 80
-0.048920 1.246683 0.219847 255 140 0
0.055630 1.166498 0.250000 255 140 0
0.048921 1.246683 0.219847 255 140 0
0.067517 0.927582 -0.034208 255 127 80
0.046723 0.927582 -0.061642 255 127 80
-0.155872 1.166498 -0.200484 255 140 0
-0.016675 1.320083 -0.076866 255 127 80
0.000000 1.332678 -0.000000 255 127 80
0.195999 1.169288 -0.075000 255 255 255
-0.055630 1.081168 -0.250000 255 140 0
0.048920 1.000983 -0.219847 255 140 0
-0.048921 1.000983 -0.219847 255 140 0
0.184008 1.027864 -0.101127 255 128 77
0.190550 1.034309 -0.096544 255 127 80
0.198544 1.000983 -0.095729 255 140 0
0.206803 1.000983 -0.058615 255 140 0
0.195911 0.983289 -0.038627 255 140 0
-0.126892 0.963848 -0.064291 255 127 80
-0.067518 0.927582 -0.034208 255 127 80
0.036310 0.935616 0.163176 255 140 0
-0.078226 0.892950 -0.038640 255 140 0
0.155872 1.081168 0.200484 255 140 0
0.155872 1.166498 0.200484 255 140 0
0.190550 1.034309 -0.096544 255 127 80
0.223262 1.027864 -0.101127 255 140 0
0.196564 1.045527 -0.088568 255 128 81
0.219846 1.000983 -0.000000 255 140 0
0.221925 1.006511 -0.000000 255 140 0
0.217800 1.000983 0.009195 255 140 0
0.198544 1.000983 0.095729 255 140 0
0.206803 1.000983 0.058615 255 140 0
0.208443 1.014136 0.073473 255 140 0
-0.118309 1.019410 0.156082 255 127 78
-0.031340 0.963848 0.144461 255 127 80
0.016675 0.927582 0.076866 255 127 80
-0.016676 0.927582 0.076866 255 127 80
-0.055630 1.166498 0.250000 255 140 0
-0.155872 1.081168 0.200484 255 140 0
0.137072 1.246683 0.176303 255 140 0
0.036310 1.312050 0.163176 255 140 0
0.137072 1.000983 -0.176303 255 140 0
0.194306 1.000983 -0.102687 255 140 0
0.192070 0.997792 -0.101127 255 140 0
0.118308 1.228256 -0.156082 255 127 80
0.155872 1.081168 -0.200484 255 140 0
-0.147017 0.935616 0.072620 255 140 0
0.042224 1.019410 -0.194632 255 127 80
0.134536 1.087568 -0.177491 255 127 80
0.048015 1.087568 -0.221327 255 127 80
0.078226 1.354716 -0.038640 255 255 255
0.078226 1.354716 0.038640 255 140 1
0.086824 1.354716 -0.000000 255 255 255
-0.101738 1.312050 0.130857 255 140 0
0.087812 1.283818 0.115849 255 127 80
0.016676 1.320083 0.076866 255 127 80
0.046724 1.320083 0.061642 255 127 80
0.208443 1.014136 -0.073473 255 140 0
0.217800 1.000983 -0.009196 255 140 0
0.221925 1.006511 -0.000000 255 140 0
0.016676 1.320083 -0.076866 255 127 80
-0.031339 1.283818 -0.144461 255 127 80
-0.225242 1.081168 -0.111261 255 140 0
-0.137072 1.000983 -0.176303 255 140 0
-0.017677 1.390418 -0.017678 126 126 0
-0.017677 1.390418 0.017678 126 126 0
0.017678 1.390418 0.017678 126 126 0
0.101738 0.935616 0.130857 255 140 0
0.019320 0.892950 0.086824 255 140 0
0.054134 0.892950 0.069628 255 140 0
0.036310 0.935616 -0.163176 255 140 0
-0.036310 0.935616 -0.163176 255 140 0
0.017678 1.390418 -0.017678 97 120 0
0.000000 1.365848 -0.025000 0 100 0
0.000000 1.390418 -0.025000 102 122 0
-0.219846 1.000983 0.000000 255 140 0
0.137072 1.000983 0.176303 255 140 0
0.194306 1.000983 0.102687 255 140 0
0.198274 1.046437 0.125000 255 140 0
0.233651 1.066753 0.073473 255 127 80
0.199839 1.066753 0.073473 255 127 80
0.206419 1.045527 0.043140 255 127 80
0.198075 1.246683 0.097841 255 140 0
0.087812 0.963848 0.115849 255 127 79
0.241405 1.042369 0.038627 255 140 0
0.208225 1.045527 0.034816 255 127 80
0.215778 1.074379 -0.000000 255 127 80
-0.042224 1.019410 -0.194632 255 127 80
-0.134536 1.087568 -0.177491 255 127 80
-0.118309 1.019410 -0.156082 255 127 80
0.000000 1.390418 -0.025000 122 126 3
-0.017677 1.365848 -0.017678 0 100 0
-0.017677 1.390418 -0.017678 126 130 2
-0.155873 1.081168 -0.200484 255 140 0
0.087812 0.963848 -0.115849 255 127 80
0.206419 1.045527 0.043140 255 128 78
0.208225 1.045527 0.034816 255 127 80
0.206192 1.042369 0.038627 255 129 71
0.190550 1.034309 0.096544 255 127 80
0.196564 1.045527 0.088568 255 127 80
0.055630 1.081168 -0.250000 255 140 0
0.055630 1.166498 -0.250000 255 140 0
0.067518 1.320083 -0.034208 255 127 80
0.126892 1.283818 -0.064291 255 127 80
0.118308 1.019410 -0.156082 255 127 80
-0.042224 1.228256 0.194632 255 127 80
-0.048015 1.160098 -0.221327 255 127 80
-0.048015 1.087568 -0.221327 255 127 80
0.158121 1.230713 0.100000 255 127 80
-0.134536 1.160098 -0.177491 255 127 80
-0.194410 1.087568 -0.098500 255 127 80
0.101738 0.935616 -0.130857 255 140 0
0.208225 1.045527 -0.034817 255 128 77
0.206419 1.045527 -0.043140 255 127 80
0.206192 1.042369 -0.038627 255 129 66
0.046724 1.320083 -0.061642 255 127 80
0.087812 1.283818 -0.115849 255 127 80
0.078226 1.354716 -0.038640 255 140 0
0.163176 1.312050 -0.000000 255 140 0
-0.074939 1.320083 0.000000 255 127 80
0.126892 0.963848 -0.064291 255 127 80
-0.126891 1.283818 0.064291 255 127 80
-0.036310 1.312050 0.163176 255 140 0
-0.087812 1.283818 -0.115849 255 127 80
0.136233 0.997792 -0.101127 255 127 80
0.151951 1.019410 -0.111699 255 127 80
0.078226 0.892950 -0.038640 255 140 0
-0.140839 0.963848 0.000000 255 127 80
0.126892 0.963848 -0.064291 255 137 12
0.149573 0.983289 -0.038627 255 137 17
0.162601 1.008870 -0.082383 255 140 3
-0.067518 0.927582 0.034208 255 127 80
0.019320 1.354716 0.086824 255 140 0
0.233651 1.066753 -0.073473 255 140 0
0.229279 1.039127 -0.093119 255 140 0
0.048015 1.160098 0.221327 255 127 80
-0.048015 1.160098 0.221327 255 127 80
-0.000000 0.914988 0.000000 255 127 80
0.169170 1.014136 -0.073473 255 127 80
0.149573 0.983289 -0.038627 255 127 80
0.195911 0.983289 -0.038627 255 140 0
-0.067517 1.320083 0.034208 255 127 80
-0.074939 0.927582 0.000000 255 127 80
-0.048921 1.000983 0.219847 255 140 0
-0.225242 1.166498 -0.111261 255 140 0
-0.250000 1.081168 0.000000 255 140 0
0.198274 1.046437 -0.125000 255 140 0
-0.046723 1.320083 0.061642 255 127 80
0.208225 1.045527 -0.034817 255 127 80
0.215778 1.074379 -0.000000 255 127 80
0.194410 1.160098 0.098500 255 127 80
0.178960 1.088831 0.118882 255 127 80
0.074939 0.927582 -0.000000 255 127 80
0.054134 1.354716 -0.069628 255 140 0
0.086824 1.354716 -0.000000 255 140 0
0.078226 1.354716 -0.038640 255 140 0
-0.019320 1.354716 -0.086824 255 140 0
0.019320 1.354716 -0.086824 255 140 0
-0.019320 1.354716 -0.086824 255 255 255
-0.054134 1.354716 -0.069628 255 255 255
0.054134 1.354716 -0.069628 255 140 0
0.086824 1.354716 -0.000000 255 140 0
0.078226 1.354716 -0.038640 255 140 0
0.078226 1.354716 0.038640 255 255 255
0.000000 1.369533 -0.000000 255 255 255
-0.054134 1.354716 -0.069628 255 140 0
0.086824 1.354716 -0.000000 255 140 0
0.000000 1.369533 -0.000000 255 140 0
0.078226 1.354716 0.038640 255 140 0
0.078226 1.354716 0.038640 255 140 0
0.019320 1.354716 0.086824 255 140 0
0.054134 1.354716 0.069628 255 140 0
-0.078225 1.354716 -0.038640 255 140 0
-0.019320 1.354716 -0.086824 255 140 0
-0.054134 1.354716 -0.069628 255 140 0
-0.078225 1.354716 -0.038640 255 255 255
-0.086824 1.354716 0.000000 255 255 255
0.054134 1.354716 -0.069628 255 140 0
0.000000 1.369533 -0.000000 255 140 0
-0.019320 1.354716 0.086824 255 140 0
-0.054134 1.354716 0.069628 255 140 0
0.048015 1.087568 0.221327 255 127 80
-0.031340 0.963848 -0.144461 255 127 80
-0.194410 1.160098 -0.098500 255 127 80
0.178396 1.006511 -0.000000 255 127 80
-0.019320 1.354716 0.086824 255 140 0
0.196564 1.045527 0.088568 255 127 80
0.229279 1.039127 0.093119 255 140 0
0.031339 0.963848 0.144461 255 127 80
0.221925 1.006511 -0.000000 255 140 0
0.221925 1.006511 -0.000000 255 140 0
0.178396 1.006511 -0.000000 255 127 80
0.054134 0.892950 -0.069628 255 140 0
0.147016 0.935616 -0.072620 255 140 0
0.250000 1.074379 -0.000000 255 135 28
0.250000 1.074379 -0.000000 255 135 28
0.198544 1.000983 -0.095729 255 140 0
0.192070 0.997792 -0.101127 255 140 0
0.176742 1.230713 -0.050000 255 127 80
0.169012 1.230713 -0.085632 255 127 80
-0.078225 1.354716 -0.038640 255 140 0
0.232262 1.169288 0.075000 255 140 0
0.232262 1.169288 0.075000 255 140 0
0.232262 1.169288 0.075000 255 140 0
-0.118308 1.228256 -0.156082 255 127 80
0.232262 1.169288 -0.075000 255 140 0
0.232262 1.169288 -0.075000 255 140 0
0.223262 1.027864 0.101127 255 140 0
0.229279 1.039127 0.093119 255 140 0
0.219316 1.046790 0.118882 255 127 80
0.179859 1.045527 0.117697 255 127 80
0.195999 1.169288 0.075000 255 127 80
0.178288 1.206958 0.090332 255 127 80
0.192071 0.997792 0.101127 255 130 59
0.136233 0.997792 0.101127 255 127 80
0.151951 1.019410 0.111699 255 129 83
0.250000 1.074380 -0.000000 255 140 0
0.250000 1.074380 -0.000000 255 140 0
0.233651 1.066753 0.073473 255 140 0
0.241405 1.042369 0.038627 255 140 0
0.195999 1.169288 0.075000 255 255 255
0.147016 0.935616 0.072620 255 140 0
0.078226 1.354716 0.038640 255 140 0
0.192071 0.997792 0.101127 255 140 0
0.215778 1.160098 -0.000000 255 127 80
0.195999 1.169288 0.075000 255 127 80
0.195999 1.169288 -0.075000 255 255 255
0.158121 1.230713 -0.100000 255 127 80
0.195911 0.983289 0.038627 255 140 0
0.198274 1.046437 -0.125000 255 140 0
0.154738 1.046437 -0.125000 255 127 80
0.151951 1.019410 -0.111699 255 127 80
0.232262 1.169288 0.075000 255 255 255
0.195999 1.169288 -0.075000 255 127 80
-0.054134 1.354716 0.069628 255 140 0
0.195999 1.169288 -0.075000 255 127 80
0.195999 1.169288 -0.075000 255 127 80
0.232262 1.169288 -0.075000 255 255 255
-0.054134 1.354716 -0.069628 255 140 0
0.217800 1.000983 -0.009196 255 140 0
0.140839 0.963848 -0.000000 255 127 80
0.184008 1.027864 -0.101127 255 127 80
0.179859 1.045527 -0.117697 255 127 80
0.219316 1.046790 -0.118882 255 127 80
0.215778 1.074379 -0.000000 255 127 80
0.215778 1.074379 -0.000000 255 127 80
0.199839 1.066753 0.073473 255 127 80
0.198544 1.000983 0.095729 255 130 62
0.178822 1.087568 0.119065 255 127 80
0.154738 1.046437 0.125000 255 127 80
0.019320 0.892950 -0.086824 255 140 0
-0.054134 0.892950 0.069628 255 140 0
0.178822 1.087568 -0.119065 255 127 80
0.178960 1.088831 -0.118882 255 127 80
0.151951 1.019410 0.111699 255 127 80
0.136233 0.997792 0.101127 255 127 80
0.154738 1.046437 -0.125000 255 127 80
-0.019320 0.892950 0.086824 255 140 0
0.178396 1.006511 -0.000000 255 130 60
0.178396 1.006511 -0.000000 255 130 60
0.050000 -0.502353 -0.050000 139 69 19
-0.050000 -0.502353 0.050000 139 69 19
-0.050000 -0.502353 -0.050000 139 69 19
-0.050000 0.997647 -0.050000 139 69 19
0.050000 0.997647 0.050000 139 69 19
0.050000 0.997647 -0.050000 139 69 19
0.050000 -0.502353 0.050000 139 69 19
-0.050000 0.997647 0.050000 139 69 19
0.040000 0.627059 -0.500000 139 69 19
-0.040000 0.627059 0.500000 139 69 19
-0.040000 0.627059 -0.500000 139 69 19
0.040000 0.721176 -0.499999 139 69 19
-0.040000 0.721176 0.500000 139 69 19
0.040000 0.721176 0.500000 139 69 19
0.040000 0.627059 0.500000 139 69 19
-0.040000 0.721176 -0.500000 139 69 19
-0.150000 0.040496 0.100000 50 50 50
-0.150000 0.768235 0.350000 47 47 47
-0.150000 0.075790 -0.130000 50 50 50
0.150000 0.768235 0.350000 47 47 47
0.110000 0.721176 0.350000 47 47 47
-0.150000 0.768235 -0.350000 47 47 47
0.150000 0.768235 -0.350000 47 47 47
0.110000 0.721176 -0.350000 47 47 47
-0.110000 0.721176 -0.350000 48 48 48
-0.150000 0.768235 -0.350000 50 50 50
0.150000 -0.018328 0.000000 50 50 50
0.150000 0.075790 -0.130000 50 50 50
0.150000 0.040496 0.100000 50 50 50
-0.110000 0.075790 -0.130000 50 50 50
-0.110000 -0.006563 -0.280000 50 50 50
-0.110000 0.721176 -0.350000 47 47 47
-0.110000 0.721176 -0.350000 50 50 50
0.110000 0.721176 0.350000 59 59 59
-0.110000 0.721176 0.350000 70 70 70
0.110000 0.075790 -0.130000 50 50 50
0.110000 0.040496 0.100000 50 50 50
0.110000 -0.047740 0.025000 50 50 50
0.110000 -0.018328 0.000000 50 50 50
0.110000 -0.047740 -0.025000 70 70 70
0.150000 -0.018328 0.000000 52 52 52
0.110000 -0.018328 0.000000 73 73 73
0.110000 -0.047740 0.025000 76 76 76
0.150000 0.040496 0.100000 51 51 51
0.150000 -0.047740 -0.025000 50 50 50
0.150000 -0.088916 0.210000 50 50 50
0.110000 -0.053622 -0.240000 59 59 59
0.110000 -0.088916 0.210000 50 50 50
0.150000 -0.006563 0.280000 73 73 73
0.110000 -0.006563 0.280000 52 52 52
0.150000 -0.053622 -0.240000 50 50 50
0.110000 -0.006563 -0.280000 50 50 50
0.150000 -0.006563 -0.280000 50 50 50
0.150000 -0.088916 0.350000 50 50 50
0.110000 -0.006563 0.280000 50 50 50
0.150000 -0.006563 0.280000 50 50 50
0.110000 -0.088916 -0.350000 50 50 50
0.150000 -0.006563 -0.280000 52 52 52
0.110000 -0.006563 -0.280000 51 51 51
-0.110000 -0.018328 -0.000000 50 50 50
-0.150000 -0.047740 0.025000 50 50 50
-0.150000 -0.018328 -0.000000 50 50 50
-0.150000 -0.047740 -0.025000 53 53 53
-0.110000 -0.018328 -0.000000 52 52 52
-0.150000 -0.018328 -0.000000 51 51 51
-0.150000 -0.047740 0.025000 52 52 52
-0.110000 0.040496 0.100000 50 50 50
-0.150000 0.040496 0.100000 51 51 51
-0.110000 -0.047740 -0.025000 50 50 50
-0.110000 -0.088916 0.210000 50 50 50
-0.150000 -0.053622 -0.240000 60 60 60
-0.150000 -0.088916 0.210000 55 55 55
-0.110000 -0.006563 0.280000 54 54 54
-0.150000 -0.006563 0.280000 52 52 52
-0.110000 -0.053622 -0.240000 50 50 50
-0.150000 -0.006563 -0.280000 50 50 50
-0.110000 -0.006563 0.280000 50 50 50
-0.150000 -0.088916 0.350000 50 50 50
-0.150000 -0.006563 0.280000 50 50 50
-0.150000 -0.088916 -0.350000 50 50 50
-0.110000 -0.006563 -0.280000 51 51 51
-0.150000 -0.006563 -0.280000 59 59 59
0.025000 1.390418 -0.000000 110 124 0
0.017678 1.390418 0.017678 116 124 0
0.219316 1.046788 0.118882 255 140 0
0.154738 1.046437 0.125000 255 127 80
0.178822 1.087568 0.119065 255 127 80
0.208443 1.014136 0.073473 255 140 0
0.206803 1.000983 0.058615 255 140 0
0.194410 1.160098 -0.098500 255 127 80
0.199839 1.066753 -0.073473 255 127 80
0.233651 1.066753 -0.073473 255 140 0
0.074939 0.927582 -0.000000 255 140 0
-0.078225 1.354716 -0.038640 255 140 0
-0.086824 1.354716 0.000000 255 140 0
-0.078226 1.354716 0.038640 255 140 0
-0.054134 1.354716 0.069628 255 140 0
-0.019320 1.354716 0.086824 255 140 0
-0.086824 1.354716 0.000000 255 140 0
0.214726 1.230713 0.050000 255 140 1
0.189752 1.228256 -0.000000 255 127 80
0.162601 1.008870 0.082383 255 128 75
0.169170 1.014136 0.073473 255 127 80
0.178396 1.006511 -0.000000 255 127 80
0.232262 1.169288 -0.075000 255 127 73
0.219315 1.046788 -0.118880 255 140 0
0.218455 1.081167 -0.119990 255 140 0
0.178822 1.087568 -0.119065 255 127 80
0.179859 1.045527 -0.117697 255 127 80
0.197281 0.999967 -0.097448 255 140 0
0.229279 1.039127 -0.093119 255 140 0
0.078226 1.354716 -0.038640 255 140 0
0.000000 1.369533 -0.000000 255 140 0
0.025000 1.390418 -0.000000 126 126 0
0.017678 1.390418 -0.017678 126 126 2
0.000000 1.390418 -0.025000 126 126 2
-0.025000 1.390418 0.000000 126 126 0
0.000000 1.390418 0.025000 126 126 0
0.155872 1.081168 0.200484 255 137 22
0.206193 1.042369 0.038627 255 127 80
0.086824 1.354716 -0.000000 255 140 0
0.087812 0.963848 -0.115849 255 130 62
0.126892 0.963848 -0.064291 255 136 25
0.162601 1.008870 -0.082383 255 129 70
0.140839 0.963848 -0.000000 255 137 13
0.169170 1.014136 -0.073473 255 138 9
0.241405 1.042371 -0.038627 255 140 0
0.206803 1.000983 -0.058615 255 140 0
0.208443 1.014136 -0.073473 255 140 0
0.000000 1.369533 -0.000000 255 140 0
0.019320 1.354716 0.086824 255 140 0
0.054134 1.354716 0.069628 255 154 31
0.000000 1.369533 -0.000000 255 153 29
-0.078226 1.354716 0.038640 255 140 0
0.217800 1.000983 0.009195 255 140 0
0.223262 1.027864 0.101127 255 140 0
0.184008 1.027864 0.101127 255 127 80
0.190550 1.034309 0.096544 255 127 80
0.197281 0.999967 -0.097448 255 140 0
0.136233 0.997792 -0.101127 255 127 80
0.162601 1.008870 -0.082383 255 127 80
0.225053 1.038566 0.111166 255 140 0
0.224907 1.039127 0.111693 255 140 0
0.232262 1.169288 0.075000 255 129 62
0.194306 1.000983 0.102687 255 137 18
0.197281 0.999967 0.097448 255 140 0
0.194306 1.000983 -0.102687 255 140 0
0.224906 1.039127 -0.111693 255 140 5
0.225052 1.038566 -0.111166 255 140 2
0.197281 0.999967 0.097448 255 129 69
0.162601 1.008870 0.082383 255 127 80
0.162601 1.008870 0.082383 255 127 80
-0.150000 -0.088916 0.350000 56 56 56
-0.150000 -0.053622 -0.240000 50 50 50
-0.150000 -0.088916 0.210000 50 50 50
-0.150000 -0.047740 -0.025000 50 50 50
0.110000 -0.088916 0.350000 53 53 53
0.150000 -0.088916 0.350000 66 66 66
-0.150000 -0.088916 0.350000 57 57 57
-0.110000 0.721176 0.350000 47 47 47
-0.110000 -0.088916 0.350000 59 59 59
-0.110000 -0.088916 -0.350000 50 50 50
0.150000 0.768235 -0.350000 48 48 48
0.150000 -0.088916 -0.350000 50 50 50
0.150000 -0.047740 0.025000 50 50 50
-0.110000 -0.088916 0.350000 50 50 50
-0.110000 -0.047740 0.025000 50 50 50
-0.110000 -0.053622 -0.240000 51 51 51
0.110000 0.721176 -0.350000 55 55 55
0.110000 -0.053622 -0.240000 50 50 50
0.110000 -0.047740 -0.025000 50 50 50
0.110000 -0.088916 0.350000 51 51 51
0.150000 -0.047740 -0.025000 51 51 51
0.150000 -0.047740 0.025000 51 51 51
0.150000 -0.053622 -0.240000 68 68 68
0.110000 -0.088916 0.350000 50 50 50
0.150000 -0.088916 -0.350000 52 52 52
-0.110000 -0.047740 -0.025000 51 51 51
-0.110000 -0.047740 0.025000 52 52 52
-0.110000 -0.088916 0.210000 51 51 51
3 0 1 2
3 3 4 5
3 6 7 8
3 9 1 4
3 10 11 12
3 13 14 15
3 16 17 18
3 19 20 21
3 17 22 23
3 24 25 26
3 27 28 29
3 30 31 32
3 33 34 35
3 36 37 38
3 39 40 41
3 42 43 44
3 45 46 47
3 48 49 50
3 51 52 53
3 54 55 56
3 57 58 59
3 60 58 61
3 62 58 57
3 61 58 63
3 64 58 62
3 63 58 65
3 66 58 64
3 65 58 67
3 68 58 66
3 67 58 69
3 70 58 68
3 69 58 71
3 71 58 70
3 72 73 74
3 75 76 77
3 46 78 47
3 79 80 53
3 81 82 83
3 84 85 86
3 76 87 77
3 88 89 16
3 90 91 92
3 93 94 95
3 96 97 98
3 99 100 101
3 102 103 104
3 105 106 107
3 91 7 108
3 109 27 110
3 111 36 112
3 113 114 115
3 116 77 87
3 117 118 119
3 103 102 120
3 121 122 123
3 124 125 126
3 127 10 128
3 129 130 131
3 132 133 134
3 135 136 137
3 138 139 140
3 141 52 142
3 143 144 145
3 146 147 148
3 149 150 151
3 152 153 154
3 79 155 156
3 157 158 159
3 160 161 162
3 163 164 165
3 166 167 168
3 23 169 33
3 170 8 171
3 172 173 174
3 175 176 177
3 178 179 180
3 178 181 179
3 115 80 113
3 182 183 184
3 86 96 185
3 114 186 187
3 162 188 35
3 189 190 107
3 84 191 79
3 192 193 194
3 195 34 196
3 161 107 190
3 197 72 198
3 21 199 13
3 200 201 202
3 203 204 205
3 206 145 144
3 207 168 208
3 110 29 161
3 195 110 160
3 209 210 211
3 112 212 213
3 214 35 188
3 98 215 216
3 217 184 183
3 218 219 220
3 39 221 222
3 223 224 225
3 38 226 227
3 130 90 228
3 156 113 80
3 198 74 229
3 210 230 231
3 232 233 234
3 235 236 237
3 238 239 240
3 177 51 241
3 242 243 244
3 245 246 129
3 247 248 211
3 249 250 251
3 146 252 207
3 219 253 249
3 92 108 254
3 255 256 257
3 258 259 260
3 261 18 170
3 262 263 264
3 224 223 265
3 236 266 267
3 268 269 166
3 270 271 197
3 272 273 274
3 275 276 277
3 278 73 279
3 280 281 282
3 254 283 164
3 284 285 286
3 191 45 155
3 287 288 289
3 176 142 51
3 263 46 216
3 28 124 290
3 243 291 93
3 292 293 294
3 295 296 297
3 298 299 300
3 188 301 214
3 244 177 242
3 112 302 111
3 303 304 305
3 306 117 307
3 190 308 309
3 81 310 311
3 37 141 226
3 111 312 255
3 155 47 313
3 268 310 216
3 314 296 315
3 316 179 262
3 219 279 220
3 317 318 296
3 278 249 319
3 40 39 222
3 320 321 322
3 215 268 216
3 163 165 193
3 311 323 324
3 325 326 27
3 179 78 262
3 309 218 188
3 185 98 327
3 301 220 271
3 213 328 302
3 86 329 191
3 330 170 209
3 85 331 96
3 208 315 257
3 332 333 312
3 334 192 194
3 84 53 52
3 90 276 228
3 207 257 256
3 227 36 38
3 209 171 245
3 226 142 335
3 263 82 264
3 336 337 338
3 339 335 176
3 126 340 248
3 242 241 115
3 341 342 157
3 310 82 216
3 271 279 72
3 313 343 344
3 227 339 345
3 346 347 348
3 98 349 327
3 345 244 243
3 227 335 350
3 339 244 345
3 351 246 91
3 352 353 6
3 253 189 354
3 349 46 355
3 208 167 314
3 356 42 357
3 120 264 82
3 345 112 36
3 178 358 359
3 290 126 247
3 331 215 97
3 243 95 345
3 212 95 360
3 361 362 363
3 364 361 365
3 75 366 367
3 368 369 370
3 116 371 77
3 139 372 99
3 204 364 373
3 374 375 376
3 377 378 379
3 380 381 382
3 100 383 384
3 137 258 385
3 378 386 387
3 387 203 388
3 344 389 113
3 6 23 352
3 111 295 390
3 391 52 318
3 214 270 352
3 283 198 164
3 392 31 30
3 162 190 309
3 393 261 330
3 169 196 34
3 394 288 395
3 393 248 340
3 5 4 20
3 18 6 8
3 242 114 396
3 397 398 392
3 398 399 392
3 329 355 45
3 257 295 255
3 400 401 334
3 402 403 357
3 403 294 357
3 230 130 284
3 11 247 231
3 346 404 405
3 8 246 171
3 148 406 407
3 89 408 22
3 389 178 186
3 409 410 411
3 324 268 166
3 11 409 411
3 106 28 121
3 317 167 412
3 413 414 105
3 150 148 29
3 107 413 105
3 108 353 283
3 10 415 416
3 417 26 418
3 104 419 420
3 412 269 331
3 391 412 85
3 252 166 168
3 421 422 423
3 424 425 106
3 426 427 424
3 47 181 313
3 143 428 144
3 241 53 80
3 429 277 193
3 185 349 329
3 311 407 406
3 330 211 248
3 326 430 124
3 156 313 344
3 431 284 275
3 432 358 123
3 419 433 123
3 420 419 123
3 290 11 104
3 182 434 183
3 324 252 435
3 245 131 210
3 436 192 237
3 437 438 439
3 206 440 145
3 441 432 149
3 442 16 261
3 443 444 441
3 149 443 441
3 217 445 184
3 164 229 165
3 353 197 283
3 22 446 169
3 348 399 447
3 95 448 360
3 449 450 451
3 236 235 266
3 231 211 210
3 432 452 453
3 454 117 358
3 455 32 421
3 186 456 457
3 458 319 400
3 459 254 163
3 256 460 461
3 396 187 291
3 187 462 463
3 464 460 256
3 390 297 37
3 465 92 459
3 297 318 141
3 160 35 34
3 466 467 337
3 352 33 214
3 284 228 275
3 468 469 470
3 471 472 473
3 473 474 468
3 472 469 474
3 475 470 469
3 468 471 473
3 476 477 478
3 479 480 481
3 479 482 476
3 481 477 482
3 477 483 478
3 476 483 479
3 484 485 486
3 487 485 488
3 489 487 490
3 491 492 493
3 494 495 496
3 497 498 499
3 500 501 502
3 503 504 488
3 494 505 506
3 507 508 509
3 510 511 504
3 512 503 495
3 513 504 496
3 514 495 503
3 515 516 517
3 518 519 520
3 521 522 523
3 524 525 526
3 527 528 529
3 530 531 532
3 533 534 535
3 536 486 497
3 537 484 534
3 538 497 486
3 539 540 541
3 542 543 498
3 544 545 546
3 547 548 549
3 0 14 1
3 3 550 4
3 6 353 7
3 9 551 1
3 11 231 12
3 231 230 12
3 12 552 10
3 552 128 10
3 13 199 14
3 16 89 17
3 19 299 20
3 17 89 22
3 553 554 26
3 553 26 25
3 26 417 24
3 27 326 28
3 555 556 32
3 556 30 32
3 33 169 34
3 36 390 37
3 321 320 41
3 320 452 41
3 452 432 41
3 432 557 41
3 557 39 41
3 558 559 44
3 559 42 44
3 45 355 46
3 48 560 49
3 51 142 52
3 72 279 73
3 561 562 563
3 46 263 78
3 79 156 80
3 81 120 82
3 84 391 85
3 563 564 565
3 88 566 89
3 90 351 91
3 93 291 94
3 96 331 97
3 99 372 100
3 567 104 103
3 104 316 102
3 91 246 7
3 109 325 27
3 111 390 36
3 113 389 114
3 117 306 118
3 120 81 103
3 81 568 103
3 568 122 103
3 123 409 121
3 121 103 122
3 124 430 125
3 129 351 130
3 132 569 133
3 569 570 133
3 133 571 134
3 138 372 139
3 141 318 52
3 147 441 148
3 441 413 148
3 148 435 146
3 406 150 149
3 150 572 151
3 79 191 155
3 157 342 158
3 160 110 161
3 163 254 164
3 166 269 167
3 23 22 169
3 170 18 8
3 172 372 173
3 175 339 176
3 180 420 178
3 420 358 178
3 178 343 181
3 115 241 80
3 86 85 96
3 114 389 186
3 162 309 188
3 189 253 190
3 107 157 189
3 157 573 189
3 573 574 189
3 84 86 191
3 192 429 193
3 195 160 34
3 161 29 107
3 197 271 72
3 21 20 199
3 201 575 438
3 438 437 201
3 437 202 201
3 203 386 204
3 207 252 168
3 110 27 29
3 195 109 110
3 209 245 210
3 112 345 212
3 214 33 35
3 98 97 215
3 218 308 219
3 39 576 221
3 225 266 192
3 266 235 192
3 192 401 225
3 401 577 225
3 577 223 225
3 38 37 226
3 130 351 90
3 156 344 113
3 198 72 74
3 210 131 230
3 578 559 558
3 578 558 234
3 449 233 232
3 233 578 234
3 177 176 51
3 242 396 243
3 245 171 246
3 247 126 248
3 577 401 251
3 401 319 251
3 319 249 251
3 557 147 207
3 147 146 207
3 219 308 253
3 92 91 108
3 255 312 256
3 579 580 259
3 261 16 18
3 262 78 263
3 268 215 269
3 270 301 271
3 274 581 582
3 582 583 272
3 272 584 273
3 273 585 274
3 274 582 272
3 275 228 276
3 278 458 73
3 280 5 281
3 254 108 283
3 12 586 286
3 586 284 286
3 191 329 45
3 587 292 289
3 292 287 289
3 176 335 142
3 28 326 124
3 243 396 291
3 294 403 292
3 292 587 293
3 295 315 296
3 298 281 299
3 188 218 301
3 244 175 177
3 112 213 302
3 190 253 308
3 81 83 310
3 37 297 141
3 111 302 312
3 155 45 47
3 268 323 310
3 314 317 296
3 262 120 316
3 120 102 316
3 316 180 179
3 219 278 279
3 317 391 318
3 278 219 249
3 165 229 334
3 229 74 334
3 74 73 458
3 458 400 74
3 400 334 74
3 334 194 165
3 194 193 165
3 193 277 459
3 277 276 459
3 276 465 459
3 459 163 193
3 311 310 323
3 325 588 326
3 179 181 78
3 309 308 218
3 185 96 98
3 301 218 220
3 213 212 328
3 86 185 329
3 330 261 170
3 85 412 331
3 208 314 315
3 312 589 332
3 589 590 332
3 590 591 332
3 334 401 192
3 84 79 53
3 90 465 276
3 207 208 257
3 227 345 36
3 209 170 171
3 226 141 142
3 263 216 82
3 336 592 337
3 592 466 337
3 337 593 338
3 339 350 335
3 126 125 340
3 242 177 241
3 157 107 341
3 107 106 341
3 106 425 341
3 425 594 341
3 310 83 82
3 271 220 279
3 313 181 343
3 227 350 339
3 348 595 346
3 595 596 346
3 98 216 349
3 227 226 335
3 339 175 244
3 351 129 246
3 352 270 353
3 250 249 354
3 249 253 354
3 349 216 46
3 208 168 167
3 43 42 356
3 42 402 357
3 120 262 264
3 358 117 359
3 117 119 359
3 359 456 186
3 186 178 359
3 290 124 126
3 331 269 215
3 243 93 95
3 212 345 95
3 361 386 362
3 364 386 361
3 75 77 366
3 368 597 369
3 598 599 259
3 204 386 364
3 377 386 378
3 380 600 381
3 601 597 380
3 137 580 579
3 387 386 203
3 344 343 389
3 6 17 23
3 111 255 295
3 391 84 52
3 214 301 270
3 283 197 198
3 30 602 392
3 602 397 392
3 162 161 190
3 393 442 261
3 169 446 196
3 288 287 395
3 395 603 394
3 603 604 605
3 603 605 394
3 393 330 248
3 4 1 14
3 14 199 4
3 199 20 4
3 20 299 281
3 281 5 20
3 18 17 6
3 242 115 114
3 329 349 355
3 257 315 295
3 400 319 401
3 230 131 130
3 11 290 247
3 346 596 404
3 404 606 405
3 405 607 608
3 608 346 405
3 8 7 246
3 407 435 148
3 148 150 406
3 89 566 408
3 389 343 178
3 324 323 268
3 409 11 106
3 28 290 121
3 121 409 106
3 317 314 167
3 148 413 107
3 28 106 150
3 106 105 150
3 148 107 29
3 28 150 29
3 108 7 353
3 10 127 415
3 418 604 417
3 604 603 417
3 603 609 417
3 609 610 417
3 180 316 104
3 104 611 419
3 420 180 104
3 412 167 269
3 391 317 412
3 252 324 166
3 423 553 25
3 25 612 423
3 612 421 423
3 424 106 426
3 106 11 426
3 11 10 426
3 10 416 426
3 47 78 181
3 241 51 53
3 429 275 277
3 185 327 349
3 149 568 406
3 568 81 406
3 81 311 406
3 330 209 211
3 326 588 430
3 156 155 313
3 275 429 431
3 429 613 431
3 431 285 284
3 358 420 123
3 123 122 432
3 122 568 432
3 11 411 104
3 104 121 290
3 407 311 435
3 311 324 435
3 252 146 435
3 245 129 131
3 436 239 238
3 238 613 436
3 613 429 436
3 429 192 436
3 192 235 237
3 439 607 405
3 405 614 439
3 614 437 439
3 441 147 557
3 432 568 149
3 441 557 432
3 442 88 16
3 164 198 229
3 353 270 197
3 22 408 446
3 347 399 348
3 399 398 447
3 95 94 448
3 451 615 616
3 616 233 451
3 233 449 451
3 450 201 451
3 231 247 211
3 453 304 454
3 304 303 454
3 454 307 117
3 358 432 454
3 432 453 454
3 617 455 421
3 455 555 32
3 32 618 421
3 618 422 421
3 462 187 457
3 187 186 457
3 458 278 319
3 459 92 254
3 576 39 461
3 39 557 461
3 557 207 461
3 207 256 461
3 396 114 187
3 619 94 463
3 94 291 463
3 291 187 463
3 256 312 464
3 312 333 464
3 390 295 297
3 465 90 92
3 297 296 318
3 160 162 35
3 352 23 33
3 284 130 228
3 468 474 469
3 471 475 472
3 473 472 474
3 472 475 469
3 475 471 470
3 468 470 471
3 476 482 477
3 479 483 480
3 479 481 482
3 481 480 477
3 477 480 483
3 476 478 483
3 546 620 485
3 485 489 486
3 489 547 543
3 543 621 486
3 489 543 486
3 622 546 484
3 546 485 484
3 529 528 484
3 486 623 529
3 529 484 486
3 624 625 488
3 625 487 488
3 485 626 627
3 626 628 627
3 485 627 488
3 489 485 487
3 629 547 492
3 547 493 492
3 630 631 491
3 631 524 491
3 630 491 493
3 520 631 490
3 490 487 495
3 487 521 523
3 523 513 496
3 487 523 496
3 518 520 495
3 520 490 495
3 494 512 495
3 487 496 495
3 496 632 494
3 627 633 544
3 544 537 534
3 534 634 527
3 527 536 497
3 497 635 498
3 498 629 499
3 499 627 497
3 627 544 534
3 534 527 497
3 627 534 497
3 500 636 501
3 636 524 519
3 519 637 503
3 503 638 506
3 506 505 504
3 504 515 522
3 522 639 488
3 488 636 503
3 636 519 503
3 503 506 504
3 504 522 488
3 494 632 505
3 507 640 508
3 510 641 511
3 512 638 503
3 513 515 504
3 514 642 495
3 515 513 516
3 518 637 519
3 521 643 522
3 524 644 525
3 527 634 528
3 530 645 531
3 533 646 534
3 536 623 486
3 537 622 484
3 538 635 497
3 539 647 540
3 542 621 543
3 544 633 545
3 547 629 548
