ply
format ascii 1.0
comment Created by Blender 2.79 (sub 0) - www.blender.org, source file: ''
element vertex 611
property float x
property float y
property float z
property float s
property float t
element face 512
property list uchar uint vertex_indices
end_header
-0.097545 0.490393 0.600000 0.597545 0.000000
0.000000 0.500000 -0.600000 0.500000 1.000000
0.000000 0.500000 0.600000 0.500000 0.000000
-0.191342 0.461940 0.600000 0.691342 0.000000
-0.097545 0.490393 -0.600000 0.597545 1.000000
-0.277785 0.415735 0.600000 0.777785 0.000000
-0.191342 0.461940 -0.600000 0.691342 1.000000
-0.353553 0.353553 0.600000 0.853553 0.000000
-0.277785 0.415735 -0.600000 0.777785 1.000000
-0.415735 0.277785 0.600000 0.777785 0.000000
-0.353553 0.353553 -0.600000 0.853553 1.000000
-0.461940 0.191342 0.600000 0.691342 0.000000
-0.415735 0.277785 -0.600000 0.777785 1.000000
-0.490393 0.097545 0.600000 0.597545 0.000000
-0.461940 0.191342 -0.600000 0.691342 1.000000
-0.500000 0.000000 0.600000 0.500000 0.000000
-0.490393 0.097545 -0.600000 0.597545 1.000000
-0.490393 -0.097545 0.600000 0.402455 0.000000
-0.500000 0.000000 -0.600000 0.500000 1.000000
-0.461940 -0.191342 0.600000 0.308658 0.000000
-0.490393 -0.097545 -0.600000 0.402455 1.000000
-0.415735 -0.277785 0.600000 0.222215 0.000000
-0.461940 -0.191342 -0.600000 0.308658 1.000000
-0.353553 -0.353553 0.600000 0.146447 0.000000
-0.415735 -0.277785 -0.600000 0.222215 1.000000
-0.277785 -0.415735 0.600000 0.777785 0.000000
-0.353553 -0.353553 -0.600000 0.853553 1.000000
-0.353553 -0.353553 0.600000 0.853553 0.000000
-0.191342 -0.461940 0.600000 0.691342 0.000000
-0.277785 -0.415735 -0.600000 0.777785 1.000000
-0.097545 -0.490393 0.600000 0.597545 0.000000
-0.191342 -0.461940 -0.600000 0.691342 1.000000
0.000000 -0.500000 0.600000 0.500000 0.000000
-0.097545 -0.490393 -0.600000 0.597545 1.000000
0.097545 -0.490393 0.600000 0.402455 0.000000
0.000000 -0.500000 -0.600000 0.500000 1.000000
0.191342 -0.461940 0.600000 0.308658 0.000000
0.097545 -0.490393 -0.600000 0.402455 1.000000
0.277785 -0.415735 0.600000 0.222215 0.000000
0.191342 -0.461940 -0.600000 0.308658 1.000000
0.353554 -0.353553 0.600000 0.146446 0.000000
0.277785 -0.415735 -0.600000 0.222215 1.000000
0.415735 -0.277785 0.600000 0.222215 0.000000
0.353554 -0.353553 -0.600000 0.146447 1.000000
0.353554 -0.353553 0.600000 0.146447 0.000000
0.461940 -0.191341 0.600000 0.308659 0.000000
0.415735 -0.277785 -0.600000 0.222215 1.000000
0.490393 -0.097545 0.600000 0.402455 0.000000
0.461940 -0.191341 -0.600000 0.308659 1.000000
0.500000 0.000001 0.600000 0.500000 0.000000
0.490393 -0.097545 -0.600000 0.402455 1.000000
0.490393 0.097546 0.600000 0.597546 0.000000
0.500000 0.000000 -0.600000 0.500000 1.000000
0.461940 0.191342 0.600000 0.691342 0.000000
0.490393 0.097546 -0.600000 0.597546 1.000000
0.415734 0.277786 0.600000 0.777786 0.000000
0.461940 0.191342 -0.600000 0.691342 1.000000
0.353553 0.353554 0.600000 0.853554 0.000000
0.415734 0.277786 -0.600000 0.777786 1.000000
0.277785 0.415735 0.600000 0.222215 0.000000
0.353553 0.353554 -0.600000 0.146447 1.000000
0.353553 0.353554 0.600000 0.146447 0.000000
0.191341 0.461940 0.600000 0.308659 0.000000
0.277785 0.415735 -0.600000 0.222215 1.000000
0.097544 0.490393 0.600000 0.402456 0.000000
0.191341 0.461940 -0.600000 0.308659 1.000000
0.097544 0.490393 -0.600000 0.402456 1.000000
0.000000 0.750000 -0.600000 0.500000 1.000000
-0.146318 0.735589 -0.480000 0.646318 0.900000
0.000000 0.750000 -0.480000 0.500000 0.900000
-0.146318 0.735589 -0.600000 0.646318 1.000000
-0.287013 0.692910 -0.480000 0.787013 0.900000
-0.287013 0.692910 -0.600000 0.787013 1.000000
-0.416678 0.623602 -0.480000 0.916678 0.900000
-0.416678 0.623602 -0.600000 0.916678 1.000000
-0.530330 0.530330 -0.480000 1.030330 0.900000
-0.530330 0.530330 -0.600000 0.030330 1.000000
-0.623602 0.416678 -0.480000 -0.083322 0.900000
-0.530330 0.530330 -0.480000 0.030330 0.900000
-0.623602 0.416678 -0.600000 0.916678 1.000000
-0.692910 0.287013 -0.480000 0.787013 0.900000
-0.623602 0.416678 -0.480000 0.916678 0.900000
-0.692910 0.287013 -0.600000 0.787013 1.000000
-0.735589 0.146318 -0.480000 0.646318 0.900000
-0.735589 0.146318 -0.600000 0.646318 1.000000
-0.750000 0.000000 -0.480000 0.500000 0.900000
-0.750000 0.000000 -0.600000 0.500000 1.000000
-0.735589 -0.146318 -0.480000 0.353682 0.900000
-0.735589 -0.146318 -0.600000 0.353682 1.000000
-0.692910 -0.287012 -0.480000 0.212988 0.900000
-0.692910 -0.287012 -0.600000 0.212988 1.000000
-0.623602 -0.416678 -0.480000 0.083322 0.900000
-0.623602 -0.416678 -0.600000 0.083322 1.000000
-0.530330 -0.530330 -0.480000 -0.030330 0.900000
-0.530330 -0.530330 -0.600000 0.030330 1.000000
-0.416678 -0.623602 -0.480000 -0.083322 0.900000
-0.530330 -0.530330 -0.480000 0.030330 0.900000
-0.416678 -0.623602 -0.600000 0.916678 1.000000
-0.287012 -0.692910 -0.480000 0.787012 0.900000
-0.416678 -0.623602 -0.480000 0.916678 0.900000
-0.287012 -0.692910 -0.600000 0.787012 1.000000
-0.146318 -0.735589 -0.480000 0.646318 0.900000
-0.146318 -0.735589 -0.600000 0.646318 1.000000
0.000000 -0.750000 -0.480000 0.500000 0.900000
0.000000 -0.750000 -0.600000 0.500000 1.000000
0.146318 -0.735589 -0.480000 0.353682 0.900000
0.146318 -0.735589 -0.600000 0.353682 1.000000
0.287013 -0.692909 -0.480000 0.212987 0.900000
0.287013 -0.692909 -0.600000 0.212987 1.000000
0.416678 -0.623602 -0.480000 0.083322 0.900000
0.416678 -0.623602 -0.600000 0.083322 1.000000
0.530330 -0.530330 -0.480000 -0.030330 0.900000
0.530330 -0.530330 -0.600000 0.969670 1.000000
0.623603 -0.416677 -0.480000 1.083323 0.900000
0.530330 -0.530330 -0.480000 0.969670 0.900000
0.623603 -0.416677 -0.600000 0.083323 1.000000
0.692910 -0.287012 -0.480000 0.212988 0.900000
0.623603 -0.416677 -0.480000 0.083323 0.900000
0.692910 -0.287012 -0.600000 0.212988 1.000000
0.735589 -0.146317 -0.480000 0.353683 0.900000
0.735589 -0.146317 -0.600000 0.353683 1.000000
0.750000 0.000001 -0.480000 0.500001 0.900000
0.750000 0.000001 -0.600000 0.500001 1.000000
0.735589 0.146319 -0.480000 0.646319 0.900000
0.735589 0.146318 -0.600000 0.646319 1.000000
0.692909 0.287013 -0.480000 0.787013 0.900000
0.692909 0.287013 -0.600000 0.787013 1.000000
0.623602 0.416678 -0.480000 0.916678 0.900000
0.623602 0.416678 -0.600000 0.916678 1.000000
0.530329 0.530331 -0.480000 1.030331 0.900000
0.530329 0.530331 -0.600000 0.969671 1.000000
0.416677 0.623603 -0.480000 1.083323 0.900000
0.530329 0.530331 -0.480000 0.969671 0.900000
0.416677 0.623603 -0.600000 0.083323 1.000000
0.287012 0.692910 -0.480000 0.212988 0.900000
0.416677 0.623603 -0.480000 0.083323 0.900000
0.287012 0.692910 -0.600000 0.212988 1.000000
0.146317 0.735589 -0.480000 0.353683 0.900000
0.146317 0.735589 -0.600000 0.353683 1.000000
0.000000 0.750000 0.480000 0.500000 0.100000
-0.146318 0.735589 0.600000 0.646318 0.000000
0.000000 0.750000 0.600000 0.500000 0.000000
-0.146318 0.735589 0.480000 0.646318 0.100000
-0.287013 0.692910 0.600000 0.787013 0.000000
-0.287013 0.692910 0.480000 0.787013 0.100000
-0.416678 0.623602 0.600000 0.916678 0.000000
-0.416678 0.623602 0.480000 0.916678 0.100000
-0.530330 0.530330 0.600000 1.030330 0.000000
-0.530330 0.530330 0.480000 0.030330 0.100000
-0.623602 0.416678 0.600000 -0.083322 0.000000
-0.530330 0.530330 0.600000 0.030330 0.000000
-0.623602 0.416678 0.480000 0.916678 0.100000
-0.692910 0.287013 0.600000 0.787013 0.000000
-0.623602 0.416678 0.600000 0.916678 0.000000
-0.692910 0.287013 0.480000 0.787013 0.100000
-0.735589 0.146318 0.600000 0.646318 0.000000
-0.735589 0.146318 0.480000 0.646318 0.100000
-0.750000 0.000000 0.600000 0.500000 0.000000
-0.750000 0.000000 0.480000 0.500000 0.100000
-0.735589 -0.146318 0.600000 0.353682 0.000000
-0.735589 -0.146318 0.480000 0.353682 0.100000
-0.692910 -0.287012 0.600000 0.212988 0.000000
-0.692910 -0.287012 0.480000 0.212988 0.100000
-0.623602 -0.416678 0.600000 0.083322 0.000000
-0.623602 -0.416678 0.480000 0.083322 0.100000
-0.530330 -0.530330 0.600000 -0.030330 0.000000
-0.530330 -0.530330 0.480000 0.030330 0.100000
-0.416678 -0.623602 0.600000 -0.083322 0.000000
-0.530330 -0.530330 0.600000 0.030330 0.000000
-0.416678 -0.623602 0.480000 0.916678 0.100000
-0.287012 -0.692910 0.600000 0.787012 0.000000
-0.416678 -0.623602 0.600000 0.916678 0.000000
-0.287012 -0.692910 0.480000 0.787012 0.100000
-0.146318 -0.735589 0.600000 0.646318 0.000000
-0.146318 -0.735589 0.480000 0.646318 0.100000
0.000000 -0.750000 0.600000 0.500000 0.000000
0.000000 -0.750000 0.480000 0.500000 0.100000
0.146318 -0.735589 0.600000 0.353682 0.000000
0.146318 -0.735589 0.480000 0.353682 0.100000
0.287013 -0.692910 0.600000 0.212987 0.000000
0.287013 -0.692910 0.480000 0.212987 0.100000
0.416678 -0.623602 0.600000 0.083322 0.000000
0.416678 -0.623602 0.480000 0.083322 0.100000
0.530330 -0.530330 0.600000 -0.030330 0.000000
0.530330 -0.530330 0.480000 0.969670 0.100000
0.623603 -0.416677 0.600000 1.083323 0.000000
0.530330 -0.530330 0.600000 0.969670 0.000000
0.623603 -0.416677 0.480000 0.083323 0.100000
0.692910 -0.287012 0.600000 0.212988 0.000000
0.623603 -0.416677 0.600000 0.083323 0.000000
0.692910 -0.287012 0.480000 0.212988 0.100000
0.735589 -0.146317 0.600000 0.353683 0.000000
0.735589 -0.146317 0.480000 0.353683 0.100000
0.750000 0.000001 0.600000 0.500001 0.000000
0.750000 0.000001 0.480000 0.500001 0.100000
0.735589 0.146319 0.600000 0.646318 0.000000
0.735589 0.146318 0.480000 0.646318 0.100000
0.692909 0.287013 0.600000 0.787013 0.000000
0.692909 0.287013 0.480000 0.787013 0.100000
0.623602 0.416678 0.600000 0.916678 0.000000
0.623602 0.416678 0.480000 0.916678 0.100000
0.530329 0.530331 0.600000 1.030331 0.000000
0.530329 0.530331 0.480000 0.969671 0.100000
0.416677 0.623603 0.600000 1.083323 0.000000
0.530329 0.530331 0.600000 0.969671 0.000000
0.416677 0.623603 0.480000 0.083323 0.100000
0.287012 0.692910 0.600000 0.212988 0.000000
0.416677 0.623603 0.600000 0.083323 0.000000
0.287012 0.692910 0.480000 0.212988 0.100000
0.146317 0.735589 0.600000 0.353683 0.000000
0.146317 0.735589 0.480000 0.353683 0.100000
0.000000 0.725000 -0.480000 0.500000 0.900000
-0.141440 0.711069 0.480000 0.641441 0.100000
0.000000 0.725000 0.480000 0.500000 0.100000
-0.141440 0.711069 -0.480000 0.641441 0.900000
-0.277445 0.669813 0.480000 0.777445 0.100000
-0.277445 0.669813 -0.480000 0.777445 0.900000
-0.402788 0.602816 0.480000 0.902788 0.100000
-0.402788 0.602816 -0.480000 0.902788 0.900000
-0.512652 0.512652 0.480000 1.012652 0.100000
-0.512652 0.512652 -0.480000 0.012652 0.900000
-0.602816 0.402788 0.480000 -0.097212 0.100000
-0.512652 0.512652 0.480000 0.012652 0.100000
-0.602816 0.402788 -0.480000 0.902788 0.900000
-0.669813 0.277446 0.480000 0.777445 0.100000
-0.602816 0.402788 0.480000 0.902788 0.100000
-0.669813 0.277445 -0.480000 0.777445 0.900000
-0.711069 0.141441 0.480000 0.641441 0.100000
-0.711069 0.141440 -0.480000 0.641441 0.900000
-0.725000 0.000000 0.480000 0.500000 0.100000
-0.725000 0.000000 -0.480000 0.500000 0.900000
-0.711069 -0.141440 0.480000 0.358560 0.100000
-0.711069 -0.141440 -0.480000 0.358560 0.900000
-0.669813 -0.277445 0.480000 0.222555 0.100000
-0.669813 -0.277445 -0.480000 0.222555 0.900000
-0.602816 -0.402788 0.480000 0.097212 0.100000
-0.602816 -0.402788 -0.480000 0.097212 0.900000
-0.512652 -0.512652 0.480000 -0.012652 0.100000
-0.512652 -0.512652 -0.480000 0.012652 0.900000
-0.402788 -0.602816 0.480000 -0.097212 0.100000
-0.512652 -0.512652 0.480000 0.012652 0.100000
-0.402788 -0.602816 -0.480000 0.902788 0.900000
-0.277445 -0.669813 0.480000 0.777445 0.100000
-0.402788 -0.602816 0.480000 0.902788 0.100000
-0.277445 -0.669813 -0.480000 0.777445 0.900000
-0.141440 -0.711069 0.480000 0.641440 0.100000
-0.141440 -0.711069 -0.480000 0.641440 0.900000
0.000000 -0.725000 0.480000 0.500000 0.100000
0.000000 -0.725000 -0.480000 0.500000 0.900000
0.141441 -0.711069 0.480000 0.358559 0.100000
0.141441 -0.711069 -0.480000 0.358559 0.900000
0.277446 -0.669813 0.480000 0.222554 0.100000
0.277446 -0.669813 -0.480000 0.222554 0.900000
0.402789 -0.602815 0.480000 0.097211 0.100000
0.402789 -0.602815 -0.480000 0.097211 0.900000
0.512653 -0.512652 0.480000 -0.012653 0.100000
0.512653 -0.512652 -0.480000 0.987348 0.900000
0.602816 -0.402788 0.480000 1.097212 0.100000
0.512653 -0.512652 0.480000 0.987348 0.100000
0.602816 -0.402788 -0.480000 0.097212 0.900000
0.669813 -0.277445 0.480000 0.222555 0.100000
0.602816 -0.402788 0.480000 0.097212 0.100000
0.669813 -0.277445 -0.480000 0.222555 0.900000
0.711069 -0.141440 0.480000 0.358560 0.100000
0.711069 -0.141440 -0.480000 0.358560 0.900000
0.725000 0.000001 0.480000 0.500001 0.100000
0.725000 0.000001 -0.480000 0.500001 0.900000
0.711069 0.141441 0.480000 0.641441 0.100000
0.711069 0.141441 -0.480000 0.641441 0.900000
0.669812 0.277446 0.480000 0.777446 0.100000
0.669812 0.277446 -0.480000 0.777446 0.900000
0.602815 0.402789 0.480000 0.902789 0.100000
0.602815 0.402789 -0.480000 0.902789 0.900000
0.512652 0.512653 0.480000 1.012653 0.100000
0.512652 0.512653 -0.480000 0.987348 0.900000
0.402788 0.602816 0.480000 1.097212 0.100000
0.512652 0.512653 0.480000 0.987348 0.100000
0.402788 0.602816 -0.480000 0.097212 0.900000
0.277445 0.669813 0.480000 0.222555 0.100000
0.402788 0.602816 0.480000 0.097212 0.100000
0.277445 0.669813 -0.480000 0.222555 0.900000
0.141439 0.711070 0.480000 0.358561 0.100000
0.141439 0.711070 -0.480000 0.358561 0.900000
0.530329 0.530331 0.480000 -0.030329 0.030331
0.402788 0.602816 0.480000 0.097212 0.102816
0.416677 0.623603 0.480000 0.083323 0.123603
0.287012 0.692910 0.480000 0.212988 0.192910
0.277445 0.669813 0.480000 0.222555 0.169813
0.141439 0.711070 0.480000 0.358561 0.211070
0.146317 0.735589 0.480000 0.353683 0.235589
0.000000 0.750000 0.480000 0.500000 0.250000
0.000000 0.725000 0.480000 0.500000 0.225000
-0.141440 0.711069 0.480000 0.641441 0.211069
-0.146318 0.735589 0.480000 0.646318 0.235589
-0.277445 0.669813 0.480000 0.777445 0.169813
-0.287013 0.692910 0.480000 0.787013 0.192910
-0.402788 0.602816 0.480000 0.902788 0.102816
-0.416678 0.623602 0.480000 0.916678 0.123602
-0.416678 0.623602 0.480000 -0.083322 0.123602
-0.512652 0.512652 0.480000 0.012652 0.012652
-0.530330 0.530330 0.480000 0.030330 0.030330
-0.530330 0.530330 0.480000 0.030330 1.030330
-0.602816 0.402788 0.480000 0.102816 0.902788
-0.623602 0.416678 0.480000 0.123602 0.916678
-0.669813 0.277446 0.480000 0.169813 0.777445
-0.692910 0.287013 0.480000 0.192910 0.787013
-0.711069 0.141441 0.480000 0.211069 0.641441
-0.735589 0.146318 0.480000 0.235589 0.646318
-0.725000 0.000000 0.480000 0.225000 0.500000
-0.750000 0.000000 0.480000 0.250000 0.500000
-0.711069 -0.141440 0.480000 0.211069 0.358560
-0.735589 -0.146318 0.480000 0.235589 0.353682
-0.669813 -0.277445 0.480000 0.169813 0.222555
-0.692910 -0.287012 0.480000 0.192910 0.212988
-0.602816 -0.402788 0.480000 0.102816 0.097212
-0.623602 -0.416678 0.480000 0.123602 0.083322
-0.623602 -0.416678 0.480000 0.123602 1.083322
-0.512652 -0.512652 0.480000 0.012652 0.987348
-0.530330 -0.530330 0.480000 0.030330 0.969670
-0.530330 -0.530330 0.480000 1.030330 0.969670
-0.402788 -0.602816 0.480000 0.902788 0.897184
-0.416678 -0.623602 0.480000 0.916678 0.876398
-0.277445 -0.669813 0.480000 0.777445 0.830187
-0.287012 -0.692910 0.480000 0.787012 0.807090
-0.141440 -0.711069 0.480000 0.641440 0.788931
-0.146318 -0.735589 0.480000 0.646318 0.764411
0.000000 -0.725000 0.480000 0.500000 0.775000
0.000000 -0.750000 0.480000 0.500000 0.750000
0.146318 -0.735589 0.480000 0.353682 0.764411
0.141441 -0.711069 0.480000 0.358559 0.788931
0.277446 -0.669813 0.480000 0.222554 0.830187
0.287013 -0.692910 0.480000 0.212987 0.807090
0.416678 -0.623602 0.480000 0.083322 0.876398
0.402789 -0.602815 0.480000 0.097211 0.897185
0.530330 -0.530330 0.480000 0.969670 0.969670
0.402789 -0.602815 0.480000 1.097211 0.897185
0.512653 -0.512652 0.480000 0.987347 0.987348
0.623603 -0.416677 0.480000 0.876397 0.083323
0.512653 -0.512652 0.480000 0.987347 -0.012652
0.602816 -0.402788 0.480000 0.897184 0.097212
0.692910 -0.287012 0.480000 0.807090 0.212988
0.669813 -0.277445 0.480000 0.830187 0.222555
0.735589 -0.146317 0.480000 0.764411 0.353683
0.711069 -0.141440 0.480000 0.788931 0.358560
0.750000 0.000001 0.480000 0.750000 0.500001
0.725000 0.000001 0.480000 0.775000 0.500001
0.735589 0.146318 0.480000 0.764411 0.646318
0.711069 0.141441 0.480000 0.788931 0.641441
0.692909 0.287013 0.480000 0.807091 0.787013
0.669812 0.277446 0.480000 0.830188 0.777446
0.623602 0.416678 0.480000 0.876398 0.916678
0.602815 0.402789 0.480000 0.897185 0.902789
0.530329 0.530331 0.480000 0.969671 0.030331
0.602815 0.402789 0.480000 0.897185 -0.097211
0.512652 0.512653 0.480000 0.987348 0.012653
-0.530330 0.530330 -0.480000 0.030330 0.030330
-0.602816 0.402788 -0.480000 0.102816 -0.097212
-0.512652 0.512652 -0.480000 0.012652 0.012652
-0.530330 0.530330 -0.480000 1.030330 0.030330
-0.402788 0.602816 -0.480000 0.902788 0.102816
-0.416678 0.623602 -0.480000 0.916678 0.123602
-0.287013 0.692910 -0.480000 0.787013 0.192910
-0.277445 0.669813 -0.480000 0.777445 0.169813
-0.692910 0.287013 -0.480000 0.192910 0.787013
-0.602816 0.402788 -0.480000 0.102816 0.902788
-0.623602 0.416678 -0.480000 0.123602 0.916678
-0.735589 0.146318 -0.480000 0.235589 0.646318
-0.669813 0.277445 -0.480000 0.169813 0.777445
-0.750000 0.000000 -0.480000 0.250000 0.500000
-0.711069 0.141440 -0.480000 0.211069 0.641441
-0.735589 -0.146318 -0.480000 0.235589 0.353682
-0.725000 0.000000 -0.480000 0.225000 0.500000
-0.692910 -0.287012 -0.480000 0.192910 0.212988
-0.711069 -0.141440 -0.480000 0.211069 0.358560
-0.602816 -0.402788 -0.480000 0.102816 0.097212
-0.669813 -0.277445 -0.480000 0.169813 0.222555
-0.530330 -0.530330 -0.480000 0.030330 -0.030330
-0.623602 -0.416678 -0.480000 0.123602 0.083322
-0.530330 -0.530330 -0.480000 0.030330 0.969670
-0.402788 -0.602816 -0.480000 -0.097212 0.897184
-0.512652 -0.512652 -0.480000 0.012652 0.987348
-0.416678 -0.623602 -0.480000 0.916678 0.876398
-0.277445 -0.669813 -0.480000 0.777445 0.830187
-0.402788 -0.602816 -0.480000 0.902788 0.897184
-0.146318 -0.735589 -0.480000 0.646318 0.764411
-0.287012 -0.692910 -0.480000 0.787012 0.807090
0.000000 -0.750000 -0.480000 0.500000 0.750000
-0.141440 -0.711069 -0.480000 0.641440 0.788931
0.146318 -0.735589 -0.480000 0.353682 0.764411
0.000000 -0.725000 -0.480000 0.500000 0.775000
0.277446 -0.669813 -0.480000 0.222554 0.830187
0.141441 -0.711069 -0.480000 0.358559 0.788931
0.287013 -0.692909 -0.480000 0.212987 0.807091
0.402789 -0.602815 -0.480000 0.097211 0.897185
0.530330 -0.530330 -0.480000 -0.030330 0.969670
0.416678 -0.623602 -0.480000 0.083322 0.876398
0.623603 -0.416677 -0.480000 0.876397 1.083323
0.512653 -0.512652 -0.480000 0.987347 0.987348
0.530330 -0.530330 -0.480000 0.969670 0.969670
0.692910 -0.287012 -0.480000 0.807090 0.212988
0.602816 -0.402788 -0.480000 0.897184 0.097212
0.623603 -0.416677 -0.480000 0.876397 0.083323
0.735589 -0.146317 -0.480000 0.764411 0.353683
0.669813 -0.277445 -0.480000 0.830187 0.222555
0.725000 0.000001 -0.480000 0.775000 0.500001
0.711069 -0.141440 -0.480000 0.788931 0.358560
0.750000 0.000001 -0.480000 0.750000 0.500001
0.711069 0.141441 -0.480000 0.788931 0.641441
0.735589 0.146319 -0.480000 0.764411 0.646319
0.669812 0.277446 -0.480000 0.830188 0.777446
0.623602 0.416678 -0.480000 0.876398 0.916678
0.692909 0.287013 -0.480000 0.807091 0.787013
0.512652 0.512653 -0.480000 0.987348 1.012653
0.602815 0.402789 -0.480000 0.897185 0.902789
0.530329 0.530331 -0.480000 0.969671 0.030331
0.402788 0.602816 -0.480000 1.097212 0.102816
0.512652 0.512653 -0.480000 0.987348 0.012653
0.416677 0.623603 -0.480000 0.083323 0.123603
0.277445 0.669813 -0.480000 0.222555 0.169813
0.402788 0.602816 -0.480000 0.097212 0.102816
0.146317 0.735589 -0.480000 0.353683 0.235589
0.287012 0.692910 -0.480000 0.212988 0.192910
0.000000 0.750000 -0.480000 0.500000 0.250000
0.141439 0.711070 -0.480000 0.358561 0.211070
-0.146318 0.735589 -0.480000 0.646318 0.235589
0.000000 0.725000 -0.480000 0.500000 0.225000
-0.141440 0.711069 -0.480000 0.641441 0.211069
0.000000 0.500000 -0.600000 0.500000 0.000000
-0.146318 0.735589 -0.600000 0.646318 0.235589
0.000000 0.750000 -0.600000 0.500000 0.250000
-0.191342 0.461940 -0.600000 0.691342 0.961940
-0.146318 0.735589 -0.600000 0.646318 1.235589
-0.097545 0.490393 -0.600000 0.597545 0.990393
-0.277785 0.415735 -0.600000 0.777785 0.915735
-0.287013 0.692910 -0.600000 0.787013 1.192910
-0.530330 0.530330 -0.600000 1.030330 1.030330
-0.416678 0.623602 -0.600000 0.916678 1.123602
-0.415735 0.277785 -0.600000 0.915735 0.777785
-0.353553 0.353553 -0.600000 0.853553 0.853553
-0.692910 0.287013 -0.600000 1.192910 0.787013
-0.623602 0.416678 -0.600000 1.123602 0.916678
-0.461940 0.191342 -0.600000 0.961940 0.691342
-0.735589 0.146318 -0.600000 1.235589 0.646318
-0.500000 0.000000 -0.600000 1.000000 0.500000
-0.490393 0.097545 -0.600000 0.990393 0.597545
-0.500000 0.000000 -0.600000 0.000000 0.500000
-0.735589 -0.146318 -0.600000 0.235589 0.353682
-0.750000 0.000000 -0.600000 0.250000 0.500000
-0.490393 -0.097545 -0.600000 0.990393 0.402455
-0.692910 -0.287012 -0.600000 1.192910 0.212988
-0.735589 -0.146318 -0.600000 1.235589 0.353682
-0.415735 -0.277785 -0.600000 0.915735 0.222215
-0.461940 -0.191342 -0.600000 0.961940 0.308658
-0.530330 -0.530330 -0.600000 1.030330 -0.030330
-0.623602 -0.416678 -0.600000 1.123602 0.083322
-0.277785 -0.415735 -0.600000 0.777785 0.084265
-0.353553 -0.353553 -0.600000 0.853553 0.146447
-0.191342 -0.461940 -0.600000 0.691342 0.038060
-0.416678 -0.623602 -0.600000 0.916678 -0.123602
-0.097545 -0.490393 -0.600000 0.597545 0.009607
-0.287012 -0.692910 -0.600000 0.787012 -0.192910
0.000000 -0.500000 -0.600000 0.500000 0.000000
-0.146318 -0.735589 -0.600000 0.646318 -0.235589
0.097545 -0.490393 -0.600000 0.402455 0.009607
0.000000 -0.750000 -0.600000 0.500000 -0.250000
0.287013 -0.692909 -0.600000 0.212987 -0.192909
0.146318 -0.735589 -0.600000 0.353682 -0.235589
0.277785 -0.415735 -0.600000 0.222215 0.084265
0.191342 -0.461940 -0.600000 0.308658 0.038060
0.353554 -0.353553 -0.600000 0.146446 0.146447
0.416678 -0.623602 -0.600000 0.083322 -0.123602
0.415735 -0.277785 -0.600000 0.084265 0.222215
0.530330 -0.530330 -0.600000 -0.030330 -0.030330
0.461940 -0.191341 -0.600000 0.038060 0.308659
0.623603 -0.416677 -0.600000 -0.123603 0.083323
0.490393 -0.097545 -0.600000 0.009607 0.402455
0.692910 -0.287012 -0.600000 -0.192910 0.212988
0.500000 0.000000 -0.600000 0.000000 0.500000
0.735589 -0.146317 -0.600000 -0.235589 0.353683
0.490393 0.097546 -0.600000 0.009607 0.597546
0.750000 0.000001 -0.600000 -0.250000 0.500001
0.692909 0.287013 -0.600000 -0.192909 0.787013
0.735589 0.146318 -0.600000 -0.235589 0.646319
0.461940 0.191342 -0.600000 0.038060 0.691342
0.623602 0.416678 -0.600000 -0.123602 0.916678
0.415734 0.277786 -0.600000 0.084266 0.777786
0.530329 0.530331 -0.600000 -0.030329 1.030331
0.277785 0.415735 -0.600000 0.222215 0.915735
0.353553 0.353554 -0.600000 0.146447 0.853554
0.191341 0.461940 -0.600000 0.308659 0.961940
0.416677 0.623603 -0.600000 0.083323 1.123603
0.097544 0.490393 -0.600000 0.402456 0.990393
0.287012 0.692910 -0.600000 0.212988 1.192910
0.146317 0.735589 -0.600000 0.353683 1.235589
0.000000 0.500000 0.600000 0.500000 1.000000
-0.146318 0.735589 0.600000 0.646318 1.235589
-0.097545 0.490393 0.600000 0.597545 0.990393
0.146317 0.735589 0.600000 0.353683 0.235589
0.000000 0.750000 0.600000 0.500000 0.250000
0.191341 0.461940 0.600000 0.308659 0.961940
0.146317 0.735589 0.600000 0.353683 1.235589
0.097544 0.490393 0.600000 0.402456 0.990393
0.277785 0.415735 0.600000 0.222215 0.915735
0.287012 0.692910 0.600000 0.212988 1.192910
0.353553 0.353554 0.600000 0.146447 0.853554
0.416677 0.623603 0.600000 0.083323 1.123603
0.415734 0.277786 0.600000 0.084266 0.777786
0.530329 0.530331 0.600000 -0.030329 1.030331
0.461940 0.191342 0.600000 0.038060 0.691342
0.623602 0.416678 0.600000 -0.123602 0.916678
0.490393 0.097546 0.600000 0.009607 0.597546
0.692909 0.287013 0.600000 -0.192909 0.787013
0.500000 0.000001 0.600000 0.000000 0.500000
0.735589 0.146319 0.600000 -0.235589 0.646318
0.490393 -0.097545 0.600000 0.009607 0.402455
0.750000 0.000001 0.600000 -0.250000 0.500001
0.461940 -0.191341 0.600000 0.038060 0.308659
0.735589 -0.146317 0.600000 -0.235589 0.353683
0.415735 -0.277785 0.600000 0.084265 0.222215
0.692910 -0.287012 0.600000 -0.192910 0.212988
0.353554 -0.353553 0.600000 0.146446 0.146447
0.623603 -0.416677 0.600000 -0.123603 0.083323
0.277785 -0.415735 0.600000 0.222215 0.084265
0.530330 -0.530330 0.600000 -0.030330 -0.030330
0.191342 -0.461940 0.600000 0.308658 0.038060
0.416678 -0.623602 0.600000 0.083322 -0.123602
0.097545 -0.490393 0.600000 0.402455 0.009607
0.287013 -0.692910 0.600000 0.212987 -0.192910
0.146318 -0.735589 0.600000 0.353682 -0.235589
-0.097545 -0.490393 0.600000 0.597545 0.009607
0.000000 -0.750000 0.600000 0.500000 -0.250000
-0.191342 -0.461940 0.600000 0.691342 0.038060
-0.146318 -0.735589 0.600000 0.646318 -0.235589
-0.416678 -0.623602 0.600000 0.916678 -0.123602
-0.287012 -0.692910 0.600000 0.787012 -0.192910
-0.277785 -0.415735 0.600000 0.777785 0.084265
-0.530330 -0.530330 0.600000 1.030330 -0.030330
-0.415735 -0.277785 0.600000 0.915735 0.222215
-0.353553 -0.353553 0.600000 0.853553 0.146447
-0.692910 -0.287012 0.600000 1.192910 0.212988
-0.623602 -0.416678 0.600000 1.123602 0.083322
-0.490393 -0.097545 0.600000 0.990393 0.402455
-0.461940 -0.191342 0.600000 0.961940 0.308658
-0.500000 0.000000 0.600000 1.000000 0.500000
-0.735589 -0.146318 0.600000 1.235589 0.353682
-0.500000 0.000000 0.600000 0.000000 0.500000
-0.735589 0.146318 0.600000 0.235589 0.646318
-0.750000 0.000000 0.600000 0.250000 0.500000
-0.490393 0.097545 0.600000 0.990393 0.597545
-0.692910 0.287013 0.600000 1.192910 0.787013
-0.735589 0.146318 0.600000 1.235589 0.646318
-0.415735 0.277785 0.600000 0.915735 0.777785
-0.461940 0.191342 0.600000 0.961940 0.691342
-0.530330 0.530330 0.600000 1.030330 1.030330
-0.623602 0.416678 0.600000 1.123602 0.916678
-0.353553 0.353553 0.600000 0.853553 0.853553
-0.416678 0.623602 0.600000 0.916678 1.123602
-0.191342 0.461940 0.600000 0.691342 0.961940
-0.277785 0.415735 0.600000 0.777785 0.915735
-0.287013 0.692910 0.600000 0.787013 1.192910
-0.353553 -0.353553 -0.600000 0.146447 1.000000
0.353554 -0.353553 -0.600000 0.146446 1.000000
0.353553 0.353554 -0.600000 0.853554 1.000000
-0.530330 0.530330 -0.600000 1.030330 1.000000
-0.623602 0.416678 -0.600000 -0.083322 1.000000
-0.530330 -0.530330 -0.600000 -0.030330 1.000000
-0.416678 -0.623602 -0.600000 -0.083322 1.000000
0.530330 -0.530330 -0.600000 -0.030330 1.000000
0.623603 -0.416677 -0.600000 1.083323 1.000000
0.530329 0.530331 -0.600000 1.030331 1.000000
0.416677 0.623603 -0.600000 1.083323 1.000000
-0.530330 0.530330 0.480000 1.030330 0.100000
-0.623602 0.416678 0.480000 -0.083322 0.100000
-0.530330 -0.530330 0.480000 -0.030330 0.100000
-0.416678 -0.623602 0.480000 -0.083322 0.100000
0.530330 -0.530330 0.480000 -0.030330 0.100000
0.623603 -0.416677 0.480000 1.083323 0.100000
0.530329 0.530331 0.480000 1.030331 0.100000
0.416677 0.623603 0.480000 1.083323 0.100000
-0.512652 0.512652 -0.480000 1.012652 0.900000
-0.602816 0.402788 -0.480000 -0.097212 0.900000
-0.512652 -0.512652 -0.480000 -0.012652 0.900000
-0.402788 -0.602816 -0.480000 -0.097212 0.900000
0.512653 -0.512652 -0.480000 -0.012653 0.900000
0.602816 -0.402788 -0.480000 1.097212 0.900000
0.512652 0.512653 -0.480000 1.012653 0.900000
0.402788 0.602816 -0.480000 1.097212 0.900000
0.512652 0.512653 0.480000 -0.012652 0.012653
-0.402788 0.602816 0.480000 -0.097212 0.102816
-0.512652 0.512652 0.480000 0.012652 1.012652
-0.602816 -0.402788 0.480000 0.102816 1.097212
-0.512652 -0.512652 0.480000 1.012652 0.987348
0.416678 -0.623602 0.480000 1.083322 0.876398
0.530330 -0.530330 0.480000 0.969670 -0.030330
0.623602 0.416678 0.480000 0.876398 -0.083322
-0.623602 0.416678 -0.480000 0.123602 -0.083322
-0.512652 0.512652 -0.480000 1.012652 0.012652
-0.512652 -0.512652 -0.480000 0.012652 -0.012652
-0.416678 -0.623602 -0.480000 -0.083322 0.876398
0.512653 -0.512652 -0.480000 -0.012653 0.987348
0.602816 -0.402788 -0.480000 0.897184 1.097212
0.530329 0.530331 -0.480000 0.969671 1.030331
0.416677 0.623603 -0.480000 1.083323 0.123603
-0.097545 0.490393 -0.600000 0.597545 -0.009607
-0.750000 0.000000 -0.600000 1.250000 0.500000
-0.490393 -0.097545 -0.600000 -0.009607 0.402455
0.000000 0.750000 -0.600000 0.500000 1.250000
0.000000 0.750000 0.600000 0.500000 1.250000
0.097544 0.490393 0.600000 0.402456 -0.009607
-0.750000 0.000000 0.600000 1.250000 0.500000
-0.490393 0.097545 0.600000 -0.009607 0.597545
3 0 1 2
3 3 4 0
3 5 6 3
3 7 8 5
3 9 10 7
3 11 12 9
3 13 14 11
3 15 16 13
3 17 18 15
3 19 20 17
3 21 22 19
3 23 24 21
3 25 26 27
3 28 29 25
3 30 31 28
3 32 33 30
3 34 35 32
3 36 37 34
3 38 39 36
3 40 41 38
3 42 43 44
3 45 46 42
3 47 48 45
3 49 50 47
3 51 52 49
3 53 54 51
3 55 56 53
3 57 58 55
3 59 60 61
3 62 63 59
3 64 65 62
3 2 66 64
3 67 68 69
3 70 71 68
3 72 73 71
3 74 75 73
3 76 77 78
3 79 80 81
3 82 83 80
3 84 85 83
3 86 87 85
3 88 89 87
3 90 91 89
3 92 93 91
3 94 95 96
3 97 98 99
3 100 101 98
3 102 103 101
3 104 105 103
3 106 107 105
3 108 109 107
3 110 111 109
3 112 113 114
3 115 116 117
3 118 119 116
3 120 121 119
3 122 123 121
3 124 125 123
3 126 127 125
3 128 129 127
3 130 131 132
3 133 134 135
3 136 137 134
3 138 69 137
3 139 140 141
3 142 143 140
3 144 145 143
3 146 147 145
3 148 149 150
3 151 152 153
3 154 155 152
3 156 157 155
3 158 159 157
3 160 161 159
3 162 163 161
3 164 165 163
3 166 167 168
3 169 170 171
3 172 173 170
3 174 175 173
3 176 177 175
3 178 179 177
3 180 181 179
3 182 183 181
3 184 185 186
3 187 188 189
3 190 191 188
3 192 193 191
3 194 195 193
3 196 197 195
3 198 199 197
3 200 201 199
3 202 203 204
3 205 206 207
3 208 209 206
3 210 141 209
3 211 212 213
3 214 215 212
3 216 217 215
3 218 219 217
3 220 221 222
3 223 224 225
3 226 227 224
3 228 229 227
3 230 231 229
3 232 233 231
3 234 235 233
3 236 237 235
3 238 239 240
3 241 242 243
3 244 245 242
3 246 247 245
3 248 249 247
3 250 251 249
3 252 253 251
3 254 255 253
3 256 257 258
3 259 260 261
3 262 263 260
3 264 265 263
3 266 267 265
3 268 269 267
3 270 271 269
3 272 273 271
3 274 275 276
3 277 278 279
3 280 281 278
3 282 213 281
3 283 284 285
3 286 284 287
3 286 288 289
3 290 288 291
3 290 292 293
3 293 294 295
3 295 296 297
3 298 299 300
3 301 302 303
3 303 304 305
3 305 306 307
3 307 308 309
3 309 310 311
3 311 312 313
3 313 314 315
3 316 317 318
3 319 320 321
3 321 322 323
3 323 324 325
3 325 326 327
3 328 326 329
3 328 330 331
3 332 330 333
3 334 335 336
3 337 338 339
3 340 339 341
3 342 341 343
3 344 343 345
3 346 345 347
3 348 347 349
3 350 349 351
3 352 353 354
3 355 356 357
3 358 359 360
3 361 359 362
3 363 364 365
3 366 367 363
3 368 369 366
3 370 371 368
3 372 373 370
3 372 374 375
3 376 374 377
3 378 379 380
3 381 382 383
3 384 382 385
3 386 387 384
3 388 389 386
3 388 390 391
3 392 393 390
3 394 393 395
3 396 397 398
3 399 400 401
3 402 403 399
3 402 404 405
3 406 407 404
3 408 409 407
3 410 409 411
3 410 412 413
3 414 415 416
3 417 418 419
3 420 418 421
3 422 423 420
3 424 425 422
3 424 362 426
3 427 428 429
3 430 431 432
3 433 434 430
3 433 435 436
3 437 435 438
3 437 439 440
3 441 442 439
3 443 442 444
3 445 446 447
3 448 449 450
3 451 449 452
3 451 453 454
3 455 453 456
3 457 458 455
3 459 460 457
3 461 462 459
3 463 464 461
3 463 465 466
3 467 465 468
3 469 470 467
3 471 472 469
3 473 474 471
3 475 476 473
3 477 478 475
3 479 480 477
3 479 481 482
3 483 484 481
3 485 486 484
3 487 486 488
3 489 490 487
3 491 492 489
3 1 493 491
3 494 495 496
3 2 497 498
3 499 500 501
3 502 503 499
3 504 505 502
3 506 507 504
3 508 509 506
3 510 511 508
3 512 513 510
3 514 515 512
3 516 517 514
3 518 519 516
3 520 521 518
3 522 523 520
3 524 525 522
3 526 527 524
3 32 528 526
3 529 530 32
3 531 532 529
3 531 533 534
3 535 536 533
3 537 536 538
3 537 539 540
3 541 539 542
3 543 544 541
3 545 546 547
3 548 549 550
3 551 549 552
3 551 553 554
3 555 556 553
3 557 556 558
3 496 559 557
3 0 4 1
3 3 6 4
3 5 8 6
3 7 10 8
3 9 12 10
3 11 14 12
3 13 16 14
3 15 18 16
3 17 20 18
3 19 22 20
3 21 24 22
3 23 560 24
3 25 29 26
3 28 31 29
3 30 33 31
3 32 35 33
3 34 37 35
3 36 39 37
3 38 41 39
3 40 561 41
3 42 46 43
3 45 48 46
3 47 50 48
3 49 52 50
3 51 54 52
3 53 56 54
3 55 58 56
3 57 562 58
3 59 63 60
3 62 65 63
3 64 66 65
3 2 1 66
3 67 70 68
3 70 72 71
3 72 74 73
3 74 563 75
3 76 564 77
3 79 82 80
3 82 84 83
3 84 86 85
3 86 88 87
3 88 90 89
3 90 92 91
3 92 565 93
3 94 566 95
3 97 100 98
3 100 102 101
3 102 104 103
3 104 106 105
3 106 108 107
3 108 110 109
3 110 567 111
3 112 568 113
3 115 118 116
3 118 120 119
3 120 122 121
3 122 124 123
3 124 126 125
3 126 128 127
3 128 569 129
3 130 570 131
3 133 136 134
3 136 138 137
3 138 67 69
3 139 142 140
3 142 144 143
3 144 146 145
3 146 571 147
3 148 572 149
3 151 154 152
3 154 156 155
3 156 158 157
3 158 160 159
3 160 162 161
3 162 164 163
3 164 573 165
3 166 574 167
3 169 172 170
3 172 174 173
3 174 176 175
3 176 178 177
3 178 180 179
3 180 182 181
3 182 575 183
3 184 576 185
3 187 190 188
3 190 192 191
3 192 194 193
3 194 196 195
3 196 198 197
3 198 200 199
3 200 577 201
3 202 578 203
3 205 208 206
3 208 210 209
3 210 139 141
3 211 214 212
3 214 216 215
3 216 218 217
3 218 579 219
3 220 580 221
3 223 226 224
3 226 228 227
3 228 230 229
3 230 232 231
3 232 234 233
3 234 236 235
3 236 581 237
3 238 582 239
3 241 244 242
3 244 246 245
3 246 248 247
3 248 250 249
3 250 252 251
3 252 254 253
3 254 583 255
3 256 584 257
3 259 262 260
3 262 264 263
3 264 266 265
3 266 268 267
3 268 270 269
3 270 272 271
3 272 585 273
3 274 586 275
3 277 280 278
3 280 282 281
3 282 211 213
3 283 587 284
3 286 285 284
3 286 287 288
3 290 289 288
3 290 291 292
3 293 292 294
3 295 294 296
3 298 588 299
3 301 589 302
3 303 302 304
3 305 304 306
3 307 306 308
3 309 308 310
3 311 310 312
3 313 312 314
3 316 590 317
3 319 591 320
3 321 320 322
3 323 322 324
3 325 324 326
3 328 327 326
3 328 329 330
3 332 331 330
3 334 592 335
3 337 593 338
3 340 337 339
3 342 340 341
3 344 342 343
3 346 344 345
3 348 346 347
3 350 348 349
3 352 594 353
3 355 595 356
3 358 596 359
3 361 360 359
3 363 367 364
3 366 369 367
3 368 371 369
3 370 373 371
3 372 375 373
3 372 377 374
3 376 597 374
3 378 598 379
3 381 385 382
3 384 387 382
3 386 389 387
3 388 391 389
3 388 392 390
3 392 395 393
3 394 599 393
3 396 600 397
3 399 403 400
3 402 405 403
3 402 406 404
3 406 408 407
3 408 411 409
3 410 413 409
3 410 601 412
3 414 602 415
3 417 421 418
3 420 423 418
3 422 425 423
3 424 426 425
3 424 361 362
3 427 603 428
3 430 434 431
3 433 436 434
3 433 438 435
3 437 440 435
3 437 441 439
3 441 444 442
3 443 604 442
3 445 605 446
3 448 452 449
3 451 454 449
3 451 456 453
3 455 458 453
3 457 460 458
3 459 462 460
3 461 464 462
3 463 466 464
3 463 468 465
3 467 470 465
3 469 472 470
3 471 474 472
3 473 476 474
3 475 478 476
3 477 480 478
3 479 482 480
3 479 483 481
3 483 485 484
3 485 488 486
3 487 490 486
3 489 492 490
3 491 493 492
3 1 606 493
3 494 607 495
3 2 608 497
3 499 503 500
3 502 505 503
3 504 507 505
3 506 509 507
3 508 511 509
3 510 513 511
3 512 515 513
3 514 517 515
3 516 519 517
3 518 521 519
3 520 523 521
3 522 525 523
3 524 527 525
3 526 528 527
3 32 530 528
3 529 532 530
3 531 534 532
3 531 535 533
3 535 538 536
3 537 540 536
3 537 542 539
3 541 544 539
3 543 609 544
3 545 610 546
3 548 552 549
3 551 554 549
3 551 555 553
3 555 558 556
3 557 559 556
3 496 495 559
