ply
format ascii 1.0
comment Created by Blender 2.91.2 - www.blender.org
element vertex 72
property float x
property float y
property float z
property float s
property float t
element face 44
property list uchar uint vertex_indices
end_header
0.300000 0.500000 0.500000 0.251953 0.998047
-0.300000 -0.500000 0.500000 0.751953 0.001953
0.300000 -0.500000 0.500000 0.251953 0.001953
-0.500000 0.500000 0.300000 0.251953 0.998047
-0.500000 -0.500000 -0.300000 0.751953 0.001953
-0.500000 -0.500000 0.300000 0.251953 0.001953
-0.350000 0.500000 -0.350000 1.000000 1.000000
0.350000 -0.500000 -0.350000 0.000000 0.000000
-0.350000 -0.500000 -0.350000 1.000000 0.000000
0.350000 0.500000 -0.350000 0.751953 0.998047
0.350000 -0.500000 0.350000 0.251953 0.001953
0.350000 -0.500000 -0.350000 0.751953 0.001953
-0.350000 -0.500000 -0.350000 0.802734 0.201172
0.350000 -0.500000 0.350000 0.201172 0.802734
-0.350000 -0.500000 0.350000 0.802734 0.802734
-0.350000 0.500000 0.350000 0.853516 0.826172
0.350000 0.500000 -0.350000 0.150391 0.177734
-0.350000 0.500000 -0.350000 0.853516 0.177734
-0.500000 -0.500000 0.300000 1.000000 0.000000
-0.350000 0.500000 0.300000 0.700000 1.000000
-0.500000 0.500000 0.300000 1.000000 1.000000
-0.500000 -0.500000 -0.300000 1.000000 0.000000
-0.350000 0.500000 -0.300000 0.700000 1.000000
-0.350000 -0.500000 -0.300000 0.700000 0.000000
-0.500000 -0.500000 0.300000 1.005859 0.751953
-0.350000 -0.500000 -0.300000 0.703516 0.251953
-0.350000 -0.500000 0.300000 0.703516 0.751953
-0.500000 0.500000 -0.300000 1.005859 0.251953
-0.350000 0.500000 0.300000 0.703516 0.751953
-0.350000 0.500000 -0.300000 0.703516 0.251953
-0.350000 0.500000 0.350000 0.251953 0.998047
-0.350000 0.500000 -0.300000 0.716239 0.998047
-0.350000 0.500000 0.300000 0.287667 0.998047
-0.350000 -0.500000 -0.350000 0.751953 0.001953
-0.350000 -0.500000 0.350000 0.251953 0.001953
-0.350000 -0.500000 -0.300000 0.716239 0.001953
0.300000 0.500000 0.500000 1.000000 1.000000
0.300000 -0.500000 0.350000 0.700000 0.000000
0.300000 0.500000 0.350000 0.700000 1.000000
-0.300000 0.500000 0.500000 1.000000 1.000000
-0.300000 -0.500000 0.350000 0.700000 0.000000
-0.300000 -0.500000 0.500000 1.000000 0.000000
0.300000 -0.500000 0.350000 0.703516 0.751953
-0.300000 -0.500000 0.500000 1.005859 0.251953
-0.300000 -0.500000 0.350000 0.703516 0.251953
-0.300000 0.500000 0.500000 1.005859 0.251953
0.300000 0.500000 0.350000 0.703516 0.751953
-0.300000 0.500000 0.350000 0.703516 0.251953
0.350000 -0.500000 0.350000 0.000000 0.000000
0.350000 0.500000 0.350000 0.000000 1.000000
0.300000 -0.500000 0.350000 0.071429 0.000000
-0.350000 -0.500000 0.350000 1.000000 0.000000
-0.300000 0.500000 0.350000 0.928571 1.000000
-0.350000 0.500000 0.350000 1.000000 1.000000
-0.300000 0.500000 0.500000 0.751953 0.998047
-0.500000 0.500000 -0.300000 0.751953 0.998047
0.350000 0.500000 -0.350000 0.000000 1.000000
0.350000 0.500000 0.350000 0.251953 0.998047
0.350000 -0.500000 -0.350000 0.201172 0.201172
0.350000 0.500000 0.350000 0.150391 0.826172
-0.350000 -0.500000 0.300000 0.700000 0.000000
-0.500000 0.500000 -0.300000 1.000000 1.000000
-0.500000 -0.500000 -0.300000 1.005859 0.251953
-0.500000 0.500000 0.300000 1.005859 0.751953
-0.350000 0.500000 -0.350000 0.751953 0.998047
-0.350000 -0.500000 0.300000 0.287667 0.001953
0.300000 -0.500000 0.500000 1.000000 0.000000
-0.300000 0.500000 0.350000 0.700000 1.000000
0.300000 -0.500000 0.500000 1.005859 0.751953
0.300000 0.500000 0.500000 1.005859 0.751953
-0.300000 -0.500000 0.350000 0.928571 0.000000
0.300000 0.500000 0.350000 0.071429 1.000000
3 0 1 2
3 3 4 5
3 6 7 8
3 9 10 11
3 12 13 14
3 15 16 17
3 18 19 20
3 21 22 23
3 24 25 26
3 27 28 29
3 30 31 32
3 33 34 35
3 36 37 38
3 39 40 41
3 42 43 44
3 45 46 47
3 48 49 50
3 51 52 53
3 0 54 1
3 3 55 4
3 6 56 7
3 9 57 10
3 12 58 13
3 15 59 16
3 18 60 19
3 21 61 22
3 24 62 25
3 27 63 28
3 30 64 31
3 31 64 33
3 34 30 32
3 34 32 65
3 35 31 33
3 34 65 35
3 36 66 37
3 39 67 40
3 42 68 43
3 45 69 46
3 70 51 50
3 51 48 50
3 49 53 52
3 49 52 71
3 49 71 50
3 51 70 52
