ply
format ascii 1.0
comment Created by Blender 2.91.2 - www.blender.org
element vertex 60
property float x
property float y
property float z
property float s
property float t
element face 44
property list uchar uint vertex_indices
end_header
-0.200000 0.500000 -0.350000 0.240000 1.000000
0.500000 -0.500000 -0.350000 0.940000 0.000000
-0.200000 -0.500000 -0.350000 0.240000 0.000000
0.500000 0.500000 0.350000 0.940000 1.000000
-0.200000 -0.500000 0.350000 0.240000 0.000000
0.500000 -0.500000 0.350000 0.940000 0.000000
-0.500000 0.500000 0.300000 1.000000 1.000000
-0.500000 -0.500000 -0.300000 0.000000 0.000000
-0.500000 -0.500000 0.300000 1.000000 0.000000
0.500000 0.500000 -0.350000 -0.083333 1.000000
0.500000 0.500000 -0.300000 0.000000 1.000000
0.500000 0.428571 -0.300000 0.000000 0.928571
0.500000 -0.500000 0.350000 1.083333 0.000000
0.500000 -0.500000 0.300000 1.000000 0.000000
0.500000 -0.428571 0.300000 1.000000 0.071429
0.500000 -0.500000 -0.300000 0.000000 0.000000
0.500000 0.500000 0.300000 1.000000 1.000000
-0.200000 -0.500000 0.350000 1.083333 0.000000
-0.200000 0.500000 0.300000 1.000000 1.000000
-0.200000 -0.500000 0.300000 1.000000 0.000000
-0.200000 -0.500000 -0.350000 -0.083333 0.000000
-0.200000 0.500000 -0.300000 0.000000 1.000000
-0.200000 0.500000 -0.350000 -0.083333 1.000000
-0.200000 -0.500000 0.350000 0.240234 -0.005859
-0.200000 -0.500000 0.300000 0.240234 0.068359
0.450000 -0.500000 0.300000 0.912109 0.068359
-0.200000 -0.500000 -0.350000 0.240234 0.998047
0.500000 -0.500000 -0.300000 0.943359 0.923828
-0.200000 -0.500000 -0.300000 0.240234 0.923828
0.500000 -0.500000 0.300000 0.943359 0.068359
-0.200000 0.500000 -0.350000 0.240234 0.998047
0.450000 0.500000 -0.300000 0.912109 0.923828
0.500000 0.500000 -0.350000 0.943359 0.998047
0.500000 0.500000 0.350000 0.943359 -0.005859
-0.200000 0.500000 0.300000 0.240234 0.068359
-0.200000 0.500000 0.350000 0.240234 -0.005859
0.500000 0.500000 0.300000 0.943359 0.068359
-0.500000 0.500000 -0.300000 -0.060000 1.000000
-0.200000 -0.500000 -0.300000 0.240000 0.000000
-0.500000 -0.500000 -0.300000 -0.060000 0.000000
-0.500000 0.500000 0.300000 -0.060000 1.000000
-0.200000 -0.500000 0.300000 0.240000 0.000000
-0.200000 0.500000 0.300000 0.240000 1.000000
-0.500000 -0.500000 0.300000 -0.056641 0.068359
-0.500000 0.500000 -0.300000 -0.052734 0.923828
-0.200000 0.500000 -0.300000 0.240234 0.923828
0.500000 0.500000 -0.350000 0.940000 1.000000
-0.200000 0.500000 0.350000 0.240000 1.000000
-0.500000 0.500000 -0.300000 0.000000 1.000000
0.500000 -0.500000 -0.350000 -0.083333 0.000000
0.500000 0.500000 0.350000 1.083333 1.000000
-0.200000 0.500000 0.350000 1.083333 1.000000
-0.200000 -0.500000 -0.300000 0.000000 0.000000
0.500000 -0.500000 0.350000 0.943359 -0.005859
0.500000 -0.500000 -0.350000 0.943359 0.998047
0.500000 0.500000 -0.300000 0.943359 0.923828
-0.200000 0.500000 -0.300000 0.240000 1.000000
-0.500000 -0.500000 0.300000 -0.060000 0.000000
-0.500000 -0.500000 -0.300000 -0.052734 0.923828
-0.500000 0.500000 0.300000 -0.056641 0.068359
3 0 1 2
3 3 4 5
3 6 7 8
3 9 10 11
3 12 13 14
3 15 14 13
3 16 11 10
3 17 18 19
3 20 21 22
3 23 24 25
3 26 27 28
3 27 29 25
3 30 31 32
3 33 34 35
3 36 31 34
3 37 38 39
3 40 41 42
3 43 28 24
3 44 34 45
3 0 46 1
3 3 47 4
3 6 48 7
3 11 15 49
3 49 9 11
3 16 50 14
3 50 12 14
3 15 11 14
3 16 14 11
3 17 51 18
3 20 52 21
3 25 29 53
3 53 23 25
3 26 54 27
3 24 28 25
3 28 27 25
3 45 31 30
3 31 55 32
3 33 36 34
3 55 31 36
3 31 45 34
3 37 56 38
3 40 57 41
3 43 58 28
3 44 59 34
