ply
format ascii 1.0
comment Created by Blender 2.91.2 - www.blender.org
element vertex 112
property float x
property float y
property float z
property float s
property float t
element face 72
property list uchar uint vertex_indices
end_header
-0.300000 0.500000 -0.500000 0.751953 0.998047
0.300000 -0.500000 -0.500000 0.251953 0.001953
-0.300000 -0.500000 -0.500000 0.751953 0.001953
-0.288007 0.500000 0.712271 0.251953 0.998047
-0.712271 -0.500000 0.288007 0.751953 0.001953
-0.288007 -0.500000 0.712271 0.251953 0.001953
0.712271 0.500000 0.288007 0.251953 0.998047
0.288007 -0.500000 0.712271 0.751953 0.001953
0.712271 -0.500000 0.288007 0.251953 0.001953
-0.350000 -0.500000 0.350000 0.802734 0.201172
0.350000 -0.500000 -0.350000 0.201172 0.802734
0.350000 -0.500000 0.350000 0.802734 0.802734
0.350000 0.500000 0.350000 0.853516 0.826172
-0.350000 0.500000 -0.350000 0.150391 0.177734
-0.350000 0.500000 0.350000 0.853516 0.177734
0.712271 -0.500000 0.288007 1.000000 0.000000
0.350000 0.500000 -0.074264 0.275861 1.000000
0.712271 0.500000 0.288007 1.000000 1.000000
0.350000 -0.500000 -0.350000 0.000000 0.000000
0.350000 0.500000 -0.350000 0.000000 1.000000
0.350000 -0.500000 -0.074264 0.393909 0.000000
-0.288007 0.500000 0.712271 1.000000 1.000000
-0.000000 -0.500000 0.424264 0.424306 0.000000
-0.000000 0.500000 0.424264 0.424306 1.000000
-0.712271 0.500000 0.288007 1.000000 1.000000
-0.350000 -0.500000 -0.074264 0.275861 0.000000
-0.712271 -0.500000 0.288007 1.000000 0.000000
-0.712271 -0.500000 0.288007 1.005859 0.251953
-0.350000 -0.500000 -0.074264 0.276063 0.251953
-0.350000 -0.500000 0.350000 0.703404 0.501953
-0.000000 -0.500000 0.424264 0.425668 0.751953
-0.074264 -0.500000 0.350000 0.425668 0.664432
0.074264 -0.500000 0.350000 0.276062 0.751953
-0.350000 0.500000 0.350000 0.703404 0.501953
-0.288007 0.500000 0.712271 1.005859 0.751953
-0.074264 0.500000 0.350000 0.425668 0.664432
-0.000000 0.500000 0.424264 0.425668 0.751953
0.074264 0.500000 0.350000 0.276062 0.751953
-0.350000 0.500000 -0.350000 0.000000 1.000000
-0.350000 -0.500000 -0.350000 0.000000 0.000000
-0.350000 0.500000 -0.074264 0.393909 1.000000
0.288007 0.500000 0.712271 1.000000 1.000000
0.288007 -0.500000 0.712271 1.000000 0.000000
0.350000 -0.500000 0.350000 0.703404 0.501953
0.288007 -0.500000 0.712271 1.005859 0.251953
0.074264 -0.500000 0.350000 0.425668 0.339474
0.350000 0.500000 0.350000 0.703404 0.501953
0.074264 0.500000 0.350000 0.425668 0.339474
0.288007 0.500000 0.712271 1.005859 0.251953
0.350000 0.500000 0.350000 0.251953 0.998047
-0.350000 0.500000 0.350000 0.751953 0.998047
0.074264 0.500000 0.350000 0.448907 0.998047
-0.350000 -0.500000 0.350000 0.751953 0.001953
0.350000 -0.500000 0.350000 0.251953 0.001953
-0.074264 -0.500000 0.350000 0.554999 0.001953
0.300000 0.500000 -0.500000 0.000000 1.000000
0.300000 -0.500000 -0.350000 0.300000 0.000000
0.300000 -0.500000 -0.500000 0.000000 0.000000
-0.300000 0.500000 -0.500000 0.000000 1.000000
-0.300000 -0.500000 -0.350000 0.300000 0.000000
-0.300000 0.500000 -0.350000 0.300000 1.000000
0.300000 -0.500000 -0.500000 -0.001953 0.751953
-0.300000 -0.500000 -0.350000 0.300391 0.251953
-0.300000 -0.500000 -0.500000 -0.001953 0.251953
0.300000 0.500000 -0.500000 -0.001953 0.751953
-0.300000 0.500000 -0.350000 0.300391 0.251953
0.300000 0.500000 -0.350000 0.300391 0.751953
-0.350000 0.500000 -0.350000 0.751953 0.998047
0.300000 0.500000 -0.350000 0.287667 0.998047
-0.300000 0.500000 -0.350000 0.716239 0.998047
0.350000 -0.500000 -0.350000 0.251953 0.001953
-0.350000 -0.500000 -0.350000 0.751953 0.001953
0.300000 -0.500000 -0.350000 0.287667 0.001953
0.300000 0.500000 -0.500000 0.251953 0.998047
-0.712271 0.500000 0.288007 0.751953 0.998047
0.288007 0.500000 0.712271 0.751953 0.998047
-0.350000 -0.500000 -0.350000 0.201172 0.201172
0.350000 0.500000 -0.350000 0.150391 0.826172
0.350000 -0.500000 -0.074264 0.275861 0.000000
0.350000 -0.500000 0.350000 1.000000 0.000000
0.350000 -0.500000 0.350000 1.000000 0.000000
0.350000 0.500000 0.350000 1.000000 1.000000
0.350000 0.500000 -0.074264 0.393909 1.000000
0.350000 0.500000 0.350000 1.000000 1.000000
-0.288007 -0.500000 0.712271 1.000000 0.000000
-0.350000 0.500000 -0.074264 0.275861 1.000000
-0.288007 -0.500000 0.712271 1.005859 0.751953
-0.350000 0.500000 -0.074264 0.276063 0.251953
-0.712271 0.500000 0.288007 1.005859 0.251953
-0.350000 0.500000 0.350000 1.000000 1.000000
-0.350000 0.500000 0.350000 1.000000 1.000000
-0.350000 -0.500000 0.350000 1.000000 0.000000
-0.350000 -0.500000 -0.074264 0.393909 0.000000
-0.350000 -0.500000 0.350000 1.000000 0.000000
0.350000 -0.500000 -0.074264 0.276063 0.751953
0.712271 -0.500000 0.288007 1.005859 0.751953
-0.000000 -0.500000 0.424264 0.425668 0.251953
-0.000000 0.500000 0.424264 0.425668 0.251953
0.712271 0.500000 0.288007 1.005859 0.751953
0.350000 0.500000 -0.074264 0.276063 0.751953
-0.350000 0.500000 0.350000 0.751953 0.998047
-0.074264 0.500000 0.350000 0.554999 0.998047
0.350000 0.500000 0.350000 0.251953 0.998047
0.350000 -0.500000 0.350000 0.251953 0.001953
0.074264 -0.500000 0.350000 0.448907 0.001953
-0.350000 -0.500000 0.350000 0.751953 0.001953
0.300000 0.500000 -0.350000 0.300000 1.000000
-0.300000 -0.500000 -0.500000 0.000000 0.000000
0.300000 -0.500000 -0.350000 0.300391 0.751953
-0.300000 0.500000 -0.500000 -0.001953 0.251953
0.350000 0.500000 -0.350000 0.251953 0.998047
-0.300000 -0.500000 -0.350000 0.716239 0.001953
3 0 1 2
3 3 4 5
3 6 7 8
3 9 10 11
3 12 13 14
3 15 16 17
3 18 19 20
3 21 22 23
3 24 25 26
3 27 28 29
3 30 31 32
3 33 34 35
3 35 36 37
3 38 39 40
3 41 22 42
3 43 44 45
3 46 47 48
3 49 50 51
3 52 53 54
3 55 56 57
3 58 59 60
3 61 62 63
3 64 65 66
3 67 68 69
3 70 71 72
3 0 73 1
3 3 74 4
3 6 75 7
3 9 76 10
3 12 77 13
3 15 78 16
3 20 79 80
3 19 81 82
3 81 83 82
3 20 80 18
3 19 82 20
3 21 84 22
3 24 85 25
3 29 31 86
3 31 30 86
3 86 27 29
3 33 87 88
3 88 34 33
3 34 36 35
3 40 89 90
3 39 91 92
3 91 93 92
3 40 90 38
3 39 92 40
3 41 23 22
3 43 94 95
3 95 44 43
3 44 96 45
3 97 48 47
3 48 98 46
3 98 99 46
3 50 100 101
3 51 102 49
3 50 101 51
3 53 103 104
3 54 105 52
3 53 104 54
3 55 106 56
3 58 107 59
3 61 108 62
3 64 109 65
3 67 110 68
3 68 110 70
3 71 67 69
3 71 69 111
3 72 68 70
3 71 111 72
