ply
format ascii 1.0
comment Created by Blender 2.91.2 - www.blender.org
element vertex 76
property float x
property float y
property float z
property float s
property float t
element face 44
property list uchar uint vertex_indices
end_header
0.500000 0.500000 -0.300000 0.200000 1.000000
0.500000 -0.500000 0.300000 0.800000 0.000000
0.500000 -0.500000 -0.300000 0.200000 0.000000
-0.500000 0.500000 0.300000 0.800000 1.000000
-0.500000 -0.500000 -0.300000 0.200000 0.000000
-0.500000 -0.500000 0.300000 0.800000 0.000000
-0.350000 0.500000 -0.350000 0.150000 1.000000
0.350000 -0.500000 -0.350000 0.850000 0.000000
-0.350000 -0.500000 -0.350000 0.150000 0.000000
0.350000 0.500000 0.350000 0.850000 1.000000
-0.350000 -0.500000 0.350000 0.150000 0.000000
0.350000 -0.500000 0.350000 0.850000 0.000000
0.350000 -0.500000 0.350000 0.849609 0.150391
-0.350000 -0.500000 -0.350000 0.150391 0.849609
0.350000 -0.500000 -0.350000 0.849609 0.849609
0.350000 0.500000 -0.350000 0.849609 0.849609
-0.350000 0.500000 0.350000 0.150391 0.150391
0.350000 0.500000 0.350000 0.849609 0.150391
-0.500000 -0.500000 -0.300000 0.000000 0.000000
-0.350000 0.500000 -0.300000 0.150000 1.000000
-0.350000 -0.500000 -0.300000 0.150000 0.000000
0.500000 0.500000 -0.300000 1.000000 1.000000
0.350000 -0.500000 -0.300000 0.850000 0.000000
0.350000 0.500000 -0.300000 0.850000 1.000000
0.500000 0.500000 0.300000 1.000000 1.000000
0.350000 -0.500000 0.300000 0.850000 0.000000
0.500000 -0.500000 0.300000 1.000000 0.000000
-0.500000 -0.500000 0.300000 0.000000 0.000000
-0.350000 0.500000 0.300000 0.150000 1.000000
-0.500000 0.500000 0.300000 0.000000 1.000000
0.500000 -0.500000 -0.300000 1.001953 0.798828
0.350000 -0.500000 0.300000 0.849609 0.201172
0.350000 -0.500000 -0.300000 0.849609 0.798828
-0.500000 -0.500000 -0.300000 -0.001953 0.798828
-0.350000 -0.500000 0.300000 0.150391 0.201172
-0.500000 -0.500000 0.300000 -0.001953 0.201172
0.500000 0.500000 0.300000 1.001953 0.201172
0.350000 0.500000 -0.300000 0.849609 0.798828
0.350000 0.500000 0.300000 0.849609 0.201172
-0.500000 0.500000 -0.300000 -0.001953 0.798828
-0.350000 0.500000 0.300000 0.150391 0.201172
-0.350000 0.500000 -0.300000 0.150391 0.798828
0.350000 0.500000 -0.350000 0.150000 0.811111
0.350000 0.500000 0.300000 0.800000 0.811111
0.350000 0.500000 -0.300000 0.200000 0.811111
0.350000 -0.500000 -0.350000 0.150000 0.000000
0.350000 -0.500000 0.300000 0.800000 0.000000
-0.350000 0.500000 0.350000 0.850000 0.811111
-0.350000 0.500000 -0.300000 0.200000 0.811111
-0.350000 0.500000 0.300000 0.800000 0.811111
-0.350000 -0.500000 0.350000 0.850000 0.000000
-0.350000 -0.500000 -0.300000 0.200000 0.000000
0.500000 0.500000 0.300000 0.800000 1.000000
-0.500000 0.500000 -0.300000 0.200000 1.000000
0.350000 0.500000 -0.350000 0.850000 1.000000
-0.350000 0.500000 0.350000 0.150000 1.000000
-0.350000 -0.500000 0.350000 0.150391 0.150391
-0.350000 0.500000 -0.350000 0.150391 0.849609
-0.500000 0.500000 -0.300000 0.000000 1.000000
0.500000 -0.500000 -0.300000 1.000000 0.000000
0.350000 0.500000 0.300000 0.850000 1.000000
-0.350000 -0.500000 0.300000 0.150000 0.000000
0.500000 -0.500000 0.300000 1.001953 0.201172
-0.350000 -0.500000 -0.300000 0.150391 0.798828
0.500000 0.500000 -0.300000 1.001953 0.798828
-0.500000 0.500000 0.300000 -0.001953 0.201172
0.350000 0.500000 0.350000 0.850000 0.811111
0.350000 0.500000 0.300000 0.800000 1.000000
0.350000 0.500000 -0.350000 0.150000 1.000000
0.350000 0.500000 -0.300000 0.200000 1.000000
0.350000 -0.500000 -0.300000 0.200000 0.000000
-0.350000 0.500000 -0.350000 0.150000 0.811111
-0.350000 0.500000 -0.300000 0.200000 1.000000
-0.350000 0.500000 0.350000 0.850000 1.000000
-0.350000 0.500000 0.300000 0.800000 1.000000
-0.350000 -0.500000 0.300000 0.800000 0.000000
3 0 1 2
3 3 4 5
3 6 7 8
3 9 10 11
3 12 13 14
3 15 16 17
3 18 19 20
3 21 22 23
3 24 25 26
3 27 28 29
3 30 31 32
3 33 34 35
3 36 37 38
3 39 40 41
3 42 43 44
3 11 45 46
3 47 48 49
3 8 50 51
3 0 52 1
3 3 53 4
3 6 54 7
3 9 55 10
3 12 56 13
3 15 57 16
3 18 58 19
3 21 59 22
3 24 60 25
3 27 61 28
3 30 62 31
3 33 63 34
3 36 64 37
3 39 65 40
3 42 66 43
3 67 9 11
3 45 68 69
3 45 69 70
3 46 67 11
3 45 70 46
3 47 71 48
3 72 6 8
3 50 73 74
3 50 74 75
3 51 72 8
3 50 75 51
