ply
format ascii 1.0
comment Created by Blender 2.91.2 - www.blender.org
element vertex 78
property float x
property float y
property float z
property float s
property float t
element face 48
property list uchar uint vertex_indices
end_header
-0.300000 0.500000 -0.500000 0.751953 0.998047
0.300000 -0.500000 -0.500000 0.251953 0.001953
-0.300000 -0.500000 -0.500000 0.751953 0.001953
0.712271 0.500000 0.288007 0.251953 0.998047
0.288007 -0.500000 0.712271 0.751953 0.001953
0.712271 -0.500000 0.288007 0.251953 0.001953
-0.350000 0.500000 0.350000 1.000000 1.000000
-0.350000 -0.500000 -0.350000 0.000000 0.000000
-0.350000 -0.500000 0.350000 1.000000 0.000000
-0.350000 -0.500000 0.350000 0.802734 0.201172
0.350000 -0.500000 -0.350000 0.201172 0.802734
0.350000 -0.500000 0.350000 0.802734 0.802734
0.350000 0.500000 0.350000 0.853516 0.826172
-0.350000 0.500000 -0.350000 0.150391 0.177734
-0.350000 0.500000 0.350000 0.853516 0.177734
0.712271 -0.500000 0.288007 1.000000 0.000000
0.350000 0.500000 -0.074264 0.275861 1.000000
0.712271 0.500000 0.288007 1.000000 1.000000
0.288007 -0.500000 0.712271 1.000000 0.000000
-0.074264 0.500000 0.350000 0.275860 1.000000
-0.074264 -0.500000 0.350000 0.275860 0.000000
0.712271 -0.500000 0.288007 1.005859 0.751953
0.288007 -0.500000 0.712271 1.005859 0.251953
0.350000 -0.500000 0.350000 0.703404 0.501953
0.288007 0.500000 0.712271 1.005859 0.251953
0.712271 0.500000 0.288007 1.005859 0.751953
0.350000 0.500000 0.350000 0.703404 0.501953
0.350000 -0.500000 -0.350000 0.000000 0.000000
0.350000 0.500000 -0.350000 0.000000 1.000000
0.350000 -0.500000 -0.074264 0.393909 0.000000
-0.350000 0.500000 0.350000 0.751953 0.998047
-0.350000 -0.500000 0.350000 0.751953 0.001953
-0.074264 0.500000 0.350000 0.554999 0.998047
0.300000 0.500000 -0.500000 0.000000 1.000000
0.300000 -0.500000 -0.350000 0.300000 0.000000
0.300000 -0.500000 -0.500000 0.000000 0.000000
-0.300000 0.500000 -0.500000 0.000000 1.000000
-0.300000 -0.500000 -0.350000 0.300000 0.000000
-0.300000 0.500000 -0.350000 0.300000 1.000000
0.300000 -0.500000 -0.500000 -0.001953 0.751953
-0.300000 -0.500000 -0.350000 0.300391 0.251953
-0.300000 -0.500000 -0.500000 -0.001953 0.251953
0.300000 0.500000 -0.500000 -0.001953 0.751953
-0.300000 0.500000 -0.350000 0.300391 0.251953
0.300000 0.500000 -0.350000 0.300391 0.751953
-0.350000 0.500000 -0.350000 0.751953 0.998047
0.300000 0.500000 -0.350000 0.287667 0.998047
-0.300000 0.500000 -0.350000 0.716239 0.998047
0.350000 -0.500000 -0.350000 0.251953 0.001953
-0.350000 -0.500000 -0.350000 0.751953 0.001953
0.300000 -0.500000 -0.350000 0.287667 0.001953
0.300000 0.500000 -0.500000 0.251953 0.998047
0.288007 0.500000 0.712271 0.751953 0.998047
-0.350000 0.500000 -0.350000 0.000000 1.000000
-0.350000 -0.500000 -0.350000 0.201172 0.201172
0.350000 0.500000 -0.350000 0.150391 0.826172
0.350000 -0.500000 -0.074264 0.275861 0.000000
0.288007 0.500000 0.712271 1.000000 1.000000
-0.074264 -0.500000 0.350000 0.276062 0.251953
0.350000 -0.500000 -0.074264 0.276063 0.751953
0.350000 0.500000 -0.074264 0.276063 0.751953
-0.074264 0.500000 0.350000 0.276062 0.251953
0.350000 -0.500000 0.350000 1.000000 0.000000
0.350000 -0.500000 0.350000 1.000000 0.000000
0.350000 0.500000 0.350000 1.000000 1.000000
0.350000 0.500000 -0.074264 0.393909 1.000000
0.350000 0.500000 0.350000 1.000000 1.000000
0.350000 0.500000 0.350000 0.251953 0.998047
0.350000 0.500000 0.350000 0.251953 0.998047
0.350000 -0.500000 0.350000 0.251953 0.001953
-0.074264 -0.500000 0.350000 0.554999 0.001953
0.350000 -0.500000 0.350000 0.251953 0.001953
0.300000 0.500000 -0.350000 0.300000 1.000000
-0.300000 -0.500000 -0.500000 0.000000 0.000000
0.300000 -0.500000 -0.350000 0.300391 0.751953
-0.300000 0.500000 -0.500000 -0.001953 0.251953
0.350000 0.500000 -0.350000 0.251953 0.998047
-0.300000 -0.500000 -0.350000 0.716239 0.001953
3 0 1 2
3 3 4 5
3 6 7 8
3 9 10 11
3 12 13 14
3 15 16 17
3 18 19 20
3 21 22 23
3 24 25 26
3 27 28 29
3 30 31 32
3 33 34 35
3 36 37 38
3 39 40 41
3 42 43 44
3 45 46 47
3 48 49 50
3 0 51 1
3 3 52 4
3 6 53 7
3 9 54 10
3 12 55 13
3 15 56 16
3 18 57 19
3 22 58 23
3 23 59 21
3 25 60 26
3 26 61 24
3 29 62 63
3 28 64 65
3 64 66 65
3 29 63 27
3 28 65 29
3 67 68 32
3 68 30 32
3 31 69 70
3 69 71 70
3 31 70 32
3 33 72 34
3 36 73 37
3 39 74 40
3 42 75 43
3 45 76 46
3 46 76 48
3 49 45 47
3 49 47 77
3 50 46 48
3 49 77 50
