ply
format ascii 1.0
comment Created by Blender 2.91.2 - www.blender.org
element vertex 95
property float x
property float y
property float z
property float s
property float t
element face 76
property list uchar uint vertex_indices
end_header
0.350000 0.500000 -0.350000 0.000000 1.000000
0.350000 -0.500000 0.350000 1.000000 0.000000
0.350000 -0.500000 -0.350000 0.000000 0.000000
-0.300000 0.500000 -0.500000 0.751953 0.998047
0.300000 -0.500000 -0.500000 0.251953 0.001953
-0.300000 -0.500000 -0.500000 0.751953 0.001953
-0.288007 0.500000 0.712271 0.251953 0.998047
-0.712271 -0.500000 0.288007 0.751953 0.001953
-0.288007 -0.500000 0.712271 0.251953 0.001953
0.350000 0.500000 0.350000 0.251953 0.998047
0.074264 -0.500000 0.350000 0.448907 0.001953
0.350000 -0.500000 0.350000 0.251953 0.001953
-0.350000 -0.500000 -0.350000 0.000000 0.000000
-0.350000 0.500000 -0.074264 0.393909 1.000000
-0.350000 0.500000 -0.350000 0.000000 1.000000
-0.350000 -0.500000 -0.350000 0.751953 0.001953
-0.300000 0.500000 -0.350000 0.716239 0.998047
-0.300000 -0.500000 -0.350000 0.716239 0.001953
0.350000 0.500000 -0.350000 0.251953 0.998047
0.300000 -0.500000 -0.350000 0.287667 0.001953
0.300000 0.500000 -0.350000 0.287667 0.998047
0.350000 -0.500000 0.350000 0.802734 0.802734
0.212271 -0.500000 0.211993 0.684135 0.684374
0.300000 -0.500000 0.000000 0.501953 0.759766
-0.350000 -0.500000 -0.350000 0.201172 0.201172
-0.300000 -0.500000 -0.124264 0.395164 0.244141
-0.350000 -0.500000 -0.074264 0.438132 0.201172
-0.350000 -0.500000 0.350000 0.802734 0.201172
-0.300000 -0.500000 0.000000 0.501953 0.244141
0.000139 -0.500000 -0.000139 0.501834 0.502073
0.000278 -0.500000 0.000000 0.501953 0.502192
-0.300000 -0.500000 -0.350000 0.201172 0.244141
0.300000 -0.500000 -0.350000 0.201172 0.759766
-0.211993 -0.500000 -0.212271 0.319533 0.319772
0.350000 0.500000 0.350000 0.853516 0.826172
0.300000 0.500000 0.000000 0.501953 0.779855
0.212271 0.500000 0.211993 0.714893 0.698588
-0.350000 0.500000 -0.350000 0.150391 0.177734
-0.300000 0.500000 -0.124264 0.377134 0.224051
-0.300000 0.500000 -0.350000 0.150391 0.224051
-0.300000 0.500000 0.000000 0.501953 0.224051
-0.350000 0.500000 -0.074264 0.427358 0.177734
-0.350000 0.500000 0.350000 0.853516 0.177734
-0.000000 0.500000 0.000000 0.501953 0.501953
0.000278 0.500000 0.000000 0.501953 0.502211
-0.211993 0.500000 -0.212271 0.288734 0.305576
-0.212132 0.500000 -0.212132 0.288874 0.305447
0.300000 0.500000 -0.500000 0.000000 1.000000
0.300000 -0.500000 -0.350000 0.300000 0.000000
0.300000 -0.500000 -0.500000 0.000000 0.000000
-0.288007 -0.500000 0.712271 1.000000 0.000000
0.074264 0.500000 0.350000 0.275861 1.000000
-0.288007 0.500000 0.712271 1.000000 1.000000
-0.300000 0.500000 -0.500000 0.000000 1.000000
-0.300000 -0.500000 -0.350000 0.300000 0.000000
-0.300000 0.500000 -0.350000 0.300000 1.000000
-0.300000 -0.500000 -0.350000 0.300391 0.251953
0.300000 -0.500000 -0.500000 -0.001953 0.751953
0.300000 -0.500000 -0.350000 0.300391 0.751953
0.300000 0.500000 -0.500000 -0.001953 0.751953
-0.300000 0.500000 -0.350000 0.300391 0.251953
0.300000 0.500000 -0.350000 0.300391 0.751953
-0.712271 0.500000 0.288007 1.000000 1.000000
-0.350000 -0.500000 -0.074264 0.275861 0.000000
-0.712271 -0.500000 0.288007 1.000000 0.000000
-0.288007 -0.500000 0.712271 1.005859 0.751953
-0.712271 -0.500000 0.288007 1.005859 0.251953
-0.350000 -0.500000 0.350000 0.703404 0.501953
-0.350000 0.500000 0.350000 0.703404 0.501953
-0.712271 0.500000 0.288007 1.005859 0.251953
-0.288007 0.500000 0.712271 1.005859 0.751953
0.350000 0.500000 0.350000 1.000000 1.000000
0.300000 0.500000 -0.500000 0.251953 0.998047
-0.712271 0.500000 0.288007 0.751953 0.998047
0.074264 0.500000 0.350000 0.448907 0.998047
-0.350000 -0.500000 -0.074264 0.393909 0.000000
-0.350000 0.500000 -0.350000 0.751953 0.998047
0.350000 -0.500000 -0.350000 0.251953 0.001953
0.350000 -0.500000 -0.350000 0.201172 0.802734
0.074264 -0.500000 0.350000 0.802734 0.565774
-0.294107 -0.500000 0.350000 0.802734 0.249205
0.350000 0.500000 -0.350000 0.150391 0.826172
0.300000 0.500000 -0.350000 0.150391 0.779855
0.074264 0.500000 0.350000 0.853516 0.570747
0.300000 0.500000 -0.350000 0.300000 1.000000
0.074264 -0.500000 0.350000 0.275861 0.000000
-0.300000 -0.500000 -0.500000 0.000000 0.000000
-0.300000 -0.500000 -0.500000 -0.001953 0.251953
-0.300000 0.500000 -0.500000 -0.001953 0.251953
-0.350000 0.500000 -0.074264 0.275861 1.000000
-0.294107 -0.500000 0.350000 0.647105 0.534889
0.074264 -0.500000 0.350000 0.276063 0.751953
-0.350000 -0.500000 -0.074264 0.276063 0.251953
-0.350000 0.500000 -0.074264 0.276063 0.251953
0.074264 0.500000 0.350000 0.276063 0.751953
3 0 1 2
3 3 4 5
3 6 7 8
3 9 10 11
3 12 13 14
3 15 16 17
3 18 19 20
3 21 22 23
3 24 25 26
3 27 26 28
3 29 30 28
3 31 32 33
3 34 35 36
3 37 38 39
3 40 41 42
3 43 44 45
3 45 39 46
3 47 48 49
3 50 51 52
3 53 54 55
3 56 57 58
3 59 60 61
3 62 63 64
3 65 66 67
3 68 69 70
3 0 71 1
3 3 72 4
3 6 73 7
3 9 74 10
3 12 75 13
3 15 76 16
3 18 77 19
3 23 32 78
3 21 79 22
3 22 30 23
3 23 78 21
3 24 31 25
3 26 25 28
3 28 30 80
3 30 22 79
3 80 30 79
3 80 27 28
3 25 33 28
3 33 29 28
3 30 29 32
3 29 33 32
3 30 32 23
3 33 25 31
3 34 81 35
3 81 82 35
3 35 44 36
3 36 83 34
3 37 41 38
3 42 83 43
3 83 36 44
3 43 83 44
3 40 38 41
3 43 40 42
3 45 46 43
3 46 38 40
3 43 46 40
3 45 44 82
3 44 35 82
3 82 39 45
3 39 38 46
3 47 84 48
3 50 85 51
3 53 86 54
3 56 87 57
3 59 88 60
3 62 89 63
3 90 91 65
3 66 92 67
3 67 90 65
3 68 93 69
3 70 94 68
