ply
format ascii 1.0
comment Created by Blender 2.91.2 - www.blender.org
element vertex 112
property float x
property float y
property float z
property float s
property float t
element face 92
property list uchar uint vertex_indices
end_header
-0.350000 0.500000 -0.350000 0.143198 1.000000
0.350000 -0.500000 -0.350000 0.811456 0.000000
-0.350000 -0.500000 -0.350000 0.143198 0.000000
0.500000 0.500000 -0.300000 0.942721 1.000000
0.500000 -0.500000 0.300000 0.255370 0.000000
0.500000 -0.500000 -0.300000 0.942721 0.000000
-0.500000 0.500000 0.300000 0.255370 1.000000
-0.500000 -0.500000 -0.300000 0.942721 0.000000
-0.500000 -0.500000 0.300000 0.255370 0.000000
0.300000 0.500000 0.500000 0.763723 1.000000
-0.300000 -0.500000 0.500000 0.190931 0.000000
0.300000 -0.500000 0.500000 0.763723 0.000000
0.350000 -0.500000 -0.350000 1.000000 0.000000
0.350000 0.500000 -0.300000 0.942721 1.000000
0.350000 -0.500000 -0.300000 0.942721 0.000000
0.350000 0.500000 0.350000 0.198091 1.000000
0.350000 -0.500000 0.300000 0.255370 0.000000
0.350000 0.500000 0.300000 0.255370 1.000000
0.350000 -0.500000 0.350000 0.811456 0.000000
0.300000 0.500000 0.350000 0.763723 1.000000
0.300000 -0.500000 0.350000 0.763723 0.000000
-0.350000 -0.500000 0.350000 0.143198 0.000000
-0.300000 0.500000 0.350000 0.190931 1.000000
-0.350000 0.500000 0.350000 0.143198 1.000000
-0.350000 -0.500000 0.350000 0.198091 0.000000
-0.350000 0.500000 0.300000 0.255370 1.000000
-0.350000 -0.500000 0.300000 0.255370 0.000000
-0.350000 -0.500000 -0.350000 1.000000 0.000000
-0.350000 0.500000 -0.300000 0.942721 1.000000
-0.350000 0.500000 -0.350000 1.000000 1.000000
0.350000 -0.500000 0.350000 0.853516 0.169922
0.300000 -0.500000 0.300000 0.806641 0.228516
0.350000 -0.500000 0.300000 0.853516 0.228516
0.350000 -0.500000 -0.350000 0.853516 1.001953
0.350000 -0.500000 -0.300000 0.853516 0.935547
-0.300000 -0.500000 -0.300000 0.205078 0.935547
-0.300000 -0.500000 0.350000 0.205078 0.169922
-0.350000 -0.500000 0.300000 0.154297 0.228516
-0.300000 -0.500000 0.300000 0.205078 0.228516
0.300000 -0.500000 -0.000000 0.806641 0.580078
-0.300000 -0.500000 0.000000 0.205078 0.580078
0.300000 -0.500000 0.180000 0.806641 0.369141
0.300000 -0.500000 0.350000 0.806641 0.169922
-0.350000 -0.500000 -0.243750 0.154297 0.869141
-0.350000 -0.500000 -0.300000 0.154297 0.935547
0.300000 0.500000 0.300000 0.806641 0.228516
0.350000 0.500000 0.350000 0.853516 0.169922
0.350000 0.500000 0.300000 0.853516 0.228516
-0.350000 0.500000 -0.350000 0.154297 1.001953
-0.350000 0.500000 -0.300000 0.154297 0.935547
0.300000 0.500000 -0.300000 0.806641 0.935547
-0.350000 0.500000 0.300000 0.154297 0.228516
-0.300000 0.500000 0.350000 0.205078 0.169922
-0.300000 0.500000 0.300000 0.205078 0.228516
0.300000 0.500000 0.350000 0.806641 0.169922
0.350000 0.500000 -0.243750 0.853516 0.869141
0.350000 0.500000 -0.300000 0.853516 0.935547
0.300000 0.500000 -0.000000 0.806641 0.580078
-0.300000 0.500000 0.000000 0.205078 0.580078
-0.300000 0.500000 0.180000 0.205078 0.369141
-0.500000 -0.500000 -0.300000 0.000000 0.000000
-0.350000 0.500000 -0.300000 0.143198 1.000000
-0.350000 -0.500000 -0.300000 0.143198 0.000000
0.500000 -0.500000 -0.300000 0.954654 0.000000
0.350000 0.500000 -0.300000 0.811456 1.000000
0.500000 0.500000 -0.300000 0.954654 1.000000
0.500000 -0.500000 0.300000 0.954654 0.000000
0.350000 0.500000 0.300000 0.811456 1.000000
0.350000 -0.500000 0.300000 0.811456 0.000000
-0.500000 0.500000 0.300000 0.000000 1.000000
-0.350000 -0.500000 0.300000 0.143198 0.000000
-0.350000 0.500000 0.300000 0.143198 1.000000
-0.500000 -0.500000 -0.300000 -0.005859 0.935547
0.500000 -0.500000 0.300000 1.005859 0.228516
0.500000 -0.500000 -0.300000 1.005859 0.935547
0.500000 0.500000 -0.300000 1.005859 0.935547
-0.500000 0.500000 0.300000 -0.005859 0.228516
-0.500000 0.500000 -0.300000 -0.005859 0.935547
-0.300000 0.500000 0.500000 0.026253 1.000000
-0.300000 -0.500000 0.350000 0.198091 0.000000
-0.300000 -0.500000 0.500000 0.026253 0.000000
0.300000 -0.500000 0.500000 0.026253 0.000000
0.300000 0.500000 0.350000 0.198091 1.000000
0.300000 0.500000 0.500000 0.026253 1.000000
-0.300000 -0.500000 0.500000 0.205078 -0.013672
0.300000 -0.500000 0.500000 0.806641 -0.013672
-0.300000 0.500000 0.500000 0.205078 -0.013672
0.350000 0.500000 -0.350000 0.811456 1.000000
0.500000 0.500000 0.300000 0.255370 1.000000
-0.500000 0.500000 -0.300000 0.942721 1.000000
-0.300000 0.500000 0.500000 0.190931 1.000000
0.350000 0.500000 -0.350000 1.000000 1.000000
0.350000 -0.500000 0.350000 0.198091 0.000000
0.350000 0.500000 0.350000 0.811456 1.000000
-0.300000 -0.500000 0.350000 0.190931 0.000000
-0.350000 0.500000 0.350000 0.198091 1.000000
-0.350000 -0.500000 -0.300000 0.942721 0.000000
-0.350000 -0.500000 -0.350000 0.154297 1.001953
-0.350000 -0.500000 0.350000 0.154297 0.169922
0.300000 -0.500000 0.300000 0.806641 0.228516
0.350000 0.500000 -0.350000 0.853516 1.001953
-0.350000 0.500000 0.350000 0.154297 0.169922
-0.300000 0.500000 0.300000 0.205078 0.228516
-0.500000 0.500000 -0.300000 0.000000 1.000000
0.350000 -0.500000 -0.300000 0.811456 0.000000
0.500000 0.500000 0.300000 0.954654 1.000000
-0.500000 -0.500000 0.300000 0.000000 0.000000
-0.500000 -0.500000 0.300000 -0.005859 0.228516
0.500000 0.500000 0.300000 1.005859 0.228516
-0.300000 0.500000 0.350000 0.198091 1.000000
0.300000 -0.500000 0.350000 0.198091 0.000000
0.300000 0.500000 0.500000 0.806641 -0.013672
3 0 1 2
3 3 4 5
3 6 7 8
3 9 10 11
3 12 13 14
3 15 16 17
3 18 19 20
3 21 22 23
3 24 25 26
3 27 28 29
3 30 31 32
3 33 34 35
3 36 37 38
3 39 40 35
3 40 39 41
3 38 42 36
3 35 43 44
3 45 46 47
3 48 49 50
3 51 52 53
3 45 52 54
3 55 56 50
3 57 58 59
3 58 50 49
3 60 61 62
3 63 64 65
3 66 67 68
3 69 70 71
3 72 44 43
3 73 34 74
3 75 56 55
3 76 49 77
3 78 79 80
3 81 82 83
3 84 42 85
3 86 54 52
3 0 87 1
3 3 88 4
3 6 89 7
3 9 90 10
3 12 91 13
3 15 92 16
3 18 93 19
3 21 94 22
3 24 95 25
3 27 96 28
3 30 42 31
3 44 97 35
3 97 33 35
3 36 98 37
3 32 31 99
3 99 41 32
3 41 39 32
3 32 39 34
3 43 35 40
3 35 34 39
3 38 37 40
3 37 43 40
3 41 99 38
3 99 31 38
3 41 38 40
3 38 31 42
3 45 54 46
3 50 56 100
3 100 48 50
3 51 101 52
3 45 53 52
3 59 102 53
3 53 45 59
3 45 57 59
3 57 45 47
3 47 55 57
3 55 50 57
3 51 53 102
3 102 59 51
3 59 58 51
3 51 58 49
3 58 57 50
3 60 103 61
3 63 104 64
3 66 105 67
3 69 106 70
3 43 37 107
3 107 72 43
3 73 32 34
3 55 47 108
3 108 75 55
3 76 51 49
3 78 109 79
3 81 110 82
3 84 36 42
3 86 111 54
