ply
format ascii 1.0
comment Created by Blender 2.91.2 - www.blender.org
element vertex 130
property float x
property float y
property float z
property float s
property float t
element face 76
property list uchar uint vertex_indices
end_header
-0.300000 0.500000 -0.500000 0.200000 1.000000
0.300000 -0.500000 -0.500000 0.800000 0.000000
-0.300000 -0.500000 -0.500000 0.200000 0.000000
0.300000 0.500000 0.500000 0.800000 1.000000
-0.300000 -0.500000 0.500000 0.200000 0.000000
0.300000 -0.500000 0.500000 0.800000 0.000000
0.500000 0.500000 -0.300000 0.200000 1.000000
0.500000 -0.500000 0.300000 0.800000 0.000000
0.500000 -0.500000 -0.300000 0.200000 0.000000
-0.500000 0.500000 0.300000 0.800000 1.000000
-0.500000 -0.500000 -0.300000 0.200000 0.000000
-0.500000 -0.500000 0.300000 0.800000 0.000000
0.350000 -0.500000 0.350000 0.853516 0.849609
-0.350000 -0.500000 -0.350000 0.150391 0.150391
0.350000 -0.500000 -0.350000 0.150391 0.849609
0.350000 0.500000 -0.350000 0.150391 0.849609
-0.350000 0.500000 0.350000 0.853516 0.150391
0.350000 0.500000 0.350000 0.853516 0.849609
-0.500000 -0.500000 -0.300000 0.000000 0.000000
-0.350000 0.500000 -0.300000 0.150000 1.000000
-0.350000 -0.500000 -0.300000 0.150000 0.000000
0.500000 0.500000 -0.300000 1.000000 1.000000
0.350000 -0.500000 -0.300000 0.850000 0.000000
0.350000 0.500000 -0.300000 0.850000 1.000000
0.500000 0.500000 0.300000 1.000000 1.000000
0.350000 -0.500000 0.300000 0.850000 0.000000
0.500000 -0.500000 0.300000 1.000000 0.000000
-0.500000 -0.500000 0.300000 0.000000 0.000000
-0.350000 0.500000 0.300000 0.150000 1.000000
-0.500000 0.500000 0.300000 0.000000 1.000000
0.500000 -0.500000 -0.300000 0.201172 0.998047
0.350000 -0.500000 0.300000 0.798828 0.849609
0.350000 -0.500000 -0.300000 0.201172 0.849609
-0.500000 -0.500000 -0.300000 0.201172 0.001953
-0.350000 -0.500000 0.300000 0.798828 0.150391
-0.500000 -0.500000 0.300000 0.798828 0.001953
0.500000 0.500000 0.300000 0.798828 0.998047
0.350000 0.500000 -0.300000 0.201172 0.849609
0.350000 0.500000 0.300000 0.798828 0.849609
-0.500000 0.500000 -0.300000 0.201172 0.001953
-0.350000 0.500000 0.300000 0.798828 0.150391
-0.350000 0.500000 -0.300000 0.201172 0.150391
0.350000 0.500000 -0.350000 0.250000 0.716667
0.350000 0.500000 0.300000 0.714286 0.716667
0.350000 0.500000 -0.300000 0.285714 0.716667
0.350000 -0.500000 0.350000 0.850000 0.000000
0.350000 -0.500000 -0.350000 0.150000 0.000000
0.350000 -0.500000 0.300000 0.800000 0.000000
-0.350000 0.500000 0.350000 0.750000 0.716667
-0.350000 0.500000 -0.300000 0.285714 0.716667
-0.350000 0.500000 0.300000 0.714286 0.716667
-0.350000 -0.500000 -0.350000 0.150000 0.000000
-0.350000 -0.500000 0.350000 0.850000 0.000000
-0.350000 -0.500000 -0.300000 0.200000 0.000000
-0.300000 0.500000 0.500000 1.000000 1.000000
-0.300000 -0.500000 0.350000 0.850000 0.000000
-0.300000 -0.500000 0.500000 1.000000 0.000000
-0.300000 -0.500000 -0.500000 0.000000 0.000000
-0.300000 0.500000 -0.350000 0.150000 1.000000
-0.300000 0.500000 -0.500000 0.000000 1.000000
0.300000 -0.500000 -0.500000 0.000000 0.000000
0.300000 0.500000 -0.350000 0.150000 1.000000
0.300000 -0.500000 -0.350000 0.150000 0.000000
0.300000 0.500000 0.500000 1.000000 1.000000
0.300000 -0.500000 0.350000 0.850000 0.000000
0.300000 0.500000 0.350000 0.850000 1.000000
0.300000 -0.500000 -0.500000 -0.001953 0.798828
-0.300000 -0.500000 -0.350000 0.150391 0.201172
-0.300000 -0.500000 -0.500000 -0.001953 0.201172
0.300000 -0.500000 0.500000 1.001953 0.798828
-0.300000 -0.500000 0.350000 0.853516 0.201172
0.300000 -0.500000 0.350000 0.853516 0.798828
-0.300000 0.500000 -0.500000 -0.001953 0.201172
0.300000 0.500000 -0.350000 0.150391 0.798828
0.300000 0.500000 -0.500000 -0.001953 0.798828
-0.300000 0.500000 0.500000 1.001953 0.201172
0.300000 0.500000 0.350000 0.853516 0.798828
-0.300000 0.500000 0.350000 0.853516 0.201172
-0.350000 0.500000 -0.350000 0.250000 0.716667
0.300000 0.500000 -0.350000 0.714286 0.716667
-0.300000 0.500000 -0.350000 0.285714 0.716667
0.350000 -0.500000 -0.350000 0.850000 0.000000
0.300000 -0.500000 -0.350000 0.800000 0.000000
0.350000 0.500000 0.350000 0.750000 0.716667
-0.300000 0.500000 0.350000 0.285714 0.716667
0.300000 0.500000 0.350000 0.714286 0.716667
-0.350000 -0.500000 0.350000 0.150000 0.000000
-0.300000 -0.500000 0.350000 0.200000 0.000000
0.300000 0.500000 -0.500000 0.800000 1.000000
-0.300000 0.500000 0.500000 0.200000 1.000000
0.500000 0.500000 0.300000 0.800000 1.000000
-0.500000 0.500000 -0.300000 0.200000 1.000000
-0.350000 -0.500000 0.350000 0.853516 0.150391
-0.350000 0.500000 -0.350000 0.150391 0.150391
-0.500000 0.500000 -0.300000 0.000000 1.000000
0.500000 -0.500000 -0.300000 1.000000 0.000000
0.350000 0.500000 0.300000 0.850000 1.000000
-0.350000 -0.500000 0.300000 0.150000 0.000000
0.500000 -0.500000 0.300000 0.798828 0.998047
-0.350000 -0.500000 -0.300000 0.201172 0.150391
0.500000 0.500000 -0.300000 0.201172 0.998047
-0.500000 0.500000 0.300000 0.798828 0.001953
0.350000 0.500000 0.300000 0.800000 1.000000
0.350000 0.500000 0.350000 0.850000 1.000000
0.350000 0.500000 -0.350000 0.150000 1.000000
0.350000 0.500000 -0.300000 0.200000 1.000000
0.350000 -0.500000 -0.300000 0.200000 0.000000
-0.350000 0.500000 -0.300000 0.200000 1.000000
-0.350000 0.500000 -0.350000 0.150000 1.000000
-0.350000 0.500000 0.350000 0.850000 1.000000
-0.350000 0.500000 0.300000 0.800000 1.000000
-0.350000 -0.500000 0.300000 0.800000 0.000000
-0.300000 0.500000 0.350000 0.850000 1.000000
-0.300000 -0.500000 -0.350000 0.150000 0.000000
0.300000 0.500000 -0.500000 0.000000 1.000000
0.300000 -0.500000 0.500000 1.000000 0.000000
0.300000 -0.500000 -0.350000 0.150391 0.798828
-0.300000 -0.500000 0.500000 1.001953 0.201172
-0.300000 0.500000 -0.350000 0.150391 0.201172
0.300000 0.500000 0.500000 1.001953 0.798828
0.350000 0.500000 -0.350000 0.750000 0.716667
0.300000 0.500000 -0.350000 0.800000 1.000000
0.350000 0.500000 -0.350000 0.850000 1.000000
-0.300000 0.500000 -0.350000 0.200000 1.000000
-0.300000 -0.500000 -0.350000 0.200000 0.000000
-0.350000 0.500000 0.350000 0.250000 0.716667
-0.300000 0.500000 0.350000 0.200000 1.000000
-0.350000 0.500000 0.350000 0.150000 1.000000
0.300000 0.500000 0.350000 0.800000 1.000000
0.300000 -0.500000 0.350000 0.800000 0.000000
3 0 1 2
3 3 4 5
3 6 7 8
3 9 10 11
3 12 13 14
3 15 16 17
3 18 19 20
3 21 22 23
3 24 25 26
3 27 28 29
3 30 31 32
3 33 34 35
3 36 37 38
3 39 40 41
3 42 43 44
3 45 46 47
3 48 49 50
3 51 52 53
3 54 55 56
3 57 58 59
3 60 61 62
3 63 64 65
3 66 67 68
3 69 70 71
3 72 73 74
3 75 76 77
3 78 79 80
3 81 51 82
3 83 84 85
3 86 45 87
3 0 88 1
3 3 89 4
3 6 90 7
3 9 91 10
3 12 92 13
3 15 93 16
3 18 94 19
3 21 95 22
3 24 96 25
3 27 97 28
3 30 98 31
3 33 99 34
3 36 100 37
3 39 101 40
3 42 83 43
3 102 103 45
3 46 104 105
3 46 105 106
3 47 102 45
3 46 106 47
3 48 78 49
3 107 108 51
3 52 109 110
3 52 110 111
3 53 107 51
3 52 111 53
3 54 112 55
3 57 113 58
3 60 114 61
3 63 115 64
3 66 116 67
3 69 117 70
3 72 118 73
3 75 119 76
3 78 120 79
3 121 122 81
3 51 108 123
3 51 123 124
3 82 121 81
3 51 124 82
3 83 125 84
3 126 127 86
3 45 103 128
3 45 128 129
3 87 126 86
3 45 129 87
