ply
format ascii 1.0
comment Created by Blender 2.79 (sub 0) - www.blender.org, source file: 'forge.blend'
element vertex 263
property float x
property float y
property float z
property float s
property float t
property uchar red
property uchar green
property uchar blue
element face 112
property list uchar uint vertex_indices
end_header
1.193959 -0.497963 -0.622594 0.998142 0.707294 59 59 59
0.769758 -0.495889 -0.978542 0.999179 0.430416 59 59 59
0.769758 -0.518768 -0.978542 0.987740 0.430416 59 59 59
0.792377 -0.663734 -0.959561 0.915257 0.445179 59 59 59
1.092076 -1.027506 -0.636095 0.384820 0.733370 59 59 59
1.377030 -1.027506 -0.975689 0.606474 0.733370 59 59 59
1.377030 -0.951241 -0.975689 0.606474 0.771503 59 59 59
1.092076 -0.951241 -0.636094 0.384820 0.771503 59 59 59
1.227083 -0.617705 -1.019449 0.938271 0.592434 59 59 59
1.175108 -0.752077 -1.003794 0.871085 0.577558 59 59 59
0.979497 -0.752077 -1.167932 0.871085 0.449881 59 59 59
1.003867 -0.666645 -1.206749 0.913801 0.446740 59 59 59
0.666434 -1.027506 -0.988182 0.733370 0.387742 59 59 59
0.667142 -0.951241 -0.987589 0.771503 0.388204 59 59 59
0.616471 -0.951241 -1.030107 0.771503 0.355130 59 59 59
0.616471 -1.027506 -1.030106 0.733370 0.355131 59 59 59
1.019379 -0.617705 -0.769085 0.412393 0.593344 59 59 59
1.227083 -0.617705 -1.019449 0.575043 0.592434 59 59 59
1.401663 -0.579924 -0.872958 0.575043 0.706383 59 59 59
1.193959 -0.579924 -0.622594 0.412393 0.707294 59 59 59
1.226015 -0.951241 -0.981821 0.771503 0.604119 59 59 59
0.950964 -0.951241 -1.212616 0.771503 0.424591 59 59 59
0.790039 -1.027506 -1.018205 0.733370 0.425436 59 59 59
1.052342 -1.027506 -0.798107 0.733370 0.596642 59 59 59
1.054083 -0.951241 -0.796646 0.771503 0.597778 59 59 59
0.790244 -0.951241 -1.018033 0.771503 0.425570 59 59 59
1.193959 -0.497963 -0.622594 0.412393 0.707294 59 59 59
1.401663 -0.497963 -0.872958 0.575043 0.706383 59 59 59
0.980649 -0.495889 -1.226231 0.575043 0.431586 59 59 59
0.769758 -0.495889 -0.978542 0.412393 0.430416 59 59 59
1.401663 -0.497963 -0.872958 0.998142 0.706383 59 59 59
1.401663 -0.579924 -0.872958 0.957161 0.706383 59 59 59
1.227083 -0.617705 -1.019449 0.938271 0.592434 59 59 59
1.350511 -1.027506 -0.997941 0.733370 0.646622 59 59 59
1.349426 -0.951241 -0.998851 0.771503 0.645914 59 59 59
1.377030 -0.951241 -0.975689 0.771503 0.663931 59 59 59
1.377030 -1.027506 -0.975689 0.733370 0.663931 59 59 59
1.226235 -1.027506 -0.981636 0.560287 0.733370 59 59 59
1.226015 -0.951241 -0.981821 0.560287 0.771503 59 59 59
1.349426 -0.951241 -0.998851 0.606474 0.771503 59 59 59
1.350511 -1.027506 -0.997941 0.606474 0.733370 59 59 59
1.025769 -0.752077 -0.822989 0.435094 0.871085 59 59 59
1.175108 -0.752077 -1.003794 0.552343 0.871085 59 59 59
1.227083 -0.617705 -1.019449 0.575043 0.938271 59 59 59
1.019379 -0.617705 -0.769085 0.412393 0.938271 59 59 59
0.826971 -0.752077 -0.989800 0.435094 0.871085 59 59 59
0.792377 -0.663734 -0.959561 0.412393 0.915257 59 59 59
1.003867 -0.666645 -1.206749 0.575043 0.913801 59 59 59
0.979497 -0.752077 -1.167932 0.552343 0.871085 59 59 59
0.980649 -0.518768 -1.226231 0.575043 0.431586 59 59 59
0.877232 -0.518768 -1.285366 0.564455 0.372969 59 59 59
0.654197 -0.520563 -1.347438 0.516548 0.267593 59 59 59
0.603545 -0.520563 -1.290714 0.478542 0.266422 59 59 59
0.694325 -0.518768 -1.071028 0.423574 0.371799 59 59 59
0.769758 -0.518768 -0.978542 0.412393 0.430416 59 59 59
0.603545 -0.520563 -1.290714 0.986842 0.266422 59 59 59
0.604365 -0.539148 -1.290026 0.977549 0.266957 59 59 59
0.694325 -0.600462 -1.071028 0.946892 0.371799 59 59 59
0.694325 -0.518768 -1.071028 0.987740 0.371799 59 59 59
0.900501 -1.027506 -1.368600 0.733370 0.355131 59 59 59
0.900501 -0.951241 -1.368600 0.771503 0.355131 59 59 59
0.953530 -0.951241 -1.324104 0.771503 0.389743 59 59 59
0.953882 -1.027506 -1.323809 0.733370 0.389973 59 59 59
1.066493 -0.951241 -0.657561 0.384820 0.647233 59 59 59
1.092076 -0.951241 -0.636094 0.384820 0.663931 59 59 59
1.377030 -0.951241 -0.975689 0.606474 0.663931 59 59 59
1.349426 -0.951241 -0.998851 0.606474 0.645914 59 59 59
1.226015 -0.951241 -0.981821 0.560287 0.604119 59 59 59
1.054083 -0.951241 -0.796646 0.434103 0.597778 59 59 59
0.953530 -0.951241 -1.324104 0.603814 0.389743 59 59 59
0.900501 -0.951241 -1.368600 0.603814 0.355131 59 59 59
0.616471 -0.951241 -1.030107 0.382878 0.355130 59 59 59
0.667142 -0.951241 -0.987589 0.382878 0.388204 59 59 59
0.790244 -0.951241 -1.018033 0.434103 0.425570 59 59 59
0.950964 -0.951241 -1.212616 0.560287 0.424591 59 59 59
0.604365 -0.539148 -1.290026 0.478542 0.977549 59 59 59
0.603545 -0.520563 -1.290714 0.478542 0.986842 59 59 59
0.654197 -0.520563 -1.347438 0.516548 0.986842 59 59 59
0.655615 -0.539146 -1.346248 0.516548 0.977551 59 59 59
0.826971 -0.752077 -0.989800 0.871085 0.448711 59 59 59
1.025769 -0.752077 -0.822989 0.871085 0.578467 59 59 59
0.790039 -1.027506 -1.018205 0.434103 0.733370 59 59 59
0.790244 -0.951241 -1.018033 0.434103 0.771503 59 59 59
0.667142 -0.951241 -0.987589 0.382878 0.771503 59 59 59
0.666434 -1.027506 -0.988182 0.382878 0.733370 59 59 59
0.953882 -1.027506 -1.323809 0.603814 0.733370 59 59 59
0.953530 -0.951241 -1.324104 0.603814 0.771503 59 59 59
0.950964 -0.951241 -1.212616 0.560287 0.771503 59 59 59
0.951696 -1.027506 -1.212002 0.560287 0.733370 59 59 59
1.092076 -1.027506 -0.636095 0.733370 0.663931 59 59 59
1.092076 -0.951241 -0.636094 0.771503 0.663931 59 59 59
1.066493 -0.951241 -0.657561 0.771503 0.647233 59 59 59
1.066010 -1.027506 -0.657967 0.733370 0.646918 59 59 59
0.717491 -0.646979 -1.051589 0.923634 0.386919 59 59 59
0.769758 -0.518768 -0.978542 0.412393 0.987740 59 59 59
0.769758 -0.495889 -0.978542 0.412393 0.999179 59 59 59
0.980649 -0.495889 -1.226231 0.575043 0.999179 59 59 59
0.980649 -0.518768 -1.226231 0.575043 0.987740 59 59 59
0.877232 -0.518768 -1.285366 0.987740 0.372969 59 59 59
0.877232 -0.600462 -1.285366 0.946892 0.372969 59 59 59
0.655615 -0.539146 -1.346248 0.977551 0.268518 59 59 59
0.654197 -0.520563 -1.347438 0.986842 0.267593 59 59 59
1.226235 -1.027506 -0.981636 0.733370 0.604262 59 59 59
0.951696 -1.027506 -1.212002 0.733370 0.425069 59 59 59
0.717491 -0.646979 -1.051589 0.423574 0.386919 59 59 59
0.604365 -0.539148 -1.290026 0.478542 0.266957 59 59 59
0.655615 -0.539146 -1.346248 0.516548 0.268518 59 59 59
0.900997 -0.649891 -1.265425 0.564455 0.388480 59 59 59
0.792377 -0.663734 -0.959561 0.412393 0.445179 59 59 59
1.003867 -0.666645 -1.206749 0.575043 0.446740 59 59 59
0.616471 -0.951241 -1.030107 0.382878 0.771503 59 59 59
0.900501 -0.951241 -1.368600 0.603814 0.771503 59 59 59
0.900501 -1.027506 -1.368600 0.603814 0.733370 59 59 59
0.616471 -1.027506 -1.030106 0.382878 0.733370 59 59 59
1.401663 -0.579924 -0.872958 0.575043 0.957161 59 59 59
1.401663 -0.497963 -0.872958 0.575043 0.998142 59 59 59
1.193959 -0.497963 -0.622594 0.412393 0.998142 59 59 59
1.193959 -0.579924 -0.622594 0.412393 0.957161 59 59 59
1.054083 -0.951241 -0.796646 0.434103 0.771503 59 59 59
0.900997 -0.649891 -1.265425 0.922178 0.388480 59 59 59
0.655615 -0.539146 -1.346248 0.977551 0.268518 59 59 59
1.401663 -0.497963 -0.872958 0.998142 0.706383 59 59 59
0.980649 -0.518768 -1.226231 0.987740 0.431586 59 59 59
0.980649 -0.495889 -1.226231 0.999179 0.431586 59 59 59
1.401663 -0.497963 -0.872958 0.998142 0.706383 59 59 59
1.193959 -0.579924 -0.622594 0.957161 0.707294 59 59 59
0.792377 -0.663734 -0.959561 0.915257 0.445179 59 59 59
1.019379 -0.617705 -0.769085 0.938271 0.593344 59 59 59
1.442836 -0.480922 0.935248 0.998142 0.207294 59 59 59
0.963269 -0.478848 1.212126 0.999179 -0.069584 59 59 59
0.963269 -0.501727 1.212126 0.987739 -0.069584 59 59 59
0.988841 -0.646693 1.197362 0.915256 -0.054821 59 59 59
1.173649 -0.934200 0.642452 0.606474 0.771503 59 59 59
1.395304 -0.934200 1.026369 0.384820 0.771503 59 59 59
1.395304 -1.010465 1.026369 0.384820 0.733370 59 59 59
1.173649 -1.010465 0.642452 0.606474 0.733370 59 59 59
1.081244 -0.600664 0.768390 0.938271 0.092434 59 59 59
1.078177 -0.735036 0.822584 0.871085 0.077558 59 59 59
0.857036 -0.735036 0.950260 0.871085 -0.050118 59 59 59
0.828895 -0.649604 0.914084 0.913801 -0.053260 59 59 59
0.918872 -1.010465 1.305921 0.733370 0.887742 59 59 59
0.919671 -0.934200 1.305459 0.771503 0.888204 59 59 59
0.862387 -0.934200 1.338532 0.771503 0.855130 59 59 59
0.862388 -1.010465 1.338532 0.733370 0.855131 59 59 59
1.245470 -0.600664 1.049197 0.412393 0.093344 59 59 59
1.081244 -0.600664 0.768390 0.575043 0.092434 59 59 59
1.278610 -0.562883 0.654441 0.575043 0.206383 59 59 59
1.442836 -0.562883 0.935248 0.412393 0.207294 59 59 59
1.116238 -0.934200 0.782262 0.771503 0.104118 59 59 59
0.805288 -0.934200 0.961789 0.771503 -0.075408 59 59 59
0.932934 -1.010465 1.179502 0.733370 0.925436 59 59 59
1.229472 -1.010465 1.008296 0.733370 1.096642 59 59 59
1.231440 -0.934200 1.007159 0.771503 1.097779 59 59 59
0.933166 -0.934200 1.179368 0.771503 0.925570 59 59 59
1.442836 -0.480922 0.935248 0.412393 0.207294 59 59 59
1.278610 -0.480922 0.654441 0.575043 0.206383 59 59 59
0.802647 -0.478848 0.929238 0.575043 -0.068414 59 59 59
0.963269 -0.478848 1.212126 0.412393 -0.069584 59 59 59
1.278610 -0.480922 0.654441 0.998142 0.206383 59 59 59
1.278610 -0.562883 0.654441 0.957161 0.206383 59 59 59
1.081244 -0.600664 0.768390 0.938271 0.092434 59 59 59
1.143669 -1.010465 0.659762 0.733370 0.146622 59 59 59
1.142443 -0.934200 0.660470 0.771503 0.145914 59 59 59
1.173649 -0.934200 0.642452 0.771503 0.163931 59 59 59
1.173649 -1.010465 0.642452 0.733370 0.163931 59 59 59
1.116486 -1.010465 0.782119 0.560287 0.733370 59 59 59
1.116238 -0.934200 0.782262 0.560287 0.771503 59 59 59
1.142443 -0.934200 0.660470 0.606474 0.771503 59 59 59
1.143669 -1.010465 0.659762 0.606474 0.733370 59 59 59
1.197003 -0.735036 1.024756 0.435094 0.871085 59 59 59
1.078177 -0.735036 0.822584 0.552343 0.871085 59 59 59
1.081244 -0.600664 0.768390 0.575043 0.938271 59 59 59
1.245470 -0.600664 1.049197 0.412393 0.938271 59 59 59
0.972258 -0.735036 1.154512 0.435094 0.871085 59 59 59
0.988841 -0.646693 1.197362 0.412393 0.915256 59 59 59
0.828895 -0.649604 0.914084 0.575043 0.913801 59 59 59
0.857036 -0.735036 0.950260 0.552343 0.871085 59 59 59
0.802647 -0.501727 0.929238 0.575043 0.931586 59 59 59
0.711707 -0.501727 1.006193 0.564455 0.872969 59 59 59
0.577097 -0.503522 1.194547 0.516548 0.767593 59 59 59
0.613075 -0.503522 1.261545 0.478542 0.766422 59 59 59
0.850561 -0.501727 1.251377 0.423574 0.871799 59 59 59
0.963269 -0.501727 1.212126 0.412393 0.930416 59 59 59
0.613075 -0.503522 1.261545 0.986842 0.766422 59 59 59
0.614002 -0.522107 1.261010 0.977549 0.766957 59 59 59
0.850561 -0.583421 1.251377 0.946892 0.871799 59 59 59
0.850561 -0.501727 1.251377 0.987739 0.871799 59 59 59
0.641452 -1.010465 0.955859 0.733370 0.855131 59 59 59
0.641451 -0.934200 0.955859 0.771503 0.855131 59 59 59
0.701401 -0.934200 0.921247 0.771503 0.889743 59 59 59
0.701799 -1.010465 0.921017 0.733370 0.889972 59 59 59
1.366382 -0.934200 1.043067 0.384820 0.147233 59 59 59
1.395304 -0.934200 1.026369 0.384820 0.163931 59 59 59
1.173649 -0.934200 0.642452 0.606474 0.163931 59 59 59
1.142443 -0.934200 0.660470 0.606474 0.145914 59 59 59
1.116238 -0.934200 0.782262 0.560287 0.104118 59 59 59
1.231440 -0.934200 1.007159 0.434103 0.097779 59 59 59
0.701401 -0.934200 0.921247 0.603814 0.889743 59 59 59
0.641451 -0.934200 0.955859 0.603814 0.855131 59 59 59
0.862387 -0.934200 1.338532 0.382878 0.855130 59 59 59
0.919671 -0.934200 1.305459 0.382878 0.888204 59 59 59
0.933166 -0.934200 1.179368 0.434103 0.925570 59 59 59
0.805288 -0.934200 0.961789 0.560287 0.924592 59 59 59
0.614002 -0.522107 1.261010 0.478542 0.977549 59 59 59
0.613075 -0.503522 1.261545 0.478542 0.986842 59 59 59
0.577097 -0.503522 1.194547 0.516548 0.986842 59 59 59
0.578700 -0.522105 1.193621 0.516548 0.977550 59 59 59
0.972258 -0.735036 1.154512 0.871085 0.948711 59 59 59
1.197003 -0.735036 1.024756 0.871085 1.078467 59 59 59
0.932934 -1.010465 1.179502 0.434103 0.733370 59 59 59
0.933166 -0.934200 1.179368 0.434103 0.771503 59 59 59
0.919671 -0.934200 1.305459 0.382878 0.771503 59 59 59
0.918872 -1.010465 1.305921 0.382878 0.733370 59 59 59
0.701799 -1.010465 0.921017 0.603814 0.733370 59 59 59
0.701401 -0.934200 0.921247 0.603814 0.771503 59 59 59
0.805288 -0.934200 0.961789 0.560287 0.771503 59 59 59
0.806115 -1.010465 0.961312 0.560287 0.733370 59 59 59
1.395304 -1.010465 1.026369 0.733370 0.163931 59 59 59
1.395304 -0.934200 1.026369 0.771503 0.163931 59 59 59
1.366382 -0.934200 1.043067 0.771503 0.147233 59 59 59
1.365836 -1.010465 1.043383 0.733370 0.146917 59 59 59
0.988841 -0.646693 1.197362 0.915256 0.945179 59 59 59
0.963269 -0.501727 1.212126 0.987739 0.930416 59 59 59
0.876752 -0.629938 1.236256 0.923634 0.886919 59 59 59
0.963269 -0.501727 1.212126 0.412393 0.987739 59 59 59
0.963269 -0.478848 1.212126 0.412393 0.999179 59 59 59
0.802647 -0.478848 0.929238 0.575043 0.999179 59 59 59
0.802647 -0.501727 0.929238 0.575043 0.987739 59 59 59
0.711707 -0.501727 1.006193 0.987739 0.872969 59 59 59
0.711707 -0.583421 1.006193 0.946892 0.872969 59 59 59
0.578700 -0.522105 1.193621 0.977550 0.768518 59 59 59
0.577097 -0.503522 1.194547 0.986842 0.767593 59 59 59
1.116486 -1.010465 0.782119 0.733370 0.104262 59 59 59
0.806115 -1.010465 0.961312 0.733370 -0.074931 59 59 59
0.876752 -0.629938 1.236256 0.423574 0.886919 59 59 59
0.614002 -0.522107 1.261010 0.478542 0.766957 59 59 59
0.578700 -0.522105 1.193621 0.516548 0.768518 59 59 59
0.738574 -0.632850 0.990682 0.564455 0.888481 59 59 59
1.231440 -0.934200 1.007159 0.771503 0.097779 59 59 59
1.229472 -1.010465 1.008296 0.733370 0.096642 59 59 59
0.988841 -0.646693 1.197362 0.412393 0.945179 59 59 59
0.828895 -0.649604 0.914084 0.575043 0.946740 59 59 59
0.862387 -0.934200 1.338532 0.382878 0.771503 59 59 59
0.641451 -0.934200 0.955859 0.603814 0.771503 59 59 59
0.641452 -1.010465 0.955859 0.603814 0.733370 59 59 59
0.862388 -1.010465 1.338532 0.382878 0.733370 59 59 59
1.278610 -0.562883 0.654441 0.575043 0.957161 59 59 59
1.278610 -0.480922 0.654441 0.575043 0.998142 59 59 59
1.442836 -0.480922 0.935248 0.412393 0.998142 59 59 59
1.442836 -0.562883 0.935248 0.412393 0.957161 59 59 59
1.231440 -0.934200 1.007159 0.434103 0.771503 59 59 59
0.738574 -0.632850 0.990682 0.922178 0.888481 59 59 59
0.578700 -0.522105 1.193621 0.977550 0.768518 59 59 59
1.278610 -0.480922 0.654441 0.998142 1.206383 59 59 59
0.828895 -0.649604 0.914084 0.913801 0.946740 59 59 59
0.802647 -0.501727 0.929238 0.987739 0.931586 59 59 59
0.802647 -0.478848 0.929238 0.999179 0.931586 59 59 59
1.278610 -0.480922 0.654441 0.998142 1.206383 59 59 59
1.442836 -0.562883 0.935248 0.957161 0.207294 59 59 59
0.988841 -0.646693 1.197362 0.915256 -0.054821 59 59 59
0.972258 -0.735036 1.154512 0.871085 -0.051289 59 59 59
1.197003 -0.735036 1.024756 0.871085 0.078467 59 59 59
1.245470 -0.600664 1.049197 0.938271 0.093344 59 59 59
4 0 1 2 3
4 4 5 6 7
4 8 9 10 11
4 12 13 14 15
4 16 17 18 19
4 9 20 21 10
4 22 23 24 25
4 26 27 28 29
4 30 31 32 11
4 33 34 35 36
4 37 38 39 40
4 41 42 43 44
4 45 46 47 48
3 49 50 51
3 51 52 53
3 53 54 49
3 51 53 49
4 55 56 57 58
4 59 60 61 62
3 63 64 65
3 65 66 67
3 67 68 63
3 65 67 63
3 69 70 71
3 71 72 73
3 73 74 69
3 71 73 69
4 75 76 77 78
4 79 25 24 80
4 81 82 83 84
4 85 86 87 88
4 89 90 91 92
3 3 2 58
3 58 57 93
3 58 93 3
4 94 95 96 97
3 57 56 93
4 98 99 100 101
4 102 103 21 20
4 104 105 106 107
4 45 48 87 82
4 92 91 24 23
4 108 104 107 109
4 110 111 112 113
4 114 115 116 117
4 38 42 41 118
3 99 119 120
3 121 11 119
3 119 99 98
3 122 121 119
3 119 98 122
3 122 123 124
3 125 0 126
3 126 79 80
3 127 125 126
3 126 80 127
4 128 129 130 131
4 132 133 134 135
4 136 137 138 139
4 140 141 142 143
4 144 145 146 147
4 137 148 149 138
4 150 151 152 153
4 154 155 156 157
4 158 159 160 139
4 161 162 163 164
4 165 166 167 168
4 169 170 171 172
4 173 174 175 176
3 177 178 179
3 179 180 181
3 181 182 177
3 179 181 177
4 183 184 185 186
4 187 188 189 190
3 191 192 193
3 193 194 195
3 195 196 191
3 193 195 191
3 197 198 199
3 199 200 201
3 201 202 197
3 199 201 197
4 203 204 205 206
4 207 153 152 208
4 209 210 211 212
4 213 214 215 216
4 217 218 219 220
3 221 222 186
3 186 185 223
3 186 223 221
4 224 225 226 227
3 185 184 223
4 228 229 230 231
4 232 233 149 148
4 234 235 236 237
4 173 176 215 210
4 220 219 238 239
4 240 234 237 241
4 242 243 244 245
4 246 247 248 249
4 166 170 169 250
3 229 251 252
3 253 254 251
3 251 229 228
3 255 253 251
3 251 228 255
3 255 256 257
3 258 128 259
3 259 260 261
3 262 258 259
3 259 261 262
