ply
format ascii 1.0
comment Created by Blender 2.79 (sub 0) - www.blender.org, source file: 'brewer.blend'
element vertex 615
property float x
property float y
property float z
property float s
property float t
property uchar red
property uchar green
property uchar blue
element face 617
property list uchar uint vertex_indices
end_header
0.043740 0.310001 -0.349136 0.000000 0.000000 0 255 0
0.042094 0.318834 -0.335737 0.000000 0.000000 0 255 0
0.143597 0.318834 -0.306632 0.000000 0.000000 0 255 0
0.149303 0.310001 -0.318867 0.000000 0.000000 0 255 0
-0.068597 -0.465000 -0.251580 0.269348 0.024058 255 255 255
-0.068597 -0.441614 -0.251580 0.268934 0.047351 255 255 255
-0.116194 -0.441614 -0.233190 0.335402 0.048418 255 255 255
-0.116194 -0.465000 -0.233190 0.336045 0.025125 255 255 255
0.255862 -0.008660 0.236944 0.000000 0.000000 0 255 0
0.265541 -0.000000 0.245970 0.000000 0.000000 0 255 0
0.176350 -0.000000 0.315654 0.000000 0.000000 0 255 0
0.169934 -0.008660 0.304078 0.000000 0.000000 0 255 0
-0.245869 0.318834 -0.230927 0.000000 0.000000 0 255 0
-0.304915 0.318834 -0.143386 0.000000 0.000000 0 255 0
-0.304915 0.301167 -0.143386 0.000000 0.000000 0 255 0
-0.245869 0.301167 -0.230927 0.000000 0.000000 0 255 0
-0.315443 -0.000000 0.174634 0.000000 0.000000 0 255 0
-0.303867 0.008660 0.168218 0.000000 0.000000 0 255 0
-0.341163 0.008660 0.065750 0.000000 0.000000 0 255 0
-0.354155 -0.000000 0.068275 0.000000 0.000000 0 255 0
0.360032 -0.000000 0.043335 0.000000 0.000000 0 255 0
0.346895 0.008660 0.041722 0.000000 0.000000 0 255 0
0.316838 0.008660 0.146542 0.000000 0.000000 0 255 0
0.328834 -0.000000 0.152136 0.000000 0.000000 0 255 0
0.306842 0.301167 0.141881 0.000000 0.000000 0 255 0
0.335948 0.301167 0.040378 0.000000 0.000000 0 255 0
0.349347 0.310001 0.042023 0.000000 0.000000 0 255 0
0.319077 0.310001 0.147586 0.000000 0.000000 0 255 0
0.153852 -0.000000 -0.328623 0.000000 0.000000 0 255 0
0.045051 -0.000000 -0.359821 0.000000 0.000000 0 255 0
0.043439 0.008660 -0.346684 0.000000 0.000000 0 255 0
0.148258 0.008660 -0.316628 0.000000 0.000000 0 255 0
-0.041813 -0.310001 0.347631 0.000000 0.000000 0 255 0
-0.040167 -0.301168 0.334232 0.000000 0.000000 0 255 0
-0.141670 -0.301168 0.305126 0.000000 0.000000 0 255 0
-0.147376 -0.310001 0.317361 0.000000 0.000000 0 255 0
-0.230548 0.309017 0.247513 0.926628 0.821184 255 255 255
-0.206477 0.500000 0.221700 0.920036 1.010014 255 255 255
-0.265066 0.500000 0.146710 0.816141 1.006281 255 255 255
-0.295935 0.309017 0.163821 0.824583 0.817019 255 255 255
0.065362 -0.318835 0.330546 0.000000 0.000000 0 255 0
0.067937 -0.310001 0.343798 0.000000 0.000000 0 255 0
-0.040167 -0.318834 0.334232 0.000000 0.000000 0 255 0
0.349347 -0.310001 0.042023 0.000000 0.000000 0 255 0
0.335948 -0.318834 0.040378 0.000000 0.000000 0 255 0
0.332263 -0.318834 -0.065151 0.000000 0.000000 0 255 0
0.345515 -0.310001 -0.067727 0.000000 0.000000 0 255 0
0.206078 0.441614 -0.161006 -0.096726 0.931070 255 255 255
0.206078 0.465000 -0.161006 -0.095929 0.954363 255 255 255
0.170873 0.465000 -0.197942 -0.036827 0.952540 255 255 255
0.170873 0.441614 -0.197942 -0.037464 0.929247 255 255 255
-0.257390 0.441614 -0.032475 0.613921 0.938847 255 255 255
-0.257390 0.465000 -0.032475 0.612790 0.962140 255 255 255
-0.258615 0.465000 0.018537 0.674824 0.964780 255 255 255
-0.258615 0.441614 0.018537 0.675982 0.941487 255 255 255
-0.040406 0.309017 0.336177 1.133047 0.825302 255 255 255
-0.036105 0.500000 0.301146 1.132263 1.013703 255 255 255
-0.127583 0.500000 0.274915 1.025624 1.012571 255 255 255
-0.142499 0.309017 0.306903 1.029565 0.824039 255 255 255
0.356082 -0.000000 -0.069781 0.000000 0.000000 0 255 0
0.343089 0.008660 -0.067255 0.000000 0.000000 0 255 0
-0.345493 -0.000000 0.066591 0.735078 0.504328 255 255 255
-0.307726 -0.000000 0.170356 0.834712 0.509599 255 255 255
-0.332260 0.309017 0.064019 0.723641 0.811949 255 255 255
-0.066011 0.310001 -0.345304 0.000000 0.000000 0 255 0
-0.063435 0.318834 -0.332052 0.000000 0.000000 0 255 0
0.164587 0.301167 0.294432 0.000000 0.000000 0 255 0
0.171131 0.310001 0.306239 0.000000 0.000000 0 255 0
0.067937 0.310001 0.343798 0.000000 0.000000 0 255 0
0.065362 0.301167 0.330546 0.000000 0.000000 0 255 0
-0.163610 -0.309017 -0.297651 0.342822 0.177271 255 255 255
-0.170146 -0.000000 -0.309442 0.336479 0.484463 255 255 255
-0.066381 -0.000000 -0.347209 0.236700 0.482257 255 255 255
-0.063809 -0.309017 -0.333976 0.239575 0.175149 255 255 255
-0.358105 -0.000000 -0.044841 0.000000 0.000000 0 255 0
-0.344968 0.008660 -0.043228 0.000000 0.000000 0 255 0
-0.314912 0.008660 -0.148048 0.000000 0.000000 0 255 0
-0.326907 -0.000000 -0.153641 0.000000 0.000000 0 255 0
0.255862 0.008660 0.236944 0.000000 0.000000 0 255 0
0.169934 0.008660 0.304078 0.000000 0.000000 0 255 0
-0.041512 -0.008660 0.345179 0.000000 0.000000 0 255 0
-0.043125 -0.000000 0.358315 0.000000 0.000000 0 255 0
-0.151925 -0.000000 0.327117 0.000000 0.000000 0 255 0
-0.146331 -0.008660 0.315122 0.000000 0.000000 0 255 0
-0.196226 -0.465000 -0.170663 0.467535 0.028553 255 255 255
-0.196226 -0.441614 -0.170663 0.466546 0.051845 255 255 255
-0.225585 -0.441614 -0.128928 0.530971 0.054074 255 255 255
-0.225585 -0.465000 -0.128928 0.532064 0.030782 255 255 255
0.118121 0.441614 0.231684 -0.661660 0.951582 255 255 255
0.118121 0.465000 0.231684 -0.661017 0.974875 255 255 255
0.161216 0.465000 0.204362 -0.594902 0.973357 255 255 255
0.161216 0.441614 0.204362 -0.595740 0.950064 255 255 255
0.164587 -0.318835 0.294432 0.000000 0.000000 0 255 0
0.171131 -0.310001 0.306239 0.000000 0.000000 0 255 0
0.247795 0.301167 0.229422 0.000000 0.000000 0 255 0
0.257668 0.310001 0.238629 0.000000 0.000000 0 255 0
-0.204151 -0.465000 0.159500 0.901133 0.045637 255 255 255
-0.204151 -0.441614 0.159500 0.900336 0.068930 255 255 255
-0.168946 -0.441614 0.196437 0.959598 0.070753 255 255 255
-0.168946 -0.465000 0.196437 0.960235 0.047460 255 255 255
0.042094 0.301167 -0.335737 0.000000 0.000000 0 255 0
0.143597 0.301167 -0.306632 0.000000 0.000000 0 255 0
0.231138 0.301167 -0.247585 0.000000 0.000000 0 255 0
0.231138 0.318834 -0.247585 0.000000 0.000000 0 255 0
0.343089 -0.008660 -0.067255 0.000000 0.000000 0 255 0
0.346895 -0.008660 0.041722 0.000000 0.000000 0 255 0
0.345515 0.310001 -0.067727 0.000000 0.000000 0 255 0
0.332263 0.318834 -0.065151 0.000000 0.000000 0 255 0
0.335948 0.318834 0.040378 0.000000 0.000000 0 255 0
-0.306692 0.309017 -0.144215 0.525207 0.801124 255 255 255
-0.274704 0.500000 -0.129299 0.516851 0.992039 255 255 255
-0.221490 0.500000 -0.208193 0.420782 0.987831 255 255 255
-0.247302 0.309017 -0.232264 0.427498 0.796427 255 255 255
-0.169205 -0.310001 -0.307744 0.000000 0.000000 0 255 0
-0.255742 -0.310001 -0.240134 0.000000 0.000000 0 255 0
-0.245869 -0.301168 -0.230927 0.000000 0.000000 0 255 0
-0.162660 -0.301168 -0.295937 0.000000 0.000000 0 255 0
0.296148 -0.318834 -0.164376 0.000000 0.000000 0 255 0
0.307955 -0.310001 -0.170921 0.000000 0.000000 0 255 0
-0.162660 0.301167 -0.295937 0.000000 0.000000 0 255 0
-0.169205 0.310001 -0.307744 0.000000 0.000000 0 255 0
-0.063435 0.301167 -0.332052 0.000000 0.000000 0 255 0
0.240345 0.310001 -0.257458 0.000000 0.000000 0 255 0
0.316838 -0.008660 0.146542 0.000000 0.000000 0 255 0
-0.236733 0.008660 0.254145 0.000000 0.000000 0 255 0
-0.236733 -0.008660 0.254145 0.000000 0.000000 0 255 0
-0.303867 -0.008660 0.168218 0.000000 0.000000 0 255 0
-0.127583 -0.500000 0.274915 1.041701 0.016555 255 255 255
-0.142499 -0.309017 0.306903 1.038446 0.208467 255 255 255
-0.230548 -0.309017 0.247513 0.941753 0.205612 255 255 255
-0.206477 -0.500000 0.221700 0.947385 0.013997 255 255 255
0.065362 -0.301168 0.330546 0.000000 0.000000 0 255 0
0.069992 -0.000000 0.354365 0.000000 0.000000 0 255 0
0.067466 0.008660 0.341373 0.000000 0.000000 0 255 0
0.082478 0.441614 -0.247954 0.079992 0.926878 255 255 255
0.082478 0.465000 -0.247954 0.080263 0.950171 255 255 255
0.032685 0.465000 -0.259107 0.138494 0.949717 255 255 255
0.032685 0.441614 -0.259107 0.138419 0.926424 255 255 255
0.164587 -0.301168 0.294432 0.000000 0.000000 0 255 0
-0.306692 -0.309017 -0.144215 0.546812 0.185552 255 255 255
-0.318910 -0.000000 -0.149912 0.535859 0.493073 255 255 255
-0.257161 -0.000000 -0.241458 0.436200 0.488190 255 255 255
-0.247302 -0.309017 -0.232264 0.445327 0.180855 255 255 255
-0.263615 -0.000000 -0.247476 0.000000 0.000000 0 255 0
-0.253935 0.008660 -0.238449 0.000000 0.000000 0 255 0
0.127276 -0.500000 0.227121 -0.672731 0.013461 255 255 255
0.191510 -0.500000 0.176935 -0.578734 0.010710 255 255 255
0.276631 -0.500000 0.127793 -0.480212 0.007961 255 255 255
0.223416 -0.500000 0.206688 -0.576281 0.012169 255 255 255
0.129138 0.441614 -0.227301 0.021403 0.927832 255 255 255
0.129138 0.465000 -0.227301 0.021863 0.951125 255 255 255
-0.040167 0.301167 0.334232 0.000000 0.000000 0 255 0
-0.041813 0.310001 0.347631 0.000000 0.000000 0 255 0
-0.147376 0.310001 0.317361 0.000000 0.000000 0 255 0
-0.141670 0.301167 0.305126 0.000000 0.000000 0 255 0
-0.127212 -0.441614 0.225796 1.018466 0.072168 255 255 255
-0.127212 -0.465000 0.225796 1.018926 0.048876 255 255 255
0.150123 -0.000000 -0.320626 0.037094 0.483102 255 255 255
0.043976 -0.000000 -0.351063 0.136892 0.481788 255 255 255
0.042333 0.309017 -0.337682 0.137736 0.790270 255 255 255
0.144426 0.309017 -0.308408 0.041383 0.791533 255 255 255
-0.063435 -0.301168 -0.332052 0.000000 0.000000 0 255 0
-0.066011 -0.310001 -0.345304 0.000000 0.000000 0 255 0
-0.063809 0.309017 -0.333976 0.234024 0.790721 255 255 255
-0.141670 -0.318834 0.305126 0.000000 0.000000 0 255 0
-0.229211 -0.318834 0.246079 0.000000 0.000000 0 255 0
-0.229211 -0.301168 0.246079 0.000000 0.000000 0 255 0
0.237093 0.500000 0.109356 -0.437779 1.003122 255 255 255
0.231231 0.465000 0.106623 -0.438892 0.968134 255 255 255
0.186780 0.465000 0.172524 -0.542067 0.971649 255 255 255
0.191510 0.500000 0.176935 -0.541108 1.006726 255 255 255
-0.335966 0.309017 -0.042123 0.623870 0.806472 255 255 255
-0.297614 0.500000 0.057285 0.714299 1.001739 255 255 255
-0.300935 0.500000 -0.037821 0.614587 0.996831 255 255 255
-0.174424 -0.000000 -0.317159 0.000000 0.000000 0 255 0
-0.168007 0.008660 -0.305583 0.000000 0.000000 0 255 0
0.042333 -0.309017 -0.337682 0.135984 0.174698 255 255 255
0.256717 -0.500000 -0.050466 -0.286295 -0.001204 255 255 255
0.259561 -0.500000 0.030999 -0.385940 0.003000 255 255 255
0.253141 -0.465000 0.030211 -0.384823 0.037836 255 255 255
0.250367 -0.465000 -0.049232 -0.285153 0.033736 255 255 255
-0.255742 0.310001 -0.240134 0.000000 0.000000 0 255 0
-0.344968 -0.008660 -0.043228 0.000000 0.000000 0 255 0
-0.314912 -0.008660 -0.148048 0.000000 0.000000 0 255 0
0.296148 0.318834 -0.164376 0.000000 0.000000 0 255 0
0.307955 0.310001 -0.170921 0.000000 0.000000 0 255 0
0.247795 0.318834 0.229422 0.000000 0.000000 0 255 0
0.164587 0.318834 0.294432 0.000000 0.000000 0 255 0
-0.168007 -0.008660 -0.305583 0.000000 0.000000 0 255 0
-0.068065 -0.000000 -0.355871 0.000000 0.000000 0 255 0
-0.065539 -0.008660 -0.342879 0.000000 0.000000 0 255 0
-0.162660 -0.318834 -0.295937 0.000000 0.000000 0 255 0
-0.245869 -0.318834 -0.230927 0.000000 0.000000 0 255 0
-0.334021 -0.301168 -0.041884 0.000000 0.000000 0 255 0
-0.334021 -0.318834 -0.041884 0.000000 0.000000 0 255 0
-0.304915 -0.318834 -0.143386 0.000000 0.000000 0 255 0
-0.304915 -0.301168 -0.143386 0.000000 0.000000 0 255 0
-0.294221 -0.318834 0.162870 0.000000 0.000000 0 255 0
-0.238418 -0.310001 0.255952 0.000000 0.000000 0 255 0
-0.306028 -0.310001 0.169415 0.000000 0.000000 0 255 0
0.308619 -0.309017 0.142709 -0.471855 0.198876 255 255 255
0.320837 -0.000000 0.148407 -0.461204 0.506927 255 255 255
0.259088 -0.000000 0.239953 -0.560862 0.511810 255 255 255
0.249229 -0.309017 0.230759 -0.569565 0.203573 255 255 255
0.067466 -0.008660 0.341373 0.000000 0.000000 0 255 0
0.238660 0.008660 -0.255651 0.000000 0.000000 0 255 0
0.247686 -0.000000 -0.265331 0.000000 0.000000 0 255 0
-0.041512 0.008660 0.345179 0.000000 0.000000 0 255 0
-0.146331 0.008660 0.315122 0.000000 0.000000 0 255 0
0.247795 -0.318835 0.229422 0.000000 0.000000 0 255 0
0.257668 -0.310001 0.238629 0.000000 0.000000 0 255 0
0.260542 0.441614 -0.020043 -0.277951 0.938223 255 255 255
0.260542 0.465000 -0.020043 -0.276832 0.961516 255 255 255
0.251791 0.465000 -0.070313 -0.215826 0.958939 255 255 255
0.251791 0.441614 -0.070313 -0.216870 0.935646 255 255 255
0.233401 0.465000 -0.117911 -0.155559 0.956524 255 255 255
0.233401 0.441614 -0.117911 -0.156493 0.933231 255 255 255
-0.245760 -0.000000 0.263825 0.000000 0.000000 0 255 0
-0.106412 0.465000 0.229515 1.024586 0.975312 255 255 255
-0.109146 0.500000 0.235377 1.024086 1.010482 255 255 255
-0.030788 0.500000 0.257845 1.131956 1.011452 255 255 255
-0.030000 0.465000 0.251425 1.132055 0.976258 255 255 255
-0.162660 0.318834 -0.295937 0.000000 0.000000 0 255 0
0.305794 -0.008660 -0.169723 0.000000 0.000000 0 255 0
0.317370 -0.000000 -0.176140 0.000000 0.000000 0 255 0
-0.141670 0.318834 0.305126 0.000000 0.000000 0 255 0
-0.229211 0.318834 0.246079 0.000000 0.000000 0 255 0
-0.238418 0.310001 0.255952 0.000000 0.000000 0 255 0
-0.065539 0.008660 -0.342879 0.000000 0.000000 0 255 0
-0.048750 -0.500000 -0.256506 0.243020 -0.011106 255 255 255
-0.047516 -0.465000 -0.250157 0.242705 0.024080 255 255 255
-0.122213 -0.465000 -0.222969 0.349656 0.025668 255 255 255
-0.125349 -0.500000 -0.228626 0.350340 -0.009477 255 255 255
0.259561 0.500000 0.030999 -0.336955 0.999017 255 255 255
0.256717 0.500000 -0.050466 -0.238547 0.994813 255 255 255
0.250367 0.465000 -0.049232 -0.239611 0.960032 255 255 255
0.253142 0.465000 0.030211 -0.338098 0.964131 255 255 255
0.043439 -0.008660 -0.346684 0.000000 0.000000 0 255 0
0.319077 -0.310001 0.147586 0.000000 0.000000 0 255 0
0.306842 -0.318835 0.141881 0.000000 0.000000 0 255 0
0.232475 -0.309017 -0.249018 -0.070434 0.178815 255 255 255
0.241669 -0.000000 -0.258878 -0.062659 0.486069 255 255 255
0.309653 -0.000000 -0.171862 -0.162350 0.490401 255 255 255
0.297862 -0.309017 -0.165326 -0.172479 0.182981 255 255 255
0.332263 0.301167 -0.065151 0.000000 0.000000 0 255 0
0.296148 0.301167 -0.164376 0.000000 0.000000 0 255 0
-0.294221 0.301167 0.162870 0.000000 0.000000 0 255 0
-0.306028 0.310001 0.169415 0.000000 0.000000 0 255 0
-0.343588 0.310001 0.066221 0.000000 0.000000 0 255 0
-0.330336 0.301167 0.063645 0.000000 0.000000 0 255 0
0.143597 -0.318834 -0.306632 0.000000 0.000000 0 255 0
0.149303 -0.310001 -0.318867 0.000000 0.000000 0 255 0
0.240345 -0.310001 -0.257458 0.000000 0.000000 0 255 0
0.231138 -0.318834 -0.247585 0.000000 0.000000 0 255 0
0.259317 0.441614 0.030969 -0.339816 0.940862 255 255 255
0.259317 0.465000 0.030969 -0.338661 0.964155 255 255 255
-0.341163 -0.008660 0.065750 0.000000 0.000000 0 255 0
0.170873 -0.465000 -0.197942 -0.065169 0.026245 255 255 255
0.170873 -0.441614 -0.197942 -0.064374 0.049537 255 255 255
0.129138 -0.441614 -0.227301 0.001691 0.048122 255 255 255
0.129138 -0.465000 -0.227301 0.001100 0.024829 255 255 255
0.065362 0.318834 0.330546 0.000000 0.000000 0 255 0
0.206078 -0.465000 -0.161006 -0.130732 0.028067 255 255 255
0.206078 -0.441614 -0.161006 -0.129775 0.051360 255 255 255
0.248165 0.441614 0.080762 -0.402521 0.943463 255 255 255
0.248165 0.465000 0.080762 -0.401373 0.966756 255 255 255
-0.258615 -0.465000 0.018537 0.720230 0.038484 255 255 255
-0.258615 -0.441614 0.018537 0.719111 0.061777 255 255 255
-0.249864 -0.441614 0.068808 0.780192 0.064354 255 255 255
-0.249864 -0.465000 0.068808 0.781236 0.041061 255 255 255
-0.294221 0.318834 0.162870 0.000000 0.000000 0 255 0
-0.330336 0.318834 0.063645 0.000000 0.000000 0 255 0
-0.335966 -0.309017 -0.042123 0.647141 0.190900 255 255 255
-0.349347 -0.000000 -0.043765 0.635473 0.498634 255 255 255
0.143597 -0.301168 -0.306632 0.000000 0.000000 0 255 0
0.231138 -0.301168 -0.247585 0.000000 0.000000 0 255 0
0.335948 -0.301168 0.040378 0.000000 0.000000 0 255 0
0.306842 -0.301168 0.141881 0.000000 0.000000 0 255 0
-0.330336 -0.318834 0.063645 0.000000 0.000000 0 255 0
-0.343588 -0.310001 0.066221 0.000000 0.000000 0 255 0
-0.347420 -0.310001 -0.043529 0.000000 0.000000 0 255 0
-0.163610 0.309017 -0.297651 0.330521 0.792843 255 255 255
0.305794 0.008660 -0.169723 0.000000 0.000000 0 255 0
-0.040167 0.318834 0.334232 0.000000 0.000000 0 255 0
-0.127212 0.441614 0.225796 0.998754 0.951878 255 255 255
-0.127212 0.465000 0.225796 0.998162 0.975171 255 255 255
-0.080551 0.465000 0.246448 1.064969 0.976124 255 255 255
-0.080551 0.441614 0.246448 1.065325 0.952831 255 255 255
0.334187 0.309017 -0.065525 -0.250745 0.803623 255 255 255
0.299541 0.500000 -0.058790 -0.241847 0.994278 255 255 255
0.302862 0.500000 0.036316 -0.340495 0.999186 255 255 255
0.337893 0.309017 0.040617 -0.349922 0.809100 255 255 255
0.296148 -0.301168 -0.164376 0.000000 0.000000 0 255 0
0.332263 -0.301168 -0.065151 0.000000 0.000000 0 255 0
-0.235166 0.500000 -0.110862 0.513768 0.992895 255 255 255
-0.257634 0.500000 -0.032505 0.611122 0.997000 255 255 255
-0.251215 0.465000 -0.031716 0.612240 0.962164 255 255 255
-0.229304 0.465000 -0.108128 0.514760 0.958161 255 255 255
0.337893 -0.309017 0.040617 -0.373193 0.193528 255 255 255
0.351274 -0.000000 0.042260 -0.361589 0.501366 255 255 255
-0.080551 -0.441614 0.246448 1.077055 0.073122 255 255 255
-0.080551 -0.465000 0.246448 1.077326 0.049829 255 255 255
0.082478 -0.441614 -0.247954 0.068262 0.047169 255 255 255
0.082478 -0.465000 -0.247954 0.067906 0.023876 255 255 255
0.111072 -0.500000 -0.236882 0.027023 -0.010482 255 255 255
0.178651 -0.500000 -0.191300 -0.079578 -0.008292 255 255 255
0.174240 -0.465000 -0.186569 -0.078749 0.026824 255 255 255
0.108339 -0.465000 -0.231020 0.027524 0.024688 255 255 255
0.260542 -0.465000 -0.020043 -0.322238 0.035220 255 255 255
0.260542 -0.441614 -0.020043 -0.321081 0.058513 255 255 255
0.251791 -0.441614 -0.070313 -0.258171 0.055936 255 255 255
0.251791 -0.465000 -0.070313 -0.259311 0.032643 255 255 255
0.032685 -0.441614 -0.259107 0.135142 0.046714 255 255 255
0.032685 -0.465000 -0.259107 0.135042 0.023421 255 255 255
-0.330336 -0.301168 0.063645 0.000000 0.000000 0 255 0
-0.294221 -0.301168 0.162870 0.000000 0.000000 0 255 0
-0.018326 -0.441614 -0.260331 0.202108 0.046776 255 255 255
-0.018326 -0.465000 -0.260331 0.202270 0.023483 255 255 255
0.223180 -0.465000 -0.123929 1.811020 0.029942 255 255 255
0.224970 -0.465000 -0.119011 1.804252 0.030192 255 255 255
0.233401 -0.465000 -0.117911 1.798656 0.030228 255 255 255
0.206078 -0.465000 -0.161006 1.863393 0.028067 255 255 255
0.170873 -0.465000 -0.197942 1.928956 0.026245 255 255 255
0.129138 -0.465000 -0.227301 1.995225 0.024829 255 255 255
0.082478 -0.465000 -0.247954 2.062032 0.023876 255 255 255
0.032685 -0.465000 -0.259107 2.129167 0.023421 255 255 255
-0.159289 -0.465000 -0.205868 0.402160 0.026643 255 255 255
-0.246238 -0.465000 -0.082268 0.595689 0.033244 255 255 255
-0.257390 -0.465000 -0.032475 0.658401 0.035845 255 255 255
-0.231474 -0.465000 0.116405 0.841504 0.043476 255 255 255
-0.115831 -0.465000 0.223161 1.029342 0.048712 255 255 255
-0.172313 -0.465000 0.185064 0.948777 0.046880 255 255 255
0.174240 -0.465000 -0.186569 1.915376 0.026824 255 255 255
-0.221253 -0.465000 0.122424 0.853919 0.043763 255 255 255
0.108339 -0.465000 -0.231020 2.021649 0.024688 255 255 255
-0.248440 -0.465000 0.047726 0.757452 0.039968 255 255 255
0.031927 -0.465000 -0.252931 2.129118 0.023742 255 255 255
-0.251215 -0.465000 -0.031716 0.658964 0.035869 255 255 255
-0.229304 -0.465000 -0.108128 0.558171 0.031866 255 255 255
-0.184853 -0.465000 -0.174029 0.454996 0.028351 255 255 255
-0.246238 -0.441614 -0.082268 0.594541 0.056537 255 255 255
-0.257390 -0.441614 -0.032475 0.657246 0.059138 255 255 255
-0.146499 -0.500000 -0.266782 0.348235 -0.011398 255 255 255
-0.221490 -0.500000 -0.208193 0.453000 -0.008186 255 255 255
0.232475 0.309017 -0.249018 -0.055309 0.794387 255 255 255
0.129510 0.500000 -0.276421 0.044638 0.983445 255 255 255
0.208404 0.500000 -0.223206 -0.049677 0.986003 255 255 255
0.233401 -0.465000 -0.117911 -0.195468 0.030228 255 255 255
0.233401 -0.441614 -0.117911 -0.194396 0.053521 255 255 255
0.247795 -0.301168 0.229422 0.000000 0.000000 0 255 0
-0.063435 -0.318834 -0.332052 0.000000 0.000000 0 255 0
0.042094 -0.318834 -0.335737 0.000000 0.000000 0 255 0
0.042094 -0.301168 -0.335737 0.000000 0.000000 0 255 0
-0.226910 -0.500000 0.125559 0.854813 0.009078 255 255 255
-0.176724 -0.500000 0.189794 0.949435 0.012275 255 255 255
0.249229 0.309017 0.230759 -0.551736 0.819145 255 255 255
0.165537 0.309017 0.296146 -0.654241 0.822729 255 255 255
0.172073 -0.000000 0.307937 -0.660584 0.515537 255 255 255
-0.231474 -0.441614 0.116405 0.840569 0.066769 255 255 255
0.237093 -0.500000 0.109356 -0.483295 0.007105 255 255 255
0.231231 -0.465000 0.106623 -0.482302 0.041839 255 255 255
-0.295935 -0.309017 0.163821 0.844457 0.201447 255 255 255
-0.239742 -0.000000 0.257372 0.934403 0.513930 255 255 255
-0.334021 0.301167 -0.041884 0.000000 0.000000 0 255 0
-0.334021 0.318834 -0.041884 0.000000 0.000000 0 255 0
0.165537 -0.309017 0.296146 -0.666542 0.207157 255 255 255
0.068308 -0.000000 0.345704 -0.760362 0.517742 255 255 255
0.065736 -0.309017 0.332470 -0.763039 0.209279 255 255 255
0.148258 -0.008660 -0.316628 0.000000 0.000000 0 255 0
-0.125349 0.500000 -0.228626 0.324332 0.986539 255 255 255
-0.189583 0.500000 -0.178440 0.418328 0.989290 255 255 255
-0.184853 0.465000 -0.174029 0.419117 0.954646 255 255 255
-0.122213 0.465000 -0.222969 0.324861 0.951963 255 255 255
0.068308 -0.000000 0.345704 1.233763 0.517742 255 255 255
0.065736 0.309017 0.332470 1.236638 0.824851 255 255 255
-0.042049 -0.000000 0.349558 1.133955 0.518212 255 255 255
0.144426 -0.309017 -0.308408 0.032502 0.175961 255 255 255
0.334187 -0.309017 -0.065525 -0.273421 0.188051 255 255 255
0.347420 -0.000000 -0.068097 -0.261984 0.495672 255 255 255
0.050677 0.500000 0.255000 -0.754042 1.011106 255 255 255
0.127276 0.500000 0.227121 -0.646722 1.009477 255 255 255
0.124140 0.465000 0.221464 -0.647407 0.974332 255 255 255
0.049443 0.465000 0.248651 -0.754358 0.975920 255 255 255
-0.159289 0.441614 -0.205867 0.372850 0.929645 255 255 255
-0.159289 0.465000 -0.205867 0.372173 0.952938 255 255 255
-0.196226 0.465000 -0.170662 0.431390 0.954848 255 255 255
-0.196226 0.441614 -0.170662 0.432222 0.931555 255 255 255
0.065736 -0.309017 0.332470 1.231087 0.209279 255 255 255
-0.040406 -0.309017 0.336177 1.134799 0.209730 255 255 255
-0.229211 0.301167 0.246079 0.000000 0.000000 0 255 0
-0.225585 0.465000 -0.128928 0.491161 0.957077 255 255 255
-0.225585 0.441614 -0.128928 0.492124 0.933784 255 255 255
-0.253935 -0.008660 -0.238449 0.000000 0.000000 0 255 0
-0.347420 0.310001 -0.043529 0.000000 0.000000 0 255 0
-0.317151 0.310001 -0.149092 0.000000 0.000000 0 255 0
0.111072 0.500000 -0.236882 0.045816 0.985534 255 255 255
0.032715 0.500000 -0.259351 0.138605 0.984564 255 255 255
0.031927 0.465000 -0.252931 0.138531 0.950038 255 255 255
0.108339 0.465000 -0.231020 0.045438 0.950983 255 255 255
0.198153 -0.465000 0.169157 -0.565672 0.045152 255 255 255
0.198153 -0.441614 0.169157 -0.564840 0.068445 255 255 255
0.227512 -0.441614 0.127422 -0.504938 0.066216 255 255 255
0.227512 -0.465000 0.127422 -0.505901 0.042923 255 255 255
0.038032 0.500000 -0.302651 0.138374 0.982313 255 255 255
0.223180 -0.465000 -0.123929 -0.183106 0.029942 255 255 255
0.228837 -0.500000 -0.127065 -0.184153 -0.005094 255 255 255
0.224970 -0.465000 -0.119011 -0.189874 0.030192 255 255 255
0.299541 -0.500000 -0.058790 -0.282763 -0.001739 255 255 255
0.302862 -0.500000 0.036316 -0.382476 0.003169 255 255 255
-0.249864 0.465000 0.068808 0.737751 0.967357 255 255 255
-0.249864 0.441614 0.068808 0.738890 0.944064 255 255 255
-0.254790 0.500000 0.048961 0.710768 1.001203 255 255 255
0.059001 0.500000 0.297825 -0.755011 1.013299 255 255 255
0.148426 0.500000 0.265277 -0.648828 1.011398 255 255 255
0.223416 0.500000 0.206688 -0.544063 1.008186 255 255 255
0.276631 0.500000 0.127793 -0.441216 1.003978 255 255 255
0.266993 0.500000 -0.148215 -0.145029 0.989735 255 255 255
-0.057074 0.500000 -0.299330 0.231998 0.982718 255 255 255
-0.226910 0.500000 0.125560 0.812909 1.005094 255 255 255
0.178651 0.500000 -0.191300 -0.047628 0.987725 255 255 255
-0.176724 0.500000 0.189794 0.917484 1.008292 255 255 255
0.228837 0.500000 -0.127065 -0.142250 0.990922 255 255 255
0.050677 0.500000 0.255000 1.240083 1.011106 255 255 255
-0.332260 -0.309017 0.064019 0.746318 0.196377 255 255 255
0.118121 -0.465000 0.231684 -0.683666 0.048580 255 255 255
0.118121 -0.441614 0.231684 -0.683163 0.071872 255 255 255
0.161216 -0.441614 0.204362 -0.624212 0.070355 255 255 255
0.161216 -0.465000 0.204362 -0.624889 0.047062 255 255 255
-0.257635 -0.500000 -0.032505 0.660107 0.000983 255 255 255
-0.235166 -0.500000 -0.110862 0.559283 -0.003122 255 255 255
-0.146499 0.500000 -0.266782 0.325980 0.984619 255 255 255
0.148426 -0.500000 0.265277 -0.671083 0.015381 255 255 255
0.059001 -0.500000 0.297825 -0.765064 0.017282 255 255 255
0.238660 -0.008660 -0.255651 0.000000 0.000000 0 255 0
-0.030759 -0.465000 0.257601 1.135557 0.050283 255 255 255
-0.030759 -0.441614 0.257601 1.135481 0.073576 255 255 255
0.020253 -0.441614 0.258826 1.193863 0.073515 255 255 255
0.020253 -0.465000 0.258826 1.193741 0.050222 255 255 255
0.070524 -0.465000 0.250075 -0.742124 0.049647 255 255 255
0.070524 -0.441614 0.250075 -0.741807 0.072939 255 255 255
-0.204151 0.441614 0.159500 0.867288 0.948640 255 255 255
-0.204151 0.465000 0.159500 0.866331 0.971933 255 255 255
-0.168946 0.465000 0.196437 0.931893 0.973756 255 255 255
-0.168946 0.441614 0.196437 0.932688 0.950463 255 255 255
-0.221253 0.465000 0.122424 0.813957 0.970058 255 255 255
-0.248440 0.465000 0.047726 0.711910 0.966264 255 255 255
-0.172313 0.465000 0.185064 0.918313 0.973176 255 255 255
-0.068597 0.441614 -0.251580 0.255255 0.927060 255 255 255
-0.068597 0.465000 -0.251580 0.254938 0.950354 255 255 255
-0.116194 0.465000 -0.233190 0.313396 0.951420 255 255 255
-0.116194 0.441614 -0.233190 0.313899 0.928127 255 255 255
0.306842 0.318834 0.141881 0.000000 0.000000 0 255 0
-0.030000 0.465000 0.251426 1.132056 0.976258 255 255 255
0.059001 0.500000 0.297825 1.239114 1.013299 255 255 255
0.186780 -0.465000 0.172524 -0.577946 0.045354 255 255 255
-0.246238 0.441614 -0.082268 0.552660 0.936246 255 255 255
-0.246238 0.465000 -0.082268 0.551596 0.959539 255 255 255
0.308619 0.309017 0.142709 -0.450251 0.814448 255 255 255
-0.148196 -0.000000 0.319121 1.034157 0.516898 255 255 255
0.020253 0.441614 0.258826 1.199171 0.953224 255 255 255
0.020253 0.465000 0.258826 1.199333 0.976517 255 255 255
0.070524 0.465000 0.250075 1.266411 0.975942 255 255 255
0.070524 0.441614 0.250075 1.265997 0.952649 255 255 255
-0.057074 -0.500000 -0.299330 0.242051 -0.013299 255 255 255
0.038032 -0.500000 -0.302651 0.135200 -0.013703 255 255 255
0.129510 -0.500000 -0.276421 0.028561 -0.012571 255 255 255
0.208404 -0.500000 -0.223206 -0.077026 -0.010014 255 255 255
0.266993 -0.500000 -0.148215 -0.180921 -0.006281 255 255 255
-0.274705 -0.500000 -0.129299 0.555847 -0.003978 255 255 255
-0.297614 -0.500000 0.057285 0.755215 0.005722 255 255 255
-0.300935 -0.500000 -0.037821 0.656568 0.000814 255 255 255
-0.265066 -0.500000 0.146710 0.852033 0.010264 255 255 255
-0.036105 -0.500000 0.301146 1.135437 0.017687 255 255 255
0.059001 -0.500000 0.297825 1.229061 0.017282 255 255 255
0.050677 -0.500000 0.255000 -0.765796 0.015089 255 255 255
-0.030788 -0.500000 0.257845 1.135667 0.015435 255 255 255
-0.109146 -0.500000 0.235377 1.042879 0.014466 255 255 255
0.032715 -0.500000 -0.259351 0.134893 -0.011452 255 255 255
-0.254790 -0.500000 0.048961 0.758515 0.005187 255 255 255
-0.189584 -0.500000 -0.178441 0.455954 -0.006726 255 255 255
-0.231474 0.441614 0.116405 0.802666 0.946479 255 255 255
-0.231474 0.465000 0.116405 0.801594 0.969772 255 255 255
0.070524 -0.441614 0.250075 1.252317 0.072939 255 255 255
0.070524 -0.465000 0.250075 1.252001 0.049647 255 255 255
0.043740 -0.310001 -0.349136 0.000000 0.000000 0 255 0
0.297862 0.309017 -0.165326 -0.152605 0.798553 255 255 255
0.248165 -0.441614 0.080762 -0.444402 0.063754 255 255 255
0.248165 -0.465000 0.080762 -0.445467 0.040461 255 255 255
-0.018326 0.441614 -0.260331 0.196800 0.926485 255 255 255
-0.018326 0.465000 -0.260331 0.196678 0.949778 255 255 255
0.124140 -0.465000 0.221464 -0.672202 0.048037 255 255 255
0.050677 -0.500000 0.255000 1.228329 0.015089 255 255 255
-0.030000 -0.465000 0.251425 1.135593 0.049962 255 255 255
0.049443 -0.465000 0.248651 1.228564 0.049625 255 255 255
0.049443 -0.465000 0.248651 -0.765561 0.049625 255 255 255
0.031927 -0.465000 -0.252931 0.134993 0.023742 255 255 255
0.174240 0.465000 -0.186569 -0.048286 0.953120 255 255 255
0.065736 0.309017 0.332470 -0.757487 0.824851 255 255 255
0.227512 0.441614 0.127422 -0.466091 0.945926 255 255 255
0.227512 0.465000 0.127422 -0.464998 0.969218 255 255 255
-0.317151 -0.310001 -0.149092 0.000000 0.000000 0 255 0
-0.159289 -0.441614 -0.205868 0.401322 0.049935 255 255 255
-0.030000 -0.465000 0.251425 1.135593 0.049962 255 255 255
-0.030758 0.465000 0.257601 1.132104 0.976579 255 255 255
-0.030758 0.441614 0.257601 1.132204 0.953286 255 255 255
-0.048750 0.500000 -0.256506 0.231266 0.984911 255 255 255
-0.047516 0.465000 -0.250157 0.231501 0.950375 255 255 255
0.198153 0.441614 0.169157 -0.530516 0.948154 255 255 255
0.198153 0.465000 0.169157 -0.529527 0.971448 255 255 255
-0.106412 -0.465000 0.229515 1.042501 0.049017 255 255 255
0.259317 -0.441614 0.030969 -0.383141 0.061153 255 255 255
0.259317 -0.465000 0.030969 -0.384272 0.037860 255 255 255
0.049443 0.465000 0.248651 1.239767 0.975920 255 255 255
0.118121 -0.465000 0.231684 1.310459 0.048580 255 255 255
0.161216 -0.465000 0.204362 1.369236 0.047062 255 255 255
0.198153 -0.465000 0.169157 1.428453 0.045152 255 255 255
0.227512 -0.465000 0.127422 1.488224 0.042923 255 255 255
0.248165 -0.465000 0.080762 1.548659 0.040461 255 255 255
0.259317 -0.465000 0.030969 1.609853 0.037860 255 255 255
0.260542 -0.465000 -0.020043 1.671887 0.035220 255 255 255
0.251791 -0.465000 -0.070313 1.734814 0.032643 255 255 255
0.250367 -0.465000 -0.049232 1.708972 0.033736 255 255 255
0.253141 -0.465000 0.030211 1.609302 0.037836 255 255 255
0.231231 -0.465000 0.106623 1.511823 0.041839 255 255 255
0.124140 -0.465000 0.221464 1.321923 0.048037 255 255 255
0.186780 -0.465000 0.172524 1.416179 0.045354 255 255 255
0.032685 0.465000 -0.259107 2.132619 0.949717 255 255 255
0.082478 0.465000 -0.247954 2.074389 0.950171 255 255 255
0.129138 0.465000 -0.227301 2.015989 0.951125 255 255 255
0.170873 0.465000 -0.197942 1.957298 0.952540 255 255 255
0.206078 0.465000 -0.161006 1.898196 0.954363 255 255 255
0.233401 0.465000 -0.117911 1.838567 0.956524 255 255 255
0.251791 0.465000 -0.070313 1.778299 0.958939 255 255 255
0.260542 0.465000 -0.020043 1.717293 0.961516 255 255 255
0.259317 0.465000 0.030969 1.655464 0.964155 255 255 255
0.248165 0.465000 0.080762 1.592752 0.966756 255 255 255
0.227512 0.465000 0.127422 1.529127 0.969218 255 255 255
0.198153 0.465000 0.169157 1.464598 0.971448 255 255 255
0.161216 0.465000 0.204362 1.399223 0.973357 255 255 255
0.118121 0.465000 0.231684 1.333108 0.974875 255 255 255
0.124140 0.465000 0.221464 1.346718 0.974332 255 255 255
0.108339 0.465000 -0.231020 2.039563 0.950983 255 255 255
0.186780 0.465000 0.172524 1.452058 0.971649 255 255 255
0.174240 0.465000 -0.186569 1.945839 0.953120 255 255 255
0.231231 0.465000 0.106623 1.555233 0.968134 255 255 255
0.223180 0.465000 -0.123929 1.850981 0.956237 255 255 255
0.253142 0.465000 0.030211 1.656027 0.964131 255 255 255
0.250367 0.465000 -0.049232 1.754514 0.960032 255 255 255
0.070524 0.441614 0.250075 -0.728128 0.952649 255 255 255
0.070524 0.465000 0.250075 -0.727714 0.975942 255 255 255
0.223180 0.465000 -0.123929 -0.143144 0.956237 255 255 255
-0.068597 0.441614 -0.251580 0.028056 0.752258 255 255 255
-0.116194 0.441614 -0.233190 -0.012088 0.655339 255 255 255
-0.159289 0.441614 -0.205867 -0.032554 0.552451 255 255 255
-0.196226 0.441614 -0.170662 -0.032554 0.447547 255 255 255
-0.225585 0.441614 -0.128928 -0.012088 0.344658 255 255 255
-0.246238 0.441614 -0.082268 0.028057 0.247740 255 255 255
-0.257390 0.441614 -0.032475 0.086338 0.160516 255 255 255
-0.258615 0.441614 0.018537 0.160516 0.086338 255 255 255
-0.249864 0.441614 0.068808 0.247740 0.028056 255 255 255
-0.231474 0.441614 0.116405 0.344658 -0.012088 255 255 255
-0.204151 0.441614 0.159500 0.447546 -0.032554 255 255 255
-0.168946 0.441614 0.196437 0.552450 -0.032554 255 255 255
-0.127212 0.441614 0.225796 0.655339 -0.012088 255 255 255
-0.080551 0.441614 0.246448 0.752258 0.028057 255 255 255
-0.030758 0.441614 0.257601 0.839482 0.086339 255 255 255
0.020253 0.441614 0.258826 0.913661 0.160518 255 255 255
0.070524 0.441614 0.250075 0.971942 0.247742 255 255 255
0.118121 0.441614 0.231684 1.012088 0.344662 255 255 255
0.161216 0.441614 0.204362 1.032553 0.447551 255 255 255
0.198153 0.441614 0.169157 1.032553 0.552455 255 255 255
0.227512 0.441614 0.127422 1.012087 0.655343 255 255 255
0.248165 0.441614 0.080762 0.971941 0.752262 255 255 255
0.259317 0.441614 0.030969 0.913659 0.839486 255 255 255
0.260542 0.441614 -0.020043 0.839480 0.913665 255 255 255
0.251791 0.441614 -0.070313 0.752255 0.971946 255 255 255
0.233401 0.441614 -0.117911 0.655337 1.012089 255 255 255
0.206078 0.441614 -0.161006 0.552449 1.032554 255 255 255
0.170873 0.441614 -0.197942 0.447546 1.032553 255 255 255
0.129138 0.441614 -0.227301 0.344658 1.012087 255 255 255
0.082478 0.441614 -0.247954 0.247740 0.971942 255 255 255
0.032685 0.441614 -0.259107 0.160515 0.913660 255 255 255
-0.018326 0.441614 -0.260331 0.086338 0.839482 255 255 255
0.118121 -0.441614 0.231684 0.552452 1.032551 255 255 255
0.070524 -0.441614 0.250075 0.447547 1.032551 255 255 255
0.020253 -0.441614 0.258826 0.344658 1.012085 255 255 255
-0.030759 -0.441614 0.257601 0.247739 0.971940 255 255 255
-0.080551 -0.441614 0.246448 0.160515 0.913658 255 255 255
-0.127212 -0.441614 0.225796 0.086337 0.839479 255 255 255
-0.168946 -0.441614 0.196437 0.028056 0.752255 255 255 255
-0.204151 -0.441614 0.159500 -0.012089 0.655336 255 255 255
-0.231474 -0.441614 0.116405 -0.032554 0.552448 255 255 255
-0.249864 -0.441614 0.068808 -0.032553 0.447545 255 255 255
-0.258615 -0.441614 0.018537 -0.012087 0.344658 255 255 255
-0.257390 -0.441614 -0.032475 0.028058 0.247739 255 255 255
-0.246238 -0.441614 -0.082268 0.086340 0.160515 255 255 255
-0.225585 -0.441614 -0.128928 0.160518 0.086337 255 255 255
-0.196226 -0.441614 -0.170663 0.247743 0.028056 255 255 255
-0.159289 -0.441614 -0.205868 0.344662 -0.012089 255 255 255
-0.116194 -0.441614 -0.233190 0.447550 -0.032554 255 255 255
-0.068597 -0.441614 -0.251580 0.552454 -0.032554 255 255 255
-0.018326 -0.441614 -0.260331 0.655342 -0.012088 255 255 255
0.032685 -0.441614 -0.259107 0.752259 0.028056 255 255 255
0.082478 -0.441614 -0.247954 0.839484 0.086338 255 255 255
0.129138 -0.441614 -0.227301 0.913662 0.160515 255 255 255
0.170873 -0.441614 -0.197942 0.971943 0.247739 255 255 255
0.206078 -0.441614 -0.161006 1.012088 0.344656 255 255 255
0.233401 -0.441614 -0.117911 1.032554 0.447545 255 255 255
0.251791 -0.441614 -0.070313 1.032554 0.552448 255 255 255
0.260542 -0.441614 -0.020043 1.012089 0.655337 255 255 255
0.259317 -0.441614 0.030969 0.971944 0.752256 255 255 255
0.248165 -0.441614 0.080762 0.913662 0.839480 255 255 255
0.227512 -0.441614 0.127422 0.839484 0.913659 255 255 255
0.198153 -0.441614 0.169157 0.752260 0.971940 255 255 255
0.161216 -0.441614 0.204362 0.655340 1.012085 255 255 255
4 0 1 2 3
4 4 5 6 7
4 8 9 10 11
4 12 13 14 15
4 16 17 18 19
4 20 21 22 23
4 24 25 26 27
4 28 29 30 31
4 32 33 34 35
4 36 37 38 39
4 40 41 32 42
4 43 44 45 46
4 47 48 49 50
4 51 52 53 54
4 55 56 57 58
4 59 60 21 20
4 61 62 39 63
4 64 65 1 0
4 66 67 68 69
4 70 71 72 73
4 74 75 76 77
4 78 8 11 79
4 80 81 82 83
4 84 85 86 87
4 88 89 90 91
4 40 92 93 41
4 94 95 67 66
4 96 97 98 99
4 1 100 101 2
4 2 101 102 103
4 104 59 20 105
4 26 106 107 108
4 109 110 111 112
4 113 114 115 116
4 117 118 46 45
4 119 120 64 121
4 122 3 2 103
4 22 123 8 78
4 124 125 126 17
4 127 128 129 130
4 131 40 42 33
4 132 10 79 133
4 134 135 136 137
4 138 92 40 131
4 139 140 141 142
4 143 77 76 144
4 145 146 147 148
4 149 150 135 134
4 19 18 75 74
4 151 152 153 154
4 99 98 155 156
4 157 158 159 160
4 113 116 161 162
4 72 163 159 158
4 34 164 165 166
4 167 168 169 170
4 171 63 172 173
4 174 143 144 175
4 73 72 158 176
4 177 178 179 180
4 15 181 120 119
4 75 182 183 76
4 122 103 184 185
4 186 94 66 187
4 188 174 189 190
4 151 69 68 152
4 191 192 114 113
4 123 105 20 23
4 193 194 195 196
4 197 165 198 199
4 200 201 202 203
4 204 132 81 80
4 28 31 205 206
4 81 207 208 82
4 209 210 93 92
4 211 212 213 214
4 214 213 215 216
4 100 0 3 101
4 217 82 208 124
4 140 109 112 141
4 218 219 220 221
4 120 222 65 64
4 104 223 224 59
4 153 225 226 227
4 175 188 190 228
4 229 230 231 232
4 233 234 235 236
4 237 190 189 29
4 228 190 237 30
4 44 43 238 239
4 240 241 242 243
4 244 245 185 106
4 21 105 123 22
4 42 32 35 164
4 246 247 248 249
4 250 251 252 253
4 174 175 228 189
4 65 121 100 1
4 254 255 212 211
4 164 35 198 165
4 216 215 48 47
4 256 126 16 19
4 17 126 256 18
4 60 104 105 21
4 257 258 259 260
4 68 67 187 261
4 262 263 258 257
4 264 265 255 254
4 266 267 268 269
4 248 247 270 271
4 103 102 245 184
4 272 273 140 139
4 10 9 78 79
4 274 250 253 275
4 238 43 276 277
4 278 279 280 194
4 72 71 281 163
4 253 252 118 117
4 224 206 205 282
4 261 69 151 283
4 282 223 104 60
4 284 285 286 287
4 222 119 121 65
4 41 93 138 131
4 116 115 192 191
4 288 289 290 291
4 292 117 45 293
4 294 295 296 297
4 298 299 201 200
4 156 155 300 301
4 11 10 132 204
4 260 259 302 303
4 304 305 306 307
4 83 82 217 125
4 308 309 310 311
4 303 302 312 313
4 280 279 314 193
4 279 199 315 314
4 141 112 281 71
4 313 312 316 317
4 79 11 204 133
3 318 319 320
3 320 321 322
3 322 323 324
3 324 325 317
3 317 4 7
3 7 326 84
3 84 87 327
3 327 328 266
3 266 269 329
3 329 96 99
3 99 156 330
3 99 330 331
3 318 320 322
3 332 318 322
3 329 99 331
3 329 331 333
3 334 332 322
3 334 322 324
3 329 333 335
3 266 329 335
3 336 334 324
3 336 324 317
3 266 335 337
3 327 266 337
3 230 336 317
3 230 317 7
3 327 337 338
3 84 327 338
3 231 230 7
3 84 338 339
3 339 231 7
3 339 7 84
4 327 340 341 328
4 342 343 142 70
4 344 160 345 346
4 347 348 263 262
4 210 349 138 93
4 161 350 351 352
4 353 333 331 354
4 202 355 356 357
4 96 329 358 97
4 359 360 179 178
4 361 129 362 62
4 352 351 250 274
4 350 191 113 162
4 271 249 363 364
4 365 357 366 367
4 142 141 71 70
4 30 237 368 31
4 369 370 371 372
4 373 374 55 375
4 176 158 157 376
4 315 197 278 314
4 377 243 242 378
4 311 310 348 347
4 273 171 109 140
4 187 66 69 261
4 349 209 92 138
4 277 239 209 349
4 182 256 19 74
4 379 380 381 382
4 383 384 385 386
4 387 373 375 388
4 275 253 117 292
4 226 389 246 270
4 389 227 247 246
4 380 170 169 381
4 226 225 154 389
4 386 385 390 391
4 76 183 392 144
4 33 42 164 34
4 363 393 394 14
4 168 167 233 236
4 118 292 293 46
4 395 396 397 398
4 399 400 401 402
4 147 200 203 148
4 23 22 78 9
4 159 403 345 160
3 404 405 177
3 177 180 406
3 177 406 404
4 407 377 298 408
4 116 191 350 161
4 54 53 409 410
4 244 106 26 25
3 411 295 110
3 110 173 172
3 172 38 37
3 37 57 56
3 56 412 413
3 413 414 415
3 415 290 289
3 289 416 346
3 346 345 403
3 403 417 396
3 403 396 395
3 411 110 172
3 418 411 172
3 346 403 395
3 346 395 419
3 418 172 37
3 420 418 37
3 289 346 419
3 289 419 421
3 420 37 56
3 219 420 56
3 289 421 234
3 289 234 233
3 220 219 56
3 422 220 56
3 415 289 233
3 415 233 167
3 422 56 413
3 380 422 413
3 413 415 167
3 170 380 413
3 413 167 170
4 272 423 61 273
4 424 425 426 427
4 198 166 315 199
4 428 429 338 337
4 112 111 430 281
4 431 365 367 432
4 181 12 222 120
4 50 49 150 149
4 205 433 223 282
4 434 435 436 437
4 438 439 425 424
4 440 441 442 443
4 121 64 0 100
4 411 418 444 445
4 418 420 446 444
4 447 448 449 450
4 451 24 94 186
4 364 363 14 13
4 101 3 122 102
3 221 220 452
4 329 269 268 358
4 374 453 56 55
4 294 297 371 370
4 359 146 454 360
4 455 456 52 51
4 314 278 194 193
4 225 283 151 154
4 81 132 133 207
4 201 457 355 202
4 455 391 390 456
4 224 282 60 59
4 388 375 458 128
4 196 195 192 115
4 459 460 461 462
3 463 464 465
3 465 466 467
3 467 407 408
3 408 147 146
3 408 146 359
3 342 463 465
3 468 343 342
3 469 470 468
3 130 471 469
3 472 127 130
3 431 473 472
3 145 148 431
3 474 145 431
3 408 359 178
3 408 178 177
3 474 431 472
3 475 474 472
3 467 408 177
3 467 177 405
3 475 472 130
3 476 475 130
3 465 467 405
3 465 405 305
3 354 476 130
3 353 354 130
3 465 305 304
3 465 304 477
3 353 130 469
3 478 353 469
3 342 465 477
3 342 477 229
3 478 469 468
3 428 478 468
3 342 229 232
3 342 232 479
3 429 428 468
3 342 479 429
3 429 468 342
4 473 387 388 472
4 440 480 481 441
4 437 436 482 483
4 305 405 404 306
4 61 63 171 273
4 281 430 417 163
4 484 162 161 352
4 242 485 288 378
4 343 468 139 142
4 392 143 174 188
4 402 401 486 487
4 237 29 28 368
4 488 489 448 447
4 146 145 490 454
4 468 470 272 139
4 344 346 416 485
4 208 83 125 124
4 148 203 365 431
4 355 457 415 414
4 203 202 357 365
4 491 475 492 493
4 145 474 494 490
4 477 304 307 495
4 293 45 44 276
4 433 206 224 223
4 26 108 451 27
4 419 395 398 496
4 356 413 412 497
4 108 25 24 451
4 498 499 265 264
4 351 484 251 250
4 195 500 114 192
4 326 501 85 84
4 185 184 107 106
4 67 95 186 187
4 68 261 283 152
3 492 475 502
4 129 128 458 362
4 249 248 393 363
4 287 286 503 504
4 109 171 173 110
4 350 162 484 351
4 479 232 231 339
4 396 505 506 397
4 507 508 499 498
4 458 58 36 362
4 301 300 435 434
3 509 476 354
3 354 331 330
3 354 330 509
4 166 165 197 315
4 342 70 73 463
4 241 344 485 242
4 252 251 274 275
4 411 445 296 295
4 357 356 497 366
4 270 246 249 271
4 472 388 128 127
4 184 245 244 107
4 487 486 510 511
4 220 422 512 452
4 130 129 361 471
4 420 219 218 446
4 353 478 335 333
3 492 502 509
3 509 330 156
3 156 301 434
3 434 437 483
3 483 513 514
3 514 515 516
3 516 517 518
3 518 519 520
3 520 320 319
3 520 319 521
3 509 156 434
3 492 509 434
3 518 520 521
3 518 521 522
3 492 434 483
3 493 492 483
3 516 518 522
3 516 522 523
3 524 493 483
3 516 523 525
3 524 483 514
3 514 516 525
3 525 524 514
3 372 371 385
3 385 384 449
3 449 448 489
3 489 526 527
3 527 528 529
3 529 530 531
3 531 532 533
3 533 534 535
3 535 536 537
3 537 538 539
3 539 461 460
3 460 503 286
3 286 285 218
3 218 221 452
3 286 218 452
3 372 385 449
3 506 372 449
3 460 286 452
3 460 452 512
3 506 449 489
3 397 506 489
3 539 460 512
3 539 512 540
3 397 489 527
3 541 397 527
3 537 539 540
3 537 540 542
3 541 527 529
3 543 541 529
3 537 542 544
3 535 537 544
3 543 529 531
3 545 543 531
3 535 544 546
3 547 545 531
3 533 535 546
3 547 531 533
3 533 546 547
4 144 392 188 175
4 87 86 340 327
4 328 341 267 266
4 207 80 83 208
4 125 217 16 126
4 393 364 13 394
4 548 549 89 88
4 201 299 291 457
4 478 428 337 335
4 7 6 501 326
4 43 46 293 276
4 511 510 309 308
4 408 298 200 147
4 235 234 421 550
4 280 193 196 500
4 276 44 239 277
4 317 316 5 4
4 450 449 384 383
4 464 176 376 465
4 182 74 77 183
3 390 385 371
3 390 371 297
3 52 456 390
3 409 53 52
3 441 481 409
3 285 442 441
3 446 218 285
3 446 285 441
3 52 390 297
3 52 297 296
3 444 446 441
3 52 296 445
3 444 441 409
3 409 52 445
3 445 444 409
4 252 275 292 118
4 39 38 172 63
4 31 368 433 205
4 500 196 115 114
4 137 136 489 488
4 485 416 289 288
4 471 361 423 469
4 209 239 238 210
4 480 410 409 481
4 467 466 240 243
4 198 35 34 166
4 291 290 415 457
4 32 41 131 33
4 133 204 80 207
4 506 505 369 372
4 18 256 182 75
3 551 552 553
3 553 554 555
3 555 556 557
3 557 558 559
3 559 560 561
3 561 562 563
3 563 564 565
3 565 566 567
3 567 568 569
3 569 570 571
3 571 572 573
3 573 574 575
3 575 576 577
3 577 578 579
3 579 580 581
3 581 582 551
3 551 553 555
3 555 557 559
3 559 561 563
3 563 565 567
3 567 569 571
3 571 573 575
3 575 577 579
3 579 581 551
3 551 555 559
3 559 563 567
3 567 571 575
3 575 579 551
3 551 559 567
3 567 575 551
4 163 417 403 159
4 393 248 271 364
4 443 442 285 284
4 123 23 9 8
4 463 73 176 464
3 505 396 417
3 417 430 111
3 111 110 295
3 111 295 294
3 505 417 111
3 369 505 111
3 111 294 370
3 111 370 369
4 230 229 477 495
4 194 280 500 195
4 183 77 143 392
4 338 429 479 339
4 247 227 226 270
4 197 199 279 278
4 421 419 496 550
4 36 58 57 37
4 238 277 349 210
4 157 160 344 241
4 375 55 58 458
4 475 476 509 502
4 355 414 413 356
4 368 28 206 433
4 362 36 39 62
4 189 228 30 29
4 298 377 378 299
4 465 376 240 466
4 27 451 186 95
4 107 244 25 108
4 12 15 119 222
4 102 122 185 245
4 154 153 227 389
4 152 283 225 153
4 94 24 27 95
4 361 62 61 423
4 251 484 352 274
4 469 423 272 470
4 427 426 400 399
4 16 217 124 17
4 378 288 291 299
4 467 243 377 407
4 14 394 181 15
4 240 376 157 241
4 181 394 13 12
3 583 584 585
3 585 586 587
3 587 588 589
3 589 590 591
3 591 592 593
3 593 594 595
3 595 596 597
3 597 598 599
3 599 600 601
3 601 602 603
3 603 604 605
3 605 606 607
3 607 608 609
3 609 610 611
3 611 612 613
3 613 614 583
3 583 585 587
3 587 589 591
3 591 593 595
3 595 597 599
3 599 601 603
3 603 605 607
3 607 609 611
3 611 613 583
3 583 587 591
3 591 595 599
3 599 603 607
3 607 611 583
3 583 591 599
3 599 607 583
4 504 503 460 459
4 91 90 508 507
