ply
format ascii 1.0
comment Created by Blender 2.79 (sub 0) - www.blender.org, source file: 'brewer.blend'
element vertex 400
property float x
property float y
property float z
property float s
property float t
property uchar red
property uchar green
property uchar blue
element face 272
property list uchar uint vertex_indices
end_header
-0.225000 -1.380290 0.000960 0.500480 0.244710 255 255 255
-0.225000 -1.361630 0.118773 0.559387 0.263370 255 255 255
-0.225000 -1.425000 0.410000 0.705000 0.200000 255 255 255
-0.275000 -1.425000 0.410000 0.875000 0.705000 255 255 255
-0.225000 -1.425000 -0.410000 0.375000 0.295000 255 255 255
-0.225000 -1.425000 0.410000 0.375000 0.705000 255 255 255
-0.275000 -1.000000 -0.410000 0.875000 0.625000 255 255 255
-0.225000 -1.425000 -0.410000 0.375000 0.200000 255 255 255
-0.275000 -1.425000 -0.410000 0.875000 0.200000 255 255 255
-0.225000 -1.000000 -0.380138 0.375000 0.309931 255 255 255
-0.275000 -1.000000 -0.410000 0.875000 0.295000 255 255 255
-0.275000 -1.000000 -0.377714 0.875000 0.311143 255 255 255
-0.275000 -1.000000 0.410000 0.875000 0.705000 255 255 255
-0.225000 -1.000000 0.382059 0.375000 0.691029 255 255 255
-0.275000 -1.000000 0.379635 0.875000 0.689817 255 255 255
-0.225000 -1.000000 0.410000 0.375000 0.625000 255 255 255
-0.275000 -1.425000 0.410000 0.875000 0.200000 255 255 255
-0.225000 -1.425000 0.410000 0.375000 0.200000 255 255 255
-0.275000 -1.377867 0.000960 0.500480 0.247133 255 255 255
-0.275000 -1.359325 -0.116104 0.441948 0.265675 255 255 255
-0.275000 -1.425000 -0.410000 0.295000 0.200000 255 255 255
-0.275000 -1.116104 0.361246 0.875000 0.508896 255 255 255
-0.225000 -1.000000 0.382059 0.375000 0.625000 255 255 255
-0.225000 -1.116853 0.363551 0.375000 0.508147 255 255 255
-0.275000 -1.221709 0.307437 0.875000 0.403291 255 255 255
-0.225000 -1.223133 0.309398 0.375000 0.401867 255 255 255
-0.275000 -1.305517 0.223629 0.875000 0.319483 255 255 255
-0.225000 -1.307478 0.225053 0.375000 0.317522 255 255 255
-0.275000 -1.359325 0.118024 0.875000 0.265675 255 255 255
-0.225000 -1.361630 0.118773 0.375000 0.559387 255 255 255
-0.275000 -1.377867 0.000960 0.875000 0.500480 255 255 255
-0.275000 -1.359325 0.118024 0.875000 0.559012 255 255 255
-0.225000 -1.361630 -0.116853 0.375000 0.441574 255 255 255
-0.225000 -1.380290 0.000960 0.375000 0.500480 255 255 255
-0.225000 -1.307478 -0.223133 0.375000 0.317522 255 255 255
-0.275000 -1.359325 -0.116104 0.875000 0.265675 255 255 255
-0.225000 -1.361630 -0.116853 0.375000 0.263370 255 255 255
-0.225000 -1.223133 -0.307478 0.375000 0.401867 255 255 255
-0.275000 -1.305517 -0.221709 0.875000 0.319483 255 255 255
-0.225000 -1.116853 -0.361631 0.375000 0.508147 255 255 255
-0.275000 -1.221709 -0.305517 0.875000 0.403292 255 255 255
-0.225000 -1.000000 -0.380138 0.375000 0.625000 255 255 255
-0.275000 -1.116104 -0.359325 0.875000 0.508896 255 255 255
0.275000 -1.377867 0.000960 0.500480 0.247133 255 255 255
0.275000 -1.359325 0.118024 0.559012 0.265675 255 255 255
0.275000 -1.425000 0.410000 0.705000 0.200000 255 255 255
0.225000 -1.425000 0.410000 0.875000 0.705000 255 255 255
0.275000 -1.425000 -0.410000 0.375000 0.295000 255 255 255
0.275000 -1.425000 0.410000 0.375000 0.705000 255 255 255
0.225000 -1.000000 -0.410000 0.875000 0.625000 255 255 255
0.275000 -1.425000 -0.410000 0.375000 0.200000 255 255 255
0.225000 -1.425000 -0.410000 0.875000 0.200000 255 255 255
0.275000 -1.000000 -0.410000 0.375000 0.295000 255 255 255
0.225000 -1.000000 -0.380138 0.875000 0.309931 255 255 255
0.275000 -1.000000 -0.377714 0.375000 0.311143 255 255 255
0.275000 -1.000000 0.410000 0.375000 0.705000 255 255 255
0.225000 -1.000000 0.382058 0.875000 0.691029 255 255 255
0.225000 -1.000000 0.410000 0.875000 0.705000 255 255 255
0.275000 -1.000000 0.410000 0.375000 0.625000 255 255 255
0.225000 -1.425000 0.410000 0.875000 0.200000 255 255 255
0.275000 -1.425000 0.410000 0.375000 0.200000 255 255 255
0.225000 -1.380290 0.000960 0.500480 0.244710 255 255 255
0.225000 -1.361630 -0.116853 0.441574 0.263370 255 255 255
0.225000 -1.425000 -0.410000 0.295000 0.200000 255 255 255
0.225000 -1.000000 0.382058 0.875000 0.625000 255 255 255
0.275000 -1.116104 0.361246 0.375000 0.508896 255 255 255
0.225000 -1.116853 0.363551 0.875000 0.508147 255 255 255
0.275000 -1.221709 0.307437 0.375000 0.403291 255 255 255
0.225000 -1.223133 0.309398 0.875000 0.401867 255 255 255
0.275000 -1.305517 0.223629 0.375000 0.319483 255 255 255
0.225000 -1.307478 0.225053 0.875000 0.317522 255 255 255
0.275000 -1.359325 0.118024 0.375000 0.265675 255 255 255
0.225000 -1.361630 0.118773 0.875000 0.263370 255 255 255
0.225000 -1.361630 0.118773 0.875000 0.559387 255 255 255
0.275000 -1.377867 0.000960 0.375000 0.500480 255 255 255
0.225000 -1.380290 0.000960 0.875000 0.500480 255 255 255
0.225000 -1.361630 -0.116853 0.875000 0.441574 255 255 255
0.275000 -1.359325 -0.116104 0.375000 0.441948 255 255 255
0.225000 -1.307478 -0.223133 0.875000 0.317522 255 255 255
0.275000 -1.359325 -0.116104 0.375000 0.265675 255 255 255
0.275000 -1.305517 -0.221709 0.375000 0.319483 255 255 255
0.225000 -1.223133 -0.307478 0.875000 0.401867 255 255 255
0.275000 -1.221708 -0.305517 0.375000 0.403292 255 255 255
0.225000 -1.116853 -0.361630 0.875000 0.508147 255 255 255
0.275000 -1.116104 -0.359325 0.375000 0.508896 255 255 255
0.225000 -1.000000 -0.380138 0.875000 0.625000 255 255 255
-0.225000 -0.380290 0.000960 0.500480 0.244710 255 255 255
-0.225000 -0.361630 0.118773 0.559387 0.263370 255 255 255
-0.225000 -0.425000 0.410000 0.705000 0.200000 255 255 255
-0.275000 -0.425000 0.410000 0.875000 0.705000 255 255 255
-0.225000 -0.425000 -0.410000 0.375000 0.295000 255 255 255
-0.225000 -0.425000 0.410000 0.375000 0.705000 255 255 255
-0.275000 0.000000 -0.410000 0.875000 0.625000 255 255 255
-0.225000 -0.425000 -0.410000 0.375000 0.200000 255 255 255
-0.275000 -0.425000 -0.410000 0.875000 0.200000 255 255 255
-0.225000 0.000000 -0.380138 0.375000 0.309931 255 255 255
-0.275000 0.000000 -0.410000 0.875000 0.295000 255 255 255
-0.275000 0.000000 -0.377714 0.875000 0.311143 255 255 255
-0.275000 0.000000 0.410000 0.875000 0.705000 255 255 255
-0.225000 0.000000 0.382059 0.375000 0.691029 255 255 255
-0.275000 0.000000 0.379635 0.875000 0.689817 255 255 255
-0.225000 0.000000 0.410000 0.375000 0.625000 255 255 255
-0.275000 -0.425000 0.410000 0.875000 0.200000 255 255 255
-0.225000 -0.425000 0.410000 0.375000 0.200000 255 255 255
-0.275000 -0.377867 0.000960 0.500480 0.247133 255 255 255
-0.275000 -0.359325 -0.116104 0.441948 0.265675 255 255 255
-0.275000 -0.425000 -0.410000 0.295000 0.200000 255 255 255
-0.275000 -0.116104 0.361246 0.875000 0.508896 255 255 255
-0.225000 0.000000 0.382059 0.375000 0.625000 255 255 255
-0.225000 -0.116853 0.363551 0.375000 0.508147 255 255 255
-0.275000 -0.221709 0.307437 0.875000 0.403291 255 255 255
-0.225000 -0.223133 0.309398 0.375000 0.401867 255 255 255
-0.275000 -0.305517 0.223629 0.875000 0.319483 255 255 255
-0.225000 -0.307478 0.225053 0.375000 0.317522 255 255 255
-0.275000 -0.359325 0.118024 0.875000 0.265675 255 255 255
-0.225000 -0.361630 0.118773 0.375000 0.559387 255 255 255
-0.275000 -0.377867 0.000960 0.875000 0.500480 255 255 255
-0.275000 -0.359325 0.118024 0.875000 0.559012 255 255 255
-0.225000 -0.361630 -0.116853 0.375000 0.441574 255 255 255
-0.225000 -0.380290 0.000960 0.375000 0.500480 255 255 255
-0.225000 -0.307478 -0.223133 0.375000 0.317522 255 255 255
-0.275000 -0.359325 -0.116104 0.875000 0.265675 255 255 255
-0.225000 -0.361630 -0.116853 0.375000 0.263370 255 255 255
-0.225000 -0.223133 -0.307478 0.375000 0.401867 255 255 255
-0.275000 -0.305517 -0.221709 0.875000 0.319483 255 255 255
-0.225000 -0.116853 -0.361631 0.375000 0.508147 255 255 255
-0.275000 -0.221709 -0.305517 0.875000 0.403291 255 255 255
-0.225000 0.000000 -0.380138 0.375000 0.625000 255 255 255
-0.275000 -0.116104 -0.359325 0.875000 0.508896 255 255 255
0.275000 -0.377867 0.000960 0.500480 0.247133 255 255 255
0.275000 -0.359325 0.118024 0.559012 0.265675 255 255 255
0.275000 -0.425000 0.410000 0.705000 0.200000 255 255 255
0.225000 -0.425000 0.410000 0.875000 0.705000 255 255 255
0.275000 -0.425000 -0.410000 0.375000 0.295000 255 255 255
0.275000 -0.425000 0.410000 0.375000 0.705000 255 255 255
0.225000 0.000000 -0.410000 0.875000 0.625000 255 255 255
0.275000 -0.425000 -0.410000 0.375000 0.200000 255 255 255
0.225000 -0.425000 -0.410000 0.875000 0.200000 255 255 255
0.275000 0.000000 -0.410000 0.375000 0.295000 255 255 255
0.225000 0.000000 -0.380138 0.875000 0.309931 255 255 255
0.275000 0.000000 -0.377714 0.375000 0.311143 255 255 255
0.275000 0.000000 0.410000 0.375000 0.705000 255 255 255
0.225000 0.000000 0.382058 0.875000 0.691029 255 255 255
0.225000 0.000000 0.410000 0.875000 0.705000 255 255 255
0.275000 0.000000 0.410000 0.375000 0.625000 255 255 255
0.225000 -0.425000 0.410000 0.875000 0.200000 255 255 255
0.275000 -0.425000 0.410000 0.375000 0.200000 255 255 255
0.225000 -0.380290 0.000960 0.500480 0.244710 255 255 255
0.225000 -0.361630 -0.116853 0.441574 0.263370 255 255 255
0.225000 -0.425000 -0.410000 0.295000 0.200000 255 255 255
0.225000 0.000000 0.382058 0.875000 0.625000 255 255 255
0.275000 -0.116104 0.361246 0.375000 0.508896 255 255 255
0.225000 -0.116853 0.363551 0.875000 0.508147 255 255 255
0.275000 -0.221709 0.307437 0.375000 0.403291 255 255 255
0.225000 -0.223133 0.309398 0.875000 0.401867 255 255 255
0.275000 -0.305517 0.223629 0.375000 0.319483 255 255 255
0.225000 -0.307478 0.225053 0.875000 0.317522 255 255 255
0.275000 -0.359325 0.118024 0.375000 0.265675 255 255 255
0.225000 -0.361630 0.118773 0.875000 0.263370 255 255 255
0.225000 -0.361630 0.118773 0.875000 0.559387 255 255 255
0.275000 -0.377867 0.000960 0.375000 0.500480 255 255 255
0.225000 -0.380290 0.000960 0.875000 0.500480 255 255 255
0.225000 -0.361630 -0.116853 0.875000 0.441574 255 255 255
0.275000 -0.359325 -0.116104 0.375000 0.441948 255 255 255
0.225000 -0.307478 -0.223133 0.875000 0.317522 255 255 255
0.275000 -0.359325 -0.116104 0.375000 0.265675 255 255 255
0.275000 -0.305517 -0.221709 0.375000 0.319483 255 255 255
0.225000 -0.223133 -0.307478 0.875000 0.401867 255 255 255
0.275000 -0.221708 -0.305517 0.375000 0.403292 255 255 255
0.225000 -0.116853 -0.361630 0.875000 0.508147 255 255 255
0.275000 -0.116104 -0.359325 0.375000 0.508896 255 255 255
0.225000 0.000000 -0.380138 0.875000 0.625000 255 255 255
-0.200000 0.500000 -0.500000 -1.633647 -0.639223 255 255 255
-0.200000 -1.500000 -0.400000 0.782174 0.568687 255 255 255
-0.200000 -1.500000 -0.500000 0.782174 -0.639223 255 255 255
-0.200000 0.500000 -0.400000 -1.633647 0.206314 255 255 255
-0.300000 -1.500000 -0.400000 0.782174 1.414225 255 255 255
-0.200000 -1.500000 -0.400000 0.782174 0.206314 255 255 255
-0.300000 0.500000 -0.400000 -1.633647 0.568687 255 255 255
-0.300000 -1.500000 -0.500000 0.782174 -0.639223 255 255 255
-0.300000 -1.500000 -0.400000 0.782174 0.568687 255 255 255
-0.300000 0.500000 -0.500000 -1.633647 1.414225 255 255 255
-0.200000 -1.500000 -0.500000 0.782174 0.206314 255 255 255
-0.300000 -1.500000 -0.500000 0.782174 1.414225 255 255 255
-0.300000 -1.500000 -0.400000 0.117823 1.414225 255 255 255
-0.200000 -1.500000 -0.500000 1.325734 0.206314 255 255 255
-0.200000 -1.500000 -0.400000 0.117823 0.206314 255 255 255
-0.200000 0.500000 -0.400000 0.117823 0.206314 255 255 255
-0.300000 0.500000 -0.500000 1.325734 1.414225 255 255 255
-0.300000 0.500000 -0.400000 0.117823 1.414225 255 255 255
-0.200000 0.500000 0.400000 -1.633647 0.568686 255 255 255
-0.200000 -1.500000 0.500000 0.782174 1.776597 255 255 255
-0.200000 -1.500000 0.400000 0.782174 0.568686 255 255 255
-0.200000 0.500000 0.500000 -1.633647 0.206314 255 255 255
-0.300000 -1.500000 0.500000 0.782174 1.414225 255 255 255
-0.200000 -1.500000 0.500000 0.782174 0.206314 255 255 255
-0.300000 0.500000 0.500000 -1.633647 -0.639224 255 255 255
-0.300000 -1.500000 0.400000 0.782174 -1.847135 255 255 255
-0.300000 -1.500000 0.500000 0.782174 -0.639224 255 255 255
-0.300000 0.500000 0.400000 -1.633647 1.414225 255 255 255
-0.200000 -1.500000 0.400000 0.782174 0.206314 255 255 255
-0.300000 -1.500000 0.400000 0.782174 1.414225 255 255 255
-0.300000 -1.500000 0.500000 1.325735 1.414225 255 255 255
-0.200000 -1.500000 0.400000 2.533645 0.206314 255 255 255
-0.200000 -1.500000 0.500000 1.325735 0.206314 255 255 255
-0.200000 0.500000 0.500000 1.325735 0.206314 255 255 255
-0.300000 0.500000 0.400000 2.533645 1.414224 255 255 255
-0.300000 0.500000 0.500000 1.325735 1.414225 255 255 255
0.300000 0.500000 -0.500000 -1.633647 -0.639223 255 255 255
0.300000 -1.500000 -0.400000 0.782174 0.568687 255 255 255
0.300000 -1.500000 -0.500000 0.782174 -0.639223 255 255 255
0.300000 0.500000 -0.400000 -1.633647 1.414225 255 255 255
0.200000 -1.500000 -0.400000 0.782174 2.622135 255 255 255
0.300000 -1.500000 -0.400000 0.782174 1.414225 255 255 255
0.200000 0.500000 -0.400000 -1.633647 0.568687 255 255 255
0.200000 -1.500000 -0.500000 0.782174 -0.639223 255 255 255
0.200000 -1.500000 -0.400000 0.782174 0.568687 255 255 255
0.200000 0.500000 -0.500000 -1.633647 0.206314 255 255 255
0.300000 -1.500000 -0.500000 0.782174 -1.001596 255 255 255
0.200000 -1.500000 -0.500000 0.782174 0.206314 255 255 255
0.200000 -1.500000 -0.400000 0.117824 2.622135 255 255 255
0.300000 -1.500000 -0.500000 1.325734 1.414225 255 255 255
0.300000 -1.500000 -0.400000 0.117823 1.414225 255 255 255
0.300000 0.500000 -0.400000 0.117823 -1.001596 255 255 255
0.200000 0.500000 -0.500000 1.325734 0.206314 255 255 255
0.200000 0.500000 -0.400000 0.117823 0.206314 255 255 255
0.300000 0.500000 0.400000 -1.633647 0.568685 255 255 255
0.300000 -1.500000 0.500000 0.782174 1.776595 255 255 255
0.300000 -1.500000 0.400000 0.782174 0.568685 255 255 255
0.300000 0.500000 0.500000 -1.633647 1.414225 255 255 255
0.200000 -1.500000 0.500000 0.782174 2.622135 255 255 255
0.300000 -1.500000 0.500000 0.782174 1.414225 255 255 255
0.200000 0.500000 0.500000 -1.633647 -0.639225 255 255 255
0.200000 -1.500000 0.400000 0.782174 -1.847136 255 255 255
0.200000 -1.500000 0.500000 0.782174 -0.639225 255 255 255
0.200000 0.500000 0.400000 -1.633647 0.206314 255 255 255
0.300000 -1.500000 0.400000 0.782174 -1.001596 255 255 255
0.200000 -1.500000 0.400000 0.782174 0.206314 255 255 255
0.200000 -1.500000 0.500000 1.325736 2.622135 255 255 255
0.300000 -1.500000 0.400000 2.533647 1.414224 255 255 255
0.300000 -1.500000 0.500000 1.325736 1.414225 255 255 255
0.300000 0.500000 0.500000 1.325736 -1.001596 255 255 255
0.200000 0.500000 0.400000 2.533647 0.206314 255 255 255
0.200000 0.500000 0.500000 1.325736 0.206314 255 255 255
-0.225000 -1.425000 -0.410000 0.295000 0.200000 255 255 255
-0.225000 -1.000000 -0.410000 0.295000 0.625000 255 255 255
-0.225000 -1.116853 -0.361631 0.319185 0.508147 255 255 255
-0.225000 -1.000000 -0.380138 0.309931 0.625000 255 255 255
-0.225000 -1.000000 0.382059 0.691029 0.625000 255 255 255
-0.225000 -1.000000 0.410000 0.705000 0.625000 255 255 255
-0.225000 -1.116853 0.363551 0.681775 0.508147 255 255 255
-0.225000 -1.223133 -0.307478 0.346261 0.401867 255 255 255
-0.225000 -1.307478 -0.223133 0.388433 0.317522 255 255 255
-0.225000 -1.223133 0.309398 0.654699 0.401867 255 255 255
-0.225000 -1.307478 0.225053 0.612527 0.317522 255 255 255
-0.225000 -1.361630 -0.116853 0.441574 0.263370 255 255 255
-0.275000 -1.425000 -0.410000 0.875000 0.295000 255 255 255
-0.225000 -1.000000 -0.410000 0.375000 0.625000 255 255 255
-0.225000 -1.000000 -0.410000 0.375000 0.295000 255 255 255
-0.225000 -1.000000 0.410000 0.375000 0.705000 255 255 255
-0.275000 -1.000000 0.410000 0.875000 0.625000 255 255 255
-0.275000 -1.425000 0.410000 0.705000 0.200000 255 255 255
-0.275000 -1.000000 0.410000 0.705000 0.625000 255 255 255
-0.275000 -1.116104 0.361246 0.680623 0.508896 255 255 255
-0.275000 -1.000000 0.379635 0.689817 0.625000 255 255 255
-0.275000 -1.000000 -0.377714 0.311143 0.625000 255 255 255
-0.275000 -1.000000 -0.410000 0.295000 0.625000 255 255 255
-0.275000 -1.116104 -0.359325 0.320337 0.508896 255 255 255
-0.275000 -1.221709 0.307437 0.653719 0.403291 255 255 255
-0.275000 -1.305517 0.223629 0.611814 0.319483 255 255 255
-0.275000 -1.221709 -0.305517 0.347241 0.403292 255 255 255
-0.275000 -1.305517 -0.221709 0.389146 0.319483 255 255 255
-0.275000 -1.359325 0.118024 0.559012 0.265675 255 255 255
-0.275000 -1.000000 0.379635 0.875000 0.625000 255 255 255
-0.225000 -1.361630 0.118773 0.375000 0.263370 255 255 255
-0.275000 -1.359325 -0.116104 0.875000 0.441948 255 255 255
-0.275000 -1.000000 -0.377714 0.875000 0.625000 255 255 255
0.275000 -1.425000 -0.410000 0.295000 0.200000 255 255 255
0.275000 -1.000000 -0.410000 0.295000 0.625000 255 255 255
0.275000 -1.116104 -0.359325 0.320337 0.508896 255 255 255
0.275000 -1.000000 -0.377714 0.311143 0.625000 255 255 255
0.275000 -1.000000 0.379635 0.689817 0.625000 255 255 255
0.275000 -1.000000 0.410000 0.705000 0.625000 255 255 255
0.275000 -1.116104 0.361246 0.680623 0.508896 255 255 255
0.275000 -1.221708 -0.305517 0.347241 0.403292 255 255 255
0.275000 -1.305517 -0.221709 0.389146 0.319483 255 255 255
0.275000 -1.221709 0.307437 0.653719 0.403291 255 255 255
0.275000 -1.305517 0.223629 0.611814 0.319483 255 255 255
0.275000 -1.359325 -0.116104 0.441948 0.265675 255 255 255
0.225000 -1.425000 -0.410000 0.875000 0.295000 255 255 255
0.275000 -1.000000 -0.410000 0.375000 0.625000 255 255 255
0.225000 -1.000000 -0.410000 0.875000 0.295000 255 255 255
0.275000 -1.000000 0.379635 0.375000 0.689817 255 255 255
0.225000 -1.000000 0.410000 0.875000 0.625000 255 255 255
0.225000 -1.425000 0.410000 0.705000 0.200000 255 255 255
0.225000 -1.000000 0.410000 0.705000 0.625000 255 255 255
0.225000 -1.116853 0.363551 0.681775 0.508147 255 255 255
0.225000 -1.000000 0.382058 0.691029 0.625000 255 255 255
0.225000 -1.000000 -0.380138 0.309931 0.625000 255 255 255
0.225000 -1.000000 -0.410000 0.295000 0.625000 255 255 255
0.225000 -1.116853 -0.361630 0.319185 0.508147 255 255 255
0.225000 -1.223133 0.309398 0.654699 0.401867 255 255 255
0.225000 -1.307478 0.225053 0.612527 0.317522 255 255 255
0.225000 -1.223133 -0.307478 0.346261 0.401867 255 255 255
0.225000 -1.307478 -0.223133 0.388433 0.317522 255 255 255
0.225000 -1.361630 0.118773 0.559387 0.263370 255 255 255
0.275000 -1.000000 0.379635 0.375000 0.625000 255 255 255
0.275000 -1.359325 0.118024 0.375000 0.559012 255 255 255
0.225000 -1.361630 -0.116853 0.875000 0.263370 255 255 255
0.275000 -1.000000 -0.377714 0.375000 0.625000 255 255 255
-0.225000 -0.425000 -0.410000 0.295000 0.200000 255 255 255
-0.225000 0.000000 -0.410000 0.295000 0.625000 255 255 255
-0.225000 -0.116853 -0.361631 0.319185 0.508147 255 255 255
-0.225000 0.000000 -0.380138 0.309931 0.625000 255 255 255
-0.225000 0.000000 0.382059 0.691029 0.625000 255 255 255
-0.225000 0.000000 0.410000 0.705000 0.625000 255 255 255
-0.225000 -0.116853 0.363551 0.681775 0.508147 255 255 255
-0.225000 -0.223133 -0.307478 0.346261 0.401867 255 255 255
-0.225000 -0.307478 -0.223133 0.388433 0.317522 255 255 255
-0.225000 -0.223133 0.309398 0.654699 0.401867 255 255 255
-0.225000 -0.307478 0.225053 0.612527 0.317522 255 255 255
-0.225000 -0.361630 -0.116853 0.441574 0.263370 255 255 255
-0.275000 -0.425000 -0.410000 0.875000 0.295000 255 255 255
-0.225000 0.000000 -0.410000 0.375000 0.625000 255 255 255
-0.225000 0.000000 -0.410000 0.375000 0.295000 255 255 255
-0.225000 0.000000 0.410000 0.375000 0.705000 255 255 255
-0.275000 0.000000 0.410000 0.875000 0.625000 255 255 255
-0.275000 -0.425000 0.410000 0.705000 0.200000 255 255 255
-0.275000 0.000000 0.410000 0.705000 0.625000 255 255 255
-0.275000 -0.116104 0.361246 0.680623 0.508896 255 255 255
-0.275000 0.000000 0.379635 0.689817 0.625000 255 255 255
-0.275000 0.000000 -0.377714 0.311143 0.625000 255 255 255
-0.275000 0.000000 -0.410000 0.295000 0.625000 255 255 255
-0.275000 -0.116104 -0.359325 0.320337 0.508896 255 255 255
-0.275000 -0.221709 0.307437 0.653719 0.403291 255 255 255
-0.275000 -0.305517 0.223629 0.611814 0.319483 255 255 255
-0.275000 -0.221709 -0.305517 0.347241 0.403291 255 255 255
-0.275000 -0.305517 -0.221709 0.389146 0.319483 255 255 255
-0.275000 -0.359325 0.118024 0.559012 0.265675 255 255 255
-0.275000 0.000000 0.379635 0.875000 0.625000 255 255 255
-0.225000 -0.361630 0.118773 0.375000 0.263370 255 255 255
-0.275000 -0.359325 -0.116104 0.875000 0.441948 255 255 255
-0.275000 0.000000 -0.377714 0.875000 0.625000 255 255 255
0.275000 -0.425000 -0.410000 0.295000 0.200000 255 255 255
0.275000 0.000000 -0.410000 0.295000 0.625000 255 255 255
0.275000 -0.116104 -0.359325 0.320337 0.508896 255 255 255
0.275000 0.000000 -0.377714 0.311143 0.625000 255 255 255
0.275000 0.000000 0.379635 0.689817 0.625000 255 255 255
0.275000 0.000000 0.410000 0.705000 0.625000 255 255 255
0.275000 -0.116104 0.361246 0.680623 0.508896 255 255 255
0.275000 -0.221708 -0.305517 0.347241 0.403292 255 255 255
0.275000 -0.305517 -0.221709 0.389146 0.319483 255 255 255
0.275000 -0.221709 0.307437 0.653719 0.403291 255 255 255
0.275000 -0.305517 0.223629 0.611814 0.319483 255 255 255
0.275000 -0.359325 -0.116104 0.441948 0.265675 255 255 255
0.225000 -0.425000 -0.410000 0.875000 0.295000 255 255 255
0.275000 0.000000 -0.410000 0.375000 0.625000 255 255 255
0.225000 0.000000 -0.410000 0.875000 0.295000 255 255 255
0.275000 0.000000 0.379635 0.375000 0.689817 255 255 255
0.225000 0.000000 0.410000 0.875000 0.625000 255 255 255
0.225000 -0.425000 0.410000 0.705000 0.200000 255 255 255
0.225000 0.000000 0.410000 0.705000 0.625000 255 255 255
0.225000 -0.116853 0.363551 0.681775 0.508147 255 255 255
0.225000 0.000000 0.382058 0.691029 0.625000 255 255 255
0.225000 0.000000 -0.380138 0.309931 0.625000 255 255 255
0.225000 0.000000 -0.410000 0.295000 0.625000 255 255 255
0.225000 -0.116853 -0.361630 0.319185 0.508147 255 255 255
0.225000 -0.223133 0.309398 0.654699 0.401867 255 255 255
0.225000 -0.307478 0.225053 0.612527 0.317522 255 255 255
0.225000 -0.223133 -0.307478 0.346261 0.401867 255 255 255
0.225000 -0.307478 -0.223133 0.388433 0.317522 255 255 255
0.225000 -0.361630 0.118773 0.559387 0.263370 255 255 255
0.275000 0.000000 0.379635 0.375000 0.625000 255 255 255
0.275000 -0.359325 0.118024 0.375000 0.559012 255 255 255
0.225000 -0.361630 -0.116853 0.875000 0.263370 255 255 255
0.275000 0.000000 -0.377714 0.375000 0.625000 255 255 255
-0.200000 0.500000 -0.400000 -1.633647 0.568687 255 255 255
-0.300000 0.500000 -0.400000 -1.633647 1.414225 255 255 255
-0.300000 0.500000 -0.500000 -1.633647 -0.639223 255 255 255
-0.200000 0.500000 -0.500000 -1.633647 0.206314 255 255 255
-0.300000 -1.500000 -0.500000 1.325734 1.414225 255 255 255
-0.200000 0.500000 -0.500000 1.325734 0.206314 255 255 255
-0.200000 0.500000 0.500000 -1.633647 1.776597 255 255 255
-0.300000 0.500000 0.500000 -1.633647 1.414225 255 255 255
-0.300000 0.500000 0.400000 -1.633647 -1.847135 255 255 255
-0.200000 0.500000 0.400000 -1.633647 0.206314 255 255 255
-0.300000 -1.500000 0.400000 2.533645 1.414224 255 255 255
-0.200000 0.500000 0.400000 2.533645 0.206314 255 255 255
0.300000 0.500000 -0.400000 -1.633647 0.568687 255 255 255
0.200000 0.500000 -0.400000 -1.633647 2.622135 255 255 255
0.200000 0.500000 -0.500000 -1.633647 -0.639223 255 255 255
0.300000 0.500000 -0.500000 -1.633647 -1.001596 255 255 255
0.200000 -1.500000 -0.500000 1.325734 2.622135 255 255 255
0.300000 0.500000 -0.500000 1.325734 -1.001596 255 255 255
0.300000 0.500000 0.500000 -1.633647 1.776595 255 255 255
0.200000 0.500000 0.500000 -1.633647 2.622135 255 255 255
0.200000 0.500000 0.400000 -1.633647 -1.847136 255 255 255
0.300000 0.500000 0.400000 -1.633647 -1.001596 255 255 255
0.200000 -1.500000 0.400000 2.533647 2.622135 255 255 255
0.300000 0.500000 0.400000 2.533647 -1.001596 255 255 255
3 0 1 2
3 3 4 5
3 6 7 8
3 9 10 11
3 12 13 14
3 15 16 17
3 18 19 20
3 21 22 23
3 23 24 21
3 25 26 24
3 27 28 26
3 29 30 31
3 32 30 33
3 34 35 36
3 37 38 34
3 39 40 37
3 41 42 39
3 43 44 45
3 46 47 48
3 49 50 51
3 52 53 54
3 55 56 57
3 58 59 60
3 61 62 63
3 64 65 66
3 66 67 68
3 68 69 70
3 70 71 72
3 73 74 75
3 76 74 77
3 78 79 80
3 81 80 82
3 82 83 81
3 84 85 83
3 86 87 88
3 89 90 91
3 92 93 94
3 95 96 97
3 98 99 100
3 101 102 103
3 104 105 106
3 107 108 109
3 109 110 107
3 111 112 110
3 113 114 112
3 115 116 117
3 118 116 119
3 120 121 122
3 123 124 120
3 125 126 123
3 127 128 125
3 129 130 131
3 132 133 134
3 135 136 137
3 138 139 140
3 141 142 143
3 144 145 146
3 147 148 149
3 150 151 152
3 152 153 154
3 154 155 156
3 156 157 158
3 159 160 161
3 162 160 163
3 164 165 166
3 167 166 168
3 168 169 167
3 170 171 169
3 172 173 174
3 175 176 177
3 178 179 180
3 181 182 183
3 184 185 186
3 187 188 189
3 190 191 192
3 193 194 195
3 196 197 198
3 199 200 201
3 202 203 204
3 205 206 207
3 208 209 210
3 211 212 213
3 214 215 216
3 217 218 219
3 220 221 222
3 223 224 225
3 226 227 228
3 229 230 231
3 232 233 234
3 235 236 237
3 238 239 240
3 241 242 243
3 244 245 246
3 245 247 246
3 248 249 250
3 249 2 250
3 244 246 251
3 244 251 252
3 253 250 2
3 254 253 2
3 244 252 255
3 244 255 0
3 1 254 2
3 2 244 0
3 3 256 4
3 6 257 7
3 9 258 10
3 12 259 13
3 15 260 16
3 261 262 263
3 262 264 263
3 265 266 267
3 266 20 267
3 261 263 268
3 261 268 269
3 270 267 20
3 271 270 20
3 261 269 272
3 261 272 18
3 19 271 20
3 20 261 18
3 21 273 22
3 23 25 24
3 25 27 26
3 27 274 28
3 29 33 30
3 32 275 30
3 34 38 35
3 37 40 38
3 39 42 40
3 41 276 42
3 277 278 279
3 278 280 279
3 281 282 283
3 282 45 283
3 277 279 284
3 277 284 285
3 286 283 45
3 287 286 45
3 277 285 288
3 277 288 43
3 44 287 45
3 45 277 43
3 46 289 47
3 49 290 50
3 52 291 53
3 55 292 56
3 58 293 59
3 294 295 296
3 295 297 296
3 298 299 300
3 299 63 300
3 294 296 301
3 294 301 302
3 303 300 63
3 304 303 63
3 294 302 305
3 294 305 61
3 62 304 63
3 63 294 61
3 64 306 65
3 66 65 67
3 68 67 69
3 70 69 71
3 73 307 74
3 76 75 74
3 78 308 79
3 81 78 80
3 82 84 83
3 84 309 85
3 310 311 312
3 311 313 312
3 314 315 316
3 315 88 316
3 310 312 317
3 310 317 318
3 319 316 88
3 320 319 88
3 310 318 321
3 310 321 86
3 87 320 88
3 88 310 86
3 89 322 90
3 92 323 93
3 95 324 96
3 98 325 99
3 101 326 102
3 327 328 329
3 328 330 329
3 331 332 333
3 332 106 333
3 327 329 334
3 327 334 335
3 336 333 106
3 337 336 106
3 327 335 338
3 327 338 104
3 105 337 106
3 106 327 104
3 107 339 108
3 109 111 110
3 111 113 112
3 113 340 114
3 115 119 116
3 118 341 116
3 120 124 121
3 123 126 124
3 125 128 126
3 127 342 128
3 343 344 345
3 344 346 345
3 347 348 349
3 348 131 349
3 343 345 350
3 343 350 351
3 352 349 131
3 353 352 131
3 343 351 354
3 343 354 129
3 130 353 131
3 131 343 129
3 132 355 133
3 135 356 136
3 138 357 139
3 141 358 142
3 144 359 145
3 360 361 362
3 361 363 362
3 364 365 366
3 365 149 366
3 360 362 367
3 360 367 368
3 369 366 149
3 370 369 149
3 360 368 371
3 360 371 147
3 148 370 149
3 149 360 147
3 150 372 151
3 152 151 153
3 154 153 155
3 156 155 157
3 159 373 160
3 162 161 160
3 164 374 165
3 167 164 166
3 168 170 169
3 170 375 171
3 172 376 173
3 175 377 176
3 178 378 179
3 181 379 182
3 184 380 185
3 187 381 188
3 190 382 191
3 193 383 194
3 196 384 197
3 199 385 200
3 202 386 203
3 205 387 206
3 208 388 209
3 211 389 212
3 214 390 215
3 217 391 218
3 220 392 221
3 223 393 224
3 226 394 227
3 229 395 230
3 232 396 233
3 235 397 236
3 238 398 239
3 241 399 242
