ply
format ascii 1.0
comment Created by Blender 2.79 (sub 0) - www.blender.org, source file: 'large brick kiln.blend'
element vertex 160
property float x
property float y
property float z
property float s
property float t
element face 128
property list uchar uint vertex_indices
end_header
-0.025000 -0.790000 1.125000 0.707711 0.707711
-0.025000 -0.910000 1.275000 0.292289 0.292289
-0.025000 -0.910000 1.125000 0.292289 0.707711
-0.360000 -0.910000 1.140000 0.333831 0.310093
-0.375000 -0.910000 1.275000 0.707711 0.292289
-0.375000 -0.910000 1.125000 0.292289 0.292289
-0.025000 -0.910000 1.275000 0.707711 0.707711
-0.360000 -0.910000 1.260000 0.666169 0.310093
-0.040000 -0.910000 1.260000 0.666169 0.689907
-0.375000 -0.790000 1.125000 0.707711 0.292289
-0.040000 -0.790000 1.260000 0.666169 0.689907
-0.375000 -0.790000 1.275000 0.707711 0.292289
-0.025000 -0.790000 1.275000 0.707711 0.707711
-0.360000 -0.790000 1.140000 0.333831 0.310093
-0.040000 -0.790000 1.140000 0.333831 0.689907
-0.375000 -0.790000 1.125000 0.292289 0.292289
-0.375000 -0.910000 1.275000 0.292289 0.292289
-0.025000 -0.910000 1.275000 0.292289 0.707711
-0.375000 -0.910000 1.125000 0.292289 0.707711
-0.040000 -0.910000 1.260000 0.292289 0.333831
-0.040000 -0.790000 1.140000 0.707711 0.666169
-0.040000 -0.910000 1.140000 0.292289 0.666169
-0.040000 -0.910000 1.140000 0.292289 0.689907
-0.360000 -0.790000 1.140000 0.707711 0.310093
-0.360000 -0.910000 1.140000 0.292289 0.310093
-0.360000 -0.910000 1.260000 0.292289 0.310093
-0.040000 -0.790000 1.260000 0.707711 0.689907
-0.040000 -0.910000 1.260000 0.292289 0.689907
-0.360000 -0.910000 1.140000 0.292289 0.666169
-0.360000 -0.790000 1.260000 0.707711 0.333831
-0.360000 -0.910000 1.260000 0.292289 0.333831
-0.025000 -0.790000 1.275000 0.707711 0.292289
-0.040000 -0.910000 1.140000 0.333831 0.689907
-0.025000 -0.790000 1.125000 0.292289 0.707711
-0.360000 -0.790000 1.260000 0.666169 0.310093
-0.375000 -0.790000 1.125000 0.707711 0.707711
-0.040000 -0.790000 1.260000 0.707711 0.333831
-0.040000 -0.790000 1.140000 0.707711 0.689907
-0.360000 -0.790000 1.260000 0.707711 0.310093
-0.360000 -0.790000 1.140000 0.707711 0.666169
-0.025000 -0.790000 -1.275000 0.707711 0.707711
-0.025000 -0.910000 -1.125000 0.292289 0.292289
-0.025000 -0.910000 -1.275000 0.292289 0.707711
-0.360000 -0.910000 -1.260000 0.333831 0.310093
-0.375000 -0.910000 -1.125000 0.707711 0.292289
-0.375000 -0.910000 -1.275000 0.292289 0.292289
-0.025000 -0.910000 -1.125000 0.707711 0.707711
-0.360000 -0.910000 -1.140000 0.666169 0.310093
-0.040000 -0.910000 -1.140000 0.666169 0.689907
-0.375000 -0.790000 -1.275000 0.707711 0.292289
-0.040000 -0.790000 -1.140000 0.666169 0.689907
-0.375000 -0.790000 -1.125000 0.707711 0.292289
-0.025000 -0.790000 -1.125000 0.707711 0.707711
-0.360000 -0.790000 -1.260000 0.333831 0.310093
-0.040000 -0.790000 -1.260000 0.333831 0.689907
-0.375000 -0.790000 -1.275000 0.292289 0.292289
-0.375000 -0.910000 -1.125000 0.292289 0.292289
-0.025000 -0.910000 -1.125000 0.292289 0.707711
-0.375000 -0.910000 -1.275000 0.292289 0.707711
-0.040000 -0.910000 -1.140000 0.292289 0.333831
-0.040000 -0.790000 -1.260000 0.707711 0.666169
-0.040000 -0.910000 -1.260000 0.292289 0.666169
-0.040000 -0.910000 -1.260000 0.292289 0.689907
-0.360000 -0.790000 -1.260000 0.707711 0.310093
-0.360000 -0.910000 -1.260000 0.292289 0.310093
-0.360000 -0.910000 -1.140000 0.292289 0.310093
-0.040000 -0.790000 -1.140000 0.707711 0.689907
-0.040000 -0.910000 -1.140000 0.292289 0.689907
-0.360000 -0.910000 -1.260000 0.292289 0.666169
-0.360000 -0.790000 -1.140000 0.707711 0.333831
-0.360000 -0.910000 -1.140000 0.292289 0.333831
-0.025000 -0.790000 -1.125000 0.707711 0.292289
-0.040000 -0.910000 -1.260000 0.333831 0.689907
-0.025000 -0.790000 -1.275000 0.292289 0.707711
-0.360000 -0.790000 -1.140000 0.666169 0.310093
-0.375000 -0.790000 -1.275000 0.707711 0.707711
-0.040000 -0.790000 -1.140000 0.707711 0.333831
-0.040000 -0.790000 -1.260000 0.707711 0.689907
-0.360000 -0.790000 -1.140000 0.707711 0.310093
-0.360000 -0.790000 -1.260000 0.707711 0.666169
2.375000 -0.790000 1.125000 0.707711 0.707711
2.375000 -0.910000 1.275000 0.292289 0.292289
2.375000 -0.910000 1.125000 0.292289 0.707711
2.040000 -0.910000 1.140000 0.333831 0.310093
2.025000 -0.910000 1.275000 0.707711 0.292289
2.025000 -0.910000 1.125000 0.292289 0.292289
2.375000 -0.910000 1.275000 0.707711 0.707711
2.040000 -0.910000 1.260000 0.666169 0.310093
2.360000 -0.910000 1.260000 0.666169 0.689907
2.025000 -0.790000 1.125000 0.707711 0.292289
2.360000 -0.790000 1.260000 0.666169 0.689907
2.025000 -0.790000 1.275000 0.707711 0.292289
2.375000 -0.790000 1.275000 0.707711 0.707711
2.040000 -0.790000 1.140000 0.333831 0.310093
2.360000 -0.790000 1.140000 0.333831 0.689907
2.025000 -0.790000 1.125000 0.292289 0.292289
2.025000 -0.910000 1.275000 0.292289 0.292289
2.375000 -0.910000 1.275000 0.292289 0.707711
2.025000 -0.910000 1.125000 0.292289 0.707711
2.360000 -0.910000 1.260000 0.292289 0.333831
2.360000 -0.790000 1.140000 0.707711 0.666169
2.360000 -0.910000 1.140000 0.292289 0.666169
2.360000 -0.910000 1.140000 0.292289 0.689907
2.040000 -0.790000 1.140000 0.707711 0.310093
2.040000 -0.910000 1.140000 0.292289 0.310093
2.040000 -0.910000 1.260000 0.292289 0.310093
2.360000 -0.790000 1.260000 0.707711 0.689907
2.360000 -0.910000 1.260000 0.292289 0.689907
2.040000 -0.910000 1.140000 0.292289 0.666169
2.040000 -0.790000 1.260000 0.707711 0.333831
2.040000 -0.910000 1.260000 0.292289 0.333831
2.375000 -0.790000 1.275000 0.707711 0.292289
2.360000 -0.910000 1.140000 0.333831 0.689907
2.375000 -0.790000 1.125000 0.292289 0.707711
2.040000 -0.790000 1.260000 0.666169 0.310093
2.025000 -0.790000 1.125000 0.707711 0.707711
2.360000 -0.790000 1.260000 0.707711 0.333831
2.360000 -0.790000 1.140000 0.707711 0.689907
2.040000 -0.790000 1.260000 0.707711 0.310093
2.040000 -0.790000 1.140000 0.707711 0.666169
2.375000 -0.790000 -1.275000 0.707711 0.707711
2.375000 -0.910000 -1.125000 0.292289 0.292289
2.375000 -0.910000 -1.275000 0.292289 0.707711
2.040000 -0.910000 -1.259999 0.333831 0.310093
2.025000 -0.910000 -1.125000 0.707711 0.292289
2.025000 -0.910000 -1.275000 0.292289 0.292289
2.375000 -0.910000 -1.125000 0.707711 0.707711
2.040000 -0.910000 -1.139999 0.666169 0.310093
2.360000 -0.910000 -1.139999 0.666169 0.689907
2.025000 -0.790000 -1.275000 0.707711 0.292289
2.360000 -0.790000 -1.139999 0.666169 0.689907
2.025000 -0.790000 -1.125000 0.707711 0.292289
2.375000 -0.790000 -1.125000 0.707711 0.707711
2.040000 -0.790000 -1.259999 0.333831 0.310093
2.360000 -0.790000 -1.259999 0.333831 0.689907
2.025000 -0.790000 -1.275000 0.292289 0.292289
2.025000 -0.910000 -1.125000 0.292289 0.292289
2.375000 -0.910000 -1.125000 0.292289 0.707711
2.025000 -0.910000 -1.275000 0.292289 0.707711
2.360000 -0.910000 -1.139999 0.292289 0.333831
2.360000 -0.790000 -1.259999 0.707711 0.666169
2.360000 -0.910000 -1.259999 0.292289 0.666169
2.360000 -0.910000 -1.259999 0.292289 0.689907
2.040000 -0.790000 -1.259999 0.707711 0.310093
2.040000 -0.910000 -1.259999 0.292289 0.310093
2.040000 -0.910000 -1.139999 0.292289 0.310093
2.360000 -0.790000 -1.139999 0.707711 0.689907
2.360000 -0.910000 -1.139999 0.292289 0.689907
2.040000 -0.910000 -1.259999 0.292289 0.666169
2.040000 -0.790000 -1.139999 0.707711 0.333831
2.040000 -0.910000 -1.139999 0.292289 0.333831
2.375000 -0.790000 -1.125000 0.707711 0.292289
2.360000 -0.910000 -1.259999 0.333831 0.689907
2.375000 -0.790000 -1.275000 0.292289 0.707711
2.040000 -0.790000 -1.139999 0.666169 0.310093
2.025000 -0.790000 -1.275000 0.707711 0.707711
2.360000 -0.790000 -1.139999 0.707711 0.333831
2.360000 -0.790000 -1.259999 0.707711 0.689907
2.040000 -0.790000 -1.139999 0.707711 0.310093
2.040000 -0.790000 -1.259999 0.707711 0.666169
3 0 1 2
3 3 4 5
3 6 7 8
3 9 2 5
3 10 11 12
3 13 14 15
3 12 16 17
3 11 18 16
3 19 20 21
3 22 23 24
3 25 26 27
3 28 29 30
3 0 31 1
3 5 2 32
3 3 7 4
3 5 32 3
3 32 2 6
3 6 4 7
3 8 32 6
3 9 0 2
3 12 33 10
3 33 14 10
3 10 34 11
3 14 33 15
3 15 11 13
3 11 34 13
3 12 11 16
3 11 35 18
3 19 36 20
3 22 37 23
3 25 38 26
3 28 39 29
3 40 41 42
3 43 44 45
3 46 47 48
3 49 42 45
3 50 51 52
3 53 54 55
3 52 56 57
3 51 58 56
3 59 60 61
3 62 63 64
3 65 66 67
3 68 69 70
3 40 71 41
3 45 42 72
3 43 47 44
3 45 72 43
3 72 42 46
3 46 44 47
3 48 72 46
3 49 40 42
3 52 73 50
3 73 54 50
3 50 74 51
3 54 73 55
3 55 51 53
3 51 74 53
3 52 51 56
3 51 75 58
3 59 76 60
3 62 77 63
3 65 78 66
3 68 79 69
3 80 81 82
3 83 84 85
3 86 87 88
3 89 82 85
3 90 91 92
3 93 94 95
3 92 96 97
3 91 98 96
3 99 100 101
3 102 103 104
3 105 106 107
3 108 109 110
3 80 111 81
3 85 82 112
3 83 87 84
3 85 112 83
3 112 82 86
3 86 84 87
3 88 112 86
3 89 80 82
3 92 113 90
3 113 94 90
3 90 114 91
3 94 113 95
3 95 91 93
3 91 114 93
3 92 91 96
3 91 115 98
3 99 116 100
3 102 117 103
3 105 118 106
3 108 119 109
3 120 121 122
3 123 124 125
3 126 127 128
3 129 122 125
3 130 131 132
3 133 134 135
3 132 136 137
3 131 138 136
3 139 140 141
3 142 143 144
3 145 146 147
3 148 149 150
3 120 151 121
3 125 122 152
3 123 127 124
3 125 152 123
3 152 122 126
3 126 124 127
3 128 152 126
3 129 120 122
3 132 153 130
3 153 134 130
3 130 154 131
3 134 153 135
3 135 131 133
3 131 154 133
3 132 131 136
3 131 155 138
3 139 156 140
3 142 157 143
3 145 158 146
3 148 159 149
