ply
format ascii 1.0
comment Created by Blender 2.79 (sub 0) - www.blender.org, source file: 'carpenter.blend'
element vertex 207
property float x
property float y
property float z
property float s
property float t
property uchar red
property uchar green
property uchar blue
element face 188
property list uchar uint vertex_indices
end_header
0.028894 0.774453 -1.280576 0.000000 0.000000 255 0 0
0.003179 0.521293 -0.740042 1.000000 1.000000 255 0 0
0.003179 0.521293 -1.280576 0.000000 1.000000 255 0 0
0.003179 0.521293 -0.740042 0.923354 1.000000 255 0 0
-0.249981 0.547008 -1.280576 0.076645 0.000000 255 0 0
0.003179 0.521293 -1.280576 0.000000 0.727507 255 0 0
-0.224266 0.800168 -1.280576 1.000000 0.000000 255 0 0
-0.249981 0.547008 -1.280576 1.000000 1.000000 255 0 0
-0.224266 0.800168 -1.280576 0.076645 0.000000 255 0 0
-0.121473 0.789727 -0.740042 0.968879 0.567890 255 0 0
0.028894 0.774453 -0.740042 0.923354 1.000000 255 0 0
0.486266 0.827462 -0.740042 0.000000 0.000000 255 0 0
0.451979 0.489915 -0.740042 0.000000 0.800000 255 0 0
0.028894 0.774453 -0.740042 0.530146 0.233333 255 0 0
-0.249981 0.547008 -1.280576 0.000000 1.000000 255 0 0
-0.224266 0.800168 -0.740042 1.000000 0.000000 255 0 0
-0.224266 0.800168 -1.280576 0.000000 0.000000 255 0 0
-0.357600 0.913178 -0.740042 1.000000 0.000000 255 0 0
-0.224266 0.800168 -0.740042 0.417642 0.233333 255 0 0
-0.400458 0.491245 -0.740042 1.000000 1.000000 255 0 0
-0.292359 0.906551 0.640185 0.869158 0.271634 255 0 0
-0.357600 0.913178 -0.740042 0.085622 0.000000 255 0 0
-0.357600 0.913178 0.673639 0.894929 0.219165 255 0 0
0.786325 0.796983 0.683635 0.784585 1.000000 255 0 0
0.486267 0.827462 0.382034 0.642368 0.358016 255 0 0
0.700176 0.805734 0.641512 0.769211 0.829870 255 0 0
0.486267 0.827462 0.382034 0.793726 0.000000 255 0 0
0.474124 0.707914 0.382034 0.793726 0.354167 255 0 0
-0.400458 0.491245 -0.740042 0.095674 0.000000 255 0 0
0.451980 0.489916 0.673639 0.904326 1.000000 255 0 0
-0.400458 0.491245 0.673639 1.000000 0.227130 255 0 0
-0.400458 0.491245 -0.740042 0.000000 1.000000 255 0 0
-0.357600 0.913178 0.673639 1.000000 0.000000 255 0 0
-0.357600 0.913178 -0.740042 0.000000 0.000000 255 0 0
0.006015 0.521005 0.673639 0.526786 0.833333 255 0 0
0.451980 0.489916 0.673639 0.000000 0.800000 255 0 0
0.127753 0.743097 0.673639 0.410457 0.283333 255 0 0
0.127753 0.743097 0.673639 0.000000 1.000000 255 0 0
0.468083 0.829309 1.003515 1.000000 0.000000 255 0 0
0.139896 0.862645 0.673639 0.000000 0.000000 255 0 0
0.455940 0.709761 1.003515 0.161859 0.000000 255 0 0
0.786325 0.796983 0.683635 0.000000 1.000000 255 0 0
0.468083 0.829309 1.003515 0.000000 0.000000 255 0 0
0.474124 0.707914 0.382034 0.272988 0.401435 255 0 0
0.786325 0.796983 0.683635 0.175093 0.000000 255 0 0
0.774181 0.677435 0.683635 0.272988 0.000000 255 0 0
0.474123 0.707914 0.673639 0.466790 0.534373 255 0 0
0.774181 0.677435 0.683635 0.397662 1.000000 255 0 0
0.455940 0.709761 1.003515 1.000000 0.595597 255 0 0
-0.221430 0.799880 0.673639 0.633963 0.233333 255 0 0
-0.400458 0.491245 0.673639 1.000000 1.000000 255 0 0
-0.221430 0.799880 0.673639 0.064877 0.000000 255 0 0
0.031730 0.774165 1.320367 0.935123 1.000000 255 0 0
0.031730 0.774165 0.673639 0.000000 0.690540 255 0 0
0.031730 0.774165 0.673639 0.000000 0.000000 255 0 0
0.006015 0.521005 1.320367 1.000000 1.000000 255 0 0
0.006015 0.521005 0.673639 0.000000 1.000000 255 0 0
-0.247145 0.546720 0.673639 0.064877 0.000000 255 0 0
0.006015 0.521005 1.320367 0.935123 1.000000 255 0 0
-0.247145 0.546720 1.320367 1.000000 0.309460 255 0 0
-0.247145 0.546720 0.673639 0.000000 1.000000 255 0 0
-0.221430 0.799880 1.320367 1.000000 0.000000 255 0 0
-0.221430 0.799880 0.673639 0.000000 0.000000 255 0 0
0.031730 0.774165 1.320367 0.000000 0.000000 255 0 0
-0.247145 0.546720 1.320367 1.000000 1.000000 255 0 0
0.006015 0.521005 1.320367 0.000000 1.000000 255 0 0
0.419654 0.834228 0.945803 1.000000 0.000000 0 255 0
0.128630 0.754203 0.633837 0.000000 1.000000 0 255 0
0.139648 0.862670 0.633837 0.000000 0.000000 0 255 0
-0.274495 0.904737 -0.686649 0.723618 1.000000 0 255 0
0.444806 0.694148 -0.697423 0.270957 0.000000 0 255 0
0.458633 0.830268 -0.697423 0.723617 0.000000 0 255 0
0.128630 0.754203 0.633837 0.558059 0.000000 0 255 0
0.408637 0.725761 0.945803 1.000000 0.595743 0 255 0
0.689158 0.697267 0.641512 0.403631 1.000000 0 255 0
0.433425 0.723243 0.356589 0.000000 1.000000 0 255 0
0.700176 0.805734 0.641512 1.000000 0.000000 0 255 0
0.444442 0.831710 0.356589 0.000000 0.000000 0 255 0
0.700176 0.805734 0.641512 0.000000 0.000000 0 255 0
0.408637 0.725761 0.945803 1.000000 1.000000 0 255 0
-0.292359 0.906551 0.640186 1.000000 0.000000 0 255 0
-0.296598 0.687135 -0.686649 0.000000 1.000000 0 255 0
-0.274495 0.904737 -0.686649 0.000000 0.000000 0 255 0
0.426942 0.695962 0.629412 0.904326 1.000000 0 255 0
-0.296598 0.687135 -0.686649 0.095674 0.000000 0 255 0
-0.314462 0.688950 0.640186 1.000000 0.227130 0 255 0
0.426942 0.695962 0.629412 1.000000 1.000000 0 255 0
0.429751 0.723616 0.629412 1.000000 0.796840 0 255 0
0.433425 0.723243 0.356589 0.794381 0.796840 0 255 0
0.128630 0.754203 0.633837 0.410732 0.498465 0 255 0
0.426942 0.695962 0.629412 0.000000 0.625552 0 255 0
-0.314462 0.688950 0.640186 1.000000 1.000000 0 255 0
0.028894 0.774453 -0.740042 1.000000 0.000000 255 0 0
-0.249981 0.547008 -0.740042 1.000000 0.272494 255 0 0
0.028894 0.774453 -1.280576 0.000000 0.727507 255 0 0
-0.224266 0.800168 -0.740042 1.000000 0.272494 255 0 0
-0.249981 0.547008 -0.740042 0.830146 0.833333 255 0 0
0.003179 0.521293 -0.740042 0.530146 0.833333 255 0 0
-0.121473 0.789727 -0.740042 0.708333 0.233333 255 0 0
-0.249981 0.547008 -0.740042 1.000000 1.000000 255 0 0
-0.121473 0.789727 -0.740042 0.000000 0.233333 255 0 0
-0.249981 0.547008 -0.740042 0.417642 0.833333 255 0 0
0.139896 0.862645 0.673639 0.844451 0.658824 255 0 0
0.468083 0.829309 1.003515 1.000000 1.000000 255 0 0
0.419654 0.834228 0.945803 0.971875 0.948254 255 0 0
0.458632 0.830269 -0.697423 0.027203 0.727951 255 0 0
0.449510 0.831195 -0.019830 0.416038 0.824936 255 0 0
0.486266 0.827462 -0.740042 0.000000 0.745765 255 0 0
0.139648 0.862670 0.633836 0.821690 0.652434 255 0 0
-0.274495 0.904737 -0.686649 0.107756 0.081722 255 0 0
0.449510 0.831195 -0.019830 0.416038 0.162941 255 0 0
0.419654 0.834228 0.945803 0.971875 0.416739 255 0 0
0.468083 0.829309 1.003515 1.000000 0.523237 255 0 0
0.444442 0.831710 0.356588 0.632045 0.273827 255 0 0
0.474123 0.707914 0.673639 1.000000 0.354167 255 0 0
0.451980 0.489916 0.673639 1.000000 1.000000 255 0 0
0.451979 0.489915 -0.740042 0.000000 1.000000 255 0 0
0.451979 0.489915 -0.740042 0.000000 0.772870 255 0 0
0.139896 0.862645 0.673639 0.410457 0.000000 255 0 0
-0.221430 0.799880 0.673639 0.826786 0.233333 255 0 0
0.031730 0.774165 0.673639 0.526786 0.233333 255 0 0
0.474123 0.707914 0.673639 0.000000 0.283333 255 0 0
0.455940 0.709761 1.003515 1.000000 1.000000 255 0 0
0.774181 0.677435 0.683635 0.161859 1.000000 255 0 0
0.486267 0.827462 0.382034 0.175093 0.401435 255 0 0
0.127753 0.743097 0.673639 0.565058 0.000000 255 0 0
0.474124 0.707914 0.382034 0.000000 0.455452 255 0 0
0.006015 0.521005 0.673639 0.000000 0.833333 255 0 0
-0.247145 0.546720 0.673639 0.633963 0.833333 255 0 0
-0.221430 0.799880 1.320367 1.000000 0.309460 255 0 0
0.031730 0.774165 1.320367 1.000000 0.000000 255 0 0
0.006015 0.521005 0.673639 0.000000 0.690540 255 0 0
0.433425 0.723243 0.356589 0.000000 0.455901 0 255 0
0.429751 0.723616 0.629412 0.460698 0.534542 0 255 0
0.689158 0.697267 0.641512 1.000000 1.000000 0 255 0
0.689158 0.697267 0.641512 0.000000 1.000000 0 255 0
0.444806 0.694148 -0.697423 0.000000 0.772870 0 255 0
0.444442 0.831710 0.356589 0.794381 0.000000 0 255 0
0.449510 0.831195 -0.019830 0.510684 0.000000 0 255 0
0.458633 0.830268 -0.697423 0.000000 0.000000 0 255 0
0.444806 0.694148 -0.697423 0.000000 1.000000 0 255 0
0.139648 0.862670 0.633837 0.410732 0.000000 0 255 0
0.429751 0.723616 0.629412 0.000000 0.498465 0 255 0
-0.000000 0.491000 -1.250000 0.000000 0.000000 0 0 255
-0.000000 0.501000 -1.250000 0.000000 0.000000 0 0 255
0.078036 0.501000 -1.225982 0.000000 0.000000 0 0 255
0.078036 0.491000 -1.225982 0.000000 0.000000 0 0 255
0.153073 0.501000 -1.154849 0.000000 0.000000 0 0 255
0.153073 0.491000 -1.154849 0.000000 0.000000 0 0 255
0.222228 0.501000 -1.039337 0.000000 0.000000 0 0 255
0.222228 0.491000 -1.039337 0.000000 0.000000 0 0 255
0.282843 0.501000 -0.883883 0.000000 0.000000 0 0 255
0.282843 0.491000 -0.883883 0.000000 0.000000 0 0 255
0.332588 0.501000 -0.694463 0.000000 0.000000 0 0 255
0.332588 0.491000 -0.694463 0.000000 0.000000 0 0 255
0.369552 0.501000 -0.478354 0.000000 0.000000 0 0 255
0.369552 0.491000 -0.478354 0.000000 0.000000 0 0 255
0.392314 0.501000 -0.243863 0.000000 0.000000 0 0 255
0.392314 0.491000 -0.243863 0.000000 0.000000 0 0 255
0.400000 0.501000 -0.000000 0.000000 0.000000 0 0 255
0.400000 0.491000 -0.000000 0.000000 0.000000 0 0 255
0.392314 0.501000 0.243863 0.000000 0.000000 0 0 255
0.392314 0.491000 0.243863 0.000000 0.000000 0 0 255
0.369552 0.501000 0.478354 0.000000 0.000000 0 0 255
0.369552 0.491000 0.478354 0.000000 0.000000 0 0 255
0.332588 0.501000 0.694463 0.000000 0.000000 0 0 255
0.332588 0.491000 0.694463 0.000000 0.000000 0 0 255
0.282843 0.501000 0.883883 0.000000 0.000000 0 0 255
0.282843 0.491000 0.883883 0.000000 0.000000 0 0 255
0.222228 0.501000 1.039337 0.000000 0.000000 0 0 255
0.222228 0.491000 1.039337 0.000000 0.000000 0 0 255
0.153073 0.501000 1.154850 0.000000 0.000000 0 0 255
0.153073 0.491000 1.154850 0.000000 0.000000 0 0 255
0.078036 0.501000 1.225982 0.000000 0.000000 0 0 255
0.078036 0.491000 1.225982 0.000000 0.000000 0 0 255
-0.000000 0.501000 1.250000 0.000000 0.000000 0 0 255
-0.000000 0.491000 1.250000 0.000000 0.000000 0 0 255
-0.078036 0.501000 1.225981 0.000000 0.000000 0 0 255
-0.078036 0.491000 1.225981 0.000000 0.000000 0 0 255
-0.153073 0.501000 1.154849 0.000000 0.000000 0 0 255
-0.153073 0.491000 1.154849 0.000000 0.000000 0 0 255
-0.222228 0.501000 1.039337 0.000000 0.000000 0 0 255
-0.222228 0.491000 1.039337 0.000000 0.000000 0 0 255
-0.282843 0.501000 0.883883 0.000000 0.000000 0 0 255
-0.282843 0.491000 0.883883 0.000000 0.000000 0 0 255
-0.332588 0.501000 0.694462 0.000000 0.000000 0 0 255
-0.332588 0.491000 0.694462 0.000000 0.000000 0 0 255
-0.369552 0.501000 0.478353 0.000000 0.000000 0 0 255
-0.369552 0.491000 0.478353 0.000000 0.000000 0 0 255
-0.392314 0.501000 0.243862 0.000000 0.000000 0 0 255
-0.392314 0.491000 0.243862 0.000000 0.000000 0 0 255
-0.400000 0.501000 -0.000001 0.000000 0.000000 0 0 255
-0.400000 0.491000 -0.000001 0.000000 0.000000 0 0 255
-0.392314 0.501000 -0.243864 0.000000 0.000000 0 0 255
-0.392314 0.491000 -0.243864 0.000000 0.000000 0 0 255
-0.369552 0.501000 -0.478356 0.000000 0.000000 0 0 255
-0.369552 0.491000 -0.478356 0.000000 0.000000 0 0 255
-0.332588 0.501000 -0.694464 0.000000 0.000000 0 0 255
-0.332588 0.491000 -0.694464 0.000000 0.000000 0 0 255
-0.282842 0.501000 -0.883885 0.000000 0.000000 0 0 255
-0.282842 0.491000 -0.883885 0.000000 0.000000 0 0 255
-0.222228 0.501000 -1.039338 0.000000 0.000000 0 0 255
-0.222228 0.491000 -1.039338 0.000000 0.000000 0 0 255
-0.153073 0.501000 -1.154850 0.000000 0.000000 0 0 255
-0.153073 0.491000 -1.154850 0.000000 0.000000 0 0 255
-0.078036 0.501000 -1.225982 0.000000 0.000000 0 0 255
-0.078036 0.491000 -1.225982 0.000000 0.000000 0 0 255
3 0 1 2
3 3 4 5
3 6 2 7
3 8 9 10
3 11 12 13
3 14 15 16
3 17 18 19
3 20 21 22
3 23 24 25
3 11 26 27
3 28 29 30
3 31 32 33
3 34 35 36
3 37 38 39
3 40 41 42
3 43 44 45
3 46 47 48
3 49 32 50
3 51 52 53
3 54 55 56
3 57 58 59
3 60 61 62
3 63 64 65
3 66 67 68
3 69 70 71
3 72 73 74
3 75 76 77
3 78 79 66
3 80 81 82
3 83 84 85
3 86 87 88
3 89 90 91
3 0 92 1
3 3 93 4
3 6 0 2
3 10 94 8
3 8 95 9
3 19 96 97
3 13 98 17
3 12 19 97
3 13 17 11
3 12 97 13
3 14 99 15
3 17 100 18
3 18 101 19
3 102 103 104
3 105 106 107
3 102 104 108
3 102 108 20
3 105 107 21
3 109 105 21
3 22 102 20
3 20 109 21
3 24 11 110
3 25 111 23
3 111 112 23
3 24 110 113
3 24 113 25
3 114 115 27
3 115 116 27
3 116 11 27
3 28 117 29
3 31 50 32
3 118 32 119
3 118 119 120
3 35 121 36
3 36 118 120
3 34 50 35
3 36 120 34
3 37 122 38
3 40 123 41
3 43 124 44
3 48 125 46
3 46 126 47
3 50 127 128
3 128 49 50
3 51 129 52
3 54 130 55
3 57 131 58
3 60 64 61
3 63 61 64
3 66 79 67
3 69 81 70
3 74 132 133
3 133 72 74
3 75 134 76
3 78 135 79
3 80 91 81
3 83 136 84
3 137 138 88
3 138 139 140
3 88 138 140
3 140 86 88
3 91 80 89
3 80 141 89
3 89 142 90
4 143 144 145 146
4 146 145 147 148
4 148 147 149 150
4 150 149 151 152
4 152 151 153 154
4 154 153 155 156
4 156 155 157 158
4 158 157 159 160
4 160 159 161 162
4 162 161 163 164
4 164 163 165 166
4 166 165 167 168
4 168 167 169 170
4 170 169 171 172
4 172 171 173 174
4 174 173 175 176
4 176 175 177 178
4 178 177 179 180
4 180 179 181 182
4 182 181 183 184
4 184 183 185 186
4 186 185 187 188
4 188 187 189 190
4 190 189 191 192
4 192 191 193 194
4 194 193 195 196
4 196 195 197 198
4 198 197 199 200
4 200 199 201 202
4 202 201 203 204
3 147 145 144
3 144 205 203
3 203 201 199
3 199 197 195
3 195 193 191
3 191 189 187
3 187 185 183
3 183 181 179
3 179 177 175
3 175 173 171
3 171 169 167
3 167 165 163
3 163 161 159
3 159 157 155
3 155 153 151
3 151 149 147
3 147 144 203
3 203 199 195
3 195 191 187
3 187 183 179
3 179 175 171
3 171 167 163
3 163 159 155
3 155 151 147
3 147 203 195
3 195 187 179
3 179 171 163
3 163 155 147
3 147 195 179
3 179 163 147
4 204 203 205 206
4 206 205 144 143
3 206 143 146
3 146 148 150
3 150 152 154
3 154 156 158
3 158 160 162
3 162 164 166
3 166 168 170
3 170 172 174
3 174 176 178
3 178 180 182
3 182 184 186
3 186 188 190
3 190 192 194
3 194 196 198
3 198 200 202
3 202 204 206
3 206 146 150
3 150 154 158
3 158 162 166
3 166 170 174
3 174 178 182
3 182 186 190
3 190 194 198
3 198 202 206
3 206 150 158
3 158 166 174
3 174 182 190
3 190 198 206
3 206 158 174
3 174 190 206
