ply
format ascii 1.0
comment Created by Blender 2.79 (sub 0) - www.blender.org, source file: 'carpenter.blend'
element vertex 28
property float x
property float y
property float z
property float s
property float t
property uchar red
property uchar green
property uchar blue
element face 14
property list uchar uint vertex_indices
end_header
-0.500000 -0.000000 -1.499999 0.000000 -1.000000 0 0 255
0.500000 -0.000000 1.500000 -1.000000 0.000000 0 0 255
-0.500000 -0.000000 1.499999 0.000000 0.000000 0 0 255
0.500000 0.500000 1.499999 -1.000000 1.000000 0 0 255
-0.499999 0.500000 -1.500000 -0.000000 -0.000000 0 0 255
-0.500000 0.500000 1.499999 0.000000 1.000000 0 0 255
-0.500000 0.500000 1.499999 -0.000000 1.125000 0 0 255
-0.500000 -0.000000 -1.499999 -1.000000 0.125000 0 0 255
-0.500000 -0.000000 1.499999 0.000000 0.125000 0 0 255
-0.499999 0.500000 -1.500000 -0.000000 1.125000 0 0 255
0.500000 -0.000000 -1.499999 -1.000000 0.125000 0 0 255
-0.500000 -0.000000 -1.499999 0.000000 0.125000 0 0 255
0.500000 -0.000000 -1.499999 0.000000 0.125000 0 0 255
0.500000 0.500000 1.499999 1.000000 1.125000 0 0 255
0.500000 -0.000000 1.500000 1.000000 0.125000 0 0 255
-0.500000 -0.000000 1.499999 0.000000 -0.875000 0 0 255
0.500000 0.500000 1.499999 -1.000000 0.125000 0 0 255
-0.500000 0.500000 1.499999 0.000000 0.125000 0 0 255
0.400000 0.400000 0.400000 0.100000 0.633333 255 255 255
-0.400000 0.400000 -0.400000 0.900000 0.366667 255 255 255
-0.400000 0.400000 0.400000 0.900000 0.633333 255 255 255
0.500000 -0.000000 -1.499999 -1.000000 -1.000000 0 0 255
0.500000 0.500000 -1.499999 -1.000000 0.000000 0 0 255
-0.499999 0.500000 -1.500000 -1.000000 1.125000 0 0 255
0.500000 0.500000 -1.499999 -1.000000 1.125000 0 0 255
0.500000 0.500000 -1.499999 0.000000 1.125000 0 0 255
0.500000 -0.000000 1.500000 -1.000000 -0.875000 0 0 255
0.400000 0.400000 -0.400000 0.100000 0.366667 255 255 255
3 0 1 2
3 3 4 5
3 6 7 8
3 9 10 11
3 12 13 14
3 15 16 17
3 18 19 20
3 0 21 1
3 3 22 4
3 6 23 7
3 9 24 10
3 12 25 13
3 15 26 16
3 18 27 19
