ply
format ascii 1.0
comment Created by Blender 2.79 (sub 0) - www.blender.org, source file: 'carpenter.blend'
element vertex 20
property float x
property float y
property float z
property float s
property float t
property uchar red
property uchar green
property uchar blue
element face 10
property list uchar uint vertex_indices
end_header
0.400000 0.400000 -0.250000 0.866667 1.925000 255 0 0
0.400000 -0.500000 0.250000 1.133333 0.125000 255 0 0
0.400000 -0.500000 -0.250000 0.866667 0.125000 255 0 0
0.400000 0.400000 0.250000 0.100000 1.925000 255 0 0
-0.400000 -0.500000 0.250000 0.900000 0.125000 255 0 0
0.400000 -0.500000 0.250000 0.100000 0.125000 255 0 0
-0.400000 0.400000 0.250000 0.133333 1.925000 255 0 0
-0.400000 -0.500000 -0.250000 -0.133333 0.125000 255 0 0
-0.400000 -0.500000 0.250000 0.133333 0.125000 255 0 0
-0.400000 0.400000 -0.250000 0.900000 1.925000 255 0 0
0.400000 -0.500000 -0.250000 0.100000 0.125000 255 0 0
-0.400000 -0.500000 -0.250000 0.900000 0.125000 255 0 0
-0.400000 -0.500000 0.250000 0.900000 0.133333 255 0 0
0.400000 -0.500000 -0.250000 0.100000 -0.133333 255 0 0
0.400000 -0.500000 0.250000 0.100000 0.133333 255 0 0
0.400000 0.400000 0.250000 1.133333 1.925000 255 0 0
-0.400000 0.400000 0.250000 0.900000 1.925000 255 0 0
-0.400000 0.400000 -0.250000 -0.133333 1.925000 255 0 0
0.400000 0.400000 -0.250000 0.100000 1.925000 255 0 0
-0.400000 -0.500000 -0.250000 0.900000 -0.133333 255 0 0
3 0 1 2
3 3 4 5
3 6 7 8
3 9 10 11
3 12 13 14
3 0 15 1
3 3 16 4
3 6 17 7
3 9 18 10
3 12 19 13
