ply
format ascii 1.0
comment Created by Blender 2.79 (sub 0) - www.blender.org, source file: 'carpenter.blend'
element vertex 76
property float x
property float y
property float z
property float s
property float t
property uchar red
property uchar green
property uchar blue
element face 42
property list uchar uint vertex_indices
end_header
0.450000 1.175000 -1.250000 0.273929 0.996709 255 0 0
0.450000 0.425000 1.250000 1.048858 0.221780 255 0 0
0.450000 0.425000 -1.250000 0.273929 0.221780 255 0 0
0.250000 0.425000 1.250000 0.777633 0.376765 255 0 0
0.450000 0.425000 -1.250000 0.002704 -0.398163 255 0 0
0.450000 0.425000 1.250000 0.002704 0.376765 255 0 0
0.250000 1.175000 -1.250000 0.777633 0.996709 255 0 0
0.450000 0.425000 -1.250000 0.002704 0.221780 255 0 0
0.250000 0.425000 -1.250000 0.777633 0.221780 255 0 0
0.450000 1.175000 1.250000 0.002704 0.376765 255 0 0
0.250000 1.175000 -1.250000 0.777633 -0.398163 255 0 0
0.250000 1.175000 1.250000 0.777633 0.376765 255 0 0
0.450000 1.175000 1.250000 0.002704 0.996709 255 0 0
0.250000 0.425000 1.250000 0.777633 0.221780 255 0 0
0.450000 0.425000 1.250000 0.002704 0.221780 255 0 0
0.250000 1.115000 -1.190000 0.292528 0.934714 255 0 0
0.250000 1.175000 1.250000 1.048858 0.996709 255 0 0
0.250000 1.175000 -1.250000 0.273929 0.996709 255 0 0
0.250000 0.425000 1.250000 1.048858 0.221780 255 0 0
0.250000 1.115000 1.190000 1.030260 0.934714 255 0 0
0.250000 0.485000 1.190000 1.030260 0.283774 255 0 0
0.250000 0.485000 1.190000 0.777633 0.358167 255 0 0
0.280000 0.485000 -1.190000 0.661394 -0.379565 255 0 0
0.250000 0.485000 -1.190000 0.777633 -0.379565 255 0 0
0.250000 0.485000 -1.190000 0.777633 -1.266084 255 0 0
0.280000 1.115000 -1.190000 0.661394 -0.615143 255 0 0
0.250000 1.115000 -1.190000 0.777633 -0.615143 255 0 0
0.250000 1.115000 -1.190000 0.777633 -0.379565 255 0 0
0.280000 1.115000 1.190000 0.661394 0.358167 255 0 0
0.250000 1.115000 1.190000 0.777633 0.358167 255 0 0
0.250000 1.115000 1.190000 0.777633 0.934714 255 0 0
0.280000 0.485000 1.190000 0.661394 0.283774 255 0 0
0.250000 0.485000 1.190000 0.777633 0.283774 255 0 0
0.280000 0.485000 1.190000 1.030260 0.283774 0 255 0
0.280000 1.115000 -1.190000 0.292528 0.934714 0 255 0
0.280000 0.485000 -1.190000 0.292528 0.283774 0 255 0
-0.500000 -0.000000 -1.499999 0.000000 -1.000000 0 0 255
0.500000 -0.000000 1.500000 -1.000000 0.000000 0 0 255
-0.500000 -0.000000 1.499999 0.000000 0.000000 0 0 255
0.500000 0.500000 1.499999 -1.000000 1.000000 0 0 255
-0.499999 0.500000 -1.500000 -0.000000 -0.000000 0 0 255
-0.500000 0.500000 1.499999 0.000000 1.000000 0 0 255
-0.500000 0.500000 1.499999 -0.000000 1.125000 0 0 255
-0.500000 -0.000000 -1.499999 -1.000000 0.125000 0 0 255
-0.500000 -0.000000 1.499999 0.000000 0.125000 0 0 255
-0.499999 0.500000 -1.500000 -0.000000 1.125000 0 0 255
0.500000 -0.000000 -1.499999 -1.000000 0.125000 0 0 255
-0.500000 -0.000000 -1.499999 0.000000 0.125000 0 0 255
0.500000 -0.000000 -1.499999 0.000000 0.125000 0 0 255
0.500000 0.500000 1.499999 1.000000 1.125000 0 0 255
0.500000 -0.000000 1.500000 1.000000 0.125000 0 0 255
-0.500000 -0.000000 1.499999 0.000000 -0.875000 0 0 255
0.500000 0.500000 1.499999 -1.000000 0.125000 0 0 255
-0.500000 0.500000 1.499999 0.000000 0.125000 0 0 255
0.400000 0.400000 0.400000 0.100000 0.633333 255 255 255
-0.400000 0.400000 -0.400000 0.900000 0.366667 255 255 255
-0.400000 0.400000 0.400000 0.900000 0.633333 255 255 255
0.450000 1.175000 1.250000 1.048858 0.996709 255 0 0
0.250000 0.425000 -1.250000 0.777633 -0.398163 255 0 0
0.450000 1.175000 -1.250000 0.002704 0.996709 255 0 0
0.450000 1.175000 -1.250000 0.002704 -0.398163 255 0 0
0.250000 1.175000 1.250000 0.777633 0.996709 255 0 0
0.250000 0.425000 -1.250000 0.273929 0.221780 255 0 0
0.250000 0.485000 -1.190000 0.292528 0.283774 255 0 0
0.280000 0.485000 1.190000 0.661394 0.358167 255 0 0
0.280000 0.485000 -1.190000 0.661394 -1.266084 255 0 0
0.280000 1.115000 -1.190000 0.661394 -0.379565 255 0 0
0.280000 1.115000 1.190000 0.661394 0.934714 255 0 0
0.280000 1.115000 1.190000 1.030260 0.934714 0 255 0
0.500000 -0.000000 -1.499999 -1.000000 -1.000000 0 0 255
0.500000 0.500000 -1.499999 -1.000000 0.000000 0 0 255
-0.499999 0.500000 -1.500000 -1.000000 1.125000 0 0 255
0.500000 0.500000 -1.499999 -1.000000 1.125000 0 0 255
0.500000 0.500000 -1.499999 0.000000 1.125000 0 0 255
0.500000 -0.000000 1.500000 -1.000000 -0.875000 0 0 255
0.400000 0.400000 -0.400000 0.100000 0.366667 255 255 255
3 0 1 2
3 3 4 5
3 6 7 8
3 9 10 11
3 12 13 14
3 15 16 17
3 18 19 20
3 21 22 23
3 24 25 26
3 27 28 29
3 30 31 32
3 33 34 35
3 36 37 38
3 39 40 41
3 42 43 44
3 45 46 47
3 48 49 50
3 51 52 53
3 54 55 56
3 0 57 1
3 3 58 4
3 6 59 7
3 9 60 10
3 12 61 13
3 17 62 63
3 15 19 16
3 17 63 15
3 63 62 18
3 18 16 19
3 20 63 18
3 21 64 22
3 24 65 25
3 27 66 28
3 30 67 31
3 33 68 34
3 36 69 37
3 39 70 40
3 42 71 43
3 45 72 46
3 48 73 49
3 51 74 52
3 54 75 55
