ply
format ascii 1.0
comment Created by Blender 2.79 (sub 0) - www.blender.org, source file: 'carpenter.blend'
element vertex 650
property float x
property float y
property float z
property uchar red
property uchar green
property uchar blue
element face 1188
property list uchar uint vertex_indices
end_header
0.270224 -0.013802 -0.860777 255 0 0
0.229780 -0.013802 -0.883779 255 0 0
0.270224 -0.013802 -0.883779 255 0 0
0.231247 0.042920 -0.843242 255 255 255
0.268757 0.042920 -0.843242 255 255 255
0.268757 0.042920 -0.843242 255 255 255
0.277682 0.033995 -0.843242 255 255 255
0.277682 -0.003515 -0.843242 255 255 255
0.277682 -0.003515 -0.843242 255 255 255
0.222322 -0.003515 -0.843242 255 255 255
0.222322 0.033995 -0.843242 255 255 255
0.222322 0.033995 -0.843242 255 255 255
0.220959 -0.004982 -0.860777 255 0 0
0.220959 0.035462 -0.883779 255 0 0
0.220959 -0.004982 -0.883779 255 0 0
0.268757 -0.012440 -0.843242 255 255 255
0.231247 -0.012440 -0.843242 255 255 255
0.231247 -0.012440 -0.843242 255 255 255
0.276319 0.033069 -0.825707 255 0 0
0.276319 0.015617 -0.369313 255 0 0
0.276319 -0.001912 -0.825707 255 0 0
0.229780 0.044282 -0.860777 255 0 0
0.270224 0.044282 -0.883779 255 0 0
0.229780 0.044282 -0.883779 255 0 0
0.279044 0.035462 -0.860777 255 0 0
0.279044 -0.004982 -0.883779 255 0 0
0.279044 0.035462 -0.883779 255 0 0
0.223685 0.033069 -0.825707 255 0 0
0.223685 0.015617 -0.369313 255 0 0
0.223685 0.050597 -0.369313 255 0 0
0.232505 0.050943 -0.281837 255 0 0
0.267499 0.015949 -0.281837 255 0 0
0.267499 0.050943 -0.281837 255 0 0
0.223685 0.015949 -0.351672 255 0 0
0.223685 0.050943 -0.290657 255 0 0
0.223685 0.050943 -0.351672 255 0 0
0.267499 -0.010739 -0.825714 255 0 0
0.232505 0.006790 -0.369307 255 0 0
0.232505 -0.010739 -0.825714 255 0 0
0.232505 0.041896 -0.825714 255 0 0
0.267499 0.059425 -0.369307 255 0 0
0.267499 0.041896 -0.825714 255 0 0
0.267499 0.007129 -0.351672 255 0 0
0.232505 0.007129 -0.290657 255 0 0
0.232505 0.007129 -0.351672 255 0 0
0.232505 0.059763 -0.351672 255 0 0
0.267499 0.059763 -0.290657 255 0 0
0.267499 0.059763 -0.351672 255 0 0
0.276319 0.050943 -0.351672 255 0 0
0.276319 0.015949 -0.290657 255 0 0
0.276319 0.015949 -0.351672 255 0 0
0.229780 -0.004982 -0.892599 255 0 0
0.224687 -0.010075 -0.888872 255 0 0
0.223543 -0.004982 -0.890016 255 0 0
0.229780 -0.011219 -0.890016 255 0 0
0.223543 -0.011219 -0.883779 255 0 0
0.229780 -0.013802 -0.860777 255 0 0
0.223984 -0.010778 -0.851919 255 0 0
0.223543 -0.011219 -0.860777 255 0 0
0.225022 -0.009740 -0.842691 255 0 0
0.230513 -0.013403 -0.851988 255 0 0
0.231247 -0.012440 -0.843242 255 0 0
0.221358 -0.004248 -0.851988 255 0 0
0.222322 -0.003515 -0.843242 255 0 0
0.229780 0.035462 -0.892599 255 0 0
0.224687 0.040555 -0.888872 255 0 0
0.229780 0.041699 -0.890016 255 0 0
0.223543 0.035462 -0.890016 255 0 0
0.223543 0.041699 -0.883779 255 0 0
0.225022 0.040219 -0.842691 255 0 0
0.221358 0.034728 -0.851988 255 0 0
0.222322 0.033995 -0.843242 255 0 0
0.230513 0.043883 -0.851988 255 0 0
0.231247 0.042920 -0.843242 255 0 0
0.223984 0.041258 -0.851919 255 0 0
0.220959 0.035462 -0.860777 255 0 0
0.223543 0.041699 -0.860777 255 0 0
0.270224 -0.004982 -0.892599 255 0 0
0.275316 -0.010075 -0.888872 255 0 0
0.270224 -0.011219 -0.890016 255 0 0
0.276461 -0.004982 -0.890016 255 0 0
0.276461 -0.011219 -0.883779 255 0 0
0.274981 -0.009740 -0.842691 255 0 0
0.278645 -0.004248 -0.851988 255 0 0
0.277682 -0.003515 -0.843242 255 0 0
0.269490 -0.013403 -0.851988 255 0 0
0.268757 -0.012440 -0.843242 255 0 0
0.276020 -0.010778 -0.851919 255 0 0
0.279044 -0.004982 -0.860777 255 0 0
0.276461 -0.011219 -0.860777 255 0 0
0.270224 0.035462 -0.892599 255 0 0
0.275316 0.040555 -0.888872 255 0 0
0.276461 0.035462 -0.890016 255 0 0
0.270224 0.041699 -0.890016 255 0 0
0.276461 0.041699 -0.883779 255 0 0
0.274981 0.040219 -0.842691 255 0 0
0.269490 0.043883 -0.851988 255 0 0
0.268757 0.042920 -0.843242 255 0 0
0.278645 0.034728 -0.851988 255 0 0
0.277682 0.033995 -0.843242 255 0 0
0.276020 0.041258 -0.851919 255 0 0
0.270224 0.044282 -0.860777 255 0 0
0.276461 0.041699 -0.860777 255 0 0
0.223285 -0.002713 -0.834497 255 0 0
0.226268 -0.008151 -0.825640 255 0 0
0.223685 -0.001912 -0.825707 255 0 0
0.222322 -0.003515 -0.843242 255 0 0
0.225845 -0.008808 -0.834420 255 0 0
0.231876 -0.011377 -0.834499 255 0 0
0.225022 -0.009740 -0.842691 255 0 0
0.231247 -0.012440 -0.843242 255 0 0
0.226268 0.039308 -0.825781 255 0 0
0.223285 0.033532 -0.834497 255 0 0
0.231876 0.042055 -0.834499 255 0 0
0.225022 0.040219 -0.842691 255 0 0
0.231247 0.042920 -0.843242 255 0 0
0.222322 0.033995 -0.843242 255 0 0
0.273736 0.039308 -0.825781 255 0 0
0.268127 0.042055 -0.834499 255 0 0
0.276718 0.033532 -0.834497 255 0 0
0.274981 0.040219 -0.842691 255 0 0
0.277682 0.033995 -0.843242 255 0 0
0.268757 0.042920 -0.843242 255 0 0
0.273736 -0.008151 -0.825640 255 0 0
0.276718 -0.002713 -0.834497 255 0 0
0.268127 -0.011377 -0.834499 255 0 0
0.274981 -0.009740 -0.842691 255 0 0
0.268757 -0.012440 -0.843242 255 0 0
0.277682 -0.003515 -0.843242 255 0 0
0.274158 -0.008808 -0.834420 255 0 0
0.223685 0.015852 -0.360563 255 0 0
0.226268 0.009712 -0.351672 255 0 0
0.226251 0.009598 -0.360492 255 0 0
0.232505 0.007029 -0.360491 255 0 0
0.226268 0.009378 -0.369240 255 0 0
0.226251 0.057097 -0.360492 255 0 0
0.223685 0.050841 -0.360423 255 0 0
0.232505 0.059664 -0.360491 255 0 0
0.226268 0.057180 -0.351672 255 0 0
0.232505 0.059425 -0.369307 255 0 0
0.226268 0.056836 -0.369380 255 0 0
0.273736 0.057180 -0.351672 255 0 0
0.267499 0.059664 -0.360491 255 0 0
0.273752 0.057097 -0.360492 255 0 0
0.273736 0.056836 -0.369380 255 0 0
0.276319 0.050841 -0.360423 255 0 0
0.276319 0.050597 -0.369313 255 0 0
0.273736 0.009712 -0.351672 255 0 0
0.276319 0.015852 -0.360563 255 0 0
0.273752 0.009598 -0.360492 255 0 0
0.273736 0.009378 -0.369240 255 0 0
0.267499 0.007029 -0.360491 255 0 0
0.267499 0.006790 -0.369307 255 0 0
0.223685 0.015949 -0.290657 255 0 0
0.227412 0.010856 -0.285565 255 0 0
0.226268 0.015949 -0.284420 255 0 0
0.226268 0.009712 -0.290657 255 0 0
0.232505 0.015949 -0.281837 255 0 0
0.232505 0.009712 -0.284420 255 0 0
0.227412 0.056035 -0.285565 255 0 0
0.226268 0.057180 -0.290657 255 0 0
0.226268 0.050943 -0.284420 255 0 0
0.232505 0.059763 -0.290657 255 0 0
0.232505 0.057180 -0.284420 255 0 0
0.267499 0.059763 -0.290657 255 255 255
0.272591 0.056035 -0.285565 255 255 255
0.273736 0.057180 -0.290657 255 255 255
0.272591 0.056035 -0.285565 255 0 0
0.267499 0.057180 -0.284420 255 0 0
0.276319 0.050943 -0.290657 255 0 0
0.273736 0.050943 -0.284420 255 0 0
0.272591 0.010856 -0.285565 255 0 0
0.273736 0.009712 -0.290657 255 0 0
0.273736 0.015949 -0.284420 255 0 0
0.267499 0.007129 -0.290657 255 0 0
0.267499 0.009712 -0.284420 255 0 0
0.225022 -0.009740 -0.842691 255 255 255
0.225022 -0.009740 -0.842691 255 255 255
0.225022 0.040219 -0.842691 255 255 255
0.231247 0.042920 -0.843242 255 255 255
0.225022 0.040219 -0.842691 255 255 255
0.274981 -0.009740 -0.842691 255 255 255
0.274981 -0.009740 -0.842691 255 255 255
0.274981 0.040219 -0.842691 255 255 255
0.277682 0.033995 -0.843242 255 255 255
0.274981 0.040219 -0.842691 255 255 255
0.267499 0.057180 -0.284420 255 255 255
0.232505 0.059763 -0.290657 255 255 255
0.232505 0.057180 -0.284420 255 255 255
0.273736 0.057180 -0.290657 255 0 0
0.267418 0.024130 0.517416 255 0 0
0.264224 0.026637 0.491322 255 0 0
0.264224 0.026637 0.514222 255 0 0
0.231226 -0.188885 0.482016 255 0 0
0.267901 -0.270885 0.482889 255 0 0
0.232099 -0.270885 0.482889 255 0 0
0.268861 -0.083140 0.523612 255 0 0
0.231139 -0.173053 0.523612 255 0 0
0.268861 -0.173053 0.523612 255 0 0
0.267497 0.014699 0.522252 255 0 0
0.231263 -0.067315 0.523493 255 0 0
0.268737 -0.067315 0.523493 255 0 0
0.270756 -0.188885 0.483998 255 0 0
0.269883 -0.270885 0.520673 255 0 0
0.269883 -0.270885 0.484871 255 0 0
0.230520 0.014699 0.520269 255 0 0
0.229279 -0.067315 0.484035 255 0 0
0.229279 -0.067315 0.521509 255 0 0
0.269480 0.014699 0.485275 255 0 0
0.270721 -0.067315 0.521509 255 0 0
0.270721 -0.067315 0.484035 255 0 0
0.229160 -0.083140 0.521633 255 0 0
0.229160 -0.173053 0.483911 255 0 0
0.229160 -0.173053 0.521633 255 0 0
0.235356 0.024130 0.485354 255 0 0
0.261450 0.026637 0.488548 255 0 0
0.264644 0.024130 0.485354 255 0 0
0.239699 0.028162 0.513073 255 255 255
0.260301 0.028162 0.492471 255 255 255
0.239699 0.028162 0.492471 255 255 255
0.232582 0.024130 0.517416 255 0 0
0.235776 0.026637 0.491322 255 0 0
0.232582 0.024130 0.488128 255 0 0
0.231139 -0.173053 0.481932 255 0 0
0.268861 -0.083140 0.481932 255 0 0
0.268861 -0.173053 0.481932 255 0 0
0.232181 -0.278798 0.520591 255 0 0
0.267819 -0.278798 0.484953 255 0 0
0.267819 -0.278798 0.520591 255 0 0
0.270840 -0.083140 0.483911 255 0 0
0.270840 -0.173053 0.521633 255 0 0
0.270840 -0.173053 0.483911 255 0 0
0.232503 0.014699 0.483292 255 0 0
0.268737 -0.067315 0.482051 255 0 0
0.231263 -0.067315 0.482051 255 0 0
0.230117 -0.270885 0.520673 255 0 0
0.229244 -0.188885 0.483998 255 0 0
0.230117 -0.270885 0.484871 255 0 0
0.235356 0.024130 0.520190 255 255 255
0.261450 0.026637 0.516996 255 255 255
0.238550 0.026637 0.516996 255 255 255
0.267901 -0.270885 0.522655 255 0 0
0.269480 0.014699 0.520269 255 0 0
0.232099 -0.270885 0.522655 255 0 0
0.232503 0.014699 0.522252 255 0 0
0.235356 0.024130 0.520190 255 0 0
0.267418 0.024130 0.488128 255 0 0
0.267497 0.014699 0.483292 255 0 0
0.232181 -0.278798 0.484953 255 0 0
0.230520 0.014699 0.485275 255 0 0
0.268774 -0.188885 0.523528 255 0 0
0.231139 -0.083140 0.523612 255 0 0
0.231226 -0.188885 0.523528 255 0 0
0.229244 -0.188885 0.521546 255 0 0
0.229160 -0.083140 0.483911 255 0 0
0.268774 -0.188885 0.482016 255 0 0
0.264224 0.026637 0.514222 255 255 255
0.260301 0.028162 0.513073 255 255 255
0.235776 0.026637 0.514222 255 255 255
0.235776 0.026637 0.491322 255 255 255
0.238550 0.026637 0.488548 255 255 255
0.261450 0.026637 0.488548 255 255 255
0.264224 0.026637 0.491322 255 255 255
0.264644 0.024130 0.520190 255 0 0
0.270756 -0.188885 0.521546 255 0 0
0.270840 -0.083140 0.521633 255 0 0
0.231139 -0.083140 0.481932 255 0 0
0.239699 0.028162 0.492471 255 0 0
0.235776 0.026637 0.514222 255 0 0
0.239699 0.028162 0.513073 255 0 0
0.260301 0.028162 0.492471 255 0 0
0.238550 0.026637 0.488548 255 0 0
0.260301 0.028162 0.513073 255 0 0
0.238550 0.026637 0.516996 255 0 0
0.267418 0.024130 0.517416 255 255 255
0.264644 0.024130 0.520190 255 255 255
-0.285724 -0.504480 -0.177439 255 0 0
-0.300794 -0.504480 -0.145620 255 0 0
-0.310805 -0.504480 -0.162959 255 0 0
-0.310805 -0.475520 -0.162959 255 0 0
-0.300794 -0.475520 -0.145620 255 0 0
-0.285724 -0.475520 -0.177439 255 0 0
-0.275713 -0.475520 -0.160100 255 0 0
-0.273393 -0.503788 -0.154695 255 0 0
-0.297274 -0.503788 -0.140908 255 0 0
-0.235839 -0.476212 -0.034500 255 0 0
-0.297274 -0.476212 -0.140908 255 0 0
-0.275713 -0.504480 -0.160100 255 0 0
-0.273393 -0.476212 -0.154695 255 0 0
-0.211958 -0.476212 -0.048287 255 0 0
-0.233139 -0.474753 -0.026905 255 0 0
-0.206731 -0.474753 -0.042152 255 0 0
-0.235839 -0.503788 -0.034500 255 0 0
-0.211958 -0.503788 -0.048287 255 0 0
-0.143296 -0.505247 0.067721 255 0 0
-0.206731 -0.505247 -0.042152 255 0 0
-0.233139 -0.505247 -0.026905 255 0 0
-0.169704 -0.505247 0.082968 255 0 0
-0.143296 -0.474753 0.067721 255 0 0
-0.169704 -0.474753 0.082968 255 0 0
0.231795 0.080092 0.566237 0 255 0
0.243255 0.081874 0.577577 0 255 0
0.243932 0.080092 0.566237 0 255 0
0.225964 0.047907 0.484757 0 255 0
0.226668 0.037380 0.476584 0 255 0
0.226930 0.039562 0.486424 0 255 0
0.258095 0.042865 0.472831 0 255 0
0.273332 0.037380 0.476584 0 255 0
0.257777 0.037380 0.476584 0 255 0
0.271498 0.055461 0.518723 0 255 0
0.269469 0.047526 0.528236 0 255 0
0.270670 0.046420 0.518907 0 255 0
0.256865 0.013229 0.482086 0 255 0
0.270448 0.013686 0.490806 0 255 0
0.256815 0.013690 0.490810 0 255 0
0.232484 0.049124 0.566164 0 255 0
0.229766 0.056040 0.577447 0 255 0
0.231795 0.056849 0.566120 0 255 0
0.257136 0.082989 0.519607 0 255 0
0.270234 0.081946 0.528317 0 255 0
0.271409 0.082989 0.519607 0 255 0
0.273921 0.066222 0.487741 0 255 0
0.274139 0.084206 0.481498 0 255 0
0.273783 0.084342 0.490763 0 255 0
0.228546 0.069254 0.519166 0 255 0
0.229766 0.081946 0.528317 0 255 0
0.228591 0.082989 0.519607 0 255 0
0.274293 0.070042 0.422111 0 255 0
0.274293 0.059276 0.407100 0 255 0
0.274293 0.070042 0.407100 0 255 0
0.274293 0.064755 0.382779 0 255 0
0.274293 0.070042 0.382779 0 255 0
0.258098 0.083152 0.422111 0 255 0
0.274293 0.080808 0.407100 0 255 0
0.258098 0.080808 0.407100 0 255 0
0.225707 0.056932 0.422111 0 255 0
0.241902 0.059276 0.407100 0 255 0
0.241902 0.056932 0.422111 0 255 0
0.225707 0.070042 0.422111 0 255 0
0.225707 0.080808 0.407100 0 255 0
0.225707 0.070042 0.407100 0 255 0
0.225759 0.063598 0.477087 0 255 0
0.225707 0.084267 0.466450 0 255 0
0.225707 0.065773 0.464617 0 255 0
0.225707 0.068125 0.451470 0 255 0
0.225707 0.084942 0.452060 0 255 0
0.225707 0.069709 0.437111 0 255 0
0.225707 0.083152 0.422111 0 255 0
0.225714 0.042865 0.472831 0 255 0
0.241902 0.047279 0.462783 0 255 0
0.241905 0.042865 0.472831 0 255 0
0.225707 0.047279 0.462783 0 255 0
0.241902 0.051308 0.450880 0 255 0
0.225707 0.051308 0.450880 0 255 0
0.241902 0.054713 0.437099 0 255 0
0.225707 0.054713 0.437099 0 255 0
0.258098 0.084267 0.466450 0 255 0
0.258046 0.084206 0.481498 0 255 0
0.274293 0.084267 0.466450 0 255 0
0.258098 0.084942 0.452060 0 255 0
0.274293 0.084705 0.437122 0 255 0
0.258098 0.084705 0.437122 0 255 0
0.274241 0.063598 0.477087 0 255 0
0.274293 0.047279 0.462783 0 255 0
0.274293 0.065773 0.464617 0 255 0
0.274293 0.051308 0.450880 0 255 0
0.274293 0.068125 0.451470 0 255 0
0.274293 0.054713 0.437099 0 255 0
0.274293 0.069709 0.437111 0 255 0
0.274293 0.056932 0.422111 0 255 0
0.269627 0.027188 0.518473 0 255 0
0.268884 0.017561 0.525869 0 255 0
0.269355 0.016403 0.517453 0 255 0
0.270001 0.037201 0.519004 0 255 0
0.268912 0.028528 0.526984 0 255 0
0.268993 0.038552 0.527932 0 255 0
0.257158 0.022518 0.481250 0 255 0
0.270595 0.013228 0.482084 0 255 0
0.257462 0.030582 0.479420 0 255 0
0.271475 0.022517 0.481249 0 255 0
0.272386 0.030582 0.479420 0 255 0
0.229552 0.013686 0.490806 0 255 0
0.228525 0.022517 0.481249 0 255 0
0.229405 0.013228 0.482084 0 255 0
0.227881 0.031927 0.488755 0 255 0
0.228752 0.023392 0.490285 0 255 0
0.227614 0.030582 0.479420 0 255 0
0.243698 0.028538 0.526991 0 255 0
0.231116 0.017561 0.525869 0 255 0
0.243708 0.017581 0.525881 0 255 0
0.243670 0.038555 0.527935 0 255 0
0.231088 0.028528 0.526984 0 255 0
0.243510 0.047526 0.528236 0 255 0
0.231007 0.038552 0.527932 0 255 0
0.229330 0.046420 0.518907 0 255 0
0.229999 0.037201 0.519004 0 255 0
0.228300 0.044771 0.508558 0 255 0
0.229103 0.035670 0.509201 0 255 0
0.227484 0.042412 0.497519 0 255 0
0.228381 0.033808 0.498916 0 255 0
0.230373 0.027188 0.518473 0 255 0
0.229711 0.025937 0.509329 0 255 0
0.229155 0.024631 0.499788 0 255 0
0.230645 0.016403 0.517453 0 255 0
0.230199 0.015307 0.508717 0 255 0
0.229825 0.014387 0.499780 0 255 0
0.273070 0.039562 0.486424 0 255 0
0.272119 0.031927 0.488755 0 255 0
0.272516 0.042412 0.497519 0 255 0
0.271619 0.033808 0.498916 0 255 0
0.270897 0.035670 0.509201 0 255 0
0.271700 0.044771 0.508558 0 255 0
0.271248 0.023392 0.490285 0 255 0
0.270845 0.024631 0.499788 0 255 0
0.270289 0.025937 0.509329 0 255 0
0.270175 0.014387 0.499780 0 255 0
0.269801 0.015307 0.508717 0 255 0
0.226079 0.066222 0.487741 0 255 0
0.225861 0.084206 0.481498 0 255 0
0.226670 0.068041 0.498593 0 255 0
0.226217 0.084342 0.490763 0 255 0
0.227504 0.069016 0.509196 0 255 0
0.226796 0.084312 0.500484 0 255 0
0.227594 0.083864 0.510241 0 255 0
0.271454 0.069254 0.519166 0 255 0
0.270234 0.069029 0.528252 0 255 0
0.272406 0.083864 0.510241 0 255 0
0.272496 0.069016 0.509196 0 255 0
0.273204 0.084312 0.500484 0 255 0
0.273330 0.068041 0.498593 0 255 0
0.257928 0.084342 0.490763 0 255 0
0.257735 0.084312 0.500484 0 255 0
0.257469 0.083864 0.510241 0 255 0
0.256450 0.016417 0.517464 0 255 0
0.256292 0.017581 0.525881 0 255 0
0.256599 0.015318 0.508727 0 255 0
0.256724 0.014393 0.499787 0 255 0
0.274036 0.047907 0.484757 0 255 0
0.273452 0.051596 0.496695 0 255 0
0.272585 0.054049 0.508147 0 255 0
0.230531 0.047526 0.528236 0 255 0
0.228502 0.055461 0.518723 0 255 0
0.227415 0.054049 0.508147 0 255 0
0.226548 0.051596 0.496695 0 255 0
0.243185 0.013690 0.490810 0 255 0
0.243276 0.014393 0.499787 0 255 0
0.243401 0.015318 0.508727 0 255 0
0.243550 0.016417 0.517464 0 255 0
0.242531 0.083864 0.510241 0 255 0
0.242864 0.082989 0.519607 0 255 0
0.242265 0.084312 0.500484 0 255 0
0.242072 0.084342 0.490763 0 255 0
0.241954 0.084206 0.481498 0 255 0
0.256490 0.047526 0.528236 0 255 0
0.256330 0.038555 0.527935 0 255 0
0.256302 0.028538 0.526991 0 255 0
0.242223 0.037380 0.476584 0 255 0
0.242538 0.030582 0.479420 0 255 0
0.242842 0.022518 0.481250 0 255 0
0.243135 0.013229 0.482086 0 255 0
0.225707 0.084705 0.437122 0 255 0
0.241902 0.083152 0.422111 0 255 0
0.241902 0.084705 0.437122 0 255 0
0.241902 0.084942 0.452060 0 255 0
0.241902 0.084267 0.466450 0 255 0
0.258098 0.054713 0.437099 0 255 0
0.258098 0.056932 0.422111 0 255 0
0.258098 0.051308 0.450880 0 255 0
0.258098 0.047279 0.462783 0 255 0
0.274286 0.042865 0.472831 0 255 0
0.258098 0.059276 0.407100 0 255 0
0.241902 0.080808 0.407100 0 255 0
0.258098 0.070042 0.407100 0 255 0
0.258098 0.075329 0.382779 0 255 0
0.258098 0.070042 0.382779 0 255 0
0.241902 0.070042 0.407100 0 255 0
0.243255 0.081946 0.528317 0 255 0
0.243510 0.047453 0.577496 0 255 0
0.230531 0.047453 0.577496 0 255 0
0.267516 0.049124 0.566164 0 255 0
0.256490 0.047453 0.577496 0 255 0
0.255839 0.049124 0.566164 0 255 0
0.268205 0.080092 0.566237 0 255 0
0.256745 0.081874 0.577577 0 255 0
0.270234 0.081874 0.577577 0 255 0
0.270234 0.056040 0.577447 0 255 0
0.269469 0.047453 0.577496 0 255 0
0.225707 0.070042 0.382779 0 255 0
0.241902 0.075329 0.382779 0 255 0
0.241902 0.070042 0.382779 0 255 0
0.274293 0.075329 0.382779 0 255 0
0.225707 0.075329 0.382779 0 255 0
0.225707 0.059276 0.407100 0 255 0
0.241902 0.064755 0.382779 0 255 0
0.225707 0.064755 0.382779 0 255 0
0.258098 0.064755 0.382779 0 255 0
0.229766 0.068957 0.577512 0 255 0
0.229766 0.081874 0.577577 0 255 0
0.231795 0.068470 0.566178 0 255 0
0.270234 0.056112 0.528187 0 255 0
0.274293 0.083152 0.422111 0 255 0
0.274293 0.084942 0.452060 0 255 0
0.229766 0.056112 0.528187 0 255 0
0.268205 0.056849 0.566120 0 255 0
0.270234 0.068957 0.577512 0 255 0
0.243255 0.081771 0.598984 0 255 0
0.256745 0.081771 0.598984 0 255 0
0.270234 0.068854 0.598919 0 255 0
0.230531 0.047350 0.598902 0 255 0
0.270234 0.081771 0.598984 0 255 0
0.229766 0.081771 0.598984 0 255 0
0.243510 0.047350 0.598902 0 255 0
0.229766 0.055937 0.598853 0 255 0
0.229766 0.068854 0.598919 0 255 0
0.256490 0.047350 0.598902 0 255 0
0.244161 0.049124 0.566164 0 255 0
0.256068 0.080092 0.566237 0 255 0
0.268205 0.068470 0.566178 0 255 0
0.268205 0.080131 0.539646 0 255 0
0.268205 0.068509 0.539587 0 255 0
0.265765 0.077955 0.549096 0 255 0
0.265765 0.067891 0.549045 0 255 0
0.265765 0.067879 0.556721 0 255 0
0.265765 0.077943 0.556772 0 255 0
0.256068 0.080131 0.539646 0 255 0
0.256745 0.081946 0.528317 0 255 0
0.244745 0.077955 0.549096 0 255 0
0.255255 0.077955 0.549096 0 255 0
0.244745 0.077943 0.556772 0 255 0
0.255255 0.077943 0.556772 0 255 0
0.244161 0.049163 0.539572 0 255 0
0.255839 0.049163 0.539572 0 255 0
0.244944 0.051137 0.549033 0 255 0
0.255056 0.051137 0.549033 0 255 0
0.244944 0.051126 0.556709 0 255 0
0.255056 0.051126 0.556709 0 255 0
0.268205 0.056888 0.539528 0 255 0
0.265765 0.057827 0.548995 0 255 0
0.265765 0.057815 0.556671 0 255 0
0.229766 0.069029 0.528252 0 255 0
0.231795 0.056888 0.539528 0 255 0
0.231795 0.068509 0.539587 0 255 0
0.234235 0.057827 0.548995 0 255 0
0.234235 0.067891 0.549045 0 255 0
0.234235 0.057815 0.556671 0 255 0
0.234235 0.067879 0.556721 0 255 0
0.231795 0.080131 0.539646 0 255 0
0.234235 0.077955 0.549096 0 255 0
0.234235 0.077943 0.556772 0 255 0
0.267516 0.049163 0.539572 0 255 0
0.265169 0.051137 0.549033 0 255 0
0.265169 0.051126 0.556709 0 255 0
0.232484 0.049163 0.539572 0 255 0
0.234831 0.051137 0.549033 0 255 0
0.234831 0.051126 0.556709 0 255 0
0.243932 0.080131 0.539646 0 255 0
0.243150 0.055813 0.599236 0 255 0
0.256970 0.069020 0.599742 0 255 0
0.243030 0.069020 0.599742 0 255 0
0.269469 0.047350 0.598902 0 255 0
0.256850 0.055813 0.599236 0 255 0
0.270234 0.055937 0.598853 0 255 0
0.219935 0.005478 -0.287698 0 255 0
0.219611 0.077966 -0.348480 0 255 0
0.219935 0.005478 -0.348480 0 255 0
0.219611 0.077966 -0.287698 0 255 0
0.280393 0.077966 -0.348480 0 255 0
0.280393 0.077966 -0.287698 0 255 0
0.280069 0.005478 -0.348480 0 255 0
0.237414 -0.126800 -0.287698 0 255 0
0.255282 -0.170892 -0.287698 0 255 0
0.262589 -0.126800 -0.287698 0 255 0
0.280069 0.005478 -0.287698 0 255 0
0.244722 -0.170892 -0.348480 0 255 0
0.255282 -0.170892 -0.348480 0 255 0
0.262589 -0.126800 -0.348480 0 255 0
0.237414 -0.126800 -0.348480 0 255 0
0.244722 -0.170892 -0.287698 0 255 0
0.244722 -0.170892 -0.388144 0 255 0
0.255282 -0.170892 -0.427809 0 255 0
0.255282 -0.170892 -0.388144 0 255 0
0.222857 -0.016568 -0.351768 0 255 0
0.274199 -0.034684 -0.366615 0 255 0
0.225804 -0.034684 -0.366615 0 255 0
0.262589 -0.126800 -0.388144 0 255 0
0.267772 -0.082707 -0.427809 0 255 0
0.267772 -0.082707 -0.388144 0 255 0
0.232232 -0.082707 -0.388144 0 255 0
0.237414 -0.126800 -0.427809 0 255 0
0.237414 -0.126800 -0.388144 0 255 0
0.226305 -0.038615 -0.287698 0 255 0
0.222861 -0.016568 -0.287698 0 255 0
0.232232 -0.082707 -0.348480 0 255 0
0.232232 -0.082707 -0.287698 0 255 0
0.277146 -0.016568 -0.351768 0 255 0
0.273698 -0.038615 -0.287698 0 255 0
0.267772 -0.082707 -0.348480 0 255 0
0.267772 -0.082707 -0.287698 0 255 0
0.277143 -0.016568 -0.287698 0 255 0
0.244722 -0.170892 -0.427809 0 255 0
0.228285 -0.059190 -0.416408 0 255 0
0.232232 -0.082707 -0.427809 0 255 0
0.272921 -0.046675 -0.388568 0 255 0
0.227082 -0.046675 -0.388568 0 255 0
0.271718 -0.059190 -0.416408 0 255 0
0.262589 -0.126800 -0.427809 0 255 0
-0.200229 -0.508789 0.080415 255 0 0
-0.167147 -0.462508 0.065944 255 0 0
-0.200229 -0.471211 0.080415 255 0 0
-0.239441 -0.471186 0.012148 255 0 0
-0.208667 -0.517432 -0.005619 255 0 0
-0.239441 -0.508814 0.012148 255 0 0
-0.201399 -0.468461 0.078837 255 0 0
-0.207388 -0.459649 -0.004203 255 0 0
-0.238854 -0.468461 0.013964 255 0 0
-0.200533 -0.462568 -0.010315 255 0 0
-0.169759 -0.508814 -0.028083 255 0 0
-0.200533 -0.517432 -0.010315 255 0 0
-0.159317 -0.462508 0.061424 255 0 0
-0.130244 -0.508789 0.040009 255 0 0
-0.130244 -0.471211 0.040009 255 0 0
-0.205330 -0.507915 0.080622 255 0 0
-0.242574 -0.472085 0.016112 255 0 0
-0.242574 -0.507915 0.016112 255 0 0
-0.199946 -0.459649 -0.008499 255 0 0
-0.131026 -0.468461 0.038206 255 0 0
-0.168480 -0.468461 -0.026666 255 0 0
-0.207388 -0.520351 -0.004203 255 0 0
-0.201399 -0.511539 0.078837 255 0 0
-0.238854 -0.511539 0.013964 255 0 0
-0.164759 -0.472085 -0.028814 255 0 0
-0.127515 -0.507915 0.035695 255 0 0
-0.164759 -0.507915 -0.028814 255 0 0
-0.168480 -0.511539 -0.026666 255 0 0
-0.131026 -0.511539 0.038206 255 0 0
-0.169759 -0.471186 -0.028083 255 0 0
-0.127515 -0.472085 0.035695 255 0 0
-0.205330 -0.472085 0.080622 255 0 0
-0.199946 -0.520351 -0.008499 255 0 0
-0.167904 -0.520351 0.064185 255 0 0
-0.159317 -0.517492 0.061424 255 0 0
-0.167147 -0.517492 0.065944 255 0 0
-0.208667 -0.462568 -0.005619 255 0 0
-0.167904 -0.459649 0.064185 255 0 0
-0.160462 -0.459649 0.059889 255 0 0
-0.160462 -0.520351 0.059889 255 0 0
0.222322 -0.003515 -0.843242 255 255 255
0.268757 -0.012440 -0.843242 255 255 255
0.225845 0.039502 -0.834438 255 0 0
0.274158 0.039502 -0.834438 255 0 0
3 0 1 2
3 3 4 5
3 6 7 8
3 9 10 11
3 12 13 14
3 15 16 17
3 18 19 20
3 21 22 23
3 24 25 26
3 27 28 29
3 30 31 32
3 33 34 35
3 36 37 38
3 39 40 41
3 42 43 44
3 45 46 47
3 48 49 50
3 51 52 53
3 1 52 54
3 14 52 55
3 56 57 58
3 59 60 61
3 62 59 63
3 12 57 62
3 64 65 66
3 13 65 67
3 23 65 68
3 69 70 71
3 72 69 73
3 21 74 72
3 75 74 76
3 77 78 79
3 25 78 80
3 2 78 81
3 82 83 84
3 85 82 86
3 0 87 85
3 88 87 89
3 90 91 92
3 22 91 93
3 26 91 94
3 95 96 97
3 98 95 99
3 24 100 98
3 101 100 102
3 103 104 105
3 106 107 103
3 108 109 110
3 104 108 38
3 111 112 27
3 113 111 39
3 114 113 115
3 112 114 116
3 117 118 41
3 119 117 18
3 120 119 121
3 118 120 122
3 123 124 20
3 125 123 36
3 126 125 127
3 128 129 126
3 130 131 33
3 28 132 130
3 133 134 37
3 44 132 133
3 35 135 136
3 137 138 45
3 139 135 137
3 136 140 29
3 141 142 47
3 48 143 141
3 144 145 146
3 40 143 144
3 147 148 50
3 42 149 147
3 150 151 152
3 19 149 150
3 153 154 155
3 43 154 156
3 157 154 158
3 34 159 160
3 30 159 161
3 162 159 163
3 164 165 166
3 32 167 168
3 169 167 170
3 49 171 172
3 31 171 173
3 174 171 175
3 51 67 64
3 53 13 67
3 56 55 1
3 58 14 55
3 71 62 63
3 70 12 62
3 23 76 21
3 68 75 76
3 64 93 90
3 66 22 93
3 97 72 73
3 96 21 72
3 26 102 24
3 94 101 102
3 90 80 77
3 92 25 80
3 84 98 99
3 83 24 98
3 2 89 0
3 81 88 89
3 77 54 51
3 1 79 2
3 61 85 86
3 60 0 85
3 105 112 103
3 103 116 106
3 41 113 39
3 118 115 113
3 20 119 18
3 124 121 119
3 38 125 36
3 108 127 125
3 16 176 17
3 177 9 176
3 3 178 179
3 180 10 178
3 7 181 8
3 182 15 181
3 6 183 184
3 185 4 183
3 33 136 130
3 130 29 28
3 47 137 45
3 142 139 137
3 50 145 48
3 148 146 145
3 44 151 42
3 133 152 151
3 29 111 27
3 140 39 111
3 146 117 144
3 144 41 40
3 152 123 150
3 150 20 19
3 37 104 38
3 134 105 104
3 30 155 157
3 161 153 155
3 32 163 30
3 186 187 188
3 31 170 32
3 173 169 170
3 157 175 31
3 158 174 175
3 46 141 47
3 189 48 141
3 42 172 174
3 147 49 172
3 43 131 44
3 156 33 131
3 45 160 162
3 138 34 160
3 90 51 64
3 190 191 192
3 193 194 195
3 196 197 198
3 199 200 201
3 202 203 204
3 205 206 207
3 208 209 210
3 211 212 213
3 214 215 216
3 217 218 219
3 220 221 222
3 223 224 225
3 226 227 228
3 229 230 231
3 232 233 234
3 235 236 237
3 238 239 240
3 241 228 203
3 190 199 242
3 226 243 235
3 220 244 245
3 227 194 204
3 246 247 216
3 248 237 195
3 222 232 249
3 250 230 198
3 196 209 201
3 207 251 200
3 252 213 253
3 234 254 206
3 212 193 236
3 233 229 224
3 255 231 202
3 239 256 257
3 240 217 258
3 259 219 260
3 261 218 262
3 226 241 243
3 242 201 209
3 263 244 199
3 235 252 253
3 248 235 237
3 220 249 205
3 195 236 193
3 248 194 227
3 216 232 214
3 204 255 202
3 227 203 228
3 190 208 246
3 264 241 203
3 265 198 230
3 207 244 205
3 213 251 211
3 234 249 232
3 223 254 266
3 210 247 208
3 231 224 229
3 230 202 231
3 210 265 229
3 223 255 193
3 233 266 234
3 213 236 253
3 206 211 207
3 198 252 250
3 200 196 201
3 217 239 257
3 267 268 269
3 270 271 267
3 272 191 270
3 273 220 245
3 271 222 221
3 246 215 191
3 274 239 275
3 250 243 241
3 276 277 278
3 277 279 278
3 280 281 279
3 282 276 281
3 279 276 278
3 277 283 284
3 284 285 286
3 282 283 287
3 277 286 280
3 280 288 282
3 289 290 291
3 286 289 288
3 283 292 284
3 288 293 283
3 291 294 295
3 293 296 292
3 289 295 293
3 292 290 285
3 297 298 299
3 296 299 290
3 290 298 291
3 296 294 297
3 300 301 302
3 303 304 305
3 306 307 308
3 309 310 311
3 312 313 314
3 315 316 317
3 318 319 320
3 321 322 323
3 324 325 326
3 327 328 329
3 329 330 331
3 332 333 334
3 335 336 337
3 338 339 340
3 341 342 343
3 342 344 343
3 345 346 344
3 346 347 338
3 348 349 350
3 351 352 349
3 353 354 352
3 355 337 354
3 322 356 357
3 358 359 356
3 359 360 361
3 360 332 361
3 362 363 364
3 364 365 366
3 366 367 368
3 368 369 327
3 370 371 372
3 373 374 370
3 311 375 373
3 376 377 312
3 378 379 376
3 308 380 378
3 381 382 383
3 384 382 385
3 305 386 384
3 387 388 389
3 390 391 387
3 392 393 390
3 393 394 395
3 395 396 397
3 397 398 399
3 398 384 399
3 391 395 400
3 400 397 401
3 401 399 402
3 402 384 385
3 388 400 403
3 403 401 404
3 404 402 405
3 405 385 381
3 380 406 407
3 407 408 409
3 408 410 409
3 411 373 410
3 379 407 412
3 407 413 412
3 409 414 413
3 410 370 414
3 379 313 377
3 412 415 313
3 413 416 415
3 414 372 416
3 417 418 341
3 419 420 417
3 421 422 419
3 324 423 421
3 424 319 425
3 424 426 320
3 427 428 426
3 429 323 428
3 357 323 322
3 430 428 323
3 431 426 428
3 432 320 426
3 433 371 434
3 435 372 433
3 436 416 435
3 314 415 436
3 307 437 406
3 437 408 406
3 438 411 408
3 439 311 411
3 440 441 394
3 394 442 396
3 396 443 398
3 398 303 305
3 405 444 445
3 445 314 436
3 404 445 446
3 446 436 435
3 403 446 447
3 446 433 447
3 388 447 389
3 389 433 434
3 326 448 423
3 449 432 448
3 423 450 422
3 448 431 450
3 422 451 420
3 450 430 451
3 420 452 418
3 451 357 452
3 375 453 454
3 453 390 454
3 374 454 455
3 454 387 455
3 371 455 434
3 455 389 434
3 386 456 457
3 456 378 457
3 382 457 458
3 458 378 376
3 383 458 459
3 458 312 459
3 460 461 347
3 462 332 461
3 345 462 460
3 463 361 462
3 342 463 345
3 464 359 463
3 418 464 342
3 452 356 464
3 465 369 367
3 354 466 465
3 467 367 365
3 352 465 467
3 468 365 363
3 349 467 468
3 469 468 363
3 350 468 306
3 466 328 369
3 337 470 466
3 347 471 339
3 461 334 471
3 472 473 474
3 475 334 472
3 325 449 326
3 476 318 449
3 315 477 478
3 479 480 481
3 381 459 444
3 444 312 314
3 304 350 456
3 456 306 308
3 482 483 484
3 479 485 486
3 487 488 489
3 474 490 331
3 470 330 328
3 339 488 491
3 492 493 336
3 475 493 489
3 340 491 487
3 334 490 473
3 340 494 492
3 475 488 471
3 495 331 330
3 494 489 493
3 300 496 497
3 317 496 498
3 336 472 470
3 472 495 470
3 438 321 429
3 439 429 427
3 309 427 424
3 499 424 425
3 441 421 442
3 442 419 443
3 443 417 303
3 303 341 348
3 368 500 360
3 501 368 360
3 358 366 501
3 362 358 322
3 346 335 355
3 344 355 353
3 343 353 351
3 341 351 348
3 338 492 335
3 329 490 333
3 327 333 500
3 502 324 441
3 437 362 321
3 503 504 485
3 483 505 506
3 484 507 504
3 477 508 478
3 484 506 509
3 301 510 505
3 480 511 477
3 478 512 316
3 497 513 510
3 486 514 480
3 481 477 515
3 516 301 483
3 482 504 517
3 425 518 519
3 519 520 521
3 520 522 521
3 523 517 522
3 476 524 525
3 524 526 527
3 527 528 529
3 302 529 528
3 453 530 392
3 531 532 530
3 533 534 532
3 535 515 534
3 425 536 499
3 519 537 536
3 521 538 537
3 538 517 503
3 539 540 541
3 541 542 543
3 543 544 545
3 544 498 545
3 539 546 325
3 541 547 546
3 547 545 548
3 548 498 300
3 499 549 310
3 536 550 549
3 550 538 551
3 551 503 479
3 525 518 319
3 524 520 518
3 520 529 523
3 523 516 482
3 453 549 531
3 531 550 533
3 550 535 533
3 551 481 535
3 392 552 440
3 530 553 552
3 532 554 553
3 554 515 315
3 502 552 540
3 540 553 542
3 553 544 542
3 554 317 544
3 476 546 555
3 555 547 526
3 526 548 528
3 302 548 300
3 556 508 511
3 557 509 506
3 558 510 513
3 557 505 558
3 559 560 514
3 560 511 514
3 556 557 558
3 512 558 513
3 561 557 560
3 504 561 485
3 486 561 559
3 496 512 513
3 562 563 564
3 565 566 563
3 567 568 566
3 569 570 571
3 566 564 563
3 567 562 572
3 570 573 574
3 571 574 575
3 576 577 569
3 578 579 580
3 581 582 583
3 584 585 586
3 587 588 589
3 581 590 591
3 590 592 593
3 592 569 593
3 594 595 582
3 595 596 582
3 597 575 596
3 591 595 598
3 590 597 595
3 597 569 571
3 588 579 599
3 600 585 601
3 585 588 601
3 602 600 603
3 587 600 601
3 589 599 578
3 586 604 602
3 580 605 584
3 574 584 575
3 582 586 602
3 576 578 573
3 583 587 592
3 582 603 583
3 592 589 576
3 575 586 596
3 573 580 574
3 562 598 572
3 568 598 594
3 564 591 562
3 568 581 564
3 606 607 608
3 609 610 611
3 612 613 614
3 615 616 617
3 618 619 620
3 621 622 623
3 624 625 626
3 627 628 629
3 630 631 632
3 616 632 633
3 634 631 619
3 629 623 611
3 606 621 628
3 626 630 635
3 620 636 625
3 609 622 614
3 608 612 637
3 627 617 638
3 639 640 641
3 613 615 642
3 643 618 644
3 617 633 638
3 631 633 632
3 641 628 639
3 621 629 628
3 611 622 609
3 606 637 621
3 614 637 612
3 642 614 613
3 618 625 644
3 636 626 625
3 635 632 616
3 619 636 620
3 610 629 611
3 640 634 619
3 615 626 635
3 607 612 608
3 618 641 640
3 617 642 615
3 624 643 644
3 639 638 645
3 634 638 633
3 0 56 1
3 3 179 4
3 6 184 7
3 9 646 10
3 12 75 13
3 15 647 16
3 18 146 19
3 21 101 22
3 24 88 25
3 27 105 28
3 30 157 31
3 33 153 34
3 36 152 37
3 39 139 40
3 42 174 43
3 45 162 46
3 48 169 49
3 51 54 52
3 1 55 52
3 14 53 52
3 56 60 57
3 59 57 60
3 62 57 59
3 12 58 57
3 64 67 65
3 13 68 65
3 23 66 65
3 69 74 70
3 72 74 69
3 21 76 74
3 75 70 74
3 77 80 78
3 25 81 78
3 2 79 78
3 82 87 83
3 85 87 82
3 0 89 87
3 88 83 87
3 90 93 91
3 22 94 91
3 26 92 91
3 95 100 96
3 98 100 95
3 24 102 100
3 101 96 100
3 103 107 104
3 106 109 107
3 108 107 109
3 104 107 108
3 111 648 112
3 113 648 111
3 114 648 113
3 112 648 114
3 117 649 118
3 119 649 117
3 120 649 119
3 118 649 120
3 123 129 124
3 125 129 123
3 126 129 125
3 128 124 129
3 130 132 131
3 28 134 132
3 133 132 134
3 44 131 132
3 35 138 135
3 137 135 138
3 139 140 135
3 136 135 140
3 141 143 142
3 48 145 143
3 144 143 145
3 40 142 143
3 147 149 148
3 42 151 149
3 150 149 151
3 19 148 149
3 153 156 154
3 43 158 154
3 157 155 154
3 34 161 159
3 30 163 159
3 162 160 159
3 164 186 165
3 32 170 167
3 169 189 167
3 49 173 171
3 31 175 171
3 174 172 171
3 51 53 67
3 53 14 13
3 56 58 55
3 58 12 14
3 71 70 62
3 70 75 12
3 23 68 76
3 68 13 75
3 64 66 93
3 66 23 22
3 97 96 72
3 96 101 21
3 26 94 102
3 94 22 101
3 90 92 80
3 92 26 25
3 84 83 98
3 83 88 24
3 2 81 89
3 81 25 88
3 77 79 54
3 1 54 79
3 61 60 85
3 60 56 0
3 105 27 112
3 103 112 116
3 41 118 113
3 118 122 115
3 20 124 119
3 124 128 121
3 38 108 125
3 108 110 127
3 16 177 176
3 177 646 9
3 3 180 178
3 180 11 10
3 7 182 181
3 182 647 15
3 6 185 183
3 185 5 4
3 33 35 136
3 130 136 29
3 47 142 137
3 142 40 139
3 50 148 145
3 148 19 146
3 44 133 151
3 133 37 152
3 29 140 111
3 140 139 39
3 146 18 117
3 144 117 41
3 152 36 123
3 150 123 20
3 37 134 104
3 134 28 105
3 30 161 155
3 161 34 153
3 32 168 163
3 186 164 187
3 31 173 170
3 173 49 169
3 157 158 175
3 158 43 174
3 46 189 141
3 189 169 48
3 42 147 172
3 147 50 49
3 43 156 131
3 156 153 33
3 45 138 160
3 138 35 34
3 90 77 51
3 190 246 191
3 193 255 194
3 196 251 197
3 199 244 200
3 202 264 203
3 205 249 206
3 208 242 209
3 211 254 212
3 214 271 215
3 217 257 218
3 220 268 221
3 223 266 224
3 226 248 227
3 229 265 230
3 232 247 233
3 235 253 236
3 238 275 239
3 190 263 199
3 220 205 244
3 246 208 247
3 222 214 232
3 250 264 230
3 196 265 209
3 207 211 251
3 252 197 213
3 234 266 254
3 212 223 193
3 233 210 229
3 255 225 231
3 226 228 241
3 242 199 201
3 263 245 244
3 235 243 252
3 248 226 235
3 220 222 249
3 195 237 236
3 248 195 194
3 216 247 232
3 204 194 255
3 227 204 203
3 190 242 208
3 264 250 241
3 265 196 198
3 207 200 244
3 213 197 251
3 234 206 249
3 223 212 254
3 210 233 247
3 231 225 224
3 230 264 202
3 210 209 265
3 223 225 255
3 233 224 266
3 213 212 236
3 206 254 211
3 198 197 252
3 200 251 196
3 217 240 239
3 267 221 268
3 270 215 271
3 272 192 191
3 273 268 220
3 271 214 222
3 246 216 215
3 274 256 239
3 250 252 243
3 276 287 277
3 277 280 279
3 280 282 281
3 282 287 276
3 279 281 276
3 277 287 283
3 284 292 285
3 282 288 283
3 277 284 286
3 280 286 288
3 289 285 290
3 286 285 289
3 283 293 292
3 288 289 293
3 291 298 294
3 293 295 296
3 289 291 295
3 292 296 290
3 297 294 298
3 296 297 299
3 290 299 298
3 296 295 294
3 300 497 301
3 303 348 304
3 306 469 307
3 309 499 310
3 312 377 313
3 315 478 316
3 318 525 319
3 321 362 322
3 324 539 325
3 327 369 328
3 329 328 330
3 332 500 333
3 335 492 336
3 338 347 339
3 341 418 342
3 342 345 344
3 345 460 346
3 346 460 347
3 348 351 349
3 351 353 352
3 353 355 354
3 355 335 337
3 322 358 356
3 358 501 359
3 359 501 360
3 360 500 332
3 362 469 363
3 364 363 365
3 366 365 367
3 368 367 369
3 370 374 371
3 373 375 374
3 311 310 375
3 376 379 377
3 378 380 379
3 308 307 380
3 381 385 382
3 384 386 382
3 305 304 386
3 387 391 388
3 390 393 391
3 392 440 393
3 393 440 394
3 395 394 396
3 397 396 398
3 398 305 384
3 391 393 395
3 400 395 397
3 401 397 399
3 402 399 384
3 388 391 400
3 403 400 401
3 404 401 402
3 405 402 385
3 380 307 406
3 407 406 408
3 408 411 410
3 411 311 373
3 379 380 407
3 407 409 413
3 409 410 414
3 410 373 370
3 379 412 313
3 412 413 415
3 413 414 416
3 414 370 372
3 417 420 418
3 419 422 420
3 421 423 422
3 324 326 423
3 424 320 319
3 424 427 426
3 427 429 428
3 429 321 323
3 357 430 323
3 430 431 428
3 431 432 426
3 432 318 320
3 433 372 371
3 435 416 372
3 436 415 416
3 314 313 415
3 307 469 437
3 437 438 408
3 438 439 411
3 439 309 311
3 440 502 441
3 394 441 442
3 396 442 443
3 398 443 303
3 405 381 444
3 445 444 314
3 404 405 445
3 446 445 436
3 403 404 446
3 446 435 433
3 388 403 447
3 389 447 433
3 326 449 448
3 449 318 432
3 423 448 450
3 448 432 431
3 422 450 451
3 450 431 430
3 420 451 452
3 451 430 357
3 375 310 453
3 453 392 390
3 374 375 454
3 454 390 387
3 371 374 455
3 455 387 389
3 386 304 456
3 456 308 378
3 382 386 457
3 458 457 378
3 383 382 458
3 458 376 312
3 460 462 461
3 462 361 332
3 345 463 462
3 463 359 361
3 342 464 463
3 464 356 359
3 418 452 464
3 452 357 356
3 465 466 369
3 354 337 466
3 467 465 367
3 352 354 465
3 468 467 365
3 349 352 467
3 469 306 468
3 350 349 468
3 466 470 328
3 337 336 470
3 347 461 471
3 461 332 334
3 472 334 473
3 475 471 334
3 325 476 449
3 476 525 318
3 315 515 477
3 479 486 480
3 381 383 459
3 444 459 312
3 304 348 350
3 456 350 306
3 482 516 483
3 479 503 485
3 487 491 488
3 474 473 490
3 470 495 330
3 339 471 488
3 492 494 493
3 475 336 493
3 340 339 491
3 334 333 490
3 340 487 494
3 475 489 488
3 495 474 331
3 494 487 489
3 300 498 496
3 317 316 496
3 336 475 472
3 472 474 495
3 438 437 321
3 439 438 429
3 309 439 427
3 499 309 424
3 441 324 421
3 442 421 419
3 443 419 417
3 303 417 341
3 368 327 500
3 501 366 368
3 358 364 366
3 362 364 358
3 346 338 335
3 344 346 355
3 343 344 353
3 341 343 351
3 338 340 492
3 329 331 490
3 327 329 333
3 502 539 324
3 437 469 362
3 503 517 504
3 483 301 505
3 484 509 507
3 477 511 508
3 484 483 506
3 301 497 510
3 480 514 511
3 478 508 512
3 497 496 513
3 486 559 514
3 481 480 477
3 516 302 301
3 482 484 504
3 425 319 518
3 519 518 520
3 520 523 522
3 523 482 517
3 476 555 524
3 524 555 526
3 527 526 528
3 302 516 529
3 453 531 530
3 531 533 532
3 533 535 534
3 535 481 515
3 425 519 536
3 519 521 537
3 521 522 538
3 538 522 517
3 539 502 540
3 541 540 542
3 543 542 544
3 544 317 498
3 539 541 546
3 541 543 547
3 547 543 545
3 548 545 498
3 499 536 549
3 536 537 550
3 550 537 538
3 551 538 503
3 525 524 518
3 524 527 520
3 520 527 529
3 523 529 516
3 453 310 549
3 531 549 550
3 550 551 535
3 551 479 481
3 392 530 552
3 530 532 553
3 532 534 554
3 554 534 515
3 502 440 552
3 540 552 553
3 553 554 544
3 554 315 317
3 476 325 546
3 555 546 547
3 526 547 548
3 302 528 548
3 556 512 508
3 557 507 509
3 558 505 510
3 557 506 505
3 559 561 560
3 560 556 511
3 556 560 557
3 512 556 558
3 561 507 557
3 504 507 561
3 486 485 561
3 496 316 512
3 562 565 563
3 565 567 566
3 567 572 568
3 569 577 570
3 566 568 564
3 567 565 562
3 570 577 573
3 571 570 574
3 576 573 577
3 578 599 579
3 581 594 582
3 584 605 585
3 587 601 588
3 581 583 590
3 590 583 592
3 592 576 569
3 594 598 595
3 595 597 596
3 597 571 575
3 591 590 595
3 590 593 597
3 597 593 569
3 588 605 579
3 600 604 585
3 585 605 588
3 602 604 600
3 587 603 600
3 589 588 599
3 586 585 604
3 580 579 605
3 574 580 584
3 582 596 586
3 576 589 578
3 583 603 587
3 582 602 603
3 592 587 589
3 575 584 586
3 573 578 580
3 562 591 598
3 568 572 598
3 564 581 591
3 568 594 581
3 606 641 607
3 609 642 610
3 612 643 613
3 615 635 616
3 618 640 619
3 621 637 622
3 624 644 625
3 627 639 628
3 630 636 631
3 627 610 617
3 639 645 640
3 613 624 615
3 643 607 618
3 617 616 633
3 631 634 633
3 641 606 628
3 621 623 629
3 611 623 622
3 606 608 637
3 614 622 637
3 642 609 614
3 618 620 625
3 636 630 626
3 635 630 632
3 619 631 636
3 610 627 629
3 640 645 634
3 615 624 626
3 607 643 612
3 618 607 641
3 617 610 642
3 624 613 643
3 639 627 638
3 634 645 638
