ply
format ascii 1.0
comment Created by Blender 2.79 (sub 0) - www.blender.org, source file: 'cow.blend'
element vertex 313
property float x
property float y
property float z
property float s
property float t
property uchar red
property uchar green
property uchar blue
element face 202
property list uchar uint vertex_indices
end_header
-0.356192 -0.114973 0.041621 0.117351 0.976996 0 255 0
-0.392236 -0.048380 0.020810 0.692382 1.120836 0 255 0
-0.392236 -0.094163 0.020810 0.883395 1.030561 0 255 0
-0.392236 -0.048380 0.020810 0.692382 0.750000 0 255 0
-0.392236 -0.094163 -0.020810 0.883395 0.250000 0 255 0
-0.392236 -0.094163 0.020810 0.883395 0.750000 0 255 0
-0.392236 -0.048380 -0.020810 0.692382 0.120836 0 255 0
-0.356192 -0.114973 -0.041621 0.117351 -0.023004 0 255 0
-0.392236 -0.094163 -0.020810 0.883395 0.030561 0 255 0
-0.356192 -0.040056 -0.041621 0.804784 0.000000 0 255 0
-0.320147 -0.094163 0.020810 0.177658 0.750000 0 255 0
-0.320147 -0.094163 -0.020810 0.177658 0.250000 0 255 0
-0.356192 -0.040056 0.041621 0.804784 0.000000 0 255 0
-0.392236 -0.048380 -0.020810 1.692382 -0.750000 0 255 0
-0.392236 -0.048380 0.020810 1.692382 -0.250000 0 255 0
-0.320147 -0.094163 0.020810 -0.822342 1.005497 0 255 0
-0.356192 -0.040056 0.041621 -0.195216 1.124717 0 255 0
-0.356192 -0.114973 -0.041621 0.117351 0.976996 0 255 0
-0.356192 -0.040056 -0.041621 -0.195216 1.124717 0 255 0
-0.320147 -0.094163 -0.020810 -0.822342 1.005497 0 255 0
-0.356192 -0.114973 -0.041621 0.117351 0.000000 0 255 0
-0.356192 -0.114973 0.041621 0.117351 1.000000 0 255 0
-0.356192 -0.114973 0.041621 1.117351 1.000000 0 255 0
-0.356192 -0.114973 -0.041621 1.117351 0.000000 0 255 0
-0.392236 -0.048380 -0.020810 0.692382 0.250000 0 255 0
-0.356192 -0.040056 -0.041621 -0.195216 0.124717 0 255 0
-0.356192 -0.040056 0.041621 0.804784 1.000000 0 255 0
-0.356192 -0.040056 -0.041621 0.804784 -1.000000 0 255 0
-0.217238 0.006686 -0.046903 0.477262 0.656091 0 0 0
-0.217380 0.048509 -0.047526 0.468658 0.654843 0 0 0
-0.217571 0.007161 -0.042781 0.477558 0.664343 0 0 0
-0.217571 0.007161 -0.042781 0.477558 0.528270 0 0 0
-0.238124 0.048414 -0.049187 0.493355 0.543019 0 0 0
-0.238314 0.007065 -0.044442 0.502255 0.529441 0 0 0
-0.238124 0.048414 -0.049187 0.493355 0.651516 0 0 0
-0.237982 0.006591 -0.048564 0.501959 0.652765 0 0 0
-0.238314 0.007065 -0.044442 0.502255 0.661017 0 0 0
-0.237792 0.047940 -0.053309 0.493059 0.542843 0 0 0
-0.217238 0.006686 -0.046903 0.477262 0.528095 0 0 0
-0.237982 0.006591 -0.048564 0.501959 0.529266 0 0 0
-0.237792 0.047940 -0.053309 0.493059 0.643264 0 0 0
-0.217048 0.048035 -0.051648 0.468362 0.646590 0 0 0
-0.217380 0.048509 -0.047526 0.468658 0.541848 0 0 0
-0.217048 0.048035 -0.051648 0.468362 0.541673 0 0 0
-0.217380 0.048510 0.047526 0.468658 0.511824 0 0 0
-0.217239 0.006686 0.046903 0.477262 0.510576 0 0 0
-0.217571 0.007161 0.042781 0.477558 0.502324 0 0 0
-0.217239 0.006686 0.046903 0.477262 0.528095 0 0 0
-0.237792 0.047940 0.053309 0.493059 0.542843 0 0 0
-0.237982 0.006591 0.048564 0.501959 0.529266 0 0 0
-0.237982 0.006591 0.048564 0.501959 0.513902 0 0 0
-0.238124 0.048414 0.049187 0.493355 0.515150 0 0 0
-0.238314 0.007066 0.044442 0.502255 0.505650 0 0 0
-0.238124 0.048414 0.049187 0.493355 0.543019 0 0 0
-0.217571 0.007161 0.042781 0.477558 0.528270 0 0 0
-0.238314 0.007066 0.044442 0.502255 0.529441 0 0 0
-0.237792 0.047940 0.053309 0.493059 0.523402 0 0 0
-0.217048 0.048035 0.051648 0.468362 0.520076 0 0 0
-0.217048 0.048035 0.051648 0.468362 0.541673 0 0 0
-0.217380 0.048510 0.047526 0.468658 0.541848 0 0 0
-0.146782 0.033817 -0.037859 0.156527 0.000071 0 255 0
-0.139333 0.093778 -0.047396 0.126539 0.243555 0 255 0
-0.141154 0.086981 -0.062484 0.000071 0.321146 0 255 0
-0.144961 0.040613 0.022770 0.288273 0.481469 0 255 0
-0.159434 0.099164 0.047396 0.296896 0.171538 0 255 0
-0.181143 0.050308 0.022770 0.999928 0.183212 0 255 0
-0.144961 0.040613 -0.022770 0.326238 0.076218 0 255 0
-0.155414 0.098086 -0.047396 0.275963 0.340002 0 255 0
-0.146782 0.033817 0.037859 0.091296 0.512341 0 255 0
-0.143353 0.094855 0.047396 0.116984 0.283099 0 255 0
-0.157235 0.091290 -0.062484 0.257314 0.501636 0 255 0
-0.181143 0.050308 -0.022770 0.994765 0.334048 0 255 0
-0.145174 0.088059 0.062484 0.000072 0.186279 0 255 0
-0.182964 0.043512 0.037859 0.999928 0.001643 0 255 0
-0.161255 0.092368 0.062484 0.275470 0.000072 0 255 0
0.254580 -0.312581 -0.020810 1.000000 0.000000 255 0 0
0.275074 -0.308967 0.020810 0.500000 0.500000 255 0 0
0.254580 -0.312581 0.020810 0.500000 0.000000 255 0 0
0.211216 -0.066651 0.020810 0.000000 -0.125000 255 0 0
0.275074 -0.308967 0.020810 0.187500 1.132812 255 0 0
0.231710 -0.063037 0.020810 0.187500 -0.125000 255 0 0
0.231710 -0.063037 0.020810 0.500000 -0.125000 255 0 0
0.275074 -0.308967 -0.020810 0.187500 1.132812 255 0 0
0.231710 -0.063037 -0.020810 0.187500 -0.125000 255 0 0
0.231710 -0.063037 -0.020810 0.500000 -0.125000 255 0 0
0.254580 -0.312581 -0.020810 0.683594 1.132812 255 0 0
0.211216 -0.066651 -0.020810 0.683594 -0.125000 255 0 0
0.211216 -0.066651 -0.020810 0.687500 -0.125000 255 0 0
0.254580 -0.312581 0.020810 1.003906 1.136719 255 0 0
0.211216 -0.066651 0.020810 1.003906 -0.125000 255 0 0
0.231710 -0.063037 -0.020810 0.000000 0.500000 255 255 255
0.211216 -0.066651 0.020810 0.500000 0.000000 255 255 255
0.231710 -0.063037 0.020810 0.500000 0.500000 255 255 255
0.214011 -0.166999 -0.104052 0.750000 0.000000 255 0 0
0.214011 -0.499964 -0.029134 1.000000 1.000000 255 0 0
0.214011 -0.499964 -0.104052 0.750000 1.000000 255 0 0
0.214011 -0.499964 -0.029134 0.000000 1.000000 255 0 0
0.139094 -0.166999 -0.029134 0.250000 0.000000 255 0 0
0.139094 -0.499964 -0.029134 0.250000 1.000000 255 0 0
0.139094 -0.499964 -0.104052 0.500000 1.000000 255 0 0
0.139094 -0.166999 -0.104052 0.500000 0.000000 255 0 0
0.139094 -0.499964 -0.029134 0.666667 0.333333 255 0 0
0.214011 -0.499964 -0.104052 1.000000 0.000000 255 0 0
0.214011 -0.499964 -0.029134 1.000000 0.333333 255 0 0
0.214011 -0.166999 -0.029134 0.333333 1.000000 255 255 255
0.139094 -0.166999 -0.104052 0.000000 0.666667 255 255 255
0.139094 -0.166999 -0.029134 0.333333 0.666667 255 255 255
-0.085657 -0.166999 -0.104052 0.750000 0.000000 255 0 0
-0.085657 -0.499964 -0.029134 1.000000 1.000000 255 0 0
-0.085657 -0.499964 -0.104052 0.750000 1.000000 255 0 0
-0.085657 -0.499964 -0.029134 0.000000 1.000000 255 0 0
-0.160575 -0.166999 -0.029134 0.250000 0.000000 255 0 0
-0.160575 -0.499964 -0.029134 0.250000 1.000000 255 0 0
-0.160575 -0.499964 -0.104052 0.500000 1.000000 255 0 0
-0.160575 -0.166999 -0.104052 0.500000 0.000000 255 0 0
-0.160575 -0.499964 -0.029134 0.666667 0.333333 255 0 0
-0.085657 -0.499964 -0.104052 1.000000 0.000000 255 0 0
-0.085657 -0.499964 -0.029134 1.000000 0.333333 255 0 0
-0.085657 -0.166999 -0.029134 0.333333 1.000000 255 255 255
-0.160575 -0.166999 -0.104052 0.000000 0.666667 255 255 255
-0.160575 -0.166999 -0.029134 0.333333 0.666667 255 255 255
0.214011 -0.166999 0.029134 0.750000 0.000000 255 0 0
0.214011 -0.499964 0.104052 1.000000 1.000000 255 0 0
0.214011 -0.499964 0.029134 0.750000 1.000000 255 0 0
0.214011 -0.499964 0.104052 0.000000 1.000000 255 0 0
0.139094 -0.166999 0.104052 0.250000 0.000000 255 0 0
0.139094 -0.499964 0.104052 0.250000 1.000000 255 0 0
0.139094 -0.499964 0.029134 0.500000 1.000000 255 0 0
0.139094 -0.166999 0.029134 0.500000 0.000000 255 0 0
0.139094 -0.499964 0.104052 0.666667 0.333333 255 0 0
0.214011 -0.499964 0.029134 1.000000 0.000000 255 0 0
0.214011 -0.499964 0.104052 1.000000 0.333333 255 0 0
0.214011 -0.166999 0.104052 0.333333 1.000000 255 255 255
0.139094 -0.166999 0.029134 0.000000 0.666667 255 255 255
0.139094 -0.166999 0.104052 0.333333 0.666667 255 255 255
-0.138168 0.090086 -0.064243 0.000002 0.836534 255 0 0
-0.155993 0.103968 -0.045383 1.000000 0.163466 255 0 0
-0.135892 0.098582 -0.045383 1.000000 1.000000 255 0 0
-0.142496 0.041773 -0.018998 0.000000 0.300004 255 0 0
-0.155993 0.103968 -0.045383 0.262935 0.349999 255 0 0
-0.182698 0.052546 -0.018998 0.000000 1.000000 255 0 0
-0.139912 0.099659 0.045383 1.000000 0.828125 255 0 0
-0.144772 0.033278 0.037859 0.000000 0.171875 255 0 0
-0.142496 0.041773 0.018998 1.000000 0.000000 255 0 0
-0.184974 0.044051 0.037859 0.000000 0.996094 255 0 0
-0.160013 0.105045 0.045383 1.000000 0.003906 255 0 0
-0.182698 0.052546 0.018998 1.000000 1.000000 255 0 0
-0.160013 0.105045 0.045383 0.000000 0.376344 255 0 0
-0.142496 0.041773 0.018998 1.000000 0.247316 255 0 0
-0.182698 0.052546 -0.018998 1.000000 0.007812 255 0 0
-0.158269 0.095473 -0.064243 0.000000 0.992188 255 0 0
-0.184974 0.044051 -0.037859 0.000000 0.000000 255 0 0
-0.144961 0.040613 -0.022770 0.484716 0.537742 255 255 255
-0.142496 0.041773 -0.018998 0.481539 0.545295 255 255 255
-0.182698 0.052546 -0.018998 0.476829 0.545295 255 255 255
-0.141154 0.086981 -0.062484 0.933334 0.935667 255 0 0
-0.157235 0.091290 -0.062484 0.933333 0.655668 255 0 0
-0.158269 0.095473 -0.064243 1.000000 0.650002 255 0 0
-0.142188 0.091164 0.064243 1.000000 0.835938 255 0 0
-0.160013 0.105045 0.045383 0.000000 0.164062 255 0 0
-0.162289 0.096550 0.064243 1.000000 0.000000 255 0 0
-0.144772 0.033278 -0.037859 0.000000 0.882812 255 0 0
-0.135892 0.098582 -0.045383 1.000000 0.117188 255 0 0
-0.142496 0.041773 -0.018998 1.000000 1.000000 255 0 0
-0.144961 0.040613 0.022770 0.484716 0.628924 255 255 255
-0.181143 0.050308 0.022770 0.475449 0.628924 255 255 255
-0.182698 0.052546 0.018998 0.527106 0.621372 255 255 255
-0.145175 0.088059 0.062484 0.018849 0.930825 255 0 0
-0.142188 0.091164 0.064243 0.000000 1.000000 255 0 0
-0.162289 0.096550 0.064243 0.000000 0.623657 255 0 0
-0.184328 0.046659 -0.035378 1.000000 0.000000 255 255 255
-0.278505 -0.047518 0.035378 0.000000 1.000000 255 255 255
-0.184328 0.046659 0.035378 0.000000 0.000000 255 255 255
-0.184328 0.046659 0.035378 1.000000 0.000000 255 0 0
-0.084265 -0.053404 -0.035378 0.000000 1.000000 255 0 0
-0.184328 0.046659 -0.035378 0.000000 0.000000 255 0 0
-0.184328 0.046659 0.035378 0.000000 0.000000 255 0 0
-0.178442 -0.147581 0.035378 1.000000 1.000000 255 0 0
-0.084265 -0.053404 0.035378 0.000000 1.000000 255 0 0
-0.278505 -0.047518 -0.035378 1.000000 0.000000 255 0 0
-0.178442 -0.147581 0.035378 0.000000 1.000000 255 0 0
-0.278505 -0.047518 0.035378 0.000000 0.000000 255 0 0
-0.178442 -0.147581 -0.035378 1.000000 0.000000 255 255 255
-0.084265 -0.053404 0.035378 0.000000 1.000000 255 255 255
-0.178442 -0.147581 0.035378 0.000000 0.000000 255 255 255
-0.178442 -0.147581 -0.035378 0.000000 0.000000 255 0 0
-0.184328 0.046659 -0.035378 1.000000 1.000000 255 0 0
-0.146798 0.082664 0.000000 0.500000 0.019531 255 0 0
-0.239654 0.078563 0.054107 0.000000 0.781250 255 0 0
-0.143926 0.078563 0.043285 0.101562 0.000000 255 0 0
-0.143926 0.078563 0.043285 0.463034 1.000000 255 0 0
-0.239654 0.078563 0.054107 0.000000 0.616856 255 0 0
-0.134097 0.001605 0.043285 1.000000 0.984214 255 0 0
-0.359711 -0.039002 0.043285 0.000000 0.000000 255 0 0
-0.360144 -0.110947 -0.043285 1.000000 0.000000 255 0 0
-0.360144 -0.110947 0.043285 1.000000 1.000000 255 0 0
-0.359711 -0.039002 0.043285 0.529447 0.053225 255 0 0
-0.360144 -0.110947 0.043285 0.000000 0.000000 255 0 0
-0.134097 0.001605 -0.043285 1.000000 1.000000 255 0 0
-0.266734 0.080956 0.000000 0.500000 0.187500 255 0 0
-0.239654 0.078563 -0.054107 1.000000 0.000000 255 0 0
-0.359711 -0.039002 -0.043285 0.898438 1.000000 255 0 0
-0.146798 0.082664 0.000000 1.000000 0.500000 255 0 0
-0.134097 0.001605 0.043285 0.363281 1.000000 255 0 0
-0.126935 -0.008623 0.000000 0.000000 0.500000 255 0 0
-0.134097 0.001605 -0.043285 0.363281 0.000000 255 0 0
-0.239654 0.078563 -0.054107 1.000000 0.781250 255 0 0
-0.143926 0.078563 -0.043285 0.898438 0.000000 255 0 0
-0.360144 -0.110947 0.043285 1.000000 0.000000 255 0 0
-0.143926 0.078563 -0.043285 0.535156 1.000000 255 0 0
-0.134097 0.001605 -0.043285 0.000000 0.984375 255 0 0
-0.239654 0.078563 -0.054107 1.000000 0.617188 255 0 0
-0.359711 -0.039002 -0.043285 0.468750 0.054688 255 0 0
-0.360144 -0.110947 -0.043285 0.000000 0.000000 255 0 0
-0.266734 0.080956 0.000000 0.500000 1.000000 255 0 0
-0.359711 -0.039002 -0.043285 1.000000 0.000000 255 0 0
-0.360144 -0.110947 -0.043285 1.000000 1.000000 255 0 0
-0.126935 -0.008623 0.000000 0.000000 0.000000 255 0 0
-0.134097 0.001605 0.043285 1.000000 0.000000 255 0 0
-0.134097 0.001605 0.043285 0.000000 1.000000 255 0 0
-0.359711 -0.039002 0.043285 0.101562 1.000000 255 0 0
-0.239654 0.078563 0.054107 0.000000 0.000000 255 0 0
-0.143926 0.078563 0.043285 0.855469 1.000000 255 0 0
-0.143926 0.078563 -0.043285 0.855469 0.000000 255 0 0
-0.085657 -0.166999 0.029134 0.750000 0.000000 255 0 0
-0.085657 -0.499964 0.104052 1.000000 1.000000 255 0 0
-0.085657 -0.499964 0.029134 0.750000 1.000000 255 0 0
-0.085657 -0.499964 0.104052 0.000000 1.000000 255 0 0
-0.160575 -0.166999 0.104052 0.250000 0.000000 255 0 0
-0.160575 -0.499964 0.104052 0.250000 1.000000 255 0 0
-0.160575 -0.499964 0.029134 0.500000 1.000000 255 0 0
-0.160575 -0.166999 0.029134 0.500000 0.000000 255 0 0
-0.160575 -0.499964 0.104052 0.666667 0.333333 255 0 0
-0.085657 -0.499964 0.029134 1.000000 0.000000 255 0 0
-0.085657 -0.499964 0.104052 1.000000 0.333333 255 0 0
-0.085657 -0.166999 0.104052 0.333333 1.000000 255 255 255
-0.160575 -0.166999 0.029134 0.000000 0.666667 255 255 255
-0.160575 -0.166999 0.104052 0.333333 0.666667 255 255 255
-0.181385 -0.042137 -0.099889 1.000000 0.000000 255 0 0
0.234821 -0.291861 -0.124862 0.000000 1.000000 255 0 0
-0.181385 -0.291861 -0.124862 0.000000 0.000000 255 0 0
0.234821 -0.042137 -0.099889 0.000000 1.000000 255 0 0
-0.181385 -0.042137 0.099889 1.000000 0.000000 255 0 0
0.234821 -0.042137 0.099889 1.000000 1.000000 255 0 0
0.234821 -0.291861 0.124862 1.000000 1.000000 255 0 0
-0.181385 -0.042137 0.099889 0.000000 0.000000 255 0 0
-0.181385 -0.291861 0.124862 1.000000 0.000000 255 0 0
-0.181385 -0.291861 0.124862 0.000000 1.000000 255 0 0
0.234821 -0.042137 0.099889 1.000000 0.000000 255 0 0
0.234821 -0.042137 -0.099889 0.000000 0.000000 255 0 0
-0.181385 -0.291861 -0.124862 1.000000 0.000000 255 0 0
0.234821 -0.291861 0.124862 0.000000 1.000000 255 0 0
-0.181385 -0.291861 0.124862 0.000000 0.000000 255 0 0
-0.182964 0.043512 -0.037859 0.999929 0.501636 0 255 0
0.275074 -0.308967 -0.020810 1.000000 0.500000 255 0 0
0.254580 -0.312581 0.020810 0.000000 1.132812 255 0 0
0.275074 -0.308967 0.020810 0.500000 1.132812 255 0 0
0.275074 -0.308967 -0.020810 0.500000 1.132812 255 0 0
0.254580 -0.312581 -0.020810 0.687500 1.136719 255 0 0
0.211216 -0.066651 -0.020810 0.000000 0.000000 255 255 255
0.214011 -0.166999 -0.029134 1.000000 0.000000 255 0 0
0.214011 -0.166999 -0.029134 0.000000 0.000000 255 0 0
0.139094 -0.499964 -0.104052 0.666667 0.000000 255 0 0
0.214011 -0.166999 -0.104052 0.000000 1.000000 255 255 255
-0.085657 -0.166999 -0.029134 1.000000 0.000000 255 0 0
-0.085657 -0.166999 -0.029134 0.000000 0.000000 255 0 0
-0.160575 -0.499964 -0.104052 0.666667 0.000000 255 0 0
-0.085657 -0.166999 -0.104052 0.000000 1.000000 255 255 255
0.214011 -0.166999 0.104052 1.000000 0.000000 255 0 0
0.214011 -0.166999 0.104052 0.000000 0.000000 255 0 0
0.139094 -0.499964 0.029134 0.666667 0.000000 255 0 0
0.214011 -0.166999 0.029134 0.000000 1.000000 255 255 255
-0.158269 0.095473 -0.064243 0.000000 0.000000 255 0 0
-0.135892 0.098582 -0.045383 0.262935 0.000000 255 0 0
-0.162289 0.096550 0.064243 0.000000 0.000000 255 0 0
-0.139912 0.099659 0.045383 0.000001 0.000000 255 0 0
-0.155993 0.103968 -0.045383 1.000000 1.000000 255 0 0
-0.146782 0.033817 -0.037859 0.488308 0.507532 255 255 255
-0.144772 0.033278 -0.037859 0.486029 0.507532 255 255 255
-0.184974 0.044051 -0.037859 0.481319 0.507532 255 255 255
-0.181143 0.050308 -0.022770 0.475449 0.537742 255 255 255
-0.182964 0.043512 -0.037859 0.479041 0.507532 255 255 255
-0.182964 0.043512 -0.037859 0.000001 0.035000 255 0 0
-0.184974 0.044051 -0.037859 0.000001 0.000000 255 0 0
-0.138168 0.090086 -0.064243 1.000000 1.000000 255 0 0
-0.144772 0.033278 -0.037859 0.000000 0.699998 255 0 0
-0.146782 0.033817 -0.037859 0.000000 0.664999 255 0 0
-0.139912 0.099659 0.045383 0.000000 1.000000 255 0 0
-0.138168 0.090086 -0.064243 0.000000 0.000000 255 0 0
-0.142496 0.041773 0.018998 0.481539 0.621372 255 255 255
-0.144772 0.033278 0.037859 0.486029 0.659135 255 255 255
-0.146782 0.033817 0.037859 0.488308 0.659135 255 255 255
-0.182964 0.043512 0.037859 0.479041 0.659135 255 255 255
-0.184974 0.044051 0.037859 0.481319 0.659135 255 255 255
-0.146782 0.033817 0.037859 0.282726 0.715051 255 0 0
-0.144772 0.033278 0.037859 0.282725 0.752686 255 0 0
-0.184974 0.044051 0.037859 0.282726 0.000000 255 0 0
-0.182964 0.043512 0.037859 0.282726 0.037634 255 0 0
-0.161256 0.092368 0.062484 0.018848 0.629751 255 0 0
-0.278505 -0.047518 -0.035378 1.000000 1.000000 255 255 255
-0.084265 -0.053404 0.035378 1.000000 1.000000 255 0 0
-0.278505 -0.047518 0.035378 1.000000 0.000000 255 0 0
-0.178442 -0.147581 -0.035378 1.000000 1.000000 255 0 0
-0.084265 -0.053404 -0.035378 1.000000 1.000000 255 255 255
-0.085657 -0.166999 0.104052 1.000000 0.000000 255 0 0
-0.085657 -0.166999 0.104052 0.000000 0.000000 255 0 0
-0.160575 -0.499964 0.029134 0.666667 0.000000 255 0 0
-0.085657 -0.166999 0.029134 0.000000 1.000000 255 255 255
0.234821 -0.042137 -0.099889 1.000000 1.000000 255 0 0
-0.181385 -0.042137 -0.099889 0.000000 0.000000 255 0 0
0.234821 -0.042137 0.099889 0.000000 1.000000 255 0 0
-0.181385 -0.291861 -0.124862 1.000000 1.000000 255 0 0
0.234821 -0.291861 -0.124862 1.000000 1.000000 255 0 0
3 0 1 2
3 3 4 5
3 6 7 8
3 9 10 11
3 12 13 14
3 0 15 16
3 17 18 19
3 5 20 21
3 11 22 23
3 0 16 1
3 3 24 4
3 6 25 7
3 9 26 10
3 12 27 13
3 5 4 20
3 11 10 22
3 28 29 30
3 31 32 33
3 34 35 36
3 37 38 39
3 30 35 28
3 29 40 34
3 28 41 29
3 31 42 32
3 34 40 35
3 37 43 38
3 30 36 35
3 29 41 40
3 44 45 46
3 47 48 49
3 50 51 52
3 53 54 55
3 50 46 45
3 56 44 51
3 44 57 45
3 47 58 48
3 50 56 51
3 53 59 54
3 50 52 46
3 56 57 44
3 60 61 62
3 63 64 65
3 66 67 61
3 68 69 63
3 62 67 70
3 71 70 67
3 72 64 69
3 73 64 74
3 75 76 77
3 78 79 80
3 81 82 83
3 84 85 86
3 87 88 89
3 90 91 92
3 93 94 95
3 96 97 98
3 97 99 98
3 100 95 99
3 101 102 103
3 104 105 106
3 107 108 109
3 110 111 112
3 111 113 112
3 114 109 113
3 115 116 117
3 118 119 120
3 121 122 123
3 124 125 126
3 125 127 126
3 128 123 127
3 129 130 131
3 132 133 134
3 135 136 137
3 138 139 140
3 141 142 143
3 144 145 146
3 147 148 146
3 149 150 151
3 152 153 154
3 155 156 157
3 158 159 160
3 161 162 163
3 164 165 166
3 167 168 169
3 170 171 172
3 173 174 175
3 176 177 178
3 179 180 181
3 182 183 184
3 185 186 174
3 187 188 189
3 190 191 192
3 193 194 195
3 191 196 192
3 197 194 198
3 199 200 201
3 202 203 204
3 205 202 204
3 206 187 207
3 208 192 196
3 209 210 211
3 211 210 212
3 213 212 210
3 187 214 188
3 193 215 216
3 217 218 198
3 219 197 198
3 201 220 199
3 220 221 199
3 202 222 203
3 205 223 202
3 206 214 187
3 224 225 226
3 227 228 229
3 228 230 229
3 231 226 230
3 232 233 234
3 235 236 237
3 238 239 240
3 241 242 243
3 244 245 246
3 238 247 245
3 248 239 249
3 250 251 252
3 60 66 61
3 63 69 64
3 66 71 67
3 68 72 69
3 62 61 67
3 71 253 70
3 72 74 64
3 73 65 64
3 75 254 76
3 78 255 79
3 81 256 82
3 84 257 85
3 87 258 88
3 90 259 91
3 93 260 94
3 96 261 97
3 97 100 99
3 100 93 95
3 101 262 102
3 104 263 105
3 107 264 108
3 110 265 111
3 111 114 113
3 114 107 109
3 115 266 116
3 118 267 119
3 121 268 122
3 124 269 125
3 125 128 127
3 128 121 123
3 129 270 130
3 132 271 133
3 135 272 136
3 138 273 139
3 141 168 142
3 144 274 145
3 147 275 148
3 149 276 150
3 152 277 278
3 154 279 280
3 279 281 280
3 152 278 153
3 154 280 152
3 156 282 157
3 282 283 157
3 284 285 155
3 285 286 155
3 284 155 157
3 158 287 159
3 161 288 162
3 289 290 164
3 290 291 164
3 292 293 165
3 293 166 165
3 289 164 166
3 167 294 295
3 169 296 297
3 169 297 298
3 167 295 168
3 169 298 167
3 170 299 171
3 173 300 174
3 176 301 177
3 179 302 180
3 182 303 183
3 185 179 186
3 224 304 225
3 227 305 228
3 228 231 230
3 231 224 226
3 232 306 233
3 235 307 236
3 238 308 239
3 241 309 242
3 244 310 245
3 238 311 247
3 248 244 239
3 250 312 251
