ply
format ascii 1.0
comment Created by Blender 2.79 (sub 0) - www.blender.org, source file: 'cow.blend'
element vertex 313
property float x
property float y
property float z
property float s
property float t
property uchar red
property uchar green
property uchar blue
element face 202
property list uchar uint vertex_indices
end_header
-0.780520 0.344407 0.091203 0.117351 0.976996 0 255 0
-0.859505 0.490332 0.045602 0.692382 1.120836 0 255 0
-0.859505 0.390008 0.045602 0.883395 1.030561 0 255 0
-0.859505 0.490332 0.045602 0.692382 0.750000 0 255 0
-0.859505 0.390008 -0.045602 0.883395 0.250000 0 255 0
-0.859505 0.390008 0.045602 0.883395 0.750000 0 255 0
-0.859505 0.490332 -0.045602 0.692382 0.120836 0 255 0
-0.780520 0.344407 -0.091203 0.117351 -0.023004 0 255 0
-0.859505 0.390008 -0.045602 0.883395 0.030561 0 255 0
-0.780521 0.508572 -0.091203 0.804784 0.000000 0 255 0
-0.701536 0.390008 0.045602 0.177658 0.750000 0 255 0
-0.701536 0.390008 -0.045602 0.177658 0.250000 0 255 0
-0.780521 0.508572 0.091203 0.804784 0.000000 0 255 0
-0.859505 0.490332 -0.045602 1.692382 -0.750000 0 255 0
-0.859505 0.490332 0.045602 1.692382 -0.250000 0 255 0
-0.701536 0.390008 0.045602 -0.822342 1.005497 0 255 0
-0.780521 0.508572 0.091203 -0.195216 1.124717 0 255 0
-0.780520 0.344407 -0.091203 0.117351 0.976996 0 255 0
-0.780521 0.508572 -0.091203 -0.195216 1.124717 0 255 0
-0.701536 0.390008 -0.045602 -0.822342 1.005497 0 255 0
-0.780520 0.344407 -0.091203 0.117351 0.000000 0 255 0
-0.780520 0.344407 0.091203 0.117351 1.000000 0 255 0
-0.780520 0.344407 0.091203 1.117351 1.000000 0 255 0
-0.780520 0.344407 -0.091203 1.117351 0.000000 0 255 0
-0.859505 0.490332 -0.045602 0.692382 0.250000 0 255 0
-0.780521 0.508572 -0.091203 -0.195216 0.124717 0 255 0
-0.780521 0.508572 0.091203 0.804784 1.000000 0 255 0
-0.780521 0.508572 -0.091203 0.804784 -1.000000 0 255 0
-0.321642 0.670449 -0.082960 0.156527 0.000071 0 255 0
-0.305320 0.801840 -0.103858 0.126539 0.243555 0 255 0
-0.309310 0.786948 -0.136921 0.000071 0.321146 0 255 0
-0.317652 0.685341 0.049896 0.288273 0.481469 0 255 0
-0.349368 0.813643 0.103858 0.296896 0.171538 0 255 0
-0.396938 0.706586 0.049896 0.999928 0.183212 0 255 0
-0.317652 0.685341 -0.049896 0.326238 0.076218 0 255 0
-0.340558 0.811282 -0.103858 0.275963 0.340002 0 255 0
-0.321642 0.670449 0.082959 0.091296 0.512341 0 255 0
-0.314130 0.804201 0.103858 0.116984 0.283099 0 255 0
-0.344549 0.796390 -0.136921 0.257314 0.501636 0 255 0
-0.396938 0.706586 -0.049896 0.994765 0.334048 0 255 0
-0.318120 0.789308 0.136921 0.000072 0.186279 0 255 0
-0.400928 0.691693 0.082959 0.999928 0.001643 0 255 0
-0.353358 0.798751 0.136921 0.275470 0.000072 0 255 0
-0.476033 0.610997 -0.102778 0.477262 0.656091 0 0 0
-0.476344 0.702645 -0.104144 0.468658 0.654843 0 0 0
-0.476761 0.612037 -0.093746 0.477558 0.664343 0 0 0
-0.476761 0.612037 -0.093746 0.477558 0.528270 0 0 0
-0.521800 0.702436 -0.107784 0.493355 0.543019 0 0 0
-0.522217 0.611829 -0.097386 0.502255 0.529441 0 0 0
-0.521800 0.702436 -0.107784 0.493355 0.651516 0 0 0
-0.521489 0.610789 -0.106418 0.501959 0.652765 0 0 0
-0.522217 0.611829 -0.097386 0.502255 0.661017 0 0 0
-0.521072 0.701396 -0.116816 0.493059 0.542843 0 0 0
-0.476033 0.610997 -0.102778 0.477262 0.528095 0 0 0
-0.521489 0.610789 -0.106418 0.501959 0.529266 0 0 0
-0.521072 0.701396 -0.116816 0.493059 0.643264 0 0 0
-0.475616 0.701605 -0.113175 0.468362 0.646590 0 0 0
-0.476344 0.702645 -0.104144 0.468658 0.541848 0 0 0
-0.475616 0.701605 -0.113175 0.468362 0.541673 0 0 0
-0.476344 0.702645 0.104144 0.468658 0.511824 0 0 0
-0.476034 0.610997 0.102778 0.477262 0.510576 0 0 0
-0.476762 0.612037 0.093746 0.477558 0.502324 0 0 0
-0.476034 0.610997 0.102778 0.477262 0.528095 0 0 0
-0.521072 0.701396 0.116816 0.493059 0.542843 0 0 0
-0.521489 0.610789 0.106418 0.501959 0.529266 0 0 0
-0.521489 0.610789 0.106418 0.501959 0.513902 0 0 0
-0.521800 0.702436 0.107784 0.493355 0.515150 0 0 0
-0.522217 0.611829 0.097386 0.502255 0.505650 0 0 0
-0.521800 0.702436 0.107784 0.493355 0.543019 0 0 0
-0.476762 0.612037 0.093746 0.477558 0.528270 0 0 0
-0.522217 0.611829 0.097386 0.502255 0.529441 0 0 0
-0.521072 0.701396 0.116816 0.493059 0.523402 0 0 0
-0.475616 0.701605 0.113175 0.468362 0.520076 0 0 0
-0.475616 0.701605 0.113175 0.468362 0.541673 0 0 0
-0.476344 0.702645 0.104144 0.468658 0.541848 0 0 0
0.557860 -0.088611 -0.045602 1.000000 0.000000 255 0 0
0.602769 -0.080692 0.045602 0.500000 0.500000 255 0 0
0.557860 -0.088611 0.045602 0.500000 0.000000 255 0 0
0.462837 0.450294 0.045602 0.000000 -0.125000 255 0 0
0.602769 -0.080692 0.045602 0.187500 1.132812 255 0 0
0.507746 0.458213 0.045602 0.187500 -0.125000 255 0 0
0.507746 0.458213 0.045602 0.500000 -0.125000 255 0 0
0.602769 -0.080692 -0.045602 0.187500 1.132812 255 0 0
0.507746 0.458213 -0.045602 0.187500 -0.125000 255 0 0
0.507746 0.458213 -0.045602 0.500000 -0.125000 255 0 0
0.557860 -0.088611 -0.045602 0.683594 1.132812 255 0 0
0.462837 0.450294 -0.045602 0.683594 -0.125000 255 0 0
0.462837 0.450294 -0.045602 0.687500 -0.125000 255 0 0
0.557860 -0.088611 0.045602 1.003906 1.136719 255 0 0
0.462837 0.450294 0.045602 1.003906 -0.125000 255 0 0
0.507746 0.458213 -0.045602 0.000000 0.500000 255 255 255
0.462837 0.450294 0.045602 0.500000 0.000000 255 255 255
0.507746 0.458213 0.045602 0.500000 0.500000 255 255 255
0.468961 0.230403 -0.228008 0.750000 0.000000 255 0 0
0.468961 -0.499222 -0.063842 1.000000 1.000000 255 0 0
0.468961 -0.499222 -0.228008 0.750000 1.000000 255 0 0
0.468961 -0.499222 -0.063842 0.000000 1.000000 255 0 0
0.304795 0.230403 -0.063842 0.250000 0.000000 255 0 0
0.304795 -0.499222 -0.063842 0.250000 1.000000 255 0 0
0.304795 -0.499222 -0.228008 0.500000 1.000000 255 0 0
0.304795 0.230403 -0.228008 0.500000 0.000000 255 0 0
0.304795 -0.499222 -0.063842 0.666667 0.333333 255 0 0
0.468961 -0.499222 -0.228008 1.000000 0.000000 255 0 0
0.468961 -0.499222 -0.063842 1.000000 0.333333 255 0 0
0.468961 0.230403 -0.063842 0.333333 1.000000 255 255 255
0.304795 0.230403 -0.228008 0.000000 0.666667 255 255 255
0.304795 0.230403 -0.063842 0.333333 0.666667 255 255 255
-0.187701 0.230403 -0.228008 0.750000 0.000000 255 0 0
-0.187701 -0.499222 -0.063842 1.000000 1.000000 255 0 0
-0.187701 -0.499222 -0.228008 0.750000 1.000000 255 0 0
-0.187701 -0.499222 -0.063842 0.000000 1.000000 255 0 0
-0.351866 0.230403 -0.063842 0.250000 0.000000 255 0 0
-0.351866 -0.499222 -0.063842 0.250000 1.000000 255 0 0
-0.351866 -0.499222 -0.228008 0.500000 1.000000 255 0 0
-0.351866 0.230403 -0.228008 0.500000 0.000000 255 0 0
-0.351866 -0.499222 -0.063842 0.666667 0.333333 255 0 0
-0.187701 -0.499222 -0.228008 1.000000 0.000000 255 0 0
-0.187701 -0.499222 -0.063842 1.000000 0.333333 255 0 0
-0.187701 0.230403 -0.063842 0.333333 1.000000 255 255 255
-0.351866 0.230403 -0.228008 0.000000 0.666667 255 255 255
-0.351866 0.230403 -0.063842 0.333333 0.666667 255 255 255
0.468961 0.230403 0.063842 0.750000 0.000000 255 0 0
0.468961 -0.499222 0.228008 1.000000 1.000000 255 0 0
0.468961 -0.499222 0.063842 0.750000 1.000000 255 0 0
0.468961 -0.499222 0.228008 0.000000 1.000000 255 0 0
0.304795 0.230403 0.228008 0.250000 0.000000 255 0 0
0.304795 -0.499222 0.228008 0.250000 1.000000 255 0 0
0.304795 -0.499222 0.063842 0.500000 1.000000 255 0 0
0.304795 0.230403 0.063842 0.500000 0.000000 255 0 0
0.304795 -0.499222 0.228008 0.666667 0.333333 255 0 0
0.468961 -0.499222 0.063842 1.000000 0.000000 255 0 0
0.468961 -0.499222 0.228008 1.000000 0.333333 255 0 0
0.468961 0.230403 0.228008 0.333333 1.000000 255 255 255
0.304795 0.230403 0.063842 0.000000 0.666667 255 255 255
0.304795 0.230403 0.228008 0.333333 0.666667 255 255 255
-0.302766 0.793752 -0.140776 0.000002 0.836534 255 0 0
-0.341826 0.824170 -0.099447 1.000000 0.163466 255 0 0
-0.297778 0.812367 -0.099447 1.000000 1.000000 255 0 0
-0.312250 0.687884 -0.041630 0.000000 0.300004 255 0 0
-0.341826 0.824170 -0.099447 0.262935 0.349999 255 0 0
-0.400345 0.711489 -0.041630 0.000000 1.000000 255 0 0
-0.306588 0.814728 0.099447 1.000000 0.828125 255 0 0
-0.317238 0.669269 0.082959 0.000000 0.171875 255 0 0
-0.312250 0.687884 0.041630 1.000000 0.000000 255 0 0
-0.405333 0.692874 0.082959 0.000000 0.996094 255 0 0
-0.350636 0.826530 0.099447 1.000000 0.003906 255 0 0
-0.400345 0.711489 0.041630 1.000000 1.000000 255 0 0
-0.350636 0.826530 0.099447 0.000000 0.376344 255 0 0
-0.312250 0.687884 0.041630 1.000000 0.247316 255 0 0
-0.400345 0.711489 -0.041630 1.000000 0.007812 255 0 0
-0.346814 0.805555 -0.140776 0.000000 0.992188 255 0 0
-0.405333 0.692874 -0.082959 0.000000 0.000000 255 0 0
-0.317652 0.685341 -0.049896 0.484716 0.537742 255 255 255
-0.312250 0.687884 -0.041630 0.481539 0.545295 255 255 255
-0.400345 0.711489 -0.041630 0.476829 0.545295 255 255 255
-0.309311 0.786948 -0.136921 0.933334 0.935667 255 0 0
-0.344549 0.796390 -0.136921 0.933333 0.655668 255 0 0
-0.346814 0.805555 -0.140776 1.000000 0.650002 255 0 0
-0.311576 0.796112 0.140776 1.000000 0.835938 255 0 0
-0.350636 0.826530 0.099447 0.000000 0.164062 255 0 0
-0.355624 0.807915 0.140776 1.000000 0.000000 255 0 0
-0.317238 0.669269 -0.082960 0.000000 0.882812 255 0 0
-0.297778 0.812367 -0.099447 1.000000 0.117188 255 0 0
-0.312250 0.687884 -0.041630 1.000000 1.000000 255 0 0
-0.317652 0.685341 0.049896 0.484716 0.628924 255 255 255
-0.396938 0.706586 0.049896 0.475449 0.628924 255 255 255
-0.400345 0.711489 0.041630 0.527106 0.621372 255 255 255
-0.318120 0.789309 0.136921 0.018849 0.930825 255 0 0
-0.311576 0.796112 0.140776 0.000000 1.000000 255 0 0
-0.355624 0.807915 0.140776 0.000000 0.623657 255 0 0
-0.403917 0.698589 -0.077523 1.000000 0.000000 255 255 255
-0.610286 0.492220 0.077523 0.000000 1.000000 255 255 255
-0.403917 0.698589 0.077523 0.000000 0.000000 255 255 255
-0.403917 0.698589 0.077523 1.000000 0.000000 255 0 0
-0.184650 0.479322 -0.077523 0.000000 1.000000 255 0 0
-0.403917 0.698589 -0.077523 0.000000 0.000000 255 0 0
-0.403917 0.698589 0.077523 0.000000 0.000000 255 0 0
-0.391019 0.272953 0.077523 1.000000 1.000000 255 0 0
-0.184650 0.479322 0.077523 0.000000 1.000000 255 0 0
-0.610286 0.492220 -0.077523 1.000000 0.000000 255 0 0
-0.391019 0.272953 0.077523 0.000000 1.000000 255 0 0
-0.610286 0.492220 0.077523 0.000000 0.000000 255 0 0
-0.391019 0.272953 -0.077523 1.000000 0.000000 255 255 255
-0.184650 0.479322 0.077523 0.000000 1.000000 255 255 255
-0.391019 0.272953 0.077523 0.000000 0.000000 255 255 255
-0.391019 0.272953 -0.077523 0.000000 0.000000 255 0 0
-0.403917 0.698589 -0.077523 1.000000 1.000000 255 0 0
-0.321677 0.777486 -0.000000 0.500000 0.019531 255 0 0
-0.525152 0.768501 0.118564 0.000000 0.781250 255 0 0
-0.315385 0.768501 0.094851 0.101562 0.000000 255 0 0
-0.315385 0.768501 0.094851 0.463034 1.000000 255 0 0
-0.525152 0.768501 0.118564 0.000000 0.616856 255 0 0
-0.293846 0.599862 0.094851 1.000000 0.984214 255 0 0
-0.788232 0.510881 0.094851 0.000000 0.000000 255 0 0
-0.789181 0.353229 -0.094851 1.000000 0.000000 255 0 0
-0.789181 0.353229 0.094851 1.000000 1.000000 255 0 0
-0.788232 0.510881 0.094851 0.529447 0.053225 255 0 0
-0.789181 0.353229 0.094851 0.000000 0.000000 255 0 0
-0.293846 0.599862 -0.094851 1.000000 1.000000 255 0 0
-0.584492 0.773744 -0.000000 0.500000 0.187500 255 0 0
-0.525152 0.768501 -0.118564 1.000000 0.000000 255 0 0
-0.788232 0.510881 -0.094851 0.898438 1.000000 255 0 0
-0.321677 0.777486 -0.000000 1.000000 0.500000 255 0 0
-0.293846 0.599862 0.094851 0.363281 1.000000 255 0 0
-0.278152 0.577450 -0.000000 0.000000 0.500000 255 0 0
-0.293846 0.599862 -0.094851 0.363281 0.000000 255 0 0
-0.525152 0.768501 -0.118564 1.000000 0.781250 255 0 0
-0.315385 0.768501 -0.094851 0.898438 0.000000 255 0 0
-0.789181 0.353229 0.094851 1.000000 0.000000 255 0 0
-0.315385 0.768501 -0.094851 0.535156 1.000000 255 0 0
-0.293846 0.599862 -0.094851 0.000000 0.984375 255 0 0
-0.525152 0.768501 -0.118564 1.000000 0.617188 255 0 0
-0.788232 0.510881 -0.094851 0.468750 0.054688 255 0 0
-0.789181 0.353229 -0.094851 0.000000 0.000000 255 0 0
-0.584492 0.773744 -0.000000 0.500000 1.000000 255 0 0
-0.788232 0.510881 -0.094851 1.000000 0.000000 255 0 0
-0.789181 0.353229 -0.094851 1.000000 1.000000 255 0 0
-0.278152 0.577450 -0.000000 0.000000 0.000000 255 0 0
-0.293846 0.599862 0.094851 1.000000 0.000000 255 0 0
-0.293846 0.599862 0.094851 0.000000 1.000000 255 0 0
-0.788232 0.510881 0.094851 0.101562 1.000000 255 0 0
-0.525152 0.768501 0.118564 0.000000 0.000000 255 0 0
-0.315385 0.768501 0.094851 0.855469 1.000000 255 0 0
-0.315385 0.768501 -0.094851 0.855469 0.000000 255 0 0
-0.187701 0.230403 0.063842 0.750000 0.000000 255 0 0
-0.187701 -0.499222 0.228008 1.000000 1.000000 255 0 0
-0.187701 -0.499222 0.063842 0.750000 1.000000 255 0 0
-0.187701 -0.499222 0.228008 0.000000 1.000000 255 0 0
-0.351866 0.230403 0.228008 0.250000 0.000000 255 0 0
-0.351866 -0.499222 0.228008 0.250000 1.000000 255 0 0
-0.351866 -0.499222 0.063842 0.500000 1.000000 255 0 0
-0.351866 0.230403 0.063842 0.500000 0.000000 255 0 0
-0.351866 -0.499222 0.228008 0.666667 0.333333 255 0 0
-0.187701 -0.499222 0.063842 1.000000 0.000000 255 0 0
-0.187701 -0.499222 0.228008 1.000000 0.333333 255 0 0
-0.187701 0.230403 0.228008 0.333333 1.000000 255 255 255
-0.351866 0.230403 0.063842 0.000000 0.666667 255 255 255
-0.351866 0.230403 0.228008 0.333333 0.666667 255 255 255
-0.397468 0.504012 -0.218887 1.000000 0.000000 255 0 0
0.514562 -0.043207 -0.273609 0.000000 1.000000 255 0 0
-0.397468 -0.043206 -0.273609 0.000000 0.000000 255 0 0
0.514562 0.504012 -0.218887 0.000000 1.000000 255 0 0
-0.397468 0.504012 0.218887 1.000000 0.000000 255 0 0
0.514562 0.504012 0.218887 1.000000 1.000000 255 0 0
0.514562 -0.043207 0.273609 1.000000 1.000000 255 0 0
-0.397468 0.504012 0.218887 0.000000 0.000000 255 0 0
-0.397468 -0.043206 0.273609 1.000000 0.000000 255 0 0
-0.397468 -0.043206 0.273609 0.000000 1.000000 255 0 0
0.514562 0.504012 0.218887 1.000000 0.000000 255 0 0
0.514562 0.504012 -0.218887 0.000000 0.000000 255 0 0
-0.397468 -0.043206 -0.273609 1.000000 0.000000 255 0 0
0.514562 -0.043207 0.273609 0.000000 1.000000 255 0 0
-0.397468 -0.043206 0.273609 0.000000 0.000000 255 0 0
-0.400928 0.691693 -0.082959 0.999929 0.501636 0 255 0
0.602769 -0.080692 -0.045602 1.000000 0.500000 255 0 0
0.557860 -0.088611 0.045602 0.000000 1.132812 255 0 0
0.602769 -0.080692 0.045602 0.500000 1.132812 255 0 0
0.602769 -0.080692 -0.045602 0.500000 1.132812 255 0 0
0.557860 -0.088611 -0.045602 0.687500 1.136719 255 0 0
0.462837 0.450294 -0.045602 0.000000 0.000000 255 255 255
0.468961 0.230403 -0.063842 1.000000 0.000000 255 0 0
0.468961 0.230403 -0.063842 0.000000 0.000000 255 0 0
0.304795 -0.499222 -0.228008 0.666667 0.000000 255 0 0
0.468961 0.230403 -0.228008 0.000000 1.000000 255 255 255
-0.187701 0.230403 -0.063842 1.000000 0.000000 255 0 0
-0.187701 0.230403 -0.063842 0.000000 0.000000 255 0 0
-0.351866 -0.499222 -0.228008 0.666667 0.000000 255 0 0
-0.187701 0.230403 -0.228008 0.000000 1.000000 255 255 255
0.468961 0.230403 0.228008 1.000000 0.000000 255 0 0
0.468961 0.230403 0.228008 0.000000 0.000000 255 0 0
0.304795 -0.499222 0.063842 0.666667 0.000000 255 0 0
0.468961 0.230403 0.063842 0.000000 1.000000 255 255 255
-0.346814 0.805555 -0.140776 0.000000 0.000000 255 0 0
-0.297778 0.812367 -0.099447 0.262935 0.000000 255 0 0
-0.355624 0.807915 0.140776 0.000000 0.000000 255 0 0
-0.306588 0.814728 0.099447 0.000001 0.000000 255 0 0
-0.341826 0.824170 -0.099447 1.000000 1.000000 255 0 0
-0.321642 0.670449 -0.082960 0.488308 0.507532 255 255 255
-0.317238 0.669269 -0.082960 0.486029 0.507532 255 255 255
-0.405333 0.692874 -0.082959 0.481319 0.507532 255 255 255
-0.396938 0.706586 -0.049896 0.475449 0.537742 255 255 255
-0.400928 0.691694 -0.082959 0.479041 0.507532 255 255 255
-0.400928 0.691694 -0.082959 0.000001 0.035000 255 0 0
-0.405333 0.692874 -0.082959 0.000001 0.000000 255 0 0
-0.302766 0.793752 -0.140776 1.000000 1.000000 255 0 0
-0.317238 0.669269 -0.082960 0.000000 0.699998 255 0 0
-0.321642 0.670449 -0.082960 0.000000 0.664999 255 0 0
-0.306588 0.814728 0.099447 0.000000 1.000000 255 0 0
-0.302766 0.793752 -0.140776 0.000000 0.000000 255 0 0
-0.312250 0.687884 0.041630 0.481539 0.621372 255 255 255
-0.317238 0.669269 0.082959 0.486029 0.659135 255 255 255
-0.321642 0.670449 0.082959 0.488308 0.659135 255 255 255
-0.400928 0.691694 0.082959 0.479041 0.659135 255 255 255
-0.405333 0.692874 0.082959 0.481319 0.659135 255 255 255
-0.321642 0.670449 0.082959 0.282726 0.715051 255 0 0
-0.317238 0.669269 0.082959 0.282725 0.752686 255 0 0
-0.405333 0.692874 0.082959 0.282726 0.000000 255 0 0
-0.400928 0.691694 0.082959 0.282726 0.037634 255 0 0
-0.353358 0.798751 0.136921 0.018848 0.629751 255 0 0
-0.610286 0.492220 -0.077523 1.000000 1.000000 255 255 255
-0.184650 0.479322 0.077523 1.000000 1.000000 255 0 0
-0.610286 0.492220 0.077523 1.000000 0.000000 255 0 0
-0.391019 0.272953 -0.077523 1.000000 1.000000 255 0 0
-0.184650 0.479322 -0.077523 1.000000 1.000000 255 255 255
-0.187701 0.230403 0.228008 1.000000 0.000000 255 0 0
-0.187701 0.230403 0.228008 0.000000 0.000000 255 0 0
-0.351866 -0.499222 0.063842 0.666667 0.000000 255 0 0
-0.187701 0.230403 0.063842 0.000000 1.000000 255 255 255
0.514562 0.504012 -0.218887 1.000000 1.000000 255 0 0
-0.397468 0.504012 -0.218887 0.000000 0.000000 255 0 0
0.514562 0.504012 0.218887 0.000000 1.000000 255 0 0
-0.397468 -0.043206 -0.273609 1.000000 1.000000 255 0 0
0.514562 -0.043207 -0.273609 1.000000 1.000000 255 0 0
3 0 1 2
3 3 4 5
3 6 7 8
3 9 10 11
3 12 13 14
3 0 15 16
3 17 18 19
3 5 20 21
3 11 22 23
3 0 16 1
3 3 24 4
3 6 25 7
3 9 26 10
3 12 27 13
3 5 4 20
3 11 10 22
3 28 29 30
3 31 32 33
3 34 35 29
3 36 37 31
3 30 35 38
3 39 38 35
3 40 32 37
3 41 32 42
3 43 44 45
3 46 47 48
3 49 50 51
3 52 53 54
3 45 50 43
3 44 55 49
3 43 56 44
3 46 57 47
3 49 55 50
3 52 58 53
3 45 51 50
3 44 56 55
3 59 60 61
3 62 63 64
3 65 66 67
3 68 69 70
3 65 61 60
3 71 59 66
3 59 72 60
3 62 73 63
3 65 71 66
3 68 74 69
3 65 67 61
3 71 72 59
3 75 76 77
3 78 79 80
3 81 82 83
3 84 85 86
3 87 88 89
3 90 91 92
3 93 94 95
3 96 97 98
3 97 99 98
3 100 95 99
3 101 102 103
3 104 105 106
3 107 108 109
3 110 111 112
3 111 113 112
3 114 109 113
3 115 116 117
3 118 119 120
3 121 122 123
3 124 125 126
3 125 127 126
3 128 123 127
3 129 130 131
3 132 133 134
3 135 136 137
3 138 139 140
3 141 142 143
3 144 145 146
3 147 148 146
3 149 150 151
3 152 153 154
3 155 156 157
3 158 159 160
3 161 162 163
3 164 165 166
3 167 168 169
3 170 171 172
3 173 174 175
3 176 177 178
3 179 180 181
3 182 183 184
3 185 186 174
3 187 188 189
3 190 191 192
3 193 194 195
3 191 196 192
3 197 194 198
3 199 200 201
3 202 203 204
3 205 202 204
3 206 187 207
3 208 192 196
3 209 210 211
3 211 210 212
3 213 212 210
3 187 214 188
3 193 215 216
3 217 218 198
3 219 197 198
3 201 220 199
3 220 221 199
3 202 222 203
3 205 223 202
3 206 214 187
3 224 225 226
3 227 228 229
3 228 230 229
3 231 226 230
3 232 233 234
3 235 236 237
3 238 239 240
3 241 242 243
3 244 245 246
3 238 247 245
3 248 239 249
3 250 251 252
3 28 34 29
3 31 37 32
3 34 39 35
3 36 40 37
3 30 29 35
3 39 253 38
3 40 42 32
3 41 33 32
3 75 254 76
3 78 255 79
3 81 256 82
3 84 257 85
3 87 258 88
3 90 259 91
3 93 260 94
3 96 261 97
3 97 100 99
3 100 93 95
3 101 262 102
3 104 263 105
3 107 264 108
3 110 265 111
3 111 114 113
3 114 107 109
3 115 266 116
3 118 267 119
3 121 268 122
3 124 269 125
3 125 128 127
3 128 121 123
3 129 270 130
3 132 271 133
3 135 272 136
3 138 273 139
3 141 168 142
3 144 274 145
3 147 275 148
3 149 276 150
3 152 277 278
3 154 279 280
3 279 281 280
3 152 278 153
3 154 280 152
3 156 282 157
3 282 283 157
3 284 285 155
3 285 286 155
3 284 155 157
3 158 287 159
3 161 288 162
3 289 290 164
3 290 291 164
3 292 293 165
3 293 166 165
3 289 164 166
3 167 294 295
3 169 296 297
3 169 297 298
3 167 295 168
3 169 298 167
3 170 299 171
3 173 300 174
3 176 301 177
3 179 302 180
3 182 303 183
3 185 179 186
3 224 304 225
3 227 305 228
3 228 231 230
3 231 224 226
3 232 306 233
3 235 307 236
3 238 308 239
3 241 309 242
3 244 310 245
3 238 311 247
3 248 244 239
3 250 312 251
