ply
format ascii 1.0
comment Created by Blender 2.79 (sub 0) - www.blender.org, source file: 'cow.blend'
element vertex 313
property float x
property float y
property float z
property float s
property float t
property uchar red
property uchar green
property uchar blue
element face 202
property list uchar uint vertex_indices
end_header
0.769645 0.141264 -0.071088 1.000000 0.000000 255 0 0
0.839653 0.153608 0.071088 0.500000 0.500000 255 0 0
0.769645 0.141264 0.071088 0.500000 0.000000 255 0 0
0.621514 0.981360 0.071088 0.000000 -0.125000 255 0 0
0.839653 0.153608 0.071088 0.187500 1.132812 255 0 0
0.691522 0.993704 0.071088 0.187500 -0.125000 255 0 0
0.691522 0.993704 0.071088 0.500000 -0.125000 255 0 0
0.839653 0.153608 -0.071088 0.187500 1.132812 255 0 0
0.691522 0.993704 -0.071088 0.187500 -0.125000 255 0 0
0.691522 0.993704 -0.071088 0.500000 -0.125000 255 0 0
0.769645 0.141264 -0.071088 0.683594 1.132812 255 0 0
0.621514 0.981360 -0.071088 0.683594 -0.125000 255 0 0
0.621514 0.981360 -0.071088 0.687500 -0.125000 255 0 0
0.769645 0.141264 0.071088 1.003906 1.136719 255 0 0
0.621514 0.981360 0.071088 1.003906 -0.125000 255 0 0
0.691522 0.993704 -0.071088 0.000000 0.500000 255 255 255
0.621514 0.981360 0.071088 0.500000 0.000000 255 255 255
0.691522 0.993704 0.071088 0.500000 0.500000 255 255 255
0.631060 0.638572 -0.355440 0.750000 0.000000 255 0 0
0.631060 -0.498835 -0.099523 1.000000 1.000000 255 0 0
0.631060 -0.498835 -0.355440 0.750000 1.000000 255 0 0
0.631060 -0.498835 -0.099523 0.000000 1.000000 255 0 0
0.375144 0.638572 -0.099523 0.250000 0.000000 255 0 0
0.375144 -0.498835 -0.099523 0.250000 1.000000 255 0 0
0.375144 -0.498835 -0.355440 0.500000 1.000000 255 0 0
0.375144 0.638572 -0.355440 0.500000 0.000000 255 0 0
0.375144 -0.498835 -0.099523 0.666667 0.333333 255 0 0
0.631060 -0.498835 -0.355440 1.000000 0.000000 255 0 0
0.631060 -0.498835 -0.099523 1.000000 0.333333 255 0 0
0.631060 0.638572 -0.099523 0.333333 1.000000 255 255 255
0.375144 0.638572 -0.355440 0.000000 0.666667 255 255 255
0.375144 0.638572 -0.099523 0.333333 0.666667 255 255 255
-0.392606 0.638572 -0.355440 0.750000 0.000000 255 0 0
-0.392606 -0.498835 -0.099523 1.000000 1.000000 255 0 0
-0.392606 -0.498835 -0.355440 0.750000 1.000000 255 0 0
-0.392606 -0.498835 -0.099523 0.000000 1.000000 255 0 0
-0.648522 0.638572 -0.099523 0.250000 0.000000 255 0 0
-0.648522 -0.498835 -0.099523 0.250000 1.000000 255 0 0
-0.648522 -0.498835 -0.355440 0.500000 1.000000 255 0 0
-0.648522 0.638572 -0.355440 0.500000 0.000000 255 0 0
-0.648522 -0.498835 -0.099523 0.666667 0.333333 255 0 0
-0.392606 -0.498835 -0.355440 1.000000 0.000000 255 0 0
-0.392606 -0.498835 -0.099523 1.000000 0.333333 255 0 0
-0.392606 0.638572 -0.099523 0.333333 1.000000 255 255 255
-0.648522 0.638572 -0.355440 0.000000 0.666667 255 255 255
-0.648522 0.638572 -0.099523 0.333333 0.666667 255 255 255
0.631060 0.638572 0.099523 0.750000 0.000000 255 0 0
0.631060 -0.498835 0.355440 1.000000 1.000000 255 0 0
0.631060 -0.498835 0.099523 0.750000 1.000000 255 0 0
0.631060 -0.498835 0.355440 0.000000 1.000000 255 0 0
0.375144 0.638572 0.355440 0.250000 0.000000 255 0 0
0.375144 -0.498835 0.355440 0.250000 1.000000 255 0 0
0.375144 -0.498835 0.099523 0.500000 1.000000 255 0 0
0.375144 0.638572 0.099523 0.500000 0.000000 255 0 0
0.375144 -0.498835 0.355440 0.666667 0.333333 255 0 0
0.631060 -0.498835 0.099523 1.000000 0.000000 255 0 0
0.631060 -0.498835 0.355440 1.000000 0.333333 255 0 0
0.631060 0.638572 0.355440 0.333333 1.000000 255 255 255
0.375144 0.638572 0.099523 0.000000 0.666667 255 255 255
0.375144 0.638572 0.355440 0.333333 0.666667 255 255 255
-0.571981 1.516774 -0.219454 0.000002 0.836534 255 0 0
-0.632871 1.564192 -0.155027 1.000000 0.163466 255 0 0
-0.564205 1.545793 -0.155027 1.000000 1.000000 255 0 0
-0.586764 1.351737 -0.064898 0.000000 0.300004 255 0 0
-0.632871 1.564192 -0.155027 0.262935 0.349999 255 0 0
-0.724096 1.388535 -0.064898 0.000000 1.000000 255 0 0
-0.577938 1.549473 0.155027 1.000000 0.828125 255 0 0
-0.594540 1.322717 0.129325 0.000000 0.171875 255 0 0
-0.586764 1.351737 0.064897 1.000000 0.000000 255 0 0
-0.731871 1.359515 0.129325 0.000000 0.996094 255 0 0
-0.646604 1.567872 0.155027 1.000000 0.003906 255 0 0
-0.724096 1.388535 0.064897 1.000000 1.000000 255 0 0
-0.646604 1.567872 0.155027 0.000000 0.376344 255 0 0
-0.586764 1.351737 0.064897 1.000000 0.247316 255 0 0
-0.724096 1.388535 -0.064898 1.000000 0.007812 255 0 0
-0.640647 1.535173 -0.219454 0.000000 0.992188 255 0 0
-0.731871 1.359515 -0.129325 0.000000 0.000000 255 0 0
-0.595186 1.347773 -0.077783 0.484716 0.537742 255 255 255
-0.586764 1.351737 -0.064898 0.481539 0.545295 255 255 255
-0.724096 1.388535 -0.064898 0.476829 0.545295 255 255 255
-0.582183 1.506167 -0.213446 0.933334 0.935667 255 0 0
-0.637115 1.520886 -0.213446 0.933333 0.655668 255 0 0
-0.640647 1.535173 -0.219454 1.000000 0.650002 255 0 0
-0.585714 1.520453 0.219454 1.000000 0.835938 255 0 0
-0.646604 1.567872 0.155027 0.000000 0.164062 255 0 0
-0.654380 1.538853 0.219454 1.000000 0.000000 255 0 0
-0.594540 1.322717 -0.129325 0.000000 0.882812 255 0 0
-0.564205 1.545793 -0.155027 1.000000 0.117188 255 0 0
-0.586764 1.351737 -0.064898 1.000000 1.000000 255 0 0
-0.595186 1.347773 0.077783 0.484716 0.628924 255 255 255
-0.718784 1.380891 0.077783 0.475449 0.628924 255 255 255
-0.724096 1.388535 0.064897 0.527106 0.621372 255 255 255
-0.595916 1.509847 0.213446 0.018849 0.930825 255 0 0
-0.585714 1.520453 0.219454 0.000000 1.000000 255 0 0
-0.654380 1.538853 0.219454 0.000000 0.623657 255 0 0
-0.729664 1.368425 -0.120849 1.000000 0.000000 255 255 255
-1.051371 1.046718 0.120849 0.000000 1.000000 255 255 255
-0.729664 1.368425 0.120849 0.000000 0.000000 255 255 255
-0.729664 1.368425 0.120849 1.000000 0.000000 255 0 0
-0.387850 1.026611 -0.120849 0.000000 1.000000 255 0 0
-0.729664 1.368425 -0.120849 0.000000 0.000000 255 0 0
-0.729664 1.368425 0.120849 0.000000 0.000000 255 0 0
-0.709557 0.704904 0.120849 1.000000 1.000000 255 0 0
-0.387850 1.026611 0.120849 0.000000 1.000000 255 0 0
-1.051371 1.046718 -0.120849 1.000000 0.000000 255 0 0
-0.709557 0.704904 0.120849 0.000000 1.000000 255 0 0
-1.051371 1.046718 0.120849 0.000000 0.000000 255 0 0
-0.709557 0.704904 -0.120849 1.000000 0.000000 255 255 255
-0.387850 1.026611 0.120849 0.000000 1.000000 255 255 255
-0.709557 0.704904 0.120849 0.000000 0.000000 255 255 255
-0.709557 0.704904 -0.120849 0.000000 0.000000 255 0 0
-0.729664 1.368425 -0.120849 1.000000 1.000000 255 0 0
-0.601461 1.491418 -0.000000 0.500000 0.019531 255 0 0
-0.918657 1.477410 0.184829 0.000000 0.781250 255 0 0
-0.591652 1.477410 0.147863 0.101562 0.000000 255 0 0
-0.591652 1.477410 0.147863 0.463034 1.000000 255 0 0
-0.918657 1.477410 0.184829 0.000000 0.616856 255 0 0
-0.558075 1.214520 0.147863 1.000000 0.984214 255 0 0
-1.328771 1.075808 0.147863 0.000000 0.000000 255 0 0
-1.330251 0.830045 -0.147863 1.000000 0.000000 255 0 0
-1.330251 0.830045 0.147863 1.000000 1.000000 255 0 0
-1.328771 1.075808 0.147863 0.529447 0.053225 255 0 0
-1.330251 0.830045 0.147863 0.000000 0.000000 255 0 0
-0.558075 1.214520 -0.147863 1.000000 1.000000 255 0 0
-1.011162 1.485583 -0.000000 0.500000 0.187500 255 0 0
-0.918657 1.477410 -0.184829 1.000000 0.000000 255 0 0
-1.328771 1.075808 -0.147863 0.898438 1.000000 255 0 0
-0.601461 1.491418 -0.000000 1.000000 0.500000 255 0 0
-0.558075 1.214520 0.147863 0.363281 1.000000 255 0 0
-0.533610 1.179581 -0.000000 0.000000 0.500000 255 0 0
-0.558075 1.214520 -0.147863 0.363281 0.000000 255 0 0
-0.918657 1.477410 -0.184829 1.000000 0.781250 255 0 0
-0.591652 1.477410 -0.147863 0.898438 0.000000 255 0 0
-1.330251 0.830045 0.147863 1.000000 0.000000 255 0 0
-0.591652 1.477410 -0.147863 0.535156 1.000000 255 0 0
-0.558075 1.214520 -0.147863 0.000000 0.984375 255 0 0
-0.918657 1.477410 -0.184829 1.000000 0.617188 255 0 0
-1.328771 1.075808 -0.147863 0.468750 0.054688 255 0 0
-1.330251 0.830045 -0.147863 0.000000 0.000000 255 0 0
-1.011162 1.485583 -0.000000 0.500000 1.000000 255 0 0
-1.328771 1.075808 -0.147863 1.000000 0.000000 255 0 0
-1.330251 0.830045 -0.147863 1.000000 1.000000 255 0 0
-0.533610 1.179581 -0.000000 0.000000 0.000000 255 0 0
-0.558075 1.214520 0.147863 1.000000 0.000000 255 0 0
-0.558075 1.214520 0.147863 0.000000 1.000000 255 0 0
-1.328771 1.075808 0.147863 0.101562 1.000000 255 0 0
-0.918657 1.477410 0.184829 0.000000 0.000000 255 0 0
-0.591652 1.477410 0.147863 0.855469 1.000000 255 0 0
-0.591652 1.477410 -0.147863 0.855469 0.000000 255 0 0
-0.392606 0.638572 0.099523 0.750000 0.000000 255 0 0
-0.392606 -0.498835 0.355440 1.000000 1.000000 255 0 0
-0.392606 -0.498835 0.099523 0.750000 1.000000 255 0 0
-0.392606 -0.498835 0.355440 0.000000 1.000000 255 0 0
-0.648522 0.638572 0.355440 0.250000 0.000000 255 0 0
-0.648522 -0.498835 0.355440 0.250000 1.000000 255 0 0
-0.648522 -0.498835 0.099523 0.500000 1.000000 255 0 0
-0.648522 0.638572 0.099523 0.500000 0.000000 255 0 0
-0.648522 -0.498835 0.355440 0.666667 0.333333 255 0 0
-0.392606 -0.498835 0.099523 1.000000 0.000000 255 0 0
-0.392606 -0.498835 0.355440 1.000000 0.333333 255 0 0
-0.392606 0.638572 0.355440 0.333333 1.000000 255 255 255
-0.648522 0.638572 0.099523 0.000000 0.666667 255 255 255
-0.648522 0.638572 0.355440 0.333333 0.666667 255 255 255
-0.719611 1.065100 -0.341222 1.000000 0.000000 255 0 0
0.702148 0.212044 -0.426527 0.000000 1.000000 255 0 0
-0.719611 0.212045 -0.426527 0.000000 0.000000 255 0 0
0.702148 1.065099 -0.341222 0.000000 1.000000 255 0 0
-0.719611 1.065100 0.341222 1.000000 0.000000 255 0 0
0.702148 1.065099 0.341222 1.000000 1.000000 255 0 0
0.702148 0.212044 0.426527 1.000000 1.000000 255 0 0
-0.719611 1.065100 0.341222 0.000000 0.000000 255 0 0
-0.719611 0.212045 0.426527 1.000000 0.000000 255 0 0
-0.719611 0.212045 0.426527 0.000000 1.000000 255 0 0
0.702148 1.065099 0.341222 1.000000 0.000000 255 0 0
0.702148 1.065099 -0.341222 0.000000 0.000000 255 0 0
-0.719611 0.212045 -0.426527 1.000000 0.000000 255 0 0
0.702148 0.212044 0.426527 0.000000 1.000000 255 0 0
-0.719611 0.212045 0.426527 0.000000 0.000000 255 0 0
-1.316749 0.816292 0.142176 0.117351 0.976996 0 255 0
-1.439877 1.043773 0.071088 0.692382 1.120836 0 255 0
-1.439877 0.887380 0.071088 0.883395 1.030561 0 255 0
-1.439877 1.043773 0.071088 0.692382 0.750000 0 255 0
-1.439877 0.887380 -0.071088 0.883395 0.250000 0 255 0
-1.439877 0.887380 0.071088 0.883395 0.750000 0 255 0
-1.439877 1.043773 -0.071088 0.692382 0.120836 0 255 0
-1.316749 0.816292 -0.142176 0.117351 -0.023004 0 255 0
-1.439877 0.887380 -0.071088 0.883395 0.030561 0 255 0
-1.316749 1.072208 -0.142176 0.804784 0.000000 0 255 0
-1.193622 0.887380 0.071088 0.177658 0.750000 0 255 0
-1.193622 0.887380 -0.071088 0.177658 0.250000 0 255 0
-1.316749 1.072208 0.142176 0.804784 0.000000 0 255 0
-1.439877 1.043773 -0.071088 1.692382 -0.750000 0 255 0
-1.439877 1.043773 0.071088 1.692382 -0.250000 0 255 0
-1.193622 0.887380 0.071088 -0.822342 1.005497 0 255 0
-1.316749 1.072208 0.142176 -0.195216 1.124717 0 255 0
-1.316749 0.816292 -0.142176 0.117351 0.976996 0 255 0
-1.316749 1.072208 -0.142176 -0.195216 1.124717 0 255 0
-1.193622 0.887380 -0.071088 -0.822342 1.005497 0 255 0
-1.316749 0.816292 -0.142176 0.117351 0.000000 0 255 0
-1.316749 0.816292 0.142176 0.117351 1.000000 0 255 0
-1.316749 0.816292 0.142176 1.117351 1.000000 0 255 0
-1.316749 0.816292 -0.142176 1.117351 0.000000 0 255 0
-1.439877 1.043773 -0.071088 0.692382 0.250000 0 255 0
-1.316749 1.072208 -0.142176 -0.195216 0.124717 0 255 0
-1.316749 1.072208 0.142176 0.804784 1.000000 0 255 0
-1.316749 1.072208 -0.142176 0.804784 -1.000000 0 255 0
-0.601406 1.324557 -0.129325 0.156527 0.000071 0 255 0
-0.575962 1.529383 -0.161904 0.126539 0.243555 0 255 0
-0.582183 1.506167 -0.213446 0.000071 0.321146 0 255 0
-0.595186 1.347773 0.077783 0.288273 0.481469 0 255 0
-0.644628 1.547781 0.161903 0.296896 0.171538 0 255 0
-0.718784 1.380891 0.077783 0.999928 0.183212 0 255 0
-0.595186 1.347773 -0.077783 0.326238 0.076218 0 255 0
-0.630895 1.544102 -0.161904 0.275963 0.340002 0 255 0
-0.601406 1.324557 0.129325 0.091296 0.512341 0 255 0
-0.589695 1.533062 0.161903 0.116984 0.283099 0 255 0
-0.637115 1.520886 -0.213446 0.257314 0.501636 0 255 0
-0.718784 1.380891 -0.077783 0.994765 0.334048 0 255 0
-0.595916 1.509847 0.213445 0.000072 0.186279 0 255 0
-0.725005 1.357676 0.129325 0.999928 0.001643 0 255 0
-0.650848 1.524566 0.213445 0.275470 0.000072 0 255 0
-0.842086 1.231879 -0.160220 0.477262 0.656091 0 0 0
-0.842571 1.374747 -0.162349 0.468658 0.654843 0 0 0
-0.843221 1.233500 -0.146140 0.477558 0.664343 0 0 0
-0.843221 1.233500 -0.146140 0.477558 0.528270 0 0 0
-0.913431 1.374422 -0.168024 0.493355 0.543019 0 0 0
-0.914081 1.233175 -0.151815 0.502255 0.529441 0 0 0
-0.913431 1.374422 -0.168024 0.493355 0.651516 0 0 0
-0.912946 1.231554 -0.165894 0.501959 0.652765 0 0 0
-0.914081 1.233175 -0.151815 0.502255 0.661017 0 0 0
-0.912296 1.372801 -0.182103 0.493059 0.542843 0 0 0
-0.842086 1.231879 -0.160220 0.477262 0.528095 0 0 0
-0.912946 1.231554 -0.165894 0.501959 0.529266 0 0 0
-0.912296 1.372801 -0.182103 0.493059 0.643264 0 0 0
-0.841436 1.373126 -0.176428 0.468362 0.646590 0 0 0
-0.842571 1.374747 -0.162349 0.468658 0.541848 0 0 0
-0.841436 1.373126 -0.176428 0.468362 0.541673 0 0 0
-0.842571 1.374747 0.162349 0.468658 0.511824 0 0 0
-0.842086 1.231879 0.160220 0.477262 0.510576 0 0 0
-0.843221 1.233500 0.146140 0.477558 0.502324 0 0 0
-0.842086 1.231879 0.160220 0.477262 0.528095 0 0 0
-0.912296 1.372801 0.182103 0.493059 0.542843 0 0 0
-0.912947 1.231554 0.165894 0.501959 0.529266 0 0 0
-0.912947 1.231554 0.165894 0.501959 0.513902 0 0 0
-0.913431 1.374422 0.168024 0.493355 0.515150 0 0 0
-0.914081 1.233175 0.151815 0.502255 0.505650 0 0 0
-0.913431 1.374422 0.168024 0.493355 0.543019 0 0 0
-0.843221 1.233500 0.146140 0.477558 0.528270 0 0 0
-0.914081 1.233175 0.151815 0.502255 0.529441 0 0 0
-0.912296 1.372801 0.182103 0.493059 0.523402 0 0 0
-0.841436 1.373126 0.176428 0.468362 0.520076 0 0 0
-0.841436 1.373126 0.176428 0.468362 0.541673 0 0 0
-0.842571 1.374747 0.162349 0.468658 0.541848 0 0 0
0.839653 0.153608 -0.071088 1.000000 0.500000 255 0 0
0.769645 0.141264 0.071088 0.000000 1.132812 255 0 0
0.839653 0.153608 0.071088 0.500000 1.132812 255 0 0
0.839653 0.153608 -0.071088 0.500000 1.132812 255 0 0
0.769645 0.141264 -0.071088 0.687500 1.136719 255 0 0
0.621514 0.981360 -0.071088 0.000000 0.000000 255 255 255
0.631060 0.638572 -0.099523 1.000000 0.000000 255 0 0
0.631060 0.638572 -0.099523 0.000000 0.000000 255 0 0
0.375144 -0.498835 -0.355440 0.666667 0.000000 255 0 0
0.631060 0.638572 -0.355440 0.000000 1.000000 255 255 255
-0.392606 0.638572 -0.099523 1.000000 0.000000 255 0 0
-0.392606 0.638572 -0.099523 0.000000 0.000000 255 0 0
-0.648522 -0.498835 -0.355440 0.666667 0.000000 255 0 0
-0.392606 0.638572 -0.355440 0.000000 1.000000 255 255 255
0.631060 0.638572 0.355440 1.000000 0.000000 255 0 0
0.631060 0.638572 0.355440 0.000000 0.000000 255 0 0
0.375144 -0.498835 0.099523 0.666667 0.000000 255 0 0
0.631060 0.638572 0.099523 0.000000 1.000000 255 255 255
-0.640647 1.535173 -0.219454 0.000000 0.000000 255 0 0
-0.564205 1.545793 -0.155027 0.262935 0.000000 255 0 0
-0.654380 1.538853 0.219454 0.000000 0.000000 255 0 0
-0.577938 1.549473 0.155027 0.000001 0.000000 255 0 0
-0.632871 1.564192 -0.155027 1.000000 1.000000 255 0 0
-0.601406 1.324557 -0.129325 0.488308 0.507532 255 255 255
-0.594540 1.322717 -0.129325 0.486029 0.507532 255 255 255
-0.731871 1.359515 -0.129325 0.481319 0.507532 255 255 255
-0.718784 1.380891 -0.077783 0.475449 0.537742 255 255 255
-0.725005 1.357676 -0.129325 0.479041 0.507532 255 255 255
-0.725005 1.357676 -0.129325 0.000001 0.035000 255 0 0
-0.731871 1.359515 -0.129325 0.000001 0.000000 255 0 0
-0.571981 1.516774 -0.219454 1.000000 1.000000 255 0 0
-0.594540 1.322717 -0.129325 0.000000 0.699998 255 0 0
-0.601406 1.324557 -0.129325 0.000000 0.664999 255 0 0
-0.577938 1.549473 0.155027 0.000000 1.000000 255 0 0
-0.571981 1.516774 -0.219454 0.000000 0.000000 255 0 0
-0.586764 1.351737 0.064897 0.481539 0.621372 255 255 255
-0.594540 1.322717 0.129325 0.486029 0.659135 255 255 255
-0.601406 1.324557 0.129325 0.488308 0.659135 255 255 255
-0.725005 1.357676 0.129325 0.479041 0.659135 255 255 255
-0.731871 1.359515 0.129325 0.481319 0.659135 255 255 255
-0.601406 1.324557 0.129325 0.282726 0.715051 255 0 0
-0.594540 1.322717 0.129325 0.282725 0.752686 255 0 0
-0.731871 1.359515 0.129325 0.282726 0.000000 255 0 0
-0.725005 1.357676 0.129325 0.282726 0.037634 255 0 0
-0.650848 1.524566 0.213446 0.018848 0.629751 255 0 0
-1.051371 1.046718 -0.120849 1.000000 1.000000 255 255 255
-0.387850 1.026611 0.120849 1.000000 1.000000 255 0 0
-1.051371 1.046718 0.120849 1.000000 0.000000 255 0 0
-0.709557 0.704904 -0.120849 1.000000 1.000000 255 0 0
-0.387850 1.026611 -0.120849 1.000000 1.000000 255 255 255
-0.392606 0.638572 0.355440 1.000000 0.000000 255 0 0
-0.392606 0.638572 0.355440 0.000000 0.000000 255 0 0
-0.648522 -0.498835 0.099523 0.666667 0.000000 255 0 0
-0.392606 0.638572 0.099523 0.000000 1.000000 255 255 255
0.702148 1.065099 -0.341222 1.000000 1.000000 255 0 0
-0.719611 1.065100 -0.341222 0.000000 0.000000 255 0 0
0.702148 1.065099 0.341222 0.000000 1.000000 255 0 0
-0.719611 0.212045 -0.426527 1.000000 1.000000 255 0 0
0.702148 0.212044 -0.426527 1.000000 1.000000 255 0 0
-0.725005 1.357676 -0.129325 0.999929 0.501636 0 255 0
3 0 1 2
3 3 4 5
3 6 7 8
3 9 10 11
3 12 13 14
3 15 16 17
3 18 19 20
3 21 22 23
3 22 24 23
3 25 20 24
3 26 27 28
3 29 30 31
3 32 33 34
3 35 36 37
3 36 38 37
3 39 34 38
3 40 41 42
3 43 44 45
3 46 47 48
3 49 50 51
3 50 52 51
3 53 48 52
3 54 55 56
3 57 58 59
3 60 61 62
3 63 64 65
3 66 67 68
3 69 70 71
3 72 73 71
3 74 75 76
3 77 78 79
3 80 81 82
3 83 84 85
3 86 87 88
3 89 90 91
3 92 93 94
3 95 96 97
3 98 99 100
3 101 102 103
3 104 105 106
3 107 108 109
3 110 111 99
3 112 113 114
3 115 116 117
3 118 119 120
3 116 121 117
3 122 119 123
3 124 125 126
3 127 128 129
3 130 127 129
3 131 112 132
3 133 117 121
3 134 135 136
3 136 135 137
3 138 137 135
3 112 139 113
3 118 140 141
3 142 143 123
3 144 122 123
3 126 145 124
3 145 146 124
3 127 147 128
3 130 148 127
3 131 139 112
3 149 150 151
3 152 153 154
3 153 155 154
3 156 151 155
3 157 158 159
3 160 161 162
3 163 164 165
3 166 167 168
3 169 170 171
3 163 172 170
3 173 164 174
3 175 176 177
3 178 179 180
3 181 182 183
3 184 185 186
3 187 188 189
3 190 191 192
3 178 193 194
3 195 196 197
3 183 198 199
3 189 200 201
3 178 194 179
3 181 202 182
3 184 203 185
3 187 204 188
3 190 205 191
3 183 182 198
3 189 188 200
3 206 207 208
3 209 210 211
3 212 213 207
3 214 215 209
3 208 213 216
3 217 216 213
3 218 210 215
3 219 210 220
3 221 222 223
3 224 225 226
3 227 228 229
3 230 231 232
3 223 228 221
3 222 233 227
3 221 234 222
3 224 235 225
3 227 233 228
3 230 236 231
3 223 229 228
3 222 234 233
3 237 238 239
3 240 241 242
3 243 244 245
3 246 247 248
3 243 239 238
3 249 237 244
3 237 250 238
3 240 251 241
3 243 249 244
3 246 252 247
3 243 245 239
3 249 250 237
3 0 253 1
3 3 254 4
3 6 255 7
3 9 256 10
3 12 257 13
3 15 258 16
3 18 259 19
3 21 260 22
3 22 25 24
3 25 18 20
3 26 261 27
3 29 262 30
3 32 263 33
3 35 264 36
3 36 39 38
3 39 32 34
3 40 265 41
3 43 266 44
3 46 267 47
3 49 268 50
3 50 53 52
3 53 46 48
3 54 269 55
3 57 270 58
3 60 271 61
3 63 272 64
3 66 93 67
3 69 273 70
3 72 274 73
3 74 275 75
3 77 276 277
3 79 278 279
3 278 280 279
3 77 277 78
3 79 279 77
3 81 281 82
3 281 282 82
3 283 284 80
3 284 285 80
3 283 80 82
3 83 286 84
3 86 287 87
3 288 289 89
3 289 290 89
3 291 292 90
3 292 91 90
3 288 89 91
3 92 293 294
3 94 295 296
3 94 296 297
3 92 294 93
3 94 297 92
3 95 298 96
3 98 299 99
3 101 300 102
3 104 301 105
3 107 302 108
3 110 104 111
3 149 303 150
3 152 304 153
3 153 156 155
3 156 149 151
3 157 305 158
3 160 306 161
3 163 307 164
3 166 308 167
3 169 309 170
3 163 310 172
3 173 169 164
3 175 311 176
3 206 212 207
3 209 215 210
3 212 217 213
3 214 218 215
3 208 207 213
3 217 312 216
3 218 220 210
3 219 211 210
