ply
format ascii 1.0
comment Created by Blender 2.79 (sub 0) - www.blender.org, source file: 'cow.blend'
element vertex 143
property float x
property float y
property float z
property float s
property float t
property uchar red
property uchar green
property uchar blue
element face 96
property list uchar uint vertex_indices
end_header
-0.075080 2.411607 0.141368 0.000000 0.000000 255 0 0
-0.075080 1.639415 0.504886 1.000000 1.000000 255 0 0
-0.075080 2.411607 0.504886 0.000000 1.000000 255 0 0
-0.075080 1.639415 0.504886 0.923354 1.000000 255 0 0
0.288438 2.411607 0.504886 0.076645 0.000000 255 0 0
-0.075080 2.411607 0.504886 0.000000 0.727507 255 0 0
0.288438 2.411607 0.141368 1.000000 0.000000 255 0 0
0.288438 2.411607 0.504886 1.000000 1.000000 255 0 0
0.288438 2.411607 0.141368 0.076645 0.000000 255 0 0
0.140835 1.639415 0.141368 0.968879 0.567890 255 0 0
-0.075080 1.639415 0.141368 0.923354 1.000000 255 0 0
-0.717471 1.639415 0.000000 0.000000 0.000000 255 0 0
-0.717471 1.639415 0.484690 0.000000 0.800000 255 0 0
-0.075080 1.639415 0.141368 0.530146 0.233333 255 0 0
0.288438 2.411607 0.504886 0.000000 1.000000 255 0 0
0.288438 1.639415 0.141368 1.000000 0.000000 255 0 0
0.288438 2.411607 0.141368 0.000000 0.000000 255 0 0
0.494255 1.639415 0.000000 1.000000 0.000000 255 0 0
0.288438 1.639415 0.141368 0.417642 0.233333 255 0 0
0.494255 1.639415 0.605863 1.000000 1.000000 255 0 0
0.400574 -0.332338 0.000000 0.869158 0.271634 255 0 0
0.494255 1.639415 0.000000 0.085622 0.000000 255 0 0
0.494255 -0.380129 0.000000 0.894929 0.219165 255 0 0
-1.148331 -0.394409 0.000000 0.784585 1.000000 255 0 0
-0.717472 0.036450 0.000000 0.642368 0.358016 255 0 0
-1.024628 -0.334233 0.000000 0.769211 0.829870 255 0 0
-0.717472 0.036450 0.000000 0.793726 0.000000 255 0 0
-0.717472 0.036450 0.171661 0.793726 0.354167 255 0 0
0.494255 1.639415 0.605863 0.095674 0.000000 255 0 0
-0.717471 -0.380129 0.484690 0.904326 1.000000 255 0 0
0.494255 -0.380129 0.605863 1.000000 0.227130 255 0 0
0.494255 1.639415 0.605863 0.000000 1.000000 255 0 0
0.494255 -0.380129 0.000000 1.000000 0.000000 255 0 0
0.494255 1.639415 0.000000 0.000000 0.000000 255 0 0
-0.079151 -0.380129 0.504886 0.526786 0.833333 255 0 0
-0.717471 -0.380129 0.484690 0.000000 0.800000 255 0 0
-0.220110 -0.380129 0.171661 0.410457 0.283333 255 0 0
-0.220110 -0.380129 0.171661 0.000000 1.000000 255 0 0
-0.691361 -0.851380 0.000000 1.000000 0.000000 255 0 0
-0.220110 -0.380129 0.000000 0.000000 0.000000 255 0 0
-0.691361 -0.851380 0.171661 0.161859 0.000000 255 0 0
-1.148331 -0.394409 0.000000 0.000000 1.000000 255 0 0
-0.691361 -0.851380 0.000000 0.000000 0.000000 255 0 0
-0.717472 0.036450 0.171661 0.272988 0.401435 255 0 0
-1.148331 -0.394409 0.000000 0.175093 0.000000 255 0 0
-1.148331 -0.394409 0.171661 0.272988 0.000000 255 0 0
-0.717471 -0.380129 0.171661 0.466790 0.534373 255 0 0
-1.148331 -0.394409 0.171661 0.397662 1.000000 255 0 0
-0.691361 -0.851380 0.171661 1.000000 0.595597 255 0 0
0.284367 -0.380129 0.141368 0.633963 0.233333 255 0 0
0.494255 -0.380129 0.605863 1.000000 1.000000 255 0 0
0.284367 -0.380129 0.141368 0.064877 0.000000 255 0 0
-0.079151 -1.304027 0.141368 0.935123 1.000000 255 0 0
-0.079151 -0.380129 0.141368 0.000000 0.690540 255 0 0
-0.079151 -0.380129 0.141368 0.000000 0.000000 255 0 0
-0.079151 -1.304027 0.504886 1.000000 1.000000 255 0 0
-0.079151 -0.380129 0.504886 0.000000 1.000000 255 0 0
0.284367 -0.380129 0.504886 0.064877 0.000000 255 0 0
-0.079151 -1.304027 0.504886 0.935123 1.000000 255 0 0
0.284367 -1.304027 0.504886 1.000000 0.309460 255 0 0
0.284367 -0.380129 0.504886 0.000000 1.000000 255 0 0
0.284367 -1.304027 0.141368 1.000000 0.000000 255 0 0
0.284367 -0.380129 0.141368 0.000000 0.000000 255 0 0
-0.079151 -1.304027 0.141368 0.000000 0.000000 255 0 0
0.284367 -1.304027 0.504886 1.000000 1.000000 255 0 0
-0.079151 -1.304027 0.504886 0.000000 1.000000 255 0 0
-0.621821 -0.768935 0.000000 1.000000 0.000000 0 255 0
-0.219754 -0.323269 0.155750 0.000000 1.000000 0 255 0
-0.219754 -0.323269 0.000000 0.000000 0.000000 0 255 0
0.374923 1.563139 0.000000 0.723618 1.000000 0 255 0
-0.677792 1.578530 0.195459 0.270957 0.000000 0 255 0
-0.677792 1.578530 -0.000000 0.723617 0.000000 0 255 0
-0.219754 -0.323269 0.155750 0.558059 0.000000 0 255 0
-0.621821 -0.768935 0.155750 1.000000 0.595743 0 255 0
-1.024628 -0.334233 0.155750 0.403631 1.000000 0 255 0
-0.657415 0.072799 0.155750 0.000000 1.000000 0 255 0
-1.024628 -0.334233 0.000000 1.000000 0.000000 0 255 0
-0.657415 0.072799 0.000000 0.000000 0.000000 0 255 0
-1.024628 -0.334233 0.000000 0.000000 0.000000 0 255 0
-0.621821 -0.768935 0.155750 1.000000 1.000000 0 255 0
0.400574 -0.332339 0.000000 1.000000 0.000000 0 255 0
0.374923 1.563139 0.312459 0.000000 1.000000 0 255 0
0.374923 1.563139 0.000000 0.000000 0.000000 0 255 0
-0.652140 -0.316948 0.195459 0.904326 1.000000 0 255 0
0.374923 1.563139 0.312459 0.095674 0.000000 0 255 0
0.400574 -0.332339 0.312459 1.000000 0.227130 0 255 0
-0.652140 -0.316948 0.195459 1.000000 1.000000 0 255 0
-0.652140 -0.316948 0.155750 1.000000 0.796840 0 255 0
-0.657415 0.072799 0.155750 0.794381 0.796840 0 255 0
-0.219754 -0.323269 0.155750 0.410732 0.498465 0 255 0
-0.652140 -0.316948 0.195459 0.000000 0.625552 0 255 0
0.400574 -0.332339 0.312459 1.000000 1.000000 0 255 0
-0.075080 1.639415 0.141368 1.000000 0.000000 255 0 0
0.288438 1.639415 0.504886 1.000000 0.272494 255 0 0
-0.075080 2.411607 0.141368 0.000000 0.727507 255 0 0
0.288438 1.639415 0.141368 1.000000 0.272494 255 0 0
0.288438 1.639415 0.504886 0.830146 0.833333 255 0 0
-0.075080 1.639415 0.504886 0.530146 0.833333 255 0 0
0.140835 1.639415 0.141368 0.708333 0.233333 255 0 0
0.288438 1.639415 0.504886 1.000000 1.000000 255 0 0
0.140835 1.639415 0.141368 0.000000 0.233333 255 0 0
0.288438 1.639415 0.504886 0.417642 0.833333 255 0 0
-0.220110 -0.380129 0.000000 0.844451 0.658824 255 0 0
-0.691361 -0.851380 0.000000 1.000000 1.000000 255 0 0
-0.621821 -0.768935 0.000000 0.971875 0.948254 255 0 0
-0.677791 1.578530 -0.000000 0.027203 0.727951 255 0 0
-0.664692 0.610541 0.000000 0.416038 0.824936 255 0 0
-0.717471 1.639415 0.000000 0.000000 0.745765 255 0 0
-0.219754 -0.323268 0.000000 0.821690 0.652434 255 0 0
0.374923 1.563139 0.000000 0.107756 0.081722 255 0 0
-0.664692 0.610541 0.000000 0.416038 0.162941 255 0 0
-0.621821 -0.768935 0.000000 0.971875 0.416739 255 0 0
-0.691361 -0.851380 0.000000 1.000000 0.523237 255 0 0
-0.657415 0.072800 0.000000 0.632045 0.273827 255 0 0
-0.717471 -0.380129 0.171661 1.000000 0.354167 255 0 0
-0.717471 -0.380129 0.484690 1.000000 1.000000 255 0 0
-0.717471 1.639415 0.484690 0.000000 1.000000 255 0 0
-0.717471 1.639415 0.484690 0.000000 0.772870 255 0 0
-0.220110 -0.380129 0.000000 0.410457 0.000000 255 0 0
0.284367 -0.380129 0.141368 0.826786 0.233333 255 0 0
-0.079151 -0.380129 0.141368 0.526786 0.233333 255 0 0
-0.717471 -0.380129 0.171661 0.000000 0.283333 255 0 0
-0.691361 -0.851380 0.171661 1.000000 1.000000 255 0 0
-1.148331 -0.394409 0.171661 0.161859 1.000000 255 0 0
-0.717472 0.036450 0.000000 0.175093 0.401435 255 0 0
-0.220110 -0.380129 0.171661 0.565058 0.000000 255 0 0
-0.717472 0.036450 0.171661 0.000000 0.455452 255 0 0
-0.079151 -0.380129 0.504886 0.000000 0.833333 255 0 0
0.284367 -0.380129 0.504886 0.633963 0.833333 255 0 0
0.284367 -1.304027 0.141368 1.000000 0.309460 255 0 0
-0.079151 -1.304027 0.141368 1.000000 0.000000 255 0 0
-0.079151 -0.380129 0.504886 0.000000 0.690540 255 0 0
-0.657415 0.072799 0.155750 0.000000 0.455901 0 255 0
-0.652140 -0.316948 0.155750 0.460698 0.534542 0 255 0
-1.024628 -0.334233 0.155750 1.000000 1.000000 0 255 0
-1.024628 -0.334233 0.155750 0.000000 1.000000 0 255 0
-0.677792 1.578530 0.195459 0.000000 0.772870 0 255 0
-0.657415 0.072799 0.000000 0.794381 0.000000 0 255 0
-0.664692 0.610541 0.000000 0.510684 0.000000 0 255 0
-0.677792 1.578530 -0.000000 0.000000 0.000000 0 255 0
-0.677792 1.578530 0.195459 0.000000 1.000000 0 255 0
-0.219754 -0.323269 0.000000 0.410732 0.000000 0 255 0
-0.652140 -0.316948 0.155750 0.000000 0.498465 0 255 0
3 0 1 2
3 3 4 5
3 6 2 7
3 8 9 10
3 11 12 13
3 14 15 16
3 17 18 19
3 20 21 22
3 23 24 25
3 11 26 27
3 28 29 30
3 31 32 33
3 34 35 36
3 37 38 39
3 40 41 42
3 43 44 45
3 46 47 48
3 49 32 50
3 51 52 53
3 54 55 56
3 57 58 59
3 60 61 62
3 63 64 65
3 66 67 68
3 69 70 71
3 72 73 74
3 75 76 77
3 78 79 66
3 80 81 82
3 83 84 85
3 86 87 88
3 89 90 91
3 0 92 1
3 3 93 4
3 6 0 2
3 10 94 8
3 8 95 9
3 19 96 97
3 13 98 17
3 12 19 97
3 13 17 11
3 12 97 13
3 14 99 15
3 17 100 18
3 18 101 19
3 102 103 104
3 105 106 107
3 102 104 108
3 102 108 20
3 105 107 21
3 109 105 21
3 22 102 20
3 20 109 21
3 24 11 110
3 25 111 23
3 111 112 23
3 24 110 113
3 24 113 25
3 114 115 27
3 115 116 27
3 116 11 27
3 28 117 29
3 31 50 32
3 118 32 119
3 118 119 120
3 35 121 36
3 36 118 120
3 34 50 35
3 36 120 34
3 37 122 38
3 40 123 41
3 43 124 44
3 48 125 46
3 46 126 47
3 50 127 128
3 128 49 50
3 51 129 52
3 54 130 55
3 57 131 58
3 60 64 61
3 63 61 64
3 66 79 67
3 69 81 70
3 74 132 133
3 133 72 74
3 75 134 76
3 78 135 79
3 80 91 81
3 83 136 84
3 137 138 88
3 138 139 140
3 88 138 140
3 140 86 88
3 91 80 89
3 80 141 89
3 89 142 90
