ply
format ascii 1.0
comment Created by Blender 2.79 (sub 0) - www.blender.org, source file: 'boat.blend'
element vertex 8
property float x
property float y
property float z
property float s
property float t
element face 4
property list uchar uint vertex_indices
end_header
1.500000 0.500000 1.500000 0.000000 0.000000
0.500000 0.500000 0.500000 1.000000 1.000000
0.500000 0.500000 1.500000 0.000000 1.000000
1.500000 0.500000 0.500000 1.000000 0.000000
1.500000 0.500000 -0.500000 0.000000 0.000000
0.500000 0.500000 -1.500000 1.000000 1.000000
0.500000 0.500000 -0.500000 0.000000 1.000000
1.500000 0.500000 -1.500000 1.000000 0.000000
3 0 1 2
3 0 3 1
3 4 5 6
3 4 7 5
