ply
format ascii 1.0
comment Created by Blender 2.79 (sub 0) - www.blender.org, source file: 'boat.blend'
element vertex 322
property float x
property float y
property float z
property float s
property float t
element face 164
property list uchar uint vertex_indices
end_header
0.500000 0.500000 -1.500000 0.905469 0.723437
0.500000 0.300000 -0.500000 0.805469 0.223437
0.500000 0.300000 -1.500000 0.805469 0.723437
0.500000 0.500000 -0.500000 0.000000 0.204132
-0.500000 0.300000 -0.500000 1.000000 0.000000
0.500000 0.300000 -0.500000 0.000000 0.000000
-0.500000 0.500000 -0.500000 0.428906 0.235156
-0.500000 0.300000 -1.500000 0.328906 0.735156
-0.500000 0.300000 -0.500000 0.328906 0.235156
-0.500000 0.500000 -1.500000 1.000000 0.210857
0.500000 0.300000 -1.500000 0.000000 0.000000
-0.500000 0.300000 -1.500000 1.000000 0.000000
0.500000 0.300000 -1.500000 0.000000 1.000000
-0.160000 0.060000 -1.400000 0.417187 0.781562
-0.160000 -0.140000 -0.600000 0.317187 0.381562
-0.160000 -0.140000 -1.400000 0.317187 0.781562
-0.160000 0.060000 -0.600000 0.580000 1.030000
-0.240000 -0.140000 -0.600000 0.620000 0.930000
-0.160000 -0.140000 -0.600000 0.580000 0.930000
-0.240000 0.060000 -0.600000 0.417187 0.381562
-0.240000 -0.140000 -1.400000 0.317187 0.781562
-0.240000 -0.140000 -0.600000 0.317187 0.381562
-0.240000 0.060000 -1.400000 0.620000 1.030000
-0.160000 -0.140000 -1.400000 0.580000 0.930000
-0.240000 -0.140000 -1.400000 0.620000 0.930000
-0.240000 -0.140000 -0.600000 0.620000 0.450000
-0.160000 -0.140000 -1.400000 0.580000 0.050000
-0.160000 -0.140000 -0.600000 0.580000 0.450000
-0.160000 0.060000 -0.600000 0.580000 0.450000
-0.240000 0.060000 -1.400000 0.620000 0.050000
-0.240000 0.060000 -0.600000 0.620000 0.450000
0.350000 -0.450000 -0.675000 0.881250 0.450000
0.350000 -0.550000 -0.525000 0.831250 0.375000
0.350000 -0.550000 -0.675000 0.831250 0.450000
0.350000 -0.550000 -0.525000 0.831250 0.537500
-0.350000 -0.450000 -0.525000 0.881250 0.187500
-0.350000 -0.550000 -0.525000 0.831250 0.187500
-0.350000 -0.450000 -0.525000 0.881250 0.375000
-0.350000 -0.550000 -0.675000 0.831250 0.450000
-0.350000 -0.550000 -0.525000 0.831250 0.375000
-0.350000 -0.450000 -0.675000 0.881250 0.187500
0.350000 -0.550000 -0.675000 0.831250 0.537500
-0.350000 -0.550000 -0.675000 0.831250 0.187500
-0.350000 -0.550000 -0.525000 0.593750 0.187500
0.350000 -0.550000 -0.675000 0.518750 0.537500
0.350000 -0.550000 -0.525000 0.593750 0.537500
0.350000 -0.450000 -0.525000 0.593750 0.537500
-0.350000 -0.450000 -0.675000 0.518750 0.187500
-0.350000 -0.450000 -0.525000 0.593750 0.187500
0.350000 -0.450000 -1.475000 0.881250 0.850000
0.350000 -0.550000 -1.325000 0.831250 0.775000
0.350000 -0.550000 -1.475000 0.831250 0.850000
0.350000 -0.550000 -1.325000 0.831250 0.537500
-0.350000 -0.450000 -1.325000 0.881250 0.187500
-0.350000 -0.550000 -1.325000 0.831250 0.187500
-0.350000 -0.450000 -1.325000 0.881250 0.775000
-0.350000 -0.550000 -1.475000 0.831250 0.850000
-0.350000 -0.550000 -1.325000 0.831250 0.775000
-0.350000 -0.450000 -1.475000 0.881250 0.187500
0.350000 -0.550000 -1.475000 0.831250 0.537500
-0.350000 -0.550000 -1.475000 0.831250 0.187500
-0.350000 -0.550000 -1.325000 0.193750 0.187500
0.350000 -0.550000 -1.475000 0.118750 0.537500
0.350000 -0.550000 -1.325000 0.193750 0.537500
0.350000 -0.450000 -1.325000 0.193750 0.537500
-0.350000 -0.450000 -1.475000 0.118750 0.187500
-0.350000 -0.450000 -1.325000 0.193750 0.187500
-0.150000 0.400000 -1.450000 0.025000 1.200000
-0.150000 -0.500000 -1.350000 0.075000 0.750000
-0.150000 -0.500000 -1.450000 0.025000 0.750000
-0.150000 0.400000 -1.350000 0.575000 1.200000
-0.250000 -0.500000 -1.350000 0.625000 0.750000
-0.150000 -0.500000 -1.350000 0.575000 0.750000
-0.250000 0.400000 -1.350000 0.075000 1.200000
-0.250000 -0.500000 -1.450000 0.025000 0.750000
-0.250000 -0.500000 -1.350000 0.075000 0.750000
-0.250000 0.400000 -1.450000 0.625000 1.200000
-0.150000 -0.500000 -1.450000 0.575000 0.750000
-0.250000 -0.500000 -1.450000 0.625000 0.750000
-0.250000 -0.500000 -1.350000 0.625000 0.075000
-0.150000 -0.500000 -1.450000 0.575000 0.025000
-0.150000 -0.500000 -1.350000 0.575000 0.075000
-0.150000 0.400000 -1.350000 0.575000 0.075000
-0.250000 0.400000 -1.450000 0.625000 0.025000
-0.250000 0.400000 -1.350000 0.625000 0.075000
-0.150000 0.400000 -0.650000 0.425000 1.200000
-0.150000 -0.500000 -0.550000 0.475000 0.750000
-0.150000 -0.500000 -0.650000 0.425000 0.750000
-0.150000 0.400000 -0.550000 0.575000 1.200000
-0.250000 -0.500000 -0.550000 0.625000 0.750000
-0.150000 -0.500000 -0.550000 0.575000 0.750000
-0.250000 0.400000 -0.550000 0.475000 1.200000
-0.250000 -0.500000 -0.650000 0.425000 0.750000
-0.250000 -0.500000 -0.550000 0.475000 0.750000
-0.250000 0.400000 -0.650000 0.625000 1.200000
-0.150000 -0.500000 -0.650000 0.575000 0.750000
-0.250000 -0.500000 -0.650000 0.625000 0.750000
-0.250000 -0.500000 -0.550000 0.625000 0.475000
-0.150000 -0.500000 -0.650000 0.575000 0.425000
-0.150000 -0.500000 -0.550000 0.575000 0.475000
-0.150000 0.400000 -0.550000 0.575000 0.475000
-0.250000 0.400000 -0.650000 0.625000 0.425000
-0.250000 0.400000 -0.550000 0.625000 0.475000
0.500000 0.500000 -0.500000 0.905469 0.223437
-0.500000 0.500000 -0.500000 1.000000 0.204132
-0.500000 0.500000 -1.500000 0.428906 0.735156
0.500000 0.500000 -1.500000 0.000000 0.210857
-0.500000 0.300000 -1.500000 1.000000 1.000000
-0.160000 0.060000 -0.600000 0.417187 0.381562
-0.240000 0.060000 -0.600000 0.620000 1.030000
-0.240000 0.060000 -1.400000 0.417187 0.781562
-0.160000 0.060000 -1.400000 0.580000 1.030000
-0.240000 -0.140000 -1.400000 0.620000 0.050000
-0.160000 0.060000 -1.400000 0.580000 0.050000
0.350000 -0.450000 -0.525000 0.881250 0.375000
0.350000 -0.450000 -0.525000 0.881250 0.537500
-0.350000 -0.450000 -0.675000 0.881250 0.450000
0.350000 -0.450000 -0.675000 0.881250 0.537500
-0.350000 -0.550000 -0.675000 0.518750 0.187500
0.350000 -0.450000 -0.675000 0.518750 0.537500
0.350000 -0.450000 -1.325000 0.881250 0.775000
0.350000 -0.450000 -1.325000 0.881250 0.537500
-0.350000 -0.450000 -1.475000 0.881250 0.850000
0.350000 -0.450000 -1.475000 0.881250 0.537500
-0.350000 -0.550000 -1.475000 0.118750 0.187500
0.350000 -0.450000 -1.475000 0.118750 0.537500
-0.150000 0.400000 -1.350000 0.075000 1.200000
-0.250000 0.400000 -1.350000 0.625000 1.200000
-0.250000 0.400000 -1.450000 0.025000 1.200000
-0.150000 0.400000 -1.450000 0.575000 1.200000
-0.250000 -0.500000 -1.450000 0.625000 0.025000
-0.150000 0.400000 -1.450000 0.575000 0.025000
-0.150000 0.400000 -0.550000 0.475000 1.200000
-0.250000 0.400000 -0.550000 0.625000 1.200000
-0.250000 0.400000 -0.650000 0.425000 1.200000
-0.150000 0.400000 -0.650000 0.575000 1.200000
-0.250000 -0.500000 -0.650000 0.625000 0.425000
-0.150000 0.400000 -0.650000 0.575000 0.425000
0.500000 -0.400000 -0.500000 0.698098 0.555375
0.500000 -0.500000 -0.020000 0.663501 0.459555
0.500000 -0.500000 -0.500000 0.663501 0.555375
0.500000 -0.400000 -0.020000 0.698098 0.555375
-2.500000 -0.500000 -0.020000 0.663501 0.056310
0.500000 -0.500000 -0.020000 0.663501 0.555375
-2.500000 -0.400000 -0.020000 0.698098 0.459555
-2.500000 -0.500000 -0.500000 0.663501 0.555375
-2.500000 -0.500000 -0.020000 0.663501 0.459555
-2.500000 -0.400000 -0.500000 0.698098 0.455562
0.500000 -0.500000 -0.500000 0.663501 0.954627
-2.500000 -0.500000 -0.500000 0.663501 0.455562
-2.500000 -0.500000 -0.020000 0.444532 0.056310
0.500000 -0.500000 -0.500000 0.278464 0.555375
0.500000 -0.500000 -0.020000 0.444532 0.555375
0.500000 -0.400000 -0.020000 0.444532 0.954627
-2.500000 -0.400000 -0.500000 0.278464 0.455562
-2.500000 -0.400000 -0.020000 0.444532 0.455562
0.500000 -0.400000 0.020000 0.698098 0.451570
0.500000 -0.500000 0.500000 0.663501 0.355749
0.500000 -0.500000 0.020000 0.663501 0.451570
0.500000 -0.400000 0.500000 0.729348 0.555375
-2.500000 -0.500000 0.500000 0.694751 0.056310
0.500000 -0.500000 0.500000 0.694751 0.555375
-2.500000 -0.400000 0.500000 0.698098 0.355749
-2.500000 -0.500000 0.020000 0.663501 0.451570
-2.500000 -0.500000 0.500000 0.663501 0.355749
-2.500000 -0.400000 0.020000 0.698098 0.455562
0.500000 -0.500000 0.020000 0.663501 0.954627
-2.500000 -0.500000 0.020000 0.663501 0.455562
0.500000 -0.500000 0.020000 0.528683 0.555375
0.500000 -0.400000 0.500000 0.694751 0.954627
-2.500000 -0.400000 0.020000 0.528683 0.455562
-2.500000 -0.400000 0.500000 0.694751 0.455562
0.500000 -0.400000 -0.020000 0.698098 0.459555
-2.500000 -0.400000 -0.020000 0.698098 0.056310
-2.500000 -0.400000 -0.500000 0.698098 0.555375
0.500000 -0.400000 -0.500000 0.698098 0.954627
-2.500000 -0.500000 -0.500000 0.278464 0.056310
0.500000 -0.400000 -0.500000 0.278464 0.954627
0.500000 -0.400000 0.500000 0.698098 0.355749
-2.500000 -0.400000 0.500000 0.729348 0.056310
-2.500000 -0.400000 0.020000 0.698098 0.451570
0.500000 -0.400000 0.020000 0.698098 0.954627
-2.500000 -0.500000 0.020000 0.528683 0.056310
0.500000 -0.400000 0.020000 0.528683 0.954627
0.500000 0.500000 0.500000 0.905469 0.723437
0.500000 0.300000 1.500000 0.805469 0.223437
0.500000 0.300000 0.500000 0.805469 0.723437
0.500000 0.500000 1.500000 0.000000 0.204132
-0.500000 0.300000 1.500000 1.000000 0.000000
0.500000 0.300000 1.500000 0.000000 0.000000
-0.500000 0.500000 1.500000 0.428906 0.235156
-0.500000 0.300000 0.500000 0.328906 0.735156
-0.500000 0.300000 1.500000 0.328906 0.235156
-0.500000 0.500000 0.500000 1.000000 0.210857
0.500000 0.300000 0.500000 0.000000 0.000000
-0.500000 0.300000 0.500000 1.000000 0.000000
0.500000 0.300000 0.500000 0.000000 1.000000
-0.160000 0.060000 0.600000 0.417187 0.781562
-0.160000 -0.140000 1.400000 0.317187 0.381562
-0.160000 -0.140000 0.600000 0.317187 0.781562
-0.160000 0.060000 1.400000 0.580000 1.030000
-0.240000 -0.140000 1.400000 0.620000 0.930000
-0.160000 -0.140000 1.400000 0.580000 0.930000
-0.240000 0.060000 1.400000 0.417187 0.381562
-0.240000 -0.140000 0.600000 0.317187 0.781562
-0.240000 -0.140000 1.400000 0.317187 0.381562
-0.240000 0.060000 0.600000 0.620000 1.030000
-0.160000 -0.140000 0.600000 0.580000 0.930000
-0.240000 -0.140000 0.600000 0.620000 0.930000
-0.240000 -0.140000 1.400000 0.620000 0.450000
-0.160000 -0.140000 0.600000 0.580000 0.050000
-0.160000 -0.140000 1.400000 0.580000 0.450000
-0.160000 0.060000 1.400000 0.580000 0.450000
-0.240000 0.060000 0.600000 0.620000 0.050000
-0.240000 0.060000 1.400000 0.620000 0.450000
0.350000 -0.450000 1.325000 0.881250 0.450000
0.350000 -0.550000 1.475000 0.831250 0.375000
0.350000 -0.550000 1.325000 0.831250 0.450000
0.350000 -0.550000 1.475000 0.831250 0.537500
-0.350000 -0.450000 1.475000 0.881250 0.187500
-0.350000 -0.550000 1.475000 0.831250 0.187500
-0.350000 -0.450000 1.475000 0.881250 0.375000
-0.350000 -0.550000 1.325000 0.831250 0.450000
-0.350000 -0.550000 1.475000 0.831250 0.375000
-0.350000 -0.450000 1.325000 0.881250 0.187500
0.350000 -0.550000 1.325000 0.831250 0.537500
-0.350000 -0.550000 1.325000 0.831250 0.187500
-0.350000 -0.550000 1.475000 0.593750 0.187500
0.350000 -0.550000 1.325000 0.518750 0.537500
0.350000 -0.550000 1.475000 0.593750 0.537500
0.350000 -0.450000 1.475000 0.593750 0.537500
-0.350000 -0.450000 1.325000 0.518750 0.187500
-0.350000 -0.450000 1.475000 0.593750 0.187500
0.350000 -0.450000 0.525000 0.881250 0.850000
0.350000 -0.550000 0.675000 0.831250 0.775000
0.350000 -0.550000 0.525000 0.831250 0.850000
0.350000 -0.550000 0.675000 0.831250 0.537500
-0.350000 -0.450000 0.675000 0.881250 0.187500
-0.350000 -0.550000 0.675000 0.831250 0.187500
-0.350000 -0.450000 0.675000 0.881250 0.775000
-0.350000 -0.550000 0.525000 0.831250 0.850000
-0.350000 -0.550000 0.675000 0.831250 0.775000
-0.350000 -0.450000 0.525000 0.881250 0.187500
0.350000 -0.550000 0.525000 0.831250 0.537500
-0.350000 -0.550000 0.525000 0.831250 0.187500
0.350000 -0.550000 0.675000 0.193750 0.537500
-0.350000 -0.550000 0.525000 0.118750 0.187500
0.350000 -0.550000 0.525000 0.118750 0.537500
0.350000 -0.450000 0.675000 0.193750 0.537500
-0.350000 -0.450000 0.525000 0.118750 0.187500
-0.350000 -0.450000 0.675000 0.193750 0.187500
-0.150000 0.400000 0.550000 0.025000 1.200000
-0.150000 -0.500000 0.650000 0.075000 0.750000
-0.150000 -0.500000 0.550000 0.025000 0.750000
-0.150000 0.400000 0.650000 0.575000 1.200000
-0.250000 -0.500000 0.650000 0.625000 0.750000
-0.150000 -0.500000 0.650000 0.575000 0.750000
-0.250000 0.400000 0.650000 0.075000 1.200000
-0.250000 -0.500000 0.550000 0.025000 0.750000
-0.250000 -0.500000 0.650000 0.075000 0.750000
-0.250000 0.400000 0.550000 0.625000 1.200000
-0.150000 -0.500000 0.550000 0.575000 0.750000
-0.250000 -0.500000 0.550000 0.625000 0.750000
-0.250000 -0.500000 0.650000 0.625000 0.075000
-0.150000 -0.500000 0.550000 0.575000 0.025000
-0.150000 -0.500000 0.650000 0.575000 0.075000
-0.150000 0.400000 0.650000 0.575000 0.075000
-0.250000 0.400000 0.550000 0.625000 0.025000
-0.250000 0.400000 0.650000 0.625000 0.075000
-0.150000 0.400000 1.350000 0.425000 1.200000
-0.150000 -0.500000 1.450000 0.475000 0.750000
-0.150000 -0.500000 1.350000 0.425000 0.750000
-0.150000 0.400000 1.450000 0.575000 1.200000
-0.250000 -0.500000 1.450000 0.625000 0.750000
-0.150000 -0.500000 1.450000 0.575000 0.750000
-0.250000 0.400000 1.450000 0.475000 1.200000
-0.250000 -0.500000 1.350000 0.425000 0.750000
-0.250000 -0.500000 1.450000 0.475000 0.750000
-0.250000 0.400000 1.350000 0.625000 1.200000
-0.150000 -0.500000 1.350000 0.575000 0.750000
-0.250000 -0.500000 1.350000 0.625000 0.750000
-0.250000 -0.500000 1.450000 0.625000 0.475000
-0.150000 -0.500000 1.350000 0.575000 0.425000
-0.150000 -0.500000 1.450000 0.575000 0.475000
-0.150000 0.400000 1.450000 0.575000 0.475000
-0.250000 0.400000 1.350000 0.625000 0.425000
-0.250000 0.400000 1.450000 0.625000 0.475000
0.500000 0.500000 1.500000 0.905469 0.223437
-0.500000 0.500000 1.500000 1.000000 0.204132
-0.500000 0.500000 0.500000 0.428906 0.735156
0.500000 0.500000 0.500000 0.000000 0.210857
-0.500000 0.300000 0.500000 1.000000 1.000000
-0.160000 0.060000 1.400000 0.417187 0.381562
-0.240000 0.060000 1.400000 0.620000 1.030000
-0.240000 0.060000 0.600000 0.417187 0.781562
-0.160000 0.060000 0.600000 0.580000 1.030000
-0.240000 -0.140000 0.600000 0.620000 0.050000
-0.160000 0.060000 0.600000 0.580000 0.050000
0.350000 -0.450000 1.475000 0.881250 0.375000
0.350000 -0.450000 1.475000 0.881250 0.537500
-0.350000 -0.450000 1.325000 0.881250 0.450000
0.350000 -0.450000 1.325000 0.881250 0.537500
-0.350000 -0.550000 1.325000 0.518750 0.187500
0.350000 -0.450000 1.325000 0.518750 0.537500
0.350000 -0.450000 0.675000 0.881250 0.775000
0.350000 -0.450000 0.675000 0.881250 0.537500
-0.350000 -0.450000 0.525000 0.881250 0.850000
0.350000 -0.450000 0.525000 0.881250 0.537500
-0.350000 -0.550000 0.675000 0.193750 0.187500
0.350000 -0.450000 0.525000 0.118750 0.537500
-0.150000 0.400000 0.650000 0.075000 1.200000
-0.250000 0.400000 0.650000 0.625000 1.200000
-0.250000 0.400000 0.550000 0.025000 1.200000
-0.150000 0.400000 0.550000 0.575000 1.200000
-0.250000 -0.500000 0.550000 0.625000 0.025000
-0.150000 0.400000 0.550000 0.575000 0.025000
-0.150000 0.400000 1.450000 0.475000 1.200000
-0.250000 0.400000 1.450000 0.625000 1.200000
-0.250000 0.400000 1.350000 0.425000 1.200000
-0.150000 0.400000 1.350000 0.575000 1.200000
-0.250000 -0.500000 1.350000 0.625000 0.425000
-0.150000 0.400000 1.350000 0.575000 0.425000
3 0 1 2
3 3 4 5
3 6 7 8
3 9 10 11
3 4 12 5
3 13 14 15
3 16 17 18
3 19 20 21
3 22 23 24
3 25 26 27
3 28 29 30
3 31 32 33
3 34 35 36
3 37 38 39
3 40 41 42
3 43 44 45
3 46 47 48
3 49 50 51
3 52 53 54
3 55 56 57
3 58 59 60
3 61 62 63
3 64 65 66
3 67 68 69
3 70 71 72
3 73 74 75
3 76 77 78
3 79 80 81
3 82 83 84
3 85 86 87
3 88 89 90
3 91 92 93
3 94 95 96
3 97 98 99
3 100 101 102
3 0 103 1
3 3 104 4
3 6 105 7
3 9 106 10
3 4 107 12
3 13 108 14
3 16 109 17
3 19 110 20
3 22 111 23
3 25 112 26
3 28 113 29
3 31 114 32
3 34 115 35
3 37 116 38
3 40 117 41
3 43 118 44
3 46 119 47
3 49 120 50
3 52 121 53
3 55 122 56
3 58 123 59
3 61 124 62
3 64 125 65
3 67 126 68
3 70 127 71
3 73 128 74
3 76 129 77
3 79 130 80
3 82 131 83
3 85 132 86
3 88 133 89
3 91 134 92
3 94 135 95
3 97 136 98
3 100 137 101
3 138 139 140
3 141 142 143
3 144 145 146
3 147 148 149
3 150 151 152
3 153 154 155
3 156 157 158
3 159 160 161
3 162 163 164
3 165 166 167
3 160 168 161
3 169 170 171
3 138 172 139
3 141 173 142
3 144 174 145
3 147 175 148
3 150 176 151
3 153 177 154
3 156 178 157
3 159 179 160
3 162 180 163
3 165 181 166
3 160 182 168
3 169 183 170
3 184 185 186
3 187 188 189
3 190 191 192
3 193 194 195
3 188 196 189
3 197 198 199
3 200 201 202
3 203 204 205
3 206 207 208
3 209 210 211
3 212 213 214
3 215 216 217
3 218 219 220
3 221 222 223
3 224 225 226
3 227 228 229
3 230 231 232
3 233 234 235
3 236 237 238
3 239 240 241
3 242 243 244
3 245 246 247
3 248 249 250
3 251 252 253
3 254 255 256
3 257 258 259
3 260 261 262
3 263 264 265
3 266 267 268
3 269 270 271
3 272 273 274
3 275 276 277
3 278 279 280
3 281 282 283
3 284 285 286
3 184 287 185
3 187 288 188
3 190 289 191
3 193 290 194
3 188 291 196
3 197 292 198
3 200 293 201
3 203 294 204
3 206 295 207
3 209 296 210
3 212 297 213
3 215 298 216
3 218 299 219
3 221 300 222
3 224 301 225
3 227 302 228
3 230 303 231
3 233 304 234
3 236 305 237
3 239 306 240
3 242 307 243
3 245 308 246
3 248 309 249
3 251 310 252
3 254 311 255
3 257 312 258
3 260 313 261
3 263 314 264
3 266 315 267
3 269 316 270
3 272 317 273
3 275 318 276
3 278 319 279
3 281 320 282
3 284 321 285
