ply
format ascii 1.0
comment Created by Blender 2.79 (sub 0) - www.blender.org, source file: 'boat.blend'
element vertex 213
property float x
property float y
property float z
property float s
property float t
element face 143
property list uchar uint vertex_indices
end_header
-5.333297 -0.509822 -0.418788 1.926020 3.529535
-4.878602 -1.669372 -0.261926 1.206977 1.594535
-5.165841 -1.669372 -0.118753 1.661211 1.594535
-3.267260 -0.509822 0.783894 1.658848 3.529535
-3.678205 -1.669373 0.519405 2.308705 1.594535
-3.210504 -1.669373 0.552359 1.569095 1.594535
-4.596895 -0.636148 -0.447776 0.644749 0.688596
-4.279243 -0.509822 -0.596654 0.855556 1.190922
-4.739341 -0.509822 -0.489311 0.855556 0.463337
-0.814032 -0.636148 -0.697962 0.644749 0.670708
-3.243059 -0.509822 -0.707774 0.855556 -3.170487
-3.308203 -0.636148 -0.692679 0.644749 -3.273502
-3.308203 -0.636148 -0.692679 0.644749 0.726498
-3.774771 -0.509822 -0.670310 0.855556 -0.011321
-3.766153 -0.636148 -0.650679 0.644749 0.002308
-0.814032 -0.636148 0.675383 0.644749 0.670708
-3.243060 -0.509822 0.685194 0.855556 -3.170487
-0.816821 -0.509822 0.689699 0.855556 0.666297
-4.596895 -0.636148 0.425202 0.644749 0.688596
-4.279243 -0.509822 0.574079 0.855556 1.190922
-4.200634 -0.636148 0.545534 0.644749 1.315232
-5.090711 -0.636148 0.183135 1.850495 -2.092310
-4.941509 -0.636148 0.271186 1.629208 -1.856366
-5.090711 -0.636148 -0.205715 2.827746 -2.092310
-5.139468 -0.509822 0.329342 0.483050 0.830587
-5.090711 -0.636148 0.183135 0.850495 0.907690
-5.312690 -0.509822 0.250804 0.680429 0.556659
-4.941509 -0.636148 -0.293759 0.049015 0.143634
-4.739341 -0.509822 -0.489311 0.540473 0.463337
-5.139468 -0.509822 -0.351922 0.195190 -0.169413
-4.396114 -0.509822 0.662834 2.443986 3.529535
-4.526656 -1.669372 0.360198 2.650422 1.594535
-4.121939 -1.669373 0.454622 2.010412 1.594535
-4.200634 -0.636148 -0.568115 0.644749 0.315232
-3.774771 -0.509822 -0.670310 0.855556 0.988679
-4.279243 -0.509822 -0.596654 0.855556 0.190922
-0.029933 -0.509822 0.788710 0.328575 0.910659
-0.226847 -0.509822 -0.712273 4.100818 0.599266
-0.226847 -0.509822 0.689699 0.577409 0.599266
-0.029933 -0.509822 0.788710 0.412164 -1.251319
-0.645236 -1.669373 -0.579012 -3.025167 0.683681
-0.029933 -0.509822 -0.811290 -3.608924 -1.251319
-3.846516 -0.509822 0.743078 1.574868 3.529535
-3.678205 -1.669373 0.519405 1.308705 1.594535
-5.689053 -0.509822 -0.241458 -0.128380 -0.033489
-5.324985 -1.669372 -0.011290 1.806620 -0.611944
-6.029933 -0.509822 -0.011290 -0.128380 -0.611944
-3.308203 -0.636148 0.670098 0.644749 0.726498
-3.774771 -0.509822 0.647729 0.855556 -0.011321
-3.243060 -0.509822 0.685194 0.855556 0.829513
-4.200634 -0.636148 0.545534 0.644749 0.315232
-3.774771 -0.509822 0.647729 0.855556 0.988679
-3.766153 -0.636148 0.628106 0.644749 1.002308
-4.941509 -0.636148 0.271186 0.629208 0.143634
-4.739341 -0.509822 0.466731 0.137767 0.463337
-4.596895 -0.636148 0.425202 0.242136 0.688596
-5.090711 -0.636148 -0.205715 0.827746 0.907690
-5.139468 -0.509822 -0.351922 1.195190 0.830587
-5.312690 -0.509822 -0.273379 0.997797 0.556659
-0.654809 -0.725552 -0.712273 0.100818 -0.077502
-0.226847 -0.725552 0.689699 -3.422591 0.599266
-0.226847 -0.725552 -0.712273 0.100818 0.599266
-3.243060 -0.509822 0.685194 0.588729 0.855556
-0.816821 -0.509822 0.689699 0.577409 0.855556
-0.816821 -0.509822 0.689699 0.577409 0.855556
-4.396114 -0.509822 -0.685414 2.443986 3.529535
-4.526656 -1.669372 -0.382777 2.650422 1.594535
-4.897386 -0.509822 -0.568466 3.236682 3.529535
-3.267259 -0.509822 -0.806468 1.658846 3.529535
-0.645236 -1.669373 -0.579012 -2.487545 1.594534
-3.210504 -1.669373 -0.574939 1.569095 1.594535
-3.846516 -0.509822 -0.765657 1.574868 3.529535
-4.121939 -1.669373 -0.477196 2.010412 1.594535
-3.678205 -1.669373 -0.541984 2.308705 1.594535
-3.846516 -0.509822 -0.765657 2.574867 3.529535
-0.226847 -0.725552 0.689699 -3.422591 0.495556
-0.226847 -0.509822 -0.712273 0.100818 0.855556
-0.226847 -0.725552 -0.712273 0.100818 0.495556
-0.654809 -0.725552 0.689699 0.495556 -0.077502
-0.226847 -0.509822 0.689699 0.855556 0.599266
-0.226847 -0.725552 0.689699 0.495556 0.599266
-5.333297 -0.509822 -0.418788 -0.636765 -6.475929
-5.312690 -0.509822 -0.273379 -1.002203 -6.443341
-5.139468 -0.509822 -0.351922 -0.804810 -6.169413
-4.121939 -1.669373 -0.477196 -2.458635 0.066513
-3.678205 -1.669373 -0.541984 -1.756927 -0.096313
-3.678205 -1.669373 0.519405 -1.756927 2.571149
-4.897386 -0.509822 0.545892 2.236682 3.529535
-4.878602 -1.669372 0.239346 2.206977 1.594535
-4.526656 -1.669372 0.360198 1.650422 1.594535
-0.654809 -0.725552 -0.712273 4.100818 0.495556
-0.654809 -0.509822 0.689699 0.577409 0.855556
-0.654809 -0.725552 0.689699 0.577409 0.495556
-4.200634 -0.636148 -0.568115 0.644749 1.315232
-3.243059 -0.509822 -0.707774 0.855556 0.829513
-4.739341 -0.509822 0.466731 0.855556 0.463337
-5.222763 -0.636148 -0.111291 0.590441 0.698867
-5.336540 -0.636148 -0.011290 0.339121 0.518944
-5.522015 -0.509822 0.310646 2.224453 3.529535
-5.689053 -0.509822 0.218878 2.488601 3.529535
-5.165841 -1.669372 0.096173 1.661211 1.594535
-4.596895 -0.636148 -0.447776 0.436087 0.688596
-3.766153 -0.636148 -0.650679 0.644749 1.002308
-3.766153 -0.636148 0.628106 0.644749 0.002308
-4.279243 -0.509822 0.574079 0.855556 0.190922
-5.139468 -0.509822 0.329342 0.483050 -0.169413
-5.222763 -0.636148 0.088710 1.087801 0.698867
-5.336540 -0.636148 -0.011290 1.339121 0.518944
-0.645236 -1.669373 0.556438 -2.487545 1.594534
-0.029933 -0.509822 0.788710 -3.460568 3.529534
-3.774771 -0.509822 0.647729 -3.317114 -4.011321
-4.279243 -0.509822 0.574079 -3.132019 -4.809078
-3.846516 -0.509822 0.743078 -3.556742 -4.124776
-5.689053 -0.509822 0.218878 -0.128380 -0.190396
-5.324985 -1.669372 -0.011290 1.806620 0.388056
-5.165841 -1.669372 0.096173 1.806620 0.117983
-0.816821 -0.509822 -0.712273 0.100818 0.855556
-0.814032 -0.636148 0.675383 -3.386612 0.644749
-0.816821 -0.509822 0.689699 -3.422591 0.855556
-0.226847 -0.725552 -0.712273 0.495556 1.599266
-0.654809 -0.509822 -0.712273 0.855556 0.922498
-0.654809 -0.725552 -0.712273 0.495556 0.922498
-0.029933 -0.509822 0.788710 0.328575 0.855556
-0.029933 -0.509822 0.788710 0.328575 0.855556
-3.267260 -0.509822 0.783894 0.340680 0.855556
-0.645236 -1.669373 -0.579012 0.765907 0.920556
-0.029933 -0.509822 -0.811290 1.349664 2.855556
-0.029933 -0.509822 -0.811290 1.349664 2.855556
-4.897386 -0.509822 -0.568466 2.236682 3.529535
-4.878602 -1.669372 -0.261926 2.206977 1.594535
-5.333297 -0.509822 -0.418788 2.926020 3.529535
-5.689053 -0.509822 -0.241458 2.488601 3.529535
-5.522015 -0.509822 -0.333219 2.224453 3.529535
-3.846516 -0.509822 0.743078 2.574867 3.529535
-0.816821 -0.509822 -0.712273 0.855556 0.666297
-3.308203 -0.636148 0.670098 0.644749 -3.273502
-4.200634 -0.636148 0.545534 0.939721 -0.684768
-3.766153 -0.636148 0.628106 0.732202 0.002308
-3.766153 -0.636148 -0.650679 3.946021 0.002308
-3.308202 -0.636148 0.670098 0.626669 0.726498
-0.814032 -0.636148 0.675383 0.613388 4.670708
-0.814032 -0.636148 -0.697962 4.064852 4.670708
-3.308202 -0.636148 -0.692679 4.051573 0.726498
-4.200634 -0.636148 -0.568115 3.738521 -0.684768
-4.596895 -0.636148 -0.447776 3.436087 -1.311404
-4.596895 -0.636148 0.425202 1.242136 -1.311404
-4.941509 -0.636148 -0.293759 3.049015 -1.856366
-5.222763 -0.636148 -0.111291 2.590441 -2.301133
-5.336540 -0.636148 -0.011290 2.339121 -2.481056
-5.222763 -0.636148 0.088710 2.087801 -2.301133
-4.941509 -0.636148 0.271186 0.629208 1.143634
-4.897386 -0.509822 0.545892 3.236682 3.529535
-0.029933 -0.509822 -0.811290 4.349664 0.910659
-0.645236 -1.669373 0.556438 -0.171577 0.683681
-5.165841 -1.669372 -0.118753 1.806620 -0.341870
-4.941509 -0.636148 -0.293759 1.049015 1.143634
-0.654809 -0.725552 0.689699 -3.422591 -0.077502
-0.029933 -0.509822 -0.811290 -3.460568 3.529534
-3.678205 -1.669373 -0.541984 1.308705 1.594535
-0.226847 -0.509822 0.689699 -3.422591 0.855556
-0.654809 -0.509822 0.689699 0.855556 -0.077502
-0.816821 -0.509822 -0.712273 0.100818 0.666297
-0.654809 -0.509822 -0.712273 0.100818 0.922498
-0.029933 -0.509822 -0.811290 0.349664 1.910659
-0.226847 -0.509822 -0.712273 0.100818 1.599266
-3.267259 -0.509822 -0.806468 0.337545 -3.208755
-3.846516 -0.509822 -0.765657 0.234982 -4.124776
-3.774771 -0.509822 -0.670310 -0.004645 -4.011321
-4.396114 -0.509822 -0.685414 0.033316 -4.993895
-4.279243 -0.509822 -0.596654 -0.189755 -4.809078
-4.897386 -0.509822 -0.568466 -0.260595 -5.786591
-4.739341 -0.509822 -0.489311 -0.459527 -5.536663
-5.522015 -0.509822 -0.333219 -0.851813 -6.774362
-5.689053 -0.509822 -0.241458 -1.082426 -7.038510
-6.029933 -0.509822 -0.011290 -1.660880 -7.577568
-5.689053 -0.509822 0.218878 -2.239333 -7.038510
-5.729428 -0.509822 -0.011290 -1.660880 -7.102359
-5.522015 -0.509822 0.310646 -2.469962 -6.774362
-5.312690 -0.509822 0.250804 -2.319571 -6.443341
-5.333297 -0.509822 0.396213 -2.685010 -6.475929
-3.243059 -0.509822 -0.707774 0.089510 -3.170487
-3.210504 -1.669373 -0.574939 -1.017318 -0.179133
-3.210504 -1.669373 0.552359 -1.017318 2.653970
-0.645236 -1.669373 -0.579012 3.039322 -0.189369
-0.645236 -1.669373 0.556438 3.039322 2.664221
-4.121939 -1.669373 0.454622 -2.458635 2.408340
-4.526656 -1.669372 0.360198 -3.098644 2.171033
-4.878602 -1.669372 0.239346 -3.655200 1.867312
-4.526656 -1.669372 -0.382777 -3.098644 0.303804
-5.165841 -1.669372 0.096173 -4.109433 1.507492
-4.878602 -1.669372 -0.261926 -3.655200 0.607525
-5.324985 -1.669372 -0.011290 -4.361098 1.237419
-5.165841 -1.669372 -0.118753 -4.109433 0.967345
-5.333297 -0.509822 0.396213 2.926020 3.529535
-0.654809 -0.509822 -0.712273 4.100818 0.855556
-5.729428 -0.509822 -0.011290 0.339120 -0.102359
-4.878602 -1.669372 0.239346 1.206977 1.594535
-5.333297 -0.509822 0.396213 1.926020 3.529535
-5.729428 -0.509822 -0.011290 1.339120 -0.102359
-0.654809 -0.509822 0.689699 -3.422591 0.922498
-0.816821 -0.509822 0.689699 -3.422591 0.666297
-0.029933 -0.509822 0.788710 -3.671425 1.910659
-0.226847 -0.509822 0.689699 -3.422591 1.599266
-3.267260 -0.509822 0.783894 -3.659320 -3.208756
-4.897386 -0.509822 0.545892 -3.061178 -5.786591
-4.396114 -0.509822 0.662834 -3.355076 -4.993895
-4.739341 -0.509822 0.466731 -2.862233 -5.536663
-5.139468 -0.509822 0.329342 -2.516950 -6.169413
-3.243060 -0.509822 0.685194 -3.411271 -3.170487
-6.029933 -0.509822 -0.011290 -0.128380 0.388056
-0.814032 -0.636148 -0.697962 0.064852 0.644749
-0.226847 -0.509822 -0.712273 0.855556 1.599266
-4.526656 -1.669372 -0.382777 1.650422 1.594535
3 0 1 2
3 3 4 5
3 6 7 8
3 9 10 11
3 12 13 14
3 15 16 17
3 18 19 20
3 21 22 23
3 24 25 26
3 27 28 29
3 30 31 32
3 33 34 35
3 36 37 38
3 39 40 41
3 42 32 43
3 44 45 46
3 47 48 49
3 50 51 52
3 53 54 55
3 56 57 58
3 59 60 61
3 62 63 64
3 65 66 67
3 68 69 70
3 71 72 65
3 68 73 74
3 75 76 77
3 78 79 80
3 81 82 83
3 84 85 86
3 87 88 89
3 90 91 92
3 6 93 7
3 12 94 13
3 18 95 19
3 96 58 97
3 98 99 100
3 27 101 28
3 33 102 34
3 47 103 48
3 50 104 51
3 53 105 54
3 106 107 26
3 3 108 109
3 110 111 112
3 113 114 115
3 116 117 118
3 119 120 121
3 122 123 124
3 125 126 127
3 128 129 130
3 131 132 2
3 132 0 2
3 3 133 4
3 9 134 10
3 15 135 16
3 136 137 138
3 137 139 138
3 139 140 141
3 141 142 139
3 142 138 139
3 138 143 136
3 143 144 136
3 136 144 145
3 144 146 145
3 146 23 22
3 145 146 22
3 23 147 21
3 147 148 149
3 21 147 149
3 24 150 25
3 30 151 31
3 36 152 37
3 39 153 40
3 42 30 32
3 44 154 45
3 56 155 57
3 59 156 60
3 65 72 66
3 68 157 69
3 71 158 72
3 68 70 73
3 75 159 76
3 78 160 79
3 161 162 163
3 162 164 163
3 161 163 165
3 165 166 167
3 166 168 169
3 168 170 171
3 170 81 83
3 171 170 83
3 81 172 82
3 172 173 82
3 174 175 176
3 175 177 178
3 176 175 178
3 177 179 178
3 173 174 176
3 82 173 176
3 166 169 167
3 169 168 171
3 180 161 165
3 167 180 165
3 85 181 182
3 181 183 182
3 183 184 182
3 182 86 85
3 86 185 84
3 185 186 84
3 186 187 188
3 84 186 188
3 187 189 190
3 189 191 192
3 190 189 192
3 190 188 187
3 87 193 88
3 90 194 91
3 96 56 58
3 58 195 97
3 196 197 100
3 197 98 100
3 198 26 107
3 26 25 106
3 3 5 108
3 199 162 161
3 199 161 200
3 201 202 199
3 112 203 110
3 203 201 200
3 200 201 199
3 204 205 206
3 205 112 111
3 178 179 207
3 179 204 207
3 203 200 208
3 206 207 204
3 111 206 205
3 203 208 110
3 113 209 114
3 116 210 117
3 119 211 120
3 128 212 129
