ply
format ascii 1.0
comment Created by Blender 2.79 (sub 0) - www.blender.org, source file: ''
element vertex 280
property float x
property float y
property float z
property uchar red
property uchar green
property uchar blue
element face 336
property list uchar uint vertex_indices
end_header
-0.405000 -0.250000 0.015000 255 0 0
-0.405000 -0.500000 -0.015000 255 0 0
-0.405000 -0.250000 -0.015000 255 0 0
-0.395000 -0.240000 -0.025000 255 0 0
-0.445000 -0.275000 -0.025000 255 0 0
-0.445000 -0.240000 -0.025000 255 0 0
0.025000 -0.240000 0.335000 0 0 255
-0.025000 -0.240000 0.385000 0 0 255
0.025000 -0.240000 0.385000 0 0 255
0.295000 -0.240000 0.355000 255 0 0
0.295000 -0.275000 0.305000 255 0 0
0.295000 -0.240000 0.305000 255 0 0
0.285000 -0.250000 0.315000 255 0 0
0.255000 -0.500000 0.315000 255 0 0
0.255000 -0.250000 0.315000 255 0 0
0.245000 -0.240000 0.355000 255 0 0
0.295000 -0.275000 0.355000 255 0 0
-0.205000 -0.250000 0.185000 255 0 0
-0.235000 -0.250000 0.215000 255 0 0
-0.205000 -0.250000 0.215000 255 0 0
-0.435000 -0.250000 0.015000 255 0 0
-0.405000 -0.500000 0.015000 255 0 0
-0.375000 -0.240000 0.375000 0 0 255
-0.425000 -0.240000 0.425000 0 0 255
-0.375000 -0.240000 0.425000 0 0 255
-0.385000 -0.250000 0.415000 255 0 0
-0.385000 -0.500000 0.385000 255 0 0
-0.385000 -0.250000 0.385000 255 0 0
-0.015000 -0.240000 -0.065000 255 0 0
-0.065000 -0.275000 -0.065000 255 0 0
-0.065000 -0.240000 -0.065000 255 0 0
-0.415000 -0.250000 0.385000 255 0 0
-0.415000 -0.500000 0.415000 255 0 0
-0.415000 -0.250000 0.415000 255 0 0
-0.395000 -0.240000 -0.025000 0 0 255
-0.445000 -0.240000 0.025000 0 0 255
-0.395000 -0.240000 0.025000 0 0 255
0.415000 -0.240000 -0.435000 0 0 255
0.365000 -0.240000 -0.385000 0 0 255
0.415000 -0.240000 -0.385000 0 0 255
-0.265000 -0.500000 -0.215000 255 0 0
-0.235000 -0.500000 -0.185000 255 0 0
-0.265000 -0.500000 -0.185000 255 0 0
-0.435000 -0.250000 -0.015000 255 0 0
-0.435000 -0.500000 0.015000 255 0 0
-0.445000 -0.240000 0.025000 255 0 0
-0.395000 -0.275000 0.025000 255 0 0
-0.395000 -0.240000 0.025000 255 0 0
0.375000 -0.500000 -0.425000 255 0 0
0.405000 -0.500000 -0.395000 255 0 0
0.375000 -0.500000 -0.395000 255 0 0
0.395000 -0.240000 -0.105000 255 0 0
0.345000 -0.275000 -0.105000 255 0 0
0.345000 -0.240000 -0.105000 255 0 0
-0.025000 -0.250000 -0.025000 255 0 0
-0.025000 -0.500000 -0.055000 255 0 0
-0.025000 -0.250000 -0.055000 255 0 0
-0.415000 -0.500000 0.385000 255 0 0
-0.385000 -0.500000 0.415000 255 0 0
-0.445000 -0.250000 -0.345000 255 0 0
-0.415000 -0.500000 -0.345000 255 0 0
-0.415000 -0.250000 -0.345000 255 0 0
0.015000 -0.250000 0.375000 255 0 0
0.015000 -0.500000 0.345000 255 0 0
0.015000 -0.250000 0.345000 255 0 0
-0.415000 -0.250000 -0.375000 255 0 0
0.185000 -0.250000 -0.285000 255 0 0
0.215000 -0.500000 -0.285000 255 0 0
0.215000 -0.250000 -0.285000 255 0 0
0.345000 -0.240000 -0.055000 255 0 0
0.395000 -0.275000 -0.055000 255 0 0
0.395000 -0.240000 -0.055000 255 0 0
-0.235000 -0.250000 -0.185000 255 0 0
-0.235000 -0.500000 -0.215000 255 0 0
-0.235000 -0.250000 -0.215000 255 0 0
0.245000 -0.275000 0.305000 255 0 0
0.245000 -0.275000 0.355000 255 0 0
0.405000 -0.250000 -0.395000 255 0 0
0.405000 -0.500000 -0.425000 255 0 0
0.405000 -0.250000 -0.425000 255 0 0
0.185000 -0.250000 -0.315000 255 0 0
0.185000 -0.500000 -0.285000 255 0 0
-0.405000 -0.240000 -0.335000 255 0 0
-0.405000 -0.275000 -0.385000 255 0 0
-0.405000 -0.240000 -0.385000 255 0 0
-0.195000 -0.240000 0.175000 255 0 0
-0.245000 -0.275000 0.175000 255 0 0
-0.245000 -0.240000 0.175000 255 0 0
-0.195000 -0.275000 0.225000 255 0 0
-0.245000 -0.275000 0.225000 255 0 0
-0.425000 -0.240000 0.375000 255 0 0
-0.425000 -0.275000 0.425000 255 0 0
-0.425000 -0.240000 0.425000 255 0 0
0.345000 -0.275000 -0.055000 255 0 0
-0.015000 -0.250000 0.375000 255 0 0
0.175000 -0.240000 -0.275000 255 0 0
0.225000 -0.275000 -0.275000 255 0 0
0.225000 -0.240000 -0.275000 255 0 0
0.255000 -0.500000 0.345000 255 0 0
0.255000 -0.250000 0.345000 255 0 0
0.295000 -0.240000 0.305000 0 0 255
0.245000 -0.240000 0.355000 0 0 255
0.295000 -0.240000 0.355000 0 0 255
0.215000 -0.250000 0.085000 255 0 0
0.185000 -0.250000 0.115000 255 0 0
0.215000 -0.250000 0.115000 255 0 0
0.465000 -0.500000 0.415000 255 0 0
0.495000 -0.500000 0.445000 255 0 0
0.465000 -0.500000 0.445000 255 0 0
0.375000 -0.250000 -0.395000 255 0 0
0.505000 -0.240000 0.405000 0 0 255
0.455000 -0.240000 0.455000 0 0 255
0.505000 -0.240000 0.455000 0 0 255
-0.445000 -0.250000 -0.375000 255 0 0
-0.445000 -0.500000 -0.345000 255 0 0
0.025000 -0.240000 0.335000 255 0 0
-0.025000 -0.275000 0.335000 255 0 0
-0.025000 -0.240000 0.335000 255 0 0
-0.455000 -0.275000 -0.385000 255 0 0
-0.455000 -0.240000 -0.385000 255 0 0
0.385000 -0.250000 -0.065000 255 0 0
0.385000 -0.500000 -0.095000 255 0 0
0.385000 -0.250000 -0.095000 255 0 0
0.455000 -0.275000 0.405000 255 0 0
0.505000 -0.275000 0.455000 255 0 0
0.455000 -0.275000 0.455000 255 0 0
-0.405000 -0.240000 -0.385000 0 0 255
-0.455000 -0.240000 -0.335000 0 0 255
-0.405000 -0.240000 -0.335000 0 0 255
0.355000 -0.500000 -0.095000 255 0 0
0.355000 -0.250000 -0.095000 255 0 0
0.385000 -0.500000 -0.065000 255 0 0
0.355000 -0.500000 -0.065000 255 0 0
0.505000 -0.240000 0.455000 255 0 0
0.505000 -0.275000 0.405000 255 0 0
0.505000 -0.240000 0.405000 255 0 0
-0.275000 -0.275000 -0.225000 255 0 0
-0.225000 -0.275000 -0.175000 255 0 0
-0.275000 -0.275000 -0.175000 255 0 0
-0.395000 -0.275000 -0.025000 255 0 0
0.245000 -0.240000 0.305000 255 0 0
-0.015000 -0.240000 -0.015000 255 0 0
-0.015000 -0.275000 -0.065000 255 0 0
0.025000 -0.240000 -0.385000 255 0 0
0.025000 -0.275000 -0.435000 255 0 0
0.025000 -0.240000 -0.435000 255 0 0
-0.025000 -0.275000 -0.435000 255 0 0
-0.025000 -0.240000 -0.435000 255 0 0
0.025000 -0.275000 -0.385000 255 0 0
-0.025000 -0.275000 -0.385000 255 0 0
0.025000 -0.240000 -0.435000 0 0 255
-0.025000 -0.240000 -0.385000 0 0 255
0.025000 -0.240000 -0.385000 0 0 255
0.185000 -0.500000 -0.315000 255 0 0
-0.245000 -0.240000 0.225000 255 0 0
-0.015000 -0.240000 -0.065000 0 0 255
-0.065000 -0.240000 -0.015000 0 0 255
-0.015000 -0.240000 -0.015000 0 0 255
0.495000 -0.250000 0.445000 255 0 0
0.495000 -0.500000 0.415000 255 0 0
0.495000 -0.250000 0.415000 255 0 0
0.285000 -0.250000 0.345000 255 0 0
0.285000 -0.500000 0.315000 255 0 0
0.185000 -0.500000 0.085000 255 0 0
0.215000 -0.500000 0.115000 255 0 0
0.185000 -0.500000 0.115000 255 0 0
0.215000 -0.500000 0.085000 255 0 0
0.015000 -0.500000 0.375000 255 0 0
0.175000 -0.275000 0.075000 255 0 0
0.225000 -0.275000 0.125000 255 0 0
0.175000 -0.275000 0.125000 255 0 0
-0.025000 -0.240000 0.385000 255 0 0
0.025000 -0.275000 0.385000 255 0 0
0.025000 -0.240000 0.385000 255 0 0
-0.205000 -0.500000 0.185000 255 0 0
0.285000 -0.500000 0.345000 255 0 0
0.355000 -0.250000 -0.065000 255 0 0
-0.015000 -0.250000 0.345000 255 0 0
-0.015000 -0.500000 0.375000 255 0 0
-0.205000 -0.500000 0.215000 255 0 0
-0.225000 -0.240000 -0.225000 255 0 0
-0.275000 -0.240000 -0.225000 255 0 0
0.365000 -0.275000 -0.435000 255 0 0
0.415000 -0.275000 -0.385000 255 0 0
0.365000 -0.275000 -0.385000 255 0 0
0.415000 -0.240000 -0.385000 255 0 0
0.415000 -0.275000 -0.435000 255 0 0
0.415000 -0.240000 -0.435000 255 0 0
-0.435000 -0.500000 -0.015000 255 0 0
-0.375000 -0.275000 0.425000 255 0 0
-0.375000 -0.240000 0.425000 255 0 0
-0.375000 -0.275000 0.375000 255 0 0
-0.375000 -0.240000 0.375000 255 0 0
-0.025000 -0.240000 -0.385000 255 0 0
-0.065000 -0.240000 -0.015000 255 0 0
-0.015000 -0.275000 -0.015000 255 0 0
0.465000 -0.250000 0.415000 255 0 0
0.395000 -0.240000 -0.105000 0 0 255
0.345000 -0.240000 -0.055000 0 0 255
0.395000 -0.240000 -0.055000 0 0 255
0.465000 -0.250000 0.445000 255 0 0
-0.445000 -0.500000 -0.375000 255 0 0
0.225000 -0.275000 -0.325000 255 0 0
0.225000 -0.240000 -0.325000 255 0 0
-0.455000 -0.275000 -0.335000 255 0 0
-0.455000 -0.240000 -0.335000 255 0 0
-0.405000 -0.275000 -0.335000 255 0 0
-0.065000 -0.275000 -0.015000 255 0 0
-0.415000 -0.500000 -0.375000 255 0 0
-0.275000 -0.240000 -0.175000 255 0 0
-0.225000 -0.240000 -0.175000 255 0 0
-0.445000 -0.275000 0.025000 255 0 0
0.455000 -0.240000 0.455000 255 0 0
-0.425000 -0.275000 0.375000 255 0 0
0.365000 -0.240000 -0.435000 255 0 0
0.365000 -0.240000 -0.385000 255 0 0
-0.055000 -0.250000 -0.055000 255 0 0
-0.055000 -0.500000 -0.025000 255 0 0
-0.055000 -0.250000 -0.025000 255 0 0
-0.055000 -0.500000 -0.055000 255 0 0
-0.025000 -0.500000 -0.025000 255 0 0
0.015000 -0.250000 -0.395000 255 0 0
0.015000 -0.500000 -0.425000 255 0 0
0.015000 -0.250000 -0.425000 255 0 0
-0.225000 -0.275000 -0.225000 255 0 0
-0.265000 -0.250000 -0.215000 255 0 0
-0.265000 -0.250000 -0.185000 255 0 0
0.225000 -0.240000 0.075000 255 0 0
0.175000 -0.240000 0.075000 255 0 0
-0.015000 -0.250000 -0.425000 255 0 0
-0.015000 -0.500000 -0.395000 255 0 0
-0.015000 -0.250000 -0.395000 255 0 0
-0.015000 -0.500000 -0.425000 255 0 0
0.015000 -0.500000 -0.395000 255 0 0
0.375000 -0.250000 -0.425000 255 0 0
0.455000 -0.240000 0.405000 255 0 0
0.215000 -0.500000 -0.315000 255 0 0
0.215000 -0.250000 -0.315000 255 0 0
0.395000 -0.275000 -0.105000 255 0 0
0.175000 -0.275000 -0.325000 255 0 0
0.175000 -0.240000 -0.325000 255 0 0
0.175000 -0.275000 -0.275000 255 0 0
0.225000 -0.240000 -0.325000 0 0 255
0.175000 -0.240000 -0.275000 0 0 255
0.225000 -0.240000 -0.275000 0 0 255
-0.235000 -0.250000 0.185000 255 0 0
-0.235000 -0.500000 0.215000 255 0 0
-0.025000 -0.275000 0.385000 255 0 0
0.185000 -0.250000 0.085000 255 0 0
0.175000 -0.240000 0.125000 255 0 0
0.225000 -0.240000 0.125000 255 0 0
0.225000 -0.275000 0.075000 255 0 0
0.025000 -0.275000 0.335000 255 0 0
-0.015000 -0.500000 0.345000 255 0 0
0.225000 -0.240000 0.075000 0 0 255
0.175000 -0.240000 0.125000 0 0 255
0.225000 -0.240000 0.125000 0 0 255
-0.195000 -0.240000 0.225000 255 0 0
-0.195000 -0.275000 0.175000 255 0 0
-0.225000 -0.240000 -0.225000 0 0 255
-0.275000 -0.240000 -0.175000 0 0 255
-0.225000 -0.240000 -0.175000 0 0 255
-0.235000 -0.500000 0.185000 255 0 0
-0.195000 -0.240000 0.175000 0 0 255
-0.245000 -0.240000 0.225000 0 0 255
-0.195000 -0.240000 0.225000 0 0 255
-0.025000 -0.240000 0.335000 0 0 255
-0.425000 -0.240000 0.375000 0 0 255
-0.445000 -0.240000 -0.025000 0 0 255
0.365000 -0.240000 -0.435000 0 0 255
0.245000 -0.240000 0.305000 0 0 255
0.455000 -0.240000 0.405000 0 0 255
-0.455000 -0.240000 -0.385000 0 0 255
-0.025000 -0.240000 -0.435000 0 0 255
-0.065000 -0.240000 -0.065000 0 0 255
0.345000 -0.240000 -0.105000 0 0 255
0.175000 -0.240000 -0.325000 0 0 255
0.175000 -0.240000 0.075000 0 0 255
-0.275000 -0.240000 -0.225000 0 0 255
-0.245000 -0.240000 0.175000 0 0 255
3 0 1 2
3 3 4 5
3 6 7 8
3 9 10 11
3 12 13 14
3 15 16 9
3 17 18 19
3 20 21 0
3 22 23 24
3 25 26 27
3 28 29 30
3 31 32 33
3 34 35 36
3 37 38 39
3 40 41 42
3 43 44 20
3 45 46 47
3 48 49 50
3 51 52 53
3 54 55 56
3 57 58 32
3 59 60 61
3 62 63 64
3 27 33 25
3 65 59 61
3 66 67 68
3 69 70 71
3 72 73 74
3 75 16 76
3 77 78 79
3 80 81 66
3 82 83 84
3 85 86 87
3 86 88 89
3 90 91 92
3 52 70 93
3 64 94 62
3 95 96 97
3 14 98 99
3 100 101 102
3 103 104 105
3 106 107 108
3 109 49 77
3 110 111 112
3 113 114 59
3 115 116 117
3 84 118 119
3 120 121 122
3 123 124 125
3 126 127 128
3 122 129 130
3 129 131 132
3 133 134 135
3 136 137 138
3 47 139 3
3 140 76 15
3 141 142 28
3 143 144 145
3 145 146 147
3 146 148 149
3 150 151 152
3 153 67 81
3 87 89 154
3 155 156 157
3 158 159 160
3 161 162 12
3 163 164 165
3 105 166 103
3 94 167 62
3 168 169 170
3 171 172 173
3 19 174 17
3 12 99 161
3 13 175 98
3 130 132 176
3 177 178 94
3 18 179 19
3 180 136 181
3 182 183 184
3 185 186 187
3 79 109 77
3 188 21 44
3 92 189 190
3 190 191 192
3 33 58 25
3 147 149 193
3 194 195 141
3 160 106 196
3 197 198 199
3 200 107 158
3 196 108 200
3 176 131 120
3 201 60 114
3 65 201 113
3 97 202 203
3 119 204 205
3 205 206 82
3 30 207 194
3 118 206 204
3 61 208 65
3 209 137 210
3 4 46 211
3 212 124 133
3 213 189 91
3 187 182 214
3 181 138 209
3 2 20 0
3 29 195 207
3 5 211 45
3 214 184 215
3 216 217 218
3 160 200 158
3 56 218 54
3 219 220 217
3 221 222 223
3 210 224 180
3 225 42 226
3 74 40 225
3 227 168 228
3 229 230 231
3 232 233 230
3 231 233 221
3 193 148 143
3 223 232 229
3 234 50 109
3 235 125 212
3 68 236 237
3 79 48 234
3 56 219 216
3 71 238 51
3 237 153 80
3 203 239 240
3 240 241 95
3 237 66 68
3 239 96 241
3 242 243 244
3 53 93 69
3 122 176 120
3 223 231 221
3 27 57 31
3 99 175 161
3 245 246 18
3 116 172 247
3 218 220 54
3 103 163 248
3 249 169 250
3 248 165 104
3 104 164 105
3 250 251 227
3 173 252 115
3 64 253 177
3 253 167 178
3 215 183 185
3 117 247 171
3 254 255 256
3 11 75 140
3 192 213 90
3 257 258 85
3 135 123 235
3 259 260 261
3 17 262 245
3 262 179 246
3 154 88 257
3 263 264 265
3 74 226 72
3 2 188 43
3 226 41 72
3 228 170 249
3 0 21 1
3 3 139 4
3 6 266 7
3 9 16 10
3 12 162 13
3 15 76 16
3 17 245 18
3 20 44 21
3 22 267 23
3 25 58 26
3 28 142 29
3 31 57 32
3 34 268 35
3 37 269 38
3 40 73 41
3 43 188 44
3 45 211 46
3 48 78 49
3 51 238 52
3 54 220 55
3 57 26 58
3 59 114 60
3 62 167 63
3 27 31 33
3 65 113 59
3 66 81 67
3 69 93 70
3 72 41 73
3 75 10 16
3 77 49 78
3 80 153 81
3 82 206 83
3 85 258 86
3 86 258 88
3 90 213 91
3 52 238 70
3 64 177 94
3 95 241 96
3 14 13 98
3 100 270 101
3 103 248 104
3 106 159 107
3 109 50 49
3 110 271 111
3 113 201 114
3 115 252 116
3 84 83 118
3 120 131 121
3 123 134 124
3 126 272 127
3 122 121 129
3 129 121 131
3 133 124 134
3 136 224 137
3 47 46 139
3 140 75 76
3 141 195 142
3 143 148 144
3 145 144 146
3 146 144 148
3 150 273 151
3 153 236 67
3 87 86 89
3 155 274 156
3 158 107 159
3 161 175 162
3 163 166 164
3 105 164 166
3 94 178 167
3 168 251 169
3 171 247 172
3 19 179 174
3 12 14 99
3 13 162 175
3 130 129 132
3 177 253 178
3 18 246 179
3 180 224 136
3 182 186 183
3 185 183 186
3 79 234 109
3 188 1 21
3 92 91 189
3 190 189 191
3 33 32 58
3 147 146 149
3 194 207 195
3 160 159 106
3 197 275 198
3 200 108 107
3 196 106 108
3 176 132 131
3 201 208 60
3 65 208 201
3 97 96 202
3 119 118 204
3 205 204 206
3 30 29 207
3 118 83 206
3 61 60 208
3 209 138 137
3 4 139 46
3 212 125 124
3 213 191 189
3 187 186 182
3 181 136 138
3 2 43 20
3 29 142 195
3 5 4 211
3 214 182 184
3 216 219 217
3 160 196 200
3 56 216 218
3 219 55 220
3 221 233 222
3 210 137 224
3 225 40 42
3 74 73 40
3 227 251 168
3 229 232 230
3 232 222 233
3 231 230 233
3 193 149 148
3 223 222 232
3 234 48 50
3 235 123 125
3 68 67 236
3 79 78 48
3 56 55 219
3 71 70 238
3 237 236 153
3 203 202 239
3 240 239 241
3 237 80 66
3 239 202 96
3 242 276 243
3 53 52 93
3 122 130 176
3 223 229 231
3 27 26 57
3 99 98 175
3 245 262 246
3 116 252 172
3 218 217 220
3 103 166 163
3 249 170 169
3 248 163 165
3 104 165 164
3 250 169 251
3 173 172 252
3 64 63 253
3 253 63 167
3 215 184 183
3 117 116 247
3 254 277 255
3 11 10 75
3 192 191 213
3 257 88 258
3 135 134 123
3 259 278 260
3 17 174 262
3 262 174 179
3 154 89 88
3 263 279 264
3 74 225 226
3 2 1 188
3 226 42 41
3 228 168 170
