ply
format ascii 1.0
comment Created by Blender 2.79 (sub 0) - www.blender.org, source file: ''
element vertex 280
property float x
property float y
property float z
property uchar red
property uchar green
property uchar blue
element face 336
property list uchar uint vertex_indices
end_header
-0.395000 -0.365000 0.025000 255 0 0
-0.395000 -0.400000 -0.025000 255 0 0
-0.395000 -0.365000 -0.025000 255 0 0
0.455000 -0.365000 0.455000 255 0 0
0.505000 -0.400000 0.455000 255 0 0
0.505000 -0.365000 0.455000 255 0 0
-0.015000 -0.365000 -0.015000 255 0 0
-0.015000 -0.400000 -0.065000 255 0 0
-0.015000 -0.365000 -0.065000 255 0 0
-0.025000 -0.375000 -0.055000 255 0 0
-0.055000 -0.375000 -0.025000 255 0 0
-0.025000 -0.375000 -0.025000 255 0 0
-0.225000 -0.365000 -0.225000 0 0 255
-0.275000 -0.365000 -0.175000 0 0 255
-0.225000 -0.365000 -0.175000 0 0 255
-0.265000 -0.500000 -0.215000 255 0 0
-0.235000 -0.500000 -0.185000 255 0 0
-0.265000 -0.500000 -0.185000 255 0 0
0.255000 -0.375000 0.345000 255 0 0
0.285000 -0.500000 0.345000 255 0 0
0.285000 -0.375000 0.345000 255 0 0
0.175000 -0.400000 -0.325000 255 0 0
0.225000 -0.400000 -0.275000 255 0 0
0.175000 -0.400000 -0.275000 255 0 0
0.405000 -0.375000 -0.425000 255 0 0
0.375000 -0.500000 -0.425000 255 0 0
0.375000 -0.375000 -0.425000 255 0 0
0.015000 -0.375000 0.375000 255 0 0
0.015000 -0.500000 0.345000 255 0 0
0.015000 -0.375000 0.345000 255 0 0
-0.195000 -0.365000 0.175000 255 0 0
-0.245000 -0.400000 0.175000 255 0 0
-0.245000 -0.365000 0.175000 255 0 0
-0.195000 -0.400000 0.225000 255 0 0
-0.245000 -0.400000 0.225000 255 0 0
-0.025000 -0.365000 -0.435000 255 0 0
-0.025000 -0.400000 -0.385000 255 0 0
-0.025000 -0.365000 -0.385000 255 0 0
-0.375000 -0.365000 0.375000 255 0 0
-0.425000 -0.400000 0.375000 255 0 0
-0.425000 -0.365000 0.375000 255 0 0
-0.415000 -0.500000 0.385000 255 0 0
-0.385000 -0.500000 0.415000 255 0 0
-0.415000 -0.500000 0.415000 255 0 0
-0.055000 -0.375000 -0.055000 255 0 0
-0.055000 -0.500000 -0.025000 255 0 0
0.215000 -0.375000 0.115000 255 0 0
0.215000 -0.500000 0.085000 255 0 0
0.215000 -0.375000 0.085000 255 0 0
-0.405000 -0.375000 -0.015000 255 0 0
-0.435000 -0.375000 0.015000 255 0 0
-0.405000 -0.375000 0.015000 255 0 0
-0.425000 -0.365000 0.425000 255 0 0
-0.375000 -0.400000 0.425000 255 0 0
-0.375000 -0.365000 0.425000 255 0 0
0.375000 -0.375000 -0.395000 255 0 0
0.405000 -0.500000 -0.395000 255 0 0
0.405000 -0.375000 -0.395000 255 0 0
0.405000 -0.500000 -0.425000 255 0 0
0.345000 -0.365000 -0.105000 255 0 0
0.345000 -0.400000 -0.055000 255 0 0
0.345000 -0.365000 -0.055000 255 0 0
-0.195000 -0.365000 0.175000 0 0 255
-0.245000 -0.365000 0.225000 0 0 255
-0.195000 -0.365000 0.225000 0 0 255
0.505000 -0.365000 0.405000 0 0 255
0.455000 -0.365000 0.455000 0 0 255
0.505000 -0.365000 0.455000 0 0 255
-0.435000 -0.500000 -0.015000 255 0 0
-0.435000 -0.375000 -0.015000 255 0 0
-0.385000 -0.375000 0.415000 255 0 0
-0.385000 -0.500000 0.385000 255 0 0
-0.385000 -0.375000 0.385000 255 0 0
-0.405000 -0.365000 -0.335000 255 0 0
-0.405000 -0.400000 -0.385000 255 0 0
-0.405000 -0.365000 -0.385000 255 0 0
-0.415000 -0.375000 -0.375000 255 0 0
-0.445000 -0.375000 -0.345000 255 0 0
-0.415000 -0.375000 -0.345000 255 0 0
-0.415000 -0.500000 -0.345000 255 0 0
0.185000 -0.500000 0.085000 255 0 0
0.185000 -0.375000 0.085000 255 0 0
-0.455000 -0.400000 -0.385000 255 0 0
-0.455000 -0.365000 -0.385000 255 0 0
0.225000 -0.365000 -0.325000 255 0 0
0.175000 -0.365000 -0.325000 255 0 0
0.225000 -0.365000 -0.275000 255 0 0
0.225000 -0.400000 -0.325000 255 0 0
0.285000 -0.375000 0.315000 255 0 0
-0.445000 -0.400000 -0.025000 255 0 0
-0.395000 -0.400000 0.025000 255 0 0
-0.445000 -0.400000 0.025000 255 0 0
0.395000 -0.400000 -0.055000 255 0 0
0.395000 -0.365000 -0.055000 255 0 0
0.215000 -0.375000 -0.315000 255 0 0
0.185000 -0.375000 -0.285000 255 0 0
0.215000 -0.375000 -0.285000 255 0 0
0.245000 -0.400000 0.305000 255 0 0
0.295000 -0.400000 0.355000 255 0 0
0.245000 -0.400000 0.355000 255 0 0
0.025000 -0.365000 0.335000 0 0 255
-0.025000 -0.365000 0.385000 0 0 255
0.025000 -0.365000 0.385000 0 0 255
-0.015000 -0.500000 0.345000 255 0 0
0.015000 -0.500000 0.375000 255 0 0
-0.015000 -0.500000 0.375000 255 0 0
0.245000 -0.365000 0.355000 255 0 0
0.295000 -0.365000 0.355000 255 0 0
-0.015000 -0.375000 0.375000 255 0 0
-0.415000 -0.375000 0.385000 255 0 0
-0.375000 -0.400000 0.375000 255 0 0
0.465000 -0.375000 0.415000 255 0 0
0.465000 -0.500000 0.445000 255 0 0
0.465000 -0.375000 0.445000 255 0 0
0.495000 -0.375000 0.415000 255 0 0
0.465000 -0.500000 0.415000 255 0 0
-0.445000 -0.375000 -0.375000 255 0 0
-0.445000 -0.500000 -0.345000 255 0 0
-0.445000 -0.500000 -0.375000 255 0 0
-0.025000 -0.365000 0.385000 255 0 0
0.025000 -0.400000 0.385000 255 0 0
0.025000 -0.365000 0.385000 255 0 0
-0.405000 -0.500000 0.015000 255 0 0
-0.435000 -0.500000 0.015000 255 0 0
-0.235000 -0.375000 -0.215000 255 0 0
-0.265000 -0.375000 -0.185000 255 0 0
-0.235000 -0.375000 -0.185000 255 0 0
0.415000 -0.365000 -0.385000 255 0 0
0.415000 -0.400000 -0.435000 255 0 0
0.415000 -0.365000 -0.435000 255 0 0
-0.455000 -0.365000 -0.335000 255 0 0
-0.405000 -0.400000 -0.335000 255 0 0
-0.065000 -0.400000 -0.065000 255 0 0
-0.065000 -0.365000 -0.065000 255 0 0
0.355000 -0.500000 -0.095000 255 0 0
0.385000 -0.500000 -0.065000 255 0 0
0.355000 -0.500000 -0.065000 255 0 0
-0.225000 -0.365000 -0.225000 255 0 0
-0.275000 -0.400000 -0.225000 255 0 0
-0.275000 -0.365000 -0.225000 255 0 0
-0.225000 -0.400000 -0.175000 255 0 0
-0.275000 -0.400000 -0.175000 255 0 0
-0.275000 -0.365000 -0.175000 255 0 0
-0.265000 -0.375000 -0.215000 255 0 0
-0.455000 -0.400000 -0.335000 255 0 0
-0.055000 -0.500000 -0.055000 255 0 0
0.015000 -0.375000 -0.425000 255 0 0
-0.015000 -0.500000 -0.425000 255 0 0
-0.015000 -0.375000 -0.425000 255 0 0
-0.015000 -0.500000 -0.395000 255 0 0
-0.015000 -0.375000 -0.395000 255 0 0
0.025000 -0.365000 -0.385000 255 0 0
0.025000 -0.400000 -0.435000 255 0 0
0.025000 -0.365000 -0.435000 255 0 0
0.015000 -0.500000 -0.395000 255 0 0
0.015000 -0.375000 -0.395000 255 0 0
0.015000 -0.500000 -0.425000 255 0 0
0.255000 -0.500000 0.315000 255 0 0
0.255000 -0.375000 0.315000 255 0 0
-0.235000 -0.375000 0.185000 255 0 0
-0.235000 -0.500000 0.215000 255 0 0
-0.235000 -0.375000 0.215000 255 0 0
-0.405000 -0.500000 -0.015000 255 0 0
-0.015000 -0.375000 0.345000 255 0 0
-0.065000 -0.400000 -0.015000 255 0 0
-0.065000 -0.365000 -0.015000 255 0 0
0.025000 -0.400000 0.335000 255 0 0
0.025000 -0.365000 0.335000 255 0 0
-0.375000 -0.365000 0.375000 0 0 255
-0.425000 -0.365000 0.425000 0 0 255
-0.375000 -0.365000 0.425000 0 0 255
-0.025000 -0.500000 -0.025000 255 0 0
0.365000 -0.365000 -0.435000 255 0 0
0.365000 -0.400000 -0.385000 255 0 0
0.365000 -0.365000 -0.385000 255 0 0
0.395000 -0.400000 -0.105000 255 0 0
0.395000 -0.365000 -0.105000 255 0 0
-0.205000 -0.375000 0.185000 255 0 0
-0.235000 -0.500000 0.185000 255 0 0
-0.205000 -0.500000 0.215000 255 0 0
-0.205000 -0.375000 0.215000 255 0 0
-0.415000 -0.375000 0.415000 255 0 0
-0.425000 -0.400000 0.425000 255 0 0
-0.405000 -0.365000 -0.385000 0 0 255
-0.455000 -0.365000 -0.335000 0 0 255
-0.405000 -0.365000 -0.335000 0 0 255
0.495000 -0.500000 0.445000 255 0 0
0.495000 -0.375000 0.445000 255 0 0
0.455000 -0.365000 0.405000 255 0 0
0.455000 -0.400000 0.455000 255 0 0
0.365000 -0.400000 -0.435000 255 0 0
0.415000 -0.400000 -0.385000 255 0 0
0.495000 -0.500000 0.415000 255 0 0
0.505000 -0.365000 0.405000 255 0 0
0.455000 -0.400000 0.405000 255 0 0
0.385000 -0.375000 -0.095000 255 0 0
0.355000 -0.375000 -0.095000 255 0 0
0.375000 -0.500000 -0.395000 255 0 0
-0.415000 -0.500000 -0.375000 255 0 0
0.225000 -0.365000 -0.325000 0 0 255
0.175000 -0.365000 -0.275000 0 0 255
0.225000 -0.365000 -0.275000 0 0 255
-0.015000 -0.400000 -0.015000 255 0 0
-0.235000 -0.500000 -0.215000 255 0 0
0.415000 -0.365000 -0.435000 0 0 255
0.365000 -0.365000 -0.385000 0 0 255
0.415000 -0.365000 -0.385000 0 0 255
0.505000 -0.400000 0.405000 255 0 0
0.385000 -0.375000 -0.065000 255 0 0
0.385000 -0.500000 -0.095000 255 0 0
0.175000 -0.365000 0.075000 255 0 0
0.175000 -0.400000 0.125000 255 0 0
0.175000 -0.365000 0.125000 255 0 0
-0.445000 -0.365000 0.025000 255 0 0
-0.025000 -0.400000 -0.435000 255 0 0
0.175000 -0.365000 -0.275000 255 0 0
0.255000 -0.500000 0.345000 255 0 0
-0.025000 -0.500000 -0.055000 255 0 0
-0.225000 -0.365000 -0.175000 255 0 0
-0.225000 -0.400000 -0.225000 255 0 0
0.225000 -0.365000 0.075000 255 0 0
0.175000 -0.400000 0.075000 255 0 0
-0.445000 -0.365000 -0.025000 255 0 0
-0.025000 -0.400000 0.335000 255 0 0
-0.025000 -0.365000 0.335000 255 0 0
-0.025000 -0.400000 0.385000 255 0 0
0.025000 -0.365000 -0.435000 0 0 255
-0.025000 -0.365000 -0.385000 0 0 255
0.025000 -0.365000 -0.385000 0 0 255
0.345000 -0.400000 -0.105000 255 0 0
0.215000 -0.500000 -0.315000 255 0 0
0.215000 -0.500000 -0.285000 255 0 0
0.185000 -0.375000 -0.315000 255 0 0
0.185000 -0.500000 -0.285000 255 0 0
0.185000 -0.500000 -0.315000 255 0 0
0.355000 -0.375000 -0.065000 255 0 0
0.395000 -0.365000 -0.105000 0 0 255
0.345000 -0.365000 -0.055000 0 0 255
0.395000 -0.365000 -0.055000 0 0 255
-0.015000 -0.365000 -0.065000 0 0 255
-0.065000 -0.365000 -0.015000 0 0 255
-0.015000 -0.365000 -0.015000 0 0 255
0.225000 -0.400000 0.125000 255 0 0
0.285000 -0.500000 0.315000 255 0 0
0.295000 -0.400000 0.305000 255 0 0
0.295000 -0.365000 0.305000 255 0 0
0.215000 -0.500000 0.115000 255 0 0
0.185000 -0.500000 0.115000 255 0 0
0.185000 -0.375000 0.115000 255 0 0
0.225000 -0.365000 0.125000 255 0 0
0.245000 -0.365000 0.305000 255 0 0
0.225000 -0.400000 0.075000 255 0 0
0.295000 -0.365000 0.305000 0 0 255
0.245000 -0.365000 0.355000 0 0 255
0.295000 -0.365000 0.355000 0 0 255
-0.245000 -0.365000 0.225000 255 0 0
-0.195000 -0.365000 0.225000 255 0 0
0.225000 -0.365000 0.075000 0 0 255
0.175000 -0.365000 0.125000 0 0 255
0.225000 -0.365000 0.125000 0 0 255
0.025000 -0.400000 -0.385000 255 0 0
-0.395000 -0.365000 -0.025000 0 0 255
-0.445000 -0.365000 0.025000 0 0 255
-0.395000 -0.365000 0.025000 0 0 255
-0.205000 -0.500000 0.185000 255 0 0
-0.195000 -0.400000 0.175000 255 0 0
-0.275000 -0.365000 -0.225000 0 0 255
-0.245000 -0.365000 0.175000 0 0 255
0.455000 -0.365000 0.405000 0 0 255
-0.025000 -0.365000 0.335000 0 0 255
-0.425000 -0.365000 0.375000 0 0 255
-0.455000 -0.365000 -0.385000 0 0 255
0.175000 -0.365000 -0.325000 0 0 255
0.365000 -0.365000 -0.435000 0 0 255
-0.025000 -0.365000 -0.435000 0 0 255
0.345000 -0.365000 -0.105000 0 0 255
-0.065000 -0.365000 -0.065000 0 0 255
0.245000 -0.365000 0.305000 0 0 255
0.175000 -0.365000 0.075000 0 0 255
-0.445000 -0.365000 -0.025000 0 0 255
3 0 1 2
3 3 4 5
3 6 7 8
3 9 10 11
3 12 13 14
3 15 16 17
3 18 19 20
3 21 22 23
3 24 25 26
3 27 28 29
3 30 31 32
3 31 33 34
3 35 36 37
3 38 39 40
3 41 42 43
3 44 45 10
3 46 47 48
3 49 50 51
3 52 53 54
3 55 56 57
3 24 55 57
3 57 58 24
3 59 60 61
3 62 63 64
3 65 66 67
3 49 68 69
3 70 71 72
3 73 74 75
3 76 77 78
3 77 79 78
3 48 80 81
3 75 82 83
3 84 21 85
3 86 87 84
3 88 18 20
3 89 90 91
3 61 92 93
3 94 95 96
3 97 98 99
3 100 101 102
3 103 104 105
3 106 98 107
3 29 108 27
3 72 41 109
3 54 110 38
3 111 112 113
3 114 115 111
3 116 117 77
3 76 118 116
3 119 120 121
3 68 122 123
3 124 125 126
3 127 128 129
3 130 131 73
3 8 132 133
3 134 135 136
3 137 138 139
3 138 140 141
3 139 141 142
3 124 15 143
3 83 144 130
3 9 145 44
3 146 147 148
3 148 149 150
3 151 152 153
3 150 154 155
3 155 156 146
3 88 157 158
3 159 160 161
3 51 162 49
3 29 103 163
3 108 104 27
3 133 164 165
3 121 166 167
3 168 169 170
3 145 171 45
3 172 173 174
3 93 175 176
3 50 122 51
3 177 178 159
3 161 179 180
3 109 43 181
3 72 181 70
3 40 182 52
3 181 42 70
3 183 184 185
3 163 105 108
3 113 186 187
3 188 189 3
3 115 186 112
3 190 191 173
3 187 192 114
3 114 113 187
3 193 194 188
3 194 4 189
3 195 134 196
3 25 56 197
3 39 53 182
3 78 198 76
3 147 154 149
3 199 200 201
3 165 202 6
3 126 203 124
3 204 205 206
3 26 197 55
3 5 207 193
3 174 191 127
3 208 209 195
3 210 211 212
3 213 90 0
3 153 214 35
3 85 23 215
3 129 190 172
3 158 216 18
3 10 171 11
3 11 217 9
3 125 16 126
3 218 219 137
3 142 140 218
3 220 221 210
3 2 89 222
3 167 223 224
3 146 150 155
3 132 202 164
3 224 225 119
3 226 227 228
3 176 229 59
3 96 230 94
3 95 231 96
3 232 233 95
3 94 234 232
3 234 231 233
3 215 22 86
3 118 79 117
3 235 135 208
3 157 19 216
3 236 237 238
3 239 240 241
3 221 242 211
3 20 243 88
3 69 123 50
3 107 244 245
3 80 246 247
3 48 248 46
3 212 242 249
3 248 246 46
3 81 247 248
3 223 120 225
3 245 97 250
3 249 251 220
3 250 99 106
3 196 136 235
3 143 17 125
3 252 253 254
3 255 33 256
3 257 258 259
3 214 260 36
3 261 262 263
3 195 235 208
3 32 34 255
3 180 264 177
3 178 179 160
3 256 265 30
3 177 161 180
3 229 92 60
3 82 131 144
3 222 91 213
3 37 260 151
3 0 90 1
3 3 189 4
3 6 202 7
3 9 44 10
3 12 266 13
3 15 203 16
3 18 216 19
3 21 87 22
3 24 58 25
3 27 104 28
3 30 265 31
3 31 265 33
3 35 214 36
3 38 110 39
3 41 71 42
3 44 145 45
3 46 246 47
3 49 69 50
3 52 182 53
3 55 197 56
3 24 26 55
3 57 56 58
3 59 229 60
3 62 267 63
3 65 268 66
3 49 162 68
3 70 42 71
3 73 131 74
3 76 116 77
3 77 117 79
3 48 47 80
3 75 74 82
3 84 87 21
3 86 22 87
3 88 158 18
3 89 1 90
3 61 60 92
3 94 232 95
3 97 244 98
3 100 269 101
3 103 28 104
3 106 99 98
3 29 163 108
3 72 71 41
3 54 53 110
3 111 115 112
3 114 192 115
3 116 118 117
3 76 198 118
3 119 225 120
3 68 162 122
3 124 143 125
3 127 191 128
3 130 144 131
3 8 7 132
3 134 209 135
3 137 219 138
3 138 219 140
3 139 138 141
3 124 203 15
3 83 82 144
3 9 217 145
3 146 156 147
3 148 147 149
3 151 260 152
3 150 149 154
3 155 154 156
3 88 243 157
3 159 178 160
3 51 122 162
3 29 28 103
3 108 105 104
3 133 132 164
3 121 120 166
3 168 270 169
3 145 217 171
3 172 190 173
3 93 92 175
3 50 123 122
3 177 264 178
3 161 160 179
3 109 41 43
3 72 109 181
3 40 39 182
3 181 43 42
3 183 271 184
3 163 103 105
3 113 112 186
3 188 194 189
3 115 192 186
3 190 128 191
3 187 186 192
3 114 111 113
3 193 207 194
3 194 207 4
3 195 209 134
3 25 58 56
3 39 110 53
3 78 79 198
3 147 156 154
3 199 272 200
3 165 164 202
3 126 16 203
3 204 273 205
3 26 25 197
3 5 4 207
3 174 173 191
3 208 135 209
3 210 221 211
3 213 91 90
3 153 152 214
3 85 21 23
3 129 128 190
3 158 157 216
3 10 45 171
3 11 171 217
3 125 17 16
3 218 140 219
3 142 141 140
3 220 251 221
3 2 1 89
3 167 166 223
3 146 148 150
3 132 7 202
3 224 223 225
3 226 274 227
3 176 175 229
3 96 231 230
3 95 233 231
3 232 234 233
3 94 230 234
3 234 230 231
3 215 23 22
3 118 198 79
3 235 136 135
3 157 243 19
3 236 275 237
3 239 276 240
3 221 251 242
3 20 19 243
3 69 68 123
3 107 98 244
3 80 47 246
3 48 81 248
3 212 211 242
3 248 247 246
3 81 80 247
3 223 166 120
3 245 244 97
3 249 242 251
3 250 97 99
3 196 134 136
3 143 15 17
3 252 277 253
3 255 34 33
3 257 278 258
3 214 152 260
3 261 279 262
3 195 196 235
3 32 31 34
3 180 179 264
3 178 264 179
3 256 33 265
3 177 159 161
3 229 175 92
3 82 74 131
3 222 89 91
3 37 36 260
