ply
format ascii 1.0
comment Created by Blender 2.79 (sub 0) - www.blender.org, source file: 'forge.blend'
element vertex 272
property float x
property float y
property float z
property float s
property float t
element face 188
property list uchar uint vertex_indices
end_header
-0.500000 0.414396 -0.107967 0.506384 1.209000
-0.500000 -0.000000 -0.884607 0.506384 1.853578
-0.730104 -0.000000 -0.867609 0.595864 1.853578
-0.528084 0.414396 -0.105892 0.517305 1.209000
-0.471916 0.414396 -0.105892 0.495463 0.547449
-0.500000 0.414396 -0.107967 0.506384 0.548525
-0.528084 0.414396 -0.105892 0.517305 0.547449
-0.555089 0.414396 -0.099748 0.527807 0.544264
-0.579977 0.414396 -0.089771 0.537485 0.539091
-0.601792 0.414396 -0.076344 0.545968 0.532129
-0.619695 0.414396 -0.059983 0.552929 0.523646
-0.632997 0.414396 -0.041317 0.558103 0.513968
-0.641189 0.414396 -0.021063 0.561288 0.503466
-0.643955 0.414396 -0.000000 0.562364 0.492545
-0.641189 0.414396 0.021063 0.561288 0.481624
-0.632997 0.414396 0.041317 0.558103 0.471123
-0.619695 0.414396 0.059983 0.552929 0.461445
-0.601792 0.414396 0.076344 0.545968 0.452962
-0.579977 0.414396 0.089771 0.537485 0.446000
-0.555089 0.414396 0.099748 0.527807 0.440827
-0.528084 0.414396 0.105892 0.517305 0.437642
-0.500000 0.414396 0.107966 0.506384 0.436566
-0.471916 0.414396 0.105892 0.495463 0.437642
-0.444911 0.414396 0.099748 0.484962 0.440827
-0.420023 0.414396 0.089771 0.475284 0.446000
-0.398208 0.414396 0.076344 0.466801 0.452962
-0.380306 0.414396 0.059983 0.459839 0.461445
-0.367003 0.414396 0.041317 0.454666 0.471123
-0.358811 0.414396 0.021063 0.451481 0.481625
-0.356045 0.414396 -0.000000 0.450405 0.492545
-0.358811 0.414396 -0.021063 0.451481 0.503467
-0.367003 0.414396 -0.041317 0.454666 0.513968
-0.380306 0.414396 -0.059983 0.459839 0.523646
-0.398208 0.414396 -0.076344 0.466801 0.532129
-0.420023 0.414396 -0.089771 0.475284 0.539091
-0.444911 0.414396 -0.099748 0.484962 0.544264
-0.471916 0.414396 -0.105892 0.495463 1.209000
-0.269898 -0.000000 -0.867609 0.416905 1.853578
-0.730104 -0.000000 -0.867609 0.595864 0.942391
-0.500000 -0.000000 -0.884607 0.506384 0.951204
-0.269898 -0.000000 -0.867609 0.416905 0.942391
-0.048636 -0.000000 -0.817270 0.330864 0.916291
0.155280 -0.000000 -0.735524 0.251568 0.873906
0.334014 -0.000000 -0.625512 0.182064 0.816866
0.480697 -0.000000 -0.491462 0.125024 0.747363
0.589693 -0.000000 -0.338525 0.082639 0.668067
0.656812 -0.000000 -0.172579 0.056539 0.582026
0.679476 0.000000 -0.000001 0.047726 0.492546
0.225049 0.000000 -0.000000 0.224437 0.492546
0.211117 0.000000 -0.097247 0.229855 0.542967
-1.155281 -0.000000 -0.735524 0.761201 0.873906
-0.951366 -0.000000 -0.817270 0.681905 0.916291
-1.480698 -0.000000 -0.491461 0.887745 0.747362
-1.334015 -0.000000 -0.625511 0.830705 0.816866
-1.656812 -0.000000 -0.172578 0.956230 0.582025
-1.589693 -0.000000 -0.338524 0.930129 0.668066
-1.656812 0.000000 0.172578 0.956230 0.403066
-1.679475 0.000000 -0.000000 0.965043 0.492545
-1.480698 0.000000 0.491461 0.887745 0.237728
-1.589693 0.000000 0.338524 0.930129 0.317024
-1.211117 0.000000 -0.097247 0.782914 0.542967
-1.225049 0.000000 -0.000000 0.788332 0.492545
-1.169858 -0.000000 -0.190757 0.766870 0.591451
0.169858 -0.000000 -0.190757 0.245899 0.591451
0.102856 -0.000000 -0.276936 0.271954 0.636134
0.012686 -0.000000 -0.352473 0.307018 0.675299
-1.102856 -0.000000 -0.276936 0.740815 0.636133
-1.012687 -0.000000 -0.352472 0.705751 0.675298
-0.097185 -0.000000 -0.414464 0.349743 0.707440
-0.222537 -0.000000 -0.460528 0.398488 0.731324
-0.902816 -0.000000 -0.414464 0.663026 0.707440
-0.777464 -0.000000 -0.460527 0.614281 0.731324
-0.358551 -0.000000 -0.488893 0.451380 0.746031
-0.641450 -0.000000 -0.488893 0.561389 0.746031
-0.500000 -0.000000 -0.498471 0.506384 0.750997
-1.334015 0.000000 0.625511 0.830705 0.168225
-1.211118 0.000000 0.097247 0.782914 0.442124
-0.951365 0.000000 0.817270 0.681905 0.068800
-1.155281 0.000000 0.735524 0.761201 0.111185
-0.500000 0.000000 0.884607 0.506384 0.033887
-0.730104 0.000000 0.867609 0.595864 0.042700
-0.048634 0.000000 0.817270 0.330863 0.068800
-0.269895 0.000000 0.867609 0.416904 0.042700
0.334016 0.000000 0.625511 0.182064 0.168225
0.155282 0.000000 0.735523 0.251567 0.111185
0.589694 0.000000 0.338524 0.082639 0.317025
0.480698 0.000000 0.491461 0.125023 0.237729
0.656812 0.000000 0.172578 0.056539 0.403066
0.211118 0.000000 0.097247 0.229854 0.442124
0.169858 0.000000 0.190756 0.245899 0.393640
-1.169858 0.000000 0.190757 0.766870 0.393640
-1.102856 0.000000 0.276936 0.740815 0.348957
0.102857 0.000000 0.276936 0.271954 0.348957
-1.012687 0.000000 0.352472 0.705751 0.309792
-0.902816 0.000000 0.414464 0.663026 0.277651
0.012687 0.000000 0.352472 0.307017 0.309793
-0.097184 0.000000 0.414464 0.349743 0.277651
-0.777464 0.000000 0.460528 0.614281 0.253767
-0.641450 0.000000 0.488893 0.561389 0.239060
-0.222535 0.000000 0.460527 0.398488 0.253767
-0.358550 0.000000 0.488893 0.451379 0.239060
-0.500000 0.000000 0.498471 0.506384 0.234094
-0.951366 -0.000000 -0.817270 0.681905 1.853578
-0.555089 0.414396 -0.099748 0.527807 1.209000
-1.155281 -0.000000 -0.735524 0.761201 1.853578
-0.579977 0.414396 -0.089771 0.537485 1.209000
-1.334015 -0.000000 -0.625511 0.830705 1.853578
-0.601792 0.414396 -0.076344 0.545968 1.209000
-0.601792 0.414396 -0.076344 0.157101 1.209000
-1.334015 -0.000000 -0.625511 0.441838 1.853578
-1.480698 -0.000000 -0.491461 0.372335 1.853578
-0.619695 0.414396 -0.059983 0.148618 1.209000
-1.589693 -0.000000 -0.338524 0.293039 1.853578
-0.632997 0.414396 -0.041317 0.138940 1.209000
-1.656812 -0.000000 -0.172578 0.206998 1.853578
-0.641189 0.414396 -0.021063 0.128439 1.209000
-1.679475 0.000000 -0.000000 0.117518 1.853578
-0.643955 0.414396 -0.000000 0.117518 1.209000
-1.656812 0.000000 0.172578 0.028038 1.853578
-0.641189 0.414396 0.021063 0.106597 1.209000
-1.589693 0.000000 0.338524 -0.058003 1.853578
-0.632997 0.414396 0.041317 0.096096 1.209000
-1.480698 0.000000 0.491461 -0.137299 1.853578
-0.619695 0.414396 0.059983 0.086417 1.209000
-1.334015 0.000000 0.625511 -0.206803 1.853578
-0.601792 0.414396 0.076344 0.077934 1.209000
-0.601792 0.414396 0.076344 0.545968 1.209000
-1.334015 0.000000 0.625511 0.830705 1.853578
-1.155281 0.000000 0.735524 0.761201 1.853578
-0.579977 0.414396 0.089771 0.537485 1.209000
-0.951365 0.000000 0.817270 0.681905 1.853578
-0.555089 0.414396 0.099748 0.527807 1.209000
-0.730104 0.000000 0.867609 0.595864 1.853578
-0.528084 0.414396 0.105892 0.517305 1.209000
-0.500000 0.000000 0.884607 0.506384 1.853578
-0.500000 0.414396 0.107966 0.506384 1.209000
-0.269895 0.000000 0.867609 0.416904 1.853578
-0.471916 0.414396 0.105892 0.495463 1.209000
-0.048634 0.000000 0.817270 0.330863 1.853578
-0.444911 0.414396 0.099748 0.484962 1.209000
0.155282 0.000000 0.735523 0.251567 1.853578
-0.420023 0.414396 0.089771 0.475284 1.209000
0.334016 0.000000 0.625511 0.182063 1.853578
-0.398208 0.414396 0.076344 0.466801 1.209000
-0.398208 0.414396 0.076344 0.077934 1.209000
0.334016 0.000000 0.625511 -0.206803 1.853578
0.480698 0.000000 0.491461 -0.137299 1.853578
-0.380306 0.414396 0.059983 0.086417 1.209000
0.589694 0.000000 0.338524 -0.058003 1.853578
-0.367003 0.414396 0.041317 0.096096 1.209000
0.656812 0.000000 0.172578 0.028038 1.853578
-0.358811 0.414396 0.021063 0.106597 1.209000
0.679476 0.000000 -0.000001 0.117518 1.853578
-0.356045 0.414396 -0.000000 0.117518 1.209000
0.656812 -0.000000 -0.172579 0.206998 1.853578
-0.358811 0.414396 -0.021063 0.128439 1.209000
0.589693 -0.000000 -0.338525 0.293039 1.853578
-0.367003 0.414396 -0.041317 0.138940 1.209000
0.480697 -0.000000 -0.491462 0.372335 1.853578
-0.380306 0.414396 -0.059983 0.148618 1.209000
0.334014 -0.000000 -0.625512 0.441839 1.853578
-0.398208 0.414396 -0.076344 0.157101 1.209000
-0.398208 0.414396 -0.076344 0.466801 1.209000
0.334014 -0.000000 -0.625512 0.182064 1.853578
0.155280 -0.000000 -0.735524 0.251568 1.853578
-0.420023 0.414396 -0.089771 0.475284 1.209000
-0.048636 -0.000000 -0.817270 0.330864 1.853578
-0.444911 0.414396 -0.099748 0.484962 1.209000
-0.641450 -0.000000 -0.488893 0.561389 0.298112
-0.500000 -0.000000 -0.498471 0.506384 0.298112
-0.500000 0.385605 -0.079176 0.506384 -0.301682
-0.522467 0.385605 -0.077654 0.515121 -0.301683
-0.777464 -0.000000 -0.460527 0.614281 0.298112
-0.544071 0.385605 -0.073149 0.523522 -0.301683
-0.522467 0.385605 -0.077654 0.515121 0.532808
-0.500000 0.385605 -0.079176 0.506384 0.533597
-0.477533 0.385605 -0.077654 0.497647 0.532808
-0.455929 0.385605 -0.073149 0.489246 0.530472
-0.436018 0.385605 -0.065832 0.481504 0.526679
-0.418567 0.385605 -0.055986 0.474718 0.521573
-0.404245 0.385605 -0.043988 0.469148 0.515352
-0.393602 0.385605 -0.030299 0.465010 0.508255
-0.387049 0.385605 -0.015447 0.462461 0.500554
-0.384836 0.385605 -0.000000 0.461601 0.492545
-0.387049 0.385605 0.015446 0.462461 0.484537
-0.393602 0.385605 0.030299 0.465010 0.476836
-0.404244 0.385605 0.043987 0.469148 0.469738
-0.418567 0.385605 0.055985 0.474718 0.463518
-0.436018 0.385605 0.065832 0.481504 0.458412
-0.455929 0.385605 0.073148 0.489246 0.454619
-0.477533 0.385605 0.077654 0.497647 0.452283
-0.500000 0.385605 0.079175 0.506384 0.451494
-0.522467 0.385605 0.077654 0.515121 0.452283
-0.544071 0.385605 0.073148 0.523522 0.454619
-0.563982 0.385605 0.065832 0.531265 0.458412
-0.581433 0.385605 0.055985 0.538051 0.463518
-0.595756 0.385605 0.043987 0.543620 0.469738
-0.606398 0.385605 0.030299 0.547759 0.476836
-0.612951 0.385605 0.015446 0.550307 0.484537
-0.615164 0.385605 -0.000000 0.551168 0.492545
-0.612951 0.385605 -0.015447 0.550307 0.500554
-0.606398 0.385605 -0.030299 0.547759 0.508255
-0.595756 0.385605 -0.043988 0.543620 0.515352
-0.581433 0.385605 -0.055986 0.538051 0.521573
-0.563982 0.385605 -0.065832 0.531265 0.526679
-0.544071 0.385605 -0.073149 0.523522 0.530472
-0.358551 -0.000000 -0.488893 0.451379 0.298112
-0.477533 0.385605 -0.077654 0.497647 -0.301683
-0.902816 -0.000000 -0.414464 0.663026 0.298112
-0.563982 0.385605 -0.065832 0.531265 -0.301683
-1.012687 -0.000000 -0.352472 0.705751 0.298112
-0.581433 0.385605 -0.055986 0.538051 -0.301683
-1.102856 -0.000000 -0.276936 0.261106 0.298112
-1.012687 -0.000000 -0.352472 0.300271 0.298112
-0.581433 0.385605 -0.055986 0.146546 -0.301683
-0.595756 0.385605 -0.043988 0.140325 -0.301683
-1.169858 -0.000000 -0.190757 0.216423 0.298112
-0.606398 0.385605 -0.030299 0.133228 -0.301683
-1.211117 0.000000 -0.097247 0.167939 0.298112
-0.612951 0.385605 -0.015447 0.125527 -0.301683
-1.225049 0.000000 -0.000000 0.117518 0.298112
-0.615164 0.385605 -0.000000 0.117518 -0.301683
-1.211118 0.000000 0.097247 0.067096 0.298112
-0.612951 0.385605 0.015446 0.109509 -0.301683
-1.169858 0.000000 0.190757 0.018613 0.298112
-0.606398 0.385605 0.030299 0.101808 -0.301683
-1.102856 0.000000 0.276936 -0.026070 0.298112
-0.595756 0.385605 0.043987 0.094711 -0.301683
-1.012687 0.000000 0.352472 -0.065235 0.298112
-0.581433 0.385605 0.055985 0.088490 -0.301683
-0.902816 0.000000 0.414464 0.663026 0.298112
-1.012687 0.000000 0.352472 0.705751 0.298112
-0.581433 0.385605 0.055985 0.538051 -0.301683
-0.563982 0.385605 0.065832 0.531265 -0.301683
-0.777464 0.000000 0.460528 0.614281 0.298112
-0.544071 0.385605 0.073148 0.523522 -0.301683
-0.641450 0.000000 0.488893 0.561389 0.298112
-0.522467 0.385605 0.077654 0.515121 -0.301683
-0.500000 0.000000 0.498471 0.506384 0.298112
-0.500000 0.385605 0.079175 0.506384 -0.301682
-0.358550 0.000000 0.488893 0.451379 0.298112
-0.477533 0.385605 0.077654 0.497647 -0.301683
-0.222535 0.000000 0.460527 0.398488 0.298112
-0.455929 0.385605 0.073148 0.489246 -0.301683
-0.097184 0.000000 0.414464 0.349743 0.298112
-0.436018 0.385605 0.065832 0.481504 -0.301683
0.012687 0.000000 0.352472 0.307017 0.298112
-0.418567 0.385605 0.055985 0.474717 -0.301683
0.102857 0.000000 0.276936 -0.026070 0.298112
0.012687 0.000000 0.352472 -0.065235 0.298112
-0.418567 0.385605 0.055985 0.088490 -0.301683
-0.404244 0.385605 0.043987 0.094711 -0.301683
0.169858 0.000000 0.190756 0.018613 0.298112
-0.393602 0.385605 0.030299 0.101808 -0.301683
0.211118 0.000000 0.097247 0.067096 0.298112
-0.387049 0.385605 0.015446 0.109509 -0.301683
0.225049 0.000000 -0.000000 0.117518 0.298112
-0.384836 0.385605 -0.000000 0.117518 -0.301683
0.211117 0.000000 -0.097247 0.167939 0.298112
-0.387049 0.385605 -0.015447 0.125527 -0.301683
0.169858 -0.000000 -0.190757 0.216423 0.298112
-0.393602 0.385605 -0.030299 0.133228 -0.301683
0.102856 -0.000000 -0.276936 0.261106 0.298112
-0.404245 0.385605 -0.043988 0.140325 -0.301683
0.012686 -0.000000 -0.352473 0.300271 0.298112
-0.418567 0.385605 -0.055986 0.146546 -0.301683
-0.097185 -0.000000 -0.414464 0.349743 0.298112
0.012686 -0.000000 -0.352473 0.307018 0.298112
-0.418567 0.385605 -0.055986 0.474717 -0.301683
-0.436018 0.385605 -0.065832 0.481504 -0.301683
-0.222537 -0.000000 -0.460528 0.398488 0.298112
-0.455929 0.385605 -0.073149 0.489246 -0.301683
4 0 1 2 3
3 4 5 6
3 6 7 8
3 8 9 10
3 10 11 12
3 12 13 14
3 14 15 16
3 16 17 18
3 18 19 20
3 20 21 22
3 22 23 24
3 24 25 26
3 26 27 28
3 28 29 30
3 30 31 32
3 32 33 34
3 34 35 4
3 4 6 8
3 8 10 12
3 12 14 16
3 16 18 20
3 20 22 24
3 24 26 28
3 28 30 32
3 32 34 4
3 4 8 12
3 12 16 20
3 20 24 28
3 28 32 4
3 4 12 20
3 20 28 4
4 1 0 36 37
3 38 39 40
3 40 41 42
3 42 43 44
3 44 45 46
3 46 47 48
3 46 48 49
3 42 44 46
3 38 40 42
3 50 51 38
3 52 53 50
3 54 55 52
3 56 57 54
3 58 59 56
3 60 61 58
3 62 60 58
3 58 56 54
3 54 52 50
3 50 38 42
3 42 46 49
3 42 49 63
3 58 54 50
3 62 58 50
3 42 63 64
3 42 64 65
3 66 62 50
3 67 66 50
3 42 65 68
3 42 68 69
3 70 67 50
3 71 70 50
3 50 42 69
3 50 69 72
3 73 71 50
3 50 72 74
3 74 73 50
3 75 58 61
3 75 61 76
3 77 78 75
3 79 80 77
3 81 82 79
3 83 84 81
3 85 86 83
3 47 87 85
3 88 48 47
3 89 88 47
3 47 85 83
3 83 81 79
3 79 77 75
3 75 76 90
3 75 90 91
3 83 79 75
3 89 47 83
3 92 89 83
3 75 91 93
3 75 93 94
3 95 92 83
3 96 95 83
3 75 94 97
3 75 97 98
3 99 96 83
3 100 99 83
3 83 75 98
3 101 100 83
3 98 101 83
4 3 2 102 103
4 103 102 104 105
4 105 104 106 107
4 108 109 110 111
4 111 110 112 113
4 113 112 114 115
4 115 114 116 117
4 117 116 118 119
4 119 118 120 121
4 121 120 122 123
4 123 122 124 125
4 126 127 128 129
4 129 128 130 131
4 131 130 132 133
4 133 132 134 135
4 135 134 136 137
4 137 136 138 139
4 139 138 140 141
4 141 140 142 143
4 144 145 146 147
4 147 146 148 149
4 149 148 150 151
4 151 150 152 153
4 153 152 154 155
4 155 154 156 157
4 157 156 158 159
4 159 158 160 161
4 162 163 164 165
4 165 164 166 167
4 167 166 37 36
4 168 169 170 171
4 172 168 171 173
3 174 175 176
3 176 177 178
3 178 179 180
3 180 181 182
3 182 183 184
3 184 185 186
3 186 187 188
3 188 189 190
3 190 191 192
3 192 193 194
3 194 195 196
3 196 197 198
3 198 199 200
3 200 201 202
3 202 203 204
3 204 205 174
3 174 176 178
3 178 180 182
3 182 184 186
3 186 188 190
3 190 192 194
3 194 196 198
3 198 200 202
3 202 204 174
3 174 178 182
3 182 186 190
3 190 194 198
3 198 202 174
3 174 182 190
3 190 198 174
4 169 206 207 170
4 208 172 173 209
4 210 208 209 211
4 212 213 214 215
4 216 212 215 217
4 218 216 217 219
4 220 218 219 221
4 222 220 221 223
4 224 222 223 225
4 226 224 225 227
4 228 226 227 229
4 230 231 232 233
4 234 230 233 235
4 236 234 235 237
4 238 236 237 239
4 240 238 239 241
4 242 240 241 243
4 244 242 243 245
4 246 244 245 247
4 248 249 250 251
4 252 248 251 253
4 254 252 253 255
4 256 254 255 257
4 258 256 257 259
4 260 258 259 261
4 262 260 261 263
4 264 262 263 265
4 266 267 268 269
4 270 266 269 271
4 206 270 271 207
