ply
format ascii 1.0
comment Created by Blender 2.79 (sub 0) - www.blender.org, source file: 'forge.blend'
element vertex 300
property float x
property float y
property float z
property float s
property float t
property uchar red
property uchar green
property uchar blue
element face 268
property list uchar uint vertex_indices
end_header
0.500000 1.000000 0.724845 0.498450 1.753017 255 0 0
0.279802 -0.500000 0.830259 0.598364 -0.061967 255 0 0
0.500000 -0.500000 0.846525 0.498450 -0.061967 255 0 0
-0.607012 -0.500000 0.165149 1.000752 0.605130 255 0 0
0.279802 -0.500000 -0.830259 0.598364 0.002913 255 0 0
1.607013 -0.500000 -0.165148 -0.003853 0.405302 255 0 0
0.688546 1.000000 0.710918 0.412898 1.753017 255 0 0
0.720197 -0.500000 0.830259 0.398536 -0.061967 255 0 0
1.036935 1.000000 0.602687 0.254818 0.869838 255 0 0
0.929548 1.000000 0.441971 0.303544 0.772605 255 0 0
0.795878 1.000000 0.491091 0.364197 0.802323 255 0 0
0.300000 0.500000 0.750493 0.589199 1.148022 255 0 0
0.068065 -0.500000 0.782087 0.694439 -0.061967 255 0 0
-0.127072 -0.500000 0.703860 0.782982 -0.061967 255 0 0
0.109456 0.500000 0.707142 0.675658 1.148022 255 0 0
-0.066982 0.500000 0.636411 0.755716 1.148022 255 0 0
-0.298112 -0.500000 0.598584 0.860590 -0.061967 255 0 0
-0.221631 0.500000 0.541223 0.825887 1.148022 255 0 0
-0.438480 -0.500000 0.470304 0.329235 -0.061967 255 0 0
-0.221631 0.500000 0.541223 0.372141 1.148022 255 0 0
-0.348548 0.500000 0.425236 0.301970 1.148022 255 0 0
-0.542783 -0.500000 0.323951 0.240693 -0.061967 255 0 0
-0.442856 0.500000 0.292908 0.221912 1.148022 255 0 0
-0.607012 -0.500000 0.165149 0.144618 -0.061967 255 0 0
-0.500931 0.500000 0.149323 0.135044 1.148022 255 0 0
-0.628700 -0.500000 0.000000 0.044704 -0.061967 255 0 0
-0.520540 0.500000 0.000000 0.044704 1.148022 255 0 0
-0.607013 -0.500000 -0.165149 -0.055210 -0.061967 255 0 0
-0.500931 0.500000 -0.149323 -0.045636 1.148022 255 0 0
-0.542783 -0.500000 -0.323951 -0.151285 -0.061967 255 0 0
-0.442856 0.500000 -0.292908 -0.132504 1.148022 255 0 0
-0.438480 -0.500000 -0.470304 -0.239828 -0.061967 255 0 0
-0.348548 0.500000 -0.425236 -0.212562 1.148022 255 0 0
-0.298112 -0.500000 -0.598584 -0.317436 -0.061967 255 0 0
-0.221631 0.500000 -0.541223 -0.282733 1.148022 255 0 0
-0.127072 -0.500000 -0.703860 0.782982 -0.061967 255 0 0
-0.221631 0.500000 -0.541223 0.825887 1.148022 255 0 0
-0.066982 0.500000 -0.636411 0.755716 1.148022 255 0 0
0.068065 -0.500000 -0.782087 0.694439 -0.061967 255 0 0
0.109456 0.500000 -0.707142 0.675658 1.148022 255 0 0
0.300000 0.500000 -0.750493 0.589199 1.148022 255 0 0
0.311453 1.000000 -0.710917 0.584002 1.753017 255 0 0
0.279802 -0.500000 -0.830259 0.598364 -0.061967 255 0 0
0.500000 -0.500000 -0.846525 0.498450 -0.061967 255 0 0
0.500000 1.000000 -0.724845 0.498450 1.753017 255 0 0
0.720199 -0.500000 -0.830259 0.398536 -0.061967 255 0 0
0.688547 1.000000 -0.710917 0.412897 1.753017 255 0 0
0.931935 -0.500000 -0.782087 0.302461 -0.061967 255 0 0
0.869849 1.000000 -0.669669 0.330633 1.753017 255 0 0
1.127073 -0.500000 -0.703860 0.213918 -0.061967 255 0 0
1.036937 1.000000 -0.602686 0.254817 1.753017 255 0 0
1.298112 -0.500000 -0.598583 0.136310 -0.061967 255 0 0
1.183391 1.000000 -0.512543 -0.265382 1.753017 255 0 0
1.438480 -0.500000 -0.470304 -0.239827 -0.061967 255 0 0
1.298112 -0.500000 -0.598583 -0.317436 -0.061967 255 0 0
1.303583 1.000000 -0.402702 -0.198929 1.753017 255 0 0
1.542783 -0.500000 -0.323951 -0.151285 -0.061967 255 0 0
1.392893 1.000000 -0.277386 -0.123113 1.753017 255 0 0
1.607013 -0.500000 -0.165148 -0.055210 -0.061967 255 0 0
1.447890 1.000000 -0.141410 -0.040848 1.753017 255 0 0
1.628700 -0.500000 0.000001 0.044704 -0.061967 255 0 0
1.466460 1.000000 0.000001 0.044704 1.753017 255 0 0
1.607012 -0.500000 0.165150 0.144619 -0.061967 255 0 0
1.447890 1.000000 0.141411 0.130257 1.753017 255 0 0
1.542782 -0.500000 0.323952 0.240693 -0.061967 255 0 0
1.392892 1.000000 0.277387 0.212522 1.753017 255 0 0
1.438479 -0.500000 0.470305 0.329236 -0.061967 255 0 0
1.303581 1.000000 0.402703 0.288337 1.753017 255 0 0
1.298110 -0.500000 0.598584 0.406844 -0.061967 255 0 0
1.183390 1.000000 0.512544 0.188365 1.753017 255 0 0
1.127071 -0.500000 0.703861 0.213919 -0.061967 255 0 0
1.298110 -0.500000 0.598584 0.136310 -0.061967 255 0 0
1.036935 1.000000 0.602687 0.254818 1.753017 255 0 0
0.931933 -0.500000 0.782088 0.302462 -0.061967 255 0 0
0.869847 1.000000 0.669670 0.330633 1.753017 255 0 0
0.929550 1.000000 -0.441970 0.303543 0.237826 255 0 0
1.046713 1.000000 -0.375865 0.250381 0.277819 255 0 0
1.183391 1.000000 -0.512543 0.188364 0.195130 255 0 0
1.273168 1.000000 0.000001 0.044704 -0.061967 255 0 0
1.284628 -0.200000 0.107300 0.109620 -1.513955 255 0 0
1.258312 1.000000 0.103701 0.107443 -0.061967 255 0 0
1.239103 -0.200000 0.210476 0.172041 -1.513955 255 0 0
1.214314 1.000000 0.203417 0.167770 -0.061967 255 0 0
1.165175 -0.200000 0.305564 0.229569 -1.513955 255 0 0
1.142865 1.000000 0.295316 0.223368 -0.061967 255 0 0
1.065685 -0.200000 0.388909 0.279992 -1.513955 255 0 0
1.046712 1.000000 0.375865 0.272100 -0.061967 255 0 0
1.046712 1.000000 0.375865 0.250382 -0.061967 255 0 0
0.944455 -0.200000 0.457309 0.296780 -1.513955 255 0 0
0.929548 1.000000 0.441971 0.303544 -0.061967 255 0 0
0.806146 -0.200000 0.508134 0.359538 -1.513955 255 0 0
0.795878 1.000000 0.491091 0.364197 -0.061967 255 0 0
0.656071 -0.200000 0.539432 0.427633 -1.513955 255 0 0
0.650836 1.000000 0.521340 0.430009 -0.061967 255 0 0
0.500000 -0.200000 0.550000 0.498450 -1.513955 255 0 0
0.500000 1.000000 0.531553 0.498450 -0.061967 255 0 0
0.349162 1.000000 0.521339 0.566892 -0.061967 255 0 0
0.343928 -0.200000 0.539432 0.569267 -1.513955 255 0 0
0.300000 0.500000 0.519080 0.589199 -0.666962 255 0 0
0.300000 0.500000 -0.519080 0.589199 -0.666962 255 0 0
0.193853 -0.200000 -0.508134 0.637363 -1.513955 255 0 0
0.343928 -0.200000 -0.539432 0.569267 -1.513955 255 0 0
0.349163 1.000000 -0.521339 0.566892 -0.061967 255 0 0
0.500000 -0.200000 -0.550000 0.498450 -1.513955 255 0 0
0.500000 1.000000 -0.531553 0.498450 -0.061967 255 0 0
0.650838 1.000000 -0.521339 0.430008 -0.061967 255 0 0
0.656073 -0.200000 -0.539432 0.427633 -1.513955 255 0 0
0.795879 1.000000 -0.491091 0.364196 -0.061967 255 0 0
0.806147 -0.200000 -0.508134 0.359537 -1.513955 255 0 0
0.929550 1.000000 -0.441970 0.303543 -0.061967 255 0 0
0.944457 -0.200000 -0.457308 0.296780 -1.513955 255 0 0
1.046713 1.000000 -0.375865 0.250381 -0.061967 255 0 0
1.065686 -0.200000 -0.388909 0.241772 -1.513955 255 0 0
1.142866 1.000000 -0.295315 -0.133960 -0.061967 255 0 0
1.065686 -0.200000 -0.388909 -0.190584 -1.513955 255 0 0
1.165176 -0.200000 -0.305563 -0.140160 -1.513955 255 0 0
1.214314 1.000000 -0.203416 -0.078362 -0.061967 255 0 0
1.239104 -0.200000 -0.210475 -0.082633 -1.513955 255 0 0
1.258312 1.000000 -0.103700 -0.018034 -0.061967 255 0 0
1.284628 -0.200000 -0.107299 -0.020212 -1.513955 255 0 0
1.300000 -0.200000 0.000001 0.044704 -1.513955 255 0 0
0.055544 -0.200000 0.457308 0.700120 0.781885 255 0 0
0.193853 -0.200000 0.508134 0.637363 0.812634 255 0 0
0.055544 -0.200000 -0.457308 0.700120 0.228546 255 0 0
0.193853 -0.200000 0.508134 0.637363 0.301030 255 0 0
0.064240 0.500000 0.448361 0.696175 1.148022 255 0 0
0.199843 0.500000 0.498192 0.634645 1.148022 255 0 0
0.064240 0.500000 -0.448361 0.696175 1.148022 255 0 0
0.193853 -0.200000 -0.508134 0.637363 0.301030 255 0 0
0.199843 0.500000 -0.498192 0.634645 1.148022 255 0 0
-0.054618 0.500000 -0.381300 0.750106 1.148022 255 0 0
0.055544 -0.200000 -0.457308 0.700120 0.301030 255 0 0
-0.152162 0.500000 -0.299585 -0.136544 1.148022 255 0 0
-0.065686 -0.200000 -0.388909 -0.190584 0.301030 255 0 0
-0.054618 0.500000 -0.381300 -0.185981 1.148022 255 0 0
-0.224643 0.500000 -0.206358 -0.080142 1.148022 255 0 0
-0.165176 -0.200000 -0.305564 -0.140161 0.301030 255 0 0
-0.269277 0.500000 -0.105200 -0.018942 1.148022 255 0 0
-0.239104 -0.200000 -0.210476 -0.082633 0.301030 255 0 0
-0.284348 0.500000 0.000000 0.044704 1.148022 255 0 0
-0.284628 -0.200000 -0.107300 -0.020212 0.301030 255 0 0
-0.284628 -0.200000 0.107300 0.109620 0.301030 255 0 0
-0.269277 0.500000 0.105200 0.108350 1.148022 255 0 0
-0.239104 -0.200000 0.210476 0.172041 0.301030 255 0 0
-0.224643 0.500000 0.206358 0.169549 1.148022 255 0 0
-0.165176 -0.200000 0.305564 0.229568 0.301030 255 0 0
-0.152162 0.500000 0.299585 0.225951 1.148022 255 0 0
-0.065686 -0.200000 0.388909 0.279992 0.301030 255 0 0
-0.054618 0.500000 0.381300 0.275388 1.148022 255 0 0
0.055544 -0.200000 0.457308 0.700120 0.301030 255 0 0
-0.054618 0.500000 0.381300 0.750106 1.148022 255 0 0
0.300000 1.000000 0.708312 0.473229 1.753017 255 0 0
0.300000 0.500000 0.519080 0.358745 1.148022 255 0 0
0.300000 0.500000 0.750493 0.498748 1.148022 255 0 0
-0.269277 0.500000 -0.105200 0.711712 0.433067 255 0 0
-0.224643 0.500000 -0.206358 0.650512 0.453319 255 0 0
-0.500931 0.500000 -0.149323 0.685018 0.327955 255 0 0
0.300000 0.500000 -0.519080 -0.269337 1.148022 255 0 0
0.300000 1.000000 -0.708312 -0.383821 1.753017 255 0 0
0.300000 0.500000 -0.750493 -0.409340 1.148022 255 0 0
0.311453 1.000000 0.710917 0.584002 1.753017 255 0 0
0.720197 -0.500000 0.830259 0.398536 1.007518 255 0 0
0.500000 -0.500000 0.846525 0.498450 1.017359 255 0 0
0.279802 -0.500000 0.830259 0.598364 1.007518 255 0 0
0.068065 -0.500000 0.782087 0.694439 0.978374 255 0 0
-0.127072 -0.500000 0.703860 0.782982 0.931047 255 0 0
-0.298112 -0.500000 0.598584 0.860590 0.867355 255 0 0
-0.438480 -0.500000 0.470304 0.924282 0.789747 255 0 0
-0.542783 -0.500000 0.323951 0.971608 0.701204 255 0 0
-0.628700 -0.500000 0.000000 1.010593 0.505215 255 0 0
-0.607013 -0.500000 -0.165149 1.000752 0.405301 255 0 0
-0.542783 -0.500000 -0.323951 0.971608 0.309227 255 0 0
-0.438480 -0.500000 -0.470304 0.924282 0.220684 255 0 0
-0.298112 -0.500000 -0.598584 0.860590 0.143075 255 0 0
-0.127072 -0.500000 -0.703860 0.782982 0.079384 255 0 0
0.068065 -0.500000 -0.782087 0.694439 0.032057 255 0 0
0.500000 -0.500000 -0.846525 0.498450 -0.006928 255 0 0
1.127073 -0.500000 -0.703860 0.213918 0.079384 255 0 0
0.720199 -0.500000 -0.830259 0.398536 0.002913 255 0 0
0.931935 -0.500000 -0.782087 0.302461 0.032057 255 0 0
1.298112 -0.500000 -0.598583 0.136310 0.143076 255 0 0
1.438480 -0.500000 -0.470304 0.072618 0.220684 255 0 0
1.542783 -0.500000 -0.323951 0.025291 0.309227 255 0 0
1.628700 -0.500000 0.000001 -0.013693 0.505216 255 0 0
1.607012 -0.500000 0.165150 -0.003853 0.605130 255 0 0
1.542782 -0.500000 0.323952 0.025292 0.701205 255 0 0
1.438479 -0.500000 0.470305 0.072619 0.789747 255 0 0
1.298110 -0.500000 0.598584 0.136310 0.867356 255 0 0
1.127071 -0.500000 0.703861 0.213919 0.931047 255 0 0
0.931933 -0.500000 0.782088 0.302462 0.978374 255 0 0
0.300000 1.000000 0.511087 0.589199 0.814420 255 0 0
0.300000 1.000000 0.708312 0.589199 0.933740 255 0 0
0.349162 1.000000 0.521339 0.566892 0.820623 255 0 0
0.311453 1.000000 0.710917 0.584002 0.935317 255 0 0
0.500000 1.000000 0.724845 0.498450 0.943743 255 0 0
0.500000 1.000000 0.531553 0.498450 0.826802 255 0 0
0.688546 1.000000 0.710918 0.412898 0.935317 255 0 0
0.869847 1.000000 0.669670 0.330633 0.910362 255 0 0
0.650836 1.000000 0.521340 0.430009 0.820623 255 0 0
1.183390 1.000000 0.512544 0.188365 0.815302 255 0 0
1.303581 1.000000 0.402703 0.133828 0.748849 255 0 0
1.046712 1.000000 0.375865 0.250382 0.732612 255 0 0
1.142865 1.000000 0.295316 0.206752 0.683880 255 0 0
1.392892 1.000000 0.277387 0.093304 0.673033 255 0 0
1.447890 1.000000 0.141411 0.068349 0.590768 255 0 0
1.214314 1.000000 0.203417 0.174333 0.628282 255 0 0
1.466460 1.000000 0.000001 0.059922 0.505216 255 0 0
1.258312 1.000000 0.103701 0.154369 0.567954 255 0 0
1.273168 1.000000 0.000001 0.147628 0.505216 255 0 0
0.300000 1.000000 0.708312 0.589199 1.753017 255 0 0
-0.298112 -0.500000 0.598584 0.406844 -0.061967 255 0 0
-0.298112 -0.500000 -0.598584 0.860590 -0.061967 255 0 0
0.300000 1.000000 -0.708312 0.589199 1.753017 255 0 0
1.183391 1.000000 -0.512543 0.188364 1.753017 255 0 0
1.183390 1.000000 0.512544 0.354790 1.753017 255 0 0
0.300000 1.000000 -0.708312 0.589199 0.076690 255 0 0
0.300000 1.000000 -0.511087 0.589199 0.196011 255 0 0
0.349163 1.000000 -0.521339 0.566892 0.189808 255 0 0
0.311453 1.000000 -0.710917 0.584002 0.075114 255 0 0
0.500000 1.000000 -0.531553 0.498450 0.183629 255 0 0
0.500000 1.000000 -0.724845 0.498450 0.066688 255 0 0
0.869849 1.000000 -0.669669 0.330633 0.100069 255 0 0
0.688547 1.000000 -0.710917 0.412897 0.075114 255 0 0
0.650838 1.000000 -0.521339 0.430008 0.189808 255 0 0
1.036937 1.000000 -0.602686 0.254817 0.140593 255 0 0
0.795879 1.000000 -0.491091 0.364196 0.208108 255 0 0
1.392893 1.000000 -0.277386 0.093303 0.337399 255 0 0
1.303583 1.000000 -0.402702 0.133827 0.261583 255 0 0
1.142866 1.000000 -0.295315 0.206752 0.326551 255 0 0
1.214314 1.000000 -0.203416 0.174333 0.382150 255 0 0
1.447890 1.000000 -0.141410 0.068349 0.419663 255 0 0
1.258312 1.000000 -0.103700 0.154369 0.442477 255 0 0
1.065685 -0.200000 0.388909 0.241773 -1.513955 255 0 0
0.300000 1.000000 0.511087 0.589199 -0.061967 255 0 0
0.193853 -0.200000 0.508134 0.637363 -1.513955 255 0 0
0.199843 0.500000 0.498192 0.634645 -0.666962 255 0 0
0.300000 1.000000 -0.511087 0.589199 -0.061967 255 0 0
0.199843 0.500000 -0.498192 0.634645 -0.666962 255 0 0
1.046713 1.000000 -0.375865 -0.182692 -0.061967 255 0 0
0.343928 -0.200000 0.539432 0.569267 0.831569 255 0 0
0.500000 -0.200000 0.550000 0.498450 0.837963 255 0 0
0.500000 -0.200000 -0.550000 0.498450 0.172468 255 0 0
0.656071 -0.200000 0.539432 0.427633 0.831569 255 0 0
0.656073 -0.200000 -0.539432 0.427633 0.178862 255 0 0
0.806146 -0.200000 0.508134 0.359538 0.812634 255 0 0
0.944455 -0.200000 0.457309 0.296780 0.781885 255 0 0
0.806147 -0.200000 -0.508134 0.359537 0.197797 255 0 0
1.065685 -0.200000 0.388909 0.241773 0.740503 255 0 0
1.065686 -0.200000 -0.388909 0.241772 0.269928 255 0 0
1.165175 -0.200000 0.305564 0.196629 0.690080 255 0 0
1.165176 -0.200000 -0.305563 0.196629 0.320351 255 0 0
1.239103 -0.200000 0.210476 0.163085 0.632553 255 0 0
1.284628 -0.200000 0.107300 0.142428 0.570131 255 0 0
1.239104 -0.200000 -0.210475 0.163084 0.377879 255 0 0
1.300000 -0.200000 0.000001 0.135453 0.505216 255 0 0
1.284628 -0.200000 -0.107299 0.142428 0.440300 255 0 0
0.944457 -0.200000 -0.457308 0.296780 0.228546 255 0 0
0.343928 -0.200000 -0.539432 0.569267 0.178862 255 0 0
0.193853 -0.200000 -0.508134 0.637363 0.197797 255 0 0
-0.065686 -0.200000 -0.388909 0.755128 0.269928 255 0 0
-0.065686 -0.200000 0.388909 0.755128 0.740503 255 0 0
-0.165176 -0.200000 -0.305564 0.800271 0.320351 255 0 0
-0.165176 -0.200000 0.305564 0.800271 0.690080 255 0 0
-0.239104 -0.200000 -0.210476 0.833815 0.377879 255 0 0
-0.284628 -0.200000 -0.107300 0.854472 0.440300 255 0 0
-0.239104 -0.200000 0.210476 0.833815 0.632552 255 0 0
-0.300000 -0.200000 0.000000 0.861447 0.505215 255 0 0
-0.284628 -0.200000 0.107300 0.854472 0.570131 255 0 0
-0.065686 -0.200000 -0.388909 0.755128 0.301030 255 0 0
-0.300000 -0.200000 0.000000 0.044704 0.301030 255 0 0
-0.065686 -0.200000 0.388909 0.755128 0.301030 255 0 0
0.300000 1.000000 0.511087 0.353909 1.753017 255 0 0
0.300000 0.500000 -0.519080 0.461317 0.691374 255 0 0
0.300000 0.500000 -0.750493 0.321313 0.691374 255 0 0
0.109456 0.500000 -0.707142 0.347540 0.604915 255 0 0
-0.066982 0.500000 -0.636411 0.390332 0.524857 255 0 0
0.199843 0.500000 -0.498192 0.473954 0.645928 255 0 0
-0.221631 0.500000 -0.541223 0.447920 0.454686 255 0 0
0.064240 0.500000 -0.448361 0.504102 0.584398 255 0 0
-0.348548 0.500000 -0.425236 0.518092 0.397098 255 0 0
-0.054618 0.500000 -0.381300 0.544673 0.530467 255 0 0
-0.442856 0.500000 -0.292908 0.598150 0.354306 255 0 0
-0.152162 0.500000 -0.299585 0.594110 0.486207 255 0 0
-0.520540 0.500000 0.000000 0.775358 0.319057 255 0 0
-0.284348 0.500000 0.000000 0.775358 0.426228 255 0 0
-0.500931 0.500000 0.149323 0.865698 0.327955 255 0 0
-0.269277 0.500000 0.105200 0.839003 0.433067 255 0 0
-0.442856 0.500000 0.292908 0.952565 0.354306 255 0 0
-0.224643 0.500000 0.206358 0.900203 0.453319 255 0 0
-0.348548 0.500000 0.425236 1.032624 0.397098 255 0 0
-0.152162 0.500000 0.299585 0.956605 0.486207 255 0 0
-0.221631 0.500000 0.541223 1.102795 0.454686 255 0 0
-0.054618 0.500000 0.381300 1.006042 0.530467 255 0 0
-0.066982 0.500000 0.636411 1.160383 0.524857 255 0 0
0.064240 0.500000 0.448361 1.046614 0.584398 255 0 0
0.109456 0.500000 0.707142 1.203175 0.604915 255 0 0
0.199843 0.500000 0.498192 1.076761 0.645928 255 0 0
0.300000 0.500000 0.750493 1.229402 0.691374 255 0 0
0.300000 0.500000 0.519080 1.089398 0.691374 255 0 0
0.300000 1.000000 -0.511087 -0.264501 1.753017 255 0 0
3 0 1 2
3 3 4 5
3 6 2 7
3 8 9 10
3 1 11 12
3 13 14 15
3 16 15 17
3 18 19 20
3 21 20 22
3 23 22 24
3 25 24 26
3 27 26 28
3 29 28 30
3 31 30 32
3 33 32 34
3 35 36 37
3 38 37 39
3 40 41 42
3 41 43 42
3 44 45 43
3 46 47 45
3 48 49 47
3 50 51 49
3 52 53 54
3 55 56 53
3 57 58 56
3 59 60 58
3 61 62 60
3 63 64 62
3 65 66 64
3 67 68 66
3 69 70 71
3 72 73 70
3 74 7 73
3 75 76 77
3 78 79 80
3 80 81 82
3 82 83 84
3 84 85 86
3 87 88 89
3 89 90 91
3 91 92 93
3 93 94 95
3 96 94 97
3 98 96 97
3 99 100 101
3 102 103 104
3 105 103 106
3 107 106 108
3 109 108 110
3 111 110 112
3 113 114 115
3 116 115 117
3 118 117 119
3 78 119 120
3 121 122 123
3 124 125 126
3 127 128 129
3 130 131 127
3 132 133 134
3 135 136 132
3 137 138 135
3 139 140 137
3 141 139 142
3 143 142 144
3 145 144 146
3 147 146 148
3 149 150 125
3 151 152 153
3 154 155 156
3 157 158 159
3 0 160 1
3 161 162 163
3 163 164 161
3 164 165 161
3 165 166 167
3 167 168 165
3 168 3 165
3 3 169 170
3 170 171 3
3 171 172 3
3 172 173 4
3 173 174 4
3 174 175 4
3 4 176 177
3 176 178 177
3 178 179 177
3 177 180 181
3 181 182 5
3 5 183 184
3 184 185 5
3 185 186 5
3 186 187 188
3 188 189 186
3 189 161 186
3 177 181 5
3 161 165 3
3 3 172 4
3 4 177 5
3 5 186 161
3 161 3 5
3 6 0 2
3 190 191 192
3 191 193 192
3 193 194 195
3 194 196 195
3 196 197 198
3 197 8 10
3 198 197 10
3 8 199 9
3 199 200 201
3 201 200 202
3 200 203 202
3 203 204 205
3 202 203 205
3 204 206 207
3 206 208 207
3 195 196 198
3 195 192 193
3 204 207 205
3 199 201 9
3 160 209 11
3 11 14 12
3 1 160 11
3 13 12 14
3 16 13 15
3 18 210 19
3 21 18 20
3 23 21 22
3 25 23 24
3 27 25 26
3 29 27 28
3 31 29 30
3 33 31 32
3 35 211 36
3 38 35 37
3 42 38 40
3 38 39 40
3 40 212 41
3 41 44 43
3 44 46 45
3 46 48 47
3 48 50 49
3 50 213 51
3 52 55 53
3 55 57 56
3 57 59 58
3 59 61 60
3 61 63 62
3 63 65 64
3 65 67 66
3 67 214 68
3 69 72 70
3 72 74 73
3 74 6 7
3 215 216 217
3 215 217 218
3 217 219 218
3 220 218 219
3 221 222 223
3 222 220 219
3 223 222 219
3 77 224 75
3 224 221 225
3 226 227 228
3 227 77 76
3 226 228 229
3 206 230 231
3 230 226 229
3 231 208 206
3 229 231 230
3 224 225 75
3 228 227 76
3 221 223 225
3 78 120 79
3 80 79 81
3 82 81 83
3 84 83 85
3 87 232 88
3 89 88 90
3 91 90 92
3 93 92 94
3 96 95 94
3 98 233 96
3 97 234 98
3 234 235 98
3 101 102 99
3 102 236 99
3 99 237 100
3 102 101 103
3 105 104 103
3 107 105 106
3 109 107 108
3 111 109 110
3 113 238 114
3 116 113 115
3 118 116 117
3 78 118 119
3 239 240 241
3 240 242 243
3 242 244 243
3 244 245 246
3 243 244 246
3 245 247 248
3 247 249 250
3 249 251 250
3 251 252 253
3 250 251 253
3 252 254 255
3 255 253 252
3 250 248 247
3 248 256 245
3 256 246 245
3 243 241 240
3 241 257 239
3 257 258 239
3 258 123 122
3 239 258 122
3 123 259 260
3 259 261 262
3 261 263 262
3 263 264 265
3 262 263 265
3 264 266 267
3 267 265 264
3 262 260 259
3 260 121 123
3 124 149 125
3 127 131 128
3 130 268 131
3 132 136 133
3 135 138 136
3 137 140 138
3 139 269 140
3 141 269 139
3 143 141 142
3 145 143 144
3 147 145 146
3 149 270 150
3 151 271 152
3 272 273 274
3 274 275 276
3 275 277 278
3 277 279 280
3 279 281 282
3 280 279 282
3 281 156 155
3 156 283 154
3 154 283 284
3 283 285 286
3 285 287 288
3 283 286 284
3 287 289 290
3 289 291 292
3 291 293 294
3 293 295 296
3 295 297 298
3 295 298 296
3 289 292 290
3 293 296 294
3 275 278 276
3 278 277 280
3 276 272 274
3 291 294 292
3 155 282 281
3 287 290 288
3 288 286 285
3 157 299 158
