ply
format ascii 1.0
comment Created by Blender 2.79 (sub 0) - www.blender.org, source file: 'glassmaker.blend'
element vertex 116
property float x
property float y
property float z
property float s
property float t
property uchar red
property uchar green
property uchar blue
element face 212
property list uchar uint vertex_indices
end_header
0.460000 0.065000 -1.450000 0.000000 0.000000 0 255 0
0.460000 0.015000 -0.550000 0.000000 0.000000 0 255 0
0.460000 0.015000 -1.450000 0.000000 0.000000 0 255 0
0.360000 0.015000 -1.100000 0.000000 0.000000 0 255 0
0.360000 0.015000 -1.050000 0.000000 0.000000 0 255 0
0.360000 0.015000 -0.950000 0.000000 0.000000 0 255 0
0.360000 0.015000 -0.900000 0.000000 0.000000 0 255 0
-0.440000 0.015000 -0.900000 0.000000 0.000000 0 255 0
0.360000 0.015000 -0.800000 0.000000 0.000000 0 255 0
-0.540000 0.065000 -1.450000 0.000000 0.000000 0 255 0
-0.540000 0.015000 -1.450000 0.000000 0.000000 0 255 0
0.360000 0.065000 -1.100000 0.000000 0.000000 0 255 0
-0.440000 0.065000 -1.100000 0.000000 0.000000 0 255 0
-0.440000 0.065000 -1.050000 0.000000 0.000000 0 255 0
-0.440000 0.065000 -1.250000 0.000000 0.000000 0 255 0
-0.440000 0.065000 -1.200000 0.000000 0.000000 0 255 0
-0.440000 0.065000 -0.950000 0.000000 0.000000 0 255 0
-0.440000 0.065000 -0.750000 0.000000 0.000000 0 255 0
-0.440000 0.065000 -0.800000 0.000000 0.000000 0 255 0
0.460000 0.065000 -0.550000 0.000000 0.000000 0 255 0
-0.540000 0.015000 -0.550000 0.000000 0.000000 0 255 0
-0.540000 0.065000 -0.550000 0.000000 0.000000 0 255 0
0.360000 0.015000 -0.650000 0.000000 0.000000 0 255 0
0.360000 0.065000 -0.750000 0.000000 0.000000 0 255 0
0.360000 0.015000 -0.750000 0.000000 0.000000 0 255 0
-0.440000 0.015000 -0.750000 0.000000 0.000000 0 255 0
-0.440000 0.015000 -0.650000 0.000000 0.000000 0 255 0
0.360000 0.065000 -0.650000 0.000000 0.000000 0 255 0
-0.440000 0.065000 -0.650000 0.000000 0.000000 0 255 0
0.360000 0.065000 -1.200000 0.000000 0.000000 0 255 0
0.360000 0.015000 -1.200000 0.000000 0.000000 0 255 0
-0.440000 0.015000 -1.200000 0.000000 0.000000 0 255 0
-0.440000 0.015000 -1.100000 0.000000 0.000000 0 255 0
0.360000 0.015000 -1.250000 0.000000 0.000000 0 255 0
0.360000 0.065000 -1.350000 0.000000 0.000000 0 255 0
0.360000 0.015000 -1.350000 0.000000 0.000000 0 255 0
-0.440000 0.065000 -1.350000 0.000000 0.000000 0 255 0
-0.440000 0.015000 -1.350000 0.000000 0.000000 0 255 0
-0.440000 0.015000 -1.250000 0.000000 0.000000 0 255 0
0.360000 0.065000 -1.250000 0.000000 0.000000 0 255 0
0.360000 0.065000 -0.900000 0.000000 0.000000 0 255 0
-0.440000 0.065000 -0.900000 0.000000 0.000000 0 255 0
-0.440000 0.015000 -0.800000 0.000000 0.000000 0 255 0
0.360000 0.065000 -0.800000 0.000000 0.000000 0 255 0
0.360000 0.065000 -1.050000 0.000000 0.000000 0 255 0
-0.440000 0.015000 -1.050000 0.000000 0.000000 0 255 0
-0.440000 0.015000 -0.950000 0.000000 0.000000 0 255 0
0.360000 0.065000 -0.950000 0.000000 0.000000 0 255 0
0.307945 0.326494 0.415000 0.000000 0.000000 0 255 0
0.293153 0.294773 0.485000 0.000000 0.000000 0 255 0
0.293153 0.294773 0.415000 0.000000 0.000000 0 255 0
0.307945 0.326494 0.485000 0.000000 0.000000 0 255 0
0.261432 0.309565 0.485000 0.000000 0.000000 0 255 0
0.276224 0.341286 0.485000 0.000000 0.000000 0 255 0
0.261432 0.309565 0.415000 0.000000 0.000000 0 255 0
0.276224 0.341286 0.415000 0.000000 0.000000 0 255 0
-0.425000 0.510001 -0.535000 0.000000 0.000000 0 255 0
-0.375000 0.510001 -0.485000 0.000000 0.000000 0 255 0
-0.375000 0.510001 -0.535000 0.000000 0.000000 0 255 0
-0.425000 0.510001 -0.485000 0.000000 0.000000 0 255 0
-0.375000 0.010001 -0.485000 0.000000 0.000000 0 255 0
-0.425000 0.010001 -0.485000 0.000000 0.000000 0 255 0
-0.375000 0.010001 -0.535000 0.000000 0.000000 0 255 0
-0.425000 0.010001 -0.535000 0.000000 0.000000 0 255 0
0.375000 0.510001 -0.535000 0.000000 0.000000 0 255 0
0.425000 0.510001 -0.485000 0.000000 0.000000 0 255 0
0.425000 0.510001 -0.535000 0.000000 0.000000 0 255 0
0.375000 0.010001 -0.485000 0.000000 0.000000 0 255 0
0.425000 0.010001 -0.485000 0.000000 0.000000 0 255 0
0.425000 0.010001 -0.535000 0.000000 0.000000 0 255 0
0.375000 0.010001 -0.535000 0.000000 0.000000 0 255 0
0.375000 0.510001 -0.485000 0.000000 0.000000 0 255 0
0.370000 0.317501 0.417500 0.000000 0.000000 0 255 0
0.370000 0.317501 0.482500 0.000000 0.000000 0 255 0
0.460000 0.317501 0.487500 0.000000 0.000000 0 255 0
0.460000 0.242501 0.487500 0.000000 0.000000 0 255 0
0.460000 0.317501 0.412500 0.000000 0.000000 0 255 0
0.260000 0.242501 0.412500 0.000000 0.000000 0 255 0
0.460000 0.242501 0.412500 0.000000 0.000000 0 255 0
0.260000 0.242501 0.487500 0.000000 0.000000 0 255 0
0.260000 0.267501 0.417500 0.000000 0.000000 0 255 0
0.260000 0.267501 0.482500 0.000000 0.000000 0 255 0
0.370000 0.267501 0.482500 0.000000 0.000000 0 255 0
0.370000 0.267501 0.417500 0.000000 0.000000 0 255 0
-0.290066 0.607256 0.355000 0.000000 0.000000 0 255 0
-0.302745 0.580066 0.445000 0.000000 0.000000 0 255 0
-0.302745 0.580066 0.355000 0.000000 0.000000 0 255 0
-0.290066 0.607256 0.445000 0.000000 0.000000 255 255 255
-0.329934 0.592745 0.445000 0.000000 0.000000 255 255 255
-0.302745 0.580066 0.445000 0.000000 0.000000 255 255 255
-0.317255 0.619934 0.445000 0.000000 0.000000 0 255 0
-0.329934 0.592745 0.355000 0.000000 0.000000 0 255 0
-0.329934 0.592745 0.445000 0.000000 0.000000 0 255 0
-0.290066 0.607256 0.445000 0.000000 0.000000 0 255 0
-0.317255 0.619934 0.355000 0.000000 0.000000 0 255 0
0.375000 0.720001 0.425000 0.000000 0.000000 0 255 0
0.425000 0.720001 0.475000 0.000000 0.000000 0 255 0
0.425000 0.720001 0.425000 0.000000 0.000000 0 255 0
0.375000 0.720001 0.475000 0.000000 0.000000 0 255 0
0.425000 0.220000 0.475000 0.000000 0.000000 0 255 0
0.375000 0.220000 0.475000 0.000000 0.000000 0 255 0
0.425000 0.220000 0.425000 0.000000 0.000000 0 255 0
0.375000 0.220000 0.425000 0.000000 0.000000 0 255 0
0.324981 0.326825 0.425000 0.000000 0.000000 0 255 0
0.303850 0.281510 0.475000 0.000000 0.000000 0 255 0
0.303850 0.281510 0.425000 0.000000 0.000000 0 255 0
0.324981 0.326825 0.475000 0.000000 0.000000 0 255 0
-0.964981 0.873176 0.475000 0.000000 0.000000 0 255 0
-0.943850 0.918491 0.475000 0.000000 0.000000 0 255 0
-0.964981 0.873176 0.425000 0.000000 0.000000 0 255 0
-0.943850 0.918491 0.425000 0.000000 0.000000 0 255 0
0.260000 0.317501 0.412500 0.000000 0.000000 0 255 0
0.260000 0.317501 0.417500 0.000000 0.000000 0 255 0
0.260000 0.317501 0.482500 0.000000 0.000000 0 255 0
0.260000 0.317501 0.487500 0.000000 0.000000 0 255 0
-0.317255 0.619934 0.445000 0.000000 0.000000 255 255 255
3 0 1 2
3 3 2 4
3 5 6 7
3 8 6 1
3 9 2 10
3 11 12 13
3 14 9 15
3 16 17 18
3 19 20 1
3 21 10 20
3 22 23 24
3 24 17 25
3 26 27 22
3 25 28 26
3 3 29 30
3 30 15 31
3 32 11 3
3 31 12 32
3 33 34 35
3 35 36 37
3 38 39 33
3 37 14 38
3 8 40 6
3 6 41 7
3 42 43 8
3 7 18 42
3 5 44 4
3 4 13 45
3 46 47 5
3 45 16 46
3 48 49 50
3 51 52 49
3 53 54 52
3 54 48 50
3 52 50 49
3 51 55 53
3 56 57 58
3 59 60 57
3 61 62 60
3 62 56 58
3 60 58 57
3 59 63 61
3 64 65 66
3 65 67 68
3 67 69 68
3 70 66 69
3 68 66 65
3 71 70 67
3 72 73 74
3 75 76 74
3 77 76 78
3 79 80 77
3 74 79 75
3 79 78 75
3 81 73 82
3 81 83 80
3 72 82 73
3 72 80 83
3 84 85 86
3 87 88 89
3 90 91 92
3 91 84 86
3 92 86 85
3 93 94 90
3 95 96 97
3 98 99 96
3 100 101 99
3 102 97 101
3 99 97 96
3 98 102 100
3 103 104 105
3 106 107 104
3 108 109 107
3 109 103 105
3 107 105 104
3 106 110 108
3 0 19 1
3 35 2 33
3 2 1 4
3 33 2 30
3 1 6 4
3 4 45 3
3 3 30 2
3 10 2 35
3 10 35 37
3 26 20 25
3 20 10 46
3 25 20 42
3 8 24 42
3 24 25 42
3 7 20 46
3 10 37 38
3 38 33 30
3 38 30 31
3 7 42 20
3 10 38 31
3 32 3 45
3 10 31 32
3 5 4 6
3 32 45 10
3 45 46 10
3 46 5 7
3 1 20 26
3 22 24 1
3 24 8 1
3 1 26 22
3 9 0 2
3 19 0 44
3 0 34 39
3 19 44 40
3 39 29 0
3 0 29 11
3 0 11 44
3 12 16 13
3 13 44 11
3 34 0 9
3 19 40 43
3 43 23 19
3 23 27 19
3 28 12 21
3 12 15 9
3 21 12 9
3 19 27 28
3 36 34 9
3 29 39 14
3 14 36 9
3 21 19 28
3 15 29 14
3 40 44 47
3 16 12 17
3 12 28 17
3 40 47 41
3 47 16 41
3 17 23 18
3 23 43 18
3 18 41 16
3 19 21 20
3 21 9 10
3 22 27 23
3 24 23 17
3 26 28 27
3 25 17 28
3 3 11 29
3 30 29 15
3 32 12 11
3 31 15 12
3 33 39 34
3 35 34 36
3 38 14 39
3 37 36 14
3 8 43 40
3 6 40 41
3 42 18 43
3 7 41 18
3 5 47 44
3 4 44 13
3 46 16 47
3 45 13 16
3 48 51 49
3 51 53 52
3 53 55 54
3 54 55 48
3 52 54 50
3 51 48 55
3 56 59 57
3 59 61 60
3 61 63 62
3 62 63 56
3 60 62 58
3 59 56 63
3 64 71 65
3 65 71 67
3 67 70 69
3 70 64 66
3 68 69 66
3 71 64 70
3 76 111 72
3 111 112 72
3 113 114 73
3 114 74 73
3 76 72 74
3 75 78 76
3 77 111 76
3 79 114 81
3 114 113 81
3 112 111 80
3 111 77 80
3 79 81 80
3 74 114 79
3 79 77 78
3 81 113 73
3 81 82 83
3 72 83 82
3 72 112 80
3 84 93 85
3 87 115 88
3 90 94 91
3 91 94 84
3 92 91 86
3 93 84 94
3 95 98 96
3 98 100 99
3 100 102 101
3 102 95 97
3 99 101 97
3 98 95 102
3 103 106 104
3 106 108 107
3 108 110 109
3 109 110 103
3 107 109 105
3 106 103 110
