ply
format ascii 1.0
comment Created by Blender 2.79 (sub 0) - www.blender.org, source file: 'glassmaker.blend'
element vertex 151
property float x
property float y
property float z
property float s
property float t
property uchar red
property uchar green
property uchar blue
element face 118
property list uchar uint vertex_indices
end_header
0.400000 -0.300000 0.400000 0.906250 -1.804688 255 0 0
0.400000 0.500000 -0.400000 0.101562 -0.992188 255 0 0
0.400000 -0.300000 -0.400000 0.101562 -1.804688 255 0 0
0.400000 -0.300000 -0.400000 0.601562 -1.804688 255 0 0
-0.400000 0.500000 -0.400000 1.410156 -0.992188 255 0 0
-0.400000 -0.300000 -0.400000 1.410156 -1.804688 255 0 0
0.400000 -0.300000 -0.400000 0.601562 -0.597656 255 0 0
-0.220000 -0.300000 -0.150000 1.234375 -0.847656 255 0 0
-0.220000 -0.300000 0.150000 1.234375 -1.148438 255 0 0
-0.400000 -0.300000 0.400000 1.410156 -1.804688 255 0 0
-0.400000 0.500000 0.400000 1.410156 -0.992188 255 0 0
0.100000 0.500000 0.400000 0.906250 -0.992188 255 0 0
-0.400000 -0.300000 0.400000 0.906250 -1.804688 255 0 0
-0.400000 0.217157 0.282843 0.792969 -1.289062 255 0 0
-0.400000 0.277772 0.332588 0.835938 -1.226562 255 0 0
-0.900000 0.421964 -0.392314 1.906250 -1.074219 255 0 0
-0.400000 0.421964 -0.392314 1.410156 -1.074219 255 0 0
-0.900000 0.346927 -0.369552 1.906250 -1.148438 255 0 0
-0.400000 0.346927 -0.369552 1.410156 -1.148438 255 0 0
-0.400000 0.277772 -0.332588 1.410156 -1.226562 255 0 0
-0.900000 0.277772 -0.332588 1.906250 -1.226562 255 0 0
-0.900000 0.217157 -0.282843 1.906250 -1.289062 255 0 0
-0.400000 0.217157 -0.282843 1.410156 -1.289062 255 0 0
-0.400000 0.217157 -0.282843 1.410156 -0.714844 255 0 0
-0.900000 0.167412 -0.222228 1.906250 -0.781250 255 0 0
-0.400000 0.167412 -0.222228 1.410156 -0.781250 255 0 0
-0.900000 0.130448 -0.153073 1.906250 -0.847656 255 0 0
-0.400000 0.130448 -0.153073 1.410156 -0.847656 255 0 0
-0.900000 0.107686 -0.078036 1.906250 -0.917969 255 0 0
-0.400000 0.107686 -0.078036 1.410156 -0.917969 255 0 0
-0.900000 0.100000 0.000000 1.906250 -0.992188 255 0 0
-0.400000 0.100000 0.000000 1.410156 -0.992188 255 0 0
-0.900000 0.107686 0.078036 1.906250 -1.074219 255 0 0
-0.400000 0.107686 0.078036 1.410156 -1.074219 255 0 0
-0.900000 0.130448 0.153073 1.906250 -1.148438 255 0 0
-0.400000 0.130448 0.153073 1.410156 -1.148438 255 0 0
-0.400000 0.167412 0.222228 1.410156 -1.226562 255 0 0
-0.900000 0.167412 0.222228 1.906250 -1.226562 255 0 0
-0.900000 0.217157 0.282843 1.906250 -1.289062 255 0 0
-0.400000 0.217157 0.282843 1.410156 -1.289062 255 0 0
-0.400000 0.277772 0.332588 1.410156 -1.226562 255 0 0
-0.900000 0.277772 0.332588 1.906250 -1.226562 255 0 0
-0.900000 0.346927 0.369552 1.906250 -1.148438 255 0 0
-0.400000 0.346927 0.369552 1.410156 -1.148438 255 0 0
-0.900000 0.421964 0.392314 1.906250 -1.074219 255 0 0
-0.400000 0.421964 0.392314 1.410156 -1.074219 255 0 0
-0.900000 0.500000 0.400000 1.906250 -0.992188 255 0 0
-0.400000 0.500000 0.400000 1.410156 -0.992188 255 0 0
-0.900000 0.500000 0.400000 0.906250 -0.992188 255 255 255
-0.400000 0.500000 0.400000 0.906250 -0.992188 255 255 255
-0.400000 0.500000 0.400000 0.906250 -0.992188 255 255 255
0.500000 0.500000 -0.500000 0.003906 1.003906 255 0 0
0.500000 -0.500000 0.500000 1.000000 -0.000000 255 0 0
0.500000 -0.500000 -0.500000 0.003906 -0.000000 255 0 0
-0.900000 -0.500000 0.500000 1.000000 -1.996094 255 0 0
-0.900000 0.277772 0.332588 0.835938 -1.226562 255 0 0
-0.900000 0.217157 0.282843 0.792969 -1.289062 255 0 0
-0.900000 0.217157 -0.282843 0.214844 -1.289062 255 0 0
-0.900000 0.277772 -0.332588 0.179688 -1.226562 255 0 0
-0.900000 -0.500000 -0.500000 0.003906 -1.996094 255 0 0
-0.900000 0.500000 -0.500000 -0.093750 1.003906 255 0 0
0.500000 -0.500000 -0.500000 -1.500000 -0.000000 255 0 0
-0.900000 -0.500000 -0.500000 -0.093750 -0.000000 255 0 0
0.500000 0.500000 0.500000 0.500000 1.003906 255 0 0
-0.900000 -0.500000 0.500000 1.906250 -0.000000 255 0 0
0.500000 -0.500000 0.500000 0.500000 -0.000000 255 0 0
-0.900000 -0.500000 0.500000 1.906250 -1.500000 255 0 0
0.500000 -0.500000 -0.500000 0.500000 -0.496094 255 0 0
0.500000 -0.500000 0.500000 0.500000 -1.500000 255 0 0
-0.220000 -0.300000 -0.150000 0.355469 -1.804688 255 0 0
-0.220000 -0.330000 0.150000 0.656250 -1.839844 255 0 0
-0.220000 -0.300000 0.150000 0.656250 -1.804688 255 0 0
-0.900000 -0.030000 0.150000 1.906250 -1.535156 255 0 0
-0.400000 -0.030000 0.150000 1.410156 -1.535156 255 0 0
-0.400000 -0.300000 0.150000 1.410156 -1.804688 255 0 0
-0.900000 -0.330000 0.150000 -0.093750 -1.148438 255 0 0
-0.220000 -0.330000 -0.150000 -0.769531 -0.847656 255 0 0
-0.900000 -0.330000 -0.150000 -0.093750 -0.847656 255 0 0
-0.220000 -0.330000 -0.150000 -0.769531 -1.839844 255 0 0
-0.220000 -0.300000 -0.150000 -0.769531 -1.804688 255 0 0
-0.400000 -0.300000 -0.150000 -0.593750 -1.804688 255 0 0
-0.900000 -0.030000 -0.150000 -0.093750 -0.847656 255 0 0
-0.400000 -0.030000 0.150000 -0.593750 -1.148438 255 0 0
-0.900000 -0.030000 0.150000 -0.093750 -1.148438 255 0 0
0.400000 0.500000 0.400000 0.906250 -0.992188 255 0 0
0.400000 0.500000 -0.400000 0.601562 -0.992188 255 0 0
-0.400000 -0.300000 0.400000 1.410156 -1.402344 255 0 0
0.400000 -0.300000 0.400000 0.601562 -1.402344 255 0 0
-0.400000 -0.300000 -0.400000 1.410156 -0.597656 255 0 0
-0.400000 -0.300000 -0.150000 1.410156 -0.847656 255 0 0
-0.400000 -0.300000 0.150000 1.410156 -1.148438 255 0 0
0.400000 0.500000 0.400000 0.601562 -0.992188 255 0 0
0.400000 -0.300000 0.400000 0.601562 -1.804688 255 0 0
-0.400000 -0.300000 0.150000 0.656250 -1.804688 255 0 0
-0.400000 -0.030000 0.150000 0.656250 -1.535156 255 0 0
-0.400000 -0.030000 -0.150000 0.355469 -1.535156 255 0 0
-0.400000 -0.300000 -0.150000 0.355469 -1.804688 255 0 0
-0.400000 -0.300000 -0.400000 0.101562 -1.804688 255 0 0
-0.400000 0.500000 -0.400000 0.101562 -0.992188 255 0 0
-0.400000 0.421964 -0.392314 0.113281 -1.074219 255 0 0
-0.400000 0.346927 -0.369552 0.136719 -1.148438 255 0 0
-0.400000 0.277772 -0.332588 0.179688 -1.226562 255 0 0
-0.400000 0.217157 -0.282843 0.214844 -1.289062 255 0 0
-0.400000 0.167412 -0.222228 0.273438 -1.332031 255 0 0
-0.400000 0.130448 -0.153073 0.355469 -1.375000 255 0 0
-0.400000 0.107686 -0.078036 0.421875 -1.394531 255 0 0
-0.400000 0.100000 0.000000 0.500000 -1.402344 255 0 0
-0.400000 0.500000 0.400000 0.906250 -0.992188 255 0 0
-0.400000 0.500000 0.400000 0.906250 -0.992188 255 0 0
-0.400000 0.421964 0.392314 0.898438 -1.074219 255 0 0
-0.400000 0.500000 0.400000 0.906250 -0.992188 255 0 0
-0.400000 0.107686 0.078036 0.574219 -1.394531 255 0 0
-0.400000 0.130448 0.153073 0.656250 -1.375000 255 0 0
-0.400000 0.346927 0.369552 0.871094 -1.148438 255 0 0
-0.400000 0.167412 0.222228 0.718750 -1.332031 255 0 0
-0.900000 0.500000 -0.400000 1.906250 -0.992188 255 0 0
-0.900000 0.217157 -0.282843 1.906250 -0.714844 255 0 0
-0.900000 0.500000 0.400000 0.906250 -0.992188 255 255 255
0.500000 0.500000 0.500000 1.000000 1.003906 255 0 0
-0.900000 -0.330000 0.150000 0.656250 -1.839844 255 0 0
-0.900000 -0.330000 -0.150000 0.355469 -1.839844 255 0 0
-0.900000 0.500000 0.500000 1.000000 -0.992188 255 0 0
-0.900000 0.500000 0.400000 0.906250 -0.992188 255 0 0
-0.900000 0.500000 0.400000 0.906250 -0.992188 255 0 0
-0.900000 0.421964 0.392314 0.898438 -1.074219 255 0 0
-0.900000 0.107686 0.078036 0.574219 -1.394531 255 0 0
-0.900000 0.100000 0.000000 0.500000 -1.402344 255 0 0
-0.900000 -0.030000 0.150000 0.656250 -1.535156 255 0 0
-0.900000 0.346927 0.369552 0.871094 -1.148438 255 0 0
-0.900000 0.130448 0.153073 0.656250 -1.375000 255 0 0
-0.900000 0.167412 0.222228 0.718750 -1.332031 255 0 0
-0.900000 -0.030000 -0.150000 0.355469 -1.535156 255 0 0
-0.900000 0.107686 -0.078036 0.421875 -1.394531 255 0 0
-0.900000 0.500000 -0.400000 0.101562 -0.992188 255 0 0
-0.900000 0.500000 -0.500000 0.003906 -0.992188 255 0 0
-0.900000 0.421964 -0.392314 0.113281 -1.074219 255 0 0
-0.900000 0.346927 -0.369552 0.136719 -1.148438 255 0 0
-0.900000 0.130448 -0.153073 0.355469 -1.375000 255 0 0
-0.900000 0.167412 -0.222228 0.273438 -1.332031 255 0 0
0.500000 0.500000 -0.500000 -1.500000 1.003906 255 0 0
-0.900000 0.500000 0.500000 1.906250 1.003906 255 0 0
-0.900000 -0.500000 -0.500000 1.906250 -0.496094 255 0 0
-0.220000 -0.330000 -0.150000 0.355469 -1.839844 255 0 0
-0.220000 -0.300000 0.150000 1.234375 -1.804688 255 0 0
-0.220000 -0.330000 0.150000 1.234375 -1.839844 255 0 0
-0.900000 -0.330000 0.150000 1.906250 -1.839844 255 0 0
-0.220000 -0.330000 0.150000 -0.769531 -1.148438 255 0 0
-0.400000 -0.030000 -0.150000 -0.593750 -1.535156 255 0 0
-0.900000 -0.030000 -0.150000 -0.093750 -1.535156 255 0 0
-0.900000 -0.330000 -0.150000 -0.093750 -1.839844 255 0 0
-0.400000 -0.030000 -0.150000 -0.593750 -0.847656 255 0 0
3 0 1 2
3 3 4 5
3 6 7 8
3 9 10 11
3 12 13 14
3 4 15 16
3 16 17 18
3 19 17 20
3 19 21 22
3 23 24 25
3 25 26 27
3 27 28 29
3 29 30 31
3 31 32 33
3 33 34 35
3 36 34 37
3 36 38 39
3 40 38 41
3 40 42 43
3 43 44 45
3 45 46 47
3 48 49 50
3 51 52 53
3 54 55 56
3 57 58 59
3 60 61 62
3 63 64 65
3 66 67 68
3 69 70 71
3 72 73 74
3 75 76 77
3 78 79 80
3 81 82 83
3 0 84 1
3 3 85 4
3 86 87 8
3 87 6 8
3 6 88 7
3 88 89 7
3 8 90 86
3 91 92 11
3 92 9 11
3 12 93 94
3 95 96 97
3 97 98 99
3 97 99 100
3 97 100 101
3 97 101 102
3 95 97 102
3 95 102 103
3 95 103 104
3 95 104 105
3 94 95 106
3 95 105 106
3 107 108 109
3 108 12 109
3 109 110 107
3 94 106 111
3 94 111 112
3 113 109 12
3 12 94 13
3 94 112 114
3 94 114 13
3 14 113 12
3 4 115 15
3 16 15 17
3 19 18 17
3 19 20 21
3 23 116 24
3 25 24 26
3 27 26 28
3 29 28 30
3 31 30 32
3 33 32 34
3 36 35 34
3 36 37 38
3 40 39 38
3 40 41 42
3 43 42 44
3 45 44 46
3 48 117 49
3 51 118 52
3 119 120 59
3 121 122 123
3 121 123 124
3 119 59 54
3 125 126 127
3 127 119 54
3 54 121 55
3 121 124 128
3 121 128 55
3 125 127 129
3 127 54 56
3 129 127 130
3 130 127 56
3 131 127 126
3 131 126 132
3 59 120 131
3 133 134 135
3 134 59 58
3 135 134 136
3 136 134 58
3 59 131 57
3 131 132 137
3 131 137 138
3 131 138 57
3 60 139 61
3 63 140 64
3 66 141 67
3 69 142 70
3 143 144 74
3 144 145 74
3 145 72 74
3 75 146 76
3 147 148 80
3 148 149 80
3 149 78 80
3 81 150 82
