ply
format ascii 1.0
comment Created by Blender 2.79 (sub 0) - www.blender.org, source file: 'glassmaker.blend'
element vertex 215
property float x
property float y
property float z
property float s
property float t
property uchar red
property uchar green
property uchar blue
element face 176
property list uchar uint vertex_indices
end_header
-0.900000 -0.500000 -0.500000 0.000000 0.000000 255 255 255
0.500000 -0.500000 -0.500000 0.000000 0.000000 255 255 255
-0.900000 -0.500000 -0.500000 0.000000 0.000000 255 255 255
0.500000 -0.500000 -0.500000 0.484375 0.003906 0 255 0
-0.900000 -0.402455 -0.490393 0.402344 1.000000 0 255 0
0.500000 -0.402455 -0.490393 0.402344 0.003906 0 255 0
0.500000 -0.500000 -0.500000 0.000000 0.000000 0 255 0
0.500000 -0.222215 -0.415735 0.000000 0.000000 0 255 0
0.500000 -0.084265 0.277786 0.000000 0.000000 0 255 0
-0.900000 -0.009607 -0.097545 0.417969 0.472656 0 255 0
-0.900000 -0.130448 -0.153073 0.359375 0.355469 0 255 0
-0.900000 -0.107686 -0.078036 0.429688 0.378906 0 255 0
-0.900000 -0.308658 -0.461940 0.324219 1.000000 0 255 0
0.500000 -0.308658 -0.461940 0.324219 0.003906 0 255 0
0.500000 -0.402456 0.490393 0.402344 0.003906 0 255 0
-0.900000 -0.500000 0.500000 0.484375 1.000000 0 255 0
0.500000 -0.500000 0.500000 0.484375 0.003906 0 255 0
-0.900000 -0.308659 0.461940 0.324219 1.000000 0 255 0
0.500000 -0.308659 0.461940 0.324219 0.003906 0 255 0
-0.900000 -0.222216 0.415735 0.253906 1.000000 0 255 0
0.500000 -0.222215 0.415735 0.253906 0.003906 0 255 0
0.500000 -0.146447 0.353554 0.187500 0.003906 0 255 0
-0.900000 -0.084266 0.277786 0.718750 1.000000 0 255 0
0.500000 -0.146447 0.353554 0.785156 0.003906 0 255 0
0.500000 -0.084265 0.277786 0.718750 0.003906 0 255 0
-0.900000 -0.038061 0.191342 0.648438 1.000000 0 255 0
0.500000 -0.038060 0.191342 0.648438 0.003906 0 255 0
-0.900000 -0.009608 0.097546 0.570312 1.000000 0 255 0
0.500000 -0.009607 0.097546 0.570312 0.003906 0 255 0
-0.900000 -0.000000 0.000000 0.484375 1.000000 0 255 0
0.500000 0.000000 0.000000 0.484375 0.003906 0 255 0
-0.900000 -0.009607 -0.097545 0.402344 1.000000 0 255 0
0.500000 -0.009607 -0.097545 0.402344 0.003906 0 255 0
-0.900000 -0.038060 -0.191341 0.324219 1.000000 0 255 0
0.500000 -0.038060 -0.191341 0.324219 0.003906 0 255 0
-0.900000 -0.084265 -0.277785 0.253906 1.000000 0 255 0
0.500000 -0.084265 -0.277785 0.253906 0.003906 0 255 0
-0.900000 -0.146446 -0.353553 0.187500 1.000000 0 255 0
0.500000 -0.146446 -0.353553 0.187500 0.003906 0 255 0
-0.900000 -0.222215 -0.415735 0.253906 1.000000 0 255 0
0.500000 -0.222215 -0.415735 0.253906 0.003906 0 255 0
0.400000 -0.500000 -0.400000 0.000000 0.000000 255 255 255
-0.900000 -0.500000 -0.400000 0.000000 0.000000 255 255 255
-0.900000 -0.500000 -0.400000 0.000000 0.000000 255 255 255
-0.900000 -0.500000 -0.400000 0.000000 0.000000 255 255 255
0.400000 -0.500000 -0.400000 0.000000 0.000000 255 255 255
-0.900000 -0.500000 -0.400000 0.480469 1.000000 0 255 0
0.400000 -0.421964 -0.392314 0.410156 0.000000 0 255 0
-0.900000 -0.421964 -0.392314 0.410156 1.000000 0 255 0
-0.900000 -0.346927 -0.369552 0.351562 1.000000 0 255 0
0.400000 -0.346926 -0.369552 0.351562 0.000000 0 255 0
-0.900000 -0.277772 -0.332588 0.296875 1.000000 0 255 0
0.400000 -0.277772 -0.332588 0.296875 0.000000 0 255 0
0.400000 -0.217157 -0.282843 0.234375 0.000000 0 255 0
-0.900000 -0.217157 -0.282843 0.234375 1.000000 0 255 0
0.400000 -0.167412 -0.222228 0.296875 0.000000 0 255 0
-0.900000 -0.167412 -0.222228 0.296875 1.000000 0 255 0
0.400000 -0.130448 -0.153073 0.351562 0.000000 0 255 0
-0.900000 -0.130448 -0.153073 0.351562 1.000000 0 255 0
0.400000 -0.107686 -0.078036 0.410156 0.000000 0 255 0
-0.900000 -0.107686 -0.078036 0.410156 1.000000 0 255 0
0.400000 -0.100000 0.000000 0.480469 0.000000 0 255 0
-0.900000 -0.100000 0.000000 0.480469 1.000000 0 255 0
0.400000 -0.107686 0.078037 0.550781 0.000000 0 255 0
-0.900000 -0.107686 0.078037 0.550781 1.000000 0 255 0
0.400000 -0.130448 0.153074 0.613281 0.000000 0 255 0
-0.900000 -0.130448 0.153074 0.613281 1.000000 0 255 0
-0.900000 -0.167412 0.222229 0.667969 1.000000 0 255 0
0.400000 -0.167412 0.222229 0.667969 0.000000 0 255 0
0.400000 -0.217158 0.282843 0.730469 0.000000 0 255 0
-0.900000 -0.217158 0.282843 0.730469 1.000000 0 255 0
-0.900000 -0.217158 0.282843 0.234375 1.000000 0 255 0
0.400000 -0.277772 0.332588 0.296875 0.000000 0 255 0
-0.900000 -0.277772 0.332588 0.296875 1.000000 0 255 0
0.400000 -0.346927 0.369552 0.351562 0.000000 0 255 0
-0.900000 -0.346927 0.369552 0.351562 1.000000 0 255 0
0.400000 -0.421964 0.392314 0.410156 0.000000 0 255 0
-0.900000 -0.421965 0.392314 0.410156 1.000000 0 255 0
0.400000 -0.500000 0.400000 0.480469 0.000000 0 255 0
-0.900000 -0.500000 0.400000 0.480469 1.000000 0 255 0
0.400000 -0.130448 0.153074 0.687500 0.460938 0 255 0
0.400000 -0.130448 -0.153073 0.316406 0.460938 0 255 0
0.400000 -0.346926 -0.369552 0.046875 0.191406 0 255 0
0.500000 -0.250000 0.500000 0.000000 0.281250 255 0 0
0.500000 -0.500000 1.400000 1.000000 0.000000 255 0 0
0.500000 -0.500000 0.500000 0.000000 0.000000 255 0 0
-0.500000 -0.500000 1.400000 1.000000 0.000000 255 0 0
0.500000 -0.500000 0.500000 0.000000 1.000000 255 0 0
0.500000 -0.500000 1.400000 0.000000 0.000000 255 0 0
-0.500000 -0.250000 0.500000 1.000000 0.281250 255 0 0
-0.500000 -0.500000 0.500000 1.000000 0.000000 255 0 0
0.500000 -0.250000 1.400000 1.000000 0.000000 255 0 0
-0.500000 -0.250000 0.500000 0.000000 1.000000 255 0 0
-0.500000 -0.250000 1.400000 0.000000 0.000000 255 0 0
0.340000 -0.425000 1.400000 0.171875 0.078125 255 0 0
-0.360000 -0.425000 1.400000 0.863281 0.078125 255 0 0
-0.500000 -0.250000 1.400000 1.000000 0.281250 255 0 0
-0.360000 -0.375000 1.400000 0.863281 0.140625 255 0 0
0.340000 -0.375000 1.400000 0.171875 0.140625 255 0 0
-0.500000 -0.500000 0.500000 0.000000 0.000000 255 0 0
0.340000 -0.375000 1.400000 0.437500 0.200000 255 0 0
0.340000 -0.425000 1.355000 0.462500 0.177500 255 0 0
0.340000 -0.425000 1.400000 0.462500 0.200000 255 0 0
0.340000 -0.425000 1.400000 0.200000 0.580000 255 0 0
-0.360000 -0.425000 1.355000 0.177500 0.930000 255 0 0
-0.360000 -0.425000 1.400000 0.200000 0.930000 255 0 0
0.340000 -0.425000 1.355000 0.462500 0.580000 255 0 0
-0.360000 -0.375000 1.355000 0.437500 0.930000 255 0 0
-0.360000 -0.425000 1.355000 0.462500 0.930000 255 0 0
-0.360000 -0.375000 1.400000 0.200000 0.930000 255 0 0
0.340000 -0.375000 1.355000 0.177500 0.580000 255 0 0
0.340000 -0.375000 1.400000 0.200000 0.580000 255 0 0
-0.360000 -0.425000 1.400000 0.462500 0.200000 255 0 0
-0.360000 -0.375000 1.355000 0.437500 0.177500 255 0 0
-0.360000 -0.375000 1.400000 0.437500 0.200000 255 0 0
0.500000 -0.750000 0.500000 0.000000 1.000000 255 0 0
0.500000 -1.000000 1.500000 1.000000 0.750000 255 0 0
0.500000 -1.000000 0.500000 0.000000 0.750000 255 0 0
0.500000 -0.750000 1.500000 0.000000 1.000000 255 0 0
-0.500000 -1.000000 1.500000 1.000000 0.750000 255 0 0
0.500000 -1.000000 1.500000 0.000000 0.750000 255 0 0
-0.500000 -0.750000 1.500000 1.000000 1.000000 255 0 0
-0.500000 -1.000000 0.500000 0.000000 0.750000 255 0 0
-0.500000 -0.750000 0.500000 1.000000 1.000000 255 0 0
-0.500000 -1.000000 0.500000 1.000000 0.750000 255 0 0
-0.500000 -1.000000 1.500000 1.000000 0.000000 255 0 0
0.500000 -1.000000 0.500000 0.000000 1.000000 255 0 0
0.500000 -1.000000 1.500000 0.000000 0.000000 255 0 0
0.500000 -0.750000 1.500000 1.000000 0.000000 255 0 0
-0.500000 -0.750000 0.500000 0.000000 1.000000 255 0 0
-0.500000 -0.750000 1.500000 0.000000 0.000000 255 0 0
0.500000 -0.500000 -0.500000 0.000000 0.000000 255 255 255
-0.900000 -0.500000 -0.500000 0.484375 1.000000 0 255 0
0.500000 -0.500000 -0.500000 0.000000 0.000000 0 255 0
0.500000 -0.402455 -0.490393 0.000000 0.000000 0 255 0
0.500000 -0.308658 -0.461940 0.000000 0.000000 0 255 0
0.500000 -0.146446 -0.353553 0.000000 0.000000 0 255 0
0.500000 -0.084265 -0.277785 0.000000 0.000000 0 255 0
0.500000 -0.038060 -0.191341 0.000000 0.000000 0 255 0
0.500000 -0.009607 -0.097545 0.000000 0.000000 0 255 0
0.500000 0.000000 0.000000 0.000000 0.000000 0 255 0
0.500000 -0.009607 0.097546 0.000000 0.000000 0 255 0
0.500000 -0.038060 0.191342 0.000000 0.000000 0 255 0
0.500000 -0.146447 0.353554 0.000000 0.000000 0 255 0
0.500000 -0.402456 0.490393 0.000000 0.000000 0 255 0
0.500000 -0.222215 0.415735 0.000000 0.000000 0 255 0
0.500000 -0.308659 0.461940 0.000000 0.000000 0 255 0
0.500000 -0.500000 0.500000 0.000000 0.000000 0 255 0
-0.900000 -0.500000 0.400000 0.859375 0.023438 0 255 0
-0.900000 -0.500000 0.500000 0.957031 0.023438 0 255 0
-0.900000 -0.402456 0.490393 0.949219 0.109375 0 255 0
-0.900000 -0.308659 0.461940 0.921875 0.195312 0 255 0
-0.900000 -0.421965 0.392314 0.855469 0.093750 0 255 0
-0.900000 -0.222216 0.415735 0.878906 0.277344 0 255 0
-0.900000 -0.346927 0.369552 0.828125 0.164062 0 255 0
-0.900000 -0.146447 0.353554 0.816406 0.347656 0 255 0
-0.900000 -0.217158 0.282843 0.753906 0.277344 0 255 0
-0.900000 -0.084266 0.277786 0.753906 0.402344 0 255 0
-0.900000 -0.167412 0.222229 0.699219 0.324219 0 255 0
-0.900000 -0.038061 0.191342 0.675781 0.441406 0 255 0
-0.900000 -0.009608 0.097546 0.582031 0.472656 0 255 0
-0.900000 -0.130448 0.153074 0.640625 0.355469 0 255 0
-0.900000 -0.000000 0.000000 0.500000 0.476562 0 255 0
-0.900000 -0.100000 0.000000 0.500000 0.382812 0 255 0
-0.900000 -0.038060 -0.191341 0.324219 0.441406 0 255 0
-0.900000 -0.084265 -0.277785 0.246094 0.402344 0 255 0
-0.900000 -0.146446 -0.353553 0.183594 0.347656 0 255 0
-0.900000 -0.217157 -0.282843 0.246094 0.277344 0 255 0
-0.900000 -0.222215 -0.415735 0.121094 0.277344 0 255 0
-0.900000 -0.277772 -0.332588 0.195312 0.222656 0 255 0
-0.900000 -0.308658 -0.461940 0.078125 0.195312 0 255 0
-0.900000 -0.402455 -0.490393 0.050781 0.109375 0 255 0
-0.900000 -0.346927 -0.369552 0.171875 0.164062 0 255 0
-0.900000 -0.500000 -0.500000 0.042969 0.023438 0 255 0
-0.900000 -0.500000 -0.400000 0.140625 0.023438 0 255 0
-0.900000 -0.500000 -0.500000 0.042969 0.023438 0 255 0
-0.900000 -0.500000 -0.400000 0.140625 0.023438 0 255 0
-0.900000 -0.500000 -0.400000 0.140625 0.023438 0 255 0
-0.900000 -0.421964 -0.392314 0.144531 0.093750 0 255 0
-0.900000 -0.277772 0.332588 0.804688 0.222656 0 255 0
-0.900000 -0.167412 -0.222228 0.300781 0.324219 0 255 0
-0.900000 -0.107686 0.078037 0.570312 0.378906 0 255 0
-0.900000 -0.402456 0.490393 0.402344 1.000000 0 255 0
-0.900000 -0.146447 0.353554 0.187500 1.000000 0 255 0
-0.900000 -0.146447 0.353554 0.785156 1.000000 0 255 0
0.400000 -0.500000 -0.400000 0.480469 0.000000 0 255 0
0.400000 -0.217158 0.282843 0.234375 0.000000 0 255 0
0.400000 -0.346927 0.369552 0.957031 0.191406 0 255 0
0.400000 -0.277772 0.332588 0.910156 0.277344 0 255 0
0.400000 -0.217158 0.282843 0.851562 0.355469 0 255 0
0.400000 -0.167412 0.222229 0.777344 0.414062 0 255 0
0.400000 -0.107686 0.078037 0.593750 0.492188 0 255 0
0.400000 -0.100000 0.000000 0.496094 0.500000 0 255 0
0.400000 -0.107686 -0.078036 0.402344 0.492188 0 255 0
0.400000 -0.167412 -0.222228 0.226562 0.414062 0 255 0
0.400000 -0.217157 -0.282843 0.152344 0.355469 0 255 0
0.400000 -0.277772 -0.332588 0.093750 0.277344 0 255 0
0.400000 -0.421964 -0.392314 0.015625 0.093750 0 255 0
0.400000 -0.500000 -0.400000 0.003906 0.000000 0 255 0
0.400000 -0.500000 -0.400000 0.003906 0.000000 0 255 0
0.400000 -0.500000 0.400000 1.000000 0.000000 0 255 0
0.400000 -0.421964 0.392314 0.988281 0.093750 0 255 0
0.500000 -0.250000 1.400000 1.000000 0.281250 255 0 0
-0.500000 -0.500000 0.500000 1.000000 1.000000 255 0 0
0.500000 -0.250000 0.500000 1.000000 1.000000 255 0 0
0.500000 -0.250000 1.400000 0.000000 0.281250 255 0 0
-0.500000 -0.250000 0.500000 0.000000 0.281250 255 0 0
0.340000 -0.375000 1.355000 0.437500 0.177500 255 0 0
0.340000 -0.425000 1.355000 0.177500 0.580000 255 0 0
0.340000 -0.375000 1.355000 0.437500 0.580000 255 0 0
-0.360000 -0.375000 1.355000 0.177500 0.930000 255 0 0
-0.360000 -0.425000 1.355000 0.462500 0.177500 255 0 0
0.500000 -0.750000 1.500000 1.000000 1.000000 255 0 0
-0.500000 -1.000000 0.500000 1.000000 1.000000 255 0 0
0.500000 -0.750000 0.500000 1.000000 1.000000 255 0 0
3 0 1 2
3 3 4 5
3 6 7 8
3 9 10 11
3 5 12 13
3 14 15 16
3 17 14 18
3 19 18 20
3 21 19 20
3 22 23 24
3 25 24 26
3 27 26 28
3 29 28 30
3 31 30 32
3 33 32 34
3 35 34 36
3 37 36 38
3 39 38 40
3 13 39 40
3 41 42 43
3 44 42 45
3 46 47 48
3 49 47 50
3 51 50 52
3 51 53 54
3 54 55 56
3 56 57 58
3 58 59 60
3 60 61 62
3 62 63 64
3 64 65 66
3 67 65 68
3 67 69 70
3 71 72 73
3 73 74 75
3 75 76 77
3 77 78 79
3 80 81 82
3 83 84 85
3 86 87 88
3 89 85 90
3 91 92 93
3 86 94 95
3 96 97 98
3 96 99 86
3 100 101 102
3 103 104 105
3 106 107 108
3 109 110 111
3 112 113 114
3 115 116 117
3 118 119 120
3 121 122 119
3 123 117 124
3 125 126 127
3 128 129 130
3 0 131 1
3 3 132 4
3 6 133 134
3 134 135 6
3 135 7 6
3 7 136 137
3 137 138 139
3 139 140 8
3 140 141 8
3 141 142 8
3 8 143 144
3 143 145 144
3 145 146 144
3 144 147 6
3 7 137 8
3 137 139 8
3 144 6 8
3 148 149 150
3 150 151 152
3 151 153 154
3 152 151 154
3 153 155 156
3 155 157 158
3 157 159 158
3 159 160 161
3 158 159 161
3 160 162 163
3 162 9 11
3 9 164 10
3 164 165 10
3 165 166 167
3 166 168 169
3 168 170 169
3 170 171 172
3 169 170 172
3 171 173 174
3 173 175 174
3 174 176 177
3 166 169 167
3 162 11 163
3 155 158 156
3 148 150 152
3 171 174 177
3 171 177 178
3 179 154 153
3 171 178 172
3 156 179 153
3 165 167 180
3 165 180 10
3 181 161 160
3 163 181 160
3 5 4 12
3 14 182 15
3 17 182 14
3 19 17 18
3 21 183 19
3 22 184 23
3 25 22 24
3 27 25 26
3 29 27 28
3 31 29 30
3 33 31 32
3 35 33 34
3 37 35 36
3 39 37 38
3 13 12 39
3 41 45 42
3 46 185 47
3 49 48 47
3 51 49 50
3 51 52 53
3 54 53 55
3 56 55 57
3 58 57 59
3 60 59 61
3 62 61 63
3 64 63 65
3 67 66 65
3 67 68 69
3 71 186 72
3 73 72 74
3 75 74 76
3 77 76 78
3 187 188 189
3 189 190 80
3 80 191 192
3 192 193 80
3 193 81 80
3 81 194 82
3 194 195 82
3 195 196 82
3 82 197 198
3 198 199 200
3 200 201 80
3 201 187 80
3 187 189 80
3 82 198 80
3 198 200 80
3 83 202 84
3 86 203 87
3 89 83 85
3 91 204 92
3 86 88 94
3 95 97 86
3 97 96 86
3 94 88 98
3 88 205 98
3 205 96 98
3 96 206 99
3 100 207 101
3 103 208 104
3 106 209 107
3 109 210 110
3 112 211 113
3 115 212 116
3 118 121 119
3 121 129 122
3 123 115 117
3 125 213 126
3 128 214 129
