ply
format ascii 1.0
comment Created by Blender 2.79 (sub 0) - www.blender.org, source file: 'grapes.blend'
element vertex 176
property float x
property float y
property float z
property float s
property float t
property uchar red
property uchar green
property uchar blue
element face 92
property list uchar uint vertex_indices
end_header
-0.300000 -0.601334 -0.300000 0.445372 0.507753 255 0 0
-0.200000 -0.601334 -0.200000 0.304628 0.648497 255 0 0
-0.300000 -0.601334 -0.200000 0.445372 0.648497 255 0 0
-0.300000 2.398667 -0.200000 0.445372 0.648497 255 0 0
-0.200000 2.398667 -0.300000 0.304628 0.507753 255 0 0
-0.300000 2.398667 -0.300000 0.445372 0.507753 255 0 0
-0.300000 2.398667 -0.200000 0.460937 1.003906 255 0 0
-0.300000 -0.601334 -0.300000 0.305991 0.503906 255 0 0
-0.300000 -0.601334 -0.200000 0.460938 0.503906 255 0 0
-0.300000 2.398667 -0.300000 0.460937 1.000000 255 0 0
-0.200000 -0.601334 -0.300000 0.305991 0.500000 255 0 0
-0.300000 -0.601334 -0.300000 0.460938 0.500000 255 0 0
-0.200000 2.398667 -0.300000 0.542969 0.933594 255 0 0
-0.200000 -0.601334 -0.200000 0.697915 0.433594 255 0 0
-0.200000 -0.601334 -0.300000 0.542969 0.433594 255 0 0
-0.300000 -0.601334 -0.200000 0.460938 0.003906 255 0 0
-0.200000 2.398667 -0.200000 0.305991 0.503906 255 0 0
-0.300000 2.398667 -0.200000 0.460938 0.503906 255 0 0
0.200000 -0.601334 -0.300000 0.445372 0.507753 255 0 0
0.300000 -0.601334 -0.200000 0.304628 0.648497 255 0 0
0.200000 -0.601334 -0.200000 0.445372 0.648497 255 0 0
0.300000 2.398667 -0.200000 0.304628 0.648497 255 0 0
0.200000 2.398667 -0.300000 0.445372 0.507753 255 0 0
0.200000 2.398667 -0.200000 0.445372 0.648497 255 0 0
0.200000 2.398667 -0.200000 0.460937 1.003906 255 0 0
0.200000 -0.601334 -0.300000 0.305991 0.503906 255 0 0
0.200000 -0.601334 -0.200000 0.460938 0.503906 255 0 0
0.200000 2.398667 -0.300000 0.460937 1.000000 255 0 0
0.300000 -0.601334 -0.300000 0.305991 0.500000 255 0 0
0.200000 -0.601334 -0.300000 0.460938 0.500000 255 0 0
0.300000 2.398667 -0.300000 0.542969 0.933594 255 0 0
0.300000 -0.601334 -0.200000 0.697915 0.433594 255 0 0
0.300000 -0.601334 -0.300000 0.542969 0.433594 255 0 0
0.200000 -0.601334 -0.200000 0.460938 0.003906 255 0 0
0.300000 2.398667 -0.200000 0.305991 0.503906 255 0 0
0.200000 2.398667 -0.200000 0.460938 0.503906 255 0 0
-0.300000 -0.601334 0.200000 0.445372 0.507753 255 0 0
-0.200000 -0.601334 0.300000 0.304628 0.648497 255 0 0
-0.300000 -0.601334 0.300000 0.445372 0.648497 255 0 0
-0.300000 2.398667 0.300000 0.445372 0.648497 255 0 0
-0.200000 2.398667 0.200000 0.304628 0.507753 255 0 0
-0.300000 2.398667 0.200000 0.445372 0.507753 255 0 0
-0.300000 2.398667 0.300000 0.460937 1.003906 255 0 0
-0.300000 -0.601334 0.200000 0.305991 0.503906 255 0 0
-0.300000 -0.601334 0.300000 0.460938 0.503906 255 0 0
-0.300000 2.398667 0.200000 0.460937 1.000000 255 0 0
-0.200000 -0.601334 0.200000 0.305991 0.500000 255 0 0
-0.300000 -0.601334 0.200000 0.460938 0.500000 255 0 0
-0.200000 2.398667 0.200000 0.542969 0.933594 255 0 0
-0.200000 -0.601334 0.300000 0.697915 0.433594 255 0 0
-0.200000 -0.601334 0.200000 0.542969 0.433594 255 0 0
-0.300000 -0.601334 0.300000 0.460938 0.003906 255 0 0
-0.200000 2.398667 0.300000 0.305991 0.503906 255 0 0
-0.300000 2.398667 0.300000 0.460938 0.503906 255 0 0
0.200000 -0.601334 0.200000 0.445372 0.507753 255 0 0
0.300000 -0.601334 0.300000 0.304628 0.648497 255 0 0
0.200000 -0.601334 0.300000 0.445372 0.648497 255 0 0
0.200000 2.398667 0.300000 0.445372 0.648497 255 0 0
0.300000 2.398667 0.200000 0.304628 0.507753 255 0 0
0.200000 2.398667 0.200000 0.445372 0.507753 255 0 0
0.200000 2.398667 0.300000 0.460937 1.003906 255 0 0
0.200000 -0.601334 0.200000 0.305991 0.503906 255 0 0
0.200000 -0.601334 0.300000 0.460938 0.503906 255 0 0
0.200000 2.398667 0.200000 0.460937 1.000000 255 0 0
0.300000 -0.601334 0.200000 0.305991 0.500000 255 0 0
0.200000 -0.601334 0.200000 0.460938 0.500000 255 0 0
0.300000 2.398667 0.200000 0.542969 0.933594 255 0 0
0.300000 -0.601334 0.300000 0.697915 0.433594 255 0 0
0.300000 -0.601334 0.200000 0.542969 0.433594 255 0 0
0.200000 -0.601334 0.300000 0.460938 0.003906 255 0 0
0.300000 2.398667 0.300000 0.305991 0.503906 255 0 0
0.200000 2.398667 0.300000 0.460938 0.503906 255 0 0
-0.200000 -0.601334 -0.300000 0.304628 0.507753 255 0 0
-0.200000 2.398667 -0.200000 0.304628 0.648497 255 0 0
-0.300000 2.398667 -0.300000 0.305991 1.003906 255 0 0
-0.200000 2.398667 -0.300000 0.305991 1.000000 255 0 0
-0.200000 2.398667 -0.200000 0.697915 0.933594 255 0 0
-0.200000 -0.601334 -0.200000 0.305991 0.003906 255 0 0
0.300000 -0.601334 -0.300000 0.304628 0.507753 255 0 0
0.300000 2.398667 -0.300000 0.304628 0.507753 255 0 0
0.200000 2.398667 -0.300000 0.305991 1.003906 255 0 0
0.300000 2.398667 -0.300000 0.305991 1.000000 255 0 0
0.300000 2.398667 -0.200000 0.697915 0.933594 255 0 0
0.300000 -0.601334 -0.200000 0.305991 0.003906 255 0 0
-0.200000 -0.601334 0.200000 0.304628 0.507753 255 0 0
-0.200000 2.398667 0.300000 0.304628 0.648497 255 0 0
-0.300000 2.398667 0.200000 0.305991 1.003906 255 0 0
-0.200000 2.398667 0.200000 0.305991 1.000000 255 0 0
-0.200000 2.398667 0.300000 0.697915 0.933594 255 0 0
-0.200000 -0.601334 0.300000 0.305991 0.003906 255 0 0
0.300000 -0.601334 0.200000 0.304628 0.507753 255 0 0
0.300000 2.398667 0.300000 0.304628 0.648497 255 0 0
0.200000 2.398667 0.200000 0.305991 1.003906 255 0 0
0.300000 2.398667 0.200000 0.305991 1.000000 255 0 0
0.300000 2.398667 0.300000 0.697915 0.933594 255 0 0
0.300000 -0.601334 0.300000 0.305991 0.003906 255 0 0
0.999915 2.258667 0.210000 0.445372 0.507753 255 0 0
0.999915 2.338667 0.290000 0.304628 0.648497 255 0 0
0.999915 2.258667 0.290000 0.445372 0.648497 255 0 0
-0.999915 2.258667 0.290000 0.445372 0.648497 255 0 0
-0.999915 2.338667 0.210000 0.304628 0.507753 255 0 0
-0.999915 2.258667 0.210000 0.445372 0.507753 255 0 0
-0.999915 2.258667 0.290000 0.460937 1.003906 255 0 0
0.999915 2.258667 0.210000 0.305991 0.503906 255 0 0
0.999915 2.258667 0.290000 0.460938 0.503906 255 0 0
-0.999915 2.258667 0.210000 0.460937 1.000000 255 0 0
0.999915 2.338667 0.210000 0.305991 0.500000 255 0 0
0.999915 2.258667 0.210000 0.460938 0.500000 255 0 0
-0.999915 2.338667 0.210000 0.542969 0.933594 255 0 0
0.999915 2.338667 0.290000 0.697915 0.433594 255 0 0
0.999915 2.338667 0.210000 0.542969 0.433594 255 0 0
0.999915 2.258667 0.290000 0.460938 0.003906 255 0 0
-0.999915 2.338667 0.290000 0.305991 0.503906 255 0 0
-0.999915 2.258667 0.290000 0.460938 0.503906 255 0 0
0.999915 2.258667 -0.290000 0.445372 0.507753 255 0 0
0.999915 2.338667 -0.210000 0.304628 0.648497 255 0 0
0.999915 2.258667 -0.210000 0.445372 0.648497 255 0 0
-0.999915 2.258667 -0.210000 0.445372 0.648497 255 0 0
-0.999915 2.338667 -0.290000 0.304628 0.507753 255 0 0
-0.999915 2.258667 -0.290000 0.445372 0.507753 255 0 0
-0.999915 2.258667 -0.210000 0.460937 1.003906 255 0 0
0.999915 2.258667 -0.290000 0.305991 0.503906 255 0 0
0.999915 2.258667 -0.210000 0.460938 0.503906 255 0 0
-0.999915 2.258667 -0.290000 0.460937 1.000000 255 0 0
0.999915 2.338667 -0.290000 0.305991 0.500000 255 0 0
0.999915 2.258667 -0.290000 0.460938 0.500000 255 0 0
-0.999915 2.338667 -0.290000 0.542969 0.933594 255 0 0
0.999915 2.338667 -0.210000 0.697915 0.433594 255 0 0
0.999915 2.338667 -0.290000 0.542969 0.433594 255 0 0
0.999915 2.258667 -0.210000 0.460938 0.003906 255 0 0
-0.999915 2.338667 -0.210000 0.305991 0.503906 255 0 0
-0.999915 2.258667 -0.210000 0.460938 0.503906 255 0 0
0.999915 2.338667 0.210000 0.304628 0.507753 255 0 0
-0.999915 2.338667 0.290000 0.304628 0.648497 255 0 0
-0.999915 2.258667 0.210000 0.305991 1.003906 255 0 0
-0.999915 2.338667 0.210000 0.305991 1.000000 255 0 0
-0.999915 2.338667 0.290000 0.697915 0.933594 255 0 0
0.999915 2.338667 0.290000 0.305991 0.003906 255 0 0
0.999915 2.338667 -0.290000 0.304628 0.507753 255 0 0
-0.999915 2.338667 -0.210000 0.304628 0.648497 255 0 0
-0.999915 2.258667 -0.290000 0.305991 1.003906 255 0 0
-0.999915 2.338667 -0.290000 0.305991 1.000000 255 0 0
-0.999915 2.338667 -0.210000 0.697915 0.933594 255 0 0
0.999915 2.338667 -0.210000 0.305991 0.003906 255 0 0
-0.000000 -0.136333 0.073056 0.625000 0.500331 0 255 0
-0.043301 -0.586333 0.025000 0.679651 0.449255 0 255 0
-0.000000 -0.586333 0.050000 0.625000 0.449255 0 255 0
-0.063268 -0.136333 0.036528 0.656553 0.500331 0 255 0
-0.043301 -0.586333 -0.025000 0.593447 0.449255 0 255 0
-0.043301 -0.586333 0.025000 0.656553 0.449255 0 255 0
-0.063268 -0.136333 -0.036528 0.679651 0.500331 0 255 0
-0.000000 -0.586333 -0.050000 0.625000 0.449255 0 255 0
-0.043301 -0.586333 -0.025000 0.679651 0.449255 0 255 0
-0.000000 -0.136333 -0.073056 0.625000 0.500331 0 255 0
0.043301 -0.586333 -0.025000 0.570349 0.449255 0 255 0
0.063268 -0.136333 -0.036528 0.570349 0.543235 0 255 0
-0.000000 -0.136333 -0.073056 0.625000 0.538127 0 255 0
-0.063268 -0.136333 -0.036528 0.679651 0.543235 0 255 0
0.063268 -0.136333 -0.036528 0.593447 0.500331 0 255 0
0.043301 -0.586333 0.025000 0.656553 0.449255 0 255 0
0.043301 -0.586333 -0.025000 0.593447 0.449255 0 255 0
0.063268 -0.136333 0.036528 0.570349 0.500331 0 255 0
0.043301 -0.586333 0.025000 0.570349 0.449255 0 255 0
0.043301 -0.586333 -0.025000 0.570349 0.543235 0 255 0
0.043301 -0.586333 0.025000 0.570349 0.553450 0 255 0
-0.043301 -0.586333 0.025000 0.679651 0.553450 0 255 0
-0.063268 -0.136333 0.036528 0.679651 0.500331 0 255 0
-0.063268 -0.136333 -0.036528 0.593447 0.500331 0 255 0
0.063268 -0.136333 -0.036528 0.570349 0.500331 0 255 0
-0.063268 -0.136333 0.036528 0.679651 0.553450 0 255 0
-0.000000 -0.136333 0.073056 0.625000 0.558558 0 255 0
0.063268 -0.136333 0.036528 0.570349 0.553450 0 255 0
0.063268 -0.136333 0.036528 0.656553 0.500331 0 255 0
-0.000000 -0.586333 0.050000 0.625000 0.558558 0 255 0
-0.043301 -0.586333 -0.025000 0.679651 0.543235 0 255 0
-0.000000 -0.586333 -0.050000 0.625000 0.538127 0 255 0
3 0 1 2
3 3 4 5
3 6 7 8
3 9 10 11
3 12 13 14
3 15 16 17
3 18 19 20
3 21 22 23
3 24 25 26
3 27 28 29
3 30 31 32
3 33 34 35
3 36 37 38
3 39 40 41
3 42 43 44
3 45 46 47
3 48 49 50
3 51 52 53
3 54 55 56
3 57 58 59
3 60 61 62
3 63 64 65
3 66 67 68
3 69 70 71
3 0 72 1
3 3 73 4
3 6 74 7
3 9 75 10
3 12 76 13
3 15 77 16
3 18 78 19
3 21 79 22
3 24 80 25
3 27 81 28
3 30 82 31
3 33 83 34
3 36 84 37
3 39 85 40
3 42 86 43
3 45 87 46
3 48 88 49
3 51 89 52
3 54 90 55
3 57 91 58
3 60 92 61
3 63 93 64
3 66 94 67
3 69 95 70
3 96 97 98
3 99 100 101
3 102 103 104
3 105 106 107
3 108 109 110
3 111 112 113
3 114 115 116
3 117 118 119
3 120 121 122
3 123 124 125
3 126 127 128
3 129 130 131
3 96 132 97
3 99 133 100
3 102 134 103
3 105 135 106
3 108 136 109
3 111 137 112
3 114 138 115
3 117 139 118
3 120 140 121
3 123 141 124
3 126 142 127
3 129 143 130
3 144 145 146
3 147 148 149
3 150 151 152
3 153 154 151
3 155 156 157
3 158 159 160
3 161 146 162
3 163 164 165
3 144 166 145
3 147 167 148
3 150 153 151
3 153 168 154
3 157 169 155
3 169 170 155
3 170 171 155
3 158 172 159
3 161 144 146
3 164 173 165
3 165 174 175
3 175 163 165
