ply
format ascii 1.0
comment Created by Blender 2.79 (sub 0) - www.blender.org, source file: 'grapes.blend'
element vertex 763
property float x
property float y
property float z
property float s
property float t
property uchar red
property uchar green
property uchar blue
element face 541
property list uchar uint vertex_indices
end_header
0.322442 1.065000 -0.115665 0.254441 0.166667 255 0 0
0.369008 1.065000 -0.162231 0.000000 0.223481 255 0 0
0.570753 1.065000 -0.045753 0.000000 1.000000 255 0 0
0.445753 1.065000 0.170753 1.000000 0.000000 255 0 0
0.441506 1.155000 0.168301 0.980385 0.299999 255 0 0
0.229247 1.065000 0.045753 0.000000 0.000000 255 0 0
0.300000 1.315000 -0.076795 0.433974 0.166667 255 0 0
0.441506 1.315000 0.168301 1.000000 0.983654 255 0 0
0.421230 1.315000 -0.132081 0.000000 0.424485 255 0 0
0.570753 1.065000 -0.045753 0.000000 0.000000 255 0 0
0.445753 1.315000 0.170753 1.000000 0.833333 255 0 0
0.670698 1.465000 -0.429925 3.353153 2.402102 255 0 0
0.714110 1.215000 -0.183723 1.451051 0.500000 255 0 0
0.670698 1.215000 -0.429925 3.353153 0.500000 255 0 0
0.421230 1.215000 -0.132081 -2.353154 2.504631 255 0 0
0.439522 1.215000 -0.232746 -1.623055 2.605904 255 0 0
0.476777 1.215000 -0.270000 -1.393138 2.729037 255 0 0
0.300000 1.350000 -0.364561 0.576088 -0.573973 255 0 0
0.200184 1.350000 -0.346961 0.576087 -0.863159 255 0 0
0.149209 1.404999 -0.337973 0.994547 -1.010841 255 0 0
-0.177237 1.464999 -0.026555 3.277068 -1.351752 255 0 0
-0.001747 1.475000 -0.330513 3.353154 -2.353154 255 0 0
-0.501747 1.474999 0.535513 3.353154 0.500000 255 0 0
-0.718253 1.474999 0.410513 1.451051 2.402102 255 0 0
-0.501747 1.224999 0.535513 -0.451051 0.500000 255 0 0
-0.501747 1.474999 0.535513 1.451051 0.500000 255 0 0
-0.218253 1.474999 -0.455513 3.353153 2.402102 255 0 0
-0.114641 1.404999 -0.395692 2.442876 1.869513 255 0 0
-0.218253 1.224999 -0.455513 3.353153 0.500000 255 0 0
-0.443815 1.224999 0.118044 -1.146734 1.614169 255 0 0
-0.367299 1.224999 0.059477 -1.428100 1.868037 255 0 0
-0.376777 1.224999 0.200000 -1.900232 1.507299 255 0 0
-0.218253 1.474999 -0.455513 -2.353153 0.500000 255 0 0
-0.501747 1.474999 0.535513 -0.451052 -2.353154 255 0 0
-0.001747 1.475000 -0.330513 -0.451051 0.500000 255 0 0
-0.200000 1.395000 0.023223 0.000000 0.833333 255 0 0
-0.023223 1.345020 0.200000 1.000000 0.666733 255 0 0
-0.200000 1.345020 0.023223 0.000000 0.666733 255 0 0
-0.333198 1.394999 0.243578 1.000000 0.372097 255 0 0
-0.023223 1.395000 0.200000 0.000000 1.000000 255 0 0
-0.214140 1.395000 0.037363 0.079988 0.166667 255 0 0
-0.333198 1.224999 0.243578 0.246516 0.266666 255 0 0
-0.376777 1.224999 0.200000 0.000000 0.266667 255 0 0
-0.376777 1.144999 0.200000 0.000000 0.000000 255 0 0
-0.376777 1.394999 0.200000 1.000000 0.833333 255 255 255
-0.301777 1.315307 0.125000 0.575736 0.567690 255 255 255
-0.376777 1.224999 0.200000 1.000000 0.266667 255 255 255
-0.553433 1.305000 0.125035 0.157627 -1.412637 255 0 0
-0.718253 1.474999 0.410513 1.451051 -2.353154 255 0 0
-0.461307 1.345019 -0.034531 0.462111 -0.886942 255 0 0
0.300000 1.315000 -0.076795 0.766297 -0.973672 255 0 0
0.282231 1.215000 -0.107571 0.005453 -1.075066 255 0 0
0.282231 1.405000 -0.107571 1.451051 -1.075066 255 0 0
0.282231 1.405000 -0.107571 -2.353153 -1.075065 255 0 0
0.341747 1.405000 0.495513 -0.451051 0.500000 255 0 0
0.558253 1.405000 0.370513 -2.353153 0.500000 255 0 0
0.341747 1.405000 0.495513 1.451051 2.402102 255 0 0
0.558253 1.155000 0.370513 3.353153 0.500000 255 0 0
0.558253 1.405000 0.370513 3.353153 2.402102 255 0 0
0.300000 1.155000 -0.076795 -0.451052 1.879482 255 0 0
0.229247 1.155000 0.045753 -1.383448 2.081352 255 0 0
0.176777 1.155000 -0.000000 -1.555123 1.893447 255 0 0
0.000000 1.095020 0.176777 3.353154 0.057818 255 0 0
-0.075000 1.095020 0.101777 2.546160 0.057817 255 0 0
-0.075000 0.908845 0.101777 2.546161 -0.473368 255 0 0
-0.034835 1.345020 0.391942 -0.451051 0.500000 255 0 0
-0.102459 1.345020 0.279235 -0.693593 0.136186 255 0 0
-0.125000 1.345020 0.301777 -0.451051 0.136186 255 0 0
0.125000 -1.325000 0.125000 0.000000 1.000000 255 0 0
-0.125000 -1.325000 -0.125000 1.000000 0.166667 255 0 0
0.125000 -1.325000 -0.125000 0.000000 0.166667 255 0 0
-0.121777 1.095020 0.305000 -1.997258 -2.338944 255 0 0
-0.121777 1.100000 0.305000 -1.997258 -2.353153 255 0 0
-0.325000 1.100000 0.305000 -0.451052 -2.353154 255 0 0
-0.149097 1.095020 -0.027680 -0.710333 2.276052 255 0 0
-0.176777 1.095020 -0.000000 -1.008164 2.276052 255 0 0
-0.349247 1.095019 -0.045753 -1.689896 1.835791 255 0 0
-0.332724 0.300000 -0.259072 -2.353154 0.500000 255 0 0
-0.100928 -0.700000 -0.352724 -0.451051 3.353154 255 0 0
-0.332724 -0.700000 -0.259072 -2.353154 3.353154 255 0 0
-0.565753 1.095019 -0.170753 0.000000 0.133398 255 0 0
-0.349247 1.055000 -0.045753 1.000000 0.000000 255 0 0
-0.565753 1.055000 -0.170753 0.000000 0.000000 255 0 0
-0.121777 1.100000 0.305000 1.451051 2.046206 255 0 0
-0.325000 1.100000 0.101777 -0.095155 0.500000 255 0 0
-0.325000 1.100000 0.305000 1.451051 0.500000 255 0 0
-0.239072 -0.700000 -0.027276 -0.451051 0.500000 255 0 0
-0.118103 -0.700000 -0.076151 -1.443719 0.500000 255 0 0
-0.118103 -0.100000 -0.076151 -1.443719 -1.211893 255 0 0
0.300000 1.350000 -0.093224 1.451051 0.500000 255 0 0
0.300000 1.350000 -0.110704 1.357005 0.594047 255 0 0
0.285139 1.350000 -0.108084 1.291152 0.500000 255 0 0
0.325000 0.800000 0.125000 1.451051 2.402102 255 0 0
0.325000 0.800000 -0.118223 -0.399491 2.402102 255 0 0
0.300000 0.800000 -0.093224 -0.209282 2.211892 255 0 0
0.325000 0.800000 -0.118223 -0.720049 -0.783919 255 0 0
0.325000 0.350000 -0.118223 -0.720049 0.500000 255 0 0
0.476777 0.350000 -0.270000 -2.353153 0.500000 255 0 0
-0.325000 1.095020 0.101777 1.806948 0.485790 255 0 0
-0.325000 0.100000 0.055000 1.451052 -2.353154 255 0 0
-0.325000 0.100000 0.305000 3.353154 -2.353154 255 0 0
-0.034835 1.345020 0.391942 1.451051 2.402102 255 0 0
0.141942 1.095020 0.215165 3.353153 0.500000 255 0 0
0.141942 1.345020 0.215165 3.353153 2.402102 255 0 0
-0.121777 0.250000 0.055000 -0.806948 2.925181 255 0 0
-0.075000 0.100000 0.055000 -0.451051 3.353154 255 0 0
-0.325000 0.100000 0.055000 -2.353154 3.353154 255 0 0
-0.502771 1.305000 0.037287 0.594709 0.695214 255 255 255
-0.474247 1.305000 0.170753 1.000000 1.000000 255 255 255
-0.394372 1.305000 0.032405 0.360998 1.000000 255 255 255
0.075000 -0.100000 0.101036 3.170827 -2.067838 255 0 0
0.075000 0.800000 0.125000 3.353154 0.500000 255 0 0
0.075000 0.250000 0.101777 3.176460 -1.069235 255 0 0
-0.045753 -1.100000 0.170753 1.451051 2.402102 255 0 0
-0.072169 -1.100000 0.125000 1.451051 2.000141 255 0 0
0.033494 -1.099999 0.125000 2.147269 2.402102 255 0 0
0.300000 1.350000 -0.446777 -0.451051 -2.353153 255 0 0
0.476777 0.350000 -0.270000 1.451052 0.499999 255 0 0
0.300000 0.350000 -0.446777 -0.451051 0.500000 255 0 0
0.051777 1.250000 0.125000 0.728102 0.136186 255 0 0
-0.111389 1.345020 -0.038165 1.451051 -0.522181 255 0 0
0.141942 1.345020 0.215165 1.451052 0.499999 255 0 0
-0.577384 1.095019 -0.150608 0.093049 0.133398 255 0 0
-0.125000 1.145000 0.301777 1.831320 -1.989341 255 0 0
-0.181614 1.145000 0.245163 1.831320 -1.760905 255 0 0
-0.121777 1.100000 0.305000 1.488943 -2.002347 255 0 0
-0.125000 -1.325000 0.125000 1.000000 0.000000 255 0 0
0.033494 -1.099999 0.125000 0.366025 0.750002 255 0 0
-0.072169 -1.100000 0.125000 0.788675 0.750001 255 0 0
0.125000 -1.075000 0.125000 0.000000 1.000000 255 0 0
0.125000 -1.075000 0.072169 0.000000 0.823896 255 0 0
0.033494 -1.075000 0.125000 0.366025 1.000000 255 0 0
0.125000 -1.099999 0.072169 2.951192 2.402102 255 0 0
0.125000 -1.099999 -0.033494 3.353153 1.705885 255 0 0
0.170753 -1.099999 0.045753 3.353153 2.402102 255 0 0
0.072169 -1.099999 -0.125000 3.353153 0.901961 255 0 0
-0.033494 -1.099999 -0.125000 2.656935 0.500000 255 0 0
0.045753 -1.099999 -0.170753 3.353153 0.500000 255 0 0
-0.125000 -1.100000 -0.072169 1.853013 0.500000 255 0 0
-0.125000 -1.100000 0.033494 1.451051 1.196219 255 0 0
-0.170753 -1.100000 -0.045753 1.451051 0.500000 255 0 0
-0.072169 -1.075000 0.125000 0.788675 1.000000 255 0 0
-0.125000 -1.075000 0.033494 1.000000 0.694979 255 0 0
-0.125000 -1.075000 0.125000 1.000000 1.000000 255 0 0
-0.125000 -1.075000 -0.072169 1.000000 0.342771 255 0 0
-0.033494 -1.075000 -0.125000 0.633975 0.166667 255 0 0
-0.125000 -1.075000 -0.125000 1.000000 0.166667 255 0 0
0.072169 -1.075000 -0.125000 0.211325 0.166667 255 0 0
0.125000 -1.075000 -0.033494 0.000000 0.471688 255 0 0
0.125000 -1.075000 -0.125000 0.000000 0.166667 255 0 0
-0.075000 0.100000 0.305000 3.353153 2.402102 255 0 0
-0.325000 0.100000 0.055000 1.451051 0.500000 255 0 0
-0.075000 0.100000 0.055000 3.353153 0.500000 255 0 0
0.075000 0.800000 -0.125000 -2.353154 0.500000 255 0 0
0.268223 0.800000 -0.125000 -0.883032 0.500000 255 0 0
0.268223 0.350000 -0.125000 -0.883031 1.783920 255 0 0
-0.118103 -0.700000 -0.076151 2.443719 2.402102 255 0 0
-0.239072 -0.700000 -0.027276 1.451051 2.402102 255 0 0
-0.332724 -0.700000 -0.259072 1.451051 0.500000 255 0 0
0.325000 -0.200000 0.125000 -2.353153 0.500000 255 0 0
0.075000 0.800000 0.125000 -0.451052 -2.353154 255 0 0
0.075000 -0.200000 0.125000 -0.451051 0.500000 255 0 0
0.075000 -0.200000 0.125000 1.451051 2.402102 255 0 0
0.075000 -0.200000 0.101036 1.451051 2.219776 255 0 0
0.170753 -0.200000 0.045753 2.179579 1.799159 255 0 0
-0.125000 -1.100000 -0.072169 0.211325 0.750000 255 0 0
-0.125000 -1.075000 -0.072169 0.211325 0.833333 255 0 0
-0.125000 -1.075000 -0.125000 0.000000 0.833333 255 0 0
0.033494 -1.075000 0.125000 -1.147269 0.428673 255 0 0
0.125000 -1.075000 0.072169 -1.951192 0.428673 255 0 0
0.075000 -0.200000 0.101036 -1.511922 -2.067842 255 0 0
-0.072169 -1.075000 0.125000 2.951192 -2.281826 255 0 0
-0.072169 -1.100000 0.125000 2.951192 -2.353154 255 0 0
-0.045753 -1.100000 0.170753 3.353154 -2.353154 255 0 0
0.072169 -1.075000 -0.125000 -0.049089 0.428673 255 0 0
0.045753 -1.099999 -0.170753 -0.451051 0.500000 255 0 0
0.075000 -0.200000 -0.120096 -0.006006 -2.067873 255 0 0
-0.041375 0.300000 -0.135402 1.251759 2.202810 255 0 0
-0.100928 0.300000 -0.352724 -0.451051 2.402102 255 0 0
-0.332724 0.300000 -0.259072 -0.451051 0.500000 255 0 0
0.476777 0.350000 -0.270000 3.353153 2.402102 255 0 0
0.325000 0.350000 -0.118223 1.720049 2.402102 255 0 0
0.325000 0.350000 -0.125000 1.756507 2.365644 255 0 0
0.325000 0.350000 -0.118223 -0.399492 -1.069235 255 0 0
0.325000 0.800000 0.125000 1.451051 -2.353154 255 0 0
0.325000 -0.200000 0.125000 1.451052 0.499999 255 0 0
0.268223 0.800000 -0.125000 3.011240 -1.069234 255 0 0
0.285140 1.215000 -0.108084 3.193255 0.114823 255 0 0
0.277558 1.155000 -0.115665 3.111682 -0.056366 255 0 0
0.075000 -0.100000 0.101036 1.451051 1.560870 255 0 0
0.075000 -0.100000 -0.120096 -0.006006 2.402102 255 0 0
-0.007276 -0.100000 -0.120928 -0.324482 1.863142 255 0 0
-0.565753 1.055000 -0.170753 0.000000 0.166667 255 0 0
-0.474247 1.055000 0.170753 1.000000 1.000000 255 0 0
-0.690753 1.055000 0.045753 1.000000 0.166667 255 0 0
-0.741942 1.345019 -0.315165 1.451051 0.500000 255 0 0
-0.565165 1.095019 -0.491942 -0.451051 2.402102 255 0 0
-0.741942 1.095019 -0.315165 -0.451051 0.500000 255 0 0
-0.543529 1.224999 0.130753 0.679997 0.566664 255 0 0
-0.553433 1.305000 0.125035 0.634256 0.833333 255 0 0
-0.690753 1.305000 0.045753 0.000000 0.833333 255 0 0
-0.443815 1.224999 0.118044 0.756546 0.566665 255 0 0
-0.474247 1.055000 0.170753 1.000000 0.000000 255 0 0
-0.394371 1.095019 0.032405 0.360998 0.133398 255 0 0
0.072169 -1.099999 -0.125000 0.211325 0.750002 255 0 0
0.072169 -1.075000 -0.125000 0.211325 0.833333 255 0 0
0.125000 -1.075000 -0.125000 0.000000 0.833333 255 0 0
0.125000 -1.099999 0.072169 0.788675 0.750002 255 0 0
0.125000 -1.075000 0.072169 0.788675 0.833333 255 0 0
0.125000 -1.075000 0.125000 1.000000 0.833333 255 0 0
-0.170753 -1.100000 -0.045753 -2.353154 3.353154 255 0 0
-0.170753 -0.100000 -0.045753 -2.353154 0.500000 255 0 0
-0.118103 -0.700000 -0.076151 -1.890595 2.211893 255 0 0
-0.239072 -0.700000 -0.027276 3.353154 -2.353154 255 0 0
-0.332724 0.300000 -0.259072 1.451052 0.500000 255 0 0
-0.332724 -0.700000 -0.259072 1.451052 -2.353154 255 0 0
-0.177237 1.345020 -0.026555 -1.936427 -0.631604 255 0 0
-0.214140 1.345020 0.037363 -1.394015 -0.577102 255 0 0
-0.200000 1.345020 0.023223 -1.546160 -0.577102 255 0 0
-0.125000 -1.325000 0.125000 1.000000 1.000000 255 0 0
-0.325000 0.100000 0.305000 -0.451051 0.500000 255 0 0
-0.075000 0.100000 0.305000 -2.353153 0.500000 255 0 0
-0.075000 1.095020 0.305000 -2.353154 -2.338944 255 0 0
-0.034835 1.095020 0.391942 -2.353154 3.353154 255 0 0
-0.121777 1.095020 0.305000 -2.353154 3.002347 255 0 0
-0.075000 1.095020 0.305000 -2.101497 3.096718 255 0 0
0.141942 1.095020 0.215165 -0.451051 3.353154 255 0 0
0.000000 1.095020 0.176777 -1.008164 2.989340 255 0 0
-0.577384 1.095019 -0.150608 -2.353154 1.163985 255 0 0
-0.741942 1.095019 -0.315165 -2.353154 0.500000 255 0 0
-0.565753 1.095019 -0.170753 -2.182196 1.146807 255 0 0
-0.565165 1.095019 -0.491942 -0.451052 0.500000 255 0 0
-0.325000 1.095020 0.055000 -2.101497 2.087976 255 0 0
-0.325000 1.095020 0.101777 -2.353154 2.182347 255 0 0
-0.394371 1.095019 0.032405 -2.353154 1.902435 255 0 0
-0.125000 1.095020 -0.051777 -0.451052 2.276052 255 0 0
-0.100928 0.300000 -0.352724 -0.451052 0.500000 255 0 0
-0.349247 1.095019 -0.045753 1.000000 0.133399 255 0 0
-0.007276 -0.100000 -0.120928 -2.353154 -1.211892 255 0 0
-0.021130 0.250000 -0.115331 -2.239474 -2.210495 255 0 0
-0.239072 0.300000 -0.027276 -0.451052 -2.353154 255 0 0
0.321223 1.350000 -0.114447 1.451051 0.728360 255 0 0
0.176777 0.800000 -0.000000 0.500000 1.274358 255 0 0
0.075000 0.800000 0.125000 1.451051 0.500000 255 0 0
0.075000 0.800000 -0.125000 -0.451051 0.500000 255 0 0
0.173863 0.800000 -0.002913 0.477834 1.252193 255 0 0
0.268223 0.800000 -0.125000 -0.451051 1.970123 255 0 0
0.476777 1.215000 -0.270000 -2.353154 -1.967976 255 0 0
0.300000 1.350000 -0.093224 -0.451052 -2.353154 255 0 0
0.300000 0.800000 -0.093224 -0.451051 -0.783920 255 0 0
-0.325000 1.100000 0.305000 3.353154 0.500000 255 0 0
-0.325000 1.100000 0.101777 1.806948 0.500000 255 0 0
-0.325000 1.095020 0.055000 1.451052 0.485790 255 0 0
-0.034835 1.095020 0.391942 1.451051 0.500000 255 0 0
-0.325000 1.095020 0.055000 -2.353154 0.514210 255 0 0
-0.121777 1.095020 0.055000 -0.806948 0.514210 255 0 0
-0.121777 0.286175 0.055000 -0.806948 2.821968 255 0 0
-0.461307 1.305000 -0.034531 0.262997 0.695214 255 255 255
0.075000 0.800000 -0.125000 1.451052 0.500000 255 0 0
0.075000 -0.200000 -0.125000 1.451052 -2.353154 255 0 0
0.075000 -0.100000 -0.120096 1.488362 -2.067838 255 0 0
0.075000 -0.200000 -0.120096 1.488363 -2.353154 255 0 0
0.075000 -0.200000 0.101036 3.170828 -2.353154 255 0 0
0.075000 -0.200000 0.125000 3.353154 -2.353154 255 0 0
0.075000 0.250000 0.013133 2.502026 -1.069235 255 0 0
0.075000 0.250000 -0.101777 1.627744 -1.069235 255 0 0
0.369892 1.215000 -0.376885 0.300979 -1.967977 255 0 0
0.141942 1.095020 0.215165 -0.451051 0.500000 255 0 0
0.051777 1.095020 0.125000 -0.451051 0.136187 255 0 0
0.051777 1.126898 0.125000 -0.208508 0.136187 255 0 0
-0.690753 1.055000 0.045753 1.000000 0.000000 255 0 0
-0.690753 1.305000 0.045753 1.000000 0.833333 255 0 0
-0.577384 1.305000 -0.150608 0.093049 0.833333 255 0 0
-0.394372 1.305000 0.032405 3.048669 -0.902435 255 255 255
-0.394372 1.224999 0.032405 2.439992 -0.902435 255 255 255
-0.367299 1.224999 0.059477 2.439992 -1.011670 255 255 255
-0.394371 1.095019 0.032405 1.451052 -0.902435 255 0 0
-0.325000 1.095020 0.101777 1.451052 -1.182347 255 0 0
-0.325000 1.100000 0.101777 1.488944 -1.182347 255 0 0
-0.741942 1.095019 -0.315165 1.451052 0.500000 255 0 0
-0.577384 1.095019 -0.150608 1.451052 -0.163985 255 0 0
-0.577384 1.305000 -0.150608 3.048670 -0.163985 255 0 0
-0.301777 1.235366 0.125000 2.518863 -1.276052 255 255 255
-0.741942 1.345019 -0.315165 3.353154 0.500000 255 0 0
-0.461307 1.312707 -0.034531 3.107308 -0.632352 255 0 0
-0.121777 1.095020 0.305000 1.451052 -2.002347 255 0 0
-0.034835 1.095020 0.391942 1.451052 -2.353154 255 0 0
-0.034835 1.345020 0.391942 3.353154 -2.353154 255 0 0
-0.125000 1.345020 0.301777 3.353154 -1.989341 255 0 0
-0.125000 1.334983 0.301777 3.276795 -1.989341 255 0 0
-0.072169 -1.075000 0.125000 0.788675 0.833333 255 0 0
-0.125000 -1.075000 0.125000 1.000000 0.833333 255 0 0
0.125000 -1.325000 0.125000 0.000000 0.000000 255 0 0
0.125000 -1.075000 0.125000 0.000000 0.833333 255 0 0
0.033494 -1.075000 0.125000 0.366025 0.833333 255 0 0
-0.325000 0.100000 0.305000 1.451051 2.402102 255 0 0
0.325000 0.350000 -0.125000 -0.451052 1.783920 255 0 0
0.325000 -0.200000 -0.125000 -0.451051 3.353154 255 0 0
0.075000 -0.200000 -0.125000 -2.353154 3.353154 255 0 0
-0.100928 -0.700000 -0.352724 3.353153 0.500000 255 0 0
-0.013569 -0.700000 -0.136503 3.353153 2.274290 255 0 0
0.325000 0.800000 0.125000 -2.353154 -2.353153 255 0 0
0.075000 -0.200000 -0.120096 1.451051 0.537311 255 0 0
0.325000 -0.200000 -0.125000 3.353153 0.500000 255 0 0
0.075000 -0.200000 -0.125000 1.451051 0.500000 255 0 0
0.325000 -0.200000 0.125000 3.353153 2.402102 255 0 0
-0.125000 -1.325000 -0.125000 0.000000 0.000000 255 0 0
-0.125000 -1.100000 0.033494 0.633975 0.750001 255 0 0
-0.125000 -1.075000 0.033494 0.633975 0.833333 255 0 0
-0.013569 -0.700000 -0.136503 1.323239 0.500000 255 0 0
-0.100928 -0.700000 -0.352724 -0.451051 0.500000 255 0 0
-0.013569 -0.100000 -0.136503 1.323239 -1.211893 255 0 0
-0.100928 0.300000 -0.352724 -0.451051 -2.353153 255 0 0
-0.021254 0.250000 -0.155523 1.167164 -2.210496 255 0 0
0.075000 -0.100000 0.101036 -1.511921 -2.353154 255 0 0
-0.045753 -0.100000 0.170753 -0.451052 -2.353154 255 0 0
-0.045753 -1.100000 0.170753 -0.451051 0.500000 255 0 0
0.033494 -1.099999 0.125000 -1.147269 0.500000 255 0 0
0.125000 -1.099999 0.072169 -1.951192 0.500000 255 0 0
0.170753 -1.099999 0.045753 -2.353153 0.500000 255 0 0
0.170753 -0.200000 0.045753 -2.353154 -2.067837 255 0 0
-0.170753 -0.100000 -0.045753 1.451052 0.500000 255 0 0
-0.170753 -1.100000 -0.045753 1.451052 -2.353154 255 0 0
-0.125000 -1.075000 0.033494 2.147271 -2.281826 255 0 0
-0.125000 -1.100000 0.033494 2.147270 -2.353154 255 0 0
-0.045753 -0.100000 0.170753 3.353154 0.500000 255 0 0
0.170753 -0.200000 0.045753 1.451051 -2.067838 255 0 0
0.170753 -1.099999 0.045753 1.451052 0.499999 255 0 0
0.125000 -1.075000 -0.033494 0.754835 0.428673 255 0 0
0.125000 -1.099999 -0.033494 0.754834 0.500000 255 0 0
0.045753 -0.100000 -0.170753 -0.451051 -2.353153 255 0 0
0.075000 -0.100000 -0.120096 -0.006007 -2.353154 255 0 0
0.072169 -1.099999 -0.125000 -0.049090 0.500000 255 0 0
-0.239072 0.300000 -0.027276 1.451051 0.500000 255 0 0
0.268223 0.350000 -0.125000 1.451051 2.060189 255 0 0
0.300000 0.350000 -0.446777 3.353153 0.500000 255 0 0
0.123223 0.350000 -0.270000 1.451051 0.500000 255 0 0
0.325000 -0.200000 -0.125000 -0.451051 0.500000 255 0 0
0.325000 0.350000 -0.125000 -0.451051 -1.069234 255 0 0
0.325000 0.800000 -0.118223 -0.399492 -2.353153 255 0 0
0.123223 0.350000 -0.270000 1.451052 -2.353154 255 0 0
0.268223 0.350000 -0.125000 3.011240 -2.353154 255 0 0
0.300000 0.800000 -0.093224 3.353154 -1.069235 255 0 0
0.300000 1.350000 -0.093224 3.353154 0.500000 255 0 0
0.045753 -0.100000 -0.170753 -0.451051 2.402102 255 0 0
-0.013569 -0.100000 -0.136503 -0.451051 1.880930 255 0 0
-0.118103 -0.100000 -0.076151 -0.451051 0.962558 255 0 0
-0.170753 -0.100000 -0.045753 -0.451051 0.500000 255 0 0
-0.045753 -0.100000 0.170753 1.451051 0.500000 255 0 0
-0.349247 1.055000 -0.045753 0.000000 1.000000 255 0 0
-0.565165 1.345019 -0.491942 1.451051 2.402102 255 0 0
-0.690753 1.055000 0.045753 0.000000 0.000000 255 0 0
-0.394372 1.224999 0.032405 0.360998 0.566664 255 0 0
-0.349247 1.055000 -0.045753 0.000000 0.000000 255 0 0
-0.349247 1.095019 -0.045753 0.000000 0.133399 255 0 0
-0.125000 -1.325000 -0.125000 1.000000 0.000000 255 0 0
-0.125000 -1.075000 -0.125000 1.000000 0.833333 255 0 0
-0.033494 -1.099999 -0.125000 0.633975 0.750002 255 0 0
-0.033494 -1.075000 -0.125000 0.633975 0.833333 255 0 0
0.125000 -1.325000 -0.125000 0.000000 0.000000 255 0 0
0.125000 -1.325000 0.125000 1.000000 0.000000 255 0 0
0.125000 -1.099999 -0.033494 0.366026 0.750002 255 0 0
0.125000 -1.075000 -0.033494 0.366026 0.833333 255 0 0
-0.013569 -0.700000 -0.136503 -0.972224 2.211893 255 0 0
-0.013569 -0.100000 -0.136503 -0.972224 0.500000 255 0 0
0.045753 -0.100000 -0.170753 -0.451052 0.500000 255 0 0
0.045753 -1.099999 -0.170753 -0.451051 3.353154 255 0 0
-0.033494 -1.099999 -0.125000 -1.147269 3.353154 255 0 0
-0.033494 -1.075000 -0.125000 -1.147269 3.281826 255 0 0
-0.125000 -1.075000 -0.072169 -1.951191 3.281825 255 0 0
-0.125000 -1.100000 -0.072169 -1.951191 3.353154 255 0 0
-0.118103 -0.100000 -0.076151 -1.890596 0.500000 255 0 0
-0.239072 0.300000 -0.027276 3.353154 0.500000 255 0 0
-0.075000 0.908845 0.101777 -0.095155 -1.807758 255 0 0
-0.075000 1.095020 0.305000 1.451051 -2.338945 255 0 0
-0.075000 0.100000 0.305000 1.451052 0.499999 255 0 0
-0.000000 1.154999 -0.176777 -0.451052 0.771051 255 0 0
-0.021254 0.300000 -0.155523 -0.679738 3.210495 255 0 0
-0.125000 1.095020 -0.051777 -1.796041 0.942183 255 0 0
-0.021130 0.250000 -0.115331 2.908900 0.716902 255 0 0
-0.007276 0.250000 -0.120928 3.013543 0.761320 255 0 0
0.075000 0.250000 0.013133 2.734942 1.925205 255 0 0
0.038202 1.095020 0.138575 -0.597119 2.989340 255 0 0
0.051777 1.095020 0.125000 -0.451051 2.989341 255 0 0
-0.075000 0.250000 0.101777 -0.095154 0.072027 255 0 0
-0.075000 0.100000 0.055000 -0.451051 0.500000 255 0 0
-0.088778 0.250000 -0.087999 -1.684358 -2.210496 255 0 0
-0.148941 1.095020 0.027835 -1.008164 2.388367 255 0 0
-0.310815 1.214999 -0.237592 0.461804 -1.326860 255 0 0
-0.197412 1.214999 -0.124189 0.461804 -0.869282 255 0 0
-0.125000 1.095020 -0.051777 -0.451051 -0.577102 255 0 0
0.075000 0.707533 -0.101777 1.627744 0.236176 255 0 0
0.075000 0.800000 -0.101777 1.627744 0.500000 255 0 0
0.051777 1.095020 0.125000 -1.008164 -1.910972 255 0 0
0.038202 1.095020 0.138575 -0.862097 -1.910972 255 0 0
0.075000 0.800000 0.101777 -1.258046 -1.069235 255 0 0
-0.008063 0.250000 -0.122875 1.435074 -2.210496 255 0 0
-0.007276 -0.100000 -0.120928 1.451051 -1.211893 255 0 0
-0.112688 0.250000 0.055000 -0.737795 2.925181 255 0 0
-0.075000 0.250000 0.055000 -0.451051 2.925181 255 0 0
0.154034 0.800000 0.022742 0.673032 1.101326 255 0 0
0.075000 0.800000 0.101777 1.274358 0.500000 255 0 0
-0.176777 1.095020 -0.000000 1.451052 0.057818 255 0 0
-0.176777 0.250000 -0.000000 1.451052 -2.353154 255 0 0
-0.121777 0.286175 0.055000 2.042847 -2.249941 255 0 0
0.075000 0.707533 -0.101777 0.355944 -0.805411 255 0 0
-0.000000 1.154999 -0.176777 -0.451051 -2.082103 255 0 0
0.075000 0.800000 -0.101777 0.355944 -1.069235 255 0 0
-0.553433 1.305000 0.125035 1.000000 0.695214 255 0 0
-0.502771 1.305000 0.037287 0.594709 0.695214 255 0 0
-0.690753 1.305000 0.045753 1.000000 0.166667 255 0 0
0.123223 1.155000 -0.270000 1.451052 -0.056366 255 0 0
0.174633 1.154999 -0.218591 2.004210 -0.056366 255 0 0
-0.461307 1.312707 -0.034531 3.107308 -0.632352 255 255 255
-0.461307 1.305000 -0.034531 3.048670 -0.632352 255 255 255
-0.377654 1.345019 -0.179423 -1.680618 -1.344350 255 0 0
-0.741942 1.345019 -0.315165 -0.451052 -2.353154 255 0 0
-0.461307 1.345019 -0.034531 -0.451052 -1.220802 255 0 0
-0.461307 1.345019 -0.034531 3.353154 -0.632352 255 0 0
-0.331898 1.345019 -0.258674 1.451051 -1.411928 255 0 0
-0.331898 1.262547 -0.258674 0.823567 -1.411927 255 0 0
-0.565165 1.345019 -0.491942 1.451051 -2.353154 255 0 0
0.020229 1.250000 -0.061373 0.278645 1.890066 255 0 0
0.051777 1.250000 0.125000 1.451051 1.057113 255 0 0
0.099993 1.250000 0.076783 1.451051 1.575920 255 0 0
0.300000 0.350000 -0.446777 -0.451051 3.353154 255 0 0
0.164577 1.154999 -0.311354 -1.908189 1.056366 255 0 0
0.200184 1.215000 -0.346961 -1.525062 0.885177 255 0 0
-0.577384 1.305000 -0.150608 0.093049 0.166667 255 0 0
-0.331898 1.345019 -0.258674 -2.353154 -1.411927 255 0 0
-0.565165 1.345019 -0.491942 -2.353154 -2.353153 255 0 0
0.157695 1.154999 -0.304472 -1.982243 1.056366 255 0 0
0.123223 0.350000 -0.270000 -2.353154 3.353154 255 0 0
0.123223 1.155000 -0.270000 -2.353154 1.056366 255 0 0
-0.461307 1.345019 -0.034531 3.353154 -0.632352 255 255 255
-0.181614 1.145000 0.245163 0.575736 0.733119 255 0 0
-0.200000 1.145000 0.376777 1.000000 1.000000 255 0 0
-0.376777 1.144999 0.200000 1.000000 0.166667 255 0 0
-0.235041 1.345020 0.058265 -1.169119 -0.577102 255 255 255
-0.461307 1.345019 -0.034531 -0.451052 -1.220802 255 255 255
-0.301777 1.345019 0.125000 -0.451051 -0.577102 255 255 255
-0.301777 1.315307 0.125000 3.127086 -1.276052 255 255 255
-0.023223 1.395000 0.200000 0.000000 0.833333 255 0 0
-0.200000 1.395000 0.376777 1.000000 0.833333 255 0 0
-0.102459 1.345020 0.279235 0.448223 0.666733 255 0 0
-0.333198 1.394999 0.243578 1.000000 0.372097 255 255 255
-0.214140 1.395000 0.037363 0.079988 0.166667 255 255 255
-0.376777 1.394999 0.200000 1.000000 0.166667 255 255 255
-0.333198 1.224999 0.243578 0.246516 0.266666 255 255 255
-0.376777 1.394999 0.200000 0.000000 0.833333 255 255 255
-0.376777 1.224999 0.200000 0.000000 0.266667 255 255 255
-0.376777 1.224999 0.200000 1.000000 0.266667 255 0 0
-0.301777 1.145000 0.125000 0.575736 0.000000 255 0 0
-0.376777 1.144999 0.200000 1.000000 0.000000 255 0 0
-0.214140 1.395000 0.037363 0.079988 0.833333 255 255 255
-0.200000 1.345020 0.023223 0.000000 0.666733 255 255 255
-0.214140 1.345020 0.037363 0.079988 0.666733 255 255 255
0.058253 1.154999 -0.495513 -0.451051 2.402102 255 0 0
-0.158253 1.154999 -0.370513 -0.451051 0.500000 255 0 0
-0.114641 1.225000 -0.395692 0.081539 0.883153 255 0 0
-0.543529 1.224999 0.130753 0.679997 0.566664 255 255 255
-0.474247 1.224999 0.170753 1.000000 0.566665 255 255 255
-0.474247 1.305000 0.170753 1.000000 0.833333 255 255 255
-0.367299 1.224999 0.059477 2.439992 -1.011670 255 0 0
-0.301777 1.145000 0.125000 1.831320 -1.276052 255 0 0
-0.270698 1.345020 -0.010075 -1.344952 -0.786912 255 255 255
-0.377654 1.345019 -0.179423 -1.680618 -1.344350 255 255 255
-0.443815 1.224999 0.118044 0.756546 0.566665 255 255 255
-0.394372 1.305000 0.032405 0.360998 0.833333 255 255 255
-0.014061 1.464999 -0.309184 -2.353154 -1.483861 255 0 0
0.714110 1.465000 -0.183723 -0.451051 0.500000 255 0 0
0.670698 1.465000 -0.429925 -2.353153 0.500000 255 0 0
0.099993 1.250000 0.076783 2.173853 -0.973634 255 0 0
0.341747 1.155000 0.495513 1.451052 -2.353154 255 0 0
0.341747 1.405000 0.495513 3.353154 -2.353154 255 0 0
-0.158253 1.154999 -0.370513 1.451052 0.500000 255 0 0
-0.029416 1.154999 -0.147361 1.451052 -0.235183 255 0 0
-0.112794 1.214999 -0.291774 1.907556 0.240594 255 0 0
0.322442 1.065000 -0.115665 -0.692522 -1.540005 255 0 0
0.321223 1.215000 -0.114447 -0.679412 -1.967977 255 0 0
-0.314110 1.224999 -0.256277 -0.577378 2.724114 255 0 0
-0.331898 1.224999 -0.258674 -0.451052 2.704663 255 0 0
-0.218253 1.224999 -0.455513 -0.451051 3.353154 255 0 0
0.058253 1.404999 -0.495513 -2.353154 -2.353153 255 0 0
-0.114641 1.404999 -0.395692 -0.834204 -2.353154 255 0 0
-0.001747 1.404999 -0.330513 -1.330117 -2.031049 255 0 0
0.300000 1.350000 -0.364561 -0.008734 1.959786 255 0 0
0.369892 1.350000 -0.376885 0.300979 2.402102 255 0 0
0.300000 1.350000 -0.446777 -0.451051 2.402102 255 0 0
0.200184 1.350000 -0.346961 -0.451051 1.328092 255 0 0
-0.125000 1.214999 -0.051777 0.461804 -0.577102 255 0 0
-0.125000 1.189398 -0.051777 0.267017 -0.577102 255 0 0
0.058253 1.154999 -0.495513 -0.451051 -2.353153 255 0 0
0.058253 1.404999 -0.495513 1.451051 -2.353154 255 0 0
0.149209 1.214999 -0.337973 0.005453 -1.834132 255 0 0
0.200184 1.215000 -0.346961 -0.451052 1.989996 255 0 0
0.164577 1.214999 -0.311354 -0.670804 1.872307 255 0 0
0.149209 1.214999 -0.337973 -0.451052 1.842313 255 0 0
0.282231 1.215000 -0.107571 -2.353154 2.101929 255 255 255
0.277558 1.215000 -0.115665 -2.286334 2.092809 255 255 255
0.285140 1.215000 -0.108084 -2.353154 2.110354 255 255 255
0.282231 1.405000 -0.107571 2.896648 -1.101929 255 0 0
0.300000 1.350000 -0.110704 2.478190 -1.153408 255 0 0
0.321223 1.350000 -0.114447 2.478192 -1.214895 255 0 0
-0.310815 1.345019 -0.237592 1.451051 -1.326860 255 255 255
-0.331898 1.262547 -0.258674 0.823567 -1.411927 255 255 255
-0.331898 1.345019 -0.258674 1.451051 -1.411928 255 255 255
0.322442 1.215000 -0.115665 -2.345634 2.218922 255 255 255
0.321797 1.215000 -0.114548 -2.353154 2.216556 255 255 255
0.321223 1.215000 -0.114447 -2.353154 2.214895 255 255 255
0.322442 1.065000 -0.115665 0.254441 0.000000 255 0 0
0.229247 1.065000 0.045753 1.000000 0.000000 255 0 0
0.300000 1.155000 -0.076795 0.433974 0.299999 255 0 0
0.421230 1.215000 -0.132081 0.309381 0.499999 255 0 0
0.570753 1.315000 -0.045753 1.000000 0.833333 255 0 0
0.570753 1.065000 -0.045753 1.000000 0.000000 255 0 0
0.445753 1.065000 0.170753 1.000000 1.000000 255 0 0
0.229247 1.065000 0.045753 1.000000 0.166667 255 0 0
0.441506 1.315000 0.168301 0.980385 0.833333 255 0 0
0.229247 1.155000 0.045753 0.000000 0.299999 255 0 0
0.445753 1.315000 0.170753 1.000000 1.000000 255 0 0
0.570753 1.315000 -0.045753 0.000000 1.000000 255 0 0
0.321796 1.315000 -0.114548 0.259602 0.166667 255 0 0
0.570753 1.315000 -0.045753 0.000000 0.833333 255 0 0
0.714110 1.465000 -0.183723 1.451051 2.402102 255 0 0
0.670698 1.215000 -0.429925 -0.451051 3.353154 255 0 0
0.714110 1.215000 -0.183723 -2.353154 3.353154 255 0 0
0.369008 1.215000 -0.162231 -2.058246 2.372835 255 0 0
0.369892 1.215000 -0.376885 -0.451052 2.481668 255 0 0
0.670698 1.465000 -0.429925 1.451052 0.499999 255 0 0
0.670698 1.215000 -0.429925 -0.451051 0.500000 255 0 0
0.369892 1.350000 -0.376885 0.576087 -0.371486 255 0 0
0.369892 1.215000 -0.376885 -0.451051 -0.371486 255 0 0
-0.014061 1.404999 -0.309184 0.994548 -1.483862 255 0 0
-0.014061 1.464999 -0.309184 1.451051 -1.483862 255 0 0
0.200184 1.215000 -0.346961 -0.451051 -0.863157 255 0 0
0.149209 1.214999 -0.337973 -0.451051 -1.010841 255 0 0
-0.501747 1.224999 0.535513 1.451052 0.500000 255 0 0
-0.333198 1.394999 0.243578 2.744482 -0.461789 255 0 0
-0.333198 1.224999 0.243578 1.451052 -0.461789 255 0 0
-0.014061 1.404999 -0.309184 2.820565 -2.282885 255 255 255
-0.001747 1.404999 -0.330513 2.820565 -2.353154 255 255 255
-0.014061 1.464999 -0.309184 3.277068 -2.282885 255 255 255
-0.001747 1.404999 -0.330513 2.820565 -2.353154 255 0 0
-0.014061 1.464999 -0.309184 3.277068 -2.282885 255 0 0
-0.214140 1.395000 0.037363 2.744482 -1.141172 255 0 0
-0.214140 1.345020 0.037363 2.364214 -1.141172 255 0 0
-0.177237 1.345020 -0.026555 2.364213 -1.351752 255 0 0
-0.718253 1.224999 0.410513 -0.451051 2.402102 255 0 0
-0.001747 1.475000 -0.330513 1.451051 2.402102 255 0 0
-0.001747 1.404999 -0.330513 1.451051 1.869513 255 0 0
-0.114641 1.225000 -0.395692 2.442876 0.500000 255 0 0
-0.333198 1.224999 0.243578 -2.353154 1.461789 255 0 0
-0.501747 1.224999 0.535513 -2.353154 0.500000 255 0 0
-0.474247 1.224999 0.170753 -1.146734 1.440517 255 0 0
-0.718253 1.224999 0.410513 -0.451052 0.500000 255 0 0
-0.553433 1.224999 0.125035 -0.451052 1.440517 255 0 0
-0.543529 1.224999 0.130753 -0.538055 1.440516 255 0 0
-0.394372 1.224999 0.032405 -1.146733 1.896309 255 0 0
-0.301777 1.224999 0.125000 -2.109097 1.799610 255 0 0
-0.718253 1.474999 0.410513 -2.353154 -2.353153 255 0 0
-0.023223 1.395000 0.200000 1.000000 0.833333 255 0 0
-0.200000 1.395000 0.376777 1.000000 1.000000 255 0 0
-0.200000 1.395000 0.023223 0.000000 0.166667 255 0 0
-0.200000 1.145000 0.376777 1.000000 0.000000 255 0 0
-0.333198 1.394999 0.243578 0.246516 0.833333 255 0 0
-0.301777 1.345019 0.125000 0.575736 0.666733 255 255 255
-0.235041 1.345020 0.058265 0.198223 0.666734 255 255 255
-0.301777 1.235366 0.125000 0.575736 0.301221 255 255 255
-0.301777 1.224999 0.125000 0.575736 0.266666 255 255 255
-0.218253 1.474999 -0.455513 1.451052 0.499999 255 0 0
-0.218253 1.224999 -0.455513 -0.451051 0.500000 255 0 0
-0.331898 1.345019 -0.258674 0.462111 -0.148491 255 0 0
-0.331898 1.224999 -0.258674 -0.451051 -0.148491 255 0 0
-0.331898 1.262547 -0.258674 -0.165373 -0.148491 255 0 0
-0.377654 1.345019 -0.179423 0.462111 -0.409589 255 0 0
-0.461307 1.312707 -0.034531 0.216265 -0.886942 255 0 0
-0.502771 1.305000 0.037287 0.157627 -1.123548 255 0 0
-0.461307 1.305000 -0.034531 0.157627 -0.886942 255 0 0
-0.553433 1.224999 0.125035 -0.451051 -1.412637 255 0 0
-0.718253 1.224999 0.410513 -0.451051 -2.353153 255 0 0
0.558253 1.405000 0.370513 1.451052 0.499999 255 0 0
0.558253 1.155000 0.370513 -0.451051 0.500000 255 0 0
0.441506 1.315000 0.168301 0.766296 -0.166194 255 0 0
0.441506 1.155000 0.168301 -0.451051 -0.166193 255 0 0
0.277558 1.155000 -0.115665 -0.451051 -1.101731 255 255 255
0.277558 1.215000 -0.115665 0.005453 -1.101731 255 255 255
0.282231 1.215000 -0.107571 0.005453 -1.075066 255 255 255
0.300000 1.315000 -0.076795 0.766297 -0.973672 255 255 255
0.300000 1.155000 -0.076795 -0.451051 -0.973672 255 255 255
0.020229 1.404999 -0.061373 -0.451052 -1.334682 255 0 0
0.341747 1.155000 0.495513 1.451051 0.500000 255 0 0
-0.029416 1.154999 -0.147361 -2.353154 1.235184 255 0 0
-0.158253 1.154999 -0.370513 -2.353154 0.500000 255 0 0
-0.000000 1.154999 -0.176777 -2.047423 1.204463 255 0 0
0.058253 1.154999 -0.495513 -0.451052 0.500000 255 0 0
0.123223 1.155000 -0.270000 -0.880855 1.149905 255 0 0
0.164577 1.154999 -0.311354 -0.451052 1.106718 255 0 0
0.157695 1.154999 -0.304472 -0.522583 1.113906 255 0 0
0.174633 1.154999 -0.218591 -0.737687 1.350271 255 0 0
0.277558 1.155000 -0.115665 -0.451052 1.751423 255 0 0
0.341747 1.155000 0.495513 -2.353154 3.353154 255 0 0
0.099993 1.154999 0.076783 -2.353154 1.973633 255 0 0
0.558253 1.155000 0.370513 -0.451051 3.353154 255 0 0
0.441506 1.155000 0.168301 -0.451052 2.686961 255 0 0
-0.075000 0.250000 0.101777 2.546160 -2.353154 255 0 0
0.000000 0.250000 0.176777 3.353154 -2.353154 255 0 0
-0.553433 1.305000 0.125035 1.000000 0.695214 255 255 255
0.075000 0.800000 0.101777 3.176461 0.500000 255 0 0
-0.111389 1.250000 -0.038165 0.728102 -0.522181 255 0 0
-0.021254 0.300000 -0.155523 1.167164 2.402102 255 0 0
0.285139 1.350000 -0.108084 3.193254 0.500000 255 0 0
0.277558 1.215000 -0.115665 3.111683 0.114823 255 0 0
-0.553433 1.305000 0.125035 0.634256 0.833333 255 255 255
-0.474247 1.224999 0.170753 1.000000 0.566665 255 0 0
-0.023223 1.345020 0.200000 -1.546160 0.136187 255 0 0
0.141942 1.345020 0.215165 -2.353153 0.500000 255 0 0
-0.111389 1.345020 -0.038165 -2.353153 -0.522180 255 0 0
-0.075000 1.095020 0.101777 -1.008164 2.686718 255 0 0
-0.007276 0.250000 -0.120928 -2.353154 -2.210496 255 0 0
0.075000 0.800000 -0.101777 -0.274359 0.500000 255 0 0
0.439522 1.215000 -0.232746 -1.952300 -1.967977 255 0 0
0.369892 1.350000 -0.376885 0.300979 -2.353154 255 0 0
0.476777 1.215000 -0.270000 1.451051 -1.967977 255 0 0
-0.301777 1.224999 0.125000 2.439992 -1.276052 255 255 255
-0.461307 1.305000 -0.034531 3.048670 -0.632352 255 0 0
-0.021254 0.300000 -0.155523 1.167164 -2.353154 255 0 0
-0.088778 0.300000 -0.087999 1.451051 1.733307 255 0 0
-0.075000 1.095020 0.101777 -0.095155 -2.338944 255 0 0
-0.176777 0.250000 -0.000000 -2.353154 3.353154 255 0 0
-0.176777 1.095020 -0.000000 -2.353154 0.942182 255 0 0
-0.088778 0.300000 -0.087999 -1.406291 3.210495 255 0 0
-0.149097 1.095020 -0.027680 -2.055322 0.942182 255 0 0
-0.125000 1.189398 -0.051777 -1.796042 0.672907 255 0 0
-0.029416 1.154999 -0.147361 -0.767567 0.771047 255 0 0
-0.125000 1.214999 -0.051777 -1.796041 0.599862 255 0 0
-0.029416 1.214999 -0.147361 -0.767567 0.599861 255 0 0
-0.088778 0.250000 -0.087999 -1.406291 3.353154 255 0 0
-0.041375 0.300000 -0.135402 -0.896241 3.210495 255 0 0
0.000000 0.250000 -0.176777 -0.451051 3.353154 255 0 0
-0.021254 0.250000 -0.155523 -0.679738 3.353154 255 0 0
0.000000 0.250000 -0.176777 3.353153 0.500000 255 0 0
0.075000 0.250000 -0.101777 3.353153 1.306994 255 0 0
-0.008063 0.250000 -0.122875 3.019785 0.746613 255 0 0
0.075000 0.250000 0.101777 2.258045 2.402102 255 0 0
-0.075000 0.250000 0.055000 1.702708 1.343453 255 0 0
0.000000 0.250000 0.176777 1.451051 2.402102 255 0 0
-0.075000 0.250000 0.101777 1.451051 1.595109 255 0 0
-0.112688 0.250000 0.055000 1.499950 1.140695 255 0 0
-0.088778 0.250000 -0.087999 2.397913 0.500000 255 0 0
-0.121777 0.250000 0.055000 1.451051 1.091796 255 0 0
-0.176777 0.250000 -0.000000 1.451051 0.500000 255 0 0
-0.021254 0.250000 -0.155523 3.124466 0.500000 255 0 0
-0.075000 0.250000 0.055000 -0.451051 0.072027 255 0 0
-0.088778 0.250000 -0.087999 -1.684358 -2.210496 0 0 0
-0.088778 0.300000 -0.087999 -1.684358 -2.353154 0 0 0
-0.239072 0.300000 -0.027276 -0.451052 -2.353154 0 0 0
-0.121777 1.095020 0.055000 -1.008164 2.497975 255 0 0
-0.565165 1.095019 -0.491942 -0.451051 -2.353153 255 0 0
-0.310815 1.255093 -0.237592 0.766856 -1.326860 255 0 0
0.000000 0.250000 0.176777 -0.451051 0.500000 255 0 0
0.075000 0.250000 0.101777 -1.258045 0.500000 255 0 0
0.154034 0.800000 0.022742 -2.108449 -1.069234 255 0 0
0.176777 0.800000 -0.000000 -2.353154 -1.069234 255 0 0
0.176777 1.155000 -0.000000 -2.353154 -2.082103 255 0 0
0.000000 1.095020 0.176777 -0.451052 -1.910972 255 0 0
0.099993 1.154999 0.076783 -1.526972 -2.082103 255 0 0
0.099993 1.250000 0.076783 -1.526972 -2.353154 255 0 0
0.051777 1.250000 0.125000 -1.008164 -2.353154 255 0 0
0.051777 1.126898 0.125000 -1.008164 -2.001925 255 0 0
-0.007276 0.250000 -0.120928 1.451051 -2.210496 255 0 0
-0.121777 0.250000 0.055000 2.042847 -2.353154 255 0 0
-0.121777 1.095020 0.055000 2.042847 0.057818 255 0 0
-0.148941 1.095020 0.027835 1.750557 0.057818 255 0 0
0.176777 1.155000 -0.000000 1.451051 -2.082103 255 0 0
0.176777 0.800000 -0.000000 1.451051 -1.069235 255 0 0
0.173863 0.800000 -0.002913 1.419705 -1.069235 255 0 0
0.075000 0.250000 -0.101777 0.355944 0.500000 255 0 0
0.000000 0.250000 -0.176777 -0.451051 0.500000 255 0 0
-0.111389 1.250000 -0.038165 -0.304595 1.057113 255 0 0
0.164577 1.214999 -0.311354 -1.908189 0.885177 255 0 0
0.200184 1.350000 -0.346961 -1.525062 0.500000 255 0 0
0.300000 1.350000 -0.446777 -0.451052 0.500000 255 0 0
-0.461307 1.305000 -0.034531 0.262997 0.695214 255 0 0
-0.301777 1.345019 0.125000 3.353154 -1.276052 255 255 255
-0.301777 1.145000 0.125000 0.575736 0.166667 255 0 0
-0.125000 1.145000 0.301777 0.575736 1.000000 255 0 0
-0.125000 1.145000 0.301777 0.575736 0.000000 255 0 0
-0.125000 1.334983 0.301777 0.575736 0.633279 255 0 0
-0.125000 1.345020 0.301777 0.575736 0.666733 255 0 0
-0.023223 1.345020 0.200000 0.000000 0.666733 255 0 0
-0.333198 1.394999 0.243578 0.246516 0.833333 255 255 255
-0.301777 1.224999 0.125000 0.575736 0.266666 255 0 0
-0.200000 1.395000 0.023223 0.000000 0.833333 255 255 255
-0.158253 1.224999 -0.370513 0.081538 0.500000 255 0 0
-0.114641 1.404999 -0.395692 1.451051 0.883153 255 0 0
0.058253 1.404999 -0.495513 1.451051 2.402102 255 0 0
-0.394372 1.224999 0.032405 2.439992 -0.902435 255 0 0
-0.301777 1.224999 0.125000 2.439992 -1.276052 255 0 0
-0.214140 1.345020 0.037363 -1.394015 -0.577102 255 255 255
-0.270698 1.345020 -0.010075 -1.344952 -0.786912 255 0 0
-0.310815 1.345019 -0.237592 -2.353154 -1.326860 255 0 0
-0.394372 1.224999 0.032405 0.360998 0.566664 255 255 255
-0.177237 1.464999 -0.026555 -0.451052 -2.082382 255 0 0
0.020229 1.404999 -0.061373 3.353154 -0.518472 255 0 0
0.020229 1.250000 -0.061373 2.173854 -0.518472 255 0 0
0.099993 1.154999 0.076783 1.451052 -0.973633 255 0 0
-0.029416 1.214999 -0.147361 1.907556 -0.235183 255 0 0
-0.112794 1.225000 -0.291774 1.983641 0.240594 255 0 0
-0.158253 1.224999 -0.370513 1.983641 0.500000 255 0 0
0.369008 1.215000 -0.162231 -1.193567 -1.967977 255 0 0
0.369008 1.065000 -0.162231 -1.193568 -1.540004 255 0 0
0.322442 1.215000 -0.115665 -0.692521 -1.967977 255 0 0
0.321223 1.350000 -0.114447 -0.679411 -2.353154 255 0 0
-0.158253 1.224999 -0.370513 -1.169753 3.228721 255 0 0
-0.112794 1.225000 -0.291774 -1.768826 3.099018 255 0 0
-0.310815 1.224999 -0.237592 -0.670169 2.682646 255 0 0
-0.114641 1.225000 -0.395692 -1.361329 3.353154 255 0 0
-0.014061 1.404999 -0.309184 -1.167837 -1.995914 255 0 0
0.149209 1.404999 -0.337973 -2.353154 -1.834131 255 0 0
0.149209 1.404999 -0.337973 1.451051 -1.834132 255 0 0
0.164577 1.214999 -0.311354 0.005453 -1.746436 255 0 0
0.164577 1.154999 -0.311354 -0.451051 -1.746436 255 0 0
-0.177237 1.464999 -0.026555 3.353154 0.229228 255 0 0
-0.177237 1.345020 -0.026555 2.440295 0.229223 255 0 0
-0.111389 1.345020 -0.038165 2.440299 0.038454 255 0 0
-0.111389 1.250000 -0.038165 1.717350 0.038457 255 0 0
0.020229 1.250000 -0.061373 1.717350 -0.342864 255 0 0
0.020229 1.404999 -0.061373 2.896650 -0.342863 255 0 0
0.421230 1.215000 -0.132081 1.451052 -1.504631 255 0 0
0.714110 1.215000 -0.183723 1.451052 -2.353154 255 0 0
0.421230 1.315000 -0.132081 2.211885 -1.504627 255 0 0
0.714110 1.465000 -0.183723 3.353154 -2.353154 255 0 0
0.282231 1.215000 -0.107571 1.451052 -1.101929 255 0 0
0.285139 1.350000 -0.108084 2.478189 -1.110354 255 0 0
0.282231 1.215000 -0.107571 1.451052 -1.101929 255 255 255
0.285140 1.215000 -0.108084 1.451052 -1.110354 255 255 255
0.285139 1.350000 -0.108084 2.478189 -1.110354 255 255 255
0.321796 1.315000 -0.114548 2.211897 -1.216557 255 0 0
0.321223 1.215000 -0.114447 1.451052 -1.214895 255 255 255
0.321797 1.215000 -0.114548 1.451052 -1.216556 255 255 255
0.321796 1.315000 -0.114548 2.211897 -1.216557 255 255 255
0.321223 1.215000 -0.114447 1.451052 -1.214895 255 0 0
-0.310815 1.345019 -0.237592 1.451051 -1.326860 255 0 0
0.229247 1.155000 0.045753 1.000000 0.299999 255 0 0
0.300000 1.315000 -0.076795 0.433974 0.833333 255 0 0
0.321797 1.215000 -0.114548 0.259602 0.499999 255 0 0
0.300000 1.315000 -0.076795 0.433974 0.833333 255 255 255
0.321796 1.315000 -0.114548 0.259602 0.833333 255 255 255
0.321797 1.215000 -0.114548 0.259602 0.499999 255 255 255
0.322442 1.215000 -0.115665 0.254441 0.499999 255 255 255
0.300000 1.155000 -0.076795 0.433974 0.299999 255 255 255
0.322442 1.215000 -0.115665 0.254441 0.499999 255 0 0
0.369008 1.065000 -0.162231 0.068177 0.000000 255 0 0
0.369008 1.215000 -0.162231 0.068177 0.499999 255 0 0
0.421230 1.315000 -0.132081 0.309381 0.833333 255 0 0
-0.029416 1.214999 -0.147361 0.757989 1.000000 255 0 0
-0.197412 1.214999 -0.124189 0.000000 0.632062 255 0 0
-0.112794 1.214999 -0.291774 1.000000 0.421276 255 0 0
-0.314110 1.224999 -0.256277 0.061024 0.000000 255 0 0
-0.112794 1.225000 -0.291774 1.000000 0.421277 255 0 0
-0.125000 1.214999 -0.051777 0.000001 1.000000 255 0 0
-0.310815 1.214999 -0.237592 0.000000 0.055842 255 0 0
3 0 1 2
3 3 4 5
3 6 7 8
3 9 10 3
3 11 12 13
3 14 15 16
3 17 18 19
3 20 21 22
3 23 24 25
3 26 27 28
3 29 30 31
3 32 33 34
3 35 36 37
3 38 39 40
3 41 42 43
3 44 45 46
3 47 48 49
3 50 51 52
3 53 54 55
3 56 57 58
3 59 60 61
3 62 63 64
3 65 66 67
3 68 69 70
3 71 72 73
3 74 75 76
3 77 78 79
3 80 81 82
3 83 84 85
3 86 87 88
3 89 90 91
3 92 93 94
3 95 96 97
3 98 99 100
3 101 102 103
3 104 105 106
3 107 108 109
3 110 111 112
3 113 114 115
3 116 117 118
3 119 120 121
3 122 80 82
3 123 124 125
3 126 127 128
3 129 130 131
3 132 133 134
3 135 136 137
3 138 139 140
3 141 142 143
3 144 145 146
3 147 148 149
3 150 151 152
3 153 154 155
3 156 157 158
3 159 160 161
3 162 163 164
3 165 166 167
3 168 169 170
3 171 172 173
3 174 175 176
3 177 178 179
3 180 181 182
3 183 184 185
3 186 187 188
3 189 190 191
3 192 193 194
3 195 196 197
3 198 199 200
3 201 202 203
3 204 205 206
3 207 208 209
3 210 211 212
3 213 214 215
3 216 217 218
3 68 219 69
3 73 220 71
3 220 221 71
3 221 222 71
3 223 224 225
3 223 225 226
3 225 227 226
3 228 229 230
3 229 231 230
3 232 233 234
3 231 235 74
3 232 234 76
3 76 230 231
3 77 236 78
3 80 237 81
3 238 239 88
3 240 86 88
3 89 241 90
3 94 242 243
3 244 245 246
3 243 92 94
3 247 95 97
3 248 249 95
3 100 250 98
3 250 251 98
3 98 252 99
3 101 253 102
3 254 255 256
3 109 257 107
3 258 259 260
3 259 261 260
3 262 263 110
3 263 111 110
3 260 264 265
3 116 266 117
3 267 268 269
3 82 270 122
3 270 271 122
3 271 272 122
3 273 274 275
3 276 277 278
3 279 280 281
3 275 282 273
3 283 279 281
3 281 284 283
3 285 286 125
3 286 287 125
3 287 288 289
3 290 291 128
3 291 126 128
3 126 292 127
3 292 293 127
3 293 294 127
3 150 295 151
3 155 296 297
3 297 298 155
3 298 153 155
3 158 299 156
3 299 300 156
3 159 301 160
3 164 302 303
3 302 304 303
3 303 305 164
3 305 162 164
3 167 306 165
3 306 126 307
3 165 306 307
3 126 291 307
3 291 308 307
3 309 310 311
3 310 312 311
3 312 313 311
3 314 315 170
3 315 316 170
3 316 317 168
3 169 318 319
3 316 168 170
3 169 319 320
3 169 320 170
3 321 322 323
3 322 324 323
3 173 325 171
3 325 321 323
3 171 325 323
3 326 327 328
3 327 329 328
3 330 331 176
3 176 326 328
3 174 332 175
3 176 328 174
3 175 330 176
3 333 177 179
3 182 334 335
3 334 336 335
3 335 180 182
3 185 337 183
3 337 338 183
3 183 339 184
3 340 341 186
3 186 342 343
3 190 344 191
3 344 345 191
3 191 346 189
3 346 347 348
3 348 189 346
3 192 349 193
3 195 350 196
3 202 198 351
3 203 352 201
3 202 353 203
3 353 354 203
3 355 356 357
3 356 358 357
3 206 359 204
3 359 355 357
3 204 359 357
3 209 360 207
3 360 359 361
3 207 360 361
3 359 206 361
3 206 362 361
3 363 364 365
3 365 366 363
3 366 367 368
3 366 368 363
3 369 370 210
3 363 368 212
3 368 369 212
3 211 371 212
3 369 210 212
3 213 372 214
3 373 374 375
3 376 377 378
3 379 380 381
3 382 383 226
3 384 375 385
3 386 240 88
3 387 232 76
3 388 389 390
3 391 392 258
3 393 394 395
3 396 397 311
3 398 399 105
3 400 401 243
3 402 403 404
3 405 406 407
3 408 409 410
3 411 186 412
3 413 414 273
3 415 416 417
3 284 418 283
3 419 420 421
3 422 423 424
3 425 426 427
3 409 428 410
3 415 429 430
3 431 432 433
3 434 413 273
3 435 436 437
3 438 439 440
3 282 441 273
3 442 443 444
3 445 446 447
3 448 449 450
3 451 452 453
3 454 455 456
3 457 458 459
3 460 461 462
3 463 276 278
3 278 124 464
3 465 466 438
3 467 468 462
3 461 467 462
3 469 470 471
3 472 473 474
3 475 476 477
3 478 479 248
3 480 481 482
3 483 484 485
3 486 487 488
3 489 486 488
3 389 490 491
3 492 493 494
3 495 496 497
3 498 499 500
3 501 502 503
3 504 505 506
3 507 508 509
3 510 511 512
3 513 514 515
3 2 516 0
3 516 517 0
3 3 10 4
3 10 518 4
3 4 519 5
3 520 521 7
3 521 8 7
3 8 522 6
3 9 523 10
3 11 524 12
3 525 526 16
3 526 14 16
3 14 527 15
3 16 528 525
3 529 530 531
3 530 532 531
3 533 534 19
3 534 529 19
3 535 536 18
3 536 19 18
3 529 531 19
3 531 17 19
3 22 537 538
3 537 539 538
3 540 541 542
3 543 21 544
3 22 538 20
3 538 545 20
3 545 546 547
3 20 544 21
3 545 547 20
3 23 548 24
3 26 549 27
3 549 550 27
3 27 551 28
3 552 553 554
3 553 555 554
3 552 554 31
3 555 556 557
3 554 29 31
3 29 558 30
3 555 557 554
3 30 559 31
3 32 560 33
3 35 561 36
3 562 39 38
3 39 563 40
3 43 564 41
3 564 443 41
3 443 565 41
3 44 454 566
3 454 456 567
3 566 454 567
3 45 568 46
3 568 569 46
3 44 566 45
3 570 571 572
3 571 573 574
3 572 571 574
3 572 575 570
3 575 49 570
3 49 576 577
3 576 578 577
3 577 47 49
3 47 579 580
3 580 48 47
3 48 570 49
3 581 582 583
3 582 584 583
3 585 586 587
3 588 589 587
3 589 585 587
3 581 583 52
3 583 50 52
3 53 590 54
3 56 591 57
3 592 593 594
3 593 595 596
3 594 593 596
3 595 597 598
3 596 599 594
3 599 600 61
3 61 600 59
3 595 598 596
3 601 602 60
3 602 61 60
3 61 594 599
3 603 601 604
3 60 604 601
3 605 606 64
3 606 62 64
3 76 231 74
3 75 387 76
3 106 254 256
3 104 398 105
3 106 256 104
3 107 607 108
3 111 608 112
3 112 264 110
3 121 267 119
3 267 269 119
3 119 609 120
3 125 287 123
3 287 289 123
3 177 610 178
3 343 611 187
3 187 612 188
3 188 412 186
3 186 343 187
3 200 351 198
3 460 462 613
3 201 614 202
3 66 65 615
3 65 616 615
3 616 617 615
3 617 216 218
3 615 617 218
3 225 618 227
3 227 382 226
3 238 619 239
3 94 246 242
3 246 245 242
3 242 400 243
3 244 620 245
3 247 621 95
3 391 258 265
3 258 260 265
3 260 110 264
3 116 622 266
3 266 623 117
3 275 624 282
3 281 625 284
3 312 626 313
3 313 396 311
3 333 627 177
3 202 614 198
3 373 628 374
3 629 630 631
3 630 632 631
3 378 633 634
3 633 635 636
3 632 378 631
3 631 637 629
3 377 638 378
3 638 631 378
3 633 636 634
3 634 376 378
3 376 639 377
3 639 640 377
3 641 642 643
3 642 381 380
3 381 644 645
3 644 646 647
3 645 644 647
3 645 648 649
3 648 650 651
3 649 648 651
3 649 379 645
3 380 643 642
3 643 652 641
3 645 379 381
3 385 653 384
3 384 373 375
3 88 239 386
3 654 655 656
3 387 657 232
3 389 491 390
3 390 658 388
3 658 421 420
3 388 658 420
3 420 659 388
3 660 661 395
3 662 663 664
3 665 660 395
3 395 662 393
3 662 664 393
3 666 667 668
3 664 666 393
3 394 665 395
3 668 669 666
3 669 393 666
3 396 670 397
3 403 671 404
3 404 672 673
3 673 402 404
3 406 674 407
3 674 675 676
3 674 676 407
3 677 678 405
3 678 406 405
3 411 340 186
3 415 430 416
3 422 679 423
3 425 431 426
3 426 680 427
3 427 681 682
3 682 425 427
3 409 683 428
3 431 425 432
3 273 441 684
3 684 434 273
3 437 685 435
3 435 686 436
3 438 466 439
3 564 687 688
3 689 444 443
3 444 690 442
3 564 688 443
3 688 689 443
3 448 691 449
3 451 692 452
3 454 693 455
3 458 694 459
3 459 695 696
3 696 457 459
3 463 697 276
3 464 698 463
3 278 125 124
3 464 463 278
3 438 699 465
3 217 216 700
3 700 701 415
3 701 429 415
3 467 702 468
3 469 703 470
3 474 704 472
3 704 705 472
3 472 706 473
3 476 707 477
3 477 708 709
3 709 475 477
3 621 710 711
3 478 712 479
3 95 621 711
3 95 711 478
3 479 713 248
3 248 95 478
3 714 715 480
3 480 716 481
3 482 717 714
3 714 480 482
3 485 718 719
3 719 483 485
3 493 720 494
3 494 721 722
3 722 492 494
3 723 724 725
3 725 726 727
3 725 727 728
3 729 730 731
3 730 732 731
3 723 725 728
3 501 733 734
3 735 736 737
3 723 728 501
3 738 731 503
3 731 732 501
3 503 731 501
3 739 740 741
3 503 742 738
3 732 723 501
3 501 734 502
3 743 659 420
3 511 744 512
3 512 745 746
3 747 748 749
3 749 750 751
3 752 510 512
3 515 753 513
3 753 754 513
3 513 755 514
3 756 757 758
3 758 759 760
3 716 480 388
3 761 757 756
3 757 762 758
3 758 762 759
