ply
format ascii 1.0
comment Created by Blender 2.79 (sub 0) - www.blender.org, source file: 'grapes.blend'
element vertex 166
property float x
property float y
property float z
property float s
property float t
property uchar red
property uchar green
property uchar blue
element face 108
property list uchar uint vertex_indices
end_header
0.300000 1.350000 -0.446777 -0.451051 -2.353153 255 0 0
0.476777 0.350000 -0.270000 1.451052 0.499999 255 0 0
0.300000 0.350000 -0.446777 -0.451051 0.500000 255 0 0
0.300000 1.350000 -0.093223 -0.451052 -2.353154 255 0 0
0.300000 0.800000 -0.093223 -0.451051 -0.783920 255 0 0
0.325000 0.800000 -0.118223 -0.720049 -0.783919 255 0 0
0.300000 1.350000 -0.093223 1.451051 0.500000 255 0 0
0.300000 1.350000 -0.446777 -0.451051 2.402102 255 0 0
0.123223 1.350000 -0.270000 -0.451051 0.500000 255 0 0
0.123223 1.350000 -0.270000 -2.353154 0.500000 255 0 0
0.300000 0.350000 -0.446777 -0.451051 3.353154 255 0 0
0.123223 0.350000 -0.270000 -2.353154 3.353154 255 0 0
0.268223 0.350000 -0.125000 -0.883031 1.783920 255 0 0
0.325000 -0.200000 -0.125000 -0.451051 3.353154 255 0 0
0.075000 -0.200000 -0.125000 -2.353154 3.353154 255 0 0
0.325000 -0.200000 0.125000 -2.353153 0.500000 255 0 0
0.075000 0.800000 0.125000 -0.451052 -2.353154 255 0 0
0.075000 -0.200000 0.125000 -0.451051 0.500000 255 0 0
0.325000 -0.200000 -0.125000 3.353153 0.500000 255 0 0
0.325000 -0.200000 0.125000 3.353153 2.402102 255 0 0
0.170753 -0.200000 0.045753 2.179579 1.799159 255 0 0
0.075000 0.800000 0.125000 1.451051 0.500000 255 0 0
0.325000 0.800000 0.125000 1.451051 2.402102 255 0 0
0.300000 0.800000 -0.093223 -0.209282 2.211892 255 0 0
0.075000 0.800000 0.125000 3.353154 0.500000 255 0 0
0.075000 0.800000 -0.125000 1.451052 0.500000 255 0 0
0.075000 -0.100000 0.101036 3.170827 -2.067838 255 0 0
0.075000 -0.100000 -0.120096 -0.006006 2.402102 255 0 0
0.045753 -0.100000 -0.170753 -0.451051 2.402102 255 0 0
-0.170753 -0.100000 -0.045753 -0.451051 0.500000 255 0 0
-0.045753 -1.100000 0.170753 1.451051 2.402102 255 88 88
-0.072169 -1.100000 0.125000 1.451051 2.000141 255 92 92
0.033494 -1.099999 0.125000 2.147269 2.402102 255 81 81
0.075000 -0.200000 0.101036 -1.511922 -2.067842 255 0 0
-0.045753 -1.100000 0.170753 -0.451051 0.500000 255 0 0
0.033494 -1.075000 0.125000 -1.147269 0.428673 255 0 0
-0.125000 -1.075000 -0.072169 -1.951191 3.281825 255 0 0
-0.125000 -1.100000 -0.072169 -1.951191 3.353154 255 0 0
-0.170753 -1.100000 -0.045753 -2.353154 3.353154 255 0 0
-0.045753 -0.100000 0.170753 3.353154 0.500000 255 0 0
-0.125000 -1.075000 0.033494 2.147271 -2.281826 255 0 0
-0.072169 -1.075000 0.125000 2.951192 -2.281826 255 0 0
0.075000 -0.200000 -0.120096 -0.006006 -2.067873 255 0 0
0.125000 -1.075000 -0.033494 0.754835 0.428673 255 0 0
0.072169 -1.075000 -0.125000 -0.049089 0.428673 255 0 0
0.125000 -1.325000 0.125000 0.000000 1.000000 255 0 0
-0.125000 -1.325000 -0.125000 1.000000 0.166667 255 0 0
0.125000 -1.325000 -0.125000 0.000000 0.166667 255 0 0
0.072169 -1.099999 -0.125000 0.211325 0.750002 255 0 0
0.072169 -1.075000 -0.125000 0.211325 0.833333 255 0 0
0.125000 -1.075000 -0.125000 0.000000 0.833333 255 0 0
0.125000 -1.099999 0.072169 0.788675 0.750002 255 73 73
0.125000 -1.075000 0.072169 0.788675 0.833333 255 63 63
0.125000 -1.075000 0.125000 1.000000 0.833333 255 62 62
-0.072169 -1.100000 0.125000 0.788675 0.750001 255 0 0
-0.072169 -1.075000 0.125000 0.788675 0.833333 255 0 0
-0.125000 -1.075000 0.125000 1.000000 0.833333 255 0 0
0.125000 -1.075000 0.125000 0.000000 1.000000 255 0 0
0.125000 -1.075000 0.072169 0.000000 0.823896 255 0 0
0.033494 -1.075000 0.125000 0.366025 1.000000 255 0 0
-0.125000 -1.100000 -0.072169 0.211325 0.750000 255 0 0
-0.125000 -1.075000 -0.072169 0.211325 0.833333 255 0 0
-0.125000 -1.075000 -0.125000 0.000000 0.833333 255 0 0
0.125000 -1.099999 0.072169 2.951192 2.402102 255 0 0
0.125000 -1.099999 -0.033494 3.353153 1.705885 255 0 0
0.170753 -1.099999 0.045753 3.353153 2.402102 255 0 0
0.072169 -1.099999 -0.125000 3.353153 0.901961 255 0 0
-0.033494 -1.099999 -0.125000 2.656935 0.500000 255 0 0
0.045753 -1.099999 -0.170753 3.353153 0.500000 255 0 0
-0.125000 -1.100000 -0.072169 1.853013 0.500000 255 0 0
-0.125000 -1.100000 0.033494 1.451051 1.196219 255 0 0
-0.170753 -1.100000 -0.045753 1.451051 0.500000 255 0 0
-0.072169 -1.075000 0.125000 0.788675 1.000000 255 0 0
-0.125000 -1.075000 0.033494 1.000000 0.694979 255 0 0
-0.125000 -1.075000 0.125000 1.000000 1.000000 255 0 0
-0.125000 -1.075000 -0.072169 1.000000 0.342771 255 0 0
-0.033494 -1.075000 -0.125000 0.633975 0.166667 255 0 0
-0.125000 -1.075000 -0.125000 1.000000 0.166667 255 0 0
0.072169 -1.075000 -0.125000 0.211325 0.166667 255 255 255
0.125000 -1.075000 -0.033494 0.000000 0.471688 255 255 255
0.125000 -1.075000 -0.125000 0.000000 0.166667 255 255 255
0.300000 0.350000 -0.446777 3.353153 0.500000 255 0 0
0.476777 0.350000 -0.270000 3.353153 2.402102 255 0 0
0.325000 0.350000 -0.125000 1.756507 2.365644 255 0 0
0.325000 -0.200000 0.125000 1.451052 0.499999 255 0 0
0.325000 -0.200000 -0.125000 -0.451051 0.500000 255 0 0
0.325000 0.350000 -0.118223 -0.399492 -1.069235 255 0 0
0.123223 1.350000 -0.270000 1.451052 0.500000 255 0 0
0.123223 0.350000 -0.270000 1.451052 -2.353154 255 0 0
0.268223 0.800000 -0.125000 3.011240 -1.069234 255 0 0
0.476777 1.350000 -0.270000 1.451051 -2.353154 255 0 0
0.325000 0.350000 -0.118223 -0.720049 0.500000 255 0 0
0.476777 0.350000 -0.270000 -2.353153 0.500000 255 0 0
0.476777 1.350000 -0.270000 -2.353154 -2.353153 255 0 0
0.476777 1.350000 -0.270000 1.451051 2.402102 255 0 0
0.300000 1.350000 -0.446777 -0.451052 0.500000 255 0 0
0.075000 0.800000 -0.125000 -2.353154 0.500000 255 0 0
0.268223 0.800000 -0.125000 -0.883032 0.500000 255 0 0
0.325000 0.350000 -0.125000 -0.451052 1.783920 255 0 0
0.325000 0.800000 0.125000 -2.353154 -2.353153 255 0 0
0.075000 -0.200000 0.125000 1.451051 2.402102 255 0 0
0.075000 -0.200000 0.101036 1.451051 2.219776 255 0 0
0.075000 -0.200000 -0.120096 1.451051 0.537311 255 0 0
0.075000 -0.200000 -0.125000 1.451051 0.500000 255 0 0
0.325000 0.800000 -0.118223 -0.399491 2.402102 255 0 0
0.268223 0.800000 -0.125000 -0.451051 1.970123 255 0 0
0.075000 0.800000 -0.125000 -0.451051 0.500000 255 0 0
0.075000 -0.200000 -0.125000 1.451052 -2.353154 255 0 0
0.075000 -0.100000 -0.120096 1.488362 -2.067838 255 0 0
0.075000 -0.200000 -0.120096 1.488363 -2.353154 255 0 0
0.075000 -0.200000 0.101036 3.170828 -2.353154 255 0 0
0.075000 -0.200000 0.125000 3.353154 -2.353154 255 0 0
-0.045753 -0.100000 0.170753 1.451051 0.500000 255 0 0
0.075000 -0.100000 0.101036 1.451051 1.560870 255 0 0
0.125000 -1.099999 0.072169 -1.951192 0.500000 255 0 0
0.170753 -1.099999 0.045753 -2.353153 0.500000 255 0 0
0.125000 -1.075000 0.072169 -1.951192 0.428673 255 0 0
0.170753 -0.200000 0.045753 -2.353154 -2.067837 255 0 0
0.075000 -0.100000 0.101036 -1.511921 -2.353154 255 0 0
-0.045753 -0.100000 0.170753 -0.451052 -2.353154 255 0 0
0.033494 -1.099999 0.125000 -1.147269 0.500000 255 0 0
-0.170753 -0.100000 -0.045753 -2.353154 0.500000 255 0 0
0.045753 -0.100000 -0.170753 -0.451052 0.500000 255 0 0
-0.033494 -1.075000 -0.125000 -1.147269 3.281826 255 0 0
0.045753 -1.099999 -0.170753 -0.451051 3.353154 255 0 0
-0.033494 -1.099999 -0.125000 -1.147269 3.353154 255 0 0
-0.072169 -1.100000 0.125000 2.951192 -2.353154 255 0 0
-0.045753 -1.100000 0.170753 3.353154 -2.353154 255 0 0
-0.170753 -0.100000 -0.045753 1.451052 0.500000 255 0 0
-0.170753 -1.100000 -0.045753 1.451052 -2.353154 255 0 0
-0.125000 -1.100000 0.033494 2.147270 -2.353154 255 0 0
0.045753 -1.099999 -0.170753 -0.451051 0.500000 255 0 0
0.045753 -0.100000 -0.170753 -0.451051 -2.353153 255 0 0
0.075000 -0.100000 -0.120096 -0.006007 -2.353154 255 0 0
0.170753 -0.200000 0.045753 1.451051 -2.067838 255 0 0
0.170753 -1.099999 0.045753 1.451052 0.499999 255 0 0
0.072169 -1.099999 -0.125000 -0.049090 0.500000 255 0 0
0.125000 -1.099999 -0.033494 0.754834 0.500000 255 0 0
-0.125000 -1.325000 0.125000 1.000000 1.000000 255 0 0
-0.125000 -1.325000 -0.125000 1.000000 0.000000 255 0 0
-0.125000 -1.075000 -0.125000 1.000000 0.833333 255 0 0
-0.033494 -1.099999 -0.125000 0.633975 0.750002 255 0 0
-0.033494 -1.075000 -0.125000 0.633975 0.833333 255 0 0
0.125000 -1.325000 -0.125000 0.000000 0.000000 255 0 0
0.125000 -1.325000 -0.125000 0.000000 0.000000 255 180 180
0.125000 -1.075000 -0.125000 0.000000 0.833333 255 69 69
0.125000 -1.099999 -0.033494 0.366026 0.750002 255 76 76
0.125000 -1.075000 -0.033494 0.366026 0.833333 255 66 66
0.125000 -1.325000 0.125000 1.000000 0.000000 255 175 175
0.125000 -1.325000 0.125000 0.000000 0.000000 255 0 0
0.125000 -1.075000 0.125000 0.000000 0.833333 255 0 0
0.033494 -1.099999 0.125000 0.366025 0.750002 255 0 0
0.033494 -1.075000 0.125000 0.366025 0.833333 255 0 0
-0.125000 -1.325000 0.125000 1.000000 0.000000 255 0 0
-0.125000 -1.100000 0.033494 0.633975 0.750001 255 0 0
-0.125000 -1.075000 0.033494 0.633975 0.833333 255 0 0
-0.125000 -1.325000 -0.125000 0.000000 0.000000 255 0 0
0.325000 0.350000 -0.118223 1.720049 2.402102 255 0 0
0.268223 0.350000 -0.125000 1.451051 2.060189 255 0 0
0.123223 0.350000 -0.270000 1.451051 0.500000 255 0 0
0.325000 0.350000 -0.125000 -0.451051 -1.069234 255 0 0
0.325000 0.800000 -0.118223 -0.399492 -2.353153 255 0 0
0.325000 0.800000 0.125000 1.451051 -2.353154 255 0 0
0.268223 0.350000 -0.125000 3.011240 -2.353154 255 0 0
0.300000 0.800000 -0.093223 3.353154 -1.069235 255 0 0
0.300000 1.350000 -0.093223 3.353154 0.500000 255 0 0
3 0 1 2
3 3 4 5
3 6 7 8
3 9 10 11
3 12 13 14
3 15 16 17
3 18 19 20
3 21 22 23
3 24 25 26
3 27 28 29
3 30 31 32
3 33 34 35
3 36 37 38
3 39 40 41
3 42 43 44
3 45 46 47
3 48 49 50
3 51 52 53
3 54 55 56
3 57 58 59
3 60 61 62
3 63 64 65
3 66 67 68
3 69 70 71
3 72 73 74
3 75 76 77
3 78 79 80
3 81 82 83
3 84 85 86
3 87 88 89
3 0 90 1
3 91 92 5
3 92 93 5
3 93 3 5
3 6 94 7
3 9 95 10
3 14 96 12
3 96 97 12
3 12 98 13
3 15 99 16
3 19 100 20
3 100 101 20
3 20 102 18
3 102 103 18
3 22 104 23
3 23 105 21
3 105 106 21
3 25 107 108
3 107 109 108
3 110 111 26
3 111 24 26
3 25 108 26
3 29 112 113
3 113 27 29
3 114 115 116
3 115 117 116
3 33 118 119
3 34 120 35
3 35 116 33
3 116 117 33
3 33 119 34
3 38 121 36
3 121 122 123
3 36 121 123
3 122 124 123
3 124 125 123
3 126 127 41
3 127 39 41
3 39 128 40
3 128 129 40
3 129 130 40
3 131 132 42
3 132 133 42
3 42 134 43
3 134 135 43
3 44 136 131
3 135 137 43
3 44 131 42
3 45 138 46
3 139 140 141
3 140 142 141
3 50 143 48
3 143 139 141
3 48 143 141
3 144 145 146
3 145 147 146
3 53 148 51
3 148 144 146
3 51 148 146
3 149 150 151
3 150 152 151
3 56 153 54
3 153 149 151
3 54 153 151
3 153 56 154
3 56 155 154
3 62 156 60
3 156 153 154
3 60 156 154
3 82 157 83
3 83 158 81
3 158 159 81
3 85 160 86
3 86 161 162
3 162 84 86
3 88 163 89
3 89 164 165
3 165 87 89
