ply
format ascii 1.0
comment Created by Blender 2.79 (sub 0) - www.blender.org, source file: 'grapes.blend'
element vertex 294
property float x
property float y
property float z
property float s
property float t
property uchar red
property uchar green
property uchar blue
element face 192
property list uchar uint vertex_indices
end_header
-0.034835 1.345020 0.391942 -0.451051 0.500000 255 0 0
-0.565165 1.345019 -0.491942 -2.353154 -2.353153 255 0 0
-0.741942 1.345019 -0.315165 -0.451052 -2.353154 255 0 0
0.125000 -1.325000 0.125000 0.000000 1.000000 255 0 0
-0.125000 -1.325000 -0.125000 1.000000 0.166667 255 0 0
0.125000 -1.325000 -0.125000 0.000000 0.166667 255 0 0
-0.121777 1.095020 0.305000 -1.997258 -2.338944 255 0 0
-0.121777 1.100000 0.305000 -1.997258 -2.353153 255 0 0
-0.325000 1.100000 0.305000 -0.451052 -2.353154 255 0 0
-0.075000 1.095020 0.055000 -0.451051 -2.338944 255 0 0
-0.075000 0.100000 0.305000 1.451052 0.499999 255 0 0
-0.075000 0.100000 0.055000 -0.451051 0.500000 255 0 0
-0.565165 1.095019 -0.491942 -0.451052 0.500000 255 0 0
-0.075000 1.095020 0.055000 -0.756508 2.592347 255 0 0
-0.349247 1.095019 -0.045753 -1.689896 1.835791 255 0 0
-0.332724 0.300000 -0.259072 -2.353154 0.500000 255 0 0
-0.100928 -0.700000 -0.352724 -0.451051 3.353154 255 0 0
-0.332724 -0.700000 -0.259072 -2.353154 3.353154 255 0 0
-0.565753 1.095019 -0.170753 0.000000 0.133398 255 0 0
-0.349247 1.055000 -0.045753 1.000000 0.000000 255 0 0
-0.565753 1.055000 -0.170753 0.000000 0.000000 255 0 0
-0.121777 1.100000 0.305000 1.451051 2.046206 255 0 0
-0.325000 1.100000 0.101777 -0.095155 0.500000 255 0 0
-0.325000 1.100000 0.305000 1.451051 0.500000 255 0 0
-0.239072 -0.700000 -0.027276 -0.451051 0.500000 255 0 0
-0.118103 -0.700000 -0.076151 -1.443719 0.500000 255 0 0
-0.118103 -0.100000 -0.076151 -1.443719 -1.211893 255 0 0
0.300000 1.350000 -0.093224 1.451051 0.500000 255 0 0
0.300000 1.350000 -0.446777 -0.451051 2.402102 255 0 0
0.123223 1.350000 -0.270000 -0.451051 0.500000 255 0 0
0.325000 0.800000 0.125000 1.451051 2.402102 255 0 0
0.325000 0.800000 -0.118223 -0.399491 2.402102 255 0 0
0.300000 0.800000 -0.093224 -0.209282 2.211892 255 0 0
0.325000 0.800000 -0.118223 -0.720049 -0.783919 255 0 0
0.325000 0.350000 -0.118223 -0.720049 0.500000 255 0 0
0.476777 0.350000 -0.270000 -2.353153 0.500000 255 0 0
-0.325000 1.095020 0.101777 1.806948 0.485790 255 0 0
-0.325000 0.100000 0.055000 1.451052 -2.353154 255 0 0
-0.325000 0.100000 0.305000 3.353154 -2.353154 255 0 0
-0.034835 1.345020 0.391942 1.451051 2.402102 255 0 0
0.141942 1.095020 0.215165 3.353153 0.500000 255 0 0
0.141942 1.345020 0.215165 3.353153 2.402102 255 0 0
-0.325000 1.095020 0.055000 -2.353154 0.514210 255 0 0
-0.075000 0.100000 0.055000 -0.451051 3.353154 255 0 0
-0.325000 0.100000 0.055000 -2.353154 3.353154 255 0 0
-0.394372 1.305000 0.032405 0.360998 1.000000 255 0 0
-0.690753 1.305000 0.045753 1.000000 0.166667 255 0 0
-0.474247 1.305000 0.170753 1.000000 1.000000 255 0 0
0.075000 -0.100000 0.101036 3.170827 -2.067838 255 0 0
0.075000 0.800000 0.125000 3.353154 0.500000 255 0 0
0.075000 0.800000 -0.125000 1.451052 0.500000 255 0 0
0.123223 1.350000 -0.270000 -2.353154 0.500000 255 0 0
0.300000 0.350000 -0.446777 -0.451051 3.353154 255 0 0
0.123223 0.350000 -0.270000 -2.353154 3.353154 255 0 0
-0.045753 -1.100000 0.170753 1.451051 2.402102 255 0 0
-0.072169 -1.100000 0.125000 1.451051 2.000141 255 0 0
0.033494 -1.099999 0.125000 2.147269 2.402102 255 0 0
0.300000 1.350000 -0.446777 -0.451051 -2.353153 255 0 0
0.476777 0.350000 -0.270000 1.451052 0.499999 255 0 0
0.300000 0.350000 -0.446777 -0.451051 0.500000 255 0 0
0.141942 1.095020 0.215165 -0.451051 0.500000 255 0 0
-0.565165 1.345019 -0.491942 1.451051 -2.353154 255 0 0
0.141942 1.345020 0.215165 1.451052 0.499999 255 0 0
-0.577384 1.095019 -0.150608 0.093049 0.133398 255 0 0
-0.121777 1.100000 0.305000 1.488943 -2.002347 255 0 0
-0.034835 1.345020 0.391942 3.353154 -2.353154 255 0 0
-0.394372 1.305000 0.032405 3.048669 -0.902435 255 0 0
-0.125000 -1.325000 0.125000 1.000000 0.000000 255 0 0
0.033494 -1.099999 0.125000 0.366025 0.750002 255 0 0
-0.072169 -1.100000 0.125000 0.788675 0.750001 255 0 0
0.125000 -1.075000 0.125000 0.000000 1.000000 255 0 0
0.125000 -1.075000 0.072169 0.000000 0.823896 255 0 0
0.033494 -1.075000 0.125000 0.366025 1.000000 255 0 0
0.125000 -1.099999 0.072169 2.951192 2.402102 255 0 0
0.125000 -1.099999 -0.033494 3.353153 1.705885 255 0 0
0.170753 -1.099999 0.045753 3.353153 2.402102 255 0 0
0.072169 -1.099999 -0.125000 3.353153 0.901961 255 0 0
-0.033494 -1.099999 -0.125000 2.656935 0.500000 255 0 0
0.045753 -1.099999 -0.170753 3.353153 0.500000 255 0 0
-0.125000 -1.100000 -0.072169 1.853013 0.500000 255 0 0
-0.125000 -1.100000 0.033494 1.451051 1.196219 255 0 0
-0.170753 -1.100000 -0.045753 1.451051 0.500000 255 0 0
-0.072169 -1.075000 0.125000 0.788675 1.000000 255 0 0
-0.125000 -1.075000 0.033494 1.000000 0.694979 255 0 0
-0.125000 -1.075000 0.125000 1.000000 1.000000 255 0 0
-0.125000 -1.075000 -0.072169 1.000000 0.342771 255 0 0
-0.033494 -1.075000 -0.125000 0.633975 0.166667 255 0 0
-0.125000 -1.075000 -0.125000 1.000000 0.166667 255 0 0
0.072169 -1.075000 -0.125000 0.211325 0.166667 255 0 0
0.125000 -1.075000 -0.033494 0.000000 0.471688 255 0 0
0.125000 -1.075000 -0.125000 0.000000 0.166667 255 0 0
-0.075000 0.100000 0.305000 3.353153 2.402102 255 0 0
-0.325000 0.100000 0.055000 1.451051 0.500000 255 0 0
-0.075000 0.100000 0.055000 3.353153 0.500000 255 0 0
0.075000 0.800000 -0.125000 -2.353154 0.500000 255 0 0
0.268223 0.800000 -0.125000 -0.883032 0.500000 255 0 0
0.268223 0.350000 -0.125000 -0.883031 1.783920 255 0 0
-0.118103 -0.700000 -0.076151 2.443719 2.402102 255 0 0
-0.239072 -0.700000 -0.027276 1.451051 2.402102 255 0 0
-0.332724 -0.700000 -0.259072 1.451051 0.500000 255 0 0
0.325000 -0.200000 0.125000 -2.353153 0.500000 255 0 0
0.075000 0.800000 0.125000 -0.451052 -2.353154 255 0 0
0.075000 -0.200000 0.125000 -0.451051 0.500000 255 0 0
0.075000 -0.200000 0.125000 1.451051 2.402102 255 0 0
0.075000 -0.200000 0.101036 1.451051 2.219776 255 0 0
0.170753 -0.200000 0.045753 2.179579 1.799159 255 0 0
-0.125000 -1.100000 -0.072169 0.211325 0.750000 255 0 0
-0.125000 -1.075000 -0.072169 0.211325 0.833333 255 0 0
-0.125000 -1.075000 -0.125000 0.000000 0.833333 255 0 0
-0.007276 0.300000 -0.120928 1.451051 -2.353154 255 0 0
-0.007276 -0.100000 -0.120928 1.451051 -1.211893 255 0 0
-0.013569 -0.100000 -0.136503 1.323239 -1.211893 255 0 0
0.033494 -1.075000 0.125000 -1.147269 0.428673 255 0 0
0.125000 -1.075000 0.072169 -1.951192 0.428673 255 0 0
0.075000 -0.200000 0.101036 -1.511922 -2.067842 255 0 0
-0.072169 -1.075000 0.125000 2.951192 -2.281826 255 0 0
-0.072169 -1.100000 0.125000 2.951192 -2.353154 255 0 0
-0.045753 -1.100000 0.170753 3.353154 -2.353154 255 0 0
0.072169 -1.075000 -0.125000 -0.049089 0.428673 255 0 0
0.045753 -1.099999 -0.170753 -0.451051 0.500000 255 0 0
0.075000 -0.200000 -0.120096 -0.006006 -2.067873 255 0 0
-0.332724 0.300000 -0.259072 -0.451051 0.500000 255 0 0
-0.007276 0.300000 -0.120928 1.451051 2.402102 255 0 0
-0.100928 0.300000 -0.352724 -0.451051 2.402102 255 0 0
0.476777 0.350000 -0.270000 3.353153 2.402102 255 0 0
0.325000 0.350000 -0.118223 1.720049 2.402102 255 0 0
0.325000 0.350000 -0.125000 1.756507 2.365644 255 0 0
0.325000 0.350000 -0.118223 -0.399492 -1.069235 255 0 0
0.325000 0.800000 0.125000 1.451051 -2.353154 255 0 0
0.325000 -0.200000 0.125000 1.451052 0.499999 255 0 0
0.268223 0.800000 -0.125000 3.011240 -1.069234 255 0 0
0.300000 1.350000 -0.093224 3.353154 0.500000 255 0 0
0.123223 1.350000 -0.270000 1.451052 0.500000 255 0 0
0.075000 -0.100000 0.101036 1.451051 1.560870 255 0 0
0.075000 -0.100000 -0.120096 -0.006006 2.402102 255 0 0
-0.007276 -0.100000 -0.120928 -0.324482 1.863142 255 0 0
-0.565753 1.055000 -0.170753 0.000000 0.166667 255 0 0
-0.474247 1.055000 0.170753 1.000000 1.000000 255 0 0
-0.690753 1.055000 0.045753 1.000000 0.166667 255 0 0
-0.741942 1.345019 -0.315165 1.451051 0.500000 255 0 0
-0.565165 1.095019 -0.491942 -0.451051 2.402102 255 0 0
-0.741942 1.095019 -0.315165 -0.451051 0.500000 255 0 0
-0.690753 1.055000 0.045753 0.000000 0.000000 255 0 0
-0.474247 1.305000 0.170753 1.000000 0.833333 255 0 0
-0.690753 1.305000 0.045753 0.000000 0.833333 255 0 0
-0.394371 1.095019 0.032405 0.360998 0.133398 255 0 0
-0.474247 1.055000 0.170753 1.000000 0.000000 255 0 0
0.072169 -1.099999 -0.125000 0.211325 0.750002 255 0 0
0.072169 -1.075000 -0.125000 0.211325 0.833333 255 0 0
0.125000 -1.075000 -0.125000 0.000000 0.833333 255 0 0
0.125000 -1.099999 0.072169 0.788675 0.750002 255 0 0
0.125000 -1.075000 0.072169 0.788675 0.833333 255 0 0
0.125000 -1.075000 0.125000 1.000000 0.833333 255 0 0
-0.170753 -1.100000 -0.045753 -2.353154 3.353154 255 0 0
-0.170753 -0.100000 -0.045753 -2.353154 0.500000 255 0 0
-0.118103 -0.700000 -0.076151 -1.890595 2.211893 255 0 0
-0.239072 -0.700000 -0.027276 3.353154 -2.353154 255 0 0
-0.332724 0.300000 -0.259072 1.451052 0.500000 255 0 0
-0.332724 -0.700000 -0.259072 1.451052 -2.353154 255 0 0
0.141942 1.345020 0.215165 -2.353153 0.500000 255 0 0
-0.125000 -1.325000 0.125000 1.000000 1.000000 255 0 0
-0.325000 0.100000 0.305000 -0.451051 0.500000 255 0 0
-0.075000 0.100000 0.305000 -2.353153 0.500000 255 0 0
-0.075000 1.095020 0.305000 -2.353154 -2.338944 255 0 0
-0.075000 1.095020 0.305000 1.451051 -2.338945 255 0 0
-0.034835 1.095020 0.391942 -2.353154 3.353154 255 0 0
-0.121777 1.095020 0.305000 -2.353154 3.002347 255 0 0
-0.075000 1.095020 0.305000 -2.101497 3.096718 255 0 0
0.141942 1.095020 0.215165 -0.451051 3.353154 255 0 0
-0.577384 1.095019 -0.150608 -2.353154 1.163985 255 0 0
-0.741942 1.095019 -0.315165 -2.353154 0.500000 255 0 0
-0.565753 1.095019 -0.170753 -2.182196 1.146807 255 0 0
-0.325000 1.095020 0.055000 -2.101497 2.087976 255 0 0
-0.325000 1.095020 0.101777 -2.353154 2.182347 255 0 0
-0.394371 1.095019 0.032405 -2.353154 1.902435 255 0 0
-0.100928 0.300000 -0.352724 -0.451052 0.500000 255 0 0
-0.349247 1.095019 -0.045753 1.000000 0.133399 255 0 0
-0.007276 -0.100000 -0.120928 -2.353154 -1.211892 255 0 0
-0.007276 0.300000 -0.120928 -2.353154 -2.353153 255 0 0
-0.239072 0.300000 -0.027276 -0.451052 -2.353154 255 0 0
0.476777 1.350000 -0.270000 1.451051 2.402102 255 0 0
0.268223 0.800000 -0.125000 -0.451051 1.970123 255 0 0
0.075000 0.800000 0.125000 1.451051 0.500000 255 0 0
0.075000 0.800000 -0.125000 -0.451051 0.500000 255 0 0
0.476777 1.350000 -0.270000 -2.353154 -2.353153 255 0 0
0.300000 1.350000 -0.093224 -0.451052 -2.353154 255 0 0
0.300000 0.800000 -0.093224 -0.451051 -0.783920 255 0 0
-0.325000 1.100000 0.305000 3.353154 0.500000 255 0 0
-0.325000 1.100000 0.101777 1.806948 0.500000 255 0 0
-0.325000 1.095020 0.055000 1.451052 0.485790 255 0 0
-0.034835 1.095020 0.391942 1.451051 0.500000 255 0 0
-0.075000 1.095020 0.055000 -0.451052 0.514210 255 0 0
-0.577384 1.305000 -0.150608 0.093049 0.166667 255 0 0
0.075000 -0.200000 -0.125000 1.451052 -2.353154 255 0 0
0.075000 -0.100000 -0.120096 1.488362 -2.067838 255 0 0
0.075000 -0.200000 -0.120096 1.488363 -2.353154 255 0 0
0.075000 -0.200000 0.101036 3.170828 -2.353154 255 0 0
0.075000 -0.200000 0.125000 3.353154 -2.353154 255 0 0
0.300000 1.350000 -0.446777 -0.451052 0.500000 255 0 0
0.476777 1.350000 -0.270000 1.451051 -2.353154 255 0 0
-0.565165 1.095019 -0.491942 -0.451051 -2.353153 255 0 0
-0.690753 1.055000 0.045753 1.000000 0.000000 255 0 0
-0.690753 1.305000 0.045753 1.000000 0.833333 255 0 0
-0.577384 1.305000 -0.150608 0.093049 0.833333 255 0 0
-0.394371 1.095019 0.032405 1.451052 -0.902435 255 0 0
-0.325000 1.100000 0.101777 1.488944 -1.182347 255 0 0
-0.325000 1.095020 0.101777 1.451052 -1.182347 255 0 0
-0.741942 1.095019 -0.315165 1.451052 0.500000 255 0 0
-0.577384 1.095019 -0.150608 1.451052 -0.163985 255 0 0
-0.577384 1.305000 -0.150608 3.048670 -0.163985 255 0 0
-0.741942 1.345019 -0.315165 3.353154 0.500000 255 0 0
-0.121777 1.095020 0.305000 1.451052 -2.002347 255 0 0
-0.034835 1.095020 0.391942 1.451052 -2.353154 255 0 0
-0.072169 -1.075000 0.125000 0.788675 0.833333 255 0 0
-0.125000 -1.075000 0.125000 1.000000 0.833333 255 0 0
0.125000 -1.325000 0.125000 0.000000 0.000000 255 0 0
0.125000 -1.075000 0.125000 0.000000 0.833333 255 0 0
0.033494 -1.075000 0.125000 0.366025 0.833333 255 0 0
-0.325000 0.100000 0.305000 1.451051 2.402102 255 0 0
0.325000 0.350000 -0.125000 -0.451052 1.783920 255 0 0
0.325000 -0.200000 -0.125000 -0.451051 3.353154 255 0 0
0.075000 -0.200000 -0.125000 -2.353154 3.353154 255 0 0
-0.100928 -0.700000 -0.352724 3.353153 0.500000 255 0 0
-0.013569 -0.700000 -0.136503 3.353153 2.274290 255 0 0
0.325000 0.800000 0.125000 -2.353154 -2.353153 255 0 0
0.075000 -0.200000 -0.120096 1.451051 0.537311 255 0 0
0.325000 -0.200000 -0.125000 3.353153 0.500000 255 0 0
0.075000 -0.200000 -0.125000 1.451051 0.500000 255 0 0
0.325000 -0.200000 0.125000 3.353153 2.402102 255 0 0
-0.125000 -1.325000 -0.125000 0.000000 0.000000 255 0 0
-0.125000 -1.100000 0.033494 0.633975 0.750001 255 0 0
-0.125000 -1.075000 0.033494 0.633975 0.833333 255 0 0
-0.013569 -0.700000 -0.136503 1.323239 0.500000 255 0 0
-0.100928 -0.700000 -0.352724 -0.451051 0.500000 255 0 0
-0.100928 0.300000 -0.352724 -0.451051 -2.353153 255 0 0
0.075000 -0.100000 0.101036 -1.511921 -2.353154 255 0 0
-0.045753 -0.100000 0.170753 -0.451052 -2.353154 255 0 0
-0.045753 -1.100000 0.170753 -0.451051 0.500000 255 0 0
0.033494 -1.099999 0.125000 -1.147269 0.500000 255 0 0
0.125000 -1.099999 0.072169 -1.951192 0.500000 255 0 0
0.170753 -1.099999 0.045753 -2.353153 0.500000 255 0 0
0.170753 -0.200000 0.045753 -2.353154 -2.067837 255 0 0
-0.170753 -0.100000 -0.045753 1.451052 0.500000 255 0 0
-0.170753 -1.100000 -0.045753 1.451052 -2.353154 255 0 0
-0.125000 -1.075000 0.033494 2.147271 -2.281826 255 0 0
-0.125000 -1.100000 0.033494 2.147270 -2.353154 255 0 0
-0.045753 -0.100000 0.170753 3.353154 0.500000 255 0 0
0.170753 -0.200000 0.045753 1.451051 -2.067838 255 0 0
0.170753 -1.099999 0.045753 1.451052 0.499999 255 0 0
0.125000 -1.075000 -0.033494 0.754835 0.428673 255 0 0
0.125000 -1.099999 -0.033494 0.754834 0.500000 255 0 0
0.045753 -0.100000 -0.170753 -0.451051 -2.353153 255 0 0
0.075000 -0.100000 -0.120096 -0.006007 -2.353154 255 0 0
0.072169 -1.099999 -0.125000 -0.049090 0.500000 255 0 0
-0.239072 0.300000 -0.027276 1.451051 0.500000 255 0 0
0.268223 0.350000 -0.125000 1.451051 2.060189 255 0 0
0.300000 0.350000 -0.446777 3.353153 0.500000 255 0 0
0.123223 0.350000 -0.270000 1.451051 0.500000 255 0 0
0.325000 -0.200000 -0.125000 -0.451051 0.500000 255 0 0
0.325000 0.350000 -0.125000 -0.451051 -1.069234 255 0 0
0.325000 0.800000 -0.118223 -0.399492 -2.353153 255 0 0
0.123223 0.350000 -0.270000 1.451052 -2.353154 255 0 0
0.268223 0.350000 -0.125000 3.011240 -2.353154 255 0 0
0.300000 0.800000 -0.093224 3.353154 -1.069235 255 0 0
0.045753 -0.100000 -0.170753 -0.451051 2.402102 255 0 0
-0.013569 -0.100000 -0.136503 -0.451051 1.880930 255 0 0
-0.118103 -0.100000 -0.076151 -0.451051 0.962558 255 0 0
-0.170753 -0.100000 -0.045753 -0.451051 0.500000 255 0 0
-0.045753 -0.100000 0.170753 1.451051 0.500000 255 0 0
-0.349247 1.055000 -0.045753 0.000000 1.000000 255 0 0
-0.565165 1.345019 -0.491942 1.451051 2.402102 255 0 0
-0.394372 1.305000 0.032405 0.360998 0.833333 255 0 0
-0.474247 1.055000 0.170753 1.000000 0.000000 255 255 255
-0.349247 1.055000 -0.045753 0.000000 0.000000 255 255 255
-0.394371 1.095019 0.032405 0.360998 0.133398 255 255 255
-0.349247 1.095019 -0.045753 0.000000 0.133399 255 255 255
-0.125000 -1.325000 -0.125000 1.000000 0.000000 255 0 0
-0.125000 -1.075000 -0.125000 1.000000 0.833333 255 0 0
-0.033494 -1.099999 -0.125000 0.633975 0.750002 255 0 0
-0.033494 -1.075000 -0.125000 0.633975 0.833333 255 0 0
0.125000 -1.325000 -0.125000 0.000000 0.000000 255 0 0
0.125000 -1.325000 0.125000 1.000000 0.000000 255 0 0
0.125000 -1.099999 -0.033494 0.366026 0.750002 255 0 0
0.125000 -1.075000 -0.033494 0.366026 0.833333 255 0 0
-0.013569 -0.700000 -0.136503 -0.972224 2.211893 255 0 0
-0.013569 -0.100000 -0.136503 -0.972224 0.500000 255 0 0
0.045753 -0.100000 -0.170753 -0.451052 0.500000 255 0 0
0.045753 -1.099999 -0.170753 -0.451051 3.353154 255 0 0
-0.033494 -1.099999 -0.125000 -1.147269 3.353154 255 0 0
-0.033494 -1.075000 -0.125000 -1.147269 3.281826 255 0 0
-0.125000 -1.075000 -0.072169 -1.951191 3.281825 255 0 0
-0.125000 -1.100000 -0.072169 -1.951191 3.353154 255 0 0
-0.118103 -0.100000 -0.076151 -1.890596 0.500000 255 0 0
-0.239072 0.300000 -0.027276 3.353154 0.500000 255 0 0
3 0 1 2
3 3 4 5
3 6 7 8
3 9 10 11
3 12 13 14
3 15 16 17
3 18 19 20
3 21 22 23
3 24 25 26
3 27 28 29
3 30 31 32
3 33 34 35
3 36 37 38
3 39 40 41
3 42 43 44
3 45 46 47
3 48 49 50
3 51 52 53
3 54 55 56
3 57 58 59
3 60 61 62
3 63 18 20
3 64 65 66
3 67 68 69
3 70 71 72
3 73 74 75
3 76 77 78
3 79 80 81
3 82 83 84
3 85 86 87
3 88 89 90
3 91 92 93
3 94 95 96
3 97 98 99
3 100 101 102
3 103 104 105
3 106 107 108
3 109 110 111
3 112 113 114
3 115 116 117
3 118 119 120
3 121 122 123
3 124 125 126
3 127 128 129
3 130 131 132
3 133 134 135
3 136 137 138
3 139 140 141
3 142 143 144
3 145 143 146
3 147 148 149
3 150 151 152
3 153 154 155
3 156 157 158
3 0 159 1
3 3 160 4
3 8 161 6
3 161 162 6
3 162 163 6
3 9 164 10
3 165 166 167
3 165 167 168
3 167 13 168
3 169 170 171
3 170 12 171
3 172 173 174
3 12 168 13
3 13 172 14
3 172 174 14
3 14 171 12
3 15 175 16
3 18 176 19
3 177 178 26
3 178 179 26
3 179 24 26
3 27 180 28
3 32 181 182
3 181 183 182
3 182 30 32
3 35 184 33
3 184 185 33
3 185 186 33
3 38 187 36
3 187 188 36
3 36 189 37
3 39 190 40
3 42 191 43
3 45 192 46
3 50 193 194
3 193 195 194
3 196 197 48
3 197 49 48
3 50 194 48
3 51 198 52
3 57 199 58
3 60 200 61
3 20 201 63
3 201 202 63
3 202 203 63
3 66 204 205
3 204 206 205
3 207 208 209
3 66 205 64
3 210 207 209
3 210 209 66
3 211 212 64
3 212 65 64
3 65 210 66
3 213 214 69
3 214 67 69
3 67 215 68
3 215 216 68
3 216 217 68
3 91 218 92
3 96 219 220
3 220 221 96
3 221 94 96
3 99 222 97
3 222 223 97
3 100 224 101
3 105 225 226
3 225 227 226
3 226 228 105
3 228 103 105
3 108 229 106
3 229 67 230
3 106 229 230
3 67 214 230
3 214 231 230
3 232 233 111
3 233 234 111
3 234 109 111
3 235 236 114
3 236 237 114
3 237 238 112
3 113 239 240
3 237 112 114
3 113 240 241
3 113 241 114
3 242 243 244
3 243 245 244
3 117 246 115
3 246 242 244
3 115 246 244
3 247 248 249
3 248 250 249
3 251 252 120
3 120 247 249
3 118 253 119
3 120 249 118
3 119 251 120
3 121 254 122
3 126 255 256
3 255 257 256
3 256 124 126
3 129 258 127
3 258 259 127
3 127 260 128
3 132 261 130
3 261 262 130
3 130 263 131
3 134 264 135
3 264 265 135
3 135 266 133
3 266 267 268
3 268 133 266
3 136 269 137
3 139 270 140
3 142 146 143
3 145 271 143
3 272 273 274
3 273 275 274
3 276 277 278
3 277 279 278
3 149 280 147
3 280 276 278
3 147 280 278
3 152 281 150
3 281 280 282
3 150 281 282
3 280 149 282
3 149 283 282
3 284 285 286
3 286 287 284
3 287 288 289
3 287 289 284
3 290 291 153
3 284 289 155
3 289 290 155
3 154 292 155
3 290 153 155
3 156 293 157
