ply
format ascii 1.0
comment Created by Blender 2.79 (sub 0) - www.blender.org, source file: 'large brick kiln.blend'
element vertex 328
property float x
property float y
property float z
property float s
property float t
element face 256
property list uchar uint vertex_indices
end_header
0.500000 -0.900000 -1.500000 -1.710997 1.006376
0.500000 -1.500000 -1.304278 -2.038841 0.001348
0.500000 -0.900000 -1.304278 -2.038841 1.006376
0.500000 -0.900000 -1.304278 -0.035951 1.006376
0.535757 -1.500000 -1.293431 0.023944 0.001348
0.535757 -0.900000 -1.293431 0.023944 1.006376
0.989949 -0.900000 -0.989949 -2.565356 -0.853010
1.164057 -0.900000 -0.777798 -2.273717 -1.208374
1.500000 -0.900000 -1.500000 -1.710997 0.001348
1.500000 -0.900000 -1.500000 1.639096 1.006376
1.500000 -1.100000 -1.500000 1.639096 0.671367
0.714103 -1.100000 -1.500000 0.322682 0.671367
0.977798 -1.500000 -1.364057 0.764384 -0.226362
0.989949 -1.500000 -0.989949 0.784738 -0.853010
0.777798 -1.500000 -1.164057 0.429375 -0.561372
0.777798 -1.500000 -1.164057 0.429375 0.001348
0.777798 -0.900000 -1.164057 0.429375 1.006376
1.500000 -1.100000 -0.714103 -3.027412 0.671367
1.500000 -0.900000 -1.500000 -1.710997 1.006376
1.500000 -0.900000 -0.500000 -3.386044 1.006376
0.989949 -1.500000 -0.989949 0.784738 0.001348
0.989949 -0.900000 -0.989949 0.784738 1.006376
1.164057 -1.500000 -0.777798 0.429374 0.001348
1.164057 -0.900000 -0.777798 0.429374 1.006376
1.293431 -1.500000 -0.535757 0.023944 0.001348
1.293431 -0.900000 -0.535757 0.023944 1.006376
1.304278 -1.500000 -0.500000 -0.035951 0.001348
1.500000 -1.500000 -0.500000 -1.710997 0.001348
1.304278 -0.900000 -0.500000 -2.038841 1.006376
1.304278 -1.500000 -0.500000 -2.038841 0.001348
1.500000 -1.100000 -1.500000 1.639096 0.001348
1.189950 -1.100000 -1.189950 1.119747 -0.518001
0.977798 -1.100000 -1.364057 0.764384 -0.226362
0.735757 -1.500000 -1.493431 0.358953 0.001348
0.735757 -1.100000 -1.493431 0.358953 0.671367
0.977798 -1.100000 -1.364057 0.764384 0.671367
0.977798 -1.500000 -1.364057 0.764384 0.001348
0.977798 -1.500000 -1.364057 -2.585709 0.001348
1.189950 -1.100000 -1.189950 -2.230346 0.671367
1.189950 -1.500000 -1.189950 -2.230346 0.001348
1.189950 -1.500000 -1.189950 1.119747 0.001348
1.364058 -1.100000 -0.977798 0.764384 0.671367
1.364058 -1.500000 -0.977798 0.764384 0.001348
1.493431 -1.100000 -0.735757 0.358953 0.671367
1.493431 -1.500000 -0.735757 0.358953 0.001348
1.500000 -1.500000 -0.714103 0.322682 0.001348
1.500000 -1.100000 -0.714103 0.322682 0.671367
-1.500000 -0.900000 -0.500000 -1.710997 1.006376
-1.304278 -1.500000 -0.500000 -2.038841 0.001348
-1.304278 -0.900000 -0.500000 -2.038841 1.006376
-1.304278 -0.900000 -0.500000 -0.035951 1.006376
-1.293431 -1.500000 -0.535757 0.023944 0.001348
-1.293431 -0.900000 -0.535757 0.023944 1.006376
-0.989949 -0.900000 -0.989949 -2.565356 -0.853010
-0.777798 -0.900000 -1.164057 -2.273717 -1.208374
-1.500000 -0.900000 -1.500000 -1.710997 0.001348
-1.500000 -0.900000 -1.500000 1.639096 1.006376
-1.500000 -1.100000 -1.500000 1.639096 0.671367
-1.500000 -1.100000 -0.714103 0.322682 0.671367
-1.364057 -1.500000 -0.977798 0.764384 -0.226362
-0.989949 -1.500000 -0.989949 0.784738 -0.853010
-1.164057 -1.500000 -0.777798 0.429375 -0.561372
-1.164057 -1.500000 -0.777798 0.429375 0.001348
-1.164057 -0.900000 -0.777798 0.429375 1.006376
-0.714103 -1.100000 -1.500000 -3.027412 0.671367
-1.500000 -0.900000 -1.500000 -1.710997 1.006376
-0.500000 -0.900000 -1.500000 -3.386044 1.006376
-0.989949 -1.500000 -0.989949 0.784738 0.001348
-0.989949 -0.900000 -0.989949 0.784738 1.006376
-0.777798 -1.500000 -1.164057 0.429374 0.001348
-0.777798 -0.900000 -1.164057 0.429374 1.006376
-0.535757 -1.500000 -1.293431 0.023944 0.001348
-0.535757 -0.900000 -1.293431 0.023944 1.006376
-0.500000 -1.500000 -1.304278 -0.035951 0.001348
-0.500000 -1.500000 -1.500000 -1.710997 0.001348
-0.500000 -0.900000 -1.304278 -2.038841 1.006376
-0.500000 -1.500000 -1.304278 -2.038841 0.001348
-1.500000 -1.100000 -1.500000 1.639096 0.001348
-1.189950 -1.100000 -1.189950 1.119747 -0.518001
-1.364057 -1.100000 -0.977798 0.764384 -0.226362
-1.493431 -1.500000 -0.735757 0.358953 0.001348
-1.493431 -1.100000 -0.735757 0.358953 0.671367
-1.364057 -1.100000 -0.977798 0.764384 0.671367
-1.364057 -1.500000 -0.977798 0.764384 0.001348
-1.364057 -1.500000 -0.977798 -2.585709 0.001348
-1.189950 -1.100000 -1.189950 -2.230346 0.671367
-1.189950 -1.500000 -1.189950 -2.230346 0.001348
-1.189950 -1.500000 -1.189950 1.119747 0.001348
-0.977798 -1.100000 -1.364058 0.764384 0.671367
-0.977798 -1.500000 -1.364058 0.764384 0.001348
-0.735757 -1.100000 -1.493431 0.358953 0.671367
-0.735757 -1.500000 -1.493431 0.358953 0.001348
-0.714103 -1.500000 -1.500000 0.322682 0.001348
-0.714103 -1.100000 -1.500000 0.322682 0.671367
1.500000 -0.900000 0.500000 -1.710997 1.006376
1.304278 -1.500000 0.500000 -2.038841 0.001348
1.304278 -0.900000 0.500000 -2.038841 1.006376
1.304278 -0.900000 0.500000 -0.035951 1.006376
1.293431 -1.500000 0.535757 0.023944 0.001348
1.293431 -0.900000 0.535757 0.023944 1.006376
0.989949 -0.900000 0.989949 -2.565356 -0.853010
0.777798 -0.900000 1.164057 -2.273717 -1.208374
1.500000 -0.900000 1.500000 -1.710997 0.001348
1.500000 -0.900000 1.500000 1.639096 1.006376
1.500000 -1.100000 1.500000 1.639096 0.671367
1.500000 -1.100000 0.714103 0.322682 0.671367
1.364057 -1.500000 0.977798 0.764384 -0.226362
0.989949 -1.500000 0.989949 0.784738 -0.853010
1.164057 -1.500000 0.777798 0.429375 -0.561372
1.164057 -1.500000 0.777798 0.429375 0.001348
1.164057 -0.900000 0.777798 0.429375 1.006376
0.714103 -1.100000 1.500000 -3.027412 0.671367
1.500000 -0.900000 1.500000 -1.710997 1.006376
0.500000 -0.900000 1.500000 -3.386044 1.006376
0.989949 -1.500000 0.989949 0.784738 0.001348
0.989949 -0.900000 0.989949 0.784738 1.006376
0.777798 -1.500000 1.164057 0.429374 0.001348
0.777798 -0.900000 1.164057 0.429374 1.006376
0.535757 -1.500000 1.293431 0.023944 0.001348
0.535757 -0.900000 1.293431 0.023944 1.006376
0.500000 -1.500000 1.304278 -0.035951 0.001348
0.500000 -1.500000 1.500000 -1.710997 0.001348
0.500000 -0.900000 1.304278 -2.038841 1.006376
0.500000 -1.500000 1.304278 -2.038841 0.001348
1.500000 -1.100000 1.500000 1.639096 0.001348
1.189950 -1.100000 1.189950 1.119747 -0.518001
1.364057 -1.100000 0.977798 0.764384 -0.226362
1.493431 -1.500000 0.735757 0.358953 0.001348
1.493431 -1.100000 0.735757 0.358953 0.671367
1.364057 -1.100000 0.977798 0.764384 0.671367
1.364057 -1.500000 0.977798 0.764384 0.001348
1.364057 -1.500000 0.977798 -2.585709 0.001348
1.189950 -1.100000 1.189950 -2.230346 0.671367
1.189950 -1.500000 1.189950 -2.230346 0.001348
1.189950 -1.500000 1.189950 1.119747 0.001348
0.977798 -1.100000 1.364058 0.764384 0.671367
0.977798 -1.500000 1.364058 0.764384 0.001348
0.735757 -1.100000 1.493431 0.358953 0.671367
0.735757 -1.500000 1.493431 0.358953 0.001348
0.714103 -1.500000 1.500000 0.322682 0.001348
0.714103 -1.100000 1.500000 0.322682 0.671367
-0.500000 -0.900000 1.500000 -1.710997 1.006376
-0.500000 -1.500000 1.304278 -2.038841 0.001348
-0.500000 -0.900000 1.304278 -2.038841 1.006376
-0.500000 -0.900000 1.304278 -0.035951 1.006376
-0.535757 -1.500000 1.293432 0.023944 0.001348
-0.535757 -0.900000 1.293432 0.023944 1.006376
-0.989950 -0.900000 0.989949 -2.565356 -0.853010
-1.164057 -0.900000 0.777798 -2.273717 -1.208374
-1.500000 -0.900000 1.500000 -1.710997 0.001348
-1.500000 -0.900000 1.500000 1.639096 1.006376
-1.500000 -1.100000 1.500000 1.639096 0.671367
-0.714103 -1.100000 1.500000 0.322682 0.671367
-0.977798 -1.500000 1.364057 0.764384 -0.226362
-0.989950 -1.500000 0.989949 0.784738 -0.853010
-0.777798 -1.500000 1.164057 0.429375 -0.561372
-0.777798 -1.500000 1.164057 0.429375 0.001348
-0.777798 -0.900000 1.164057 0.429375 1.006376
-1.500000 -1.100000 0.714103 -3.027412 0.671367
-1.500000 -0.900000 1.500000 -1.710997 1.006376
-1.500000 -0.900000 0.500000 -3.386044 1.006376
-0.989950 -1.500000 0.989949 0.784738 0.001348
-0.989950 -0.900000 0.989949 0.784738 1.006376
-1.164057 -1.500000 0.777798 0.429374 0.001348
-1.164057 -0.900000 0.777798 0.429374 1.006376
-1.293431 -1.500000 0.535757 0.023944 0.001348
-1.293431 -0.900000 0.535757 0.023944 1.006376
-1.304278 -1.500000 0.500000 -0.035951 0.001348
-1.500000 -1.500000 0.500000 -1.710997 0.001348
-1.304278 -0.900000 0.500000 -2.038841 1.006376
-1.304278 -1.500000 0.500000 -2.038841 0.001348
-1.500000 -1.100000 1.500000 1.639096 0.001348
-1.189950 -1.100000 1.189950 1.119747 -0.518001
-0.977798 -1.100000 1.364057 0.764384 -0.226362
-0.735757 -1.500000 1.493432 0.358953 0.001348
-0.735757 -1.100000 1.493432 0.358953 0.671367
-0.977798 -1.100000 1.364057 0.764384 0.671367
-0.977798 -1.500000 1.364057 0.764384 0.001348
-0.977798 -1.500000 1.364057 -2.585709 0.001348
-1.189950 -1.100000 1.189950 -2.230346 0.671367
-1.189950 -1.500000 1.189950 -2.230346 0.001348
-1.189950 -1.500000 1.189950 1.119747 0.001348
-1.364058 -1.100000 0.977798 0.764384 0.671367
-1.364058 -1.500000 0.977798 0.764384 0.001348
-1.493431 -1.100000 0.735757 0.358953 0.671367
-1.493431 -1.500000 0.735757 0.358953 0.001348
-1.500000 -1.500000 0.714103 0.322682 0.001348
-1.500000 -1.100000 0.714103 0.322682 0.671367
0.500000 -1.500000 -1.500000 -1.710997 0.001348
0.500000 -1.500000 -1.304278 -0.035951 0.001348
1.500000 -0.900000 -0.500000 -1.710997 -1.673699
0.500000 -0.900000 -1.500000 -3.386044 0.001348
0.777798 -0.900000 -1.164057 -2.920718 -0.561372
0.500000 -0.900000 -1.304278 -3.386044 -0.326495
0.535757 -0.900000 -1.293431 -3.326149 -0.344664
1.293431 -0.900000 -0.535757 -2.057010 -1.613804
1.304278 -0.900000 -0.500000 -2.038841 -1.673699
0.714103 -1.500000 -1.500000 0.322682 0.001348
0.500000 -1.500000 -1.500000 -0.035951 0.001348
0.500000 -0.900000 -1.500000 -0.035951 1.006376
0.500000 -1.500000 -1.304278 -0.035951 -0.326495
0.535757 -1.500000 -1.293431 0.023944 -0.344664
0.735757 -1.500000 -1.493431 0.358953 -0.009655
1.189950 -1.500000 -1.189950 1.119747 -0.518001
1.364058 -1.500000 -0.977798 1.411386 -0.873364
1.493431 -1.500000 -0.735757 1.628094 -1.278795
1.164057 -1.500000 -0.777798 1.076376 -1.208374
1.500000 -1.500000 -0.714103 1.639096 -1.315067
1.293431 -1.500000 -0.535757 1.293084 -1.613804
1.500000 -1.500000 -0.500000 1.639096 -1.673699
1.304278 -1.500000 -0.500000 1.311252 -1.673699
1.500000 -1.100000 -1.500000 -1.710997 0.671367
1.500000 -1.500000 -0.500000 -3.386044 0.001348
1.500000 -1.500000 -0.714103 -3.027412 0.001348
1.304278 -0.900000 -0.500000 -0.035951 1.006376
1.500000 -0.900000 -0.500000 -1.710997 1.006376
0.735757 -1.100000 -1.493431 0.358953 -0.009655
0.714103 -1.100000 -1.500000 0.322682 0.001348
1.500000 -1.100000 -0.714103 1.639096 -1.315067
1.493431 -1.100000 -0.735757 1.628094 -1.278795
1.364058 -1.100000 -0.977798 1.411386 -0.873364
0.977798 -1.100000 -1.364057 -2.585709 0.671367
1.189950 -1.100000 -1.189950 1.119747 0.671367
-1.500000 -1.500000 -0.500000 -1.710997 0.001348
-1.304278 -1.500000 -0.500000 -0.035951 0.001348
-0.500000 -0.900000 -1.500000 -1.710997 -1.673699
-1.500000 -0.900000 -0.500000 -3.386044 0.001348
-1.164057 -0.900000 -0.777798 -2.920718 -0.561372
-1.304278 -0.900000 -0.500000 -3.386044 -0.326495
-1.293431 -0.900000 -0.535757 -3.326149 -0.344664
-0.535757 -0.900000 -1.293431 -2.057010 -1.613804
-0.500000 -0.900000 -1.304278 -2.038841 -1.673699
-1.500000 -1.500000 -0.714103 0.322682 0.001348
-1.500000 -1.500000 -0.500000 -0.035951 0.001348
-1.500000 -0.900000 -0.500000 -0.035951 1.006376
-1.304278 -1.500000 -0.500000 -0.035951 -0.326495
-1.293431 -1.500000 -0.535757 0.023944 -0.344664
-1.493431 -1.500000 -0.735757 0.358953 -0.009655
-1.189950 -1.500000 -1.189950 1.119747 -0.518001
-0.977798 -1.500000 -1.364058 1.411386 -0.873364
-0.735757 -1.500000 -1.493431 1.628094 -1.278795
-0.777798 -1.500000 -1.164057 1.076376 -1.208374
-0.714103 -1.500000 -1.500000 1.639096 -1.315067
-0.535757 -1.500000 -1.293431 1.293084 -1.613804
-0.500000 -1.500000 -1.500000 1.639096 -1.673699
-0.500000 -1.500000 -1.304278 1.311252 -1.673699
-1.500000 -1.100000 -1.500000 -1.710997 0.671367
-0.500000 -1.500000 -1.500000 -3.386044 0.001348
-0.714103 -1.500000 -1.500000 -3.027412 0.001348
-0.500000 -0.900000 -1.304278 -0.035951 1.006376
-0.500000 -0.900000 -1.500000 -1.710997 1.006376
-1.493431 -1.100000 -0.735757 0.358953 -0.009655
-1.500000 -1.100000 -0.714103 0.322682 0.001348
-0.714103 -1.100000 -1.500000 1.639096 -1.315067
-0.735757 -1.100000 -1.493431 1.628094 -1.278795
-0.977798 -1.100000 -1.364058 1.411386 -0.873364
-1.364057 -1.100000 -0.977798 -2.585709 0.671367
-1.189950 -1.100000 -1.189950 1.119747 0.671367
1.500000 -1.500000 0.500000 -1.710997 0.001348
1.304278 -1.500000 0.500000 -0.035951 0.001348
0.500000 -0.900000 1.500000 -1.710997 -1.673699
1.500000 -0.900000 0.500000 -3.386044 0.001348
1.164057 -0.900000 0.777798 -2.920718 -0.561372
1.304278 -0.900000 0.500000 -3.386044 -0.326495
1.293431 -0.900000 0.535757 -3.326149 -0.344664
0.535757 -0.900000 1.293431 -2.057010 -1.613804
0.500000 -0.900000 1.304278 -2.038841 -1.673699
1.500000 -1.500000 0.714103 0.322682 0.001348
1.500000 -1.500000 0.500000 -0.035951 0.001348
1.500000 -0.900000 0.500000 -0.035951 1.006376
1.304278 -1.500000 0.500000 -0.035951 -0.326495
1.293431 -1.500000 0.535757 0.023944 -0.344664
1.493431 -1.500000 0.735757 0.358953 -0.009655
1.189950 -1.500000 1.189950 1.119747 -0.518001
0.977798 -1.500000 1.364058 1.411386 -0.873364
0.735757 -1.500000 1.493431 1.628094 -1.278795
0.777798 -1.500000 1.164057 1.076376 -1.208374
0.714103 -1.500000 1.500000 1.639096 -1.315067
0.535757 -1.500000 1.293431 1.293084 -1.613804
0.500000 -1.500000 1.500000 1.639096 -1.673699
0.500000 -1.500000 1.304278 1.311252 -1.673699
1.500000 -1.100000 1.500000 -1.710997 0.671367
0.500000 -1.500000 1.500000 -3.386044 0.001348
0.714103 -1.500000 1.500000 -3.027412 0.001348
0.500000 -0.900000 1.304278 -0.035951 1.006376
0.500000 -0.900000 1.500000 -1.710997 1.006376
1.493431 -1.100000 0.735757 0.358953 -0.009655
1.500000 -1.100000 0.714103 0.322682 0.001348
0.714103 -1.100000 1.500000 1.639096 -1.315067
0.735757 -1.100000 1.493431 1.628094 -1.278795
0.977798 -1.100000 1.364058 1.411386 -0.873364
1.364057 -1.100000 0.977798 -2.585709 0.671367
1.189950 -1.100000 1.189950 1.119747 0.671367
-0.500000 -1.500000 1.500000 -1.710997 0.001348
-0.500000 -1.500000 1.304278 -0.035951 0.001348
-1.500000 -0.900000 0.500000 -1.710997 -1.673699
-0.500000 -0.900000 1.500000 -3.386044 0.001348
-0.777798 -0.900000 1.164057 -2.920718 -0.561372
-0.500000 -0.900000 1.304278 -3.386044 -0.326495
-0.535757 -0.900000 1.293432 -3.326149 -0.344664
-1.293431 -0.900000 0.535757 -2.057010 -1.613804
-1.304278 -0.900000 0.500000 -2.038841 -1.673699
-0.714103 -1.500000 1.500000 0.322682 0.001348
-0.500000 -1.500000 1.500000 -0.035951 0.001348
-0.500000 -0.900000 1.500000 -0.035951 1.006376
-0.500000 -1.500000 1.304278 -0.035951 -0.326495
-0.535757 -1.500000 1.293432 0.023944 -0.344664
-0.735757 -1.500000 1.493432 0.358953 -0.009655
-1.189950 -1.500000 1.189950 1.119747 -0.518001
-1.364058 -1.500000 0.977798 1.411386 -0.873364
-1.493431 -1.500000 0.735757 1.628094 -1.278795
-1.164057 -1.500000 0.777798 1.076376 -1.208374
-1.500000 -1.500000 0.714103 1.639096 -1.315067
-1.293431 -1.500000 0.535757 1.293084 -1.613804
-1.500000 -1.500000 0.500000 1.639096 -1.673699
-1.304278 -1.500000 0.500000 1.311252 -1.673699
-1.500000 -1.100000 1.500000 -1.710997 0.671367
-1.500000 -1.500000 0.500000 -3.386044 0.001348
-1.500000 -1.500000 0.714103 -3.027412 0.001348
-1.304278 -0.900000 0.500000 -0.035951 1.006376
-1.500000 -0.900000 0.500000 -1.710997 1.006376
-0.735757 -1.100000 1.493432 0.358953 -0.009655
-0.714103 -1.100000 1.500000 0.322682 0.001348
-1.500000 -1.100000 0.714103 1.639096 -1.315067
-1.493431 -1.100000 0.735757 1.628094 -1.278795
-1.364058 -1.100000 0.977798 1.411386 -0.873364
-0.977798 -1.100000 1.364057 -2.585709 0.671367
-1.189950 -1.100000 1.189950 1.119747 0.671367
3 0 1 2
3 3 4 5
3 6 7 8
3 9 10 11
3 12 13 14
3 5 15 16
3 17 18 19
3 16 20 21
3 21 22 23
3 23 24 25
3 26 25 24
3 27 28 29
3 30 31 32
3 33 11 34
3 33 35 36
3 37 38 39
3 40 41 42
3 42 43 44
3 45 43 46
3 47 48 49
3 50 51 52
3 53 54 55
3 56 57 58
3 59 60 61
3 52 62 63
3 64 65 66
3 63 67 68
3 68 69 70
3 70 71 72
3 73 72 71
3 74 75 76
3 77 78 79
3 80 58 81
3 80 82 83
3 84 85 86
3 87 88 89
3 89 90 91
3 92 90 93
3 94 95 96
3 97 98 99
3 100 101 102
3 103 104 105
3 106 107 108
3 99 109 110
3 111 112 113
3 110 114 115
3 115 116 117
3 117 118 119
3 120 119 118
3 121 122 123
3 124 125 126
3 127 105 128
3 127 129 130
3 131 132 133
3 134 135 136
3 136 137 138
3 139 137 140
3 141 142 143
3 144 145 146
3 147 148 149
3 150 151 152
3 153 154 155
3 146 156 157
3 158 159 160
3 157 161 162
3 162 163 164
3 164 165 166
3 167 166 165
3 168 169 170
3 171 172 173
3 174 152 175
3 174 176 177
3 178 179 180
3 181 182 183
3 183 184 185
3 186 184 187
3 0 188 1
3 3 189 4
3 190 8 7
3 8 191 192
3 6 8 192
3 191 193 194
3 191 194 192
3 195 196 190
3 7 195 190
3 197 198 11
3 198 199 11
3 199 9 11
3 200 198 201
3 198 197 201
3 197 202 201
3 202 12 14
3 12 203 13
3 203 204 13
3 204 205 206
3 205 207 208
3 206 205 208
3 207 209 208
3 209 210 208
3 202 14 201
3 204 206 13
3 5 4 15
3 17 211 18
3 19 212 17
3 212 213 17
3 16 15 20
3 21 20 22
3 23 22 24
3 26 214 25
3 27 215 28
3 216 217 30
3 30 218 219
3 30 219 220
3 32 216 30
3 30 220 31
3 33 197 11
3 33 34 35
3 37 221 38
3 40 222 41
3 42 41 43
3 45 44 43
3 47 223 48
3 50 224 51
3 225 55 54
3 55 226 227
3 53 55 227
3 226 228 229
3 226 229 227
3 230 231 225
3 54 230 225
3 232 233 58
3 233 234 58
3 234 56 58
3 235 233 236
3 233 232 236
3 232 237 236
3 237 59 61
3 59 238 60
3 238 239 60
3 239 240 241
3 240 242 243
3 241 240 243
3 242 244 243
3 244 245 243
3 237 61 236
3 239 241 60
3 52 51 62
3 64 246 65
3 66 247 64
3 247 248 64
3 63 62 67
3 68 67 69
3 70 69 71
3 73 249 72
3 74 250 75
3 251 252 77
3 77 253 254
3 77 254 255
3 79 251 77
3 77 255 78
3 80 232 58
3 80 81 82
3 84 256 85
3 87 257 88
3 89 88 90
3 92 91 90
3 94 258 95
3 97 259 98
3 260 102 101
3 102 261 262
3 100 102 262
3 261 263 264
3 261 264 262
3 265 266 260
3 101 265 260
3 267 268 105
3 268 269 105
3 269 103 105
3 270 268 271
3 268 267 271
3 267 272 271
3 272 106 108
3 106 273 107
3 273 274 107
3 274 275 276
3 275 277 278
3 276 275 278
3 277 279 278
3 279 280 278
3 272 108 271
3 274 276 107
3 99 98 109
3 111 281 112
3 113 282 111
3 282 283 111
3 110 109 114
3 115 114 116
3 117 116 118
3 120 284 119
3 121 285 122
3 286 287 124
3 124 288 289
3 124 289 290
3 126 286 124
3 124 290 125
3 127 267 105
3 127 128 129
3 131 291 132
3 134 292 135
3 136 135 137
3 139 138 137
3 141 293 142
3 144 294 145
3 295 149 148
3 149 296 297
3 147 149 297
3 296 298 299
3 296 299 297
3 300 301 295
3 148 300 295
3 302 303 152
3 303 304 152
3 304 150 152
3 305 303 306
3 303 302 306
3 302 307 306
3 307 153 155
3 153 308 154
3 308 309 154
3 309 310 311
3 310 312 313
3 311 310 313
3 312 314 313
3 314 315 313
3 307 155 306
3 309 311 154
3 146 145 156
3 158 316 159
3 160 317 158
3 317 318 158
3 157 156 161
3 162 161 163
3 164 163 165
3 167 319 166
3 168 320 169
3 321 322 171
3 171 323 324
3 171 324 325
3 173 321 171
3 171 325 172
3 174 302 152
3 174 175 176
3 178 326 179
3 181 327 182
3 183 182 184
3 186 185 184
