ply
format ascii 1.0
comment Created by Blender 2.79 (sub 0) - www.blender.org, source file: 'largeoven.blend'
element vertex 158
property float x
property float y
property float z
property float s
property float t
element face 116
property list uchar uint vertex_indices
end_header
1.500000 1.000000 -0.500000 0.000000 0.500000
1.500000 0.600000 0.500000 1.000000 0.100000
1.500000 0.600000 -0.500000 0.000000 0.100000
-0.320000 1.000000 -0.500000 0.350000 0.350000
1.500000 0.600000 -0.500000 -0.050000 1.650000
-0.320000 0.600000 -0.500000 -0.050000 0.350000
1.500000 1.000000 0.500000 0.350000 0.650000
-0.320000 0.600000 0.500000 -0.050000 -0.650000
1.500000 0.600000 0.500000 -0.050000 0.650000
-0.320000 0.965000 -0.400000 0.100000 0.465000
-0.320000 1.000000 -0.500000 0.000000 0.500000
-0.320000 0.600000 -0.500000 0.000000 0.100000
1.500000 1.000000 -0.500000 0.350000 0.650000
-0.320000 1.154509 -0.475528 0.504509 -0.650000
1.500000 1.154509 -0.475528 0.504509 0.650000
-0.320000 1.154508 0.475528 0.504508 -0.650000
1.500000 1.154508 0.475528 0.504508 0.650000
-0.320000 1.000000 0.500000 0.000000 0.500000
-0.320000 1.000000 0.395231 -0.104768 0.500000
-0.320000 0.965000 0.400000 -0.100000 0.465000
1.000000 0.965000 -0.400000 0.557143 0.465000
-0.320000 0.600000 -0.400000 1.500000 0.100000
1.000000 0.600000 -0.400000 0.557143 0.100000
1.000000 1.108693 -0.380423 0.557143 0.608693
-0.320000 1.108693 -0.380423 1.500000 0.608693
-0.320000 1.000000 -0.395231 1.500000 0.500000
-0.320000 1.500000 0.000000 0.500001 1.000000
-0.320000 1.407241 -0.123606 0.376394 0.907241
-0.320000 1.430000 0.000000 0.500000 0.930000
-0.320000 1.293893 -0.404508 0.643893 -0.650000
1.500000 1.293893 -0.404508 0.643893 0.650000
1.500000 1.500000 0.000000 0.500000 1.000000
1.500000 1.404508 0.293893 0.793893 0.904508
1.500000 1.000000 0.500000 1.000000 0.500000
-0.320000 1.293892 0.404509 0.643892 -0.650000
1.500000 1.293892 0.404509 0.643892 0.650000
1.000000 0.965000 0.400000 0.557143 0.465000
-0.320000 0.965000 0.400000 1.500000 0.465000
-0.320000 1.000000 0.395231 1.500000 0.500000
-0.320000 0.965000 0.400000 0.500000 0.465000
1.000000 0.600000 0.400000 -0.442857 0.100000
-0.320000 0.600000 0.400000 0.500000 0.100000
1.000000 0.965000 0.400000 0.900000 0.465000
1.000000 0.600000 -0.400000 0.100000 0.100000
1.000000 0.600000 0.400000 0.900000 0.100000
1.000000 1.341193 -0.235114 0.264886 0.841193
1.000000 1.238320 -0.323607 0.176393 0.738320
1.000000 1.341193 0.235114 0.735115 0.841193
-0.320000 1.238320 -0.323607 0.500000 0.738320
1.000000 1.108693 -0.380423 -0.442857 0.608693
1.000000 1.238320 -0.323607 -0.442857 0.738320
-0.320000 1.341193 -0.235114 0.500000 0.841193
1.000000 1.341193 -0.235114 -0.442857 0.841193
-0.320000 1.407241 -0.123606 0.500000 0.376394
1.000000 1.341193 -0.235114 -0.442857 0.264886
1.000000 1.407241 -0.123606 -0.442857 0.376394
1.000000 1.430000 0.000000 -0.442857 0.500000
-0.320000 1.430000 0.000000 0.500000 0.500000
-0.320000 1.407241 0.123607 0.500000 0.623607
1.000000 1.407241 0.123607 -0.442857 0.623607
1.000000 1.341193 0.235114 -0.442857 0.735115
-0.320000 1.341193 0.235114 0.500000 0.735115
-0.320000 1.341193 0.235114 0.500000 0.841193
1.000000 1.238320 0.323607 -0.442857 0.738320
-0.320000 1.238320 0.323607 0.500000 0.738320
1.000000 1.108692 0.380423 -0.442857 0.608692
-0.320000 1.108692 0.380423 0.500000 0.608692
-0.320000 1.404508 0.293893 0.754508 -0.650000
1.500000 1.404508 0.293893 0.754508 0.650000
-0.320000 1.475528 0.154509 0.504509 -0.650000
1.500000 1.404508 0.293893 0.643893 0.650000
1.500000 1.475528 0.154509 0.504509 0.650000
1.500000 1.500000 0.000000 0.350001 0.650000
-0.320000 1.475528 -0.154508 0.195492 -0.650000
1.500000 1.475528 -0.154508 0.195492 0.650000
1.500000 1.404509 -0.293892 0.056108 0.650000
-0.320000 1.293893 -0.404508 -0.054508 -0.650000
1.500000 1.293893 -0.404508 -0.054508 0.650000
1.000000 0.600000 -0.400000 -0.442857 -0.900000
1.500000 0.600000 -0.500000 -0.800000 -1.000000
1.500000 0.600000 0.500000 -0.800000 0.000000
1.500000 0.600000 -0.550000 0.950000 1.100000
1.500000 -0.500000 0.550000 2.050000 0.000000
1.500000 -0.500000 -0.550000 0.950000 0.000000
1.500000 0.600000 0.550000 0.200000 1.100000
-0.500000 -0.500000 0.550000 1.628572 0.000000
1.500000 -0.500000 0.550000 0.200000 0.000000
-0.500000 0.600000 0.550000 0.050000 1.100000
-0.500000 -0.500000 -0.550000 -1.050000 0.000000
-0.500000 -0.500000 0.550000 0.050000 0.000000
-0.500000 0.600000 -0.550000 0.628572 1.100000
1.500000 -0.500000 -0.550000 -0.800000 0.000000
-0.500000 -0.500000 -0.550000 0.628572 0.000000
-0.500000 -0.500000 0.550000 1.628572 0.050000
1.500000 -0.500000 -0.550000 0.200000 -1.050000
1.500000 -0.500000 0.550000 0.200000 0.050000
1.500000 0.600000 0.550000 -0.800000 0.050000
-0.500000 0.600000 -0.550000 0.628572 -1.050000
-0.500000 0.600000 0.550000 0.628572 0.050000
1.500000 1.000000 -0.500000 0.350000 1.650000
-0.320000 1.000000 0.500000 0.350000 -0.650000
-0.320000 0.600000 -0.400000 0.100000 0.100000
-0.320000 1.000000 -0.395231 0.104769 0.500000
-0.320000 1.000000 -0.500000 0.350000 -0.650000
-0.320000 0.600000 0.400000 -0.100000 0.100000
-0.320000 0.600000 0.500000 0.000000 0.100000
-0.320000 0.965000 -0.400000 1.500000 0.465000
-0.320000 1.154509 -0.475528 0.024472 0.654509
-0.320000 1.108693 -0.380423 0.119578 0.608693
-0.320000 1.404509 -0.293892 0.206108 0.904509
-0.320000 1.293893 -0.404508 0.095492 0.793893
-0.320000 1.238320 -0.323607 0.176393 0.738320
-0.320000 1.475528 -0.154508 0.345492 0.975528
-0.320000 1.341193 -0.235114 0.264886 0.841193
-0.320000 1.404508 0.293893 0.793893 0.904508
-0.320000 1.475528 0.154509 0.654509 0.975528
-0.320000 1.341193 0.235114 0.735115 0.841193
-0.320000 1.407241 0.123607 0.623607 0.907241
-0.320000 1.154508 0.475528 0.975529 0.654508
-0.320000 1.293892 0.404509 0.904509 0.793892
-0.320000 1.238320 0.323607 0.823607 0.738320
-0.320000 1.000000 0.395231 0.895232 0.500000
-0.320000 1.000000 0.500000 1.000000 0.500000
-0.320000 1.108692 0.380423 0.880423 0.608692
1.500000 1.293892 0.404509 0.904509 0.793892
1.500000 1.154508 0.475528 0.975528 0.654508
1.500000 1.154509 -0.475528 0.024472 0.654509
1.500000 1.293893 -0.404508 0.095492 0.793893
1.500000 1.404509 -0.293892 0.206108 0.904509
1.500000 1.475528 -0.154508 0.345492 0.975528
1.500000 1.475528 0.154509 0.654509 0.975528
-0.320000 1.108692 0.380423 1.500000 0.608692
1.000000 1.108692 0.380423 0.557143 0.608692
1.000000 0.965000 0.400000 -0.442857 0.465000
1.000000 0.965000 -0.400000 0.100000 0.465000
1.000000 1.108693 -0.380423 0.119577 0.608693
1.000000 1.108692 0.380423 0.880423 0.608692
1.000000 1.238320 0.323607 0.823607 0.738320
1.000000 1.407241 0.123607 0.623607 0.907241
1.000000 1.407241 -0.123606 0.376394 0.907241
1.000000 1.430000 0.000000 0.500000 0.930000
-0.320000 1.108693 -0.380423 0.500000 0.608693
-0.320000 1.341193 -0.235114 0.500000 0.264886
1.000000 1.341193 0.235114 -0.442857 0.841193
-0.320000 1.404508 0.293893 0.643893 -0.650000
-0.320000 1.500000 0.000000 0.350001 -0.650000
-0.320000 1.404509 -0.293892 0.056108 -0.650000
-0.320000 0.600000 0.500000 0.500000 0.000000
1.000000 0.600000 0.400000 -0.442857 -0.100000
-0.320000 0.600000 0.400000 0.500000 -0.100000
-0.320000 0.600000 -0.400000 0.500000 -0.900000
-0.320000 0.600000 -0.500000 0.500000 -1.000000
1.500000 0.600000 0.550000 2.050000 1.100000
-0.500000 0.600000 0.550000 1.628572 1.100000
-0.500000 0.600000 -0.550000 -1.050000 1.100000
1.500000 0.600000 -0.550000 -0.800000 1.100000
-0.500000 -0.500000 -0.550000 1.628572 -1.050000
1.500000 0.600000 -0.550000 -0.800000 -1.050000
3 0 1 2
3 3 4 5
3 6 7 8
3 9 10 11
3 12 13 14
3 15 6 16
3 17 18 19
3 20 21 22
3 23 24 25
3 26 27 28
3 14 29 30
3 31 32 33
3 34 16 35
3 36 37 38
3 39 40 41
3 42 43 44
3 45 46 47
3 48 49 50
3 51 50 52
3 53 54 55
3 53 56 57
3 58 56 59
3 58 60 61
3 62 63 64
3 64 65 66
3 67 35 68
3 69 70 71
3 72 69 71
3 73 72 74
3 75 73 74
3 76 75 77
3 78 79 80
3 81 82 83
3 84 85 86
3 87 88 89
3 90 91 92
3 93 94 95
3 96 97 98
3 0 33 1
3 3 99 4
3 6 100 7
3 11 101 9
3 9 102 10
3 12 103 13
3 15 100 6
3 104 105 19
3 105 17 19
3 20 106 21
3 106 20 25
3 20 23 25
3 107 10 108
3 10 102 108
3 109 110 111
3 110 107 111
3 26 112 27
3 112 109 113
3 27 112 113
3 114 115 116
3 115 26 117
3 117 26 28
3 118 119 120
3 119 114 120
3 121 122 123
3 122 118 123
3 107 108 111
3 123 118 120
3 109 111 113
3 116 120 114
3 117 116 115
3 14 13 29
3 124 125 32
3 125 33 32
3 33 0 126
3 126 127 33
3 127 128 33
3 128 129 31
3 31 130 32
3 128 31 33
3 34 15 16
3 131 132 38
3 132 36 38
3 39 133 40
3 42 134 43
3 46 135 136
3 135 134 136
3 134 42 136
3 136 137 46
3 137 47 46
3 47 138 139
3 138 140 139
3 139 45 47
3 48 141 49
3 51 48 50
3 53 142 54
3 53 55 56
3 58 57 56
3 58 59 60
3 62 143 63
3 64 63 65
3 67 34 35
3 69 144 70
3 72 145 69
3 73 145 72
3 75 146 73
3 76 146 75
3 80 147 148
3 147 149 148
3 150 151 78
3 151 79 78
3 80 148 78
3 81 152 82
3 84 153 85
3 87 154 88
3 90 155 91
3 93 156 94
3 96 157 97
