ply
format ascii 1.0
comment Created by Blender 2.79 (sub 0) - www.blender.org, source file: 'largeoven.blend'
element vertex 56
property float x
property float y
property float z
property float s
property float t
element face 84
property list uchar uint vertex_indices
end_header
-0.195000 0.085000 -0.401414 0.166562 0.616275
-0.195000 0.247000 0.398586 0.796354 0.751035
-0.195000 0.085000 0.398586 0.796919 0.623061
-0.195000 0.247000 -0.401414 0.163917 0.745147
-0.245000 0.247000 0.398586 0.819618 0.769922
-0.245000 0.247000 -0.401414 0.137911 0.763720
-0.245000 0.085000 0.398586 0.820145 0.631986
-0.245000 0.085000 -0.401414 0.140853 0.624740
-0.175000 -0.590000 0.272667 0.105593 0.287801
-0.175000 0.220000 0.432667 0.720898 0.170037
-0.175000 -0.590000 0.432667 0.107588 0.167603
-0.225000 -0.590000 0.432667 0.078222 0.143950
-0.225000 0.220000 0.432667 0.737143 0.146163
-0.225000 -0.590000 0.272667 0.076036 0.273013
-0.225000 0.382000 0.272667 0.870594 0.278338
-0.175000 -0.590000 0.102000 0.103459 0.416376
-0.175000 0.382000 0.262000 0.844832 0.301214
-0.175000 -0.590000 0.262000 0.105460 0.295826
-0.225000 -0.590000 0.262000 0.075890 0.281630
-0.225000 0.382000 0.262000 0.870524 0.287133
-0.225000 -0.590000 0.102000 0.073697 0.411098
-0.225000 0.436000 0.102000 0.914652 0.419742
-0.175000 0.436000 -0.068667 0.884772 0.556097
-0.175000 -0.590000 0.091333 0.103325 0.424424
-0.175000 -0.590000 -0.068667 0.101318 0.545327
-0.175000 0.436000 0.091333 0.885725 0.432731
-0.225000 -0.590000 0.091333 0.073550 0.419743
-0.225000 0.436000 0.091333 0.914587 0.428576
-0.225000 -0.590000 -0.068667 0.071350 0.549617
-0.225000 0.436000 -0.068667 0.913605 0.561298
-0.175000 0.382000 -0.239333 0.841666 0.687349
-0.175000 -0.590000 -0.079333 0.101184 0.553399
-0.175000 -0.590000 -0.239333 0.099171 0.674656
-0.175000 0.436000 -0.079333 0.884709 0.564333
-0.225000 -0.590000 -0.079333 0.071203 0.558289
-0.225000 0.382000 -0.239333 0.867238 0.702517
-0.225000 -0.590000 -0.239333 0.068997 0.688573
-0.225000 0.436000 -0.079333 0.913539 0.570160
-0.175000 0.274000 -0.410000 0.756553 0.817854
-0.175000 -0.590000 -0.250000 0.099037 0.682751
-0.175000 -0.590000 -0.410000 0.097018 0.804364
-0.175000 0.382000 -0.250000 0.841598 0.695601
-0.225000 -0.590000 -0.250000 0.068849 0.697272
-0.225000 0.274000 -0.410000 0.775650 0.842913
-0.225000 -0.590000 -0.410000 0.066635 0.827966
-0.225000 0.382000 -0.250000 0.867168 0.711398
-0.195000 -0.347000 -0.405303 0.103669 0.275693
-0.195000 -0.185000 0.415849 0.811283 0.411790
-0.195000 -0.347000 0.415849 0.811795 0.286032
-0.195000 -0.185000 -0.405303 0.100840 0.402433
-0.245000 -0.185000 0.415849 0.835474 0.404425
-0.245000 -0.185000 -0.405303 0.070166 0.394278
-0.245000 -0.347000 0.415849 0.835941 0.269061
-0.245000 -0.347000 -0.405303 0.073321 0.257776
-0.175000 0.382000 0.272667 0.844899 0.293035
-0.175000 0.436000 0.102000 0.885789 0.424519
3 0 1 2
3 3 4 1
3 5 6 4
3 7 2 6
3 4 2 1
3 3 7 5
3 8 9 10
3 9 11 10
3 12 13 11
3 14 8 13
3 11 8 10
3 9 14 12
3 15 16 17
3 16 18 17
3 19 20 18
3 21 15 20
3 18 15 17
3 16 21 19
3 22 23 24
3 25 26 23
3 27 28 26
3 29 24 28
3 26 24 23
3 25 29 27
3 30 31 32
3 33 34 31
3 34 35 36
3 35 32 36
3 34 32 31
3 33 35 37
3 38 39 40
3 41 42 39
3 42 43 44
3 43 40 44
3 42 40 39
3 41 43 45
3 46 47 48
3 49 50 47
3 51 52 50
3 53 48 52
3 50 48 47
3 49 53 51
3 0 3 1
3 3 5 4
3 5 7 6
3 7 0 2
3 4 6 2
3 3 0 7
3 8 54 9
3 9 12 11
3 12 14 13
3 14 54 8
3 11 13 8
3 9 54 14
3 15 55 16
3 16 19 18
3 19 21 20
3 21 55 15
3 18 20 15
3 16 55 21
3 22 25 23
3 25 27 26
3 27 29 28
3 29 22 24
3 26 28 24
3 25 22 29
3 30 33 31
3 33 37 34
3 34 37 35
3 35 30 32
3 34 36 32
3 33 30 35
3 38 41 39
3 41 45 42
3 42 45 43
3 43 38 40
3 42 44 40
3 41 38 43
3 46 49 47
3 49 51 50
3 51 53 52
3 53 46 48
3 50 52 48
3 49 46 53
