ply
format ascii 1.0
comment Created by Blender 2.79 (sub 0) - www.blender.org, source file: 'shop.blend'
element vertex 184
property float x
property float y
property float z
property float s
property float t
property uchar red
property uchar green
property uchar blue
element face 96
property list uchar uint vertex_indices
end_header
0.337218 -0.795000 -1.333333 -2.556259 -0.674774 255 0 0
0.337218 -0.795000 1.333333 -0.770871 -0.674774 255 0 0
-0.482782 -0.795000 0.000000 -1.663565 0.049914 255 0 0
-0.368602 -0.545000 0.757713 0.285141 1.060230 255 0 0
-0.077225 -0.795000 1.333333 0.506082 0.674840 255 0 0
-0.077225 -0.545000 1.333333 0.285141 0.674840 255 0 0
-0.482782 -0.795000 0.000000 0.506082 -0.199999 255 0 0
-0.368602 -0.545000 0.757713 0.285141 -0.707304 255 0 0
-0.482782 -0.545000 0.000000 0.285141 -0.199999 255 0 0
-0.368602 -0.795000 -0.757713 0.506082 0.307305 255 0 0
-0.368602 -0.545000 -0.757713 0.285141 0.307305 255 0 0
-0.368602 -0.795000 -0.757713 0.506082 -1.460228 255 0 0
-0.077225 -0.545000 -1.333333 0.285141 -1.074839 255 0 0
-0.077225 -0.795000 -1.333333 0.506082 -1.074839 255 0 0
0.337218 -0.545000 1.333333 2.764196 -0.674775 255 0 0
0.337218 -0.545000 -1.333333 0.978808 -0.674774 255 0 0
-0.482782 -0.545000 0.000000 1.871502 0.049914 255 0 0
0.337218 -0.795000 1.333333 0.506082 0.674840 255 0 0
0.337218 -0.545000 -1.333333 0.285141 2.460228 255 0 0
0.337218 -0.545000 1.333333 0.285141 0.674840 255 0 0
0.337218 -0.545000 1.333333 0.285141 -0.674774 255 0 0
-0.077225 -0.795000 1.333333 0.506082 -0.308504 255 0 0
0.337218 -0.795000 1.333333 0.506082 -0.674774 255 0 0
0.337218 -0.795000 -1.333333 0.506082 -0.674774 255 0 0
-0.077225 -0.545000 -1.333333 0.285141 -0.308504 255 0 0
0.337218 -0.545000 -1.333333 0.285141 -0.674774 255 0 0
-0.077225 -0.795000 1.333333 -0.770871 -0.308504 255 0 0
-0.368602 -0.795000 0.757713 -1.156260 -0.050995 255 0 0
-0.368602 -0.795000 -0.757713 -2.170870 -0.050995 255 0 0
-0.077225 -0.795000 -1.333333 -2.556259 -0.308504 255 0 0
-0.368602 -0.795000 0.757713 0.506082 1.060230 255 0 0
-0.368602 -0.795000 0.757713 0.506082 -0.707304 255 0 0
-0.368602 -0.545000 -0.757713 0.285141 -1.460228 255 0 0
-0.077225 -0.545000 -1.333333 0.978808 -0.308504 255 0 0
-0.368602 -0.545000 -0.757713 1.364197 -0.050995 255 0 0
-0.368602 -0.545000 0.757713 2.378806 -0.050995 255 0 0
-0.077225 -0.545000 1.333333 2.764196 -0.308504 255 0 0
0.337218 -0.795000 -1.333333 0.506083 2.460228 255 0 0
-0.077225 -0.545000 1.333333 0.285141 -0.308504 255 0 0
-0.077225 -0.795000 -1.333333 0.506082 -0.308504 255 0 0
-0.480000 1.260000 1.200000 0.858059 -1.028057 255 0 0
-0.480000 1.160000 1.200000 0.944330 -1.028057 255 0 0
-0.480000 1.160000 1.300000 0.944330 -0.941786 255 0 0
-0.480000 1.260000 1.300000 0.858059 0.464433 255 0 0
-0.480000 1.160000 1.300000 0.944330 0.464433 255 0 0
0.080000 1.160000 1.300000 0.944330 0.947552 255 0 0
0.080000 1.260000 1.300000 0.858059 -0.941786 255 255 255
0.080000 1.160000 1.300000 0.944330 -0.941786 255 255 255
0.080000 1.160000 1.200000 0.944330 -1.028057 255 255 255
0.080000 1.260000 1.200000 0.858059 -0.777871 255 0 0
0.080000 1.160000 1.200000 0.944330 -0.777871 255 0 0
-0.480000 1.160000 1.200000 0.944330 -1.260990 255 0 0
0.080000 1.160000 1.300000 0.124754 0.947552 255 0 0
-0.480000 1.160000 1.300000 0.124754 0.464433 255 0 0
-0.480000 1.160000 1.200000 0.038483 0.464433 255 0 0
-0.480000 1.260000 1.300000 0.124754 -1.260990 255 0 0
0.080000 1.260000 1.300000 0.124754 -0.777871 255 0 0
0.080000 1.260000 1.200000 0.038483 -0.777871 255 0 0
0.060719 1.500000 1.125000 0.763861 0.662746 255 0 0
0.060719 -0.520000 1.125000 0.763861 0.014897 255 0 0
0.060719 -0.520000 1.375000 0.925823 0.014897 255 0 0
0.060719 1.500000 1.375000 0.792426 0.662746 255 0 0
0.060719 -0.520000 1.375000 0.792426 0.014897 255 0 0
0.310719 -0.520000 1.375000 0.954389 0.014897 255 0 0
0.310719 1.500000 1.375000 0.925823 0.662746 255 0 0
0.310719 -0.520000 1.375000 0.925823 0.014897 255 0 0
0.310719 -0.520000 1.125000 0.763861 0.014897 255 0 0
0.310719 1.500000 1.125000 0.954389 0.662746 255 0 0
0.310719 -0.520000 1.125000 0.954389 0.014897 255 0 0
0.060719 -0.520000 1.125000 0.792426 0.014897 255 0 0
0.310719 -0.520000 1.375000 0.954389 0.813937 255 0 0
0.060719 -0.520000 1.375000 0.792426 0.813937 255 0 0
0.060719 -0.520000 1.125000 0.792426 0.975900 255 0 0
0.060719 1.500000 1.375000 0.792426 0.813937 255 0 0
0.310719 1.500000 1.375000 0.954389 0.813937 255 0 0
0.310719 1.500000 1.125000 0.954389 0.975900 255 0 0
-0.480000 1.260000 -1.300000 0.858059 -1.028057 255 0 0
-0.480000 1.160000 -1.300000 0.944330 -1.028057 255 0 0
-0.480000 1.160000 -1.200000 0.944330 -0.941786 255 0 0
-0.480000 1.260000 -1.200000 0.858059 0.464433 255 0 0
-0.480000 1.160000 -1.200000 0.944330 0.464433 255 0 0
0.080000 1.160000 -1.200000 0.944330 0.947552 255 0 0
0.080000 1.260000 -1.200000 0.858059 -0.941786 255 255 255
0.080000 1.160000 -1.200000 0.944330 -0.941786 255 255 255
0.080000 1.160000 -1.300000 0.944330 -1.028057 255 255 255
0.080000 1.260000 -1.300000 0.858059 -0.777871 255 0 0
0.080000 1.160000 -1.300000 0.944330 -0.777871 255 0 0
-0.480000 1.160000 -1.300000 0.944330 -1.260990 255 0 0
0.080000 1.160000 -1.200000 0.124754 0.947552 255 0 0
-0.480000 1.160000 -1.200000 0.124754 0.464433 255 0 0
-0.480000 1.160000 -1.300000 0.038483 0.464433 255 0 0
-0.480000 1.260000 -1.200000 0.124754 -1.260990 255 0 0
0.080000 1.260000 -1.200000 0.124754 -0.777871 255 0 0
0.080000 1.260000 -1.300000 0.038483 -0.777871 255 0 0
0.060719 1.500000 -1.375000 0.763861 0.662746 255 0 0
0.060719 -0.520000 -1.375000 0.763861 0.014897 255 0 0
0.060719 -0.520000 -1.125000 0.925823 0.014897 255 0 0
0.060719 1.500000 -1.125000 0.792426 0.662746 255 0 0
0.060719 -0.520000 -1.125000 0.792426 0.014897 255 0 0
0.310719 -0.520000 -1.125000 0.954389 0.014897 255 0 0
0.310719 1.500000 -1.125000 0.925823 0.662746 255 0 0
0.310719 -0.520000 -1.125000 0.925823 0.014897 255 0 0
0.310719 -0.520000 -1.375000 0.763861 0.014897 255 0 0
0.310719 1.500000 -1.375000 0.954389 0.662746 255 0 0
0.310719 -0.520000 -1.375000 0.954389 0.014897 255 0 0
0.060719 -0.520000 -1.375000 0.792426 0.014897 255 0 0
0.310719 -0.520000 -1.125000 0.954389 0.813937 255 0 0
0.060719 -0.520000 -1.125000 0.792426 0.813937 255 0 0
0.060719 -0.520000 -1.375000 0.792426 0.975900 255 0 0
0.060719 1.500000 -1.125000 0.792426 0.813937 255 0 0
0.310719 1.500000 -1.125000 0.954389 0.813937 255 0 0
0.310719 1.500000 -1.375000 0.954389 0.975900 255 0 0
0.100000 1.510000 -1.325001 0.108476 -0.879112 255 0 0
0.100000 1.450000 1.325000 0.164512 1.922680 255 0 0
0.100000 1.450000 -1.325001 0.164512 -0.879112 255 0 0
0.100000 1.450000 1.325000 0.887662 0.311854 255 0 0
0.040000 1.510000 1.325000 0.831626 0.367890 255 0 0
0.040000 1.450000 1.325000 0.887662 0.367890 255 0 0
0.040000 1.510000 1.325000 0.102685 1.922219 255 0 0
0.040000 1.450000 -1.325001 0.158721 -0.879573 255 0 0
0.040000 1.450000 1.325000 0.158721 1.922219 255 0 0
0.040000 1.510000 -1.325001 0.825704 0.269667 255 0 0
0.100000 1.450000 -1.325001 0.881740 0.213631 255 0 0
0.040000 1.450000 -1.325001 0.881740 0.269667 255 0 0
0.040000 1.450000 1.325000 0.132219 -0.876172 255 0 0
0.100000 1.450000 -1.325001 0.076184 1.925621 255 0 0
0.100000 1.450000 1.325000 0.076183 -0.876172 255 0 0
0.100000 1.510000 1.325000 0.064601 -0.876172 255 0 0
0.040000 1.510000 -1.325001 0.120637 1.925621 255 0 0
0.040000 1.510000 1.325000 0.120637 -0.876172 255 0 0
-0.404281 1.270000 -1.325001 0.108476 -0.879112 255 0 0
-0.404281 1.210000 1.325000 0.164512 1.922680 255 0 0
-0.404281 1.210000 -1.325001 0.164512 -0.879112 255 0 0
-0.404281 1.210000 1.325000 0.887662 0.311854 255 0 0
-0.464281 1.270000 1.325000 0.831626 0.367890 255 0 0
-0.464281 1.210000 1.325000 0.887662 0.367890 255 0 0
-0.464281 1.270000 1.325000 0.102685 1.922219 255 0 0
-0.464281 1.210000 -1.325001 0.158721 -0.879573 255 0 0
-0.464281 1.210000 1.325000 0.158721 1.922219 255 0 0
-0.464281 1.270000 -1.325001 0.825704 0.269667 255 0 0
-0.404281 1.210000 -1.325001 0.881740 0.213631 255 0 0
-0.464281 1.210000 -1.325001 0.881740 0.269667 255 0 0
-0.464281 1.210000 1.325000 0.132219 -0.876172 255 0 0
-0.404281 1.210000 -1.325001 0.076184 1.925621 255 0 0
-0.404281 1.210000 1.325000 0.076183 -0.876172 255 0 0
-0.404281 1.270000 1.325000 0.064601 -0.876172 255 0 0
-0.464281 1.270000 -1.325001 0.120637 1.925621 255 0 0
-0.464281 1.270000 1.325000 0.120637 -0.876172 255 0 0
-0.480000 1.260000 1.300000 0.858059 -0.941786 255 0 0
0.080000 1.260000 1.300000 0.858059 0.947552 255 0 0
0.080000 1.260000 1.200000 0.858059 -1.028057 255 255 255
-0.480000 1.260000 1.200000 0.858059 -1.260990 255 0 0
0.080000 1.160000 1.200000 0.038483 0.947552 255 0 0
-0.480000 1.260000 1.200000 0.038483 -1.260990 255 0 0
0.060719 1.500000 1.375000 0.925823 0.662746 255 0 0
0.310719 1.500000 1.375000 0.954389 0.662746 255 0 0
0.310719 1.500000 1.125000 0.763861 0.662746 255 0 0
0.060719 1.500000 1.125000 0.792426 0.662746 255 0 0
0.310719 -0.520000 1.125000 0.954389 0.975900 255 0 0
0.060719 1.500000 1.125000 0.792426 0.975900 255 0 0
-0.480000 1.260000 -1.200000 0.858059 -0.941786 255 0 0
0.080000 1.260000 -1.200000 0.858059 0.947552 255 0 0
0.080000 1.260000 -1.300000 0.858059 -1.028057 255 255 255
-0.480000 1.260000 -1.300000 0.858059 -1.260990 255 0 0
0.080000 1.160000 -1.300000 0.038483 0.947552 255 0 0
-0.480000 1.260000 -1.300000 0.038483 -1.260990 255 0 0
0.060719 1.500000 -1.125000 0.925823 0.662746 255 0 0
0.310719 1.500000 -1.125000 0.954389 0.662746 255 0 0
0.310719 1.500000 -1.375000 0.763861 0.662746 255 0 0
0.060719 1.500000 -1.375000 0.792426 0.662746 255 0 0
0.310719 -0.520000 -1.375000 0.954389 0.975900 255 0 0
0.060719 1.500000 -1.375000 0.792426 0.975900 255 0 0
0.100000 1.510000 1.325000 0.108476 1.922680 255 0 0
0.100000 1.510000 1.325000 0.831626 0.311854 255 0 0
0.040000 1.510000 -1.325001 0.102685 -0.879573 255 0 0
0.100000 1.510000 -1.325001 0.825704 0.213631 255 0 0
0.040000 1.450000 -1.325001 0.132219 1.925621 255 0 0
0.100000 1.510000 -1.325001 0.064601 1.925621 255 0 0
-0.404281 1.270000 1.325000 0.108476 1.922680 255 0 0
-0.404281 1.270000 1.325000 0.831626 0.311854 255 0 0
-0.464281 1.270000 -1.325001 0.102685 -0.879573 255 0 0
-0.404281 1.270000 -1.325001 0.825704 0.213631 255 0 0
-0.464281 1.210000 -1.325001 0.132219 1.925621 255 0 0
-0.404281 1.270000 -1.325001 0.064601 1.925621 255 0 0
3 0 1 2
3 3 4 5
3 6 7 8
3 9 8 10
3 11 12 13
3 14 15 16
3 17 18 19
3 20 21 22
3 23 24 25
3 1 26 27
3 27 2 1
3 2 28 0
3 28 29 0
3 3 30 4
3 6 31 7
3 9 6 8
3 11 32 12
3 15 33 34
3 34 16 15
3 16 35 14
3 35 36 14
3 17 37 18
3 20 38 21
3 23 39 24
3 40 41 42
3 43 44 45
3 46 47 48
3 49 50 51
3 52 53 54
3 55 56 57
3 58 59 60
3 61 62 63
3 64 65 66
3 67 68 69
3 70 71 72
3 73 74 75
3 76 77 78
3 79 80 81
3 82 83 84
3 85 86 87
3 88 89 90
3 91 92 93
3 94 95 96
3 97 98 99
3 100 101 102
3 103 104 105
3 106 107 108
3 109 110 111
3 112 113 114
3 115 116 117
3 118 119 120
3 121 122 123
3 124 125 126
3 127 128 129
3 130 131 132
3 133 134 135
3 136 137 138
3 139 140 141
3 142 143 144
3 145 146 147
3 40 42 148
3 43 45 149
3 46 48 150
3 49 51 151
3 52 54 152
3 55 57 153
3 58 60 154
3 61 63 155
3 64 66 156
3 67 69 157
3 70 72 158
3 73 75 159
3 76 78 160
3 79 81 161
3 82 84 162
3 85 87 163
3 88 90 164
3 91 93 165
3 94 96 166
3 97 99 167
3 100 102 168
3 103 105 169
3 106 108 170
3 109 111 171
3 112 172 113
3 115 173 116
3 118 174 119
3 121 175 122
3 124 176 125
3 127 177 128
3 130 178 131
3 133 179 134
3 136 180 137
3 139 181 140
3 142 182 143
3 145 183 146
