ply
format ascii 1.0
comment Created by Blender 2.79 (sub 0) - www.blender.org, source file: ''
element vertex 11
property float x
property float y
property float z
property float s
property float t
property uchar red
property uchar green
property uchar blue
element face 12
property list uchar uint vertex_indices
end_header
-0.215000 -0.200000 -0.400000 0.000000 0.000000 255 0 0
-0.215000 -1.000000 0.400000 0.000000 0.000000 255 0 0
-0.215000 -1.000000 -0.400000 0.000000 0.000000 255 0 0
-0.215000 -0.200000 0.400000 0.000000 0.000000 255 0 0
-0.225000 -1.000000 0.400000 0.000000 0.000000 255 0 0
-0.225000 -0.200000 0.400000 1.000000 1.000000 255 0 0
-0.225000 -1.000000 -0.400000 -0.000000 0.000000 255 0 0
-0.225000 -1.000000 0.400000 1.000000 0.000000 255 0 0
-0.225000 -0.200000 -0.400000 0.000000 0.000000 255 0 0
-0.225000 -0.200000 0.400000 0.000000 0.000000 255 0 0
-0.225000 -0.200000 -0.400000 -0.000000 1.000000 255 0 0
3 0 1 2
3 3 4 1
3 5 6 7
3 8 2 6
3 4 2 1
3 3 8 9
3 0 3 1
3 3 9 4
3 5 10 6
3 8 0 2
3 4 6 2
3 3 0 8
