ply
format ascii 1.0
comment Created by Blender 2.79 (sub 0) - www.blender.org, source file: ''
element vertex 70
property float x
property float y
property float z
property float s
property float t
property uchar red
property uchar green
property uchar blue
element face 44
property list uchar uint vertex_indices
end_header
0.000000 2.000000 -1.500000 -1.225503 1.992886 255 0 0
0.000000 2.000000 1.500000 2.100503 1.992886 255 0 0
0.000000 0.050000 -1.250000 -0.948336 -0.601399 255 0 0
-0.250000 -0.500000 -1.500000 2.100503 -3.827626 255 0 0
0.000000 -0.500000 -1.250000 0.437500 -3.550458 255 0 0
-0.250000 -0.500000 -1.250000 2.100503 -3.550458 255 0 0
-0.250000 2.000000 -1.500000 2.100503 1.992886 255 0 0
0.000000 -0.500000 -1.500000 0.437500 -1.333120 255 0 0
-0.250000 -0.500000 -1.500000 2.100503 -1.333120 255 0 0
0.000000 2.000000 1.500000 0.437500 -0.501619 255 0 0
-0.250000 2.000000 -1.500000 2.100503 -3.827626 255 0 0
-0.250000 2.000000 1.500000 2.100503 -0.501619 255 0 0
0.000000 2.000000 1.500000 0.437500 1.992886 255 0 0
-0.250000 -0.500000 1.500000 2.100503 -1.333120 255 0 0
0.000000 -0.500000 1.500000 0.437500 -1.333120 255 0 0
-0.250000 -0.500000 1.500000 2.100503 -0.501619 255 0 0
0.000000 -0.500000 1.250000 0.437500 -0.778786 255 0 0
0.000000 -0.500000 1.500000 0.437500 -0.501619 255 0 0
-0.250000 0.050000 1.250000 1.823336 -0.601399 255 0 0
-0.250000 2.000000 1.500000 2.100503 1.992886 255 0 0
-0.250000 0.205000 1.195000 1.762360 -0.395186 255 0 0
-0.250000 2.000000 -1.500000 -1.225503 1.992886 255 0 0
-0.250000 0.205000 -1.195000 -0.887360 -0.395186 255 0 0
-0.250000 1.795000 -1.195000 -0.887360 1.720153 255 0 0
-0.250000 1.795000 1.195000 2.100503 1.720153 255 0 0
-0.220000 0.205000 1.195000 1.900943 -0.395186 255 0 0
-0.250000 0.205000 1.195000 2.100503 -0.395186 255 0 0
-0.250000 0.205000 1.195000 2.100503 -0.839763 255 0 0
-0.220000 0.205000 -1.195000 1.900943 -3.489482 255 0 0
-0.250000 0.205000 -1.195000 2.100503 -3.489482 255 0 0
-0.250000 0.205000 -1.195000 2.100503 -7.047199 255 0 0
-0.220000 1.795000 -1.195000 1.900943 -4.931859 255 0 0
-0.250000 1.795000 -1.195000 2.100503 -4.931859 255 0 0
-0.250000 1.795000 -1.195000 2.100503 -3.489482 255 0 0
-0.220000 1.795000 1.195000 1.900943 -0.839763 255 0 0
-0.250000 1.795000 1.195000 2.100503 -0.839763 255 0 0
-0.220000 0.205000 1.195000 1.762360 -0.395186 255 0 0
-0.220000 1.795000 -1.195000 -0.887360 1.720153 255 0 0
-0.220000 0.205000 -1.195000 -0.887360 -0.395186 255 0 0
0.000000 -0.500000 1.250000 0.437500 -1.333120 255 0 0
-0.250000 0.050000 1.250000 2.100503 -0.601399 255 0 0
0.000000 0.050000 1.250000 0.437500 -0.601399 255 0 0
-0.250000 0.050000 -1.250000 2.100503 -3.550458 255 0 0
0.000000 0.050000 1.250000 0.437500 -0.778786 255 0 0
-0.250000 0.050000 1.250000 2.100503 -0.778786 255 0 0
-0.250000 -0.500000 -1.250000 2.100503 -1.333120 255 0 0
0.000000 0.050000 -1.250000 0.437500 -0.601399 255 0 0
-0.250000 0.050000 -1.250000 2.100503 -0.601399 255 0 0
0.000000 -0.500000 -1.250000 -0.948336 -1.333120 255 0 0
0.000000 -0.500000 -1.500000 -1.225503 -1.333120 255 0 0
0.000000 -0.500000 1.500000 2.100503 -1.333120 255 0 0
0.000000 0.050000 1.250000 1.823336 -0.601399 255 0 0
0.000000 -0.500000 1.250000 1.823336 -1.333120 255 0 0
0.000000 -0.500000 -1.500000 0.437500 -3.827626 255 0 0
0.000000 2.000000 -1.500000 0.437500 1.992886 255 0 0
0.000000 2.000000 -1.500000 0.437500 -3.827626 255 0 0
-0.250000 -0.500000 1.250000 2.100503 -0.778786 255 0 0
-0.250000 -0.500000 -1.500000 -1.225503 -1.333120 255 0 0
-0.250000 -0.500000 -1.250000 -0.948336 -1.333120 255 0 0
-0.250000 0.050000 -1.250000 -0.948336 -0.601399 255 0 0
-0.250000 -0.500000 1.250000 1.823336 -1.333120 255 0 0
-0.250000 1.795000 1.195000 1.762360 1.720153 255 0 0
-0.220000 1.795000 1.195000 1.900943 1.720153 255 0 0
-0.220000 0.205000 1.195000 1.900943 -0.839763 255 0 0
-0.220000 0.205000 -1.195000 1.900943 -7.047199 255 0 0
-0.220000 1.795000 -1.195000 1.900943 -3.489482 255 0 0
-0.220000 1.795000 1.195000 1.762360 1.720153 255 0 0
-0.250000 -0.500000 1.250000 2.100503 -1.333120 255 0 0
0.000000 0.050000 -1.250000 0.437500 -3.550458 255 0 0
0.000000 -0.500000 -1.250000 0.437500 -1.333120 255 0 0
3 0 1 2
3 3 4 5
3 6 7 8
3 9 10 11
3 12 13 14
3 15 16 17
3 18 19 20
3 21 22 23
3 24 25 26
3 27 28 29
3 30 31 32
3 33 34 35
3 36 37 38
3 39 40 41
3 42 43 44
3 45 46 47
3 48 49 2
3 49 0 2
3 1 50 51
3 50 52 51
3 1 51 2
3 3 53 4
3 6 54 7
3 9 55 10
3 12 19 13
3 15 56 16
3 57 58 59
3 18 60 13
3 22 57 59
3 18 13 19
3 22 59 18
3 19 61 20
3 20 22 18
3 21 57 22
3 23 61 21
3 61 19 21
3 24 62 25
3 27 63 28
3 30 64 31
3 33 65 34
3 36 66 37
3 39 67 40
3 42 68 43
3 45 69 46
