ply
format ascii 1.0
comment Created by Blender 2.79 (sub 0) - www.blender.org, source file: ''
element vertex 20
property float x
property float y
property float z
property float s
property float t
property uchar red
property uchar green
property uchar blue
element face 12
property list uchar uint vertex_indices
end_header
-0.450000 -0.500000 0.450000 0.000000 0.000000 255 0 0
0.450000 -0.500000 -0.450000 -1.000000 -1.000000 255 0 0
0.450000 -0.500000 0.450000 -1.000000 0.000000 255 0 0
0.450000 0.000000 0.450000 -1.000000 1.000000 255 0 0
-0.449999 0.000000 -0.450000 -0.000000 -0.000000 255 0 0
-0.450000 0.000000 0.450000 0.000000 1.000000 255 0 0
-0.450000 0.000000 0.450000 -0.000000 0.500000 255 0 0
-0.450000 -0.500000 -0.450000 -1.000000 0.000000 255 0 0
-0.449999 0.000000 -0.450000 -0.000000 0.500000 255 0 0
0.450000 -0.500000 -0.450000 -1.000000 0.000000 255 0 0
-0.450000 -0.500000 -0.450000 0.000000 0.000000 255 0 0
0.450000 -0.500000 -0.450000 0.000000 0.000000 255 0 0
0.450000 0.000000 0.450000 1.000000 0.500000 255 0 0
0.450000 -0.500000 0.450000 1.000000 0.000000 255 0 0
0.450000 0.000000 0.450000 -1.000000 0.500000 255 0 0
-0.450000 -0.500000 -0.450000 0.000000 -1.000000 255 0 0
0.450000 0.000000 -0.450000 -1.000000 0.000000 255 0 0
-0.449999 0.000000 -0.450000 -1.000000 0.500000 255 0 0
0.450000 0.000000 -0.450000 -1.000000 0.500000 255 0 0
0.450000 0.000000 -0.450000 0.000000 0.500000 255 0 0
3 0 1 2
3 3 4 5
3 6 7 0
3 8 9 10
3 11 12 13
3 0 14 6
3 0 15 1
3 3 16 4
3 6 17 7
3 8 18 9
3 11 19 12
3 0 2 14
