ply
format ascii 1.0
comment Created by Blender 2.79 (sub 0) - www.blender.org, source file: ''
element vertex 54
property float x
property float y
property float z
property float s
property float t
property uchar red
property uchar green
property uchar blue
element face 28
property list uchar uint vertex_indices
end_header
-0.500000 -0.006663 -0.500000 0.000000 1.000000 255 0 0
0.500000 -1.006663 -0.500000 1.000000 0.000000 255 0 0
-0.500000 -1.006663 -0.500000 0.000000 0.000000 255 0 0
0.500000 -0.006663 -0.500000 0.000000 1.000000 255 0 0
0.500000 -1.006663 0.500000 1.000000 0.000000 255 0 0
0.500000 -1.006663 -0.500000 0.000000 0.000000 255 0 0
0.500000 -0.006663 0.500000 1.000000 1.000000 255 0 0
-0.500000 -1.006663 0.500000 0.000000 0.000000 255 0 0
-0.500000 -0.006663 0.500000 1.000000 1.000000 255 0 0
-0.500000 -1.006663 0.500000 1.000000 0.000000 255 0 0
0.500000 -1.006663 0.500000 1.000000 0.566667 255 0 0
-0.500000 -1.006663 -0.500000 0.500000 0.066667 255 0 0
0.500000 -1.006663 -0.500000 0.500000 0.566667 255 0 0
-0.500000 0.493337 0.000000 0.242188 0.242188 255 0 0
0.500000 -0.006663 0.500000 0.742188 0.742188 255 0 0
0.500000 0.493337 -0.000000 0.242188 0.742188 255 0 0
0.500000 -0.006663 -0.500000 0.257812 0.757812 255 0 0
-0.500000 0.493337 0.000000 0.750000 0.265625 255 0 0
0.500000 0.493337 -0.000000 0.750000 0.757812 255 0 0
-0.500000 -0.006663 0.500000 1.000000 0.000000 255 0 0
-0.500000 0.493337 0.000000 0.500000 1.000000 255 0 0
-0.500000 -0.006663 -0.500000 0.000000 0.000000 255 0 0
0.500000 -0.006663 -0.500000 0.000000 0.000000 255 0 0
0.500000 0.493337 -0.000000 0.500000 1.000000 255 0 0
0.500000 -0.006663 0.500000 1.000000 0.000000 255 0 0
-0.475000 -0.056663 -0.400000 1.955109 1.955109 0 255 0
-0.475000 -0.956663 0.400000 0.014964 0.014963 0 255 0
-0.475000 -0.956663 -0.400000 0.014964 1.955109 0 255 0
-0.475000 -0.056663 0.400000 -0.464844 0.175781 0 255 0
-0.525000 -0.956663 0.400000 1.464844 -0.054688 0 255 0
-0.475000 -0.956663 0.400000 1.464844 0.175781 0 255 0
-0.525000 -0.056663 0.400000 1.955109 0.014963 0 255 0
-0.525000 -0.956663 -0.400000 0.014964 1.955109 0 255 0
-0.525000 -0.956663 0.400000 0.014964 0.014963 0 255 0
-0.525000 -0.056663 -0.400000 -0.464844 1.042969 0 255 0
-0.475000 -0.956663 -0.400000 1.464844 0.867188 0 255 0
-0.525000 -0.956663 -0.400000 1.464844 1.050781 0 255 0
-0.525000 -0.956663 0.400000 0.792969 1.000000 0 255 0
-0.475000 -0.956663 -0.400000 0.910156 0.000000 0 255 0
-0.475000 -0.956663 0.400000 0.910156 1.000000 0 255 0
-0.475000 -0.056663 0.400000 0.921875 1.000000 0 255 0
-0.525000 -0.056663 -0.400000 0.820312 0.000000 0 255 0
-0.525000 -0.056663 0.400000 0.921875 0.000000 0 255 0
0.500000 -0.006663 -0.500000 1.000000 1.000000 255 0 0
-0.500000 -0.006663 0.500000 0.000000 1.000000 255 0 0
-0.500000 -1.006663 0.500000 1.000000 0.066667 255 0 0
-0.500000 -0.006663 0.500000 0.742188 0.242188 255 0 0
-0.500000 -0.006663 -0.500000 0.257812 0.265625 255 0 0
-0.475000 -0.056663 0.400000 1.955109 0.014963 0 255 0
-0.525000 -0.056663 0.400000 -0.464844 -0.054688 0 255 0
-0.525000 -0.056663 -0.400000 1.955109 1.955109 0 255 0
-0.475000 -0.056663 -0.400000 -0.464844 0.859375 0 255 0
-0.525000 -0.956663 -0.400000 0.792969 0.000000 0 255 0
-0.475000 -0.056663 -0.400000 0.820312 1.000000 0 255 0
3 0 1 2
3 3 4 5
3 6 7 4
3 8 2 9
3 10 11 12
3 13 14 15
3 16 17 18
3 19 20 21
3 22 23 24
3 25 26 27
3 28 29 30
3 31 32 33
3 34 35 36
3 37 38 39
3 40 41 42
3 0 43 1
3 3 6 4
3 6 44 7
3 8 0 2
3 10 45 11
3 13 46 14
3 16 47 17
3 25 48 26
3 28 49 29
3 31 50 32
3 34 51 35
3 37 52 38
3 40 53 41
