ply
format ascii 1.0
comment Created by Blender 2.79 (sub 0) - www.blender.org, source file: 'large brick kiln.blend'
element vertex 22
property float x
property float y
property float z
property float s
property float t
element face 6
property list uchar uint vertex_indices
end_header
0.250000 -0.500000 -0.250000 0.990515 0.987445
0.250000 0.000000 -0.250000 0.990515 1.477960
0.250000 0.000000 0.250000 1.971545 1.477960
0.250000 -0.500000 0.250000 1.971545 0.987445
0.250000 -0.500000 0.250000 0.009485 0.987445
0.250000 0.000000 0.250000 0.009485 1.477960
-0.250000 0.000000 0.250000 0.990515 1.477960
-0.250000 -0.500000 0.250000 0.990515 0.987445
-0.250000 -0.500000 0.250000 0.009485 0.987445
-0.250000 0.000000 0.250000 0.009485 1.477960
-0.250000 0.000000 -0.250000 -0.971545 1.477960
-0.250000 -0.500000 -0.250000 -0.971545 0.987445
0.250000 0.000000 -0.250000 0.009485 1.477960
0.250000 -0.500000 -0.250000 0.009485 0.987445
-0.250000 -0.500000 -0.250000 0.990515 0.987445
-0.250000 0.000000 -0.250000 0.990515 1.477960
-0.250000 -0.500000 -0.250000 0.990515 0.006415
0.250000 -0.500000 -0.250000 0.009485 0.006415
-0.250000 0.000000 0.250000 0.990515 0.987445
0.250000 0.000000 0.250000 0.009485 0.987445
0.250000 0.000000 -0.250000 0.009485 0.006415
-0.250000 0.000000 -0.250000 0.990515 0.006415
4 0 1 2 3
4 4 5 6 7
4 8 9 10 11
4 12 13 14 15
4 16 17 4 7
4 18 19 20 21
