ply
format ascii 1.0
comment Created by Blender 2.91.2 - www.blender.org
element vertex 38
property float x
property float y
property float z
property uchar red
property uchar green
property uchar blue
property uchar alpha
element face 68
property list uchar uint vertex_indices
end_header
0.500000 0.500000 -0.501250 255 0 0 255
0.500000 -4.500000 -0.498750 255 0 0 255
0.500000 -4.500000 -0.501250 255 7 7 255
-0.500000 0.500000 -0.498750 255 0 0 255
-0.500000 -4.500000 -0.501250 255 1 1 255
-0.500000 -4.500000 -0.498750 255 0 0 255
0.500000 0.500000 -0.498750 255 0 0 255
-0.000000 -4.002893 -0.498750 255 0 0 255
0.497107 -4.500000 -0.501250 255 6 6 255
0.497107 -4.500000 -0.498750 255 0 0 255
-0.497107 -4.500000 -0.501250 255 0 0 255
-0.000000 -4.002893 -0.501250 255 0 0 255
-0.497107 -4.500000 -0.498750 255 0 0 255
-0.500000 0.500000 -0.501250 255 0 0 255
-0.600000 0.550000 -0.500000 85 52 43 255
0.600000 0.543301 -0.475000 85 52 43 255
0.600000 0.550000 -0.500000 85 52 43 255
-0.600000 0.543301 -0.475000 85 52 43 255
0.600000 0.525000 -0.456699 85 52 43 255
-0.600000 0.525000 -0.456699 85 52 43 255
0.600000 0.500000 -0.450000 85 52 43 255
-0.600000 0.500000 -0.450000 85 52 43 255
0.600000 0.475000 -0.456699 85 52 43 255
-0.600000 0.475000 -0.456699 85 52 43 255
0.600000 0.456699 -0.475000 85 52 43 255
-0.600000 0.456699 -0.475000 85 52 43 255
0.600000 0.450000 -0.500000 85 52 43 255
-0.600000 0.450000 -0.500000 85 52 43 255
0.600000 0.456699 -0.525000 85 52 43 255
-0.600000 0.456699 -0.525000 85 52 43 255
0.600000 0.475000 -0.543301 85 52 43 255
-0.600000 0.475000 -0.543301 85 52 43 255
0.600000 0.500000 -0.550000 85 52 43 255
-0.600000 0.500000 -0.550000 85 52 43 255
0.600000 0.525000 -0.543301 85 52 43 255
-0.600000 0.525000 -0.543301 85 52 43 255
0.600000 0.543301 -0.525000 85 52 43 255
-0.600000 0.543301 -0.525000 85 52 43 255
3 0 1 2
3 3 4 5
3 0 3 6
3 7 8 9
3 7 10 11
3 2 8 11
3 5 12 7
3 2 9 8
3 4 12 5
3 0 6 1
3 3 13 4
3 0 13 3
3 7 11 8
3 7 12 10
3 11 10 4
3 4 13 11
3 13 0 11
3 0 2 11
3 7 9 1
3 1 6 7
3 6 3 7
3 3 5 7
3 2 1 9
3 4 10 12
3 14 15 16
3 17 18 15
3 19 20 18
3 21 22 20
3 23 24 22
3 25 26 24
3 27 28 26
3 29 30 28
3 31 32 30
3 33 34 32
3 27 23 19
3 35 36 34
3 37 16 36
3 20 28 36
3 14 17 15
3 17 19 18
3 19 21 20
3 21 23 22
3 23 25 24
3 25 27 26
3 27 29 28
3 29 31 30
3 31 33 32
3 33 35 34
3 19 17 14
3 14 37 35
3 35 33 31
3 31 29 27
3 27 25 23
3 23 21 19
3 19 14 27
3 14 35 27
3 35 31 27
3 35 37 36
3 37 14 16
3 36 16 15
3 15 18 20
3 20 22 24
3 24 26 20
3 26 28 20
3 28 30 32
3 32 34 36
3 36 15 20
3 28 32 36
