ply
format ascii 1.0
comment Created by Blender 2.91.2 - www.blender.org
element vertex 20
property float x
property float y
property float z
property float s
property float t
element face 12
property list uchar uint vertex_indices
end_header
-1.500000 -0.475000 -0.500000 -0.250000 1.250000
1.500000 -0.500000 -0.500000 1.250000 -0.250000
-1.500000 -0.500000 -0.500000 -0.250000 -0.250000
1.500000 -0.475000 -0.500000 -0.250000 1.250000
1.500000 -0.500000 0.500000 1.250000 -0.250000
1.500000 -0.500000 -0.500000 -0.250000 -0.250000
1.500000 -0.475000 0.500000 1.250000 1.250000
-1.500000 -0.500000 0.500000 -0.250000 -0.250000
-1.500000 -0.475000 0.500000 1.250000 1.250000
-1.500000 -0.500000 0.500000 1.250000 -0.250000
1.500000 -0.500000 0.500000 0.750000 1.250000
-1.500000 -0.500000 -0.500000 0.250000 -0.250000
1.500000 -0.500000 -0.500000 0.250000 1.250000
1.500000 -0.475000 -0.500000 0.250000 1.250000
-1.500000 -0.475000 0.500000 0.750000 -0.250000
1.500000 -0.475000 0.500000 0.750000 1.250000
1.500000 -0.475000 -0.500000 1.250000 1.250000
-1.500000 -0.475000 0.500000 -0.250000 1.250000
-1.500000 -0.500000 0.500000 0.750000 -0.250000
-1.500000 -0.475000 -0.500000 0.250000 -0.250000
3 0 1 2
3 3 4 5
3 6 7 4
3 8 2 9
3 10 11 12
3 13 14 15
3 0 16 1
3 3 6 4
3 6 17 7
3 8 0 2
3 10 18 11
3 13 19 14
