ply
format ascii 1.0
comment Created by Blender 2.91.2 - www.blender.org
element vertex 420
property float x
property float y
property float z
property float s
property float t
element face 244
property list uchar uint vertex_indices
end_header
-0.050000 0.533461 -0.050000 0.250000 1.630504
0.050000 0.263462 -0.050000 0.750000 1.130504
-0.050000 0.263462 -0.050000 0.250000 1.130504
0.050000 0.533461 -0.050000 0.250000 1.630504
0.050000 0.263462 0.050000 0.750000 1.130504
0.050000 0.263462 -0.050000 0.250000 1.130504
0.050000 0.533461 0.050000 0.750000 1.630504
-0.050000 0.263462 0.050000 0.250000 1.130504
-0.050000 0.533461 0.050000 0.750000 1.630504
-0.050000 0.263462 0.050000 0.750000 1.130504
0.050000 0.263462 0.050000 0.750000 0.750000
-0.050000 0.263462 -0.050000 0.250000 0.250000
0.050000 0.263462 -0.050000 0.250000 0.750000
0.050000 0.533461 -0.050000 0.250000 0.750000
-0.050000 0.533461 0.050000 0.750000 0.250000
0.050000 0.533461 0.050000 0.750000 0.750000
0.500000 0.299462 0.000000 0.500001 1.197170
0.433013 0.209462 0.250000 1.750001 1.030504
0.500000 0.209462 0.000000 0.500001 1.030504
0.433013 0.299462 0.250000 1.750001 1.197170
0.250000 0.209462 0.433013 2.665064 1.030504
0.250000 0.299462 0.433013 1.750000 1.197170
0.000000 0.209462 0.500000 0.500000 1.030504
0.250000 0.209462 0.433013 1.750000 1.030504
0.000000 0.299462 0.500000 0.500000 1.197170
-0.250000 0.209462 0.433013 -0.750000 1.030504
-0.250000 0.299462 0.433013 -0.750000 1.197170
-0.433013 0.209462 0.250000 -1.665063 1.030504
-0.433013 0.299462 0.250000 1.750001 1.197170
-0.500000 0.209462 0.000000 0.500001 1.030504
-0.433013 0.209462 0.250000 1.750001 1.030504
-0.500000 0.299462 0.000000 0.500001 1.197170
-0.433013 0.209462 -0.250000 -0.749999 1.030504
-0.433013 0.299462 -0.250000 -0.749999 1.197170
-0.250000 0.209462 -0.433013 -1.665062 1.030504
-0.250000 0.299462 -0.433013 -0.750001 1.197170
-0.000000 0.209462 -0.500000 0.499999 1.030504
-0.250000 0.209462 -0.433013 -0.750001 1.030504
-0.000000 0.299462 -0.500000 0.499999 1.197170
0.250000 0.209462 -0.433013 1.749999 1.030504
-0.250000 0.299462 0.433013 2.665064 -0.750000
0.250000 0.299462 0.433013 2.665064 1.750000
0.250000 0.299462 -0.433013 -1.665064 1.749999
0.250000 0.299462 -0.433013 1.749999 1.197170
0.433013 0.209462 -0.250000 2.665063 1.030504
0.433013 0.299462 -0.250000 -0.750001 1.197170
0.433013 0.209462 -0.250000 -0.750001 1.030504
-0.433013 0.209462 -0.250000 -0.749999 -1.665064
-0.000000 0.209462 -0.500000 -1.999999 0.499999
0.433013 0.209462 -0.250000 -0.750001 2.665063
0.500000 -0.420538 0.000000 0.500001 -0.136163
0.433013 -0.510538 0.250000 1.750001 -0.302830
0.500000 -0.510538 0.000000 0.500001 -0.302830
0.433013 -0.420538 0.250000 1.750001 -0.136163
0.250000 -0.510538 0.433013 2.665064 -0.302830
0.250000 -0.420538 0.433013 1.750000 -0.136163
0.000000 -0.510538 0.500000 0.500000 -0.302830
0.250000 -0.510538 0.433013 1.750000 -0.302830
0.000000 -0.420538 0.500000 0.500000 -0.136163
-0.250000 -0.510538 0.433013 -0.750000 -0.302830
-0.250000 -0.420538 0.433013 -0.750000 -0.136163
-0.433013 -0.510538 0.250000 -1.665063 -0.302830
-0.433013 -0.420538 0.250000 1.750001 -0.136163
-0.500000 -0.510538 0.000000 0.500001 -0.302830
-0.433013 -0.510538 0.250000 1.750001 -0.302830
-0.500000 -0.420538 0.000000 0.500001 -0.136163
-0.433013 -0.510538 -0.250000 -0.749999 -0.302830
-0.433013 -0.420538 -0.250000 -0.749999 -0.136163
-0.250000 -0.510538 -0.433013 -1.665062 -0.302830
-0.250000 -0.420538 -0.433013 -0.750001 -0.136163
-0.000000 -0.510538 -0.500000 0.499999 -0.302830
-0.250000 -0.510538 -0.433013 -0.750001 -0.302830
-0.000000 -0.420538 -0.500000 0.499999 -0.136163
0.250000 -0.510538 -0.433013 1.749999 -0.302830
-0.250000 -0.420538 0.433013 2.665064 -0.750000
0.250000 -0.420538 0.433013 2.665064 1.750000
0.250000 -0.420538 -0.433013 -1.665064 1.749999
0.250000 -0.420538 -0.433013 1.749999 -0.136163
0.433013 -0.510538 -0.250000 2.665063 -0.302830
0.433013 -0.420538 -0.250000 -0.750001 -0.136163
0.433013 -0.510538 -0.250000 -0.750001 -0.302830
-0.433013 -0.510538 -0.250000 -0.749999 -1.665064
-0.000000 -0.510538 -0.500000 -1.999999 0.499999
0.433013 -0.510538 -0.250000 -0.750001 2.665063
-0.050000 0.344461 0.450000 0.250000 1.280503
0.050000 -0.555539 0.450000 0.750000 -0.386163
-0.050000 -0.555539 0.450000 0.250000 -0.386163
0.050000 0.344461 0.450000 2.750000 1.280503
0.050000 -0.555539 0.550000 3.250000 -0.386163
0.050000 -0.555539 0.450000 2.750000 -0.386163
0.050000 0.344461 0.550000 0.750000 1.280503
-0.050000 -0.555539 0.550000 0.250000 -0.386163
0.050000 -0.555539 0.550000 0.750000 -0.386163
-0.050000 0.344461 0.550000 3.250000 1.280503
-0.050000 -0.555539 0.450000 2.750000 -0.386163
-0.050000 -0.555539 0.550000 3.250000 -0.386163
0.050000 -0.555539 0.550000 3.250000 0.750000
-0.050000 -0.555539 0.450000 2.750000 0.250000
0.050000 -0.555539 0.450000 2.750000 0.750000
0.050000 0.344461 0.450000 2.750000 0.750000
-0.050000 0.344461 0.550000 3.250000 0.250000
0.050000 0.344461 0.550000 3.250000 0.750000
-0.050000 0.344461 -0.550000 0.250000 1.280503
0.050000 -0.555539 -0.550000 0.750000 -0.386163
-0.050000 -0.555539 -0.550000 0.250000 -0.386163
0.050000 0.344461 -0.550000 -2.249999 1.280503
0.050000 -0.555539 -0.450000 -1.749999 -0.386163
0.050000 -0.555539 -0.550000 -2.249999 -0.386163
0.050000 0.344461 -0.450000 0.750000 1.280503
-0.050000 -0.555539 -0.450000 0.250000 -0.386163
0.050000 -0.555539 -0.450000 0.750000 -0.386163
-0.050000 0.344461 -0.450000 -1.749999 1.280503
-0.050000 -0.555539 -0.550000 -2.249999 -0.386163
-0.050000 -0.555539 -0.450000 -1.749999 -0.386163
0.050000 -0.555539 -0.450000 -1.749999 0.750000
-0.050000 -0.555539 -0.550000 -2.249999 0.250000
0.050000 -0.555539 -0.550000 -2.249999 0.750000
0.050000 0.344461 -0.550000 -2.249999 0.750000
-0.050000 0.344461 -0.450000 -1.749999 0.250000
0.050000 0.344461 -0.450000 -1.749999 0.750000
0.450000 0.344461 0.050000 0.750000 1.280503
0.450000 -0.555539 -0.050000 0.250000 -0.386163
0.450000 -0.555539 0.050000 0.750000 -0.386163
0.450000 0.344461 -0.050000 2.750000 1.280503
0.550000 -0.555539 -0.050000 3.250000 -0.386163
0.450000 -0.555539 -0.050000 2.750000 -0.386163
0.550000 0.344461 -0.050000 0.250000 1.280503
0.550000 -0.555539 0.050000 0.750000 -0.386163
0.550000 -0.555539 -0.050000 0.250000 -0.386163
0.550000 0.344461 0.050000 3.250000 1.280503
0.450000 -0.555539 0.050000 2.750000 -0.386163
0.550000 -0.555539 0.050000 3.250000 -0.386163
0.450000 -0.555539 -0.050000 0.250000 2.750000
0.550000 -0.555539 0.050000 0.750000 3.250000
0.450000 -0.555539 0.050000 0.750000 2.750000
0.450000 0.344461 -0.050000 0.250000 2.750000
0.550000 0.344461 0.050000 0.750000 3.250000
0.550000 0.344461 -0.050000 0.250000 3.250000
-0.550000 0.344461 0.050000 0.750000 1.280503
-0.550000 -0.555539 -0.050000 0.250000 -0.386163
-0.550000 -0.555539 0.050000 0.750000 -0.386163
-0.550000 0.344461 -0.050000 -2.250000 1.280503
-0.450000 -0.555539 -0.050000 -1.749999 -0.386163
-0.550000 -0.555539 -0.050000 -2.250000 -0.386163
-0.450000 0.344461 -0.050000 0.250000 1.280503
-0.450000 -0.555539 0.050000 0.750000 -0.386163
-0.450000 -0.555539 -0.050000 0.250000 -0.386163
-0.450000 0.344461 0.050000 -1.749999 1.280503
-0.550000 -0.555539 0.050000 -2.250000 -0.386163
-0.450000 -0.555539 0.050000 -1.749999 -0.386163
-0.550000 -0.555539 -0.050000 0.250000 -2.250000
-0.450000 -0.555539 0.050000 0.750000 -1.749999
-0.550000 -0.555539 0.050000 0.750000 -2.250000
-0.550000 0.344461 -0.050000 0.250000 -2.250000
-0.450000 0.344461 0.050000 0.750000 -1.749999
-0.450000 0.344461 -0.050000 0.250000 -1.749999
0.181699 0.344461 0.414711 1.408494 1.280503
0.268301 -0.555539 0.364711 1.841506 -0.386163
0.181699 -0.555539 0.414711 1.408494 -0.386163
0.268301 0.344461 0.364711 2.323556 1.280503
0.318301 -0.555539 0.451314 2.756569 -0.386163
0.268301 -0.555539 0.364711 2.323556 -0.386163
0.318301 0.344461 0.451314 2.091506 1.280503
0.231699 -0.555539 0.501314 1.658494 -0.386163
0.318301 -0.555539 0.451314 2.091506 -0.386163
0.231699 0.344461 0.501314 3.006569 1.280503
0.181699 -0.555539 0.414711 2.573556 -0.386163
0.231699 -0.555539 0.501314 3.006569 -0.386163
0.268301 -0.555539 0.364711 2.323556 1.841506
0.231699 -0.555539 0.501314 3.006569 1.658494
0.181699 -0.555539 0.414711 2.573556 1.408494
0.268301 0.344461 0.364711 2.323556 1.841506
0.231699 0.344461 0.501314 3.006569 1.658494
0.318301 0.344461 0.451314 2.756569 2.091506
-0.318301 0.344461 -0.451314 -1.091506 1.280503
-0.231699 -0.555539 -0.501314 -0.658493 -0.386163
-0.318301 -0.555539 -0.451314 -1.091506 -0.386163
-0.231699 0.344461 -0.501314 -2.006569 1.280503
-0.181699 -0.555539 -0.414711 -1.573557 -0.386163
-0.231699 -0.555539 -0.501314 -2.006569 -0.386163
-0.181699 0.344461 -0.414711 -0.408493 1.280503
-0.268301 -0.555539 -0.364711 -0.841506 -0.386163
-0.181699 -0.555539 -0.414711 -0.408493 -0.386163
-0.268301 0.344461 -0.364711 -1.323557 1.280503
-0.318301 -0.555539 -0.451314 -1.756569 -0.386163
-0.268301 -0.555539 -0.364711 -1.323557 -0.386163
-0.231699 -0.555539 -0.501314 -2.006569 -0.658493
-0.268301 -0.555539 -0.364711 -1.323557 -0.841506
-0.318301 -0.555539 -0.451314 -1.756569 -1.091506
-0.231699 0.344461 -0.501314 -2.006569 -0.658493
-0.268301 0.344461 -0.364711 -1.323557 -0.841506
-0.181699 0.344461 -0.414711 -1.573557 -0.408493
0.364711 0.344461 0.268301 1.841505 1.280503
0.414711 -0.555539 0.181698 1.408493 -0.386163
0.364711 -0.555539 0.268301 1.841505 -0.386163
0.414711 0.344461 0.181698 2.573557 1.280503
0.501314 -0.555539 0.231698 3.006569 -0.386163
0.414711 -0.555539 0.181698 2.573557 -0.386163
0.501314 0.344461 0.231698 1.658493 1.280503
0.451314 -0.555539 0.318301 2.091506 -0.386163
0.501314 -0.555539 0.231698 1.658493 -0.386163
0.451314 0.344461 0.318301 2.756570 1.280503
0.364711 -0.555539 0.268301 2.323557 -0.386163
0.451314 -0.555539 0.318301 2.756570 -0.386163
0.501314 -0.555539 0.231698 1.658493 3.006569
0.364711 -0.555539 0.268301 1.841505 2.323557
0.414711 -0.555539 0.181698 1.408493 2.573557
0.501314 0.344461 0.231698 1.658493 3.006569
0.364711 0.344461 0.268301 1.841505 2.323557
0.451314 0.344461 0.318301 2.091506 2.756570
-0.501314 0.344461 -0.231699 -0.658494 1.280503
-0.451314 -0.555539 -0.318301 -1.091506 -0.386163
-0.501314 -0.555539 -0.231699 -0.658494 -0.386163
-0.451314 0.344461 -0.318301 -1.756569 1.280503
-0.364711 -0.555539 -0.268301 -1.323557 -0.386163
-0.451314 -0.555539 -0.318301 -1.756569 -0.386163
-0.364711 0.344461 -0.268301 -0.841506 1.280503
-0.414711 -0.555539 -0.181699 -0.408494 -0.386163
-0.364711 -0.555539 -0.268301 -0.841506 -0.386163
-0.414711 0.344461 -0.181699 -1.573556 1.280503
-0.501314 -0.555539 -0.231699 -2.006569 -0.386163
-0.414711 -0.555539 -0.181699 -1.573556 -0.386163
-0.364711 -0.555539 -0.268301 -0.841506 -1.323557
-0.501314 -0.555539 -0.231699 -0.658494 -2.006569
-0.451314 -0.555539 -0.318301 -1.091506 -1.756569
-0.364711 0.344461 -0.268301 -0.841506 -1.323557
-0.501314 0.344461 -0.231699 -0.658494 -2.006569
-0.414711 0.344461 -0.181699 -0.408494 -1.573556
-0.268301 0.344461 0.364711 -0.841506 1.280503
-0.181699 -0.555539 0.414711 -0.408493 -0.386163
-0.268301 -0.555539 0.364711 -0.841506 -0.386163
-0.181699 0.344461 0.414711 2.573556 1.280503
-0.231699 -0.555539 0.501314 3.006569 -0.386163
-0.181699 -0.555539 0.414711 2.573556 -0.386163
-0.231699 0.344461 0.501314 -0.658493 1.280503
-0.318301 -0.555539 0.451314 -1.091506 -0.386163
-0.231699 -0.555539 0.501314 -0.658493 -0.386163
-0.318301 0.344461 0.451314 2.756569 1.280503
-0.268301 -0.555539 0.364711 2.323556 -0.386163
-0.318301 -0.555539 0.451314 2.756569 -0.386163
-0.231699 -0.555539 0.501314 3.006569 -0.658493
-0.268301 -0.555539 0.364711 2.323556 -0.841506
-0.181699 -0.555539 0.414711 2.573556 -0.408493
-0.231699 0.344461 0.501314 3.006569 -0.658493
-0.268301 0.344461 0.364711 2.323556 -0.841506
-0.318301 0.344461 0.451314 2.756569 -1.091506
0.231699 0.344461 -0.501314 1.658494 1.280503
0.318301 -0.555539 -0.451314 2.091506 -0.386163
0.231699 -0.555539 -0.501314 1.658494 -0.386163
0.318301 0.344461 -0.451314 -1.756569 1.280503
0.268301 -0.555539 -0.364711 -1.323557 -0.386163
0.318301 -0.555539 -0.451314 -1.756569 -0.386163
0.268301 0.344461 -0.364711 1.841506 1.280503
0.181699 -0.555539 -0.414711 1.408494 -0.386163
0.268301 -0.555539 -0.364711 1.841506 -0.386163
0.181699 0.344461 -0.414711 -1.573557 1.280503
0.231699 -0.555539 -0.501314 -2.006569 -0.386163
0.181699 -0.555539 -0.414711 -1.573557 -0.386163
0.268301 -0.555539 -0.364711 -1.323557 1.841506
0.231699 -0.555539 -0.501314 -2.006569 1.658494
0.318301 -0.555539 -0.451314 -1.756569 2.091506
0.268301 0.344461 -0.364711 -1.323557 1.841506
0.231699 0.344461 -0.501314 -2.006569 1.658494
0.181699 0.344461 -0.414711 -1.573557 1.408494
-0.414711 0.344461 0.181698 1.408493 1.280503
-0.364711 -0.555539 0.268301 1.841505 -0.386163
-0.414711 -0.555539 0.181698 1.408493 -0.386163
-0.364711 0.344461 0.268301 -1.323557 1.280503
-0.451314 -0.555539 0.318301 -1.756569 -0.386163
-0.364711 -0.555539 0.268301 -1.323557 -0.386163
-0.451314 0.344461 0.318301 2.091506 1.280503
-0.501314 -0.555539 0.231698 1.658493 -0.386163
-0.451314 -0.555539 0.318301 2.091506 -0.386163
-0.501314 0.344461 0.231698 -2.006569 1.280503
-0.414711 -0.555539 0.181698 -1.573556 -0.386163
-0.501314 -0.555539 0.231698 -2.006569 -0.386163
-0.364711 -0.555539 0.268301 1.841505 -1.323557
-0.501314 -0.555539 0.231698 1.658493 -2.006569
-0.414711 -0.555539 0.181698 1.408493 -1.573556
-0.364711 0.344461 0.268301 1.841505 -1.323557
-0.501314 0.344461 0.231698 1.658493 -2.006569
-0.451314 0.344461 0.318301 2.091506 -1.756569
0.451314 0.344461 -0.318301 -1.091506 1.280503
0.501314 -0.555539 -0.231699 -0.658494 -0.386163
0.451314 -0.555539 -0.318301 -1.091506 -0.386163
0.501314 0.344461 -0.231699 3.006569 1.280503
0.414711 -0.555539 -0.181699 2.573557 -0.386163
0.501314 -0.555539 -0.231699 3.006569 -0.386163
0.414711 0.344461 -0.181699 -0.408494 1.280503
0.364711 -0.555539 -0.268301 -0.841506 -0.386163
0.414711 -0.555539 -0.181699 -0.408494 -0.386163
0.364711 0.344461 -0.268301 2.323557 1.280503
0.451314 -0.555539 -0.318301 2.756570 -0.386163
0.364711 -0.555539 -0.268301 2.323557 -0.386163
0.501314 -0.555539 -0.231699 -0.658494 3.006569
0.364711 -0.555539 -0.268301 -0.841506 2.323557
0.451314 -0.555539 -0.318301 -1.091506 2.756570
0.501314 0.344461 -0.231699 -0.658494 3.006569
0.364711 0.344461 -0.268301 -0.841506 2.323557
0.414711 0.344461 -0.181699 -0.408494 2.573557
0.050000 0.533461 -0.050000 0.750000 1.630504
-0.050000 0.533461 0.050000 0.250000 1.630504
-0.050000 0.263462 0.050000 0.750000 0.250000
-0.050000 0.533461 -0.050000 0.250000 0.250000
0.250000 0.299462 0.433013 2.665064 1.197170
-0.433013 0.299462 0.250000 -1.665063 1.197170
-0.250000 0.299462 -0.433013 -1.665062 1.197170
0.433013 0.299462 0.250000 1.750001 2.665064
0.500000 0.299462 0.000000 0.500001 3.000000
0.433013 0.299462 -0.250000 -0.750001 2.665063
-0.000000 0.299462 -0.500000 -1.999999 0.499999
-0.250000 0.299462 -0.433013 -1.665062 -0.750001
-0.433013 0.299462 -0.250000 -0.749999 -1.665064
-0.500000 0.299462 0.000000 0.500001 -2.000000
-0.433013 0.299462 0.250000 1.750001 -1.665063
0.000000 0.299462 0.500000 3.000001 0.500000
0.433013 0.299462 -0.250000 2.665063 1.197170
0.500000 0.209462 0.000000 0.500001 3.000000
0.433013 0.209462 0.250000 1.750001 2.665064
0.250000 0.209462 0.433013 2.665064 1.750000
0.000000 0.209462 0.500000 3.000001 0.500000
-0.250000 0.209462 0.433013 2.665064 -0.750000
-0.433013 0.209462 0.250000 1.750001 -1.665063
-0.500000 0.209462 0.000000 0.500001 -2.000000
-0.250000 0.209462 -0.433013 -1.665062 -0.750001
0.250000 0.209462 -0.433013 -1.665064 1.749999
0.250000 -0.420538 0.433013 2.665064 -0.136163
-0.433013 -0.420538 0.250000 -1.665063 -0.136163
-0.250000 -0.420538 -0.433013 -1.665062 -0.136163
0.433013 -0.420538 0.250000 1.750001 2.665064
0.500000 -0.420538 0.000000 0.500001 3.000000
0.433013 -0.420538 -0.250000 -0.750001 2.665063
-0.000000 -0.420538 -0.500000 -1.999999 0.499999
-0.250000 -0.420538 -0.433013 -1.665062 -0.750001
-0.433013 -0.420538 -0.250000 -0.749999 -1.665064
-0.500000 -0.420538 0.000000 0.500001 -2.000000
-0.433013 -0.420538 0.250000 1.750001 -1.665063
0.000000 -0.420538 0.500000 3.000001 0.500000
0.433013 -0.420538 -0.250000 2.665063 -0.136163
0.500000 -0.510538 0.000000 0.500001 3.000000
0.433013 -0.510538 0.250000 1.750001 2.665064
0.250000 -0.510538 0.433013 2.665064 1.750000
0.000000 -0.510538 0.500000 3.000001 0.500000
-0.250000 -0.510538 0.433013 2.665064 -0.750000
-0.433013 -0.510538 0.250000 1.750001 -1.665063
-0.500000 -0.510538 0.000000 0.500001 -2.000000
-0.250000 -0.510538 -0.433013 -1.665062 -0.750001
0.250000 -0.510538 -0.433013 -1.665064 1.749999
0.050000 0.344461 0.450000 0.750000 1.280503
0.050000 0.344461 0.550000 3.250000 1.280503
-0.050000 0.344461 0.550000 0.250000 1.280503
-0.050000 0.344461 0.450000 2.750000 1.280503
-0.050000 -0.555539 0.550000 3.250000 0.250000
-0.050000 0.344461 0.450000 2.750000 0.250000
0.050000 0.344461 -0.550000 0.750000 1.280503
0.050000 0.344461 -0.450000 -1.749999 1.280503
-0.050000 0.344461 -0.450000 0.250000 1.280503
-0.050000 0.344461 -0.550000 -2.249999 1.280503
-0.050000 -0.555539 -0.450000 -1.749999 0.250000
-0.050000 0.344461 -0.550000 -2.249999 0.250000
0.450000 0.344461 -0.050000 0.250000 1.280503
0.550000 0.344461 -0.050000 3.250000 1.280503
0.550000 0.344461 0.050000 0.750000 1.280503
0.450000 0.344461 0.050000 2.750000 1.280503
0.550000 -0.555539 -0.050000 0.250000 3.250000
0.450000 0.344461 0.050000 0.750000 2.750000
-0.550000 0.344461 -0.050000 0.250000 1.280503
-0.450000 0.344461 -0.050000 -1.749999 1.280503
-0.450000 0.344461 0.050000 0.750000 1.280503
-0.550000 0.344461 0.050000 -2.250000 1.280503
-0.450000 -0.555539 -0.050000 0.250000 -1.749999
-0.550000 0.344461 0.050000 0.750000 -2.250000
0.268301 0.344461 0.364711 1.841506 1.280503
0.318301 0.344461 0.451314 2.756569 1.280503
0.231699 0.344461 0.501314 1.658494 1.280503
0.181699 0.344461 0.414711 2.573556 1.280503
0.318301 -0.555539 0.451314 2.756569 2.091506
0.181699 0.344461 0.414711 2.573556 1.408494
-0.231699 0.344461 -0.501314 -0.658493 1.280503
-0.181699 0.344461 -0.414711 -1.573557 1.280503
-0.268301 0.344461 -0.364711 -0.841506 1.280503
-0.318301 0.344461 -0.451314 -1.756569 1.280503
-0.181699 -0.555539 -0.414711 -1.573557 -0.408493
-0.318301 0.344461 -0.451314 -1.756569 -1.091506
0.414711 0.344461 0.181698 1.408493 1.280503
0.501314 0.344461 0.231698 3.006569 1.280503
0.451314 0.344461 0.318301 2.091506 1.280503
0.364711 0.344461 0.268301 2.323557 1.280503
0.451314 -0.555539 0.318301 2.091506 2.756570
0.414711 0.344461 0.181698 1.408493 2.573557
-0.451314 0.344461 -0.318301 -1.091506 1.280503
-0.364711 0.344461 -0.268301 -1.323557 1.280503
-0.414711 0.344461 -0.181699 -0.408494 1.280503
-0.501314 0.344461 -0.231699 -2.006569 1.280503
-0.414711 -0.555539 -0.181699 -0.408494 -1.573556
-0.451314 0.344461 -0.318301 -1.091506 -1.756569
-0.181699 0.344461 0.414711 -0.408493 1.280503
-0.231699 0.344461 0.501314 3.006569 1.280503
-0.318301 0.344461 0.451314 -1.091506 1.280503
-0.268301 0.344461 0.364711 2.323556 1.280503
-0.318301 -0.555539 0.451314 2.756569 -1.091506
-0.181699 0.344461 0.414711 2.573556 -0.408493
0.318301 0.344461 -0.451314 2.091506 1.280503
0.268301 0.344461 -0.364711 -1.323557 1.280503
0.181699 0.344461 -0.414711 1.408494 1.280503
0.231699 0.344461 -0.501314 -2.006569 1.280503
0.181699 -0.555539 -0.414711 -1.573557 1.408494
0.318301 0.344461 -0.451314 -1.756569 2.091506
-0.364711 0.344461 0.268301 1.841505 1.280503
-0.451314 0.344461 0.318301 -1.756569 1.280503
-0.501314 0.344461 0.231698 1.658493 1.280503
-0.414711 0.344461 0.181698 -1.573556 1.280503
-0.451314 -0.555539 0.318301 2.091506 -1.756569
-0.414711 0.344461 0.181698 1.408493 -1.573556
0.501314 0.344461 -0.231699 -0.658494 1.280503
0.414711 0.344461 -0.181699 2.573557 1.280503
0.364711 0.344461 -0.268301 -0.841506 1.280503
0.451314 0.344461 -0.318301 2.756570 1.280503
0.414711 -0.555539 -0.181699 -0.408494 2.573557
0.451314 0.344461 -0.318301 -1.091506 2.756570
3 0 1 2
3 3 4 5
3 6 7 4
3 8 2 9
3 10 11 12
3 13 14 15
3 16 17 18
3 19 20 17
3 21 22 23
3 24 25 22
3 26 27 25
3 28 29 30
3 31 32 29
3 33 34 32
3 35 36 37
3 38 39 36
3 40 41 42
3 43 44 39
3 45 18 46
3 47 48 49
3 50 51 52
3 53 54 51
3 55 56 57
3 58 59 56
3 60 61 59
3 62 63 64
3 65 66 63
3 67 68 66
3 69 70 71
3 72 73 70
3 74 75 76
3 77 78 73
3 79 52 80
3 81 82 83
3 84 85 86
3 87 88 89
3 90 91 92
3 93 94 95
3 96 97 98
3 99 100 101
3 102 103 104
3 105 106 107
3 108 109 110
3 111 112 113
3 114 115 116
3 117 118 119
3 120 121 122
3 123 124 125
3 126 127 128
3 129 130 131
3 132 133 134
3 135 136 137
3 138 139 140
3 141 142 143
3 144 145 146
3 147 148 149
3 150 151 152
3 153 154 155
3 156 157 158
3 159 160 161
3 162 163 164
3 165 166 167
3 168 169 170
3 171 172 173
3 174 175 176
3 177 178 179
3 180 181 182
3 183 184 185
3 186 187 188
3 189 190 191
3 192 193 194
3 195 196 197
3 198 199 200
3 201 202 203
3 204 205 206
3 207 208 209
3 210 211 212
3 213 214 215
3 216 217 218
3 219 220 221
3 222 223 224
3 225 226 227
3 228 229 230
3 231 232 233
3 234 235 236
3 237 238 239
3 240 241 242
3 243 244 245
3 246 247 248
3 249 250 251
3 252 253 254
3 255 256 257
3 258 259 260
3 261 262 263
3 264 265 266
3 267 268 269
3 270 271 272
3 273 274 275
3 276 277 278
3 279 280 281
3 282 283 284
3 285 286 287
3 288 289 290
3 291 292 293
3 294 295 296
3 297 298 299
3 0 300 1
3 3 6 4
3 6 301 7
3 8 0 2
3 10 302 11
3 13 303 14
3 16 19 17
3 19 304 20
3 21 24 22
3 24 26 25
3 26 305 27
3 28 31 29
3 31 33 32
3 33 306 34
3 35 38 36
3 38 43 39
3 41 307 308
3 308 309 42
3 42 310 311
3 311 312 42
3 312 313 42
3 313 314 40
3 40 315 41
3 41 308 42
3 313 40 42
3 43 316 44
3 45 16 18
3 49 317 318
3 318 319 320
3 320 321 322
3 322 323 47
3 47 324 48
3 48 325 49
3 49 318 47
3 318 320 47
3 320 322 47
3 50 53 51
3 53 326 54
3 55 58 56
3 58 60 59
3 60 327 61
3 62 65 63
3 65 67 66
3 67 328 68
3 69 72 70
3 72 77 73
3 75 329 330
3 330 331 76
3 76 332 333
3 333 334 76
3 334 335 76
3 335 336 74
3 74 337 75
3 75 330 76
3 335 74 76
3 77 338 78
3 79 50 52
3 83 339 340
3 340 341 342
3 342 343 344
3 344 345 81
3 81 346 82
3 82 347 83
3 83 340 81
3 340 342 81
3 342 344 81
3 84 348 85
3 87 349 88
3 90 350 91
3 93 351 94
3 96 352 97
3 99 353 100
3 102 354 103
3 105 355 106
3 108 356 109
3 111 357 112
3 114 358 115
3 117 359 118
3 120 360 121
3 123 361 124
3 126 362 127
3 129 363 130
3 132 364 133
3 135 365 136
3 138 366 139
3 141 367 142
3 144 368 145
3 147 369 148
3 150 370 151
3 153 371 154
3 156 372 157
3 159 373 160
3 162 374 163
3 165 375 166
3 168 376 169
3 171 377 172
3 174 378 175
3 177 379 178
3 180 380 181
3 183 381 184
3 186 382 187
3 189 383 190
3 192 384 193
3 195 385 196
3 198 386 199
3 201 387 202
3 204 388 205
3 207 389 208
3 210 390 211
3 213 391 214
3 216 392 217
3 219 393 220
3 222 394 223
3 225 395 226
3 228 396 229
3 231 397 232
3 234 398 235
3 237 399 238
3 240 400 241
3 243 401 244
3 246 402 247
3 249 403 250
3 252 404 253
3 255 405 256
3 258 406 259
3 261 407 262
3 264 408 265
3 267 409 268
3 270 410 271
3 273 411 274
3 276 412 277
3 279 413 280
3 282 414 283
3 285 415 286
3 288 416 289
3 291 417 292
3 294 418 295
3 297 419 298
