ply
format ascii 1.0
comment Created by Blender 2.91.2 - www.blender.org
element vertex 162
property float x
property float y
property float z
property float s
property float t
property uchar red
property uchar green
property uchar blue
property uchar alpha
element face 148
property list uchar uint vertex_indices
end_header
1.350000 0.400000 -1.350000 0.050886 -1.202771 255 255 255 255
1.500000 -0.500000 1.500000 1.000886 -1.502771 255 255 255 255
1.500000 -0.500000 -1.500000 0.000886 -1.502771 255 255 255 255
1.350000 0.400000 1.350000 0.049401 -1.202771 255 255 255 255
-1.500000 -0.500000 1.500000 0.999401 -1.502771 255 255 255 255
1.500000 -0.500000 1.500000 -0.000599 -1.502771 255 255 255 255
-1.350000 0.400000 1.350000 0.950886 -1.202771 255 255 255 255
-1.500000 -0.500000 -1.500000 0.000886 -1.502771 255 255 255 255
-1.500000 -0.500000 1.500000 1.000886 -1.502771 255 255 255 255
-1.350000 0.400000 -1.350000 0.949401 -1.202771 255 255 255 255
1.500000 -0.500000 -1.500000 -0.000599 -1.502771 255 255 255 255
-1.500000 -0.500000 -1.500000 0.999401 -1.502771 255 255 255 255
-1.500000 -0.500000 1.500000 0.999401 1.000886 255 255 255 255
1.500000 -0.500000 -1.500000 -0.000599 0.000886 255 255 255 255
1.500000 -0.500000 1.500000 -0.000599 1.000886 255 255 255 255
1.350000 0.400000 1.350000 0.049401 0.950886 255 255 255 255
-1.350000 0.400000 -1.350000 0.949401 0.050886 255 255 255 255
-1.350000 0.400000 1.350000 0.949401 0.950886 255 255 255 255
-1.200000 1.600000 0.000000 0.899401 0.500886 255 255 255 255
0.000000 1.600000 -1.200000 0.499401 0.100886 255 255 255 255
0.000000 1.000000 0.000000 0.499401 0.500886 255 255 255 255
0.600000 10.299999 0.000000 0.299401 2.097229 255 255 255 255
0.000000 10.299999 -0.600000 0.499401 2.097229 255 255 255 255
0.000000 11.799998 0.000000 0.499401 2.597229 255 255 255 255
1.200000 1.600000 0.000000 0.099401 0.500886 255 255 255 255
1.200000 2.500000 -1.200000 0.099401 0.100886 255 255 255 255
0.000000 1.600000 1.200000 0.499401 0.900886 255 255 255 255
1.200000 2.500000 1.200000 0.099401 0.900886 255 255 255 255
-0.600000 10.299999 0.000000 0.699401 2.097229 255 255 255 255
-0.600000 9.400001 -0.600000 0.699401 1.797229 255 255 255 255
0.000000 10.299999 0.600000 0.499401 2.097229 255 255 255 255
-0.600000 9.400001 0.600000 0.699401 1.797229 255 255 255 255
0.681626 8.461296 -0.300000 0.400886 1.484328 255 255 255 255
1.180085 2.729018 -0.600000 0.300886 -0.426431 255 255 255 255
1.200000 2.500000 -1.200000 0.100886 -0.502771 255 255 255 255
0.600000 9.400001 0.600000 0.700886 1.797229 255 255 255 255
1.200000 2.500000 1.200000 0.900886 -0.502771 255 255 255 255
0.681626 8.461296 0.300000 0.600886 1.484328 255 255 255 255
-0.681626 8.461296 0.300000 0.600886 1.484328 255 255 255 255
-1.180085 2.729018 0.600000 0.700886 -0.426431 255 255 255 255
-1.200000 2.500000 1.200000 0.900886 -0.502771 255 255 255 255
-0.600000 9.400001 -0.600000 0.300886 1.797229 255 255 255 255
-1.200000 2.500000 -1.200000 0.100886 -0.502771 255 255 255 255
-0.681626 8.461296 -0.300000 0.400886 1.484328 255 255 255 255
0.600000 2.603333 -0.600000 0.300886 -0.468327 255 255 255 255
0.300000 8.626667 -0.300000 0.400886 1.539452 255 255 255 255
0.300000 8.461296 -0.681626 0.273677 1.484328 255 255 255 255
0.300000 8.626667 0.300000 0.600886 1.539452 255 255 255 255
0.300000 8.626667 0.300000 0.600886 1.539452 255 255 255 255
0.600000 2.729018 1.180085 0.894248 -0.426431 255 255 255 255
-0.600000 2.603333 0.600000 0.700886 -0.468327 255 255 255 255
-0.300000 8.626667 0.300000 0.600886 1.539452 255 255 255 255
-0.300000 8.461296 0.681626 0.728095 1.484328 255 255 255 255
-0.300000 8.626667 -0.300000 0.599401 0.400886 255 255 255 255
-0.600000 2.729018 -1.180085 0.699401 0.107524 255 255 255 255
-0.300000 8.626667 -0.300000 0.599401 0.400886 255 255 255 255
-0.600000 2.603333 0.600000 0.699401 0.700886 255 255 255 255
-0.600000 2.603333 0.600000 0.699401 0.700886 255 255 255 255
-0.600000 2.729018 1.180085 0.699401 0.894248 255 255 255 255
-0.001846 9.400001 -0.600000 0.300886 1.797229 255 255 255 255
0.000000 9.406667 -0.600000 0.300886 1.799451 255 255 255 255
0.000000 9.840000 0.000000 0.500886 1.943896 255 255 255 255
-0.600000 2.603333 -0.600000 0.699401 0.300886 255 255 255 255
0.000000 2.213333 -1.200000 0.499401 0.100886 255 255 255 255
0.000000 2.039999 0.000000 0.499401 0.500886 255 255 255 255
0.600000 2.603333 -0.600000 0.299401 0.300886 255 255 255 255
0.000000 2.213333 1.200000 0.499401 0.900886 255 255 255 255
0.600000 2.729018 1.180085 0.299401 0.894248 255 255 255 255
0.600000 2.603333 0.600000 0.299401 0.700886 255 255 255 255
-0.300000 8.626667 0.300000 0.600886 1.539452 255 255 255 255
0.000000 9.406667 0.600000 0.700886 1.799451 255 255 255 255
0.300000 8.461296 0.681626 0.728095 1.484328 255 255 255 255
0.001846 9.400001 0.600000 0.700886 1.797229 255 255 255 255
0.300000 8.626667 -0.300000 0.400886 1.539452 255 255 255 255
0.300000 8.461296 0.681626 0.399401 1.484328 255 255 255 255
0.600000 2.729018 1.180085 0.299401 -0.426431 255 255 255 255
1.200000 2.500000 1.200000 0.099401 -0.502771 255 255 255 255
-1.200000 2.500000 1.200000 0.899401 -0.502771 255 255 255 255
-0.300000 8.461296 0.681626 0.599401 1.484328 255 255 255 255
-0.300000 8.461296 -0.681626 0.599401 1.484328 255 255 255 255
-0.600000 2.729018 -1.180085 0.699401 -0.426431 255 255 255 255
-1.200000 2.500000 -1.200000 0.899401 -0.502771 255 255 255 255
0.600000 9.400001 -0.600000 0.299401 1.797229 255 255 255 255
1.200000 2.500000 -1.200000 0.099401 -0.502771 255 255 255 255
0.300000 8.461296 -0.681626 0.399401 1.484328 255 255 255 255
-1.180085 2.729018 0.600000 0.892762 0.700886 255 255 255 255
0.600000 2.603333 0.600000 0.299401 0.700886 255 255 255 255
0.300000 8.626667 0.300000 0.399401 0.600886 255 255 255 255
-0.600000 2.603333 -0.600000 0.699401 0.300886 255 255 255 255
0.600000 2.603333 -0.600000 0.299401 -0.468327 255 255 255 255
0.681626 8.461296 -0.300000 0.272192 1.484328 255 255 255 255
0.300000 8.626667 -0.300000 0.399401 1.539452 255 255 255 255
-1.200000 2.213333 0.000000 0.899401 0.500886 255 255 255 255
0.600000 9.400001 -0.001846 0.299401 1.797229 255 255 255 255
0.300000 8.626667 -0.300000 0.399401 1.539452 255 255 255 255
1.200000 2.213333 0.000000 0.099401 0.500886 255 255 255 255
1.180085 2.729018 0.600000 0.106039 0.700886 255 255 255 255
-0.300000 8.626667 -0.300000 0.400886 1.539452 255 255 255 255
-0.300000 8.626667 -0.300000 0.400886 1.539452 255 255 255 255
-0.300000 8.626667 0.300000 0.599401 1.539452 255 255 255 255
-0.600000 9.400001 0.001846 0.699401 1.797229 255 255 255 255
0.000000 9.840000 0.000000 0.499401 1.943896 255 255 255 255
1.350000 0.400000 1.350000 0.950886 -1.202771 255 255 255 255
-1.350000 0.400000 1.350000 0.949401 -1.202771 255 255 255 255
-1.350000 0.400000 -1.350000 0.050886 -1.202771 255 255 255 255
1.350000 0.400000 -1.350000 0.049401 -1.202771 255 255 255 255
-1.500000 -0.500000 -1.500000 0.999401 0.000886 255 255 255 255
1.350000 0.400000 -1.350000 0.049401 0.050886 255 255 255 255
-1.200000 2.500000 -1.200000 0.899401 0.100886 255 255 255 255
-1.200000 2.500000 1.200000 0.899401 0.900886 255 255 255 255
0.600000 9.400001 0.600000 0.299401 1.797229 255 255 255 255
1.200000 2.213333 0.000000 0.500886 -0.598327 255 255 255 255
1.200000 1.600000 0.000000 0.500886 -0.802771 255 255 255 255
0.600000 9.400001 -0.600000 0.300886 1.797229 255 255 255 255
0.600000 9.400001 -0.001846 0.500271 1.797229 255 255 255 255
0.600000 9.406667 0.000000 0.500886 1.799451 255 255 255 255
0.600000 10.299999 0.000000 0.500886 2.097229 255 255 255 255
1.180085 2.729018 0.600000 0.700886 -0.426431 255 255 255 255
-1.200000 2.213333 0.000000 0.500886 -0.598327 255 255 255 255
-1.200000 1.600000 0.000000 0.500886 -0.802771 255 255 255 255
-0.600000 9.400001 0.600000 0.700886 1.797229 255 255 255 255
-0.600000 9.400001 0.001846 0.501501 1.797229 255 255 255 255
-0.600000 9.406667 0.000000 0.500886 1.799451 255 255 255 255
-1.180085 2.729018 -0.600000 0.300886 -0.426431 255 255 255 255
-0.600000 10.299999 0.000000 0.500886 2.097229 255 255 255 255
0.600000 2.729018 -1.180085 0.107524 -0.426431 255 255 255 255
0.600000 2.603333 0.600000 0.700886 -0.468327 255 255 255 255
-0.600000 2.729018 1.180085 0.894248 -0.426431 255 255 255 255
-0.600000 2.603333 -0.600000 0.300886 -0.468327 255 255 255 255
-0.600000 2.729018 -1.180085 0.107524 -0.426431 255 255 255 255
-0.300000 8.461296 -0.681626 0.273677 1.484328 255 255 255 255
0.600000 2.603333 -0.600000 0.299401 0.300886 255 255 255 255
0.600000 2.729018 -1.180085 0.299401 0.107524 255 255 255 255
0.000000 2.213333 1.200000 0.499401 -0.598327 255 255 255 255
0.000000 1.600000 1.200000 0.499401 -0.802771 255 255 255 255
0.001846 9.400001 0.600000 0.498785 1.797229 255 255 255 255
0.000000 9.406667 0.600000 0.499401 1.799451 255 255 255 255
-0.600000 2.729018 1.180085 0.699401 -0.426431 255 255 255 255
0.000000 2.213333 -1.200000 0.499401 -0.598327 255 255 255 255
0.000000 1.600000 -1.200000 0.499401 -0.802771 255 255 255 255
-0.001846 9.400001 -0.600000 0.500016 1.797229 255 255 255 255
0.000000 9.406667 -0.600000 0.499401 1.799451 255 255 255 255
0.600000 2.729018 -1.180085 0.299401 -0.426431 255 255 255 255
-1.180085 2.729018 0.600000 0.892762 -0.426431 255 255 255 255
-0.681626 8.461296 0.300000 0.726609 1.484328 255 255 255 255
-0.600000 2.603333 0.600000 0.699401 -0.468327 255 255 255 255
0.300000 8.626667 0.300000 0.399401 1.539452 255 255 255 255
0.681626 8.461296 0.300000 0.272192 1.484328 255 255 255 255
0.600000 2.603333 0.600000 0.299401 -0.468327 255 255 255 255
1.180085 2.729018 0.600000 0.106039 -0.426431 255 255 255 255
-0.300000 8.626667 -0.300000 0.599401 1.539452 255 255 255 255
-0.681626 8.461296 -0.300000 0.726609 1.484328 255 255 255 255
-0.600000 2.603333 -0.600000 0.699401 -0.468327 255 255 255 255
-1.180085 2.729018 -0.600000 0.892762 -0.426431 255 255 255 255
0.300000 8.626667 -0.300000 0.399401 0.400886 255 255 255 255
1.180085 2.729018 -0.600000 0.106039 -0.426431 255 255 255 255
-1.180085 2.729018 -0.600000 0.892762 0.300886 255 255 255 255
0.600000 9.406667 0.000000 0.299401 1.799451 255 255 255 255
0.300000 8.626667 -0.300000 0.399401 0.400886 255 255 255 255
0.681626 8.461296 -0.300000 0.272192 0.400886 255 255 255 255
1.180085 2.729018 -0.600000 0.106039 0.300886 255 255 255 255
-0.600000 9.406667 0.000000 0.699401 1.799451 255 255 255 255
3 0 1 2
3 3 4 5
3 6 7 8
3 9 10 11
3 12 13 14
3 15 16 17
3 18 19 20
3 21 22 23
3 24 19 25
3 26 24 27
3 26 18 20
3 28 22 29
3 30 28 31
3 30 21 23
3 32 33 34
3 35 36 37
3 38 39 40
3 41 42 43
3 44 45 46
3 47 48 49
3 50 51 52
3 53 54 55
3 56 57 58
3 59 60 61
3 54 62 63
3 63 64 65
3 66 67 68
3 69 70 52
3 47 71 72
3 73 60 46
3 74 75 76
3 31 77 78
3 79 80 81
3 82 83 84
3 57 56 85
3 86 68 87
3 62 88 53
3 89 90 91
3 62 92 64
3 90 93 94
3 95 65 64
3 95 86 96
3 92 56 64
3 97 98 61
3 99 100 101
3 48 47 61
3 0 102 1
3 3 103 4
3 6 104 7
3 9 105 10
3 12 106 13
3 15 107 16
3 18 108 19
3 21 82 22
3 24 20 19
3 26 20 24
3 26 109 18
3 28 23 22
3 30 23 28
3 30 110 21
3 33 111 34
3 111 112 34
3 113 114 32
3 113 32 34
3 114 113 115
3 113 116 115
3 36 112 111
3 36 111 117
3 36 117 37
3 37 115 35
3 115 116 35
3 39 118 40
3 118 119 40
3 120 121 38
3 120 38 40
3 122 121 120
3 42 119 118
3 42 118 123
3 122 120 124
3 42 123 43
3 43 122 41
3 122 124 41
3 46 125 44
3 45 73 46
3 48 126 49
3 49 71 47
3 52 127 50
3 51 69 52
3 97 128 129
3 129 130 98
3 58 66 56
3 66 64 56
3 61 98 59
3 98 130 59
3 54 88 62
3 62 64 63
3 65 131 132
3 132 63 65
3 68 86 64
3 64 66 68
3 69 61 70
3 70 61 72
3 61 47 72
3 73 61 60
3 75 133 76
3 133 134 76
3 110 135 74
3 110 74 76
3 135 110 136
3 110 30 136
3 77 134 133
3 77 133 137
3 77 137 78
3 78 136 31
3 136 30 31
3 80 138 81
3 138 139 81
3 29 140 79
3 29 79 81
3 141 140 29
3 83 139 138
3 83 138 142
3 141 29 22
3 83 142 84
3 84 141 82
3 141 22 82
3 143 144 145
3 144 99 145
3 146 147 148
3 147 149 148
3 150 151 152
3 151 153 152
3 154 131 65
3 89 155 90
3 62 156 92
3 93 157 101
3 158 154 159
3 93 101 94
3 95 160 65
3 95 64 86
3 92 85 56
3 101 161 150
3 161 151 150
3 61 69 51
3 99 144 100
3 100 161 101
3 101 157 146
3 157 147 146
