ply
format ascii 1.0
comment Created by Blender 2.91.2 - www.blender.org
element vertex 84
property float x
property float y
property float z
property float s
property float t
element face 64
property list uchar uint vertex_indices
end_header
0.000000 0.490000 0.480000 0.176667 1.146667
0.000000 0.490000 -0.490000 0.176667 0.176667
0.000000 -0.480000 -0.490000 1.146667 0.176667
0.500000 0.490000 -0.490000 0.176667 0.176667
0.500000 0.490000 0.480000 0.176667 1.146667
0.500000 -0.480000 -0.490000 1.146667 0.176667
0.005000 0.490000 0.490000 0.176667 0.010000
0.495000 -0.490000 -0.490000 1.156667 0.990000
0.495000 0.490000 0.490000 0.176667 0.990000
0.005000 0.500000 0.490000 0.010000 1.156667
0.495000 0.500000 -0.490000 0.990000 0.176667
0.005000 0.500000 -0.490000 0.010000 0.176667
-0.005000 -0.490000 -0.500000 1.156667 0.990000
-0.495000 0.490000 -0.500000 0.176667 0.010000
-0.005000 0.490000 -0.500000 0.176667 0.990000
-0.500000 0.490000 0.480000 0.176667 1.146667
-0.500000 0.490000 -0.490000 0.176667 0.176667
-0.500000 -0.480000 -0.490000 1.146667 0.176667
0.000000 0.490000 -0.490000 0.176667 0.176667
0.000000 0.490000 0.480000 0.176667 1.146667
0.000000 -0.480000 -0.490000 1.146667 0.176667
-0.495000 0.490000 0.490000 0.176667 0.010000
-0.005000 -0.490000 -0.490000 1.156667 0.990000
-0.005000 0.490000 0.490000 0.176667 0.990000
-0.495000 0.500000 0.490000 0.010000 1.156667
-0.005000 0.500000 -0.490000 0.990000 0.176667
-0.495000 0.500000 -0.490000 0.010000 0.176667
0.005000 0.490000 -0.500000 0.176667 0.010000
0.000000 0.490000 -0.490000 0.176667 0.000000
0.005000 0.500000 -0.490000 0.166667 0.010000
0.000000 0.490000 0.480000 0.181667 0.000000
0.005000 0.490000 0.490000 0.176667 0.000000
0.005000 0.500000 0.490000 0.166667 0.010000
0.495000 0.490000 -0.500000 0.990000 0.166667
0.495000 0.500000 -0.490000 0.990000 0.166667
0.500000 0.490000 -0.490000 1.000000 0.176667
0.500000 0.490000 0.480000 0.181667 1.000000
0.495000 0.500000 0.490000 0.166667 0.990000
0.000000 -0.480000 -0.490000 1.146667 0.000000
0.005000 -0.490000 -0.500000 1.166667 0.010000
0.005000 -0.490000 -0.490000 1.166667 0.010000
0.495000 -0.490000 -0.500000 1.156667 0.990000
0.500000 -0.480000 -0.490000 1.146667 1.000000
0.495000 -0.490000 -0.490000 1.166667 0.990000
-0.500000 0.490000 -0.490000 0.176667 0.000000
-0.495000 0.500000 -0.490000 0.166667 0.010000
-0.500000 0.490000 0.480000 0.181667 0.000000
-0.495000 0.490000 0.490000 0.176667 0.000000
-0.495000 0.500000 0.490000 0.166667 0.010000
-0.005000 0.490000 -0.500000 0.990000 0.166667
-0.005000 0.500000 -0.490000 0.990000 0.166667
0.000000 0.490000 -0.490000 1.000000 0.176667
0.000000 0.490000 0.480000 0.181667 1.000000
-0.005000 0.500000 0.490000 0.166667 0.990000
-0.500000 -0.480000 -0.490000 1.146667 0.000000
-0.495000 -0.490000 -0.500000 1.156667 0.000000
-0.495000 -0.490000 -0.490000 1.156667 0.000000
0.000000 -0.480000 -0.490000 1.146667 1.000000
-0.005000 -0.490000 -0.490000 1.166667 0.990000
0.005000 0.490000 -0.500000 0.010000 0.166667
0.000000 0.490000 0.480000 0.000000 1.146667
0.000000 0.490000 -0.490000 0.000000 0.176667
0.495000 0.490000 0.490000 0.990000 1.166667
0.005000 0.490000 0.490000 0.010000 1.166667
0.500000 0.490000 0.480000 1.000000 1.146667
0.495000 0.500000 0.490000 0.990000 1.156667
0.495000 0.490000 -0.500000 0.176667 0.990000
0.000000 -0.480000 -0.490000 1.151667 0.000000
0.005000 -0.490000 -0.490000 1.156667 0.010000
0.005000 -0.490000 -0.500000 1.156667 0.010000
-0.495000 0.490000 -0.500000 0.010000 0.166667
-0.500000 0.490000 0.480000 0.000000 1.146667
-0.500000 0.490000 -0.490000 0.000000 0.176667
-0.005000 0.490000 0.490000 0.990000 1.166667
-0.495000 0.490000 0.490000 0.010000 1.166667
0.000000 0.490000 0.480000 1.000000 1.146667
-0.005000 0.500000 0.490000 0.990000 1.156667
-0.500000 -0.480000 -0.490000 1.151667 0.000000
-0.495000 -0.490000 -0.490000 1.156667 0.010000
-0.495000 -0.490000 -0.500000 1.156667 0.010000
0.500000 0.490000 -0.490000 0.176667 1.000000
0.500000 -0.480000 -0.490000 1.151667 1.000000
0.000000 0.490000 -0.490000 0.176667 1.000000
0.000000 -0.480000 -0.490000 1.151667 1.000000
3 0 1 2
3 3 4 5
3 6 7 8
3 9 10 11
3 12 13 14
3 15 16 17
3 18 19 20
3 21 22 23
3 24 25 26
3 27 28 29
3 30 31 32
3 33 34 35
3 8 36 37
3 38 39 40
3 41 42 43
3 13 44 45
3 46 47 48
3 49 50 51
3 23 52 53
3 54 55 56
3 12 57 58
3 59 10 33
3 60 11 61
3 62 9 63
3 64 10 65
3 66 42 41
3 7 36 8
3 67 6 30
3 41 68 69
3 27 38 28
3 70 25 49
3 71 26 72
3 73 24 74
3 75 25 76
3 14 57 12
3 22 52 23
3 77 21 46
3 12 78 79
3 13 54 44
3 41 27 66
3 6 68 7
3 9 65 10
3 12 79 13
3 21 78 22
3 24 76 25
3 59 11 10
3 60 9 11
3 62 65 9
3 64 35 10
3 66 80 42
3 7 81 36
3 67 68 6
3 41 7 68
3 27 69 38
3 70 26 25
3 71 24 26
3 73 76 24
3 75 51 25
3 14 82 57
3 22 83 52
3 77 78 21
3 12 22 78
3 13 79 54
3 41 69 27
