ply
format ascii 1.0
comment Created by Blender 2.91.2 - www.blender.org
element vertex 43
property float x
property float y
property float z
property float s
property float t
element face 32
property list uchar uint vertex_indices
end_header
-0.500000 0.500000 -0.500000 0.000000 1.000000
-0.450000 -0.500000 -0.500000 1.000000 0.000000
-0.500000 -0.500000 -0.500000 0.000000 0.000000
-0.475000 0.500000 0.500000 1.000000 1.000000
-0.500000 -0.500000 0.500000 0.000000 0.000000
-0.475000 -0.500000 0.500000 1.000000 0.000000
0.500000 0.500000 -0.500000 0.000000 1.000000
0.500000 -0.500000 -0.475000 1.000000 0.000000
0.500000 -0.500000 -0.500000 0.000000 0.000000
-0.500000 0.500000 0.500000 0.000000 1.000000
-0.500000 -0.500000 -0.450000 0.950000 0.000000
-0.500000 -0.500000 -0.500000 1.000000 0.000000
-0.500000 0.500000 -0.450000 0.950000 1.000000
-0.500000 0.500000 -0.500000 1.000000 1.000000
-0.475000 -0.500000 0.500000 0.000000 0.000000
-0.475000 0.500000 -0.475000 0.950000 1.000000
-0.475000 0.500000 0.500000 0.000000 1.000000
-0.500000 -0.500000 -0.450000 0.000000 0.950000
-0.475000 -0.500000 -0.475000 1.000000 0.950000
-0.500000 -0.500000 -0.500000 0.000000 1.000000
-0.450000 -0.500000 -0.500000 1.000000 1.000000
-0.450000 -0.500000 -0.497500 1.000000 0.997500
-0.475000 0.500000 0.500000 1.000000 0.000000
-0.475000 0.500000 -0.475000 1.000000 0.950000
-0.497500 0.500000 -0.450000 0.050000 0.950000
-0.450000 0.500000 -0.500000 1.000000 1.000000
0.500000 0.500000 -0.500000 1.000000 1.000000
-0.450000 -0.500000 -0.500000 0.050000 0.000000
-0.450000 0.500000 -0.500000 0.050000 1.000000
0.500000 0.500000 -0.475000 1.000000 1.000000
-0.475000 -0.500000 -0.475000 0.050000 0.000000
0.500000 -0.500000 -0.475000 1.000000 1.000000
-0.450000 -0.500000 -0.497500 0.050000 0.050000
0.500000 -0.500000 -0.500000 0.000000 1.000000
-0.450000 0.500000 -0.500000 0.000000 0.050000
-0.475000 0.500000 -0.475000 1.000000 0.050000
-0.475000 -0.500000 -0.475000 0.950000 0.000000
-0.500000 0.500000 -0.450000 0.000000 0.950000
-0.500000 0.500000 0.500000 0.000000 0.000000
0.500000 -0.500000 -0.500000 1.000000 0.000000
-0.475000 0.500000 -0.475000 0.050000 1.000000
-0.475000 -0.500000 -0.475000 1.000000 0.050000
-0.450000 -0.500000 -0.500000 0.000000 0.050000
3 0 1 2
3 3 4 5
3 6 7 8
3 9 10 4
3 11 12 13
3 14 15 16
3 5 17 18
3 19 20 21
3 22 23 24
3 0 24 25
3 26 27 28
3 29 30 7
3 31 32 33
3 29 34 35
3 0 25 1
3 3 9 4
3 6 29 7
3 9 12 10
3 11 10 12
3 14 36 15
3 5 4 17
3 18 17 21
3 17 19 21
3 37 38 24
3 38 22 24
3 37 24 0
3 24 23 25
3 26 39 27
3 29 40 30
3 41 32 31
3 32 42 33
3 29 6 34
