ply
format ascii 1.0
comment Created by Blender 2.91.2 - www.blender.org
element vertex 47
property float x
property float y
property float z
property float s
property float t
element face 44
property list uchar uint vertex_indices
end_header
-0.550000 0.490000 0.539000 1.014500 1.014500
-0.550000 -0.490000 -0.539000 -0.014500 -0.014500
-0.550000 -0.490000 0.539000 1.014500 -0.014500
0.539000 0.490000 0.550000 1.014500 1.014500
-0.539000 -0.490000 0.550000 -0.014500 -0.014500
0.539000 -0.490000 0.550000 1.014500 -0.014500
0.539000 0.500000 -0.539000 -0.014500 1.014500
-0.539000 0.500000 0.539000 1.014500 -0.014500
0.539000 0.500000 0.539000 1.014500 1.014500
-0.539000 0.490000 -0.550000 -0.014500 1.014500
0.539000 -0.490000 -0.550000 1.014500 -0.014500
-0.539000 -0.490000 -0.550000 -0.014500 -0.014500
0.550000 0.490000 -0.539000 -0.014500 1.014500
0.550000 -0.490000 0.539000 1.014500 -0.014500
0.550000 -0.490000 -0.539000 -0.014500 -0.014500
-0.539000 -0.500000 -0.539000 -0.014500 -0.014500
-0.550000 -0.490000 -0.539000 -0.014500 -0.025000
-0.539000 -0.490000 -0.550000 -0.025000 -0.014500
-0.550000 0.490000 -0.539000 -0.014500 1.014500
-0.539000 0.500000 -0.539000 -0.014500 1.025000
-0.539000 0.490000 -0.550000 -0.025000 1.014500
0.539000 -0.500000 -0.539000 -0.014500 1.014500
0.539000 -0.490000 -0.550000 -0.025000 1.014500
0.550000 -0.490000 -0.539000 -0.014500 1.025000
0.539000 0.500000 -0.539000 -0.014500 1.025000
0.550000 0.490000 -0.539000 -0.014500 1.025000
0.539000 0.490000 -0.550000 -0.025000 1.014500
-0.539000 -0.500000 0.539000 1.014500 -0.014500
-0.539000 -0.490000 0.550000 1.025000 -0.014500
-0.550000 -0.490000 0.539000 1.014500 -0.025000
-0.539000 0.500000 0.539000 1.014500 1.025000
-0.550000 0.490000 0.539000 1.014500 1.025000
-0.539000 0.490000 0.550000 1.025000 1.014500
0.539000 -0.500000 0.539000 1.014500 1.014500
0.550000 -0.490000 0.539000 1.014500 1.025000
0.539000 -0.490000 0.550000 1.025000 1.014500
0.539000 0.500000 0.539000 1.014500 1.025000
0.539000 0.490000 0.550000 1.014500 1.025000
0.550000 0.490000 0.539000 1.025000 1.014500
0.539000 0.500000 -0.539000 1.014500 1.025000
0.550000 -0.490000 -0.539000 1.025000 -0.014500
0.539000 0.490000 -0.550000 1.014500 1.014500
0.550000 0.490000 -0.539000 1.025000 1.014500
0.550000 0.490000 0.539000 1.014500 1.014500
-0.539000 0.500000 0.539000 -0.014500 1.025000
-0.539000 0.490000 0.550000 -0.014500 1.014500
-0.539000 0.500000 -0.539000 -0.014500 -0.014500
3 0 1 2
3 3 4 5
3 6 7 8
3 9 10 11
3 12 13 14
3 15 16 17
3 18 19 20
3 21 22 23
3 24 25 26
3 27 28 29
3 30 31 32
3 33 34 35
3 36 37 38
3 15 22 21
3 18 11 1
3 39 9 19
3 40 41 42
3 21 34 33
3 8 12 6
3 5 43 3
3 33 28 27
3 44 3 36
3 2 32 0
3 27 1 15
3 19 0 30
3 33 15 21
3 0 18 1
3 3 45 4
3 6 46 7
3 9 41 10
3 12 43 13
3 15 17 22
3 18 9 11
3 39 41 9
3 40 10 41
3 21 23 34
3 8 43 12
3 5 13 43
3 33 35 28
3 44 45 3
3 2 28 32
3 27 2 1
3 19 18 0
3 33 27 15
