ply
format ascii 1.0
comment Created by Blender 2.91.2 - www.blender.org
element vertex 18
property float x
property float y
property float z
property float s
property float t
element face 12
property list uchar uint vertex_indices
end_header
-0.500000 2.500000 -0.500000 0.000000 3.000000
0.500000 -0.500000 -0.500000 1.000000 0.000000
-0.500000 -0.500000 -0.500000 0.000000 0.000000
0.500000 2.500000 -0.500000 0.000000 1.000000
0.500000 -0.500000 -0.475000 1.000000 0.000000
0.500000 -0.500000 -0.500000 0.000000 0.000000
0.500000 2.500000 -0.475000 1.000000 3.000000
-0.500000 -0.500000 -0.475000 0.000000 0.000000
-0.500000 2.500000 -0.475000 1.000000 1.000000
-0.500000 -0.500000 -0.475000 1.000000 0.000000
0.500000 -0.500000 -0.475000 1.000000 1.000000
0.500000 -0.500000 -0.500000 0.000000 1.000000
-0.500000 2.500000 -0.475000 1.000000 0.000000
0.500000 2.500000 -0.475000 1.000000 1.000000
0.500000 2.500000 -0.500000 1.000000 3.000000
-0.500000 2.500000 -0.475000 0.000000 3.000000
-0.500000 2.500000 -0.500000 0.000000 1.000000
-0.500000 2.500000 -0.500000 0.000000 0.000000
3 0 1 2
3 3 4 5
3 6 7 4
3 8 2 9
3 10 2 11
3 3 12 13
3 0 14 1
3 3 13 4
3 6 15 7
3 8 16 2
3 10 9 2
3 3 17 12
