ply
format ascii 1.0
comment Created by Blender 2.91.2 - www.blender.org
element vertex 142
property float x
property float y
property float z
property float s
property float t
element face 132
property list uchar uint vertex_indices
end_header
-0.500000 -0.495000 -0.490000 0.745000 1.078333
-0.500000 -0.005000 0.490000 0.255000 0.588333
-0.500000 -0.005000 -0.490000 0.745000 0.588333
0.490000 -0.495000 -0.500000 0.745000 1.078333
-0.490000 -0.005000 -0.500000 0.255000 0.588333
0.490000 -0.005000 -0.500000 0.745000 0.588333
0.495000 0.500000 -0.490000 0.745000 0.747500
0.005000 0.500000 0.490000 0.255000 0.502500
0.495000 0.500000 0.490000 0.255000 0.747500
0.490000 -0.500000 0.490000 0.255000 0.745000
-0.490000 -0.500000 -0.490000 0.745000 0.255000
0.490000 -0.500000 -0.490000 0.745000 0.745000
-0.490000 -0.495000 0.500000 0.255000 1.078333
0.490000 -0.005000 0.500000 0.745000 0.588333
-0.490000 -0.005000 0.500000 0.255000 0.588333
0.500000 -0.495000 0.490000 0.255000 1.078333
0.500000 -0.005000 -0.490000 0.745000 0.588333
0.500000 -0.005000 0.490000 0.255000 0.588333
0.000000 0.005000 -0.490000 0.745000 0.578333
0.000000 0.495000 0.490000 0.255000 0.088333
0.000000 0.495000 -0.490000 0.745000 0.088333
0.495000 0.005000 -0.500000 0.747500 0.578333
0.005000 0.495000 -0.500000 0.502500 0.088333
0.495000 0.495000 -0.500000 0.747500 0.088333
-0.005000 0.500000 -0.490000 0.745000 0.497500
-0.495000 0.500000 0.490000 0.255000 0.252500
-0.005000 0.500000 0.490000 0.255000 0.497500
0.495000 -0.000000 0.490000 0.255000 0.747500
0.005000 -0.000000 -0.490000 0.745000 0.502500
0.495000 -0.000000 -0.490000 0.745000 0.747500
0.005000 0.005000 0.500000 0.502500 0.578333
0.495000 0.495000 0.500000 0.747500 0.088333
0.005000 0.495000 0.500000 0.502500 0.088333
0.500000 0.005000 0.490000 0.255000 0.578333
0.500000 0.495000 -0.490000 0.745000 0.088333
0.500000 0.495000 0.490000 0.255000 0.088333
-0.500000 0.005000 -0.490000 0.745000 0.578333
-0.500000 0.495000 0.490000 0.255000 0.088333
-0.500000 0.495000 -0.490000 0.745000 0.088333
-0.005000 0.005000 -0.500000 0.497500 0.578333
-0.495000 0.495000 -0.500000 0.252500 0.088333
-0.005000 0.495000 -0.500000 0.497500 0.088333
-0.005000 -0.000000 0.490000 0.255000 0.497500
-0.495000 -0.000000 -0.490000 0.745000 0.252500
-0.005000 -0.000000 -0.490000 0.745000 0.497500
-0.495000 0.005000 0.500000 0.252500 0.578333
-0.005000 0.495000 0.500000 0.497500 0.088333
-0.495000 0.495000 0.500000 0.252500 0.088333
0.000000 0.005000 0.490000 0.255000 0.578333
0.000000 0.495000 -0.490000 0.745000 0.088333
0.000000 0.495000 0.490000 0.255000 0.088333
-0.490000 -0.000000 0.490000 0.255000 0.583333
-0.490000 -0.005000 0.500000 0.250000 0.588333
-0.500000 -0.495000 0.490000 0.255000 0.250000
-0.490000 -0.500000 0.490000 0.255000 0.255000
-0.490000 -0.495000 0.500000 0.250000 0.255000
0.490000 -0.000000 0.490000 0.255000 0.583333
0.490000 -0.005000 0.500000 0.250000 0.588333
0.500000 -0.495000 0.490000 0.255000 0.750000
0.490000 -0.495000 0.500000 0.250000 0.745000
-0.490000 -0.000000 -0.490000 0.745000 0.583333
-0.490000 -0.005000 -0.500000 0.750000 0.588333
-0.500000 -0.495000 -0.490000 0.745000 0.250000
-0.490000 -0.495000 -0.500000 0.750000 0.255000
0.490000 -0.000000 -0.490000 0.745000 0.583333
0.490000 -0.005000 -0.500000 0.750000 0.588333
0.490000 -0.495000 -0.500000 0.750000 0.745000
0.500000 -0.495000 -0.490000 0.745000 0.750000
0.005000 0.500000 0.490000 0.255000 0.083333
0.005000 0.495000 0.500000 0.250000 0.088333
0.000000 0.005000 0.490000 0.255000 0.578333
0.005000 -0.000000 0.490000 0.255000 0.583333
0.005000 0.005000 0.500000 0.250000 0.578333
0.495000 0.500000 0.490000 0.255000 0.083333
0.495000 0.495000 0.500000 0.250000 0.088333
0.495000 -0.000000 0.490000 0.255000 0.583333
0.495000 0.005000 0.500000 0.250000 0.578333
0.005000 0.500000 -0.490000 0.745000 0.083333
0.005000 0.495000 -0.500000 0.750000 0.088333
0.005000 -0.000000 -0.490000 0.745000 0.583333
0.005000 0.005000 -0.500000 0.750000 0.578333
0.495000 0.500000 -0.490000 0.745000 0.083333
0.495000 0.495000 -0.500000 0.750000 0.088333
0.495000 -0.000000 -0.490000 0.745000 0.583333
0.495000 0.005000 -0.500000 0.750000 0.578333
0.500000 0.005000 -0.490000 0.745000 0.578333
-0.495000 0.500000 0.490000 0.255000 0.083333
-0.495000 0.495000 0.500000 0.250000 0.088333
-0.500000 0.005000 0.490000 0.255000 0.578333
-0.495000 -0.000000 0.490000 0.255000 0.583333
-0.495000 0.005000 0.500000 0.250000 0.578333
-0.005000 0.500000 0.490000 0.255000 0.083333
-0.005000 0.495000 0.500000 0.250000 0.088333
-0.005000 -0.000000 0.490000 0.255000 0.583333
-0.005000 0.005000 0.500000 0.250000 0.578333
-0.495000 0.500000 -0.490000 0.745000 0.083333
-0.495000 0.495000 -0.500000 0.750000 0.088333
-0.495000 -0.000000 -0.490000 0.745000 0.583333
-0.495000 0.005000 -0.500000 0.750000 0.578333
-0.005000 0.500000 -0.490000 0.745000 0.083333
-0.005000 0.495000 -0.500000 0.750000 0.088333
-0.005000 -0.000000 -0.490000 0.745000 0.583333
-0.005000 0.005000 -0.500000 0.750000 0.578333
0.000000 0.005000 -0.490000 0.745000 0.578333
0.490000 -0.000000 0.490000 0.745000 0.583333
-0.500000 -0.495000 0.490000 0.255000 1.078333
0.490000 -0.495000 0.500000 0.250000 1.078333
0.500000 -0.495000 -0.490000 0.745000 1.078333
0.490000 -0.495000 -0.500000 0.750000 1.078333
-0.490000 -0.000000 -0.490000 0.255000 0.583333
-0.490000 -0.495000 -0.500000 0.750000 1.078333
0.495000 0.495000 0.500000 0.250000 0.747500
0.495000 -0.000000 0.490000 0.747500 0.583333
0.005000 -0.000000 0.490000 0.502500 0.583333
0.005000 0.495000 -0.500000 0.750000 0.502500
0.005000 0.500000 -0.490000 0.745000 0.502500
0.005000 -0.000000 -0.490000 0.502500 0.583333
0.495000 -0.000000 -0.490000 0.747500 0.583333
-0.005000 0.495000 0.500000 0.250000 0.497500
-0.005000 -0.000000 0.490000 0.497500 0.583333
-0.495000 -0.000000 0.490000 0.252500 0.583333
-0.495000 0.495000 -0.500000 0.750000 0.252500
-0.495000 0.500000 -0.490000 0.745000 0.252500
-0.495000 -0.000000 -0.490000 0.252500 0.583333
-0.005000 -0.000000 -0.490000 0.497500 0.583333
0.490000 -0.000000 -0.490000 0.745000 0.745000
-0.490000 -0.000000 0.490000 0.255000 0.255000
0.490000 -0.000000 0.490000 0.255000 0.745000
-0.490000 -0.495000 -0.500000 0.255000 1.078333
0.490000 -0.495000 0.500000 0.745000 1.078333
0.005000 0.005000 -0.500000 0.502500 0.578333
0.005000 -0.000000 0.490000 0.255000 0.502500
0.495000 0.005000 0.500000 0.747500 0.578333
-0.495000 0.005000 -0.500000 0.252500 0.578333
-0.495000 -0.000000 0.490000 0.255000 0.252500
-0.005000 0.005000 0.500000 0.497500 0.578333
-0.490000 -0.495000 0.500000 0.250000 1.078333
0.005000 0.495000 0.500000 0.250000 0.502500
0.495000 0.495000 -0.500000 0.750000 0.747500
-0.495000 0.495000 0.500000 0.250000 0.252500
-0.005000 0.495000 -0.500000 0.750000 0.497500
-0.490000 -0.000000 -0.490000 0.745000 0.255000
3 0 1 2
3 3 4 5
3 6 7 8
3 9 10 11
3 12 13 14
3 15 16 17
3 18 19 20
3 21 22 23
3 24 25 26
3 27 28 29
3 30 31 32
3 33 34 35
3 36 37 38
3 39 40 41
3 42 43 44
3 45 46 47
3 48 49 50
3 51 1 52
3 53 54 55
3 56 57 17
3 9 58 59
3 60 61 2
3 10 62 63
3 64 16 65
3 11 66 67
3 68 19 69
3 70 71 72
3 73 74 35
3 75 33 76
3 77 78 20
3 79 18 80
3 81 34 82
3 83 84 85
3 86 37 87
3 88 89 90
3 91 92 50
3 93 48 94
3 95 96 38
3 97 36 98
3 99 49 100
3 101 102 103
3 51 13 104
3 105 52 1
3 9 55 54
3 17 106 15
3 56 16 64
3 11 58 9
3 65 107 108
3 64 4 109
3 10 66 11
3 2 110 0
3 60 1 51
3 54 62 10
3 7 111 8
3 70 69 19
3 112 30 113
3 35 76 33
3 73 34 81
3 83 33 75
3 82 85 84
3 6 114 115
3 116 21 117
3 20 80 18
3 77 19 68
3 71 18 79
3 25 118 26
3 88 87 37
3 119 45 120
3 50 94 48
3 91 49 99
3 101 48 93
3 100 103 102
3 24 121 122
3 123 39 124
3 38 98 36
3 95 37 86
3 89 36 97
3 125 126 127
3 0 105 1
3 3 128 4
3 6 115 7
3 9 54 10
3 12 129 13
3 15 107 16
3 18 70 19
3 21 130 22
3 24 122 25
3 27 131 28
3 30 132 31
3 33 85 34
3 36 88 37
3 39 133 40
3 42 134 43
3 45 135 46
3 48 103 49
3 51 14 13
3 105 136 52
3 9 59 55
3 17 57 106
3 56 17 16
3 11 67 58
3 65 16 107
3 64 5 4
3 10 63 66
3 2 61 110
3 60 2 1
3 54 53 62
3 7 137 111
3 70 72 69
3 112 132 30
3 35 74 76
3 73 35 34
3 83 85 33
3 82 34 85
3 6 138 114
3 116 130 21
3 20 78 80
3 77 20 19
3 71 70 18
3 25 139 118
3 88 90 87
3 119 135 45
3 50 92 94
3 91 50 49
3 101 103 48
3 100 49 103
3 24 140 121
3 123 133 39
3 38 96 98
3 95 38 37
3 89 88 36
3 125 141 126
