ply
format ascii 1.0
comment Created by Blender 2.91.2 - www.blender.org
element vertex 144
property float x
property float y
property float z
property float s
property float t
element face 132
property list uchar uint vertex_indices
end_header
-0.990000 0.000000 -0.490000 0.745000 0.906667
-0.010000 0.000000 0.490000 0.255000 -0.073334
-0.990000 0.000000 0.490000 0.255000 0.906667
-0.000000 0.495000 -0.490000 0.745000 1.078333
0.000000 0.005000 0.490000 0.255000 0.588333
-0.000000 0.005000 -0.490000 0.745000 0.588333
-0.990000 0.495000 -0.500000 0.906667 1.078333
-0.010000 0.005000 -0.500000 -0.073334 0.588333
-0.990000 0.005000 -0.500000 0.906667 0.588333
-0.990000 0.500000 0.490000 0.255000 0.906667
-0.010000 0.500000 -0.490000 0.745000 -0.073334
-0.990000 0.500000 -0.490000 0.745000 0.906667
-0.010000 0.495000 0.500000 -0.073334 1.078333
-0.990000 0.005000 0.500000 0.906667 0.588333
-0.010000 0.005000 0.500000 -0.073334 0.588333
-1.000000 0.495000 0.490000 0.255000 1.078333
-1.000000 0.005000 -0.490000 0.745000 0.588333
-1.000000 0.005000 0.490000 0.255000 0.588333
0.000000 0.005000 0.490000 0.255000 -0.083333
-0.010000 0.005000 0.500000 0.250000 -0.073334
0.000000 0.495000 0.490000 0.255000 -0.083333
-0.010000 0.500000 0.490000 0.255000 -0.073334
-0.010000 0.495000 0.500000 0.250000 -0.073334
-0.990000 0.005000 0.500000 0.250000 0.906667
-1.000000 0.005000 0.490000 0.255000 0.916667
-1.000000 0.495000 0.490000 0.255000 0.916667
-0.990000 0.495000 0.500000 0.250000 0.906667
-0.010000 0.000000 -0.490000 0.745000 -0.073334
-0.010000 0.005000 -0.500000 0.750000 -0.073334
-0.000000 0.005000 -0.490000 0.745000 -0.083333
-0.000000 0.495000 -0.490000 0.745000 -0.083333
-0.010000 0.495000 -0.500000 0.750000 -0.073334
-1.000000 0.005000 -0.490000 0.745000 0.916667
-0.990000 0.005000 -0.500000 0.750000 0.906667
-0.990000 0.495000 -0.500000 0.750000 0.906667
-1.000000 0.495000 -0.490000 0.745000 0.916667
0.000000 0.495000 0.490000 -0.083333 1.078333
0.000000 0.005000 0.490000 -0.083333 0.588333
-1.000000 0.005000 0.490000 0.916667 0.588333
-0.990000 0.495000 0.500000 0.906667 1.078333
-1.000000 0.495000 0.490000 0.916667 1.078333
-1.000000 0.495000 -0.490000 0.916667 1.078333
-0.000000 0.005000 -0.490000 -0.083333 0.588333
-0.010000 0.495000 -0.500000 -0.073334 1.078333
-0.000000 0.495000 -0.490000 -0.083333 1.078333
0.000000 0.495000 0.490000 0.255000 1.078333
-1.000000 0.495000 -0.490000 0.745000 1.078333
-1.000000 0.005000 -0.490000 0.916667 0.588333
0.500000 0.495000 -0.490000 0.745000 0.578333
0.500000 0.005000 0.490000 0.255000 0.088333
0.500000 0.005000 -0.490000 0.745000 0.088333
0.005000 0.495000 -0.500000 0.411667 0.578333
0.495000 0.005000 -0.500000 -0.078333 0.088333
0.005000 0.005000 -0.500000 0.411667 0.088333
0.005000 0.500000 0.490000 0.255000 0.411667
0.495000 0.500000 -0.490000 0.745000 -0.078333
0.005000 0.500000 -0.490000 0.745000 0.411667
0.495000 0.495000 0.500000 -0.078333 0.578333
0.005000 0.005000 0.500000 0.411667 0.088333
0.495000 0.005000 0.500000 -0.078333 0.088333
0.000000 0.495000 0.490000 0.255000 0.578333
-0.000000 0.005000 -0.490000 0.745000 0.088333
0.000000 0.005000 0.490000 0.255000 0.088333
0.495000 0.000000 0.490000 0.255000 -0.078333
0.500000 0.005000 0.490000 0.255000 -0.083333
0.495000 0.005000 0.500000 0.250000 -0.078333
0.500000 0.495000 0.490000 0.255000 -0.083333
0.495000 0.500000 0.490000 0.255000 -0.078333
0.495000 0.495000 0.500000 0.250000 -0.078333
0.005000 0.000000 0.490000 0.255000 0.411667
0.005000 0.005000 0.500000 0.250000 0.411667
0.000000 0.005000 0.490000 0.255000 0.416667
0.000000 0.495000 0.490000 0.255000 0.416667
0.005000 0.495000 0.500000 0.250000 0.411667
0.495000 0.000000 -0.490000 0.745000 -0.078333
0.495000 0.005000 -0.500000 0.750000 -0.078333
0.500000 0.005000 -0.490000 0.745000 -0.083333
0.500000 0.495000 -0.490000 0.745000 -0.083333
0.495000 0.495000 -0.500000 0.750000 -0.078333
0.005000 0.000000 -0.490000 0.745000 0.411667
-0.000000 0.005000 -0.490000 0.745000 0.416667
0.005000 0.005000 -0.500000 0.750000 0.411667
0.005000 0.495000 -0.500000 0.750000 0.411667
-0.000000 0.495000 -0.490000 0.745000 0.416667
0.500000 0.495000 0.490000 0.255000 0.578333
0.495000 0.005000 0.500000 0.250000 0.088333
0.005000 0.495000 0.500000 0.250000 0.578333
0.005000 0.005000 -0.500000 0.750000 0.088333
-0.000000 0.495000 -0.490000 0.745000 0.578333
0.005000 0.495000 -0.500000 0.750000 0.578333
0.495000 0.495000 -0.500000 0.750000 0.578333
0.495000 0.495000 -0.500000 -0.078333 0.578333
0.005000 0.495000 0.500000 0.411667 0.578333
0.495000 0.495000 0.500000 0.250000 0.578333
0.005000 0.005000 0.500000 0.250000 0.088333
0.495000 0.005000 -0.500000 0.750000 0.088333
-0.490000 -0.500000 -0.490000 0.745000 0.906667
0.490000 -0.500000 0.490000 0.255000 -0.073334
-0.490000 -0.500000 0.490000 0.255000 0.906667
0.500000 -0.005000 -0.490000 0.745000 1.078333
0.500000 -0.495000 0.490000 0.255000 0.588333
0.500000 -0.495000 -0.490000 0.745000 0.588333
-0.490000 -0.005000 -0.500000 0.906667 1.078333
0.490000 -0.495000 -0.500000 -0.073334 0.588333
-0.490000 -0.495000 -0.500000 0.906667 0.588333
-0.490000 0.000000 0.490000 0.255000 0.906667
0.490000 0.000000 -0.490000 0.745000 -0.073334
-0.490000 0.000000 -0.490000 0.745000 0.906667
0.490000 -0.005000 0.500000 -0.073334 1.078333
-0.490000 -0.495000 0.500000 0.906667 0.588333
0.490000 -0.495000 0.500000 -0.073334 0.588333
-0.500000 -0.005000 0.490000 0.255000 1.078333
-0.500000 -0.495000 -0.490000 0.745000 0.588333
-0.500000 -0.495000 0.490000 0.255000 0.588333
0.500000 -0.495000 0.490000 0.255000 -0.083333
0.490000 -0.495000 0.500000 0.250000 -0.073334
0.500000 -0.005000 0.490000 0.255000 -0.083333
0.490000 0.000000 0.490000 0.255000 -0.073334
0.490000 -0.005000 0.500000 0.250000 -0.073334
-0.490000 -0.495000 0.500000 0.250000 0.906667
-0.500000 -0.495000 0.490000 0.255000 0.916667
-0.500000 -0.005000 0.490000 0.255000 0.916667
-0.490000 -0.005000 0.500000 0.250000 0.906667
0.490000 -0.500000 -0.490000 0.745000 -0.073334
0.490000 -0.495000 -0.500000 0.750000 -0.073334
0.500000 -0.495000 -0.490000 0.745000 -0.083333
0.500000 -0.005000 -0.490000 0.745000 -0.083333
0.490000 -0.005000 -0.500000 0.750000 -0.073334
-0.500000 -0.495000 -0.490000 0.745000 0.916667
-0.490000 -0.495000 -0.500000 0.750000 0.906667
-0.490000 -0.005000 -0.500000 0.750000 0.906667
-0.500000 -0.005000 -0.490000 0.745000 0.916667
0.500000 -0.005000 0.490000 -0.083333 1.078333
0.500000 -0.495000 0.490000 -0.083333 0.588333
-0.500000 -0.495000 0.490000 0.916667 0.588333
-0.490000 -0.005000 0.500000 0.906667 1.078333
-0.500000 -0.005000 0.490000 0.916667 1.078333
-0.500000 -0.005000 -0.490000 0.916667 1.078333
0.500000 -0.495000 -0.490000 -0.083333 0.588333
0.490000 -0.005000 -0.500000 -0.073334 1.078333
0.500000 -0.005000 -0.490000 -0.083333 1.078333
0.500000 -0.005000 0.490000 0.255000 1.078333
-0.500000 -0.005000 -0.490000 0.745000 1.078333
-0.500000 -0.495000 -0.490000 0.916667 0.588333
3 0 1 2
3 3 4 5
3 6 7 8
3 9 10 11
3 12 13 14
3 15 16 17
3 1 18 19
3 20 21 22
3 2 23 24
3 9 25 26
3 27 28 29
3 10 30 31
3 0 32 33
3 11 34 35
3 1 23 2
3 36 14 37
3 9 22 21
3 38 39 40
3 2 32 0
3 11 25 9
3 8 41 6
3 0 28 27
3 10 34 11
3 42 43 44
3 27 18 1
3 21 30 10
3 0 27 1
3 3 45 4
3 6 43 7
3 9 21 10
3 12 39 13
3 15 46 16
3 1 19 23
3 36 12 14
3 9 26 22
3 38 13 39
3 2 24 32
3 11 35 25
3 8 47 41
3 0 33 28
3 10 31 34
3 42 7 43
3 27 29 18
3 21 20 30
3 48 49 50
3 51 52 53
3 54 55 56
3 57 58 59
3 60 61 62
3 63 64 65
3 66 67 68
3 69 70 71
3 54 72 73
3 74 75 76
3 55 77 78
3 79 80 81
3 56 82 83
3 63 70 69
3 84 85 49
3 54 68 67
3 62 86 60
3 69 80 79
3 56 72 54
3 87 88 89
3 79 75 74
3 55 82 56
3 50 90 48
3 74 64 63
3 67 77 55
3 79 63 69
3 48 84 49
3 51 91 52
3 54 67 55
3 57 92 58
3 60 88 61
3 63 65 70
3 84 93 85
3 54 73 68
3 62 94 86
3 69 71 80
3 56 83 72
3 87 61 88
3 79 81 75
3 55 78 82
3 50 95 90
3 74 76 64
3 67 66 77
3 79 74 63
3 96 97 98
3 99 100 101
3 102 103 104
3 105 106 107
3 108 109 110
3 111 112 113
3 97 114 115
3 116 117 118
3 98 119 120
3 105 121 122
3 123 124 125
3 106 126 127
3 96 128 129
3 107 130 131
3 97 119 98
3 132 110 133
3 105 118 117
3 134 135 136
3 98 128 96
3 107 121 105
3 104 137 102
3 96 124 123
3 106 130 107
3 138 139 140
3 123 114 97
3 117 126 106
3 96 123 97
3 99 141 100
3 102 139 103
3 105 117 106
3 108 135 109
3 111 142 112
3 97 115 119
3 132 108 110
3 105 122 118
3 134 109 135
3 98 120 128
3 107 131 121
3 104 143 137
3 96 129 124
3 106 127 130
3 138 103 139
3 123 125 114
3 117 116 126
