ply
format ascii 1.0
comment Created by Blender 2.91.2 - www.blender.org
element vertex 96
property float x
property float y
property float z
property float s
property float t
element face 88
property list uchar uint vertex_indices
end_header
-0.000107 0.000000 0.490000 0.745000 0.789167
-0.490107 0.000000 -0.490000 0.255000 0.544167
-0.000107 0.000000 -0.490000 0.255000 0.789167
-0.495107 0.495000 0.490000 0.745000 0.911667
-0.495107 0.005000 -0.490000 0.255000 0.421667
-0.495107 0.005000 0.490000 0.745000 0.421667
-0.000107 0.495000 0.500000 0.789167 0.911667
-0.490107 0.005000 0.500000 0.544167 0.421667
-0.000107 0.005000 0.500000 0.789167 0.421667
-0.000107 0.500000 -0.490000 0.255000 0.789167
-0.490107 0.500000 0.490000 0.745000 0.544167
-0.000107 0.500000 0.490000 0.745000 0.789167
-0.490107 0.495000 -0.500000 0.544167 0.911667
-0.000107 0.005000 -0.500000 0.789167 0.421667
-0.490107 0.005000 -0.500000 0.544167 0.421667
0.004893 0.495000 -0.490000 0.255000 0.911667
0.004893 0.005000 0.490000 0.745000 0.421667
0.004893 0.005000 -0.490000 0.255000 0.421667
-0.490107 0.000000 -0.490000 0.255000 0.416667
-0.490107 0.005000 -0.500000 0.250000 0.421667
-0.495107 0.495000 -0.490000 0.255000 0.911667
-0.490107 0.500000 -0.490000 0.255000 0.916667
-0.490107 0.495000 -0.500000 0.250000 0.911667
-0.000107 0.000000 -0.490000 0.255000 0.416667
-0.000107 0.005000 -0.500000 0.250000 0.421667
-0.000107 0.500000 -0.490000 0.255000 0.916667
-0.000107 0.495000 -0.500000 0.250000 0.911667
-0.490107 0.000000 0.490000 0.745000 0.416667
-0.490107 0.005000 0.500000 0.750000 0.421667
-0.490107 0.500000 0.490000 0.745000 0.916667
-0.490107 0.495000 0.500000 0.750000 0.911667
-0.000107 0.000000 0.490000 0.745000 0.416667
-0.000107 0.005000 0.500000 0.750000 0.421667
-0.000107 0.500000 0.490000 0.745000 0.916667
-0.000107 0.495000 0.500000 0.750000 0.911667
0.004893 0.495000 0.490000 0.745000 0.911667
-0.000107 0.005000 -0.500000 0.250000 0.789167
-0.490107 0.495000 -0.500000 0.250000 0.544167
-0.490107 0.500000 -0.490000 0.255000 0.544167
-0.490107 0.005000 0.500000 0.750000 0.544167
-0.490107 0.000000 0.490000 0.745000 0.544167
-0.000107 0.495000 0.500000 0.750000 0.789167
-0.490107 0.495000 0.500000 0.544167 0.911667
-0.000107 0.495000 -0.500000 0.789167 0.911667
-0.490107 0.005000 -0.500000 0.250000 0.544167
-0.000107 0.495000 -0.500000 0.250000 0.789167
-0.000107 0.005000 0.500000 0.750000 0.789167
-0.490107 0.495000 0.500000 0.750000 0.544167
-0.495107 -0.005000 0.490000 0.745000 0.411667
-0.495107 -0.495000 -0.490000 0.255000 -0.078333
-0.495107 -0.495000 0.490000 0.745000 -0.078333
0.494893 -0.005000 0.500000 0.786667 0.411667
-0.485107 -0.495000 0.500000 0.296667 -0.078333
0.494893 -0.495000 0.500000 0.786667 -0.078333
0.494893 0.000000 -0.490000 0.255000 0.786667
-0.485107 0.000000 0.490000 0.745000 0.296667
0.494893 0.000000 0.490000 0.745000 0.786667
-0.485107 -0.005000 -0.500000 0.296667 0.411667
0.494893 -0.495000 -0.500000 0.786667 -0.078333
-0.485107 -0.495000 -0.500000 0.296667 -0.078333
0.504893 -0.005000 -0.490000 0.255000 0.411667
0.504893 -0.495000 0.490000 0.745000 -0.078333
0.504893 -0.495000 -0.490000 0.255000 -0.078333
-0.485107 -0.500000 -0.490000 0.255000 0.296667
-0.495107 -0.495000 -0.490000 0.255000 0.291667
-0.485107 -0.495000 -0.500000 0.250000 0.296667
-0.495107 -0.005000 -0.490000 0.255000 0.291667
-0.485107 0.000000 -0.490000 0.255000 0.296667
-0.485107 -0.005000 -0.500000 0.250000 0.296667
0.494893 -0.500000 -0.490000 0.255000 0.786667
0.494893 -0.495000 -0.500000 0.250000 0.786667
0.504893 -0.495000 -0.490000 0.255000 0.791667
0.504893 -0.005000 -0.490000 0.255000 0.791667
0.494893 -0.005000 -0.500000 0.250000 0.786667
-0.485107 -0.500000 0.490000 0.745000 0.296667
-0.485107 -0.495000 0.500000 0.750000 0.296667
-0.495107 -0.495000 0.490000 0.745000 0.291667
-0.495107 -0.005000 0.490000 0.745000 0.291667
-0.485107 -0.005000 0.500000 0.750000 0.296667
0.494893 -0.500000 0.490000 0.745000 0.786667
0.504893 -0.495000 0.490000 0.745000 0.791667
0.494893 -0.495000 0.500000 0.750000 0.786667
0.494893 -0.005000 0.500000 0.750000 0.786667
0.504893 -0.005000 0.490000 0.745000 0.791667
-0.495107 -0.005000 -0.490000 0.255000 0.411667
-0.485107 -0.495000 -0.500000 0.250000 -0.078333
0.494893 -0.005000 -0.500000 0.250000 0.411667
0.494893 -0.495000 0.500000 0.750000 -0.078333
0.504893 -0.005000 0.490000 0.745000 0.411667
0.494893 -0.005000 0.500000 0.750000 0.411667
-0.485107 -0.005000 0.500000 0.750000 0.411667
-0.485107 -0.005000 0.500000 0.296667 0.411667
0.494893 -0.005000 -0.500000 0.786667 0.411667
-0.485107 -0.005000 -0.500000 0.250000 0.411667
0.494893 -0.495000 -0.500000 0.250000 -0.078333
-0.485107 -0.495000 0.500000 0.750000 -0.078333
3 0 1 2
3 3 4 5
3 6 7 8
3 9 10 11
3 12 13 14
3 15 16 17
3 18 4 19
3 20 21 22
3 23 24 17
3 25 15 26
3 27 28 5
3 29 3 30
3 31 16 32
3 33 34 35
3 1 36 2
3 20 19 4
3 9 37 38
3 17 26 15
3 23 16 31
3 33 15 25
3 32 35 34
3 0 39 40
3 10 41 11
3 5 30 3
3 27 4 18
3 21 3 29
3 0 40 1
3 3 20 4
3 6 42 7
3 9 38 10
3 12 43 13
3 15 35 16
3 1 44 36
3 20 22 19
3 9 45 37
3 17 24 26
3 23 17 16
3 33 35 15
3 32 16 35
3 0 46 39
3 10 47 41
3 5 28 30
3 27 5 4
3 21 20 3
3 48 49 50
3 51 52 53
3 54 55 56
3 57 58 59
3 60 61 62
3 63 64 65
3 66 67 68
3 69 70 71
3 54 72 73
3 74 75 76
3 55 77 78
3 79 80 81
3 56 82 83
3 63 70 69
3 84 85 49
3 54 68 67
3 62 86 60
3 69 80 79
3 56 72 54
3 87 88 89
3 79 75 74
3 55 82 56
3 50 90 48
3 74 64 63
3 67 77 55
3 79 63 69
3 48 84 49
3 51 91 52
3 54 67 55
3 57 92 58
3 60 88 61
3 63 65 70
3 84 93 85
3 54 73 68
3 62 94 86
3 69 71 80
3 56 83 72
3 87 61 88
3 79 81 75
3 55 78 82
3 50 95 90
3 74 76 64
3 67 66 77
3 79 74 63
