ply
format ascii 1.0
comment Created by Blender 2.91.2 - www.blender.org
element vertex 96
property float x
property float y
property float z
property float s
property float t
element face 88
property list uchar uint vertex_indices
end_header
-0.500000 -0.005000 0.490000 0.745000 0.495000
-0.500000 -0.495000 -0.490000 0.255000 0.005000
-0.500000 -0.495000 0.490000 0.745000 0.005000
0.490000 -0.005000 0.500000 0.870000 0.495000
-0.490000 -0.495000 0.500000 0.380000 0.005000
0.490000 -0.495000 0.500000 0.870000 0.005000
-0.010000 0.000000 0.490000 0.745000 0.620000
-0.990000 0.000000 -0.490000 0.255000 0.130000
-0.010000 0.000000 -0.490000 0.255000 0.620000
0.490000 0.000000 -0.490000 0.255000 0.870000
-0.490000 0.000000 0.490000 0.745000 0.380000
0.490000 0.000000 0.490000 0.745000 0.870000
-0.490000 -0.005000 -0.500000 0.380000 0.495000
0.490000 -0.495000 -0.500000 0.870000 0.005000
-0.490000 -0.495000 -0.500000 0.380000 0.005000
0.500000 -0.005000 -0.490000 0.255000 0.495000
0.500000 -0.495000 0.490000 0.745000 0.005000
0.500000 -0.495000 -0.490000 0.255000 0.005000
-1.000000 0.495000 0.490000 0.745000 0.995000
-1.000000 0.005000 -0.490000 0.255000 0.505000
-1.000000 0.005000 0.490000 0.745000 0.505000
-0.010000 0.495000 0.500000 0.620000 0.995000
-0.990000 0.005000 0.500000 0.130000 0.505000
-0.010000 0.005000 0.500000 0.620000 0.505000
-0.010000 0.500000 -0.490000 0.255000 0.620000
-0.990000 0.500000 0.490000 0.745000 0.130000
-0.010000 0.500000 0.490000 0.745000 0.620000
-0.990000 0.495000 -0.500000 0.130000 0.995000
-0.010000 0.005000 -0.500000 0.620000 0.505000
-0.990000 0.005000 -0.500000 0.130000 0.505000
0.000000 0.495000 -0.490000 0.255000 0.995000
0.000000 0.005000 0.490000 0.745000 0.505000
0.000000 0.005000 -0.490000 0.255000 0.505000
-0.490000 -0.500000 -0.490000 0.255000 0.380000
-0.500000 -0.495000 -0.490000 0.255000 0.375000
-0.490000 -0.495000 -0.500000 0.250000 0.380000
-0.500000 -0.005000 -0.490000 0.255000 0.375000
-0.490000 0.000000 -0.490000 0.255000 0.380000
-0.490000 -0.005000 -0.500000 0.250000 0.380000
0.490000 -0.500000 -0.490000 0.255000 0.870000
0.490000 -0.495000 -0.500000 0.250000 0.870000
0.500000 -0.495000 -0.490000 0.255000 0.875000
0.500000 -0.005000 -0.490000 0.255000 0.875000
0.490000 -0.005000 -0.500000 0.250000 0.870000
-0.490000 -0.500000 0.490000 0.745000 0.380000
-0.490000 -0.495000 0.500000 0.750000 0.380000
-0.500000 -0.495000 0.490000 0.745000 0.375000
-0.500000 -0.005000 0.490000 0.745000 0.375000
-0.490000 -0.005000 0.500000 0.750000 0.380000
0.490000 -0.500000 0.490000 0.745000 0.870000
0.500000 -0.495000 0.490000 0.745000 0.875000
0.490000 -0.495000 0.500000 0.750000 0.870000
0.490000 -0.005000 0.500000 0.750000 0.870000
0.500000 -0.005000 0.490000 0.745000 0.875000
-1.000000 0.005000 -0.490000 0.255000 0.125000
-0.990000 0.005000 -0.500000 0.250000 0.130000
-1.000000 0.495000 -0.490000 0.255000 0.125000
-0.990000 0.500000 -0.490000 0.255000 0.130000
-0.990000 0.495000 -0.500000 0.250000 0.130000
-0.010000 0.005000 -0.500000 0.250000 0.620000
0.000000 0.005000 -0.490000 0.255000 0.625000
0.000000 0.495000 -0.490000 0.255000 0.625000
-0.010000 0.495000 -0.500000 0.250000 0.620000
-0.990000 0.000000 0.490000 0.745000 0.130000
-0.990000 0.005000 0.500000 0.750000 0.130000
-1.000000 0.005000 0.490000 0.745000 0.125000
-1.000000 0.495000 0.490000 0.745000 0.125000
-0.990000 0.495000 0.500000 0.750000 0.130000
0.000000 0.005000 0.490000 0.745000 0.625000
-0.010000 0.005000 0.500000 0.750000 0.620000
-0.010000 0.495000 0.500000 0.750000 0.620000
0.000000 0.495000 0.490000 0.745000 0.625000
-0.500000 -0.005000 -0.490000 0.255000 0.495000
-0.490000 -0.495000 -0.500000 0.250000 0.005000
0.490000 -0.005000 -0.500000 0.250000 0.495000
0.490000 -0.495000 0.500000 0.750000 0.005000
0.500000 -0.005000 0.490000 0.745000 0.495000
0.490000 -0.005000 0.500000 0.750000 0.495000
-0.490000 -0.005000 0.500000 0.750000 0.495000
-1.000000 0.495000 -0.490000 0.255000 0.995000
-0.990000 0.005000 -0.500000 0.250000 0.505000
0.000000 0.005000 -0.490000 0.625000 0.505000
-0.010000 0.495000 -0.500000 0.620000 0.995000
0.000000 0.495000 -0.490000 0.625000 0.995000
0.000000 0.495000 0.490000 0.625000 0.995000
-0.990000 0.495000 0.500000 0.750000 0.995000
-0.490000 -0.005000 0.500000 0.380000 0.495000
0.490000 -0.005000 -0.500000 0.870000 0.495000
-0.990000 0.495000 0.500000 0.130000 0.995000
0.000000 0.495000 0.490000 0.745000 0.995000
-0.490000 -0.005000 -0.500000 0.250000 0.495000
0.490000 -0.495000 -0.500000 0.250000 0.005000
-0.490000 -0.495000 0.500000 0.750000 0.005000
-0.990000 0.495000 -0.500000 0.250000 0.995000
0.000000 0.005000 0.490000 0.625000 0.505000
-0.990000 0.005000 0.500000 0.750000 0.505000
3 0 1 2
3 3 4 5
3 6 7 8
3 9 10 11
3 12 13 14
3 15 16 17
3 18 19 20
3 21 22 23
3 24 25 26
3 27 28 29
3 30 31 32
3 33 34 35
3 36 37 38
3 39 40 41
3 9 42 43
3 44 45 46
3 10 47 48
3 49 50 51
3 11 52 53
3 7 54 55
3 56 57 58
3 8 59 60
3 24 61 62
3 63 64 65
3 25 66 67
3 6 68 69
3 26 70 71
3 33 40 39
3 72 73 1
3 9 38 37
3 17 74 15
3 39 50 49
3 11 42 9
3 75 76 77
3 49 45 44
3 10 52 11
3 2 78 0
3 44 34 33
3 37 47 10
3 7 59 8
3 79 80 19
3 24 58 57
3 81 82 83
3 8 68 6
3 26 61 24
3 23 84 21
3 6 64 63
3 25 70 26
3 20 85 18
3 63 54 7
3 57 66 25
3 49 33 39
3 0 72 1
3 3 86 4
3 6 63 7
3 9 37 10
3 12 87 13
3 15 76 16
3 18 79 19
3 21 88 22
3 24 57 25
3 27 82 28
3 30 89 31
3 33 35 40
3 72 90 73
3 9 43 38
3 17 91 74
3 39 41 50
3 11 53 42
3 75 16 76
3 49 51 45
3 10 48 52
3 2 92 78
3 44 46 34
3 37 36 47
3 7 55 59
3 79 93 80
3 24 62 58
3 81 28 82
3 8 60 68
3 26 71 61
3 23 94 84
3 6 69 64
3 25 67 70
3 20 95 85
3 63 65 54
3 57 56 66
3 49 44 33
