ply
format ascii 1.0
comment Created by Blender 2.91.2 - www.blender.org
element vertex 44
property float x
property float y
property float z
property float s
property float t
element face 44
property list uchar uint vertex_indices
end_header
-0.500000 -0.012500 0.475000 0.975000 0.975000
-0.500000 -0.487500 -0.475000 0.025000 0.025000
-0.500000 -0.487500 0.475000 0.975000 0.025000
0.475000 -0.012500 0.500000 0.975000 0.975000
-0.475000 -0.487500 0.500000 0.025000 0.025000
0.475000 -0.487500 0.500000 0.975000 0.025000
0.475000 0.000000 -0.475000 0.025000 0.975000
-0.475000 0.000000 0.475000 0.975000 0.025000
0.475000 0.000000 0.475000 0.975000 0.975000
-0.475000 -0.012500 -0.500000 0.025000 0.975000
0.475000 -0.487500 -0.500000 0.975000 0.025000
-0.475000 -0.487500 -0.500000 0.025000 0.025000
0.500000 -0.012500 -0.475000 0.025000 0.975000
0.500000 -0.487500 0.475000 0.975000 0.025000
0.500000 -0.487500 -0.475000 0.025000 0.025000
-0.475000 -0.500000 -0.475000 0.025000 0.025000
-0.500000 -0.487500 -0.475000 0.025000 0.000000
-0.475000 -0.487500 -0.500000 0.000000 0.025000
-0.500000 -0.012500 -0.475000 0.025000 0.000000
-0.475000 0.000000 -0.475000 0.025000 0.025000
-0.475000 -0.012500 -0.500000 0.000000 0.025000
0.475000 -0.500000 -0.475000 0.025000 0.975000
0.475000 -0.487500 -0.500000 0.000000 0.975000
0.500000 -0.487500 -0.475000 0.025000 1.000000
0.500000 -0.012500 -0.475000 0.025000 1.000000
0.475000 -0.012500 -0.500000 0.000000 0.975000
-0.475000 -0.500000 0.475000 0.975000 0.025000
-0.475000 -0.487500 0.500000 1.000000 0.025000
-0.500000 -0.487500 0.475000 0.975000 0.000000
-0.500000 -0.012500 0.475000 0.975000 0.000000
-0.475000 -0.012500 0.500000 1.000000 0.025000
0.475000 -0.500000 0.475000 0.975000 0.975000
0.500000 -0.487500 0.475000 0.975000 1.000000
0.475000 -0.487500 0.500000 1.000000 0.975000
0.475000 -0.012500 0.500000 1.000000 0.975000
0.500000 -0.012500 0.475000 0.975000 1.000000
-0.500000 -0.012500 -0.475000 0.025000 0.975000
0.475000 -0.487500 0.500000 1.000000 0.025000
0.500000 -0.012500 0.475000 0.975000 0.975000
-0.475000 -0.012500 0.500000 1.000000 0.975000
-0.475000 -0.012500 0.500000 0.025000 0.975000
0.475000 -0.012500 -0.500000 0.975000 0.975000
-0.475000 -0.012500 -0.500000 0.000000 0.975000
0.475000 -0.487500 -0.500000 0.000000 0.025000
3 0 1 2
3 3 4 5
3 6 7 8
3 9 10 11
3 12 13 14
3 15 16 17
3 18 19 20
3 21 22 23
3 6 24 25
3 26 27 28
3 7 29 30
3 31 32 33
3 8 34 35
3 15 22 21
3 36 17 1
3 6 20 19
3 14 25 12
3 21 32 31
3 8 24 6
3 37 38 34
3 31 27 26
3 7 34 8
3 2 39 0
3 26 16 15
3 19 29 7
3 31 15 21
3 0 36 1
3 3 40 4
3 6 19 7
3 9 41 10
3 12 38 13
3 15 17 22
3 36 42 17
3 6 25 20
3 14 43 25
3 21 23 32
3 8 35 24
3 37 13 38
3 31 33 27
3 7 30 34
3 2 27 39
3 26 28 16
3 19 18 29
3 31 26 15
