ply
format ascii 1.0
comment Created by Blender 2.91.2 - www.blender.org
element vertex 144
property float x
property float y
property float z
property float s
property float t
element face 132
property list uchar uint vertex_indices
end_header
-0.500000 0.495000 0.490000 0.745000 1.078333
-0.500000 0.005000 -0.490000 0.255000 0.588333
-0.500000 0.005000 0.490000 0.745000 0.588333
0.490000 0.495000 0.500000 0.745000 1.078333
-0.490000 0.005000 0.500000 0.255000 0.588333
0.490000 0.005000 0.500000 0.745000 0.588333
0.495000 -0.500000 0.490000 0.745000 0.747500
0.005000 -0.500000 -0.490000 0.255000 0.502500
0.495000 -0.500000 -0.490000 0.255000 0.747500
0.490000 0.500000 -0.490000 0.255000 0.745000
-0.490000 0.500000 0.490000 0.745000 0.255000
0.490000 0.500000 0.490000 0.745000 0.745000
-0.490000 0.495000 -0.500000 0.255000 1.078333
0.490000 0.005000 -0.500000 0.745000 0.588333
-0.490000 0.005000 -0.500000 0.255000 0.588333
0.500000 0.495000 -0.490000 0.255000 1.078333
0.500000 0.005000 0.490000 0.745000 0.588333
0.500000 0.005000 -0.490000 0.255000 0.588333
0.000000 -0.005000 0.490000 0.745000 0.578333
0.000000 -0.495000 -0.490000 0.255000 0.088333
0.000000 -0.495000 0.490000 0.745000 0.088333
0.495000 -0.005000 0.500000 0.747500 0.578333
0.005000 -0.495000 0.500000 0.502500 0.088333
0.495000 -0.495000 0.500000 0.747500 0.088333
-0.005000 -0.500000 0.490000 0.745000 0.497500
-0.495000 -0.500000 -0.490000 0.255000 0.252500
-0.005000 -0.500000 -0.490000 0.255000 0.497500
0.495000 -0.000000 -0.490000 0.255000 0.747500
0.005000 -0.000000 0.490000 0.745000 0.502500
0.495000 -0.000000 0.490000 0.745000 0.747500
0.005000 -0.005000 -0.500000 0.502500 0.578333
0.495000 -0.495000 -0.500000 0.747500 0.088333
0.005000 -0.495000 -0.500000 0.502500 0.088333
0.500000 -0.005000 -0.490000 0.255000 0.578333
0.500000 -0.495000 0.490000 0.745000 0.088333
0.500000 -0.495000 -0.490000 0.255000 0.088333
-0.500000 -0.005000 0.490000 0.745000 0.578333
-0.500000 -0.495000 -0.490000 0.255000 0.088333
-0.500000 -0.495000 0.490000 0.745000 0.088333
-0.005000 -0.005000 0.500000 0.497500 0.578333
-0.495000 -0.495000 0.500000 0.252500 0.088333
-0.005000 -0.495000 0.500000 0.497500 0.088333
-0.005000 -0.000000 -0.490000 0.255000 0.497500
-0.495000 -0.000000 0.490000 0.745000 0.252500
-0.005000 -0.000000 0.490000 0.745000 0.497500
-0.495000 -0.005000 -0.500000 0.252500 0.578333
-0.005000 -0.495000 -0.500000 0.497500 0.088333
-0.495000 -0.495000 -0.500000 0.252500 0.088333
0.000000 -0.005000 -0.490000 0.255000 0.578333
0.000000 -0.495000 0.490000 0.745000 0.088333
0.000000 -0.495000 -0.490000 0.255000 0.088333
-0.490000 -0.000000 -0.490000 0.255000 0.255000
-0.500000 0.005000 -0.490000 0.255000 0.250000
-0.490000 0.005000 -0.500000 0.250000 0.255000
-0.500000 0.495000 -0.490000 0.255000 0.250000
-0.490000 0.500000 -0.490000 0.255000 0.255000
-0.490000 0.495000 -0.500000 0.250000 0.255000
0.490000 -0.000000 -0.490000 0.255000 0.745000
0.490000 0.005000 -0.500000 0.250000 0.745000
0.500000 0.005000 -0.490000 0.255000 0.750000
0.500000 0.495000 -0.490000 0.255000 0.750000
0.490000 0.495000 -0.500000 0.250000 0.745000
-0.490000 -0.000000 0.490000 0.745000 0.255000
-0.490000 0.005000 0.500000 0.750000 0.255000
-0.500000 0.005000 0.490000 0.745000 0.250000
-0.500000 0.495000 0.490000 0.745000 0.250000
-0.490000 0.495000 0.500000 0.750000 0.255000
0.490000 -0.000000 0.490000 0.745000 0.745000
0.500000 0.005000 0.490000 0.745000 0.750000
0.490000 0.005000 0.500000 0.750000 0.745000
0.490000 0.495000 0.500000 0.750000 0.745000
0.500000 0.495000 0.490000 0.745000 0.750000
0.005000 -0.500000 -0.490000 0.255000 0.083333
0.005000 -0.495000 -0.500000 0.250000 0.088333
0.000000 -0.005000 -0.490000 0.255000 0.578333
0.005000 -0.000000 -0.490000 0.255000 0.583333
0.005000 -0.005000 -0.500000 0.250000 0.578333
0.495000 -0.500000 -0.490000 0.255000 0.083333
0.495000 -0.495000 -0.500000 0.250000 0.088333
0.495000 -0.000000 -0.490000 0.255000 0.583333
0.495000 -0.005000 -0.500000 0.250000 0.578333
0.005000 -0.500000 0.490000 0.745000 0.083333
0.005000 -0.495000 0.500000 0.750000 0.088333
0.005000 -0.000000 0.490000 0.745000 0.583333
0.005000 -0.005000 0.500000 0.750000 0.578333
0.495000 -0.500000 0.490000 0.745000 0.083333
0.495000 -0.495000 0.500000 0.750000 0.088333
0.495000 -0.000000 0.490000 0.745000 0.583333
0.495000 -0.005000 0.500000 0.750000 0.578333
0.500000 -0.005000 0.490000 0.745000 0.578333
-0.495000 -0.500000 -0.490000 0.255000 0.083333
-0.495000 -0.495000 -0.500000 0.250000 0.088333
-0.500000 -0.005000 -0.490000 0.255000 0.578333
-0.495000 -0.000000 -0.490000 0.255000 0.583333
-0.495000 -0.005000 -0.500000 0.250000 0.578333
-0.005000 -0.500000 -0.490000 0.255000 0.083333
-0.005000 -0.495000 -0.500000 0.250000 0.088333
-0.005000 -0.000000 -0.490000 0.255000 0.583333
-0.005000 -0.005000 -0.500000 0.250000 0.578333
-0.495000 -0.500000 0.490000 0.745000 0.083333
-0.495000 -0.495000 0.500000 0.750000 0.088333
-0.495000 -0.000000 0.490000 0.745000 0.583333
-0.495000 -0.005000 0.500000 0.750000 0.578333
-0.005000 -0.500000 0.490000 0.745000 0.083333
-0.005000 -0.495000 0.500000 0.750000 0.088333
-0.005000 -0.000000 0.490000 0.745000 0.583333
-0.005000 -0.005000 0.500000 0.750000 0.578333
0.000000 -0.005000 0.490000 0.745000 0.578333
-0.500000 0.495000 -0.490000 0.255000 1.078333
-0.490000 0.005000 -0.500000 0.250000 0.588333
0.490000 0.495000 -0.500000 0.250000 1.078333
0.490000 0.005000 0.500000 0.750000 0.588333
0.500000 0.495000 0.490000 0.745000 1.078333
0.490000 0.495000 0.500000 0.750000 1.078333
-0.490000 0.495000 0.500000 0.750000 1.078333
0.495000 -0.495000 -0.500000 0.250000 0.747500
0.005000 -0.005000 -0.500000 0.250000 0.502500
0.005000 -0.000000 -0.490000 0.255000 0.502500
0.005000 -0.495000 0.500000 0.750000 0.502500
0.005000 -0.500000 0.490000 0.745000 0.502500
0.495000 -0.005000 0.500000 0.750000 0.747500
-0.005000 -0.495000 -0.500000 0.250000 0.497500
-0.495000 -0.005000 -0.500000 0.250000 0.252500
-0.495000 -0.000000 -0.490000 0.255000 0.252500
-0.495000 -0.495000 0.500000 0.750000 0.252500
-0.495000 -0.500000 0.490000 0.745000 0.252500
-0.005000 -0.005000 0.500000 0.750000 0.497500
-0.490000 0.495000 0.500000 0.255000 1.078333
0.490000 0.495000 -0.500000 0.745000 1.078333
0.005000 -0.005000 0.500000 0.502500 0.578333
0.495000 -0.005000 -0.500000 0.747500 0.578333
-0.495000 -0.005000 0.500000 0.252500 0.578333
-0.005000 -0.005000 -0.500000 0.497500 0.578333
-0.490000 0.495000 -0.500000 0.250000 1.078333
0.490000 0.005000 -0.500000 0.250000 0.588333
-0.490000 0.005000 0.500000 0.750000 0.588333
0.005000 -0.495000 -0.500000 0.250000 0.502500
0.495000 -0.005000 -0.500000 0.250000 0.747500
0.495000 -0.495000 0.500000 0.750000 0.747500
0.005000 -0.005000 0.500000 0.750000 0.502500
-0.495000 -0.495000 -0.500000 0.250000 0.252500
-0.005000 -0.005000 -0.500000 0.250000 0.497500
-0.005000 -0.495000 0.500000 0.750000 0.497500
-0.495000 -0.005000 0.500000 0.750000 0.252500
3 0 1 2
3 3 4 5
3 6 7 8
3 9 10 11
3 12 13 14
3 15 16 17
3 18 19 20
3 21 22 23
3 24 25 26
3 27 28 29
3 30 31 32
3 33 34 35
3 36 37 38
3 39 40 41
3 42 43 44
3 45 46 47
3 48 49 50
3 51 52 53
3 54 55 56
3 57 58 59
3 9 60 61
3 62 63 64
3 10 65 66
3 67 68 69
3 11 70 71
3 72 19 73
3 74 75 76
3 77 78 35
3 79 33 80
3 81 82 20
3 83 18 84
3 85 34 86
3 87 88 89
3 90 37 91
3 92 93 94
3 95 96 50
3 97 48 98
3 99 100 38
3 101 36 102
3 103 49 104
3 105 106 107
3 51 58 57
3 108 109 1
3 9 56 55
3 17 110 15
3 57 68 67
3 11 60 9
3 111 112 113
3 67 63 62
3 10 70 11
3 2 114 0
3 62 52 51
3 55 65 10
3 7 115 8
3 74 73 19
3 27 116 117
3 35 80 33
3 77 34 85
3 87 33 79
3 86 89 88
3 6 118 119
3 28 120 29
3 20 84 18
3 81 19 72
3 75 18 83
3 25 121 26
3 92 91 37
3 42 122 123
3 50 98 48
3 95 49 103
3 105 48 97
3 104 107 106
3 24 124 125
3 43 126 44
3 38 102 36
3 99 37 90
3 93 36 101
3 67 51 57
3 0 108 1
3 3 127 4
3 6 119 7
3 9 55 10
3 12 128 13
3 15 112 16
3 18 74 19
3 21 129 22
3 24 125 25
3 27 117 28
3 30 130 31
3 33 89 34
3 36 92 37
3 39 131 40
3 42 123 43
3 45 132 46
3 48 107 49
3 51 53 58
3 108 133 109
3 9 61 56
3 17 134 110
3 57 59 68
3 11 71 60
3 111 16 112
3 67 69 63
3 10 66 70
3 2 135 114
3 62 64 52
3 55 54 65
3 7 136 115
3 74 76 73
3 27 137 116
3 35 78 80
3 77 35 34
3 87 89 33
3 86 34 89
3 6 138 118
3 28 139 120
3 20 82 84
3 81 20 19
3 75 74 18
3 25 140 121
3 92 94 91
3 42 141 122
3 50 96 98
3 95 50 49
3 105 107 48
3 104 49 107
3 24 142 124
3 43 143 126
3 38 100 102
3 99 38 37
3 93 92 36
3 67 62 51
