ply
format ascii 1.0
comment Created by Blender 2.91.2 - www.blender.org
element vertex 76
property float x
property float y
property float z
property float s
property float t
element face 56
property list uchar uint vertex_indices
end_header
0.500000 1.530000 -0.910000 0.250000 0.675643
0.500000 -0.470000 -0.710000 0.750000 0.175643
0.500000 -0.470000 -0.910000 0.250000 0.175643
-0.500000 1.530000 -0.710000 0.750000 0.675643
-0.500000 -0.470000 -0.910000 0.250000 0.175643
-0.500000 -0.470000 -0.710000 0.750000 0.175643
0.500000 1.530000 -0.910000 0.250000 0.749702
-0.500000 1.530000 -0.710000 0.750000 0.249702
0.500000 1.530000 -0.710000 0.750000 0.749702
-0.400000 0.970000 -0.910000 0.250000 0.535643
-0.346410 1.170000 -0.710000 0.750000 0.585643
-0.400000 0.970000 -0.710000 0.750000 0.535643
-0.346410 1.170000 -0.910000 0.250000 0.326497
-0.200000 1.316410 -0.710000 0.750000 0.399702
-0.346410 1.170000 -0.710000 0.750000 0.326497
-0.200000 1.316410 -0.910000 0.250000 0.399702
-0.000000 1.370000 -0.710000 0.750000 0.499702
-0.000000 1.370000 -0.910000 0.250000 0.499702
0.200000 1.316410 -0.710000 0.750000 0.599702
0.346410 1.170000 -0.710000 0.750000 0.672907
0.200000 1.316410 -0.910000 0.250000 0.599702
0.346410 1.170000 -0.910000 0.250000 0.672907
0.400000 0.970000 -0.910000 0.250000 0.535643
0.346410 1.170000 -0.710000 0.750000 0.585643
0.346410 1.170000 -0.910000 0.250000 0.585643
-0.000000 1.370000 -0.910000 0.499702 0.635643
-0.200000 1.316410 -0.910000 0.399702 0.622245
-0.500000 1.530000 -0.910000 0.249702 0.675643
0.500000 1.530000 -0.710000 0.749702 0.675643
-0.500000 1.530000 -0.710000 0.249702 0.675643
-0.000000 1.370000 -0.710000 0.499702 0.635643
0.400000 -0.470000 -0.910000 0.250000 0.175643
0.400000 0.969999 -0.710000 0.750000 0.535642
0.400000 0.969999 -0.910000 0.250000 0.535642
-0.400000 -0.470000 -0.910000 0.250000 0.175643
-0.400000 0.969999 -0.710000 0.750000 0.535642
-0.400000 -0.470000 -0.710000 0.750000 0.175643
0.500000 -0.470000 -0.910000 0.250000 0.749702
0.400000 -0.470000 -0.710000 0.750000 0.699702
0.400000 -0.470000 -0.910000 0.250000 0.699702
-0.500000 -0.470000 -0.910000 0.250000 0.249702
-0.400000 -0.470000 -0.710000 0.750000 0.299702
-0.500000 -0.470000 -0.710000 0.750000 0.249702
0.400000 0.970000 -0.710000 0.750000 0.535643
-0.400000 0.969999 -0.910000 0.250000 0.535642
0.400000 -0.470000 -0.910000 0.699702 0.175643
0.400000 0.969999 -0.910000 0.699702 0.535642
0.400000 0.970000 -0.910000 0.699702 0.535643
-0.400000 0.970000 -0.910000 0.299702 0.535643
-0.400000 0.969999 -0.910000 0.299702 0.535642
-0.400000 -0.470000 -0.910000 0.299702 0.175643
-0.500000 -0.470000 -0.710000 0.249702 0.175643
-0.400000 -0.470000 -0.710000 0.299702 0.175643
-0.400000 0.970000 -0.710000 0.299702 0.535643
0.500000 -0.470000 -0.710000 0.749702 0.175643
0.400000 0.970000 -0.710000 0.699702 0.535643
0.500000 1.530000 -0.710000 0.750000 0.675643
-0.500000 1.530000 -0.910000 0.250000 0.675643
-0.500000 1.530000 -0.910000 0.250000 0.249702
-0.346410 1.170000 -0.910000 0.250000 0.585643
0.500000 1.530000 -0.910000 0.749702 0.675643
0.346410 1.170000 -0.910000 0.672907 0.585643
0.200000 1.316410 -0.910000 0.599702 0.622245
-0.346410 1.170000 -0.910000 0.326497 0.585643
0.200000 1.316410 -0.710000 0.599702 0.622245
0.346410 1.170000 -0.710000 0.672907 0.585643
-0.346410 1.170000 -0.710000 0.326497 0.585643
-0.200000 1.316410 -0.710000 0.399702 0.622245
0.400000 -0.470000 -0.710000 0.750000 0.175643
0.500000 -0.470000 -0.710000 0.750000 0.749702
-0.400000 -0.470000 -0.910000 0.250000 0.299702
0.500000 -0.470000 -0.910000 0.749702 0.175643
-0.500000 -0.470000 -0.910000 0.249702 0.175643
-0.400000 0.969999 -0.710000 0.299702 0.535642
0.400000 0.969999 -0.710000 0.699702 0.535642
0.400000 -0.470000 -0.710000 0.699702 0.175643
3 0 1 2
3 3 4 5
3 6 7 8
3 9 10 11
3 12 13 14
3 15 16 13
3 17 18 16
3 19 20 21
3 22 23 24
3 25 26 27
3 28 29 30
3 31 32 33
3 34 35 36
3 37 38 39
3 40 41 42
3 43 33 32
3 9 35 44
3 45 46 47
3 48 49 50
3 51 52 53
3 54 28 55
3 0 56 1
3 3 57 4
3 6 58 7
3 9 59 10
3 12 15 13
3 15 17 16
3 17 20 18
3 19 18 20
3 22 43 23
3 60 61 62
3 60 62 25
3 26 63 27
3 60 25 27
3 64 65 28
3 29 66 67
3 30 64 28
3 29 67 30
3 31 68 32
3 34 44 35
3 37 69 38
3 40 70 41
3 43 22 33
3 9 11 35
3 47 61 60
3 60 71 47
3 71 45 47
3 50 72 48
3 72 27 48
3 27 63 48
3 52 73 53
3 53 66 29
3 29 51 53
3 74 75 54
3 28 65 55
3 55 74 54
