ply
format ascii 1.0
comment Created by Blender 2.91.2 - www.blender.org
element vertex 158
property float x
property float y
property float z
property float s
property float t
element face 120
property list uchar uint vertex_indices
end_header
-0.400000 0.980000 -0.907131 -0.500000 0.681619
-0.346410 1.180000 -0.707131 1.500000 0.881618
-0.400000 0.980000 -0.707131 1.500000 0.681619
-0.346410 1.180000 -0.907131 -0.500000 -0.192820
-0.200000 1.326410 -0.707131 1.500000 0.100000
-0.346410 1.180000 -0.707131 1.500000 -0.192820
-0.200000 1.326410 -0.907131 -0.500000 0.100000
-0.000000 1.380000 -0.707131 1.500000 0.500000
-0.000000 1.380000 -0.907131 -0.500000 0.500000
0.200000 1.326410 -0.707131 1.500000 0.900000
0.346410 1.180000 -0.707131 1.500000 1.192820
0.200000 1.326410 -0.907131 -0.500000 0.900000
0.346410 1.180000 -0.907131 -0.500000 1.192820
0.400000 0.980000 -0.907131 -0.500000 0.681619
0.346410 1.180000 -0.707131 1.500000 0.881619
0.346410 1.180000 -0.907131 -0.500000 0.881619
0.400000 0.980000 -0.707131 1.500000 0.681619
0.400000 0.980000 -0.907131 -0.500000 0.681618
0.400000 0.980000 -0.707131 1.500000 0.681618
-0.400000 0.979999 -0.707131 1.500000 0.681618
-0.400000 0.979999 -0.907131 -0.500000 0.681618
0.500000 -0.420000 -0.707131 0.758333 0.500000
0.400000 -0.420000 -0.907131 0.841667 0.525000
0.500000 -0.420000 -0.907131 0.841667 0.500000
-0.400000 -0.420000 -0.707131 0.758333 0.725000
-0.500000 -0.420000 -0.907131 0.841667 0.750000
-0.400000 -0.420000 -0.907131 0.841667 0.725000
0.475000 1.520000 -0.907131 0.805000 0.500000
-0.475000 1.520000 -0.707131 0.755000 0.750000
0.475000 1.520000 -0.707131 0.755000 0.500000
-0.475000 -0.420000 -0.907131 0.841667 0.743750
-0.500000 -0.420000 -0.707131 0.758333 0.750000
-0.475000 -0.420000 -0.707131 0.758333 0.743750
0.500000 -0.420000 -0.907131 0.841667 0.500000
0.475000 -0.420000 -0.707131 0.758333 0.506250
0.500000 -0.420000 -0.707131 0.758333 0.500000
0.475000 1.481402 -0.707131 0.620175 0.370000
0.475000 -0.420000 -0.707131 0.382500 0.370000
0.475000 -0.420000 -0.907131 0.382500 0.320000
-0.475000 1.481402 -0.907131 0.620175 0.930000
-0.475000 -0.420000 -0.907131 0.382500 0.930000
-0.475000 -0.420000 -0.707131 0.382500 0.880000
0.500000 -0.420000 -0.907131 -0.500000 -0.718381
0.500000 -0.420000 -0.707131 1.500000 -0.718381
0.500000 -0.420000 -0.707131 1.500000 -0.718381
-0.500000 -0.420000 -0.907131 -0.500000 -0.718381
-0.500000 -0.420000 -0.707131 1.500000 -0.718381
-0.500000 -0.420000 -0.907131 -0.500000 -0.718381
-0.000000 1.380000 -0.907131 0.500000 1.081619
-0.200000 1.326410 -0.907131 0.100000 1.028029
-0.475000 1.520000 -0.907131 -0.450000 1.221619
0.475000 1.520000 -0.707131 1.450000 1.221619
-0.000000 1.380000 -0.707131 0.500000 1.081619
0.200000 1.326410 -0.707131 0.900000 1.028029
0.400000 -0.420000 -0.907131 -0.500000 -0.718381
0.400000 -0.420000 -0.707131 1.500000 -0.718381
-0.400000 -0.420000 -0.707131 1.500000 -0.718381
-0.400000 -0.420000 -0.907131 -0.500000 -0.718381
0.400000 0.980000 -0.907131 1.300000 0.681618
0.475000 1.481402 -0.907131 1.450000 1.183021
0.475000 -0.420000 -0.907131 1.450000 -0.718381
-0.475000 -0.420000 -0.907131 -0.450000 -0.718381
-0.475000 1.481402 -0.907131 -0.450000 1.183021
-0.400000 0.980000 -0.907131 -0.300000 0.681619
-0.400000 0.980000 -0.707131 -0.300000 0.681618
-0.475000 1.481402 -0.707131 -0.450000 1.183021
-0.475000 -0.420000 -0.707131 -0.450000 -0.718381
0.475000 -0.420000 -0.707131 1.450000 -0.718381
0.475000 1.481402 -0.707131 1.450000 1.183021
0.400000 0.980000 -0.707131 1.300000 0.681618
-0.500000 -0.420000 -0.987131 0.625000 0.000000
0.500000 -0.500000 -0.987131 0.375000 0.250000
-0.500000 -0.500000 -0.987131 0.375000 0.000000
0.500000 -0.420000 -0.987131 0.625000 0.250000
0.500000 -0.500000 -0.387131 0.375000 0.500000
0.500000 -0.420000 -0.387131 0.625000 0.500000
-0.500000 -0.500000 -0.387131 0.375000 0.750000
-0.500000 -0.420000 -0.387131 0.625000 0.750000
-0.500000 -0.500000 -0.987131 0.375000 1.000000
-0.500000 -0.500000 -0.987131 0.125000 0.750000
0.500000 -0.500000 -0.987131 0.125000 0.500000
0.500000 -0.420000 -0.987131 0.875000 0.500000
0.500000 1.540000 -0.986131 0.875000 0.500000
-0.500000 1.540000 -0.436131 0.625000 0.750000
0.500000 1.540000 -0.436131 0.625000 0.500000
0.475000 1.520000 -0.436131 0.687250 0.500000
-0.475000 1.520000 -0.986131 0.824750 0.750000
0.475000 1.520000 -0.986131 0.824750 0.500000
-0.475000 -0.420000 -0.436131 0.645417 0.743750
-0.500000 -0.420000 -0.986131 0.874583 0.750000
-0.475000 -0.420000 -0.986131 0.874583 0.743750
0.500000 -0.420000 -0.436131 0.645417 0.500000
0.475000 -0.420000 -0.986131 0.874583 0.506250
0.500000 -0.420000 -0.986131 0.874583 0.500000
0.500000 -0.420000 -0.986131 0.380000 0.250000
0.500000 1.540000 -0.986131 0.625000 0.250000
-0.500000 -0.420000 -0.986131 0.380000 1.000000
-0.500000 -0.420000 -0.436131 0.380000 0.750000
0.475000 1.520000 -0.436131 0.625000 0.437750
0.475000 -0.420000 -0.986131 0.382500 0.300250
0.475000 -0.420000 -0.436131 0.382500 0.437750
-0.475000 1.520000 -0.986131 0.625000 0.949750
-0.475000 -0.420000 -0.436131 0.382500 0.812250
-0.475000 -0.420000 -0.986131 0.382500 0.949750
-0.475000 1.520000 -0.986131 0.622500 0.006250
-0.500000 1.540000 -0.986131 0.625000 0.000000
0.475000 1.520000 -0.436131 0.622500 0.506250
-0.346410 1.180000 -0.907131 -0.500000 0.881618
0.400000 -0.420000 -0.707131 0.758333 0.525000
-0.500000 -0.420000 -0.707131 0.758333 0.750000
-0.475000 1.520000 -0.907131 0.805000 0.750000
-0.500000 -0.420000 -0.907131 0.841667 0.750000
0.475000 -0.420000 -0.907131 0.841667 0.506250
0.475000 1.481402 -0.907131 0.620175 0.320000
0.475000 1.520000 -0.907131 0.625000 0.320000
0.475000 1.520000 -0.707131 0.625000 0.370000
-0.475000 1.481402 -0.707131 0.620175 0.880000
-0.475000 1.520000 -0.707131 0.625000 0.880000
-0.475000 1.520000 -0.907131 0.625000 0.930000
0.500000 -0.420000 -0.907131 -0.500000 -0.718381
-0.500000 -0.420000 -0.707131 1.500000 -0.718381
0.475000 1.520000 -0.907131 1.450000 1.221619
0.200000 1.326410 -0.907131 0.900000 1.028029
0.346410 1.180000 -0.907131 1.192820 0.881619
-0.346410 1.180000 -0.907131 -0.192820 0.881618
0.346410 1.180000 -0.707131 1.192820 0.881619
-0.475000 1.520000 -0.707131 -0.450000 1.221619
-0.200000 1.326410 -0.707131 0.100000 1.028029
-0.346410 1.180000 -0.707131 -0.192820 0.881618
0.500000 -0.420000 -0.907131 1.500000 -0.718381
0.500000 -0.420000 -0.907131 1.500000 -0.718381
0.400000 -0.420000 -0.907131 1.300000 -0.718381
0.400000 0.980000 -0.907131 1.300000 0.681618
-0.400000 0.979999 -0.907131 -0.300000 0.681619
-0.400000 -0.420000 -0.907131 -0.300000 -0.718381
-0.500000 -0.420000 -0.707131 -0.500000 -0.718381
-0.500000 -0.420000 -0.707131 -0.500000 -0.718381
-0.400000 -0.420000 -0.707131 -0.300000 -0.718381
-0.400000 0.979999 -0.707131 -0.300000 0.681618
0.400000 0.980000 -0.707131 1.300000 0.681618
0.400000 -0.420000 -0.707131 1.300000 -0.718381
-0.500000 -0.420000 -0.987131 0.625000 1.000000
-0.500000 -0.420000 -0.987131 0.875000 0.750000
-0.500000 1.540000 -0.986131 0.875000 0.750000
-0.475000 1.520000 -0.436131 0.687250 0.750000
-0.500000 -0.420000 -0.436131 0.645417 0.750000
0.475000 -0.420000 -0.436131 0.645417 0.506250
0.500000 -0.420000 -0.436131 0.380000 0.500000
-0.500000 1.540000 -0.986131 0.625000 1.000000
0.475000 1.520000 -0.986131 0.625000 0.300250
-0.475000 1.520000 -0.436131 0.625000 0.812250
-0.475000 -0.420000 -0.986131 0.380000 0.006250
-0.500000 -0.420000 -0.986131 0.380000 0.000000
0.475000 1.520000 -0.986131 0.622500 0.243750
0.475000 -0.420000 -0.986131 0.380000 0.243750
0.475000 -0.420000 -0.436131 0.380000 0.506250
-0.475000 1.520000 -0.436131 0.622500 0.743750
-0.475000 -0.420000 -0.436131 0.380000 0.743750
3 0 1 2
3 3 4 5
3 6 7 4
3 8 9 7
3 10 11 12
3 13 14 15
3 16 17 18
3 0 19 20
3 21 22 23
3 24 25 26
3 27 28 29
3 30 31 32
3 33 34 35
3 36 37 38
3 39 40 41
3 42 43 44
3 45 46 47
3 48 49 50
3 51 52 53
3 18 54 55
3 20 56 57
3 58 59 60
3 61 62 63
3 64 65 66
3 67 68 69
3 70 71 72
3 73 74 71
3 75 76 74
3 77 78 76
3 74 79 80
3 81 77 75
3 82 83 84
3 85 86 87
3 88 89 90
3 91 92 93
3 84 94 95
3 83 96 97
3 98 99 100
3 101 102 103
3 104 105 95
3 84 83 106
3 0 107 1
3 3 6 4
3 6 8 7
3 8 11 9
3 10 9 11
3 13 16 14
3 16 13 17
3 0 2 19
3 21 108 22
3 24 109 25
3 27 110 28
3 30 111 31
3 33 112 34
3 38 113 36
3 113 114 36
3 114 115 36
3 41 116 39
3 116 117 39
3 117 118 39
3 42 119 43
3 45 120 46
3 62 50 49
3 50 121 48
3 121 59 122
3 59 123 122
3 49 124 62
3 121 122 48
3 125 68 53
3 68 51 53
3 51 126 52
3 126 65 127
3 52 126 127
3 65 128 127
3 18 17 54
3 20 19 56
3 129 130 60
3 130 131 60
3 131 132 60
3 132 58 60
3 58 123 59
3 62 124 63
3 63 133 61
3 133 134 61
3 134 45 61
3 45 47 61
3 66 135 136
3 137 138 66
3 138 64 66
3 64 128 65
3 66 136 137
3 68 125 69
3 69 139 67
3 139 140 67
3 140 44 67
3 44 43 67
3 70 73 71
3 73 75 74
3 75 77 76
3 77 141 78
3 74 76 79
3 81 142 77
3 82 143 83
3 85 144 86
3 88 145 89
3 91 146 92
3 84 147 94
3 83 148 96
3 98 149 99
3 101 150 102
3 104 151 152
3 95 94 153
3 94 154 153
3 104 152 105
3 95 153 104
3 155 147 106
3 147 84 106
3 83 97 156
3 97 157 156
3 83 156 106
