ply
format ascii 1.0
comment Created by Blender 2.79 (sub 0) - www.blender.org, source file: 'new furniture.blend'
element vertex 120
property float x
property float y
property float z
property float s
property float t
property uchar red
property uchar green
property uchar blue
element face 60
property list uchar uint vertex_indices
end_header
-0.479629 0.021431 -0.352444 0.155834 0.570771 255 0 0
0.364815 -0.145014 -0.352444 0.630833 0.488271 255 0 0
-0.479630 -0.145014 -0.352444 0.155833 0.488271 255 0 0
-0.479630 0.021431 0.351781 0.570771 0.689089 255 0 0
-0.479630 -0.145014 -0.352444 0.488271 0.189090 255 0 0
-0.479630 -0.145014 0.351782 0.488271 0.689090 255 0 0
0.364815 -0.145014 0.351782 0.630833 0.488271 255 0 0
-0.479630 0.021431 0.351781 0.155833 0.570771 255 0 0
-0.479630 -0.145014 0.351782 0.155833 0.488271 255 0 0
-0.479630 -0.145014 -0.352444 0.155833 0.189090 255 0 0
0.364815 -0.145014 0.351782 0.630833 0.689090 255 0 0
-0.479630 -0.145014 0.351782 0.155833 0.689090 255 0 0
0.364815 0.021431 0.351782 0.630833 0.689090 255 0 0
-0.479629 0.021431 -0.352444 0.155834 0.189090 255 0 0
-0.479630 0.021431 0.351781 0.155833 0.689089 255 0 0
0.364815 0.021431 -0.352444 0.570771 0.189090 255 0 0
0.364815 -0.145014 0.351782 0.488271 0.689090 255 0 0
0.364815 -0.145014 -0.352444 0.488271 0.189090 255 0 0
0.280370 0.500062 -0.493289 0.808008 0.089090 0 255 0
0.280370 -0.499938 0.492627 0.312350 0.789090 0 255 0
0.280370 0.500062 0.492627 0.808008 0.789090 0 255 0
0.391482 0.256632 0.324787 0.645833 0.687350 0 255 0
-0.497407 -0.499938 0.324787 0.145833 0.312350 0 255 0
-0.497407 0.256632 0.324787 0.145833 0.687350 0 255 0
0.502593 0.500062 0.492627 0.808008 0.789090 0 255 0
0.502593 -0.499938 -0.493289 0.312350 0.089090 0 255 0
0.502593 0.500062 -0.493289 0.808008 0.089090 0 255 0
0.391482 0.256632 0.500843 0.687350 0.794923 1 255 1
0.391482 -0.499938 0.324787 0.312350 0.669923 0 255 0
0.391482 0.256632 0.324787 0.687350 0.669923 0 255 0
-0.497407 0.256632 0.324787 0.687350 0.669923 0 255 0
-0.497407 -0.499938 0.500843 0.312350 0.794923 0 255 0
-0.497407 0.256632 0.500843 0.687350 0.794923 0 255 0
0.391481 0.256632 -0.323101 0.687350 0.209924 0 255 0
0.391481 -0.499938 -0.499157 0.312350 0.084923 0 255 0
0.391481 0.256632 -0.499157 0.687350 0.084923 0 255 0
0.280370 -0.499938 -0.493289 0.583333 0.089090 0 255 0
0.502593 -0.499938 0.492627 0.708333 0.789090 0 255 0
0.280370 -0.499938 0.492627 0.583333 0.789090 0 255 0
0.391482 0.256632 0.324787 0.645833 0.669923 0 255 0
-0.497407 0.256632 0.500843 0.145833 0.794923 0 255 0
0.391482 0.256632 0.500843 0.645833 0.794923 0 255 0
0.391482 0.004442 0.351782 0.645833 0.689090 0 255 0
-0.452962 0.004442 -0.352444 0.170834 0.189090 0 255 0
-0.452963 0.004442 0.351782 0.170833 0.689090 0 255 0
-0.497407 -0.499938 -0.499157 0.145833 0.084923 0 255 0
0.391481 -0.499938 -0.323101 0.645833 0.209924 0 255 0
-0.497407 -0.499938 -0.323101 0.145833 0.209924 0 255 0
0.502593 0.500062 -0.493289 0.708333 0.808008 0 255 0
0.280370 -0.499938 -0.493289 0.583333 0.312350 0 255 0
0.280370 0.500062 -0.493289 0.583333 0.808008 0 255 0
0.391481 0.256632 -0.499157 0.645833 0.084923 0 255 0
-0.497407 0.256632 -0.323101 0.145833 0.209924 0 255 0
0.391481 0.256632 -0.323101 0.645833 0.209924 0 255 0
0.502593 0.500062 -0.493289 0.708333 0.089090 0 255 0
0.280370 0.500062 0.492627 0.583333 0.789090 0 255 0
0.502593 0.500062 0.492627 0.708333 0.789090 0 255 0
0.391482 -0.474719 0.351782 0.645833 0.324850 255 255 255
-0.452963 0.004442 0.351782 0.170833 0.562350 255 255 255
-0.452963 -0.474719 0.351782 0.170833 0.324850 255 255 255
-0.497407 0.256632 -0.499157 0.687350 0.084923 0 255 0
-0.497407 -0.499938 -0.323101 0.312350 0.209924 0 255 0
-0.497407 0.256632 -0.323101 0.687350 0.209924 0 255 0
0.391482 0.004442 0.351782 0.562350 0.689090 255 255 255
0.391481 -0.474719 -0.352444 0.324850 0.189090 255 255 255
0.391481 0.004442 -0.352444 0.562350 0.189090 255 255 255
-0.497407 -0.499938 0.324787 0.145833 0.669923 0 255 0
0.391482 -0.499938 0.500843 0.645833 0.794923 0 255 0
-0.497407 -0.499938 0.500843 0.145833 0.794923 0 255 0
-0.452962 0.004442 -0.352444 0.170834 0.562350 255 255 255
0.391481 -0.474719 -0.352444 0.645833 0.324850 255 255 255
-0.452963 -0.474719 -0.352444 0.170833 0.324850 255 255 255
-0.497407 0.256632 0.500843 0.145833 0.687350 0 255 0
0.391482 -0.499938 0.500843 0.645833 0.312350 0 255 0
0.391482 0.256632 0.500843 0.645833 0.687350 0 255 0
-0.452963 -0.474719 -0.352444 0.170833 0.189090 0 255 0
0.391482 -0.474719 0.351782 0.645833 0.689090 0 255 0
-0.452963 -0.474719 0.351782 0.170833 0.689090 0 255 0
-0.452962 0.004442 -0.352444 0.562350 0.189090 0 255 0
-0.452963 -0.474719 0.351782 0.324850 0.689090 0 255 0
-0.452963 0.004442 0.351782 0.562350 0.689090 0 255 0
0.280370 0.500062 0.492627 0.583333 0.808008 0 255 0
0.502593 -0.499938 0.492627 0.708333 0.312350 0 255 0
0.502593 0.500062 0.492627 0.708333 0.808008 0 255 0
0.391481 0.256632 -0.499157 0.645833 0.687350 0 255 0
-0.497407 -0.499938 -0.499157 0.145833 0.312350 0 255 0
-0.497407 0.256632 -0.499157 0.145833 0.687350 0 255 0
-0.497407 0.256632 -0.323101 0.145833 0.687350 0 255 0
0.391481 -0.499938 -0.323101 0.645833 0.312350 0 255 0
0.391481 0.256632 -0.323101 0.645833 0.687350 0 255 0
0.364815 0.021431 -0.352444 0.630833 0.570771 255 0 0
-0.479629 0.021431 -0.352444 0.570771 0.189090 255 0 0
0.364815 0.021431 0.351782 0.630833 0.570771 255 0 0
0.364815 -0.145014 -0.352444 0.630833 0.189090 255 0 0
0.364815 0.021431 -0.352444 0.630833 0.189090 255 0 0
0.364815 0.021431 0.351782 0.570771 0.689090 255 0 0
0.280370 -0.499938 -0.493289 0.312350 0.089090 0 255 0
0.391482 -0.499938 0.324787 0.645833 0.312350 0 255 0
0.502593 -0.499938 0.492627 0.312350 0.789090 0 255 0
0.391482 -0.499938 0.500843 0.312350 0.794923 0 255 0
-0.497407 -0.499938 0.324787 0.312350 0.669923 0 255 0
0.391481 -0.499938 -0.323101 0.312350 0.209924 0 255 0
0.502593 -0.499938 -0.493289 0.708333 0.089090 0 255 0
-0.497407 0.256632 0.324787 0.145833 0.669923 0 255 0
0.391481 0.004442 -0.352444 0.645833 0.189090 0 255 0
0.391481 -0.499938 -0.499157 0.645833 0.084923 0 255 0
0.502593 -0.499938 -0.493289 0.708333 0.312350 0 255 0
-0.497407 0.256632 -0.499157 0.145833 0.084923 0 255 0
0.280370 0.500062 -0.493289 0.583333 0.089090 0 255 0
0.391482 0.004442 0.351782 0.645833 0.562350 255 255 255
-0.497407 -0.499938 -0.499157 0.312350 0.084923 0 255 0
0.391482 -0.474719 0.351782 0.324850 0.689090 255 255 255
0.391482 -0.499938 0.324787 0.645833 0.669923 0 255 0
0.391481 0.004442 -0.352444 0.645833 0.562350 255 255 255
-0.497407 -0.499938 0.500843 0.145833 0.312350 0 255 0
0.391481 -0.474719 -0.352444 0.645833 0.189090 0 255 0
-0.452963 -0.474719 -0.352444 0.324850 0.189090 0 255 0
0.280370 -0.499938 0.492627 0.583333 0.312350 0 255 0
0.391481 -0.499938 -0.499157 0.645833 0.312350 0 255 0
-0.497407 -0.499938 -0.323101 0.145833 0.312350 0 255 0
3 0 1 2
3 3 4 5
3 6 7 8
3 9 10 11
3 12 13 14
3 15 16 17
3 18 19 20
3 21 22 23
3 24 25 26
3 27 28 29
3 30 31 32
3 33 34 35
3 36 37 38
3 39 40 41
3 42 43 44
3 45 46 47
3 48 49 50
3 51 52 53
3 54 55 56
3 57 58 59
3 60 61 62
3 63 64 65
3 66 67 68
3 69 70 71
3 72 73 74
3 75 76 77
3 78 79 80
3 81 82 83
3 84 85 86
3 87 88 89
3 0 90 1
3 3 91 4
3 6 92 7
3 9 93 10
3 12 94 13
3 15 95 16
3 18 96 19
3 21 97 22
3 24 98 25
3 27 99 28
3 30 100 31
3 33 101 34
3 36 102 37
3 39 103 40
3 42 104 43
3 45 105 46
3 48 106 49
3 51 107 52
3 54 108 55
3 57 109 58
3 60 110 61
3 63 111 64
3 66 112 67
3 69 113 70
3 72 114 73
3 75 115 76
3 78 116 79
3 81 117 82
3 84 118 85
3 87 119 88
