ply
format ascii 1.0
comment Created by Blender 2.79 (sub 0) - www.blender.org, source file: 'new furniture.blend'
element vertex 120
property float x
property float y
property float z
property float s
property float t
property uchar red
property uchar green
property uchar blue
element face 60
property list uchar uint vertex_indices
end_header
0.385079 0.010297 -0.826682 0.642232 -0.060818 0 255 0
-0.459365 0.010297 0.826209 0.167232 0.939181 0 255 0
0.385080 0.010297 0.826210 0.642232 0.939182 0 255 0
0.496191 0.505247 -0.991972 0.704732 0.810165 0 255 0
0.273968 -0.494753 -0.991972 0.579732 0.315165 0 255 0
0.273968 0.505247 -0.991972 0.579732 0.810165 0 255 0
-0.503809 0.262822 0.794530 0.690165 -0.079985 0 255 0
-0.503809 -0.494753 1.001141 0.315165 0.045015 0 255 0
-0.503809 0.262822 1.001141 0.690165 0.045015 0 255 0
0.385079 0.262822 -0.998859 0.642232 0.835015 0 255 0
-0.503809 0.262822 -0.792247 0.142232 0.960015 0 255 0
0.385079 0.262822 -0.792247 0.642232 0.960015 0 255 0
-0.503809 -0.494753 -0.998859 0.142232 0.835015 0 255 0
0.385079 -0.494753 -0.792247 0.642232 0.960015 0 255 0
-0.503809 -0.494753 -0.792247 0.142232 0.960015 0 255 0
0.385080 0.262822 0.794530 0.642232 -0.079985 0 255 0
-0.503809 0.262822 1.001141 0.142232 0.045015 0 255 0
0.385080 0.262822 1.001141 0.642232 0.045015 0 255 0
0.273968 0.505247 -0.991972 0.810165 -1.160818 0 255 0
0.273969 -0.494753 0.991499 0.315165 0.039182 0 255 0
0.273969 0.505247 0.991499 0.810165 0.039182 0 255 0
0.273969 0.505247 0.991499 0.579732 0.810165 0 255 0
0.496191 -0.494753 0.991499 0.704732 0.315165 0 255 0
0.496191 0.505247 0.991499 0.704732 0.810165 0 255 0
-0.503809 0.262822 -0.792247 0.142232 0.690165 0 255 0
0.385079 -0.494753 -0.792247 0.642232 0.315165 0 255 0
0.385079 0.262822 -0.792247 0.642232 0.690165 0 255 0
0.385079 -0.469501 -0.826682 0.642232 0.939182 0 255 0
-0.459365 -0.469501 0.826209 0.167232 1.939181 0 255 0
-0.459365 -0.469501 -0.826683 0.167232 0.939182 0 255 0
0.385079 0.262822 -0.792247 0.690165 0.960015 0 255 0
0.385079 -0.494753 -0.998859 0.315165 0.835015 0 255 0
0.385079 0.262822 -0.998859 0.690165 0.835015 0 255 0
0.496191 0.505247 0.991499 0.810165 2.039182 0 255 0
0.496191 -0.494753 -0.991972 0.315165 0.839182 0 255 0
0.496191 0.505247 -0.991972 0.810165 0.839182 0 255 0
-0.459365 0.010297 -0.826683 0.565165 -0.060818 0 255 0
-0.459365 -0.469501 0.826209 0.327665 0.939181 0 255 0
-0.459365 0.010297 0.826209 0.565165 0.939181 0 255 0
0.385079 0.262822 -0.998859 0.642232 0.690165 0 255 0
-0.503809 -0.494753 -0.998859 0.142232 0.315165 0 255 0
-0.503809 0.262822 -0.998859 0.142232 0.690165 0 255 0
-0.503809 0.262822 1.001141 0.142232 0.690165 0 255 0
0.385080 -0.494753 1.001141 0.642232 0.315165 0 255 0
0.385080 0.262822 1.001141 0.642232 0.690165 0 255 0
0.273968 -0.494753 -0.991972 0.579732 -1.160818 0 255 0
0.496191 -0.494753 0.991499 0.704732 0.039182 0 255 0
0.273969 -0.494753 0.991499 0.579732 0.039182 0 255 0
-0.503809 -0.494753 0.794530 0.142232 -0.079985 0 255 0
0.385080 -0.494753 1.001141 0.642232 0.045015 0 255 0
-0.503809 -0.494753 1.001141 0.142232 0.045015 0 255 0
-0.503809 0.262822 -0.998859 0.690165 0.835015 0 255 0
-0.503809 -0.494753 -0.792247 0.315165 0.960015 0 255 0
-0.503809 0.262822 -0.792247 0.690165 0.960015 0 255 0
0.496191 0.505247 -0.991972 0.704732 -1.160818 0 255 0
0.273969 0.505247 0.991499 0.579732 0.039182 0 255 0
0.496191 0.505247 0.991499 0.704732 0.039182 0 255 0
0.385079 0.010297 -0.826682 0.642232 0.565165 255 255 255
-0.459365 -0.469501 -0.826683 0.167232 0.327665 255 255 255
-0.459365 0.010297 -0.826683 0.167232 0.565165 255 255 255
0.385079 0.010297 -0.826682 0.565165 0.939182 255 255 255
0.385080 -0.469501 0.826210 0.327665 1.939182 255 255 255
0.385079 -0.469501 -0.826682 0.327665 0.939182 255 255 255
0.385080 0.262822 0.794530 0.642232 0.690165 0 255 0
-0.503809 -0.494753 0.794530 0.142232 0.315165 0 255 0
-0.503809 0.262822 0.794530 0.142232 0.690165 0 255 0
0.385080 -0.469501 0.826210 0.642232 0.327665 255 255 255
-0.459365 0.010297 0.826209 0.167232 0.565165 255 255 255
-0.459365 -0.469501 0.826209 0.167232 0.327665 255 255 255
0.385080 0.262822 1.001141 0.690165 1.045015 0 255 0
0.385080 -0.494753 0.794530 0.315165 0.920015 0 255 0
0.385080 0.262822 0.794530 0.690165 0.920015 0 255 0
0.358413 -0.139357 -0.826682 0.627232 0.939182 255 0 0
-0.486031 -0.139357 0.826209 0.152232 1.939181 255 0 0
-0.486032 -0.139357 -0.826683 0.152232 0.939182 255 0 0
-0.486032 0.027309 -0.826683 0.573586 -0.060818 255 0 0
-0.486031 -0.139357 0.826209 0.491086 0.939181 255 0 0
-0.486031 0.027309 0.826209 0.573586 0.939181 255 0 0
0.358413 0.027309 -0.826682 0.627232 -0.060818 255 0 0
-0.486031 0.027309 0.826209 0.152232 0.939181 255 0 0
0.358413 0.027309 0.826210 0.627232 0.939182 255 0 0
0.358413 0.027309 -0.826682 0.627232 0.573586 255 0 0
-0.486032 -0.139357 -0.826683 0.152232 0.491086 255 0 0
-0.486032 0.027309 -0.826683 0.152232 0.573586 255 0 0
0.358413 -0.139357 0.826210 0.627232 0.491086 255 0 0
-0.486031 0.027309 0.826209 0.152232 0.573586 255 0 0
-0.486031 -0.139357 0.826209 0.152232 0.491086 255 0 0
0.358413 0.027309 -0.826682 0.573586 0.939182 255 0 0
0.358413 -0.139357 0.826210 0.491086 1.939182 255 0 0
0.358413 -0.139357 -0.826682 0.491086 0.939182 255 0 0
-0.459365 0.010297 -0.826683 0.167232 -0.060818 0 255 0
0.496191 -0.494753 -0.991972 0.704732 0.315165 0 255 0
-0.503809 -0.494753 0.794530 0.315165 -0.079985 0 255 0
-0.503809 0.262822 -0.998859 0.142232 0.835015 0 255 0
0.385079 -0.494753 -0.998859 0.642232 0.835015 0 255 0
-0.503809 0.262822 0.794530 0.142232 -0.079985 0 255 0
0.273968 -0.494753 -0.991972 0.315165 -1.160818 0 255 0
0.273969 -0.494753 0.991499 0.579732 0.315165 0 255 0
-0.503809 -0.494753 -0.792247 0.142232 0.315165 0 255 0
0.385080 -0.469501 0.826210 0.642232 1.939182 0 255 0
0.385079 -0.494753 -0.792247 0.315165 0.960015 0 254 0
0.496191 -0.494753 0.991499 0.315165 2.039182 0 255 0
-0.459365 -0.469501 -0.826683 0.327665 -0.060818 0 255 0
0.385079 -0.494753 -0.998859 0.642232 0.315165 0 255 0
-0.503809 -0.494753 1.001141 0.142232 0.315165 0 255 0
0.496191 -0.494753 -0.991972 0.704732 -1.160818 0 255 0
0.385080 -0.494753 0.794530 0.642232 -0.079985 0 255 0
-0.503809 -0.494753 -0.998859 0.315165 0.835015 0 255 0
0.273968 0.505247 -0.991972 0.579732 -1.160818 0 255 0
0.385079 -0.469501 -0.826682 0.642232 0.327665 255 255 255
0.385080 0.010297 0.826210 0.565165 1.939182 255 255 255
0.385080 -0.494753 0.794530 0.642232 0.315165 0 255 0
0.385080 0.010297 0.826210 0.642232 0.565165 255 255 255
0.385080 -0.494753 1.001141 0.315165 1.045015 0 255 0
0.358413 -0.139357 0.826210 0.627232 1.939182 255 0 0
-0.486032 -0.139357 -0.826683 0.491086 -0.060818 255 0 0
-0.486032 0.027309 -0.826683 0.152232 -0.060818 255 0 0
0.358413 -0.139357 -0.826682 0.627232 0.491086 255 0 0
0.358413 0.027309 0.826210 0.627232 0.573586 255 0 0
0.358413 0.027309 0.826210 0.573586 1.939182 255 0 0
3 0 1 2
3 3 4 5
3 6 7 8
3 9 10 11
3 12 13 14
3 15 16 17
3 18 19 20
3 21 22 23
3 24 25 26
3 27 28 29
3 30 31 32
3 33 34 35
3 36 37 38
3 39 40 41
3 42 43 44
3 45 46 47
3 48 49 50
3 51 52 53
3 54 55 56
3 57 58 59
3 60 61 62
3 63 64 65
3 66 67 68
3 69 70 71
3 72 73 74
3 75 76 77
3 78 79 80
3 81 82 83
3 84 85 86
3 87 88 89
3 0 90 1
3 3 91 4
3 6 92 7
3 9 93 10
3 12 94 13
3 15 95 16
3 18 96 19
3 21 97 22
3 24 98 25
3 27 99 28
3 30 100 31
3 33 101 34
3 36 102 37
3 39 103 40
3 42 104 43
3 45 105 46
3 48 106 49
3 51 107 52
3 54 108 55
3 57 109 58
3 60 110 61
3 63 111 64
3 66 112 67
3 69 113 70
3 72 114 73
3 75 115 76
3 78 116 79
3 81 117 82
3 84 118 85
3 87 119 88
