ply
format ascii 1.0
comment Created by Blender 2.79 (sub 0) - www.blender.org, source file: 'new furniture.blend'
element vertex 385
property float x
property float y
property float z
property float s
property float t
property uchar red
property uchar green
property uchar blue
element face 328
property list uchar uint vertex_indices
end_header
0.231815 0.180000 -0.250000 0.847656 0.488281 255 0 0
0.254920 0.851500 -0.250000 0.886719 0.972656 255 0 0
0.290518 0.851500 -0.250000 0.949219 0.972656 255 0 0
0.237783 0.180000 -0.243750 0.847656 0.488281 255 0 0
0.296491 0.851566 0.243750 0.113281 0.972656 255 0 0
0.237783 0.180000 0.243750 0.113281 0.488281 255 0 0
0.195474 0.171500 -0.250000 0.792969 0.484375 255 0 0
0.231815 0.103500 -0.250000 0.847656 0.437500 255 0 0
0.190226 0.103500 -0.250000 0.789062 0.437500 255 0 0
0.190226 0.180000 -0.243750 0.789062 0.847656 255 0 0
-0.231838 0.180000 0.243750 0.113281 0.375000 255 0 0
0.190226 0.180000 0.243750 0.789062 0.375000 255 0 0
-0.231838 0.171500 0.250000 0.113281 0.484375 255 0 0
0.190226 0.103500 0.250000 0.789062 0.437500 255 0 0
0.195474 0.171500 0.250000 0.792969 0.484375 255 0 0
-0.231838 0.095000 -0.243750 0.113281 0.847656 255 0 0
0.190226 0.095000 0.243750 0.789062 0.375000 255 0 0
-0.231838 0.095000 0.243750 0.113281 0.375000 255 0 0
0.291284 0.860000 0.243750 0.949219 0.375000 255 0 0
0.255617 0.860000 -0.243750 0.886719 0.847656 255 0 0
0.255617 0.860000 0.243750 0.886719 0.375000 255 0 0
0.231838 0.095000 0.243750 0.847656 0.375000 255 0 0
0.190226 0.095000 -0.243750 0.789062 0.847656 255 0 0
0.231838 0.095000 -0.243750 0.847656 0.847656 255 0 0
-0.231838 0.171500 -0.250000 0.113281 0.484375 255 0 0
-0.231838 0.103500 -0.250000 0.113281 0.437500 255 0 0
0.190226 0.180000 0.243750 0.113281 0.488281 255 0 0
0.248935 0.851566 -0.243750 0.847656 0.972656 255 0 0
0.190226 0.180000 -0.243750 0.847656 0.488281 255 0 0
0.231815 0.103500 0.250000 0.847656 0.437500 255 0 0
0.231815 0.180000 0.250000 0.847656 0.488281 255 0 0
0.254920 0.851500 0.250000 0.886719 0.972656 255 0 0
-0.237783 0.171500 -0.243750 0.847656 0.484375 255 0 0
-0.237783 0.103500 0.243750 0.113281 0.437500 255 0 0
-0.237783 0.171500 0.243750 0.113281 0.484375 255 0 0
0.231838 0.095000 0.243750 0.847656 0.429688 255 0 0
0.237783 0.103500 0.243750 0.859375 0.437500 255 0 0
-0.237783 0.171500 -0.243750 0.101562 0.847656 255 0 0
-0.231838 0.180000 -0.243750 0.113281 0.847656 255 0 0
-0.231838 0.171500 -0.250000 0.113281 0.851562 255 0 0
-0.237783 0.103500 -0.243750 0.101562 0.847656 255 0 0
-0.231838 0.103500 -0.250000 0.113281 0.851562 255 0 0
-0.237783 0.171500 0.243750 0.101562 0.375000 255 0 0
-0.231838 0.171500 0.250000 0.113281 0.367188 255 0 0
-0.237783 0.103500 0.243750 0.101562 0.375000 255 0 0
-0.231838 0.103500 0.250000 0.113281 0.367188 255 0 0
0.237783 0.103500 -0.243750 0.859375 0.437500 255 0 0
0.231838 0.095000 -0.243750 0.847656 0.429688 255 0 0
0.248935 0.851566 0.243750 0.882812 0.375000 255 0 0
0.254920 0.851500 0.250000 0.886719 0.367188 255 0 0
0.291284 0.860000 -0.243750 0.949219 0.976562 255 0 0
0.296491 0.851566 -0.243750 0.953125 0.972656 255 0 0
0.254920 0.851500 -0.250000 0.886719 0.851562 255 0 0
0.248935 0.851566 -0.243750 0.882812 0.847656 255 0 0
0.296491 0.851566 0.243750 0.953125 0.972656 255 0 0
0.291284 0.860000 0.243750 0.949219 0.976562 255 0 0
0.290518 0.851500 0.250000 0.949219 0.972656 255 0 0
0.231815 0.103500 0.250000 0.847656 0.367188 255 0 0
0.190226 0.103500 0.250000 0.789062 0.367188 255 0 0
0.237783 0.180000 0.243750 0.859375 0.488281 255 0 0
0.237783 0.180000 -0.243750 0.859375 0.488281 255 0 0
-0.237783 0.103500 0.243750 0.101562 0.437500 255 0 0
-0.231838 0.103500 0.250000 0.113281 0.437500 255 0 0
-0.237783 0.171500 -0.243750 0.101562 0.484375 255 0 0
0.231815 0.103500 -0.250000 0.847656 0.851562 255 0 0
0.190226 0.103500 -0.250000 0.789062 0.851562 255 0 0
0.195474 0.171500 0.250000 0.792969 0.367188 255 0 0
0.237783 0.103500 0.243750 0.859375 0.375000 255 0 0
0.190226 0.180000 -0.243750 0.789062 0.488281 255 0 0
0.291284 0.860000 0.243750 0.113281 0.976562 255 0 0
0.296491 0.851566 -0.243750 0.847656 0.972656 255 0 0
0.291284 0.860000 -0.243750 0.847656 0.976562 255 0 0
0.290518 0.851500 0.250000 0.949219 0.367188 255 0 0
0.290518 0.851500 -0.250000 0.949219 0.851562 255 0 0
0.190226 0.180000 0.243750 0.789062 0.488281 255 0 0
0.248935 0.851566 0.243750 0.882812 0.972656 255 0 0
0.237783 0.103500 -0.243750 0.847656 0.437500 255 0 0
-0.289796 -0.415000 0.180237 0.207031 0.058594 0 255 0
-0.300000 -0.500000 0.240315 0.113281 0.000000 0 255 0
-0.289796 -0.415000 0.240315 0.113281 0.058594 0 255 0
-0.289796 -0.415000 -0.180236 0.011719 0.058594 0 255 0
-0.242857 -0.500000 -0.180236 0.093750 0.000000 0 255 0
-0.232653 -0.415000 -0.180236 0.113281 0.058594 0 255 0
0.289796 -0.415000 -0.180236 0.949219 0.058594 0 255 0
0.242858 -0.500000 -0.180236 0.867188 0.000000 0 255 0
0.300000 -0.500000 -0.180236 0.960938 0.000000 0 255 0
-0.289796 -0.415000 -0.240315 0.011719 0.058594 0 255 0
-0.242857 -0.500000 -0.240315 0.093750 0.000000 0 255 0
-0.300000 -0.500000 -0.240315 0.000000 0.000000 0 255 0
-0.171428 0.095000 -0.180236 0.207031 0.789062 0 255 0
-0.228571 0.095000 -0.240315 0.113281 0.843750 0 255 0
-0.228571 0.095000 -0.180236 0.113281 0.789062 0 255 0
0.300000 -0.500000 -0.240315 0.960938 0.843750 0 255 0
0.242858 -0.500000 -0.180236 0.867188 0.789062 0 255 0
0.242858 -0.500000 -0.240315 0.867188 0.843750 0 255 0
0.300000 -0.500000 0.180236 0.960938 0.437500 0 255 0
0.242858 -0.500000 0.240315 0.867188 0.375000 0 255 0
0.242858 -0.500000 0.180236 0.867188 0.437500 0 255 0
-0.242857 -0.500000 -0.240315 0.093750 0.843750 0 255 0
-0.300000 -0.500000 -0.180236 0.000000 0.789062 0 255 0
-0.300000 -0.500000 -0.240315 0.000000 0.843750 0 255 0
-0.242857 -0.500000 0.180236 0.093750 0.437500 0 255 0
-0.300000 -0.500000 0.240315 0.000000 0.375000 0 255 0
-0.300000 -0.500000 0.180237 0.000000 0.437500 0 255 0
-0.289796 -0.415000 -0.180236 0.753906 0.058594 0 255 0
-0.300000 -0.500000 -0.240315 0.847656 0.000000 0 255 0
-0.300000 -0.500000 -0.180236 0.753906 0.000000 0 255 0
0.289796 -0.415000 0.180236 0.949219 0.058594 0 255 0
0.242858 -0.500000 0.180236 0.867188 0.000000 0 255 0
0.232653 -0.415000 0.180236 0.847656 0.058594 0 255 0
-0.289796 -0.415000 0.180237 0.011719 0.058594 255 0 0
-0.242857 -0.500000 0.180236 0.093750 0.000000 255 0 0
-0.300000 -0.500000 0.180237 0.000000 0.000000 255 0 0
0.289796 -0.415000 0.240315 0.949219 0.058594 0 255 0
0.242858 -0.500000 0.240315 0.867188 0.000000 0 255 0
0.300000 -0.500000 0.240315 0.960938 0.000000 0 255 0
-0.232653 -0.415000 0.180236 0.207031 0.058594 0 255 0
-0.242857 -0.500000 0.240315 0.113281 0.000000 0 255 0
-0.242857 -0.500000 0.180236 0.207031 0.000000 0 255 0
-0.289796 -0.415000 0.240315 0.011719 0.058594 0 255 0
-0.242857 -0.500000 0.240315 0.093750 0.000000 0 255 0
-0.232653 -0.415000 0.240315 0.113281 0.058594 0 255 0
-0.232653 -0.415000 -0.240315 0.847656 0.058594 0 255 0
-0.242857 -0.500000 -0.180236 0.753906 0.000000 0 255 0
-0.242857 -0.500000 -0.240315 0.847656 0.000000 0 255 0
0.232653 -0.415000 0.240315 0.113281 0.058594 0 255 0
0.242858 -0.500000 0.180236 0.207031 0.000000 0 255 0
0.242858 -0.500000 0.240315 0.113281 0.000000 0 255 0
0.232653 -0.415000 -0.240315 0.847656 0.058594 0 255 0
0.242858 -0.500000 -0.180236 0.753906 0.000000 0 255 0
0.232653 -0.415000 -0.180236 0.753906 0.058594 0 255 0
0.289796 -0.415000 0.180236 0.207031 0.058594 0 255 0
0.300000 -0.500000 0.240315 0.113281 0.000000 0 255 0
0.300000 -0.500000 0.180236 0.207031 0.000000 0 255 0
0.289796 -0.415000 -0.180236 0.753906 0.058594 0 255 0
0.300000 -0.500000 -0.240315 0.847656 0.000000 0 255 0
0.289796 -0.415000 -0.240315 0.847656 0.058594 0 255 0
0.289796 -0.415000 -0.240315 0.949219 0.058594 0 255 0
0.242858 -0.500000 -0.240315 0.867188 0.000000 0 255 0
-0.228571 0.095000 0.240315 0.113281 0.429688 0 255 0
-0.181632 0.010000 0.240315 0.195312 0.367188 0 255 0
-0.171428 0.095000 0.240315 0.207031 0.429688 0 255 0
-0.238775 0.010000 0.240315 0.093750 0.367188 0 255 0
-0.191836 -0.075000 0.240315 0.171875 0.308594 0 255 0
-0.222449 -0.330000 0.240315 0.125000 0.125000 0 255 0
-0.248979 -0.075000 0.240315 0.082031 0.308594 0 255 0
-0.279591 -0.330000 0.240315 0.035156 0.125000 0 255 0
-0.171428 0.095000 0.180236 0.207031 0.429688 0 255 0
-0.181632 0.010000 0.240315 0.113281 0.367188 0 255 0
-0.181632 0.010000 0.180236 0.207031 0.367188 0 255 0
-0.222449 -0.330000 0.240315 0.113281 0.125000 0 255 0
-0.191836 -0.075000 0.180236 0.207031 0.308594 0 255 0
-0.191836 -0.075000 0.240315 0.113281 0.308594 0 255 0
-0.228571 0.095000 0.180236 0.113281 0.429688 0 255 0
-0.181632 0.010000 0.180236 0.195312 0.367188 0 255 0
-0.238775 0.010000 0.180236 0.093750 0.367188 0 255 0
-0.181632 0.010000 -0.180236 0.195312 0.789062 0 255 0
-0.238775 0.010000 0.180236 0.093750 0.437500 0 255 0
-0.181632 0.010000 0.180236 0.195312 0.437500 0 255 0
-0.222449 -0.330000 0.180236 0.125000 0.125000 0 255 0
-0.248979 -0.075000 0.180236 0.082031 0.308594 0 255 0
-0.191836 -0.075000 0.180236 0.171875 0.308594 0 255 0
-0.228571 0.095000 0.180236 0.207031 0.429688 0 255 0
-0.238775 0.010000 0.240315 0.113281 0.367188 0 255 0
-0.238775 0.010000 0.180236 0.207031 0.367188 0 255 0
-0.248979 -0.075000 0.240315 0.113281 0.308594 0 255 0
-0.248979 -0.075000 0.180236 0.207031 0.308594 0 255 0
-0.279591 -0.330000 0.240315 0.113281 0.125000 0 255 0
-0.279591 -0.330000 0.180237 0.207031 0.125000 0 255 0
-0.171428 0.095000 -0.180236 0.753906 0.429688 0 255 0
-0.181632 0.010000 -0.240315 0.847656 0.367188 0 255 0
-0.171428 0.095000 -0.240315 0.847656 0.429688 0 255 0
-0.222449 -0.330000 -0.180236 0.753906 0.125000 0 255 0
-0.191836 -0.075000 -0.240315 0.847656 0.308594 0 255 0
-0.191836 -0.075000 -0.180236 0.753906 0.308594 0 255 0
-0.228571 0.095000 -0.240315 0.847656 0.429688 0 255 0
-0.238775 0.010000 -0.180236 0.753906 0.367188 0 255 0
-0.228571 0.095000 -0.180236 0.753906 0.429688 0 255 0
-0.248979 -0.075000 -0.240315 0.847656 0.308594 0 255 0
-0.248979 -0.075000 -0.180236 0.753906 0.308594 0 255 0
-0.279592 -0.330000 -0.240315 0.847656 0.125000 0 255 0
-0.279592 -0.330000 -0.180236 0.753906 0.125000 0 255 0
-0.289796 -0.415000 -0.240315 0.847656 0.058594 0 255 0
-0.228571 0.095000 -0.240315 0.113281 0.429688 0 255 0
-0.181632 0.010000 -0.240315 0.195312 0.367188 0 255 0
-0.238775 0.010000 -0.240315 0.093750 0.367188 0 255 0
-0.191836 -0.075000 -0.240315 0.171875 0.308594 0 255 0
-0.248979 -0.075000 -0.240315 0.082031 0.308594 0 255 0
-0.222449 -0.330000 -0.240315 0.125000 0.125000 0 255 0
-0.279592 -0.330000 -0.240315 0.035156 0.125000 0 255 0
-0.232653 -0.415000 -0.240315 0.113281 0.058594 0 255 0
-0.228571 0.095000 -0.180236 0.113281 0.429688 0 255 0
-0.181632 0.010000 -0.180236 0.195312 0.367188 0 255 0
-0.171428 0.095000 -0.180236 0.207031 0.429688 0 255 0
-0.181632 0.010000 -0.180236 0.753906 0.367188 0 255 0
-0.248979 -0.075000 -0.180236 0.082031 0.308594 0 255 0
-0.222449 -0.330000 -0.180236 0.125000 0.125000 0 255 0
-0.191836 -0.075000 -0.180236 0.171875 0.308594 0 255 0
0.228572 0.095000 -0.240315 0.847656 0.429688 0 255 0
0.181633 0.010000 -0.240315 0.765625 0.367188 0 255 0
0.171429 0.095000 -0.240315 0.753906 0.429688 0 255 0
0.238776 0.010000 -0.240315 0.867188 0.367188 0 255 0
0.191837 -0.075000 -0.240315 0.789062 0.308594 0 255 0
0.222449 -0.330000 -0.240315 0.835938 0.125000 0 255 0
0.248980 -0.075000 -0.240315 0.882812 0.308594 0 255 0
0.279592 -0.330000 -0.240315 0.925781 0.125000 0 255 0
0.228572 0.095000 -0.180236 0.753906 0.429688 0 255 0
0.238776 0.010000 -0.240315 0.847656 0.367188 0 255 0
0.238776 0.010000 -0.180236 0.753906 0.367188 0 255 0
0.248980 -0.075000 -0.240315 0.847656 0.308594 0 255 0
0.279592 -0.330000 -0.240315 0.847656 0.125000 0 255 0
0.248980 -0.075000 -0.180236 0.753906 0.308594 0 255 0
0.279592 -0.330000 -0.180236 0.753906 0.125000 0 255 0
0.171429 0.095000 -0.240315 0.847656 0.429688 0 255 0
0.181633 0.010000 -0.180236 0.753906 0.367188 0 255 0
0.171429 0.095000 -0.180236 0.753906 0.429688 0 255 0
0.222449 -0.330000 -0.240315 0.847656 0.125000 0 255 0
0.191837 -0.075000 -0.180236 0.753906 0.308594 0 255 0
0.191837 -0.075000 -0.240315 0.847656 0.308594 0 255 0
0.228572 0.095000 -0.180236 0.847656 0.429688 0 255 0
0.181633 0.010000 -0.180236 0.765625 0.367188 0 255 0
0.238776 0.010000 -0.180236 0.867188 0.367188 0 255 0
0.181633 0.010000 0.180236 0.765625 0.437500 0 255 0
0.238776 0.010000 -0.180236 0.867188 0.789062 0 255 0
0.181633 0.010000 -0.180236 0.765625 0.789062 0 255 0
0.222449 -0.330000 -0.180236 0.835938 0.125000 0 255 0
0.248980 -0.075000 -0.180236 0.882812 0.308594 0 255 0
0.191837 -0.075000 -0.180236 0.789062 0.308594 0 255 0
0.228572 0.095000 0.240315 0.113281 0.429688 0 255 0
0.238776 0.010000 0.180236 0.207031 0.367188 0 255 0
0.228572 0.095000 0.180236 0.207031 0.429688 0 255 0
0.248980 -0.075000 0.240315 0.113281 0.308594 0 255 0
0.248980 -0.075000 0.180236 0.207031 0.308594 0 255 0
0.279592 -0.330000 0.240315 0.113281 0.125000 0 255 0
0.279592 -0.330000 0.180236 0.207031 0.125000 0 255 0
0.289796 -0.415000 0.240315 0.113281 0.058594 0 255 0
0.171429 0.095000 0.180236 0.207031 0.429688 0 255 0
0.181633 0.010000 0.240315 0.113281 0.367188 0 255 0
0.171429 0.095000 0.240315 0.113281 0.429688 0 255 0
0.222449 -0.330000 0.180236 0.207031 0.125000 0 255 0
0.191837 -0.075000 0.240315 0.113281 0.308594 0 255 0
0.191837 -0.075000 0.180236 0.207031 0.308594 0 255 0
0.228572 0.095000 0.240315 0.847656 0.429688 0 255 0
0.181633 0.010000 0.240315 0.765625 0.367188 0 255 0
0.238776 0.010000 0.240315 0.867188 0.367188 0 255 0
0.191837 -0.075000 0.240315 0.789062 0.308594 0 255 0
0.248980 -0.075000 0.240315 0.882812 0.308594 0 255 0
0.222449 -0.330000 0.240315 0.835938 0.125000 0 255 0
0.279592 -0.330000 0.240315 0.925781 0.125000 0 255 0
0.232653 -0.415000 0.240315 0.847656 0.058594 0 255 0
0.228572 0.095000 0.180236 0.847656 0.429688 0 255 0
0.181633 0.010000 0.180236 0.765625 0.367188 0 255 0
0.171429 0.095000 0.180236 0.753906 0.429688 0 255 0
0.248980 -0.075000 0.180236 0.882812 0.308594 0 255 0
0.222449 -0.330000 0.180236 0.835938 0.125000 0 255 0
0.191837 -0.075000 0.180236 0.789062 0.308594 0 255 0
-0.000020 -0.142846 0.180236 0.480469 0.257812 0 255 0
-0.000015 -0.228666 0.180236 0.480469 0.191406 0 255 0
-0.052271 -0.186810 0.180236 0.402344 0.226562 0 255 0
-0.232653 -0.415000 0.180236 0.113281 0.058594 0 255 0
-0.000015 -0.228666 0.240315 0.480469 0.191406 0 255 0
-0.000020 -0.142846 0.240315 0.480469 0.257812 0 255 0
-0.052271 -0.186810 0.240315 0.402344 0.226562 0 255 0
0.222449 -0.330000 0.180236 0.835938 0.437500 0 255 0
0.279592 -0.330000 -0.180236 0.925781 0.789062 0 255 0
0.222449 -0.330000 -0.180236 0.835938 0.789062 0 255 0
0.222449 -0.330000 -0.180236 0.753906 0.125000 0 255 0
0.289796 -0.415000 -0.180236 0.949219 0.789062 0 255 0
0.232653 -0.415000 0.180236 0.847656 0.437500 0 255 0
0.232653 -0.415000 -0.180236 0.847656 0.789062 0 255 0
-0.222449 -0.330000 0.180236 0.207031 0.125000 0 255 0
-0.222449 -0.330000 -0.180236 0.125000 0.789062 0 255 0
-0.279591 -0.330000 0.180237 0.035156 0.437500 0 255 0
-0.222449 -0.330000 0.180236 0.125000 0.437500 0 255 0
-0.289796 -0.415000 0.180237 0.011719 0.437500 0 255 0
-0.232653 -0.415000 -0.180236 0.113281 0.789062 0 255 0
-0.232653 -0.415000 0.180236 0.113281 0.437500 0 255 0
-0.248979 -0.075000 0.180236 0.082031 0.437500 0 255 0
-0.191836 -0.075000 -0.180236 0.171875 0.789062 0 255 0
-0.191836 -0.075000 0.180236 0.171875 0.437500 0 255 0
0.181633 0.010000 0.180236 0.207031 0.367188 0 255 0
0.248980 -0.075000 -0.180236 0.882812 0.789062 0 255 0
0.191837 -0.075000 0.180236 0.789062 0.437500 0 255 0
0.191837 -0.075000 -0.180236 0.789062 0.789062 0 255 0
0.052252 -0.186803 0.240315 0.562500 0.226562 0 255 0
0.181633 0.010000 0.240315 0.765625 0.375000 0 255 0
-0.000020 -0.142846 0.180236 0.480469 0.437500 0 255 0
-0.000020 -0.142846 0.240315 0.480469 0.375000 0 255 0
0.052252 -0.186803 0.180236 0.562500 0.226562 0 255 0
0.052252 -0.186803 0.180236 0.562500 0.437500 0 255 0
0.191837 -0.075000 0.240315 0.789062 0.375000 0 255 0
0.052252 -0.186803 0.240315 0.562500 0.375000 0 255 0
0.052252 -0.186803 -0.240315 0.562500 0.226562 0 255 0
-0.000020 -0.142846 -0.240315 0.480469 0.843750 0 255 0
-0.181632 0.010000 -0.240315 0.195312 0.843750 0 255 0
-0.000015 -0.228666 -0.180236 0.480469 0.191406 0 255 0
-0.052271 -0.186810 -0.240315 0.402344 0.843750 0 255 0
-0.222449 -0.330000 -0.240315 0.125000 0.843750 0 255 0
-0.000015 -0.228666 -0.240315 0.480469 0.191406 0 255 0
-0.191836 -0.075000 -0.240315 0.171875 0.843750 0 255 0
-0.052271 -0.186810 -0.180236 0.402344 0.789062 0 255 0
-0.052271 -0.186810 -0.180236 0.402344 0.226562 0 255 0
-0.000015 -0.228666 -0.180236 0.480469 0.789062 0 255 0
0.232653 -0.415000 -0.240315 0.847656 0.843750 0 255 0
-0.232653 -0.415000 0.240315 0.113281 0.375000 0 255 0
-0.000015 -0.228666 0.180236 0.480469 0.437500 0 255 0
-0.000015 -0.228666 0.240315 0.480469 0.375000 0 255 0
-0.222449 -0.330000 0.240315 0.125000 0.375000 0 255 0
-0.052271 -0.186810 0.180236 0.402344 0.437500 0 255 0
-0.181632 0.010000 0.240315 0.195312 0.375000 0 255 0
-0.191836 -0.075000 0.240315 0.171875 0.375000 0 255 0
0.222449 -0.330000 0.240315 0.835938 0.375000 0 255 0
0.232653 -0.415000 0.240315 0.847656 0.375000 0 255 0
-0.052271 -0.186810 -0.240315 0.402344 0.226562 0 255 0
-0.000020 -0.142846 -0.240315 0.480469 0.257812 0 255 0
-0.000015 -0.228666 -0.240315 0.480469 0.843750 0 255 0
-0.000020 -0.142846 -0.180236 0.480469 0.257812 0 255 0
0.052252 -0.186803 -0.180236 0.562500 0.226562 0 255 0
0.181633 0.010000 -0.240315 0.765625 0.843750 0 255 0
0.052252 -0.186803 -0.240315 0.562500 0.843750 0 255 0
0.191837 -0.075000 -0.240315 0.789062 0.843750 0 255 0
0.222449 -0.330000 -0.240315 0.835938 0.843750 0 255 0
-0.228571 0.095000 0.240315 0.113281 0.375000 0 255 0
-0.171428 0.095000 0.180236 0.207031 0.437500 0 255 0
-0.228571 0.095000 0.180236 0.113281 0.437500 0 255 0
0.228572 0.095000 0.240315 0.847656 0.375000 0 255 0
0.171429 0.095000 0.180236 0.753906 0.437500 0 255 0
0.171429 0.095000 0.240315 0.753906 0.375000 0 255 0
0.228572 0.095000 -0.180236 0.847656 0.789062 0 255 0
0.171429 0.095000 -0.240315 0.753906 0.843750 0 255 0
0.171429 0.095000 -0.180236 0.753906 0.789062 0 255 0
0.291284 0.860000 -0.243750 0.949219 0.847656 255 0 0
0.248935 0.851566 0.243750 0.113281 0.972656 255 0 0
-0.237783 0.103500 -0.243750 0.847656 0.437500 255 0 0
-0.237783 0.171500 0.243750 0.101562 0.484375 255 0 0
-0.237783 0.103500 -0.243750 0.101562 0.437500 255 0 0
0.195474 0.171500 -0.250000 0.792969 0.851562 255 0 0
0.237783 0.103500 -0.243750 0.859375 0.847656 255 0 0
0.248935 0.851566 -0.243750 0.882812 0.972656 255 0 0
0.237783 0.103500 0.243750 0.113281 0.437500 255 0 0
-0.300000 -0.500000 0.180237 0.207031 0.000000 0 255 0
-0.300000 -0.500000 -0.180236 0.000000 0.000000 0 255 0
0.232653 -0.415000 -0.180236 0.847656 0.058594 0 255 0
-0.171428 0.095000 -0.240315 0.207031 0.843750 0 255 0
0.300000 -0.500000 -0.180236 0.960938 0.789062 0 255 0
0.300000 -0.500000 0.240315 0.960938 0.375000 0 255 0
-0.242857 -0.500000 -0.180236 0.093750 0.789062 0 255 0
-0.242857 -0.500000 0.240315 0.093750 0.375000 0 255 0
0.300000 -0.500000 0.180236 0.960938 0.000000 0 255 0
-0.232653 -0.415000 0.180236 0.113281 0.058594 255 0 0
-0.300000 -0.500000 0.240315 0.000000 0.000000 0 255 0
-0.232653 -0.415000 -0.180236 0.753906 0.058594 0 255 0
0.232653 -0.415000 0.180236 0.207031 0.058594 0 255 0
0.242858 -0.500000 -0.240315 0.847656 0.000000 0 255 0
0.300000 -0.500000 -0.180236 0.753906 0.000000 0 255 0
0.300000 -0.500000 -0.240315 0.960938 0.000000 0 255 0
-0.171428 0.095000 0.240315 0.113281 0.429688 0 255 0
-0.238775 0.010000 -0.180236 0.093750 0.789062 0 255 0
-0.279591 -0.330000 0.180237 0.035156 0.125000 0 255 0
-0.222449 -0.330000 -0.240315 0.847656 0.125000 0 255 0
-0.238775 0.010000 -0.240315 0.847656 0.367188 0 255 0
-0.171428 0.095000 -0.240315 0.207031 0.429688 0 255 0
-0.238775 0.010000 -0.180236 0.093750 0.367188 0 255 0
-0.279592 -0.330000 -0.180236 0.035156 0.125000 0 255 0
0.181633 0.010000 -0.240315 0.847656 0.367188 0 255 0
0.238776 0.010000 0.180236 0.867188 0.437500 0 255 0
0.279592 -0.330000 -0.180236 0.925781 0.125000 0 255 0
0.238776 0.010000 0.240315 0.113281 0.367188 0 255 0
0.222449 -0.330000 0.240315 0.113281 0.125000 0 255 0
0.171429 0.095000 0.240315 0.753906 0.429688 0 255 0
0.238776 0.010000 0.180236 0.867188 0.367188 0 255 0
0.279592 -0.330000 0.180236 0.925781 0.125000 0 255 0
0.279592 -0.330000 0.180236 0.925781 0.437500 0 255 0
0.289796 -0.415000 0.180236 0.949219 0.437500 0 255 0
-0.279592 -0.330000 -0.180236 0.035156 0.789062 0 255 0
-0.289796 -0.415000 -0.180236 0.011719 0.789062 0 255 0
-0.248979 -0.075000 -0.180236 0.082031 0.789062 0 255 0
0.248980 -0.075000 0.180236 0.882812 0.437500 0 255 0
-0.000020 -0.142846 -0.180236 0.480469 0.789062 0 255 0
-0.052271 -0.186810 0.240315 0.402344 0.375000 0 255 0
-0.232653 -0.415000 -0.240315 0.113281 0.843750 0 255 0
0.052252 -0.186803 -0.180236 0.562500 0.789062 0 255 0
-0.171428 0.095000 0.240315 0.207031 0.375000 0 255 0
0.228572 0.095000 0.180236 0.847656 0.437500 0 255 0
0.228572 0.095000 -0.240315 0.847656 0.843750 0 255 0
3 0 1 2
3 3 4 5
3 6 7 8
3 9 10 11
3 12 13 14
3 15 16 17
3 18 19 20
3 21 22 23
3 24 8 25
3 26 27 28
3 29 14 13
3 30 31 14
3 32 33 34
3 35 36 29
3 37 38 39
3 40 41 15
3 42 43 10
3 44 17 45
3 46 47 7
3 48 49 20
3 2 50 51
3 52 53 19
3 54 55 56
3 16 57 58
3 29 59 30
3 46 0 60
3 12 61 62
3 25 63 24
3 16 45 17
3 9 39 38
3 22 64 23
3 15 65 22
3 11 43 66
3 23 67 21
3 17 40 15
3 38 42 10
3 68 1 6
3 2 60 0
3 48 19 53
3 69 70 71
3 20 72 18
3 19 73 52
3 74 31 75
3 59 56 30
3 5 76 3
3 77 78 79
3 80 81 82
3 83 84 85
3 86 87 88
3 89 90 91
3 92 93 94
3 95 96 97
3 98 99 100
3 101 102 103
3 104 105 106
3 107 108 109
3 110 111 112
3 113 114 115
3 116 117 118
3 119 120 121
3 122 123 124
3 125 126 127
3 128 129 130
3 131 132 133
3 134 135 136
3 137 138 128
3 139 140 141
3 142 143 140
3 144 145 146
3 146 121 144
3 147 148 149
3 150 151 152
3 153 154 155
3 156 157 158
3 159 160 161
3 162 163 139
3 164 165 163
3 166 167 165
3 168 79 167
3 169 170 171
3 172 173 174
3 175 176 177
3 176 178 179
3 180 179 178
3 181 182 104
3 183 184 185
3 185 186 187
3 188 187 186
3 189 190 86
3 191 192 193
3 151 194 149
3 195 196 197
3 198 199 200
3 201 202 199
3 203 204 205
3 205 128 203
3 206 207 198
3 208 209 207
3 210 211 212
3 212 136 210
3 213 214 215
3 216 217 218
3 219 220 221
3 222 223 224
3 225 226 227
3 228 229 230
3 229 231 232
3 233 232 231
3 234 235 131
3 236 237 238
3 239 240 241
3 242 243 244
3 244 245 246
3 247 246 245
3 248 249 113
3 250 251 252
3 208 232 211
3 253 254 255
3 256 257 258
3 159 257 259
3 260 261 262
3 260 144 121
3 212 131 134
3 263 264 265
3 130 239 266
3 267 268 269
3 116 172 270
3 271 272 273
3 168 104 77
3 274 275 276
3 164 179 166
3 277 278 279
3 217 280 214
3 281 282 283
3 284 243 261
3 285 286 287
3 251 288 256
3 289 290 291
3 292 199 202
3 156 293 294
3 295 196 82
3 271 296 297
3 298 203 128
3 299 300 278
3 301 192 197
3 302 303 269
3 304 305 306
3 307 308 273
3 140 262 261
3 309 286 158
3 154 258 161
3 308 310 279
3 247 260 249
3 263 291 311
3 254 257 288
3 306 268 312
3 184 313 186
3 314 298 313
3 188 298 190
3 275 315 302
3 295 316 301
3 317 220 316
3 295 225 317
3 293 224 318
3 283 319 320
3 319 265 321
3 322 323 324
3 325 326 327
3 328 329 330
3 0 6 1
3 3 70 4
3 6 0 7
3 9 38 10
3 12 62 13
3 15 22 16
3 18 331 19
3 21 16 22
3 24 6 8
3 26 332 27
3 29 30 14
3 30 56 31
3 32 333 33
3 16 21 57
3 29 36 59
3 46 7 0
3 12 334 61
3 25 335 63
3 16 58 45
3 9 336 39
3 22 65 64
3 15 41 65
3 11 10 43
3 23 337 67
3 17 44 40
3 38 37 42
3 68 338 1
3 2 51 60
3 48 20 19
3 69 4 70
3 20 49 72
3 19 331 73
3 74 14 31
3 59 54 56
3 5 339 76
3 77 340 78
3 80 341 81
3 83 342 84
3 86 190 87
3 89 343 90
3 92 344 93
3 95 345 96
3 98 346 99
3 101 347 102
3 104 182 105
3 107 348 108
3 110 349 111
3 113 249 114
3 116 121 117
3 119 350 120
3 122 351 123
3 125 352 126
3 128 353 129
3 131 235 132
3 134 354 135
3 137 355 138
3 139 142 140
3 142 145 143
3 144 143 145
3 146 119 121
3 147 356 148
3 150 270 151
3 153 147 154
3 156 357 157
3 159 358 160
3 162 164 163
3 164 166 165
3 166 168 167
3 168 77 79
3 169 194 170
3 172 359 173
3 175 360 176
3 176 360 178
3 180 181 179
3 181 180 182
3 183 361 184
3 185 184 186
3 188 189 187
3 189 188 190
3 191 362 192
3 151 174 194
3 195 363 196
3 198 201 199
3 201 204 202
3 203 202 204
3 205 137 128
3 206 208 207
3 208 211 209
3 210 209 211
3 212 134 136
3 213 364 214
3 216 266 217
3 219 215 220
3 222 365 223
3 225 366 226
3 228 367 229
3 229 367 231
3 233 234 232
3 234 233 235
3 236 280 237
3 239 368 240
3 242 369 243
3 244 243 245
3 247 248 246
3 248 247 249
3 250 370 251
3 208 229 232
3 253 371 254
3 256 288 257
3 159 258 257
3 260 284 261
3 260 262 144
3 212 234 131
3 263 372 264
3 130 352 239
3 267 373 268
3 116 351 172
3 271 374 272
3 168 181 104
3 274 375 275
3 164 176 179
3 277 376 278
3 217 241 280
3 281 377 282
3 284 245 243
3 285 222 286
3 251 255 288
3 289 282 290
3 292 314 199
3 156 378 293
3 295 301 196
3 271 300 296
3 298 292 203
3 299 296 300
3 301 316 192
3 302 315 303
3 304 276 305
3 307 379 308
3 140 143 262
3 309 287 286
3 154 256 258
3 308 379 310
3 247 284 260
3 263 289 291
3 254 109 257
3 306 305 268
3 184 314 313
3 314 292 298
3 188 313 298
3 275 380 315
3 295 317 316
3 317 227 220
3 295 342 225
3 293 378 224
3 283 381 319
3 319 381 265
3 322 382 323
3 325 383 326
3 328 384 329
