ply
format ascii 1.0
comment Created by Blender 2.79 (sub 0) - www.blender.org, source file: 'new furniture.blend'
element vertex 532
property float x
property float y
property float z
property float s
property float t
property uchar red
property uchar green
property uchar blue
element face 462
property list uchar uint vertex_indices
end_header
-0.233974 1.295000 -0.400000 0.578125 0.523438 255 0 0
-0.233974 -0.395000 -0.005000 1.421875 0.722656 255 0 0
-0.233974 1.295000 -0.005000 0.578125 0.722656 255 0 0
-0.208974 1.300000 0.400000 0.604487 0.200000 255 0 0
-0.228974 1.300000 0.450000 0.614487 0.225000 255 0 0
-0.208974 1.300000 0.450000 0.604487 0.225000 255 0 0
-0.208974 1.300000 -0.400000 0.604487 -0.200000 255 0 0
-0.228974 1.300000 0.000000 0.614487 0.000000 255 0 0
-0.208974 1.300000 0.000000 0.604487 0.000000 255 0 0
-0.208974 1.300000 -0.450000 0.604487 0.775000 255 0 0
-0.228974 1.300000 -0.400000 0.614487 0.800000 255 0 0
-0.208974 1.300000 -0.400000 0.604487 0.800000 255 0 0
-0.233974 1.295000 0.005000 0.578125 -0.273438 255 0 0
-0.233974 -0.395000 0.400000 1.421875 -0.074219 255 0 0
-0.233974 1.295000 0.400000 0.578125 -0.074219 255 0 0
-0.208974 -0.400000 -0.400000 0.604487 0.800000 255 0 0
-0.228974 -0.400000 0.000000 0.614487 1.000000 255 0 0
-0.228974 -0.400000 -0.400000 0.614487 0.800000 255 0 0
-0.228974 -0.400000 -0.450000 0.614487 0.775000 255 0 0
-0.208974 -0.400000 -0.450000 0.604487 0.775000 255 0 0
-0.228974 1.300000 0.400000 0.614487 0.200000 255 0 0
-0.208974 -0.400000 -0.450000 0.604487 -0.700000 255 0 0
-0.228974 1.300000 -0.450000 0.614487 0.150000 255 0 0
-0.208974 1.300000 -0.450000 0.604487 0.150000 255 0 0
-0.208974 1.300000 0.450000 0.604487 1.150000 255 0 0
-0.228974 -0.400000 0.450000 0.614487 0.300000 255 0 0
-0.208974 -0.400000 0.450000 0.604487 0.300000 255 0 0
-0.208974 -0.400000 0.450000 0.604487 0.225000 255 0 0
-0.228974 -0.400000 0.400000 0.614487 0.200000 255 0 0
-0.208974 -0.400000 0.400000 0.604487 0.200000 255 0 0
-0.228974 -0.400000 0.000000 0.614487 0.000000 255 0 0
-0.208974 -0.400000 0.000000 0.604487 0.000000 255 0 0
-0.233974 1.295000 0.445000 -0.421875 -0.050781 255 0 0
-0.233974 -0.395000 0.400000 0.421875 -0.074219 255 0 0
-0.233974 -0.395000 0.445000 0.421875 -0.050781 255 0 0
-0.233974 -0.395000 -0.445000 0.616987 0.777500 255 0 0
-0.233974 -0.395000 -0.400000 0.616987 0.800000 255 0 0
-0.233974 -0.395000 -0.005000 0.997500 -0.697500 255 0 0
-0.228974 1.300000 0.000000 1.000000 0.150000 255 0 0
-0.233974 1.295000 -0.005000 0.997500 0.147500 255 0 0
-0.233974 1.295000 -0.445000 0.616987 0.777500 255 0 0
-0.233974 1.295000 -0.400000 0.616987 0.800000 255 0 0
-0.228974 1.300000 -0.400000 0.614487 -0.200000 255 0 0
-0.233974 1.295000 -0.005000 0.616987 -0.002500 255 0 0
-0.233974 -0.395000 -0.005000 0.616987 0.997500 255 0 0
-0.233974 1.295000 0.445000 0.616987 0.222500 255 0 0
-0.228974 -0.400000 0.000000 0.000000 -0.700000 255 0 0
-0.233974 1.295000 0.005000 0.002500 0.147500 255 0 0
-0.228974 1.300000 0.000000 0.000000 0.150000 255 0 0
-0.228974 -0.400000 -0.450000 0.614487 -0.700000 255 0 0
-0.233974 1.295000 -0.445000 0.616987 0.147500 255 0 0
-0.233974 -0.395000 0.445000 0.616987 0.222500 255 0 0
-0.228974 -0.400000 0.450000 0.614487 0.225000 255 0 0
-0.233974 -0.395000 0.005000 0.616987 0.002500 255 0 0
-0.233974 -0.395000 0.400000 0.616987 0.200000 255 0 0
-0.233974 1.295000 0.005000 0.616987 0.002500 255 0 0
-0.233974 1.295000 0.400000 0.616987 0.200000 255 0 0
-0.233974 -0.395000 0.445000 0.616987 -0.697500 255 0 0
-0.228974 1.300000 0.450000 0.614487 0.150000 255 0 0
-0.233974 1.295000 0.445000 0.616987 0.147500 255 0 0
-0.233974 1.295000 -0.400000 -0.421875 0.523438 255 0 0
-0.233974 -0.395000 -0.445000 0.421875 0.503906 255 0 0
-0.233974 -0.395000 -0.400000 0.421875 0.523438 255 0 0
0.386026 -0.400000 0.500000 0.306987 0.300000 0 255 0
0.291026 -0.450000 0.500000 0.354487 0.275000 0 255 0
0.386026 -0.450000 0.500000 0.306987 0.275000 0 255 0
-0.203974 1.350000 0.000000 0.601987 0.000000 0 255 0
-0.108974 1.350000 0.400000 0.554487 0.200000 0 255 0
-0.108974 1.350000 0.000000 0.554487 0.000000 0 255 0
0.391026 -0.400000 -0.495000 0.752500 0.300000 0 255 0
0.391026 -0.450000 -0.450000 0.775000 0.275000 0 255 0
0.391026 -0.450000 -0.495000 0.752500 0.275000 0 255 0
-0.108974 1.350000 0.450000 0.554487 0.225000 0 255 0
-0.203974 1.350000 0.495000 0.601987 0.247500 0 255 0
-0.108974 1.350000 0.495000 0.554487 0.247500 0 255 0
0.391026 -0.400000 0.450000 0.225000 0.300000 0 255 0
0.391026 -0.450000 0.495000 0.247500 0.275000 0 255 0
0.391026 -0.450000 0.450000 0.225000 0.275000 0 255 0
-0.208974 1.345000 0.495000 0.247500 0.172500 0 255 0
-0.208974 1.300000 0.450000 0.225000 0.150000 0 255 0
-0.208974 1.300000 0.495000 0.247500 0.150000 0 255 0
-0.208974 1.345000 -0.400000 0.800000 0.172500 0 255 0
-0.208974 1.300000 -0.450000 0.775000 0.150000 0 255 0
-0.208974 1.300000 -0.400000 0.800000 0.150000 0 255 0
0.291026 -0.450000 -0.450000 0.354487 0.275000 0 255 0
-0.108974 -0.500000 -0.450000 0.554487 0.250000 0 255 0
-0.108974 -0.450000 -0.450000 0.554487 0.275000 0 255 0
-0.108974 -0.450000 -0.400000 0.554487 0.800000 0 255 0
0.291026 -0.450000 -0.000000 0.354487 1.000000 1 255 1
-0.108974 -0.450000 0.000000 0.554487 1.000000 0 255 0
-0.108974 -0.450000 -0.450000 0.554487 0.775000 0 255 0
-0.208974 -0.450000 -0.400000 0.604487 0.800000 23 232 0
-0.208974 -0.450000 -0.450000 0.604487 0.775000 2 253 0
0.391026 1.300000 -0.400000 0.800000 1.150000 0 255 0
0.391026 -0.400000 -0.000000 1.000000 0.300000 0 255 0
0.391026 -0.400000 -0.400000 0.800000 0.300000 0 255 0
0.291026 -0.450000 -0.000000 0.354487 0.000000 1 255 1
-0.108974 -0.450000 0.400000 0.554487 0.200000 0 255 0
-0.108974 -0.450000 0.000000 0.554487 0.000000 0 255 0
-0.203974 1.350000 0.400000 0.601987 0.200000 0 255 0
0.391026 -0.450000 -0.450000 0.304487 0.775000 0 255 0
0.291026 -0.450000 -0.400000 0.354487 0.800000 0 255 0
0.291026 -0.450000 -0.450000 0.354487 0.775000 0 255 0
0.291026 -0.450000 -0.500000 0.354487 0.750000 0 255 0
-0.108974 -0.450000 -0.500000 0.554487 0.750000 0 255 0
-0.208974 -0.400000 -0.450000 0.775000 0.300000 0 255 0
-0.208974 -0.450000 -0.495000 0.752500 0.275000 0 255 0
-0.208974 -0.450000 -0.450000 0.775000 0.275000 0 255 0
-0.208974 -0.450000 0.000000 0.604487 0.000000 0 255 0
-0.208974 -0.450000 0.400000 0.604487 0.200000 0 255 0
-0.108974 1.345000 -0.500000 0.554487 0.172500 0 255 0
0.291026 1.300000 -0.500000 0.354487 0.150000 0 255 0
-0.108974 1.300000 -0.500000 0.554487 0.150000 0 255 0
0.391026 1.300000 -0.000000 0.000000 0.150000 0 255 0
0.391026 1.345000 -0.400000 -0.200000 0.172500 0 255 0
0.391026 1.345000 -0.000000 0.000000 0.172500 0 255 0
0.391026 1.345000 -0.495000 0.752500 0.172500 0 255 0
0.391026 1.300000 -0.450000 0.775000 0.150000 0 255 0
0.391026 1.300000 -0.495000 0.752500 0.150000 0 255 0
0.291026 1.350000 0.450000 0.354487 0.225000 0 255 0
0.291026 1.350000 0.400000 0.354487 0.200000 0 255 0
0.391026 -0.450000 -0.000000 0.304487 0.000000 0 255 0
0.291026 -0.450000 0.400000 0.354487 0.200000 0 255 0
-0.208974 1.345000 0.400000 0.200000 0.172500 0 255 0
-0.208974 1.300000 0.000000 0.000000 0.150000 0 255 0
-0.208974 1.300000 0.400000 0.200000 0.150000 0 255 0
0.391026 1.345000 0.400000 0.200000 0.172500 0 255 0
0.391026 1.300000 0.450000 0.225000 0.150000 0 255 0
0.391026 1.300000 0.400000 0.200000 0.150000 0 255 0
0.291026 -0.450000 0.450000 0.225000 0.275000 0 255 0
0.291026 -0.500000 0.400000 0.200000 0.250000 0 255 0
0.291026 -0.450000 0.400000 0.200000 0.275000 0 255 0
-0.108974 -0.450000 0.450000 0.554487 0.225000 0 255 0
-0.208974 -0.450000 0.450000 0.604487 0.225000 0 255 0
0.291026 1.345000 -0.500000 0.354487 0.172500 0 255 0
0.386026 1.300000 -0.500000 0.306987 0.150000 0 255 0
0.291026 -0.400000 -0.500000 0.354487 0.300000 0 255 0
0.386026 -0.450000 -0.500000 0.306987 0.275000 0 255 0
0.291026 -0.450000 -0.500000 0.354487 0.275000 0 255 0
-0.203974 1.345000 -0.500000 0.601987 0.172500 0 255 0
-0.203974 1.300000 -0.500000 0.601987 0.150000 0 255 0
-0.203974 1.350000 -0.400000 0.601987 0.800000 0 255 0
-0.108974 1.350000 0.000000 0.554487 1.000000 0 255 0
-0.108974 1.350000 -0.400000 0.554487 0.800000 0 255 0
-0.203974 -0.400000 -0.500000 0.601987 0.300000 0 255 0
-0.108974 -0.450000 -0.500000 0.554487 0.275000 0 255 0
-0.203974 -0.450000 -0.500000 0.601987 0.275000 0 255 0
-0.208974 1.345000 0.450000 0.225000 0.172500 0 255 0
0.391026 -0.450000 0.400000 0.304487 0.200000 0 255 0
0.291026 -0.450000 0.450000 0.354487 0.225000 0 255 0
0.291026 1.350000 0.495000 0.354487 0.247500 0 255 0
0.391026 -0.450000 -0.400000 0.304487 0.800000 0 255 0
0.386026 1.350000 -0.000000 0.306987 0.000000 0 255 0
0.386026 1.350000 0.400000 0.306987 0.200000 0 255 0
0.386026 1.350000 0.450000 0.306987 0.225000 0 255 0
-0.208974 1.345000 0.000000 1.000000 0.172500 0 255 0
0.386026 1.350000 -0.400000 0.306987 0.800000 0 255 0
0.291026 1.350000 -0.000000 0.354487 1.000000 0 255 0
0.386026 1.350000 -0.000000 0.306987 1.000000 0 255 0
-0.108974 1.350000 -0.450000 0.554487 0.775000 0 255 0
0.291026 1.350000 -0.400000 0.354487 0.800000 0 255 0
0.291026 1.350000 -0.450000 0.354487 0.775000 0 255 0
-0.208974 -0.400000 -0.400000 -0.200000 0.300000 0 255 0
-0.208974 -0.450000 0.000000 0.000000 0.275000 0 255 0
-0.208974 -0.400000 0.000000 0.000000 0.300000 0 255 0
0.386026 1.345000 0.500000 0.306987 0.172500 0 255 0
0.291026 1.300000 0.500000 0.354487 0.150000 0 255 0
0.386026 1.300000 0.500000 0.306987 0.150000 0 255 0
0.291026 1.345000 0.500000 0.354487 0.172500 0 255 0
-0.108974 1.300000 0.500000 0.554487 0.150000 0 255 0
-0.108974 -0.400000 0.500000 0.554487 0.300000 0 255 0
-0.203974 -0.450000 0.500000 0.601987 0.275000 0 255 0
-0.108974 -0.450000 0.500000 0.554487 0.275000 0 255 0
-0.108974 -0.450000 0.450000 0.554487 0.275000 0 255 0
0.291026 -0.500000 0.450000 0.354487 0.250000 0 255 0
0.291026 -0.450000 0.450000 0.354487 0.275000 0 255 0
0.291026 -0.450000 0.500000 0.354487 0.250000 0 255 0
-0.108974 -0.450000 0.500000 0.554487 0.250000 0 255 0
-0.108974 -0.450000 -0.400000 0.554487 0.275000 19 240 4
0.291026 -0.500000 -0.400000 0.354487 0.250000 0 255 0
0.291026 -0.450000 -0.400000 0.354487 0.275000 0 255 0
0.391026 1.345000 0.450000 0.225000 0.172500 0 255 0
0.391026 1.300000 0.495000 0.247500 0.150000 0 255 0
-0.108974 -0.450000 -0.450000 0.775000 0.275000 0 255 0
-0.108974 -0.500000 -0.400000 0.800000 0.250000 0 255 0
-0.108974 -0.450000 -0.400000 0.800000 0.275000 0 255 0
0.291026 -0.450000 -0.400000 0.800000 0.275000 0 255 0
0.291026 -0.500000 -0.450000 0.775000 0.250000 0 255 0
0.291026 -0.450000 -0.450000 0.775000 0.275000 0 255 0
-0.203974 1.350000 -0.450000 0.601987 0.775000 0 255 0
-0.108974 -0.450000 0.400000 0.200000 0.275000 0 255 0
-0.108974 -0.500000 0.450000 0.225000 0.250000 0 255 0
-0.108974 -0.450000 0.450000 0.225000 0.275000 0 255 0
-0.208974 1.345000 -0.450000 0.775000 0.172500 0 255 0
-0.208974 1.300000 -0.495000 0.752500 0.150000 0 255 0
0.291026 -0.450000 0.400000 0.354487 0.275000 0 255 0
-0.108974 -0.500000 0.400000 0.554487 0.250000 0 255 0
-0.108974 -0.450000 0.400000 0.554487 0.275000 0 255 0
0.291026 -0.500000 0.400000 0.354487 0.200000 0 255 0
-0.108974 -0.500000 0.450000 0.554487 0.225000 0 255 0
-0.108974 -0.500000 0.400000 0.554487 0.200000 0 255 0
0.386026 1.350000 -0.450000 0.306987 0.775000 0 255 0
0.291026 -0.500000 -0.450000 0.354487 0.775000 0 255 0
-0.108974 -0.500000 -0.400000 0.554487 0.800000 0 255 0
-0.108974 -0.500000 -0.450000 0.554487 0.775000 0 255 0
-0.108974 1.300000 0.500000 0.554487 1.150000 0 255 0
-0.203974 -0.400000 0.500000 0.601987 0.300000 0 255 0
-0.108974 1.300000 -0.500000 0.554487 1.150000 0 255 0
-0.108974 -0.400000 -0.500000 0.554487 0.300000 0 255 0
-0.208974 1.300000 -0.450000 0.775000 1.150000 0 255 0
-0.208974 -0.400000 -0.495000 0.752500 0.300000 0 255 0
0.291026 1.300000 0.500000 0.354487 1.150000 0 255 0
0.291026 -0.400000 0.500000 0.354487 0.300000 0 255 0
0.391026 1.300000 0.450000 0.225000 1.150000 0 255 0
0.391026 -0.400000 0.495000 0.247500 0.300000 0 255 0
0.391026 1.300000 0.400000 0.200000 1.150000 0 255 0
0.391026 -0.400000 0.400000 0.200000 0.300000 0 255 0
-0.203974 1.300000 -0.500000 0.601987 1.150000 0 255 0
0.291026 1.350000 -0.000000 0.354487 0.000000 0 255 0
0.291026 1.300000 -0.500000 0.354487 1.150000 0 255 0
0.386026 -0.400000 -0.500000 0.306987 0.300000 0 255 0
0.391026 1.345000 -0.450000 0.775000 0.172500 0 255 0
0.391026 1.300000 -0.400000 0.800000 0.150000 0 255 0
0.391026 1.300000 -0.450000 0.775000 1.150000 0 255 0
0.391026 -0.400000 -0.450000 0.775000 0.300000 0 255 0
-0.208974 1.300000 0.495000 0.247500 1.150000 0 255 0
-0.208974 -0.400000 0.450000 0.225000 0.300000 0 255 0
-0.208974 -0.400000 0.495000 0.247500 0.300000 0 255 0
0.386026 1.300000 0.500000 0.306987 1.150000 0 255 0
-0.203974 1.350000 -0.495000 0.601987 0.752500 0 255 0
-0.108974 1.350000 -0.495000 0.554487 0.752500 0 255 0
0.291026 1.350000 -0.495000 0.354487 0.752500 0 255 0
0.386026 1.350000 -0.495000 0.306987 0.752500 0 255 0
0.386026 1.350000 0.495000 0.306987 0.247500 0 255 0
-0.208974 -0.450000 0.450000 0.225000 0.275000 0 255 0
-0.208974 -0.450000 0.495000 0.247500 0.275000 0 255 0
-0.208974 -0.450000 0.000000 0.604487 1.000000 0 255 0
0.391026 -0.450000 -0.400000 0.800000 0.275000 0 255 0
0.391026 1.300000 -0.495000 0.752500 1.150000 0 255 0
-0.208974 -0.450000 0.400000 0.200000 0.275000 0 255 0
-0.208974 -0.400000 0.400000 0.200000 0.300000 0 255 0
0.386026 -0.450000 -0.500000 0.306987 0.750000 0 255 0
-0.208974 -0.400000 -0.400000 0.800000 0.300000 0 255 0
-0.208974 -0.450000 -0.400000 0.800000 0.275000 0 255 0
-0.108974 1.345000 0.500000 0.554487 0.172500 0 255 0
-0.203974 1.300000 0.500000 0.601987 0.150000 0 255 0
0.391026 -0.450000 0.400000 0.200000 0.275000 0 255 0
0.391026 -0.400000 -0.000000 0.000000 0.300000 0 255 0
0.391026 -0.450000 -0.000000 0.000000 0.275000 0 255 0
0.391026 -0.450000 0.450000 0.304487 0.225000 0 255 0
0.391026 -0.450000 0.495000 0.304487 0.247500 0 255 0
0.386026 -0.450000 0.500000 0.306987 0.250000 0 255 0
-0.203974 -0.450000 -0.500000 0.601987 0.750000 0 255 0
0.391026 1.300000 -0.000000 0.000000 1.150000 0 255 0
0.391026 -0.450000 -0.000000 1.000000 0.275000 0 255 0
0.391026 -0.400000 -0.495000 0.304487 -0.700000 0 255 0
0.391026 1.300000 -0.495000 0.304487 0.150000 0 255 0
-0.208974 -0.400000 0.000000 0.604487 -0.700000 255 255 255
-0.228974 1.300000 0.000000 0.614487 0.150000 255 255 255
-0.208974 1.300000 0.000000 0.604487 0.150000 255 255 255
-0.208974 1.345000 0.495000 0.604487 0.247500 0 255 0
-0.203974 1.345000 0.500000 0.601987 0.250000 0 255 0
-0.208974 1.345000 -0.495000 0.604487 0.752500 0 255 0
-0.203974 1.345000 -0.500000 0.601987 0.750000 0 255 0
0.391026 1.345000 0.495000 0.304487 0.247500 255 255 255
0.386026 1.350000 0.495000 0.306987 0.247500 255 255 255
0.386026 1.345000 0.500000 0.306987 0.250000 255 255 255
0.386026 1.345000 -0.500000 0.306987 0.750000 0 255 0
0.391026 1.345000 -0.495000 0.304487 0.752500 0 255 0
-0.203974 1.345000 0.500000 0.601987 0.172500 0 255 0
-0.208974 1.300000 0.495000 0.604487 0.150000 0 255 0
-0.208974 1.345000 -0.450000 0.604487 0.775000 0 255 0
-0.208974 -0.400000 -0.495000 0.604487 0.300000 0 255 0
0.291026 1.345000 -0.500000 0.354487 0.750000 0 255 0
0.391026 -0.450000 -0.495000 0.304487 0.275000 0 255 0
0.391026 -0.400000 -0.495000 0.304487 0.300000 0 255 0
0.391026 1.345000 0.450000 0.304487 0.225000 0 255 0
0.391026 -0.400000 0.495000 0.304487 0.300000 0 255 0
-0.108974 1.345000 0.500000 0.554487 0.250000 0 255 0
-0.203974 1.350000 0.400000 0.200000 0.175000 0 255 0
-0.203974 1.350000 0.450000 0.225000 0.175000 0 255 0
0.291026 1.345000 0.500000 0.354487 0.250000 0 255 0
0.386026 1.345000 0.500000 0.306987 0.250000 0 255 0
-0.108974 1.345000 -0.500000 0.554487 0.750000 0 255 0
0.391026 1.345000 -0.450000 0.304487 0.775000 0 255 0
-0.208974 1.345000 -0.400000 0.604487 0.800000 0 255 0
0.386026 1.350000 -0.495000 0.306987 0.752500 2 255 2
0.391026 1.345000 0.400000 0.304487 0.200000 0 255 0
-0.203974 1.350000 0.450000 0.601987 0.225000 0 255 0
-0.208974 1.345000 -0.495000 0.604487 0.172500 0 255 0
0.386026 1.345000 -0.500000 0.306987 0.172500 0 255 0
0.391026 1.345000 -0.495000 0.304487 0.172500 0 255 0
0.391026 1.345000 0.495000 0.304487 0.172500 0 255 0
-0.203974 1.300000 0.500000 0.601987 1.150000 0 255 0
-0.208974 -0.400000 0.495000 0.604487 0.300000 0 255 0
-0.203974 -0.400000 -0.500000 0.601987 -0.700000 0 255 0
-0.208974 1.300000 -0.495000 0.604487 0.150000 0 255 0
-0.208974 -0.450000 0.495000 0.604487 0.275000 0 255 0
-0.203974 1.350000 -0.400000 0.601987 -0.200000 0 255 0
-0.208974 1.345000 0.000000 0.604487 0.000000 0 255 0
0.391026 1.345000 -0.400000 0.304487 0.800000 0 255 0
0.391026 1.345000 -0.000000 0.304487 0.000000 0 255 0
-0.203974 1.350000 0.000000 0.000000 0.175000 0 255 0
-0.203974 -0.450000 0.500000 0.601987 0.250000 0 255 0
-0.250223 0.403427 -0.073297 0.625112 0.963351 0 255 0
-0.230223 0.403427 -0.063297 0.615112 0.968351 0 255 0
-0.250223 0.403427 -0.063297 0.625112 0.968351 0 255 0
-0.250223 0.483426 -0.058297 0.625112 0.741713 0 255 0
-0.230223 0.498426 -0.058297 0.615112 0.749213 0 255 0
-0.250223 0.498426 -0.058297 0.625112 0.749213 0 255 0
-0.265223 0.483426 -0.058297 0.632612 0.741713 0 255 0
-0.250223 0.423427 -0.058297 0.625112 0.711713 0 255 0
-0.250223 0.503426 -0.063297 0.625112 0.968351 0 255 0
-0.230223 0.503426 -0.073297 0.615112 0.963351 0 255 0
-0.250223 0.503426 -0.073297 0.625112 0.963351 0 255 0
-0.265223 0.423427 -0.078297 0.632612 0.711713 0 255 0
-0.250223 0.408427 -0.078297 0.625112 0.704213 0 255 0
-0.265223 0.408427 -0.078297 0.632612 0.704213 0 255 0
-0.250223 0.498426 -0.078297 0.625112 0.749213 0 255 0
-0.230223 0.483426 -0.078297 0.615112 0.741713 0 255 0
-0.250223 0.483426 -0.078297 0.625112 0.741713 0 255 0
-0.250223 0.423427 -0.078297 0.625112 0.711713 0 255 0
-0.230223 0.408427 -0.078297 0.615112 0.704213 0 255 0
-0.230223 0.408427 -0.058297 0.970852 0.704213 255 255 255
-0.230223 0.403427 -0.063297 0.968351 0.701713 255 255 255
-0.230223 0.408427 -0.078297 0.960852 0.704213 255 255 255
-0.270223 0.503426 -0.063297 0.968351 0.751713 0 255 0
-0.270223 0.483426 -0.073297 0.963351 0.741713 0 255 0
-0.270223 0.483426 -0.063297 0.968351 0.741713 0 255 0
-0.265223 0.483426 -0.078297 0.632612 0.741713 0 255 0
-0.250223 0.408427 -0.058297 0.625112 0.704213 0 255 0
-0.230223 0.423427 -0.058297 0.615112 0.711713 0 255 0
-0.270223 0.423427 -0.063297 0.968351 0.711713 0 255 0
-0.250223 0.483426 -0.078297 0.960852 0.741713 255 255 255
-0.250223 0.423427 -0.058297 0.970852 0.711713 255 255 255
-0.250223 0.423427 -0.078297 0.960852 0.711713 255 255 255
-0.230223 0.498426 -0.058297 0.970852 0.749213 255 255 255
-0.230223 0.483426 -0.058297 0.970852 0.741713 255 255 255
-0.230223 0.498426 -0.078297 0.960852 0.749213 255 255 255
-0.265223 0.408427 -0.058297 0.632612 0.704213 0 255 0
-0.250223 0.483426 -0.078297 0.625112 0.960852 0 255 0
-0.230223 0.483426 -0.058297 0.615112 0.970852 0 255 0
-0.250223 0.483426 -0.058297 0.625112 0.970852 0 255 0
-0.270223 0.503426 -0.073297 0.635112 0.963351 0 255 0
-0.270223 0.503426 -0.063297 0.635112 0.968351 0 255 0
-0.265223 0.498426 -0.078297 0.632612 0.749213 0 255 0
-0.250223 0.423427 -0.058297 0.625112 0.970852 0 255 0
-0.230223 0.423427 -0.078297 0.615112 0.960852 0 255 0
-0.250223 0.423427 -0.078297 0.625112 0.960852 0 255 0
-0.270223 0.403427 -0.073297 0.963351 0.701713 0 255 0
-0.270223 0.403427 -0.063297 0.968351 0.701713 0 255 0
-0.265223 0.408427 -0.058297 0.632612 0.970852 0 255 0
-0.270223 0.403427 -0.063297 0.635112 0.968351 0 255 0
-0.265223 0.498426 -0.058297 0.632612 0.970852 0 255 0
-0.250223 0.498426 -0.058297 0.625112 0.970852 0 255 0
-0.265223 0.408427 -0.058297 0.970852 0.704213 0 255 0
-0.265223 0.423427 -0.058297 0.970852 0.711713 0 255 0
-0.265223 0.408427 -0.078297 0.960852 0.704213 0 255 0
-0.270223 0.423427 -0.073297 0.963351 0.711713 0 255 0
-0.265223 0.423427 -0.078297 0.960852 0.711713 0 255 0
-0.265223 0.408427 -0.078297 0.632612 0.960852 0 255 0
-0.250223 0.408427 -0.078297 0.625112 0.960852 0 255 0
-0.265223 0.498426 -0.078297 0.632612 0.960852 0 255 0
-0.265223 0.498426 -0.058297 0.970852 0.749213 0 255 0
-0.265223 0.483426 -0.058297 0.970852 0.741713 0 255 0
-0.265223 0.498426 -0.078297 0.960852 0.749213 0 255 0
-0.270223 0.503426 -0.073297 0.963351 0.751713 0 255 0
-0.265223 0.483426 -0.078297 0.960852 0.741713 0 255 0
-0.250223 0.408427 -0.058297 0.625112 0.970852 0 255 0
-0.230223 0.408427 -0.078297 0.615112 0.960852 0 255 0
-0.230223 0.403427 -0.073297 0.615112 0.963351 0 255 0
-0.250223 0.498426 -0.078297 0.625112 0.960852 0 255 0
-0.230223 0.498426 -0.058297 0.615112 0.970852 0 255 0
-0.250223 0.403427 0.057184 0.625112 0.028592 0 255 0
-0.230223 0.403427 0.067184 0.615112 0.033592 0 255 0
-0.250223 0.403427 0.067184 0.625112 0.033592 0 255 0
-0.250223 0.483426 0.072184 0.625112 0.741713 0 255 0
-0.230223 0.498426 0.072184 0.615112 0.749213 0 255 0
-0.250223 0.498426 0.072184 0.625112 0.749213 0 255 0
-0.265223 0.483426 0.072184 0.632612 0.741713 0 255 0
-0.250223 0.423427 0.072184 0.625112 0.711713 0 255 0
-0.250223 0.503426 0.067184 0.625112 0.033592 0 255 0
-0.230223 0.503426 0.057184 0.615112 0.028592 0 255 0
-0.250223 0.503426 0.057184 0.625112 0.028592 0 255 0
-0.265223 0.423427 0.052184 0.632612 0.711713 0 255 0
-0.250223 0.408427 0.052184 0.625112 0.704213 0 255 0
-0.265223 0.408427 0.052184 0.632612 0.704213 0 255 0
-0.250223 0.498426 0.052184 0.625112 0.749213 0 255 0
-0.230223 0.483426 0.052184 0.615112 0.741713 0 255 0
-0.250223 0.483426 0.052184 0.625112 0.741713 0 255 0
-0.250223 0.423427 0.052184 0.625112 0.711713 0 255 0
-0.230223 0.408427 0.052184 0.615112 0.704213 0 255 0
-0.230223 0.408427 0.072184 0.036092 0.704213 255 255 255
-0.230223 0.403427 0.067184 0.033592 0.701713 255 255 255
-0.230223 0.408427 0.052184 0.026092 0.704213 255 255 255
-0.270223 0.503426 0.067184 0.033592 0.751713 0 255 0
-0.270223 0.483426 0.057184 0.028592 0.741713 0 255 0
-0.270223 0.483426 0.067184 0.033592 0.741713 0 255 0
-0.265223 0.483426 0.052184 0.632612 0.741713 0 255 0
-0.250223 0.408427 0.072184 0.625112 0.704213 0 255 0
-0.230223 0.423427 0.072184 0.615112 0.711713 0 255 0
-0.270223 0.423427 0.067184 0.033592 0.711713 0 255 0
-0.250223 0.483426 0.052184 0.026092 0.741713 255 255 255
-0.250223 0.423427 0.072184 0.036092 0.711713 255 255 255
-0.250223 0.423427 0.052184 0.026092 0.711713 255 255 255
-0.230223 0.498426 0.072184 0.036092 0.749213 255 255 255
-0.230223 0.483426 0.072184 0.036092 0.741713 255 255 255
-0.230223 0.498426 0.052184 0.026092 0.749213 255 255 255
-0.265223 0.408427 0.072184 0.632612 0.704213 0 255 0
-0.250223 0.483426 0.052184 0.625112 0.026092 0 255 0
-0.230223 0.483426 0.072184 0.615112 0.036092 0 255 0
-0.250223 0.483426 0.072184 0.625112 0.036092 0 255 0
-0.270223 0.503426 0.057184 0.635112 0.028592 0 255 0
-0.270223 0.503426 0.067184 0.635112 0.033592 0 255 0
-0.265223 0.498426 0.052184 0.632612 0.749213 0 255 0
-0.250223 0.423427 0.072184 0.625112 0.036092 0 255 0
-0.230223 0.423427 0.052184 0.615112 0.026092 0 255 0
-0.250223 0.423427 0.052184 0.625112 0.026092 0 255 0
-0.270223 0.403427 0.057184 0.028592 0.701713 0 255 0
-0.270223 0.403427 0.067184 0.033592 0.701713 0 255 0
-0.265223 0.408427 0.072184 0.632612 0.036092 0 255 0
-0.270223 0.403427 0.067184 0.635112 0.033592 0 255 0
-0.265223 0.498426 0.072184 0.632612 0.036092 0 255 0
-0.250223 0.498426 0.072184 0.625112 0.036092 0 255 0
-0.265223 0.408427 0.072184 0.036092 0.704213 0 255 0
-0.265223 0.423427 0.072184 0.036092 0.711713 0 255 0
-0.265223 0.408427 0.052184 0.026092 0.704213 0 255 0
-0.270223 0.423427 0.057184 0.028592 0.711713 0 255 0
-0.265223 0.423427 0.052184 0.026092 0.711713 0 255 0
-0.265223 0.408427 0.052184 0.632612 0.026092 0 255 0
-0.250223 0.408427 0.052184 0.625112 0.026092 0 255 0
-0.265223 0.498426 0.052184 0.632612 0.026092 0 255 0
-0.265223 0.498426 0.072184 0.036092 0.749213 0 255 0
-0.265223 0.483426 0.072184 0.036092 0.741713 0 255 0
-0.265223 0.498426 0.052184 0.026092 0.749213 0 255 0
-0.270223 0.503426 0.057184 0.028592 0.751713 0 255 0
-0.265223 0.483426 0.052184 0.026092 0.741713 0 255 0
-0.250223 0.408427 0.072184 0.625112 0.036092 0 255 0
-0.230223 0.408427 0.052184 0.615112 0.026092 0 255 0
-0.230223 0.403427 0.057184 0.615112 0.028592 0 255 0
-0.250223 0.498426 0.052184 0.625112 0.026092 0 255 0
-0.230223 0.498426 0.072184 0.615112 0.036092 0 255 0
-0.233974 -0.395000 -0.400000 1.421875 0.523438 255 0 0
-0.228974 1.300000 -0.450000 0.614487 0.775000 255 0 0
-0.233974 -0.395000 0.005000 1.421875 -0.273438 255 0 0
-0.208974 -0.400000 0.000000 0.604487 1.000000 255 0 0
-0.228974 1.300000 0.450000 0.614487 1.150000 255 0 0
-0.233974 1.295000 0.400000 -0.421875 -0.074219 255 0 0
-0.228974 -0.400000 0.000000 1.000000 -0.700000 255 0 0
-0.233974 1.295000 -0.400000 0.616987 -0.200000 255 0 0
-0.233974 -0.395000 0.005000 0.002500 -0.697500 255 0 0
-0.233974 -0.395000 -0.445000 0.616987 -0.697500 255 0 0
-0.228974 -0.400000 0.450000 0.614487 -0.700000 255 0 0
-0.233974 1.295000 -0.445000 -0.421875 0.503906 255 0 0
0.291026 -0.500000 -0.450000 0.354487 0.250000 0 255 0
0.391026 1.300000 -0.000000 1.000000 1.150000 0 255 0
0.391026 1.300000 -0.400000 -0.200000 0.150000 0 255 0
-0.208974 1.345000 0.000000 0.000000 0.172500 0 255 0
0.291026 -0.500000 0.450000 0.225000 0.250000 0 255 0
-0.203974 1.350000 0.000000 0.601987 1.000000 0 255 0
0.391026 -0.450000 -0.000000 0.304487 1.000000 0 255 0
-0.208974 1.300000 0.000000 1.000000 0.150000 0 255 0
-0.208974 -0.450000 -0.400000 -0.200000 0.275000 0 255 0
-0.108974 -0.500000 0.450000 0.554487 0.250000 0 255 0
-0.108974 -0.500000 -0.400000 0.554487 0.250000 0 255 0
0.391026 1.345000 0.495000 0.247500 0.172500 0 255 0
-0.108974 -0.500000 -0.450000 0.775000 0.250000 0 255 0
0.291026 -0.500000 -0.400000 0.800000 0.250000 0 255 0
-0.108974 -0.500000 0.400000 0.200000 0.250000 0 255 0
-0.208974 1.345000 -0.495000 0.752500 0.172500 0 255 0
0.291026 -0.500000 0.400000 0.354487 0.250000 0 255 0
0.291026 -0.500000 0.450000 0.354487 0.225000 0 255 0
0.291026 -0.500000 -0.400000 0.354487 0.800000 0 255 0
-0.208974 1.300000 -0.495000 0.752500 1.150000 0 255 0
0.391026 1.300000 0.495000 0.247500 1.150000 0 255 0
0.386026 1.300000 -0.500000 0.306987 1.150000 0 255 0
0.391026 1.345000 -0.400000 0.800000 0.172500 0 255 0
-0.208974 1.300000 0.450000 0.225000 1.150000 0 255 0
0.391026 -0.450000 -0.495000 0.304487 0.752500 0 255 0
-0.208974 -0.450000 -0.495000 0.604487 0.752500 0 255 0
0.386026 -0.400000 -0.500000 0.306987 -0.700000 0 255 0
-0.228974 -0.400000 0.000000 0.614487 -0.700000 255 255 255
-0.208974 1.345000 0.495000 0.604487 0.172500 0 255 0
-0.208974 -0.450000 -0.495000 0.604487 0.275000 0 255 0
0.391026 1.345000 0.495000 0.304487 0.247500 0 255 0
0.391026 -0.450000 0.495000 0.304487 0.275000 0 255 0
-0.208974 1.345000 0.450000 0.604487 0.225000 0 255 0
0.391026 1.300000 0.495000 0.304487 0.150000 0 255 0
-0.208974 1.300000 0.495000 0.604487 1.150000 0 255 0
-0.208974 -0.400000 -0.495000 0.604487 -0.700000 0 255 0
-0.208974 1.345000 -0.400000 0.604487 -0.200000 0 255 0
0.391026 1.345000 -0.000000 0.304487 1.000000 0 255 0
-0.208974 -0.450000 0.495000 0.604487 0.247500 0 255 0
-0.230223 0.483426 -0.058297 0.615112 0.741713 0 255 0
-0.265223 0.423427 -0.058297 0.632612 0.711713 0 255 0
-0.230223 0.503426 -0.063297 0.615112 0.968351 0 255 0
-0.230223 0.498426 -0.078297 0.615112 0.749213 0 255 0
-0.230223 0.423427 -0.078297 0.615112 0.711713 0 255 0
-0.230223 0.403427 -0.073297 0.963351 0.701713 255 255 255
-0.230223 0.423427 -0.078297 0.960852 0.711713 255 255 255
-0.230223 0.423427 -0.058297 0.970852 0.711713 255 255 255
-0.230223 0.408427 -0.058297 0.615112 0.704213 0 255 0
-0.265223 0.498426 -0.058297 0.632612 0.749213 0 255 0
-0.250223 0.483426 -0.058297 0.970852 0.741713 255 255 255
-0.230223 0.483426 -0.078297 0.960852 0.741713 255 255 255
-0.230223 0.503426 -0.073297 0.963351 0.751713 255 255 255
-0.230223 0.503426 -0.063297 0.968351 0.751713 255 255 255
-0.230223 0.483426 -0.078297 0.615112 0.960852 0 255 0
-0.230223 0.423427 -0.058297 0.615112 0.970852 0 255 0
-0.270223 0.403427 -0.073297 0.635112 0.963351 0 255 0
-0.230223 0.408427 -0.058297 0.615112 0.970852 0 255 0
-0.230223 0.498426 -0.078297 0.615112 0.960852 0 255 0
-0.230223 0.483426 0.072184 0.615112 0.741713 0 255 0
-0.265223 0.423427 0.072184 0.632612 0.711713 0 255 0
-0.230223 0.503426 0.067184 0.615112 0.033592 0 255 0
-0.230223 0.498426 0.052184 0.615112 0.749213 0 255 0
-0.230223 0.423427 0.052184 0.615112 0.711713 0 255 0
-0.230223 0.403427 0.057184 0.028592 0.701713 255 255 255
-0.230223 0.423427 0.052184 0.026092 0.711713 255 255 255
-0.230223 0.423427 0.072184 0.036092 0.711713 255 255 255
-0.230223 0.408427 0.072184 0.615112 0.704213 0 255 0
-0.265223 0.498426 0.072184 0.632612 0.749213 0 255 0
-0.250223 0.483426 0.072184 0.036092 0.741713 255 255 255
-0.230223 0.483426 0.052184 0.026092 0.741713 255 255 255
-0.230223 0.503426 0.057184 0.028592 0.751713 255 255 255
-0.230223 0.503426 0.067184 0.033592 0.751713 255 255 255
-0.230223 0.483426 0.052184 0.615112 0.026092 0 255 0
-0.230223 0.423427 0.072184 0.615112 0.036092 0 255 0
-0.270223 0.403427 0.057184 0.635112 0.028592 0 255 0
-0.230223 0.408427 0.072184 0.615112 0.036092 0 255 0
-0.230223 0.498426 0.052184 0.615112 0.026092 0 255 0
0.391026 1.300000 0.495000 0.304487 1.150000 0 255 0
3 0 1 2
3 3 4 5
3 6 7 8
3 9 10 11
3 12 13 14
3 15 16 17
3 15 18 19
3 8 20 3
3 21 22 23
3 24 25 26
3 27 28 29
3 29 30 31
3 32 33 34
3 35 17 36
3 37 38 39
3 10 40 41
3 42 43 7
3 44 17 16
3 20 45 4
3 46 47 48
3 49 50 22
3 51 28 52
3 53 28 54
3 20 55 56
3 57 58 59
3 60 61 62
3 63 64 65
3 66 67 68
3 69 70 71
3 72 73 74
3 75 76 77
3 78 79 80
3 81 82 83
3 84 85 86
3 87 88 89
3 90 91 92
3 93 94 95
3 96 97 98
3 99 72 67
3 100 101 102
3 103 90 104
3 105 106 107
3 108 97 109
3 110 111 112
3 113 114 115
3 116 117 118
3 67 119 120
3 121 122 96
3 123 124 125
3 126 127 128
3 129 130 131
3 109 132 133
3 134 135 111
3 136 137 138
3 139 112 140
3 141 142 143
3 144 145 146
3 147 125 79
3 148 149 122
3 115 128 113
3 119 74 150
3 151 88 101
3 152 120 153
3 120 154 153
3 83 155 81
3 156 157 158
3 159 160 161
3 162 163 164
3 165 166 167
3 168 169 166
3 170 171 172
3 173 174 175
3 132 176 177
3 178 179 180
3 181 182 127
3 183 184 185
3 186 187 188
3 189 143 159
3 190 191 192
3 193 194 82
3 195 196 197
3 198 199 200
3 161 156 201
3 202 203 204
3 205 206 170
3 207 136 208
3 209 210 105
3 211 170 212
3 213 214 75
3 215 75 216
3 217 208 144
3 68 120 218
3 219 220 136
3 221 222 117
3 223 95 224
3 225 226 227
3 228 212 63
3 229 159 230
3 231 201 232
3 119 233 154
3 227 234 235
3 91 89 236
3 224 237 70
3 238 224 69
3 226 239 234
3 240 163 239
3 241 100 102
3 242 107 243
3 244 245 169
3 216 77 246
3 143 157 160
3 247 246 248
3 249 250 251
3 212 172 64
3 252 90 92
3 208 138 145
3 253 216 247
3 230 161 231
3 95 254 237
3 255 135 256
3 257 258 259
3 260 261 73
3 262 229 263
3 264 265 266
3 267 232 268
3 269 270 245
3 229 271 189
3 146 272 144
3 232 273 231
3 274 220 275
3 233 276 154
3 65 277 63
3 73 278 74
3 279 147 280
3 74 281 150
3 150 282 233
3 231 283 230
3 156 284 201
3 230 263 229
3 189 285 141
3 201 268 286
3 154 287 153
3 288 260 73
3 140 289 139
3 256 290 291
3 167 292 165
3 293 294 206
3 295 296 140
3 206 297 171
3 298 299 66
3 158 300 156
3 153 301 152
3 302 123 279
3 132 177 303
3 304 305 306
3 307 308 309
3 310 311 307
3 312 313 314
3 315 316 317
3 318 319 320
3 321 322 316
3 323 324 325
3 326 327 328
3 320 315 329
3 330 331 311
3 327 332 328
3 309 310 307
3 333 334 335
3 336 337 338
3 311 339 330
3 340 341 342
3 312 343 344
3 345 320 329
3 346 347 348
3 332 349 350
3 306 351 352
3 312 353 354
3 332 355 356
3 357 358 359
3 304 360 361
3 314 362 343
3 328 363 326
3 332 364 328
3 365 327 366
3 359 327 367
3 305 368 306
3 304 369 370
3 313 371 314
3 372 312 354
3 352 304 306
3 373 374 375
3 376 377 378
3 379 380 376
3 381 382 383
3 384 385 386
3 387 388 389
3 390 391 385
3 392 393 394
3 395 396 397
3 389 384 398
3 399 400 380
3 396 401 397
3 378 379 376
3 402 403 404
3 405 406 407
3 380 408 399
3 409 410 411
3 381 412 413
3 414 389 398
3 415 416 417
3 401 418 419
3 375 420 421
3 381 422 423
3 401 424 425
3 426 427 428
3 373 429 430
3 383 431 412
3 397 432 395
3 401 433 397
3 434 396 435
3 428 396 436
3 374 437 375
3 373 438 439
3 382 440 383
3 441 381 423
3 421 373 375
3 277 228 63
3 0 442 1
3 3 20 4
3 6 42 7
3 9 443 10
3 12 444 13
3 15 445 16
3 15 17 18
3 8 7 20
3 21 49 22
3 24 446 25
3 27 52 28
3 29 28 30
3 32 447 33
3 35 18 17
3 37 448 38
3 10 443 40
3 42 449 43
3 44 36 17
3 20 56 45
3 46 450 47
3 49 451 50
3 51 54 28
3 53 30 28
3 20 7 55
3 57 452 58
3 60 453 61
3 63 212 64
3 66 99 67
3 69 224 70
3 72 288 73
3 75 214 76
3 78 147 79
3 81 193 82
3 84 454 85
3 87 101 88
3 90 87 91
3 93 455 94
3 96 122 97
3 99 288 72
3 100 151 101
3 103 102 90
3 105 210 106
3 108 98 97
3 110 134 111
3 113 456 114
3 116 221 117
3 67 72 119
3 121 148 122
3 123 457 124
3 126 181 127
3 129 458 130
3 109 97 132
3 134 290 135
3 136 220 137
3 139 110 112
3 141 459 142
3 144 208 145
3 147 123 125
3 148 249 149
3 115 126 128
3 119 72 74
3 151 460 88
3 152 218 120
3 120 119 154
3 83 461 155
3 156 160 157
3 159 143 160
3 162 462 163
3 165 168 166
3 168 244 169
3 170 206 171
3 173 463 174
3 132 149 176
3 178 464 179
3 181 465 182
3 183 466 184
3 186 467 187
3 189 141 143
3 190 468 191
3 193 469 194
3 195 470 196
3 198 471 199
3 161 160 156
3 202 472 203
3 205 293 206
3 207 219 136
3 209 473 210
3 211 205 170
3 213 474 214
3 215 213 75
3 217 207 208
3 68 67 120
3 219 475 220
3 221 476 222
3 223 93 95
3 225 477 226
3 228 211 212
3 229 189 159
3 231 161 201
3 119 150 233
3 227 226 234
3 91 87 89
3 224 95 237
3 238 223 224
3 226 240 239
3 240 164 163
3 102 103 241
3 241 478 100
3 242 105 107
3 244 269 245
3 216 75 77
3 143 142 157
3 247 216 246
3 176 149 251
3 149 249 251
3 212 170 172
3 92 479 252
3 252 104 90
3 208 136 138
3 253 215 216
3 230 159 161
3 95 94 254
3 255 480 135
3 257 481 258
3 269 482 270
3 229 262 271
3 146 483 272
3 232 267 273
3 274 137 220
3 233 484 276
3 65 485 277
3 73 261 278
3 279 123 147
3 74 278 281
3 150 281 282
3 231 273 283
3 156 300 284
3 230 283 263
3 189 271 285
3 201 284 268
3 154 276 287
3 288 486 260
3 140 296 289
3 256 135 290
3 167 487 292
3 293 488 294
3 295 489 296
3 206 294 297
3 298 490 299
3 158 491 300
3 153 287 301
3 302 457 123
3 492 133 303
3 133 132 303
3 304 370 305
3 307 493 308
3 310 494 311
3 312 495 313
3 315 321 316
3 318 496 319
3 321 497 322
3 324 498 325
3 325 499 500
3 500 323 325
3 326 366 327
3 320 321 315
3 330 501 331
3 327 358 332
3 309 502 310
3 333 503 334
3 337 504 338
3 338 505 506
3 506 336 338
3 311 494 339
3 340 507 341
3 312 314 343
3 345 318 320
3 346 508 347
3 332 358 349
3 306 368 351
3 312 344 353
3 332 350 355
3 357 349 358
3 304 509 360
3 314 371 362
3 328 364 363
3 332 356 364
3 365 367 327
3 359 358 327
3 305 510 368
3 304 361 369
3 313 511 371
3 372 495 312
3 352 509 304
3 373 439 374
3 376 512 377
3 379 513 380
3 381 514 382
3 384 390 385
3 387 515 388
3 390 516 391
3 393 517 394
3 394 518 519
3 519 392 394
3 395 435 396
3 389 390 384
3 399 520 400
3 396 427 401
3 378 521 379
3 402 522 403
3 406 523 407
3 407 524 525
3 525 405 407
3 380 513 408
3 409 526 410
3 381 383 412
3 414 387 389
3 415 527 416
3 401 427 418
3 375 437 420
3 381 413 422
3 401 419 424
3 426 418 427
3 373 528 429
3 383 440 431
3 397 433 432
3 401 425 433
3 434 436 396
3 428 427 396
3 374 529 437
3 373 430 438
3 382 530 440
3 441 514 381
3 421 528 373
3 277 531 228
