ply
format ascii 1.0
comment Created by Blender 2.79 (sub 0) - www.blender.org, source file: 'displaycabinet.blend'
element vertex 320
property float x
property float y
property float z
property float s
property float t
property uchar red
property uchar green
property uchar blue
element face 184
property list uchar uint vertex_indices
end_header
0.650000 1.841177 -0.650000 0.733871 0.277169 255 0 0
0.650000 1.641176 0.650000 0.766129 0.222331 255 0 0
0.650000 1.641176 -0.650000 0.733871 0.222331 255 0 0
0.650000 1.841177 0.650000 0.733871 0.277169 255 0 0
-0.650000 1.641176 0.650000 0.766129 0.222331 255 0 0
0.650000 1.641176 0.650000 0.733871 0.222331 255 0 0
-0.650000 1.841177 0.650000 0.766129 0.277169 255 0 0
-0.650000 1.641176 -0.650000 0.733871 0.222331 255 0 0
-0.650000 1.841177 -0.650000 0.766129 0.277169 255 0 0
-0.650000 1.641176 -0.650000 0.766129 0.222331 255 0 0
-0.650000 1.641176 0.650000 0.766129 0.264266 255 0 0
0.650000 1.641176 -0.650000 0.733871 0.232009 255 0 0
0.650000 1.641176 0.650000 0.733871 0.264266 255 0 0
0.650000 1.841177 0.650000 0.733871 0.264266 255 0 0
-0.650000 1.841177 -0.650000 0.766129 0.232009 255 0 0
-0.650000 1.841177 0.650000 0.766129 0.264266 255 0 0
0.625000 1.750000 -0.625000 0.734491 0.768294 255 0 0
0.625000 -0.050000 -0.575000 0.735732 0.274750 255 0 0
0.625000 -0.050000 -0.625000 0.734491 0.274750 255 0 0
0.625000 1.750000 -0.575000 0.734491 0.768294 255 0 0
0.575000 -0.050000 -0.575000 0.735732 0.274750 255 0 0
0.625000 -0.050000 -0.575000 0.734491 0.274750 255 0 0
0.575000 1.750000 -0.575000 0.735732 0.768294 255 0 0
0.575000 -0.050000 -0.625000 0.734491 0.274750 255 0 0
0.575000 1.750000 -0.625000 0.735732 0.768294 255 0 0
0.575000 -0.050000 -0.625000 0.735732 0.274750 255 0 0
0.575000 -0.050000 -0.575000 0.735732 0.233869 255 255 255
0.625000 -0.050000 -0.625000 0.734491 0.232629 255 255 255
0.625000 -0.050000 -0.575000 0.734491 0.233869 255 255 255
0.625000 1.750000 -0.575000 0.734491 0.233869 255 255 255
0.575000 1.750000 -0.625000 0.735732 0.232629 255 255 255
0.575000 1.750000 -0.575000 0.735732 0.233869 255 255 255
-0.575000 1.750000 0.575000 0.764268 0.768294 255 0 0
-0.575000 -0.050000 0.625000 0.765509 0.274750 255 0 0
-0.575000 -0.050000 0.575000 0.764268 0.274750 255 0 0
-0.575000 1.750000 0.625000 0.764268 0.768294 255 0 0
-0.625000 -0.050000 0.625000 0.765509 0.274750 255 0 0
-0.575000 -0.050000 0.625000 0.764268 0.274750 255 0 0
-0.625000 1.750000 0.625000 0.765509 0.768294 255 0 0
-0.625000 -0.050000 0.575000 0.764268 0.274750 255 0 0
-0.625000 1.750000 0.575000 0.765509 0.768294 255 0 0
-0.625000 -0.050000 0.575000 0.765509 0.274750 255 0 0
-0.625000 -0.050000 0.625000 0.765509 0.263646 255 255 255
-0.575000 -0.050000 0.575000 0.764268 0.262405 255 255 255
-0.575000 -0.050000 0.625000 0.764268 0.263646 255 255 255
-0.575000 1.750000 0.625000 0.764268 0.263646 255 255 255
-0.625000 1.750000 0.575000 0.765509 0.262405 255 255 255
-0.625000 1.750000 0.625000 0.765509 0.263646 255 255 255
0.625000 1.750000 0.575000 0.764268 0.768294 255 0 0
0.625000 -0.050000 0.625000 0.765509 0.274750 255 0 0
0.625000 -0.050000 0.575000 0.764268 0.274750 255 0 0
0.625000 1.750000 0.625000 0.734491 0.768294 255 0 0
0.575000 -0.050000 0.625000 0.735732 0.274750 255 0 0
0.625000 -0.050000 0.625000 0.734491 0.274750 255 0 0
0.575000 1.750000 0.625000 0.765509 0.768294 255 0 0
0.575000 -0.050000 0.575000 0.764268 0.274750 255 0 0
0.575000 -0.050000 0.625000 0.765509 0.274750 255 0 0
0.575000 1.750000 0.575000 0.735732 0.768294 255 0 0
0.625000 -0.050000 0.575000 0.734491 0.274750 255 0 0
0.575000 -0.050000 0.575000 0.735732 0.274750 255 0 0
0.575000 -0.050000 0.625000 0.735732 0.263646 255 255 255
0.625000 -0.050000 0.575000 0.734491 0.262405 255 255 255
0.625000 -0.050000 0.625000 0.734491 0.263646 255 255 255
0.625000 1.750000 0.625000 0.734491 0.263646 255 255 255
0.575000 1.750000 0.575000 0.735732 0.262405 255 255 255
0.575000 1.750000 0.625000 0.735732 0.263646 255 255 255
-0.575000 1.750000 -0.625000 0.734491 0.768294 255 0 0
-0.575000 -0.050000 -0.575000 0.735732 0.274750 255 0 0
-0.575000 -0.050000 -0.625000 0.734491 0.274750 255 0 0
-0.575000 1.750000 -0.575000 0.764268 0.768294 255 0 0
-0.625000 -0.050000 -0.575000 0.765509 0.274750 255 0 0
-0.575000 -0.050000 -0.575000 0.764268 0.274750 255 0 0
-0.625000 1.750000 -0.575000 0.735732 0.768294 255 0 0
-0.625000 -0.050000 -0.625000 0.734491 0.274750 255 0 0
-0.625000 -0.050000 -0.575000 0.735732 0.274750 255 0 0
-0.625000 1.750000 -0.625000 0.765509 0.768294 255 0 0
-0.575000 -0.050000 -0.625000 0.764268 0.274750 255 0 0
-0.625000 -0.050000 -0.625000 0.765509 0.274750 255 0 0
-0.625000 -0.050000 -0.575000 0.765509 0.233869 255 255 255
-0.575000 -0.050000 -0.625000 0.764268 0.232629 255 255 255
-0.575000 -0.050000 -0.575000 0.764268 0.233869 255 255 255
-0.575000 1.750000 -0.575000 0.764268 0.233869 255 255 255
-0.625000 1.750000 -0.625000 0.765509 0.232629 255 255 255
-0.625000 1.750000 -0.575000 0.765509 0.233869 255 255 255
0.650000 0.350000 -0.650000 0.733871 0.513458 255 0 0
0.650000 -0.500000 0.650000 0.766129 0.280395 255 0 0
0.650000 -0.500000 -0.650000 0.733871 0.280395 255 0 0
0.650000 0.350000 0.650000 0.733871 0.513458 255 0 0
-0.650000 -0.500000 0.650000 0.766129 0.280395 255 0 0
0.650000 -0.500000 0.650000 0.733871 0.280395 255 0 0
-0.650000 0.350000 0.650000 0.766129 0.513458 255 0 0
-0.650000 -0.500000 -0.650000 0.733871 0.280395 255 0 0
-0.650000 0.350000 -0.650000 0.766129 0.513458 255 0 0
-0.650000 -0.500000 -0.650000 0.766129 0.280395 255 0 0
-0.650000 -0.500000 0.650000 0.766129 0.264266 255 0 0
0.650000 -0.500000 -0.650000 0.733871 0.232009 255 0 0
0.650000 -0.500000 0.650000 0.733871 0.264266 255 0 0
0.650000 0.350000 0.650000 0.733871 0.264266 255 0 0
-0.650000 0.350000 -0.650000 0.766129 0.232009 255 0 0
-0.650000 0.350000 0.650000 0.766129 0.264266 255 0 0
-0.595000 1.250000 -0.570000 0.304025 0.900229 0 255 0
-0.609695 0.750000 -0.574775 0.305745 0.841700 0 255 0
-0.595000 0.750000 -0.570000 0.304025 0.841700 0 255 0
-0.580142 0.750000 -0.575000 0.302285 0.686598 0 255 0
-0.595000 0.750000 -0.570000 0.304025 0.687183 0 255 0
-0.609858 0.750000 -0.575000 0.305764 0.686598 0 255 0
-0.580305 1.250000 -0.574775 0.302304 0.900229 0 255 0
-0.580305 0.750000 -0.574775 0.302304 0.841700 0 255 0
-0.595000 1.250000 -0.570000 0.304025 0.687183 0 255 0
-0.580142 1.250000 -0.575000 0.302285 0.686598 0 255 0
-0.609858 1.250000 -0.575000 0.305764 0.686598 0 255 0
-0.609695 0.750000 -0.574775 0.167093 0.841700 0 255 0
-0.609858 1.250000 -0.575000 0.167067 0.900229 0 255 0
-0.609858 0.750000 -0.575000 0.167067 0.841700 0 255 0
-0.580305 1.250000 -0.574775 0.167093 0.666113 0 255 0
-0.580142 0.750000 -0.575000 0.167067 0.607584 0 255 0
-0.580142 1.250000 -0.575000 0.167067 0.666113 0 255 0
-0.580142 1.250000 -0.575000 0.302285 0.666113 0 255 0
-0.609858 0.750000 -0.575000 0.305764 0.607584 0 255 0
-0.609858 1.250000 -0.575000 0.305764 0.666113 0 255 0
-0.571224 1.250000 -0.602725 0.163821 0.666113 0 255 0
-0.575000 0.750000 -0.607923 0.163213 0.607584 0 255 0
-0.575000 1.250000 -0.607923 0.163213 0.666113 0 255 0
-0.571224 1.250000 -0.587275 0.301241 0.685161 0 255 0
-0.575000 1.250000 -0.607923 0.301683 0.682744 0 255 0
-0.575000 1.250000 -0.582077 0.301683 0.685769 0 255 0
-0.571224 1.250000 -0.602725 0.163821 0.900229 0 255 0
-0.571224 0.750000 -0.587275 0.165630 0.841700 0 255 0
-0.571224 0.750000 -0.602725 0.163821 0.841700 0 255 0
-0.571224 0.750000 -0.602725 0.301241 0.683352 0 255 0
-0.575000 0.750000 -0.582077 0.301683 0.685769 0 255 0
-0.575000 0.750000 -0.607923 0.301683 0.682744 0 255 0
-0.571224 1.250000 -0.587275 0.165630 0.900229 0 255 0
-0.575000 0.750000 -0.582077 0.166238 0.841700 0 255 0
-0.575000 1.250000 -0.607923 0.163213 0.900229 0 255 0
-0.575000 0.750000 -0.607923 0.163213 0.841700 0 255 0
0.595000 1.250000 -0.570000 0.164725 0.900229 0 255 0
0.580305 0.750000 -0.574775 0.166446 0.841700 0 255 0
0.595000 0.750000 -0.570000 0.164725 0.841700 0 255 0
0.609858 0.750000 -0.575000 0.162986 0.686598 0 255 0
0.595000 0.750000 -0.570000 0.164725 0.687183 0 255 0
0.580142 0.750000 -0.575000 0.166465 0.686598 0 255 0
0.609695 1.250000 -0.574775 0.163005 0.900229 0 255 0
0.609695 0.750000 -0.574775 0.163005 0.841700 0 255 0
0.595000 1.250000 -0.570000 0.164725 0.687183 0 255 0
0.609858 1.250000 -0.575000 0.162986 0.686598 0 255 0
0.580142 1.250000 -0.575000 0.166465 0.686598 0 255 0
0.580305 1.250000 -0.574775 0.167093 0.900229 0 255 0
0.580142 0.750000 -0.575000 0.167067 0.841700 0 255 0
0.580305 0.750000 -0.574775 0.167093 0.841700 0 255 0
0.609695 1.250000 -0.574775 0.167093 0.666113 0 255 0
0.609858 0.750000 -0.575000 0.167067 0.607584 0 255 0
0.609858 1.250000 -0.575000 0.167067 0.666113 0 255 0
0.580142 1.250000 -0.575000 0.166465 0.900229 0 255 0
0.609858 0.750000 -0.575000 0.162986 0.841700 0 255 0
0.580142 0.750000 -0.575000 0.166465 0.841700 0 255 0
0.571224 1.250000 -0.587275 0.165630 0.666113 0 255 0
0.575000 0.750000 -0.582077 0.166238 0.607584 0 255 0
0.575000 1.250000 -0.582077 0.166238 0.666113 0 255 0
0.575000 1.250000 -0.607923 0.167067 0.682744 0 255 0
0.571224 1.250000 -0.587275 0.167509 0.685161 0 255 0
0.575000 1.250000 -0.582077 0.167067 0.685769 0 255 0
0.571224 1.250000 -0.587275 0.165630 0.900229 0 255 0
0.571224 0.750000 -0.602725 0.163821 0.841700 0 255 0
0.571224 0.750000 -0.587275 0.165630 0.841700 0 255 0
0.571224 0.750000 -0.587275 0.167509 0.685161 0 255 0
0.575000 0.750000 -0.607923 0.167067 0.682744 0 255 0
0.575000 0.750000 -0.582077 0.167067 0.685769 0 255 0
0.575000 1.250000 -0.607923 0.163213 0.900229 0 255 0
0.575000 0.750000 -0.607923 0.163213 0.841700 0 255 0
0.575000 1.250000 -0.607923 0.163213 0.666113 0 255 0
0.571224 1.250000 0.602726 0.304929 0.666113 0 255 0
0.575000 0.750000 0.607923 0.305537 0.607584 0 255 0
0.575000 1.250000 0.607923 0.305537 0.666113 0 255 0
0.575000 1.250000 0.582077 0.167067 0.822043 0 255 0
0.571224 1.250000 0.602726 0.167509 0.824460 0 255 0
0.575000 1.250000 0.607923 0.167067 0.825069 0 255 0
0.571224 1.250000 0.602726 0.304929 0.900229 0 255 0
0.571224 0.750000 0.587275 0.303120 0.841700 0 255 0
0.571224 0.750000 0.602726 0.304929 0.841700 0 255 0
0.571224 0.750000 0.602726 0.167509 0.824460 0 255 0
0.575000 0.750000 0.582077 0.167067 0.822043 0 255 0
0.575000 0.750000 0.607923 0.167067 0.825069 0 255 0
0.571224 1.250000 0.587275 0.303120 0.900229 0 255 0
0.575000 0.750000 0.582077 0.302512 0.841700 0 255 0
0.575000 1.250000 0.582077 0.302512 0.666113 0 255 0
0.580305 1.250000 0.574775 0.301657 0.666113 0 255 0
0.580142 0.750000 0.575000 0.301683 0.607584 0 255 0
0.580142 1.250000 0.575000 0.301683 0.666113 0 255 0
0.595000 1.250000 0.570000 0.164725 0.820629 0 255 0
0.580305 1.250000 0.574775 0.166446 0.821188 0 255 0
0.580142 1.250000 0.575000 0.166465 0.821215 0 255 0
0.580305 1.250000 0.574775 0.166446 0.900229 0 255 0
0.595000 0.750000 0.570000 0.164725 0.841700 0 255 0
0.580305 0.750000 0.574775 0.166446 0.841700 0 255 0
0.595000 0.750000 0.570000 0.164725 0.820629 0 255 0
0.609695 0.750000 0.574775 0.163005 0.821188 0 255 0
0.609859 0.750000 0.575000 0.162986 0.821215 0 255 0
0.609695 0.750000 0.574775 0.301657 0.841700 0 255 0
0.609859 1.250000 0.575000 0.301683 0.900229 0 255 0
0.609859 0.750000 0.575000 0.301683 0.841700 0 255 0
0.595000 1.250000 0.570000 0.164725 0.900229 0 255 0
0.609695 0.750000 0.574775 0.163005 0.841700 0 255 0
0.580142 0.750000 0.575000 0.166465 0.607584 0 255 0
0.609859 1.250000 0.575000 0.162986 0.666113 0 255 0
0.580142 1.250000 0.575000 0.166465 0.666113 0 255 0
-0.609695 1.250000 0.574775 0.301657 0.666113 0 255 0
-0.609858 0.750000 0.575000 0.301683 0.607584 0 255 0
-0.609858 1.250000 0.575000 0.301683 0.666113 0 255 0
-0.595000 1.250000 0.570000 0.304025 0.820629 0 255 0
-0.609695 1.250000 0.574775 0.305745 0.821188 0 255 0
-0.609858 1.250000 0.575000 0.305764 0.821215 0 255 0
-0.609695 1.250000 0.574775 0.305745 0.900229 0 255 0
-0.595000 0.750000 0.570000 0.304025 0.841700 0 255 0
-0.609695 0.750000 0.574775 0.305745 0.841700 0 255 0
-0.595000 0.750000 0.570000 0.304025 0.820629 0 255 0
-0.580305 0.750000 0.574775 0.302304 0.821188 0 255 0
-0.580142 0.750000 0.575000 0.302285 0.821215 0 255 0
-0.580305 1.250000 0.574775 0.301657 0.900229 0 255 0
-0.580142 0.750000 0.575000 0.301683 0.841700 0 255 0
-0.580305 0.750000 0.574775 0.301657 0.841700 0 255 0
-0.595000 1.250000 0.570000 0.304025 0.900229 0 255 0
-0.580305 0.750000 0.574775 0.302304 0.841700 0 255 0
-0.609858 1.250000 0.575000 0.305764 0.666113 0 255 0
-0.580142 0.750000 0.575000 0.302285 0.607584 0 255 0
-0.580142 1.250000 0.575000 0.302285 0.666113 0 255 0
-0.571224 1.250000 0.587275 0.303120 0.666113 0 255 0
-0.575000 0.750000 0.582077 0.302512 0.607584 0 255 0
-0.575000 1.250000 0.582077 0.302512 0.666113 0 255 0
-0.571224 1.250000 0.602726 0.301241 0.824460 0 255 0
-0.575000 1.250000 0.582077 0.301683 0.822043 0 255 0
-0.575000 1.250000 0.607923 0.301683 0.825069 0 255 0
-0.571224 1.250000 0.587275 0.303120 0.900229 0 255 0
-0.571224 0.750000 0.602726 0.304929 0.841700 0 255 0
-0.571224 0.750000 0.587275 0.303120 0.841700 0 255 0
-0.571224 0.750000 0.587275 0.301241 0.822651 0 255 0
-0.575000 0.750000 0.607923 0.301683 0.825069 0 255 0
-0.575000 0.750000 0.582077 0.301683 0.822043 0 255 0
-0.575000 1.250000 0.607923 0.305537 0.900229 0 255 0
-0.575000 0.750000 0.607923 0.305537 0.841700 0 255 0
-0.575000 0.750000 0.607923 0.305537 0.607584 0 255 0
-0.575000 1.250000 0.607923 0.305537 0.666113 0 255 0
0.650000 1.841177 0.650000 0.766129 0.277169 255 0 0
-0.650000 1.841177 -0.650000 0.733871 0.277169 255 0 0
-0.650000 1.641176 -0.650000 0.766129 0.232009 255 0 0
0.650000 1.841177 -0.650000 0.733871 0.232009 255 0 0
0.625000 1.750000 -0.575000 0.735732 0.768294 255 0 0
0.575000 1.750000 -0.625000 0.734491 0.768294 255 0 0
0.575000 -0.050000 -0.625000 0.735732 0.232629 255 255 255
0.625000 1.750000 -0.625000 0.734491 0.232629 255 255 255
-0.575000 1.750000 0.625000 0.765509 0.768294 255 0 0
-0.625000 1.750000 0.575000 0.764268 0.768294 255 0 0
-0.625000 -0.050000 0.575000 0.765509 0.262405 255 255 255
-0.575000 1.750000 0.575000 0.764268 0.262405 255 255 255
0.625000 1.750000 0.625000 0.765509 0.768294 255 0 0
0.575000 1.750000 0.625000 0.735732 0.768294 255 0 0
0.575000 1.750000 0.575000 0.764268 0.768294 255 0 0
0.625000 1.750000 0.575000 0.734491 0.768294 255 0 0
0.575000 -0.050000 0.575000 0.735732 0.262405 255 255 255
0.625000 1.750000 0.575000 0.734491 0.262405 255 255 255
-0.575000 1.750000 -0.575000 0.735732 0.768294 255 0 0
-0.625000 1.750000 -0.575000 0.765509 0.768294 255 0 0
-0.625000 1.750000 -0.625000 0.734491 0.768294 255 0 0
-0.575000 1.750000 -0.625000 0.764268 0.768294 255 0 0
-0.625000 -0.050000 -0.625000 0.765509 0.232629 255 255 255
-0.575000 1.750000 -0.625000 0.764268 0.232629 255 255 255
0.650000 0.350000 0.650000 0.766129 0.513458 255 0 0
-0.650000 0.350000 -0.650000 0.733871 0.513458 255 0 0
-0.650000 -0.500000 -0.650000 0.766129 0.232009 255 0 0
0.650000 0.350000 -0.650000 0.733871 0.232009 255 0 0
-0.609695 1.250000 -0.574775 0.305745 0.900229 0 255 0
-0.580305 0.750000 -0.574775 0.302304 0.686624 0 255 0
-0.609695 0.750000 -0.574775 0.305745 0.686624 0 255 0
-0.609695 1.250000 -0.574775 0.305745 0.686624 0 255 0
-0.580305 1.250000 -0.574775 0.302304 0.686624 0 255 0
-0.609695 1.250000 -0.574775 0.167093 0.900229 0 255 0
-0.580305 0.750000 -0.574775 0.167093 0.607584 0 255 0
-0.580142 0.750000 -0.575000 0.302285 0.607584 0 255 0
-0.571224 0.750000 -0.602725 0.163821 0.607584 0 255 0
-0.571224 1.250000 -0.602725 0.301241 0.683352 0 255 0
-0.571224 0.750000 -0.587275 0.301241 0.685161 0 255 0
-0.575000 1.250000 -0.582077 0.166238 0.900229 0 255 0
0.580305 1.250000 -0.574775 0.166446 0.900229 0 255 0
0.609695 0.750000 -0.574775 0.163005 0.686624 0 255 0
0.580305 0.750000 -0.574775 0.166446 0.686624 0 255 0
0.580305 1.250000 -0.574775 0.166446 0.686624 0 255 0
0.609695 1.250000 -0.574775 0.163005 0.686624 0 255 0
0.580142 1.250000 -0.575000 0.167067 0.900229 0 255 0
0.609695 0.750000 -0.574775 0.167093 0.607584 0 255 0
0.609858 1.250000 -0.575000 0.162986 0.900229 0 255 0
0.571224 0.750000 -0.587275 0.165630 0.607584 0 255 0
0.571224 1.250000 -0.602725 0.167509 0.683352 0 255 0
0.571224 1.250000 -0.602725 0.163821 0.900229 0 255 0
0.571224 0.750000 -0.602725 0.167509 0.683352 0 255 0
0.575000 0.750000 -0.607923 0.163213 0.607584 0 255 0
0.571224 0.750000 0.602726 0.304929 0.607584 0 255 0
0.571224 1.250000 0.587275 0.167509 0.822651 0 255 0
0.571224 0.750000 0.587275 0.167509 0.822651 0 255 0
0.575000 1.250000 0.582077 0.302512 0.900229 0 255 0
0.575000 0.750000 0.582077 0.302512 0.607584 0 255 0
0.580305 0.750000 0.574775 0.301657 0.607584 0 255 0
0.609859 1.250000 0.575000 0.162986 0.821215 0 255 0
0.609695 1.250000 0.574775 0.163005 0.821188 0 255 0
0.580142 0.750000 0.575000 0.166465 0.821215 0 255 0
0.580305 0.750000 0.574775 0.166446 0.821188 0 255 0
0.609695 1.250000 0.574775 0.301657 0.900229 0 255 0
0.609695 1.250000 0.574775 0.163005 0.900229 0 255 0
0.609859 0.750000 0.575000 0.162986 0.607584 0 255 0
-0.609695 0.750000 0.574775 0.301657 0.607584 0 255 0
-0.580142 1.250000 0.575000 0.302285 0.821215 0 255 0
-0.580305 1.250000 0.574775 0.302304 0.821188 0 255 0
-0.609858 0.750000 0.575000 0.305764 0.821215 0 255 0
-0.609695 0.750000 0.574775 0.305745 0.821188 0 255 0
-0.580142 1.250000 0.575000 0.301683 0.900229 0 255 0
-0.580305 1.250000 0.574775 0.302304 0.900229 0 255 0
-0.609858 0.750000 0.575000 0.305764 0.607584 0 255 0
-0.571224 0.750000 0.587275 0.303120 0.607584 0 255 0
-0.571224 1.250000 0.587275 0.301241 0.822651 0 255 0
-0.571224 1.250000 0.602726 0.304929 0.900229 0 255 0
-0.571224 0.750000 0.602726 0.301241 0.824460 0 255 0
3 0 1 2
3 3 4 5
3 6 7 4
3 8 2 9
3 10 11 12
3 13 14 15
3 16 17 18
3 19 20 21
3 22 23 20
3 24 18 25
3 26 27 28
3 29 30 31
3 32 33 34
3 35 36 37
3 38 39 36
3 40 34 41
3 42 43 44
3 45 46 47
3 48 49 50
3 51 52 53
3 54 55 56
3 57 58 59
3 60 61 62
3 63 64 65
3 66 67 68
3 69 70 71
3 72 73 74
3 75 76 77
3 78 79 80
3 81 82 83
3 84 85 86
3 87 88 89
3 90 91 88
3 92 86 93
3 94 95 96
3 97 98 99
3 100 101 102
3 103 104 105
3 106 102 107
3 108 109 110
3 111 112 113
3 114 115 116
3 117 118 119
3 120 121 122
3 123 124 125
3 126 127 128
3 129 130 131
3 132 133 127
3 133 134 135
3 136 137 138
3 139 140 141
3 142 138 143
3 144 145 146
3 147 148 149
3 150 151 152
3 153 154 155
3 156 157 158
3 159 160 161
3 162 163 164
3 165 166 167
3 163 168 169
3 157 170 158
3 171 172 173
3 174 175 176
3 177 178 179
3 180 181 182
3 183 184 178
3 172 185 173
3 186 187 188
3 189 190 191
3 192 193 194
3 195 196 197
3 198 199 200
3 201 202 193
3 203 204 205
3 206 207 208
3 209 210 211
3 212 213 214
3 215 216 217
3 218 219 220
3 221 222 213
3 223 224 225
3 226 227 228
3 229 230 231
3 232 233 234
3 235 236 237
3 233 238 239
3 228 240 241
3 0 242 1
3 3 6 4
3 6 243 7
3 8 0 2
3 10 244 11
3 13 245 14
3 16 246 17
3 19 22 20
3 22 247 23
3 24 16 18
3 26 248 27
3 29 249 30
3 32 250 33
3 35 38 36
3 38 251 39
3 40 32 34
3 42 252 43
3 45 253 46
3 48 254 49
3 51 255 52
3 54 256 55
3 57 257 58
3 60 258 61
3 63 259 64
3 66 260 67
3 69 261 70
3 72 262 73
3 75 263 76
3 78 264 79
3 81 265 82
3 84 266 85
3 87 90 88
3 90 267 91
3 92 84 86
3 94 268 95
3 97 269 98
3 100 270 101
3 271 104 103
3 104 272 105
3 106 100 102
3 110 273 108
3 108 274 109
3 111 275 112
3 114 276 115
3 117 277 118
3 120 278 121
3 123 279 124
3 126 132 127
3 129 280 130
3 132 281 133
3 133 281 134
3 136 282 137
3 283 140 139
3 140 284 141
3 142 136 138
3 146 285 144
3 144 286 145
3 147 287 148
3 150 288 151
3 153 289 154
3 156 290 157
3 159 291 160
3 162 292 163
3 165 293 166
3 163 292 168
3 157 294 170
3 171 295 172
3 174 296 175
3 177 183 178
3 180 297 181
3 183 298 184
3 172 299 185
3 186 300 187
3 191 301 189
3 301 302 189
3 192 201 193
3 197 303 195
3 303 304 195
3 198 305 199
3 201 306 202
3 203 307 204
3 206 308 207
3 211 309 209
3 309 310 209
3 212 221 213
3 217 311 215
3 311 312 215
3 218 313 219
3 221 314 222
3 223 315 224
3 226 316 227
3 229 317 230
3 232 318 233
3 235 319 236
3 233 318 238
3 228 227 240
