ply
format ascii 1.0
comment Created by Blender 2.79 (sub 0) - www.blender.org, source file: 'windows.blend'
element vertex 209
property float x
property float y
property float z
property float s
property float t
property uchar red
property uchar green
property uchar blue
element face 192
property list uchar uint vertex_indices
end_header
-0.055543 0.500000 -0.165175 0.767047 0.578212 255 0 0
0.065686 0.500000 -0.065685 0.729840 0.608747 255 0 0
0.207107 0.500000 -0.207106 0.686436 0.565342 255 0 0
0.294791 -0.500000 0.500000 0.903457 0.475449 255 0 0
0.294791 0.500000 0.500000 0.903457 0.782363 255 0 0
0.291535 -0.450000 0.450000 0.888111 0.490795 255 0 0
0.500000 -0.500000 0.500000 0.596543 0.475449 255 0 0
0.294791 0.500000 0.500000 0.659525 0.782363 255 0 0
0.294791 -0.500000 0.500000 0.659525 0.475449 255 0 0
0.500000 -0.500000 0.500000 0.903457 0.475449 255 0 0
0.495075 0.450000 0.450000 0.888111 0.767018 255 0 0
0.500000 0.500000 0.500000 0.903457 0.782363 255 0 0
0.423880 0.500000 0.117317 0.786006 0.782363 255 0 0
0.480785 0.450000 0.304911 0.843581 0.767018 255 0 0
0.423880 0.450000 0.117317 0.786006 0.767018 255 0 0
0.331470 0.500000 -0.055570 0.732945 0.782363 255 0 0
0.331470 0.450000 -0.055570 0.732945 0.767018 255 0 0
0.207107 0.500000 -0.207106 0.686436 0.782363 255 0 0
0.207107 0.450000 -0.207106 0.686436 0.767018 255 0 0
0.055571 0.500000 -0.331469 0.732945 0.782363 255 0 0
0.055571 0.450000 -0.331469 0.732945 0.767018 255 0 0
-0.117316 0.500000 -0.423879 0.786006 0.782363 255 0 0
-0.117316 0.450000 -0.423879 0.786006 0.767018 255 0 0
-0.304909 0.500000 -0.480785 0.843581 0.782363 255 0 0
-0.304909 0.450000 -0.480785 0.843581 0.767018 255 0 0
-0.500000 -0.500000 -0.500000 0.903457 0.475449 255 0 0
-0.500000 0.500000 -0.500000 0.903457 0.782363 255 0 0
-0.450000 -0.450000 -0.495075 0.888111 0.490795 255 0 0
-0.500000 0.500000 -0.500000 0.903457 0.782363 255 255 255
-0.500000 -0.500000 -0.500000 0.903457 0.475449 255 255 255
-0.500000 0.500000 -0.500000 0.903457 0.782363 255 255 255
-0.500000 0.500000 -0.500000 0.596543 0.782363 255 0 0
-0.500000 -0.500000 -0.300000 0.657926 0.475449 255 0 0
-0.500000 0.500000 -0.300000 0.657926 0.782363 255 0 0
-0.500000 0.500000 -0.300000 0.903457 0.782363 255 255 255
-0.500000 -0.500000 -0.300000 0.903457 0.475449 255 255 255
-0.500000 0.500000 -0.300000 0.903457 0.782363 255 255 255
-0.500000 -0.500000 -0.300000 0.903457 0.475449 255 0 0
-0.450000 0.450000 -0.295075 0.888111 0.767018 255 0 0
-0.500000 0.500000 -0.300000 0.903457 0.782363 255 0 0
-0.193853 0.500000 -0.239103 0.809496 0.782363 255 0 0
-0.343927 0.450000 -0.284628 0.855556 0.767018 255 0 0
-0.193853 0.450000 -0.239103 0.809496 0.767018 255 0 0
-0.055543 0.500000 -0.165175 0.767047 0.782363 255 0 0
-0.055543 0.450000 -0.165175 0.767047 0.767018 255 0 0
0.065686 0.500000 -0.065685 0.729840 0.782363 255 0 0
0.065686 0.450000 -0.065685 0.729840 0.767018 255 0 0
0.165176 0.500000 0.055544 0.767047 0.782363 255 0 0
0.165176 0.450000 0.055544 0.767047 0.767018 255 0 0
0.239104 0.500000 0.193854 0.809497 0.782363 255 0 0
0.239104 0.450000 0.193854 0.809497 0.767018 255 0 0
0.284628 0.500000 0.343928 0.855556 0.782363 255 0 0
0.284628 0.450000 0.343928 0.855556 0.767018 255 0 0
0.284628 -0.500000 0.343928 0.855556 0.475449 255 0 0
0.239104 -0.450000 0.193854 0.809497 0.490795 255 0 0
0.239104 -0.500000 0.193854 0.809497 0.475449 255 0 0
0.207107 -0.500000 -0.207106 0.686436 0.565342 255 0 0
0.065686 -0.500000 -0.065685 0.729840 0.608747 255 0 0
-0.055543 -0.500000 -0.165175 0.767047 0.578212 255 0 0
0.423880 -0.450000 0.117317 0.786006 0.490795 255 0 0
0.480785 -0.500000 0.304911 0.843581 0.475449 255 0 0
0.423880 -0.500000 0.117317 0.786006 0.475449 255 0 0
-0.304909 -0.450000 -0.480785 0.843581 0.490795 255 0 0
-0.117316 -0.500000 -0.423879 0.786006 0.475449 255 0 0
-0.304909 -0.500000 -0.480785 0.843581 0.475449 255 0 0
-0.193853 -0.500000 -0.239103 0.809496 0.475449 255 0 0
-0.343927 -0.450000 -0.284628 0.855556 0.490795 255 0 0
-0.343927 -0.500000 -0.284628 0.855556 0.475449 255 0 0
0.165176 -0.450000 0.055544 0.767047 0.490795 255 0 0
0.165176 -0.500000 0.055544 0.767047 0.475449 255 0 0
-0.117316 -0.450000 -0.423879 0.786006 0.490795 255 0 0
0.055571 -0.500000 -0.331469 0.732945 0.475449 255 0 0
0.055571 -0.450000 -0.331469 0.732945 0.490795 255 0 0
0.207107 -0.500000 -0.207106 0.686436 0.475449 255 0 0
0.207107 -0.450000 -0.207106 0.686436 0.490795 255 0 0
0.331470 -0.500000 -0.055570 0.732945 0.475449 255 0 0
0.331470 -0.450000 -0.055570 0.732945 0.490795 255 0 0
0.065686 -0.450000 -0.065685 0.729840 0.490795 255 0 0
0.065686 -0.500000 -0.065685 0.729840 0.475449 255 0 0
-0.055543 -0.450000 -0.165175 0.767047 0.490795 255 0 0
-0.055543 -0.500000 -0.165175 0.767047 0.475449 255 0 0
-0.193853 -0.450000 -0.239103 0.809496 0.490795 255 0 0
0.495075 -0.450000 0.450000 0.598054 0.490795 255 0 0
0.291535 0.450000 0.450000 0.660524 0.767018 255 0 0
0.495075 0.450000 0.450000 0.598054 0.767018 255 0 0
0.065686 0.450000 -0.065685 0.729840 0.608747 255 0 0
-0.055543 0.450000 -0.165175 0.767047 0.578212 255 0 0
0.207107 0.450000 -0.207106 0.686436 0.565342 255 0 0
0.065686 -0.450000 -0.065685 0.729840 0.608747 255 0 0
0.165176 -0.450000 0.055544 0.699305 0.645954 255 0 0
0.331470 -0.450000 -0.055570 0.648267 0.611851 255 0 0
-0.450000 -0.450000 -0.295075 0.659437 0.490795 255 0 0
-0.450000 0.450000 -0.495075 0.598054 0.767018 255 0 0
-0.450000 0.450000 -0.295075 0.659437 0.767018 255 0 0
0.284628 0.500000 0.343928 0.662643 0.734463 255 0 0
0.500000 0.500000 0.500000 0.596543 0.782363 255 0 0
0.480785 0.500000 0.304911 0.602440 0.722488 255 0 0
0.423880 0.500000 0.117317 0.619905 0.664913 255 0 0
0.239104 0.500000 0.193854 0.676616 0.688403 255 0 0
0.331470 0.500000 -0.055570 0.648267 0.611851 255 0 0
0.165176 0.500000 0.055544 0.699305 0.645954 255 0 0
0.055571 0.500000 -0.331469 0.732945 0.527174 255 0 0
-0.117316 0.500000 -0.423879 0.786006 0.498812 255 0 0
-0.193853 0.500000 -0.239103 0.809496 0.555522 255 0 0
-0.304909 0.500000 -0.480785 0.843581 0.481346 255 0 0
-0.500000 0.500000 -0.500000 0.903457 0.475449 255 0 0
-0.343927 0.500000 -0.284628 0.855556 0.541550 255 0 0
-0.500000 0.500000 -0.500000 0.903457 0.475449 255 0 0
-0.500000 0.500000 -0.300000 0.903457 0.536832 255 0 0
-0.500000 0.500000 -0.300000 0.903457 0.536832 255 0 0
0.284628 -0.450000 0.343928 0.855556 0.490795 255 0 0
0.291535 0.450000 0.450000 0.888111 0.767018 255 0 0
0.495075 -0.450000 0.450000 0.888111 0.490795 255 0 0
0.480785 -0.450000 0.304911 0.843581 0.490795 255 0 0
0.480785 0.500000 0.304911 0.843581 0.782363 255 0 0
-0.450000 0.450000 -0.495075 0.888111 0.767018 255 0 0
-0.500000 -0.500000 -0.500000 0.903457 0.475449 255 255 255
-0.500000 -0.500000 -0.500000 0.596543 0.475449 255 0 0
-0.500000 -0.500000 -0.300000 0.903457 0.475449 255 255 255
-0.450000 -0.450000 -0.295075 0.888111 0.490795 255 0 0
-0.343927 0.500000 -0.284628 0.855556 0.782363 255 0 0
-0.500000 -0.500000 -0.300000 0.903457 0.536832 255 0 0
-0.500000 -0.500000 -0.500000 0.903457 0.475449 255 0 0
-0.304909 -0.500000 -0.480785 0.843581 0.481346 255 0 0
-0.343927 -0.500000 -0.284628 0.855556 0.541550 255 0 0
-0.117316 -0.500000 -0.423879 0.786006 0.498812 255 0 0
0.055571 -0.500000 -0.331469 0.732945 0.527174 255 0 0
-0.193853 -0.500000 -0.239103 0.809496 0.555522 255 0 0
0.331470 -0.500000 -0.055570 0.648267 0.611851 255 0 0
0.165176 -0.500000 0.055544 0.699305 0.645954 255 0 0
0.423880 -0.500000 0.117317 0.619905 0.664913 255 0 0
0.239104 -0.500000 0.193854 0.676616 0.688403 255 0 0
0.480785 -0.500000 0.304911 0.602440 0.722488 255 0 0
0.500000 -0.500000 0.500000 0.596543 0.782363 255 0 0
0.284628 -0.500000 0.343928 0.662643 0.734463 255 0 0
0.294791 -0.500000 0.500000 0.659525 0.782363 255 0 0
-0.500000 -0.500000 -0.300000 0.903457 0.536832 255 0 0
0.291535 -0.450000 0.450000 0.660524 0.490795 255 0 0
0.284628 0.450000 0.343928 0.662643 0.734463 255 0 0
0.480785 0.450000 0.304911 0.602440 0.722488 255 0 0
0.239104 0.450000 0.193854 0.676616 0.688403 255 0 0
0.423880 0.450000 0.117317 0.619905 0.664913 255 0 0
0.331470 0.450000 -0.055570 0.648267 0.611851 255 0 0
0.165176 0.450000 0.055544 0.699305 0.645954 255 0 0
-0.117316 0.450000 -0.423879 0.786006 0.498812 255 0 0
0.055571 0.450000 -0.331469 0.732945 0.527174 255 0 0
-0.193853 0.450000 -0.239103 0.809496 0.555522 255 0 0
-0.450000 0.450000 -0.495075 0.888111 0.476961 255 0 0
-0.304909 0.450000 -0.480785 0.843581 0.481346 255 0 0
-0.343927 0.450000 -0.284628 0.855556 0.541550 255 0 0
-0.450000 0.450000 -0.295075 0.888111 0.538343 255 0 0
0.291535 -0.450000 0.450000 0.660524 0.767018 255 0 0
0.495075 -0.450000 0.450000 0.598054 0.767018 255 0 0
0.284628 -0.450000 0.343928 0.662643 0.734463 255 0 0
0.480785 -0.450000 0.304911 0.602440 0.722488 255 0 0
0.423880 -0.450000 0.117317 0.619905 0.664913 255 0 0
0.239104 -0.450000 0.193854 0.676616 0.688403 255 0 0
0.207107 -0.450000 -0.207106 0.686436 0.565342 255 0 0
0.055571 -0.450000 -0.331469 0.732945 0.527174 255 0 0
-0.055543 -0.450000 -0.165175 0.767047 0.578212 255 0 0
-0.117316 -0.450000 -0.423879 0.786006 0.498812 255 0 0
-0.304909 -0.450000 -0.480785 0.843581 0.481346 255 0 0
-0.193853 -0.450000 -0.239103 0.809496 0.555522 255 0 0
-0.450000 -0.450000 -0.495075 0.888111 0.476961 255 0 0
-0.450000 -0.450000 -0.295075 0.888111 0.538343 255 0 0
-0.343927 -0.450000 -0.284628 0.855556 0.541550 255 0 0
-0.450000 -0.450000 -0.495075 0.598054 0.490795 255 0 0
-0.450000 0.360000 -0.475075 0.357526 0.543326 0 255 0
-0.450000 0.450000 -0.475075 0.386361 0.543326 0 255 0
-0.439393 0.450000 -0.474031 0.386361 0.545594 0 255 0
-0.308811 0.450000 -0.461169 0.386361 0.573515 0 255 0
-0.308811 0.450000 -0.461169 0.386361 0.573515 0 255 0
-0.308811 -0.450000 -0.461169 0.098014 0.573515 0 255 0
-0.319418 -0.450000 -0.462214 0.098014 0.571247 0 255 0
-0.450000 -0.450000 -0.475075 0.098014 0.543326 0 255 0
-0.308811 -0.450000 -0.461169 0.098014 0.573515 0 255 0
-0.293804 -0.450000 -0.456617 0.098014 0.577058 0 255 0
-0.293804 0.450000 -0.456617 0.386361 0.577058 0 255 0
-0.124970 0.450000 -0.405402 0.386361 0.616914 0 255 0
-0.124970 -0.450000 -0.405402 0.098014 0.616914 0 255 0
-0.111139 -0.450000 -0.398009 0.098014 0.620526 0 255 0
0.030628 0.450000 -0.322233 0.386361 0.657550 0 255 0
0.044459 0.450000 -0.314840 0.386361 0.661162 0 255 0
0.044459 0.450000 -0.314840 0.386361 0.661162 0 255 0
0.044459 -0.450000 -0.314840 0.098014 0.661162 0 255 0
0.044459 -0.450000 -0.314840 0.098014 0.661162 0 255 0
0.180842 -0.450000 -0.202913 0.098014 0.701017 0 255 0
0.180842 0.450000 -0.202913 0.386361 0.701017 0 255 0
0.192965 0.450000 -0.192964 0.386361 0.704560 0 255 0
0.192965 -0.450000 -0.192964 0.098014 0.704560 0 255 0
0.192965 -0.450000 -0.192964 0.098014 0.704560 0 255 0
0.192965 0.450000 -0.192964 0.386361 0.704560 0 255 0
0.202914 0.450000 -0.180841 0.386361 0.707897 0 255 0
0.314841 0.450000 -0.044458 0.386361 0.745440 0 255 0
0.314841 -0.450000 -0.044458 0.098014 0.745440 0 255 0
0.304892 -0.450000 -0.056581 0.098014 0.742103 0 255 0
0.322233 -0.450000 -0.030627 0.098014 0.748444 0 255 0
0.398010 0.450000 0.111140 0.386361 0.779228 0 255 0
0.405402 0.450000 0.124971 0.386361 0.782232 0 255 0
0.405402 -0.450000 0.124971 0.098014 0.782232 0 255 0
0.409955 -0.450000 0.139978 0.098014 0.784786 0 255 0
0.456617 0.450000 0.293805 0.386361 0.810966 0 255 0
0.461170 0.450000 0.308812 0.386361 0.813520 0 255 0
0.461170 -0.450000 0.308812 0.098014 0.813520 0 255 0
0.474031 -0.450000 0.439393 0.098014 0.830310 0 255 0
0.474031 0.450000 0.439393 0.386361 0.830310 0 255 0
0.475075 0.450000 0.450000 0.386361 0.831674 0 255 0
0.475075 -0.361566 0.450000 0.126347 0.831674 0 255 0
0.475075 -0.450000 0.450000 0.098014 0.831674 0 255 0
3 0 1 2
3 3 4 5
3 6 7 8
3 9 10 11
3 12 13 14
3 15 14 16
3 17 16 18
3 19 18 20
3 21 20 22
3 23 22 24
3 25 26 27
3 28 29 30
3 31 32 33
3 34 35 36
3 37 38 39
3 40 41 42
3 43 42 44
3 45 44 46
3 47 46 48
3 49 48 50
3 51 50 52
3 53 54 55
3 56 57 58
3 59 60 61
3 62 63 64
3 65 66 67
3 55 68 69
3 70 71 63
3 72 73 71
3 74 75 73
3 76 61 75
3 69 77 78
3 78 79 80
3 80 81 65
3 82 83 84
3 85 86 87
3 88 89 90
3 91 92 93
3 94 7 95
3 95 96 94
3 96 97 98
3 97 99 100
3 99 2 100
3 2 101 0
3 101 102 103
3 102 104 103
3 104 105 106
3 103 104 106
3 105 107 108
3 105 108 109
3 101 103 0
3 96 98 94
3 100 98 97
3 105 109 106
3 1 100 2
3 110 53 5
3 53 3 5
3 4 51 111
3 51 52 111
3 4 111 5
3 6 95 7
3 9 60 112
3 60 113 112
3 13 114 10
3 114 11 10
3 9 112 10
3 12 114 13
3 15 12 14
3 17 15 16
3 19 17 18
3 21 19 20
3 23 21 22
3 26 23 115
3 23 24 115
3 62 64 27
3 64 25 27
3 26 115 27
3 28 116 29
3 31 117 32
3 34 118 35
3 37 67 119
3 67 66 119
3 41 120 38
3 120 39 38
3 37 119 38
3 40 120 41
3 43 40 42
3 45 43 44
3 47 45 46
3 49 47 48
3 51 49 50
3 53 110 54
3 121 122 25
3 25 123 124
3 123 125 124
3 125 126 127
3 126 56 58
3 127 126 58
3 56 128 129
3 128 130 131
3 130 132 131
3 132 133 134
3 131 132 134
3 133 135 134
3 128 131 129
3 124 125 127
3 136 121 25
3 124 136 25
3 56 129 57
3 59 113 60
3 62 70 63
3 65 81 66
3 55 54 68
3 70 72 71
3 72 74 73
3 74 76 75
3 76 59 61
3 69 68 77
3 78 77 79
3 80 79 81
3 82 137 83
3 84 83 138
3 84 138 139
3 138 140 139
3 141 139 140
3 87 142 143
3 142 141 143
3 144 145 146
3 145 87 86
3 146 145 86
3 147 148 149
3 148 144 146
3 149 150 147
3 146 149 148
3 143 141 140
3 143 85 87
3 151 152 153
3 152 154 153
3 154 155 153
3 155 90 156
3 153 155 156
3 90 157 88
3 157 158 159
3 158 160 159
3 160 161 162
3 159 160 162
3 161 163 164
3 161 164 165
3 157 159 88
3 161 165 162
3 89 156 90
3 91 166 92
3 167 168 169
3 170 171 172
3 167 169 170
3 173 174 167
3 170 172 175
3 175 173 167
3 170 175 167
3 176 172 171
3 177 178 179
3 176 171 177
3 177 179 176
3 180 179 178
3 181 182 183
3 184 185 180
3 181 183 184
3 180 178 181
3 181 184 180
3 186 184 183
3 183 187 188
3 188 189 186
3 183 188 186
3 190 189 188
3 191 192 193
3 190 188 191
3 193 194 195
3 195 190 191
3 191 193 195
3 196 194 193
3 197 198 199
3 196 193 197
3 197 199 196
3 200 199 198
3 198 201 202
3 202 203 200
3 198 202 200
3 204 203 202
3 205 206 207
3 204 202 205
3 207 208 204
3 205 207 204
