ply
format ascii 1.0
comment Created by Blender 2.79 (sub 0) - www.blender.org, source file: 'windows.blend'
element vertex 71
property float x
property float y
property float z
property float s
property float t
property uchar red
property uchar green
property uchar blue
element face 58
property list uchar uint vertex_indices
end_header
0.500000 0.450000 0.450000 0.859464 0.648527 255 0 0
0.500000 0.500000 0.500000 0.869891 0.658953 255 0 0
0.500000 -0.500000 0.500000 0.869891 0.450422 255 0 0
0.300000 -0.500000 -0.300000 0.703066 0.492128 255 0 0
-0.500000 -0.500000 -0.500000 0.869891 0.450422 255 0 0
0.500000 -0.500000 -0.500000 0.661359 0.450422 255 0 0
-0.500000 0.500000 -0.500000 0.869891 0.658953 255 0 0
-0.450000 -0.450000 -0.500000 0.859464 0.460848 255 0 0
0.300000 0.500000 -0.300000 0.703066 0.492128 255 0 0
0.500000 0.500000 0.500000 0.661359 0.658953 255 0 0
0.500000 0.500000 -0.500000 0.661359 0.450422 255 0 0
0.500000 -0.500000 0.500000 0.661359 0.450422 255 0 0
0.300000 0.500000 0.500000 0.703066 0.658953 255 0 0
0.300000 -0.500000 0.500000 0.703066 0.450422 255 0 0
0.300000 -0.500000 0.500000 0.869891 0.450422 255 0 0
0.300000 0.500000 0.500000 0.869891 0.658953 255 0 0
0.300000 -0.450000 0.450000 0.859464 0.460848 255 0 0
-0.500000 0.500000 -0.300000 0.869891 0.658953 255 0 0
-0.500000 -0.500000 -0.300000 0.869891 0.450422 255 0 0
-0.450000 0.450000 -0.300000 0.859464 0.648527 255 0 0
-0.500000 0.500000 -0.500000 0.661359 0.658953 255 0 0
-0.500000 -0.500000 -0.300000 0.703066 0.450422 255 0 0
-0.500000 0.500000 -0.300000 0.703066 0.658953 255 0 0
0.500000 -0.450000 0.450000 0.661359 0.460848 255 0 0
0.300000 0.450000 0.450000 0.703066 0.648527 255 0 0
0.500000 0.450000 0.450000 0.661359 0.648527 255 0 0
0.300000 0.450000 -0.300000 0.703066 0.492128 255 0 0
-0.450000 0.450000 -0.500000 0.859464 0.450422 255 0 0
0.500000 0.450000 -0.500000 0.661359 0.450422 255 0 0
-0.450000 -0.450000 -0.500000 0.859464 0.450422 255 0 0
-0.450000 -0.450000 -0.300000 0.859464 0.492128 255 0 0
0.300000 -0.450000 -0.300000 0.703066 0.492128 255 0 0
-0.450000 -0.450000 -0.300000 0.703066 0.460848 255 0 0
-0.450000 0.450000 -0.500000 0.661359 0.648527 255 0 0
-0.450000 0.450000 -0.300000 0.703066 0.648527 255 0 0
0.500000 -0.450000 0.450000 0.859464 0.460848 255 0 0
0.500000 -0.450000 -0.500000 0.661359 0.460848 255 0 0
0.500000 0.450000 -0.500000 0.661359 0.648527 255 0 0
0.500000 0.500000 -0.500000 0.661359 0.658953 255 0 0
0.500000 -0.500000 0.500000 0.661359 0.658953 255 0 0
0.300000 -0.500000 0.500000 0.703066 0.658953 255 0 0
-0.500000 -0.500000 -0.300000 0.869891 0.492128 255 0 0
-0.450000 0.450000 -0.500000 0.859464 0.648527 255 0 0
-0.500000 0.500000 -0.500000 0.869891 0.450422 255 0 0
-0.500000 0.500000 -0.300000 0.869891 0.492128 255 0 0
0.300000 -0.450000 -0.300000 0.703066 0.460848 255 0 0
0.300000 -0.500000 -0.300000 0.703066 0.450422 255 0 0
0.300000 0.500000 -0.300000 0.703066 0.658953 255 0 0
0.300000 0.450000 0.450000 0.859464 0.648527 255 0 0
0.300000 0.450000 -0.300000 0.703066 0.648527 255 0 0
-0.450000 -0.450000 -0.300000 0.859464 0.460848 255 0 0
-0.500000 -0.500000 -0.500000 0.661359 0.450422 255 0 0
0.300000 -0.450000 0.450000 0.703066 0.460848 255 0 0
-0.450000 0.450000 -0.300000 0.859464 0.492128 255 0 0
0.300000 -0.450000 0.450000 0.703066 0.648527 255 0 0
0.500000 -0.450000 0.450000 0.661359 0.648527 255 0 0
0.500000 -0.450000 -0.500000 0.661359 0.450422 255 0 0
-0.450000 -0.450000 -0.500000 0.661359 0.460848 255 0 0
0.475000 -0.450000 0.356250 0.121114 0.612896 0 255 0
0.475000 -0.450000 -0.475000 0.121114 0.367208 0 255 0
0.475000 0.450000 -0.475000 0.257812 0.367208 0 255 0
0.475000 0.450000 0.356250 0.257812 0.612896 0 255 0
0.475000 0.450000 0.450000 0.257812 0.640605 0 255 0
0.475000 -0.337500 0.450000 0.138201 0.640605 0 255 0
0.475000 -0.450000 0.450000 0.121114 0.640605 0 255 0
-0.356250 0.450000 -0.475000 0.257812 0.612896 0 255 0
0.475000 -0.450000 -0.475000 0.394511 0.367208 0 255 0
-0.356250 -0.450000 -0.475000 0.394511 0.612895 0 255 0
-0.450000 -0.450000 -0.475000 0.394511 0.640605 0 255 0
-0.450000 0.337500 -0.475000 0.274900 0.640605 0 255 0
-0.450000 0.450000 -0.475000 0.257812 0.640605 0 255 0
3 0 1 2
3 3 4 5
3 4 6 7
3 8 9 10
3 11 12 13
3 14 15 16
3 17 18 19
3 20 21 22
3 23 24 25
3 26 27 28
3 29 30 31
3 32 33 34
3 2 5 35
3 5 36 35
3 37 38 0
3 38 1 0
3 2 35 0
3 5 39 3
3 39 40 3
3 3 41 4
3 6 38 42
3 38 37 42
3 36 5 7
3 5 4 7
3 6 42 7
3 8 12 9
3 10 43 8
3 43 44 8
3 11 9 12
3 45 46 16
3 46 14 16
3 15 47 48
3 47 49 48
3 15 48 16
3 49 47 19
3 47 17 19
3 18 46 50
3 46 45 50
3 18 50 19
3 20 51 21
3 23 52 24
3 25 24 26
3 26 53 27
3 28 25 26
3 54 55 31
3 55 56 31
3 56 29 31
3 32 57 33
3 58 59 60
3 61 62 63
3 58 60 61
3 63 64 58
3 61 63 58
3 65 60 66
3 67 68 69
3 65 66 67
3 69 70 65
3 67 69 65
