ply
format ascii 1.0
comment Created by Blender 2.79 (sub 0) - www.blender.org, source file: 'windows.blend'
element vertex 59
property float x
property float y
property float z
property float s
property float t
property uchar red
property uchar green
property uchar blue
element face 33
property list uchar uint vertex_indices
end_header
0.480000 0.450000 0.450000 0.133772 0.485335 0 255 0
0.480000 -0.450000 0.450000 0.389665 0.485335 0 255 0
0.480000 -0.450000 -0.450000 0.389665 0.741228 0 255 0
0.480000 0.450000 -0.450000 0.133772 0.741228 0 255 0
0.500000 0.450000 -0.450000 0.834566 0.723697 255 0 0
0.500000 -0.500000 -0.500000 0.842851 0.566281 255 0 0
0.500000 0.500000 -0.500000 0.842851 0.731982 255 0 0
0.500000 -0.450000 0.450000 0.685435 0.574566 255 0 0
0.500000 0.500000 0.500000 0.677149 0.731982 255 0 0
0.500000 -0.500000 0.500000 0.677149 0.566281 255 0 0
0.500000 -0.500000 -0.500000 0.762983 0.494698 255 0 0
0.300000 -0.500000 0.500000 0.733157 0.660399 255 0 0
0.300000 -0.500000 -0.500000 0.733157 0.494698 255 0 0
0.500000 0.500000 -0.500000 0.762983 0.433720 255 0 0
0.300000 -0.500000 -0.500000 0.733157 0.268018 255 0 0
0.300000 0.500000 -0.500000 0.733157 0.433720 255 0 0
0.500000 0.500000 0.500000 0.762983 0.660399 255 0 0
0.300000 0.500000 -0.500000 0.733157 0.494698 255 0 0
0.300000 0.500000 0.500000 0.733157 0.660399 255 0 0
0.500000 -0.500000 0.500000 0.762983 0.566281 255 0 0
0.300000 0.500000 0.500000 0.733157 0.731982 255 0 0
0.300000 -0.500000 0.500000 0.733157 0.566281 255 0 0
0.300000 -0.500000 0.500000 0.677149 0.566281 255 0 0
0.300000 0.450000 0.450000 0.685435 0.723697 255 0 0
0.300000 -0.450000 0.450000 0.685435 0.574566 255 0 0
0.300000 0.450000 -0.450000 0.834566 0.723697 255 0 0
0.300000 0.500000 -0.500000 0.842851 0.731982 255 0 0
0.300000 -0.450000 -0.450000 0.834566 0.574566 255 0 0
0.500000 -0.450000 0.450000 0.762983 0.574566 255 0 0
0.300000 0.450000 0.450000 0.733157 0.723697 255 0 0
0.500000 0.450000 0.450000 0.762983 0.723697 255 0 0
0.300000 0.450000 -0.450000 0.733157 0.502983 255 0 0
0.500000 0.450000 0.450000 0.762983 0.652114 255 0 0
0.300000 0.450000 0.450000 0.733157 0.652114 255 0 0
0.500000 -0.450000 -0.450000 0.762983 0.502983 255 0 0
0.300000 -0.450000 0.450000 0.733157 0.652114 255 0 0
0.500000 -0.450000 0.450000 0.762983 0.652114 255 0 0
0.300000 -0.450000 -0.450000 0.733157 0.574566 255 0 0
0.500000 0.450000 -0.450000 0.762983 0.723697 255 0 0
0.300000 0.450000 -0.450000 0.733157 0.723697 255 0 0
0.500000 -0.450000 -0.450000 0.834566 0.574566 255 0 0
0.500000 0.500000 -0.500000 0.842851 0.433720 255 0 0
0.500000 0.500000 0.500000 0.677149 0.433720 255 0 0
0.500000 0.450000 -0.450000 0.834566 0.425434 255 0 0
0.500000 0.450000 0.450000 0.685435 0.425434 255 0 0
0.500000 0.450000 0.450000 0.685435 0.723697 255 0 0
0.500000 -0.500000 0.500000 0.762983 0.660399 255 0 0
0.500000 -0.500000 -0.500000 0.762983 0.268018 255 0 0
0.500000 0.500000 -0.500000 0.762983 0.494698 255 0 0
0.500000 0.500000 0.500000 0.762983 0.731982 255 0 0
0.300000 -0.500000 -0.500000 0.842851 0.566281 255 0 0
0.300000 0.500000 0.500000 0.677149 0.731982 255 0 0
0.300000 0.500000 -0.500000 0.842851 0.433720 255 0 0
0.300000 -0.500000 -0.500000 0.842851 0.268018 255 0 0
0.300000 -0.450000 -0.450000 0.834566 0.276303 255 0 0
0.300000 -0.450000 0.450000 0.733157 0.574566 255 0 0
0.500000 0.450000 -0.450000 0.762983 0.502983 255 0 0
0.300000 -0.450000 -0.450000 0.733157 0.502983 255 0 0
0.500000 -0.450000 -0.450000 0.762983 0.574566 255 0 0
4 0 1 2 3
3 4 5 6
3 7 8 9
3 10 11 12
3 13 14 15
3 16 17 18
3 19 20 21
3 22 23 24
3 25 26 27
3 28 29 30
3 31 32 33
3 34 35 36
3 37 38 39
3 4 40 5
3 41 42 43
3 42 44 43
3 5 40 9
3 40 7 9
3 7 45 8
3 10 46 11
3 13 47 14
3 16 48 17
3 19 49 20
3 24 27 22
3 27 50 22
3 22 51 23
3 25 23 51
3 52 53 54
3 25 51 26
3 28 55 29
3 31 56 32
3 34 57 35
3 37 58 38
