ply
format ascii 1.0
comment Created by Blender 2.79 (sub 0) - www.blender.org, source file: 'new furniture.blend'
element vertex 557
property float x
property float y
property float z
property float s
property float t
property uchar red
property uchar green
property uchar blue
element face 548
property list uchar uint vertex_indices
end_header
0.484121 -0.413043 0.500000 0.312500 0.089844 0 255 0
0.340370 -0.456522 0.500000 0.406250 0.042969 0 255 0
0.484121 -0.456522 0.500000 0.312500 0.042969 0 255 0
0.491686 -0.413043 -0.495000 0.000000 0.089844 0 255 0
0.491686 -0.456522 -0.450000 0.046875 0.042969 0 255 0
0.491686 -0.456522 -0.495000 0.000000 0.042969 0 255 0
0.491687 -0.413043 0.450000 0.953125 0.089844 0 255 0
0.491687 -0.456522 0.495000 1.000000 0.042969 0 255 0
0.491687 -0.456522 0.450000 0.953125 0.042969 0 255 0
-0.416213 0.456522 -0.450000 0.914062 0.042969 0 255 0
-0.446439 0.456522 -0.495024 0.933594 0.003906 0 255 0
-0.416176 0.456522 -0.495024 0.914062 0.003906 0 255 0
0.340370 -0.456522 -0.450000 0.406250 0.042969 0 255 0
-0.264896 -0.500000 -0.450000 0.812500 -0.000000 0 255 0
-0.264896 -0.456522 -0.450000 0.812500 0.042969 0 255 0
-0.416213 -0.456522 -0.400000 0.914062 0.089844 0 255 0
-0.416213 -0.456522 -0.450000 0.914062 0.042969 0 255 0
-0.264896 -0.456522 -0.400000 0.812500 0.089844 0 255 0
0.340370 -0.456522 -0.000000 0.406250 0.433594 0 255 0
-0.264896 -0.456522 0.000000 0.812500 0.433594 0 255 0
-0.264896 -0.456522 0.400000 0.812500 0.781250 0 255 0
0.491686 -0.456522 -0.450000 0.308594 0.042969 0 255 0
0.340370 -0.456522 -0.400000 0.406250 0.089844 0 255 0
0.340370 -0.456522 -0.500000 0.406250 -0.000000 0 255 0
-0.264896 -0.456522 -0.500000 0.812500 -0.000000 0 255 0
-0.416213 -0.413043 -0.450000 0.046875 0.089844 0 255 0
-0.416213 -0.456522 -0.495000 0.000000 0.042969 0 255 0
-0.416213 -0.456522 -0.450000 0.046875 0.042969 0 255 0
-0.416213 -0.456522 0.000000 0.914062 0.433594 0 255 0
-0.416213 -0.456522 0.400000 0.914062 0.781250 0 255 0
-0.264896 0.495652 -0.500000 0.812500 0.992188 0 255 0
0.340370 0.456522 -0.500000 0.406250 0.953125 0 255 0
-0.264896 0.456522 -0.500000 0.812500 0.953125 0 255 0
0.491686 0.495652 -0.495000 0.000000 0.992188 0 255 0
0.491686 0.456522 -0.450000 0.046875 0.953125 0 255 0
0.491686 0.456522 -0.495000 0.000000 0.953125 0 255 0
0.491687 -0.456522 -0.000000 0.308594 0.433594 0 255 0
0.340370 -0.456522 0.400000 0.406250 0.781250 0 255 0
-0.416213 0.456522 -0.400000 0.914062 0.089844 0 255 0
-0.446476 0.456522 -0.450000 0.933594 0.042969 0 255 0
0.491687 0.495652 0.400000 0.902344 0.992188 0 255 0
0.491687 0.456522 0.450000 0.953125 0.953125 0 255 0
0.491687 0.456522 0.400000 0.902344 0.953125 0 255 0
0.340370 -0.456522 0.450000 0.953125 0.042969 0 255 0
0.340370 -0.500000 0.400000 0.902344 -0.000000 0 255 0
0.340370 -0.456522 0.400000 0.902344 0.042969 0 255 0
-0.264896 -0.456522 0.450000 0.812500 0.824219 0 255 0
-0.416213 -0.456522 0.450000 0.914062 0.824219 0 255 0
0.340370 0.495652 -0.500000 0.406250 0.992188 0 255 0
0.484121 0.456522 -0.500000 0.312500 0.953125 0 255 0
0.340370 -0.413043 -0.500000 0.406250 0.089844 0 255 0
0.484121 -0.456522 -0.500000 0.312500 0.042969 0 255 0
0.340370 -0.456522 -0.500000 0.406250 0.042969 0 255 0
-0.408647 0.413044 -0.500000 0.906250 0.906250 0 255 0
-0.264896 -0.413043 -0.500000 0.812500 0.089844 0 255 0
-0.408647 -0.413043 -0.500000 0.906250 0.089844 0 255 0
0.491687 0.456522 -0.000000 0.500000 0.953125 0 255 0
0.491686 0.495652 -0.400000 0.097656 0.992188 0 255 0
0.491687 0.495652 -0.000000 0.500000 0.992188 0 255 0
-0.264896 -0.456522 -0.500000 0.812500 0.042969 0 255 0
-0.408647 -0.456522 -0.500000 0.906250 0.042969 0 255 0
-0.446476 0.456522 0.000000 0.933594 0.433594 0 255 0
-0.446476 0.456522 -0.400000 0.933594 0.089844 0 255 0
0.491687 -0.456522 0.400000 0.308594 0.781250 0 255 0
0.340370 -0.456522 0.450000 0.406250 0.824219 0 255 0
0.491686 -0.456522 -0.400000 0.308594 0.089844 0 255 0
-0.416213 0.456522 0.000000 0.914062 0.433594 0 255 0
-0.446476 0.456522 0.400000 0.933594 0.781250 0 255 0
0.484121 0.495652 0.500000 0.312500 0.992188 0 255 0
0.340370 0.456522 0.500000 0.406250 0.953125 0 255 0
0.484121 0.456522 0.500000 0.312500 0.953125 0 255 0
0.340370 0.495652 0.500000 0.406250 0.992188 0 255 0
-0.264896 0.456522 0.500000 0.812500 0.953125 0 255 0
-0.264896 -0.413043 0.500000 0.812500 0.089844 0 255 0
-0.408647 -0.456522 0.500000 0.906250 0.042969 0 255 0
-0.264896 -0.456522 0.500000 0.812500 0.042969 0 255 0
-0.264896 -0.456522 0.450000 0.812500 0.042969 0 255 0
0.340370 -0.500000 0.450000 0.406250 -0.000000 0 255 0
0.340370 -0.456522 0.450000 0.406250 0.042969 0 255 0
0.340370 -0.456522 0.500000 0.406250 0.867188 0 255 0
-0.264896 -0.456522 0.500000 0.812500 0.867188 0 255 0
-0.264896 -0.456522 -0.400000 0.812500 0.042969 0 255 0
0.340370 -0.500000 -0.400000 0.406250 -0.000000 0 255 0
0.340370 -0.456522 -0.400000 0.406250 0.042969 0 255 0
0.491687 0.495652 0.450000 0.953125 0.992188 0 255 0
0.491687 0.456522 0.495000 1.000000 0.953125 0 255 0
-0.264896 -0.456522 -0.450000 0.046875 0.042969 0 255 0
-0.264896 -0.500000 -0.400000 0.097656 -0.000000 0 255 0
-0.264896 -0.456522 -0.400000 0.097656 0.042969 0 255 0
0.340370 -0.456522 -0.400000 0.097656 0.042969 0 255 0
0.340370 -0.500000 -0.450000 0.046875 -0.000000 0 255 0
0.340370 -0.456522 -0.450000 0.046875 0.042969 0 255 0
-0.264896 -0.456522 0.400000 0.902344 0.042969 0 255 0
-0.264896 -0.500000 0.450000 0.953125 -0.000000 0 255 0
-0.264896 -0.456522 0.450000 0.953125 0.042969 0 255 0
0.340370 -0.456522 0.400000 0.406250 0.042969 0 255 0
-0.264896 -0.500000 0.400000 0.812500 -0.000000 0 255 0
-0.264896 -0.456522 0.400000 0.812500 0.042969 0 255 0
0.340370 -0.500000 0.400000 0.406250 0.781250 0 255 0
-0.264896 -0.500000 0.450000 0.812500 0.824219 0 255 0
-0.264896 -0.500000 0.400000 0.812500 0.781250 0 255 0
0.340370 -0.500000 -0.450000 0.406250 0.042969 0 255 0
-0.264896 -0.500000 -0.400000 0.812500 0.089844 0 255 0
-0.264896 -0.500000 -0.450000 0.812500 0.042969 0 255 0
0.491686 0.456522 -0.400000 0.097656 0.953125 0 255 0
0.491687 0.413044 -0.000000 0.500000 0.906250 0 255 0
0.491686 0.413044 -0.400000 0.097656 0.906250 0 255 0
-0.408647 0.460848 -0.500000 0.906250 0.957031 0 255 0
0.340370 0.413044 -0.500000 0.406250 0.906250 0 255 0
-0.264896 0.413044 -0.500000 0.812500 0.906250 0 255 0
-0.416213 0.456522 -0.450000 0.046875 0.953125 0 255 0
-0.416176 0.413044 -0.495024 0.000000 0.906250 0 255 0
-0.416213 0.413044 -0.450000 0.046875 0.906250 0 255 0
-0.264896 0.413044 0.500000 0.812500 0.906250 0 255 0
0.340370 0.413044 0.500000 0.406250 0.906250 0 255 0
0.491687 0.413044 0.495000 1.000000 0.906250 0 255 0
0.491687 0.413044 0.450000 0.953125 0.906250 0 255 0
0.491687 0.413044 0.400000 0.902344 0.906250 0 255 0
-0.416176 0.413044 -0.495024 0.914062 0.906250 0 255 0
-0.416213 -0.413043 -0.495000 0.914062 0.089844 0 255 0
0.491686 0.495652 -0.450000 0.046875 0.992188 0 255 0
0.484121 0.413044 -0.500000 0.312500 0.906250 0 255 0
0.491686 0.413044 -0.450000 0.046875 0.906250 0 255 0
-0.416213 0.456522 0.495000 1.000000 0.953125 0 255 0
-0.416213 0.413044 0.450000 0.953125 0.906250 0 255 0
-0.416213 0.413044 0.495000 1.000000 0.906250 0 255 0
-0.416213 -0.413043 0.495000 1.000000 0.089844 0 255 0
-0.416213 -0.456522 0.450000 0.953125 0.042969 0 255 0
-0.416213 -0.456522 0.495000 1.000000 0.042969 0 255 0
-0.416213 -0.413043 -0.400000 0.097656 0.089844 0 255 0
-0.416213 -0.456522 0.000000 0.500000 0.042969 0 255 0
-0.416213 -0.413043 0.000000 0.500000 0.089844 0 255 0
0.491686 -0.413043 -0.450000 0.046875 0.089844 0 255 0
0.491686 -0.456522 -0.400000 0.097656 0.042969 0 255 0
0.484121 0.413044 0.500000 0.312500 0.906250 0 255 0
-0.416213 -0.413043 0.450000 0.953125 0.089844 0 255 0
-0.416213 -0.456522 0.400000 0.902344 0.042969 0 255 0
-0.416213 -0.413043 0.400000 0.902344 0.089844 0 255 0
0.484121 -0.456522 -0.500000 0.312500 -0.000000 0 255 0
-0.416213 -0.456522 -0.400000 0.097656 0.042969 0 255 0
-0.408647 0.413044 0.500000 0.906250 0.906250 0 255 0
0.491687 -0.413043 0.400000 0.902344 0.089844 0 255 0
0.491687 -0.456522 0.400000 0.902344 0.042969 0 255 0
0.491687 -0.413043 -0.000000 0.500000 0.089844 0 255 0
0.491687 -0.456522 -0.000000 0.500000 0.042969 0 255 0
0.491687 -0.456522 0.450000 0.308594 0.824219 0 255 0
0.491687 -0.456522 0.495000 0.308594 0.863281 0 255 0
0.484121 -0.456522 0.500000 0.312500 0.867188 0 255 0
0.340370 -0.413043 0.500000 0.406250 0.089844 0 255 0
-0.408647 -0.456522 -0.500000 0.906250 -0.000000 0 255 0
0.491686 0.413044 -0.495000 0.000000 0.906250 0 255 0
-0.416213 -0.413043 0.495000 0.914062 0.089844 0 255 0
-0.408647 -0.413043 0.500000 0.906250 0.089844 0 255 0
-0.416213 0.456522 0.495000 0.914062 0.863281 0 255 0
-0.446476 0.456522 0.450000 0.933594 0.824219 0 255 0
-0.416213 0.456522 0.450000 0.914062 0.824219 0 255 0
0.491686 -0.456522 -0.495000 0.308594 0.042969 0 255 0
0.484121 -0.413043 -0.500000 0.312500 0.089844 0 255 0
0.491686 -0.413043 -0.495000 0.308594 0.089844 0 255 0
0.491687 -0.413043 0.495000 0.308594 0.089844 0 255 0
-0.264896 0.495652 0.500000 0.812500 0.992188 0 255 0
-0.408647 0.495652 0.500000 0.906250 0.992188 0 255 0
-0.408647 0.460848 0.500000 0.906250 0.957031 0 255 0
0.491686 0.456522 -0.495000 0.308594 0.953125 0 255 0
0.484121 0.495652 -0.500000 0.312500 0.992188 0 255 0
0.491686 0.495652 -0.495000 0.308594 0.992188 0 255 0
0.491687 0.495652 0.495000 0.308594 0.992188 0 255 0
-0.416213 0.413044 0.000000 0.500000 0.906250 0 255 0
-0.416213 0.456522 -0.400000 0.097656 0.953125 0 255 0
-0.416213 0.413044 -0.400000 0.097656 0.906250 0 255 0
-0.416213 -0.456522 0.495000 0.914062 0.042969 0 255 0
0.491686 -0.413043 -0.400000 0.097656 0.089844 0 255 0
-0.416213 0.456522 0.400000 0.914062 0.781250 0 255 0
-0.408647 -0.456522 0.500000 0.906250 0.867188 0 255 0
-0.416213 0.456522 0.450000 0.953125 0.953125 0 255 0
-0.416213 0.413044 0.400000 0.902344 0.906250 0 255 0
0.491686 0.413044 -0.495000 0.308594 0.906250 0 255 0
-0.478050 0.062990 0.095000 0.953125 0.515625 0 255 0
-0.447787 0.062990 0.105000 0.933594 0.523438 0 255 0
-0.478050 0.062990 0.105000 0.953125 0.523438 0 255 0
-0.478050 0.132555 0.110000 0.953125 0.628906 0 255 0
-0.447787 0.145599 0.110000 0.933594 0.644531 0 255 0
-0.478050 0.145599 0.110000 0.953125 0.644531 0 255 0
-0.500748 0.132555 0.110000 0.968750 0.628906 0 255 0
-0.478050 0.080382 0.110000 0.953125 0.578125 0 255 0
-0.478050 0.149947 0.105000 0.953125 0.523438 0 255 0
-0.447787 0.149947 0.095000 0.933594 0.515625 0 255 0
-0.478050 0.149947 0.095000 0.953125 0.515625 0 255 0
-0.500748 0.080382 0.090000 0.968750 0.578125 0 255 0
-0.478050 0.067338 0.090000 0.953125 0.566406 0 255 0
-0.500748 0.067338 0.090000 0.968750 0.566406 0 255 0
-0.478050 0.145599 0.090000 0.953125 0.644531 0 255 0
-0.447787 0.132555 0.090000 0.933594 0.628906 0 255 0
-0.478050 0.132555 0.090000 0.953125 0.628906 0 255 0
-0.478050 0.080382 0.090000 0.953125 0.578125 0 255 0
-0.447787 0.067338 0.090000 0.933594 0.566406 0 255 0
-0.447787 0.067338 0.110000 0.609375 0.566406 255 255 255
-0.447787 0.062990 0.105000 0.605469 0.562500 255 255 255
-0.447787 0.067338 0.090000 0.589844 0.566406 255 255 255
-0.508313 0.149947 0.105000 0.605469 0.648438 0 255 0
-0.508313 0.132555 0.095000 0.597656 0.628906 0 255 0
-0.508313 0.132555 0.105000 0.605469 0.628906 0 255 0
-0.500748 0.132555 0.090000 0.968750 0.628906 0 255 0
-0.478050 0.067338 0.110000 0.953125 0.566406 0 255 0
-0.447787 0.080382 0.110000 0.933594 0.578125 0 255 0
-0.508313 0.080382 0.105000 0.605469 0.578125 0 255 0
-0.478050 0.132555 0.090000 0.589844 0.628906 255 255 255
-0.478050 0.080382 0.110000 0.609375 0.578125 255 255 255
-0.478050 0.080382 0.090000 0.589844 0.578125 255 255 255
-0.447787 0.145599 0.110000 0.609375 0.644531 255 255 255
-0.447787 0.132555 0.110000 0.609375 0.628906 255 255 255
-0.447787 0.145599 0.090000 0.589844 0.644531 255 255 255
-0.500748 0.067338 0.110000 0.968750 0.566406 0 255 0
-0.478050 0.132555 0.090000 0.953125 0.511719 0 255 0
-0.447787 0.132555 0.110000 0.933594 0.531250 0 255 0
-0.478050 0.132555 0.110000 0.953125 0.531250 0 255 0
-0.508313 0.149947 0.095000 0.972656 0.515625 0 255 0
-0.508313 0.149947 0.105000 0.972656 0.523438 0 255 0
-0.500748 0.145599 0.090000 0.968750 0.644531 0 255 0
-0.478050 0.080382 0.110000 0.953125 0.531250 0 255 0
-0.447787 0.080382 0.090000 0.933594 0.511719 0 255 0
-0.478050 0.080382 0.090000 0.953125 0.511719 0 255 0
-0.508313 0.062990 0.095000 0.597656 0.562500 0 255 0
-0.508313 0.062990 0.105000 0.605469 0.562500 0 255 0
-0.500748 0.067338 0.110000 0.968750 0.531250 0 255 0
-0.508313 0.062990 0.105000 0.972656 0.523438 0 255 0
-0.478050 0.149947 0.105000 0.953125 0.523438 86 255 86
-0.500748 0.145599 0.110000 0.968750 0.531250 140 255 140
-0.478050 0.145599 0.110000 0.953125 0.531250 94 255 94
-0.500748 0.067338 0.110000 0.609375 0.566406 0 255 0
-0.500748 0.080382 0.110000 0.609375 0.578125 0 255 0
-0.500748 0.067338 0.090000 0.589844 0.566406 0 255 0
-0.508313 0.080382 0.095000 0.597656 0.578125 0 255 0
-0.500748 0.080382 0.090000 0.589844 0.578125 0 255 0
-0.500748 0.067338 0.090000 0.968750 0.511719 0 255 0
-0.478050 0.067338 0.090000 0.953125 0.511719 0 255 0
-0.500748 0.145599 0.090000 0.968750 0.511719 0 255 0
-0.500748 0.145599 0.110000 0.609375 0.644531 0 255 0
-0.500748 0.132555 0.110000 0.609375 0.628906 0 255 0
-0.500748 0.145599 0.090000 0.589844 0.644531 0 255 0
-0.508313 0.149947 0.095000 0.597656 0.648438 0 255 0
-0.500748 0.132555 0.090000 0.589844 0.628906 0 255 0
-0.478050 0.067338 0.110000 0.953125 0.531250 0 255 0
-0.447787 0.067338 0.090000 0.933594 0.511719 0 255 0
-0.447787 0.062990 0.095000 0.933594 0.515625 0 255 0
-0.478050 0.145599 0.090000 0.953125 0.511719 0 255 0
-0.447787 0.145599 0.110000 0.933594 0.531250 0 255 0
-0.478050 0.145599 0.110000 0.953125 0.531250 0 255 0
-0.478050 0.062990 -0.105000 0.953125 0.343750 0 255 0
-0.447787 0.062990 -0.095000 0.933594 0.351562 0 255 0
-0.478050 0.062990 -0.095000 0.953125 0.351562 0 255 0
-0.478050 0.149947 -0.095000 0.953125 0.351562 0 255 0
-0.508313 0.149947 -0.105000 0.972656 0.343750 0 255 0
-0.508313 0.149947 -0.095000 0.972656 0.351562 0 255 0
-0.508313 0.132555 -0.095000 0.402344 0.628906 0 255 0
-0.500748 0.145599 -0.090000 0.410156 0.644531 0 255 0
-0.508313 0.149947 -0.095000 0.402344 0.648438 0 255 0
-0.478050 0.132555 -0.110000 0.390625 0.628906 255 255 255
-0.478050 0.080382 -0.090000 0.410156 0.578125 255 255 255
-0.478050 0.080382 -0.110000 0.390625 0.578125 255 255 255
-0.478050 0.067338 -0.090000 0.953125 0.355469 0 255 0
-0.500748 0.145599 -0.110000 0.390625 0.644531 0 255 0
-0.508313 0.132555 -0.105000 0.394531 0.628906 0 255 0
-0.508313 0.149947 -0.105000 0.394531 0.648438 0 255 0
-0.447787 0.149947 -0.105000 0.933594 0.343750 0 255 0
-0.478050 0.145599 -0.110000 0.953125 0.339844 0 255 0
-0.478050 0.149947 -0.105000 0.953125 0.343750 0 255 0
-0.500748 0.067338 -0.090000 0.968750 0.355469 0 255 0
-0.508313 0.062990 -0.095000 0.972656 0.351562 0 255 0
-0.478050 0.145599 -0.110000 0.953125 0.644531 0 255 0
-0.447787 0.132555 -0.110000 0.933594 0.628906 0 255 0
-0.478050 0.132555 -0.110000 0.953125 0.628906 0 255 0
-0.500748 0.067338 -0.110000 0.968750 0.339844 0 255 0
-0.478050 0.067338 -0.110000 0.953125 0.339844 0 255 0
-0.500748 0.067338 -0.110000 0.390625 0.566406 0 255 0
-0.508313 0.080382 -0.105000 0.394531 0.578125 0 255 0
-0.500748 0.080382 -0.110000 0.390625 0.578125 0 255 0
-0.447787 0.067338 -0.110000 0.933594 0.339844 0 255 0
-0.447787 0.062990 -0.105000 0.933594 0.343750 0 255 0
-0.500748 0.145599 -0.110000 0.968750 0.339844 0 255 0
-0.478050 0.132555 -0.090000 0.953125 0.628906 0 255 0
-0.447787 0.145599 -0.090000 0.933594 0.644531 0 255 0
-0.478050 0.145599 -0.090000 0.953125 0.644531 0 255 0
-0.500748 0.145599 -0.090000 0.968750 0.355469 0 255 0
-0.478050 0.145599 -0.090000 0.953125 0.355469 0 255 0
-0.508313 0.080382 -0.095000 0.402344 0.578125 0 255 0
-0.500748 0.067338 -0.090000 0.410156 0.566406 0 255 0
-0.500748 0.080382 -0.090000 0.410156 0.578125 0 255 0
-0.500748 0.132555 -0.110000 0.390625 0.628906 0 255 0
-0.478050 0.080382 -0.090000 0.953125 0.578125 0 255 0
-0.500748 0.067338 -0.090000 0.968750 0.566406 0 255 0
-0.478050 0.067338 -0.090000 0.953125 0.566406 0 255 0
-0.500748 0.132555 -0.090000 0.410156 0.628906 0 255 0
-0.447787 0.145599 -0.090000 0.933594 0.355469 0 255 0
-0.447787 0.067338 -0.090000 0.410156 0.566406 255 255 255
-0.447787 0.062990 -0.095000 0.402344 0.562500 255 255 255
-0.447787 0.067338 -0.110000 0.390625 0.566406 255 255 255
-0.500748 0.132555 -0.090000 0.968750 0.628906 0 255 0
-0.500748 0.080382 -0.110000 0.968750 0.578125 0 255 0
-0.500748 0.132555 -0.110000 0.968750 0.628906 0 255 0
-0.478050 0.067338 -0.110000 0.953125 0.566406 0 255 0
-0.500748 0.067338 -0.110000 0.968750 0.566406 0 255 0
-0.478050 0.080382 -0.090000 0.953125 0.355469 0 255 0
-0.447787 0.080382 -0.110000 0.933594 0.339844 0 255 0
-0.478050 0.080382 -0.110000 0.953125 0.339844 0 255 0
-0.478050 0.132555 -0.110000 0.953125 0.339844 0 255 0
-0.447787 0.132555 -0.090000 0.933594 0.355469 0 255 0
-0.478050 0.132555 -0.090000 0.953125 0.355469 0 255 0
-0.478050 0.080382 -0.110000 0.953125 0.578125 0 255 0
-0.447787 0.067338 -0.110000 0.933594 0.566406 0 255 0
-0.508313 0.062990 -0.105000 0.394531 0.562500 0 255 0
-0.508313 0.062990 -0.095000 0.402344 0.562500 0 255 0
-0.447787 0.145599 -0.090000 0.410156 0.644531 255 255 255
-0.447787 0.132555 -0.090000 0.410156 0.628906 255 255 255
-0.447787 0.145599 -0.110000 0.390625 0.644531 255 255 255
-0.447787 0.080382 -0.090000 0.933594 0.578125 0 255 0
-0.500748 0.145599 -0.110000 0.968750 0.644531 0 255 0
0.491687 0.456522 0.495000 0.308594 0.953125 0 255 0
0.491687 0.413044 0.495000 0.308594 0.906250 0 255 0
-0.408647 0.456522 -0.500000 0.906250 0.953125 0 255 0
-0.416213 0.456522 0.495000 0.914062 0.953125 0 255 0
-0.408647 0.456522 0.500000 0.906250 0.953125 0 255 0
-0.416176 0.456522 -0.495024 0.914062 0.953125 255 255 255
-0.408647 0.460848 -0.500000 0.906250 0.957031 255 255 255
-0.408647 0.456522 -0.500000 0.906250 0.953125 255 255 255
-0.438910 0.460848 0.500000 0.929688 0.867188 0 255 0
-0.408647 0.460848 0.500000 0.906250 0.867188 0 255 0
-0.438910 0.460848 -0.500000 0.929688 -0.000000 0 255 0
-0.416213 0.413044 0.495000 0.914062 0.906250 0 255 0
-0.416176 0.456522 -0.495024 0.914062 0.953125 0 255 0
0.491687 -0.413043 0.495000 1.000000 0.089844 0 255 0
-0.416213 -0.413043 -0.495000 0.000000 0.089844 0 255 0
-0.416213 0.456522 0.400000 0.902344 0.953125 0 255 0
-0.416213 0.456522 0.000000 0.500000 0.953125 0 255 0
-0.416213 0.413044 0.000000 0.914062 0.906250 0 255 0
-0.446476 -0.413043 0.000000 0.933594 0.089844 125 255 125
-0.416213 -0.413043 0.000000 0.914062 0.089844 63 255 63
-0.416213 -0.413043 0.000000 0.914062 0.089844 0 255 0
-0.446476 0.413044 0.000000 0.933594 0.906250 0 255 0
-0.454042 -0.408696 0.005000 0.906250 0.503906 255 0 0
-0.454042 0.408696 0.400000 0.097656 0.902344 255 0 0
-0.454042 0.408696 0.005000 0.097656 0.503906 255 0 0
-0.416213 0.413044 -0.400000 0.914062 0.089844 255 0 0
-0.446476 0.413044 0.000000 0.933594 0.433594 255 0 0
-0.416213 0.413044 0.000000 0.914062 0.433594 255 0 0
-0.446476 0.413044 0.400000 0.933594 0.781250 255 0 0
-0.416213 0.413044 0.400000 0.914062 0.781250 255 0 0
-0.454042 -0.408696 -0.005000 0.906250 0.496094 255 0 0
-0.454042 0.408696 -0.400000 0.097656 0.097656 255 0 0
-0.454042 -0.408696 -0.400000 0.906250 0.097656 255 0 0
-0.416213 -0.413043 -0.450000 0.914062 0.089844 255 0 0
-0.446476 0.413044 -0.450000 0.933594 0.906250 255 0 0
-0.416213 0.413044 -0.450000 0.914062 0.906250 255 0 0
-0.454042 -0.408696 -0.445000 0.906250 0.050781 255 0 0
-0.454042 0.408696 -0.445000 0.097656 0.050781 255 0 0
-0.416213 0.413044 -0.450000 0.914062 0.042969 255 0 0
-0.446476 0.413044 -0.400000 0.933594 0.089844 255 0 0
-0.416213 -0.413043 -0.400000 0.914062 0.089844 255 0 0
-0.446476 -0.413043 -0.450000 0.933594 0.042969 255 0 0
-0.416213 -0.413043 -0.450000 0.914062 0.042969 255 0 0
-0.416213 -0.413043 0.450000 0.914062 0.824219 255 0 0
-0.446476 -0.413043 0.400000 0.933594 0.781250 255 0 0
-0.416213 -0.413043 0.400000 0.914062 0.781250 255 0 0
-0.416213 0.413044 0.450000 0.914062 0.906250 255 0 0
-0.446476 -0.413043 0.450000 0.933594 0.089844 255 0 0
-0.416213 -0.413043 0.450000 0.914062 0.089844 255 0 0
-0.454042 0.408696 0.445000 0.097656 0.949219 255 0 0
-0.454042 -0.408696 0.400000 0.906250 0.902344 255 0 0
-0.454042 -0.408696 0.445000 0.906250 0.949219 255 0 0
-0.446476 0.413044 0.450000 0.933594 0.824219 255 0 0
-0.416213 0.413044 0.450000 0.914062 0.824219 255 0 0
-0.416213 -0.413043 0.000000 0.914062 0.433594 255 0 0
-0.446476 -0.413043 0.000000 0.933594 0.433594 255 0 0
-0.454042 -0.408696 -0.445000 0.050781 0.093750 255 0 0
-0.446476 -0.413043 -0.400000 0.097656 0.089844 255 0 0
-0.454042 -0.408696 -0.400000 0.097656 0.093750 255 0 0
-0.454042 -0.408696 -0.005000 0.496094 0.093750 255 0 0
-0.446476 -0.413043 0.000000 0.500000 0.089844 255 0 0
-0.446476 -0.413043 -0.450000 0.933594 0.089844 255 0 0
-0.454042 0.408696 -0.445000 0.937500 0.902344 255 0 0
-0.446476 0.413044 0.000000 0.500000 0.906250 255 0 0
-0.454042 0.408696 -0.005000 0.496094 0.902344 255 0 0
-0.446476 0.413044 -0.400000 0.097656 0.906250 255 0 0
-0.454042 0.408696 -0.445000 0.937500 0.050781 255 0 0
-0.446476 0.413044 -0.450000 0.933594 0.042969 255 0 0
-0.454042 -0.408696 0.445000 0.949219 0.093750 255 0 0
-0.446476 -0.413043 0.400000 0.902344 0.089844 255 0 0
-0.446476 -0.413043 0.450000 0.953125 0.089844 255 0 0
-0.454042 -0.408696 0.005000 0.503906 0.093750 255 0 0
-0.454042 -0.408696 0.400000 0.902344 0.093750 255 0 0
-0.454042 -0.408696 0.445000 0.937500 0.093750 255 0 0
-0.446476 0.413044 0.450000 0.933594 0.906250 255 0 0
-0.454042 0.408696 0.445000 0.937500 0.902344 255 0 0
-0.446476 -0.413043 0.000000 0.500000 0.089844 255 0 0
-0.454042 0.408696 0.005000 0.503906 0.902344 255 0 0
-0.446476 0.413044 0.000000 0.500000 0.906250 255 0 0
-0.454042 0.408696 0.445000 0.937500 0.820312 255 0 0
-0.454042 0.408696 0.005000 0.937500 0.437500 255 0 0
-0.446476 0.413044 0.000000 0.933594 0.433594 255 0 0
-0.446476 -0.413043 0.000000 0.933594 0.433594 255 0 0
-0.446476 -0.413043 -0.400000 0.933594 0.089844 255 0 0
-0.408647 0.500000 0.000000 0.906250 0.433594 0 0 255
-0.264896 0.500000 0.400000 0.812500 0.781250 0 0 255
-0.264896 0.500000 0.000000 0.812500 0.433594 0 0 255
-0.264896 0.500000 0.450000 0.812500 0.824219 0 0 255
-0.408647 0.500000 0.495000 0.906250 0.863281 0 0 255
-0.264896 0.500000 0.495000 0.812500 0.863281 0 0 255
-0.408647 0.500000 -0.400000 0.906250 0.089844 0 0 255
-0.438910 0.500000 0.000000 0.929688 0.433594 0 0 255
-0.408647 0.500000 0.400000 0.906250 0.781250 0 0 255
0.340370 0.500000 0.450000 0.406250 0.824219 0 0 255
0.340370 0.500000 0.400000 0.406250 0.781250 0 0 255
0.340370 0.500000 0.495000 0.406250 0.863281 0 0 255
-0.264896 0.500000 -0.400000 0.812500 0.089844 0 0 255
0.484121 0.500000 -0.000000 0.312500 0.433594 0 0 255
0.484121 0.500000 0.400000 0.312500 0.781250 0 0 255
0.484121 0.500000 0.450000 0.312500 0.824219 0 0 255
-0.264896 0.500000 -0.450000 0.812500 0.042969 0 0 255
0.340370 0.500000 -0.400000 0.406250 0.089844 0 0 255
0.340370 0.500000 -0.450000 0.406250 0.042969 0 0 255
0.484121 0.500000 -0.400000 0.312500 0.089844 0 0 255
0.340370 0.500000 -0.000000 0.406250 0.433594 0 0 255
-0.408647 0.500000 -0.450000 0.906250 0.042969 0 0 255
-0.438910 0.500000 -0.400000 0.929688 0.089844 0 0 255
0.484121 0.500000 -0.450000 0.312500 0.042969 0 0 255
-0.408647 0.500000 -0.495000 0.906250 0.003906 0 0 255
-0.264896 0.500000 -0.495000 0.812500 0.003906 0 0 255
0.340370 0.500000 -0.495000 0.406250 0.003906 0 0 255
0.484121 0.500000 -0.495000 0.312500 0.003906 0 0 255
0.484121 0.500000 0.495000 0.312500 0.863281 0 0 255
-0.408647 0.500000 0.450000 0.906250 0.824219 0 0 255
-0.438910 0.500000 0.495000 0.929688 0.863281 0 0 255
0.491687 0.495652 0.495000 0.308594 0.863281 0 1 254
0.484121 0.495652 0.500000 0.312500 0.867188 0 1 254
0.484121 0.495652 -0.500000 0.312500 -0.000000 0 0 255
0.491686 0.495652 -0.495000 0.308594 0.003906 0 0 255
-0.408647 0.495652 -0.500000 0.906250 -0.000000 0 0 255
-0.438910 0.500000 -0.495000 0.929688 0.003906 0 0 255
0.340370 0.495652 -0.500000 0.406250 -0.000000 0 0 255
0.491687 0.495652 0.450000 0.308594 0.824219 0 0 255
-0.264896 0.495652 0.500000 0.812500 0.867188 0 0 255
0.340370 0.495652 0.500000 0.406250 0.867188 0 0 255
0.484121 0.495652 0.500000 0.312500 0.867188 0 0 255
-0.264896 0.495652 -0.500000 0.812500 -0.000000 0 0 255
0.491686 0.495652 -0.450000 0.308594 0.042969 0 0 255
-0.438910 0.500000 0.450000 0.929688 0.824219 0 0 255
0.491687 0.495652 0.400000 0.308594 0.781250 0 0 255
-0.438910 0.500000 0.400000 0.929688 0.781250 0 0 255
-0.408647 0.460848 -0.500000 0.906250 0.957031 0 0 255
-0.438910 0.495652 -0.500000 0.929688 0.992188 0 0 255
-0.408647 0.495652 -0.500000 0.906250 0.992188 0 0 255
0.491687 0.495652 -0.000000 0.308594 0.433594 0 0 255
-0.438910 0.495652 0.500000 0.929688 0.867188 0 0 255
-0.408647 0.495652 0.500000 0.906250 0.867188 0 0 255
0.491686 0.495652 -0.400000 0.308594 0.089844 0 0 255
-0.438910 0.460848 0.500000 0.929688 0.957031 0 0 255
-0.446476 0.495652 0.495000 0.933594 0.992188 0 0 255
-0.446439 0.456522 0.495024 0.933594 0.953125 0 0 255
-0.408647 0.495652 0.500000 0.906250 0.992188 0 0 255
-0.408647 0.460848 0.500000 0.906250 0.957031 0 0 255
-0.446476 0.495652 0.495000 1.000000 0.992188 0 0 255
-0.446476 0.456522 0.450000 0.953125 0.953125 0 0 255
-0.446439 0.456522 0.495024 1.000000 0.953125 0 0 255
-0.446476 0.495652 -0.400000 0.097656 0.992188 0 0 255
-0.446476 0.456522 -0.450000 0.046875 0.953125 0 0 255
-0.446476 0.456522 -0.400000 0.097656 0.953125 0 0 255
-0.446476 0.495652 0.400000 0.902344 0.992188 0 0 255
-0.446476 0.456522 0.000000 0.500000 0.953125 0 0 255
-0.446476 0.456522 0.400000 0.902344 0.953125 0 0 255
-0.446476 0.495652 0.450000 0.953125 0.992188 0 0 255
-0.446476 0.495652 0.000000 0.500000 0.992188 0 0 255
-0.446476 0.495652 -0.495000 0.000000 0.992188 0 0 255
-0.446439 0.456522 -0.495024 0.000000 0.953125 0 0 255
-0.446476 0.495652 0.495000 0.933594 0.863281 0 0 255
-0.446476 0.495652 -0.495000 0.933594 0.003906 0 0 255
-0.438910 0.495652 -0.500000 0.929688 -0.000000 0 0 255
-0.438910 0.460848 -0.500000 0.929688 0.957031 0 0 255
-0.446476 0.495652 -0.495000 0.933594 0.992188 0 0 255
-0.446476 0.495652 -0.450000 0.933594 0.042969 0 0 255
-0.438910 0.500000 -0.450000 0.929688 0.042969 0 0 255
-0.438910 0.500000 0.400000 0.902344 0.996094 0 0 255
-0.438910 0.500000 0.450000 0.953125 0.996094 0 0 255
-0.446476 0.495652 -0.400000 0.933594 0.089844 0 0 255
-0.446476 0.495652 0.000000 0.933594 0.433594 0 0 255
-0.438910 0.500000 0.000000 0.500000 0.996094 0 0 255
0.340370 -0.500000 -0.450000 0.406250 -0.000000 0 255 0
0.340370 -0.500000 0.450000 0.953125 -0.000000 0 255 0
-0.264896 -0.500000 0.450000 0.812500 -0.000000 0 255 0
-0.264896 -0.500000 -0.400000 0.812500 -0.000000 0 255 0
0.491687 0.495652 0.495000 1.000000 0.992188 0 255 0
-0.264896 -0.500000 -0.450000 0.046875 -0.000000 0 255 0
0.340370 -0.500000 -0.400000 0.097656 -0.000000 0 255 0
-0.264896 -0.500000 0.400000 0.902344 -0.000000 0 255 0
0.340370 -0.500000 0.400000 0.406250 -0.000000 0 255 0
0.340370 -0.500000 0.450000 0.406250 0.824219 0 255 0
0.340370 -0.500000 -0.400000 0.406250 0.089844 0 255 0
-0.408647 0.495652 -0.500000 0.906250 0.992188 0 255 0
-0.416176 0.456522 -0.495024 0.000000 0.953125 0 255 0
0.491686 -0.456522 -0.495000 0.308594 0.003906 0 255 0
-0.416213 -0.456522 -0.495000 0.914062 0.003906 0 255 0
-0.446439 0.456522 0.495024 0.933594 0.863281 0 255 0
-0.416213 -0.456522 -0.495000 0.914062 0.042969 0 255 0
0.491687 -0.456522 0.495000 0.308594 0.042969 0 255 0
-0.416213 -0.456522 0.495000 0.914062 0.863281 0 255 0
-0.447787 0.132555 0.110000 0.933594 0.628906 0 255 0
-0.500748 0.080382 0.110000 0.968750 0.578125 0 255 0
-0.447787 0.149947 0.105000 0.933594 0.523438 0 255 0
-0.447787 0.145599 0.090000 0.933594 0.644531 0 255 0
-0.447787 0.080382 0.090000 0.933594 0.578125 0 255 0
-0.447787 0.062990 0.095000 0.597656 0.562500 255 255 255
-0.447787 0.080382 0.090000 0.589844 0.578125 255 255 255
-0.447787 0.080382 0.110000 0.609375 0.578125 255 255 255
-0.447787 0.067338 0.110000 0.933594 0.566406 0 255 0
-0.500748 0.145599 0.110000 0.968750 0.644531 0 255 0
-0.478050 0.132555 0.110000 0.609375 0.628906 255 255 255
-0.447787 0.132555 0.090000 0.589844 0.628906 255 255 255
-0.447787 0.149947 0.095000 0.597656 0.648438 255 255 255
-0.447787 0.149947 0.105000 0.605469 0.648438 255 255 255
-0.447787 0.132555 0.090000 0.933594 0.511719 0 255 0
-0.447787 0.080382 0.110000 0.933594 0.531250 0 255 0
-0.508313 0.149947 0.105000 0.972656 0.523438 149 255 149
-0.508313 0.062990 0.095000 0.972656 0.515625 0 255 0
-0.447787 0.067338 0.110000 0.933594 0.531250 0 255 0
-0.447787 0.145599 0.090000 0.933594 0.511719 0 255 0
-0.478050 0.132555 -0.090000 0.410156 0.628906 255 255 255
-0.447787 0.067338 -0.090000 0.933594 0.355469 0 255 0
-0.447787 0.145599 -0.110000 0.933594 0.339844 0 255 0
-0.447787 0.145599 -0.110000 0.933594 0.644531 0 255 0
-0.508313 0.062990 -0.105000 0.972656 0.343750 0 255 0
-0.447787 0.132555 -0.090000 0.933594 0.628906 0 255 0
-0.500748 0.080382 -0.090000 0.968750 0.578125 0 255 0
-0.447787 0.149947 -0.095000 0.933594 0.351562 0 255 0
-0.447787 0.062990 -0.105000 0.394531 0.562500 255 255 255
-0.447787 0.080382 -0.110000 0.390625 0.578125 255 255 255
-0.447787 0.080382 -0.090000 0.410156 0.578125 255 255 255
-0.500748 0.145599 -0.090000 0.968750 0.644531 0 255 0
-0.447787 0.080382 -0.090000 0.933594 0.355469 0 255 0
-0.447787 0.132555 -0.110000 0.933594 0.339844 0 255 0
-0.447787 0.080382 -0.110000 0.933594 0.578125 0 255 0
-0.447787 0.132555 -0.110000 0.390625 0.628906 255 255 255
-0.447787 0.149947 -0.105000 0.394531 0.648438 255 255 255
-0.447787 0.149947 -0.095000 0.402344 0.648438 255 255 255
-0.447787 0.067338 -0.090000 0.933594 0.566406 0 255 0
-0.408647 0.460848 -0.500000 0.906250 -0.000000 0 255 0
-0.446476 0.413044 0.000000 0.933594 0.906250 0 255 0
-0.446476 -0.413043 0.000000 0.933594 0.089844 0 255 0
-0.454042 0.408696 -0.005000 0.097656 0.492188 255 0 0
-0.446476 -0.413043 0.450000 0.933594 0.824219 255 0 0
-0.446476 -0.413043 -0.450000 0.046875 0.089844 255 0 0
-0.454042 -0.408696 -0.445000 0.937500 0.093750 255 0 0
-0.454042 0.408696 -0.400000 0.097656 0.902344 255 0 0
-0.454042 0.408696 -0.400000 0.937500 0.089844 255 0 0
-0.454042 0.408696 0.400000 0.937500 0.781250 255 0 0
-0.438910 0.495652 0.500000 0.929688 0.992188 0 0 255
-0.446476 0.495652 -0.450000 0.046875 0.992188 0 0 255
-0.446439 0.456522 -0.495024 0.933594 0.953125 0 0 255
-0.446476 0.495652 0.450000 0.933594 0.824219 0 0 255
3 0 1 2
3 3 4 5
3 6 7 8
3 9 10 11
3 12 13 14
3 14 15 16
3 17 18 19
3 18 20 19
3 21 22 12
3 23 14 24
3 25 26 27
3 28 20 29
3 30 31 32
3 33 34 35
3 36 37 18
3 38 39 9
3 40 41 42
3 43 44 45
3 29 46 47
3 48 49 31
3 50 51 52
3 53 54 55
3 56 57 58
3 55 59 60
3 38 61 62
3 63 64 37
3 58 42 56
3 65 18 22
3 66 67 61
3 68 69 70
3 71 72 69
3 73 74 75
3 76 77 78
3 46 79 80
3 81 82 83
3 84 85 41
3 86 87 88
3 89 90 91
3 92 93 94
3 95 96 97
3 98 99 100
3 101 102 103
3 104 105 106
3 107 30 32
3 32 108 109
3 110 111 112
3 69 113 114
3 41 115 116
3 42 116 117
3 118 55 119
3 120 104 34
3 31 121 108
3 34 106 122
3 123 124 125
3 126 127 128
3 129 130 131
3 132 133 4
3 70 114 134
3 135 136 127
3 137 130 136
3 138 21 12
3 129 27 139
3 72 140 113
3 141 8 142
3 15 19 28
3 143 142 144
3 145 146 147
3 148 75 1
3 149 14 16
3 54 52 59
3 35 122 150
3 140 151 152
3 153 154 155
3 60 119 55
3 156 157 158
3 2 159 0
3 160 161 162
3 163 164 165
3 70 166 68
3 167 168 169
3 152 170 74
3 171 144 133
3 155 67 172
3 46 80 173
3 174 175 124
3 158 121 176
3 56 117 105
3 177 178 179
3 180 181 182
3 183 184 180
3 185 186 187
3 188 189 190
3 191 192 193
3 194 195 189
3 196 197 198
3 199 200 201
3 193 188 202
3 203 204 184
3 200 205 201
3 182 183 180
3 206 207 208
3 209 210 211
3 184 212 203
3 213 214 215
3 185 216 217
3 218 193 202
3 219 220 221
3 205 222 223
3 179 224 225
3 226 227 228
3 205 229 230
3 231 232 233
3 177 234 235
3 187 236 216
3 201 237 199
3 205 238 201
3 239 200 240
3 233 200 241
3 178 242 179
3 177 243 244
3 186 245 187
3 246 185 247
3 225 177 179
3 248 249 250
3 251 252 253
3 254 255 256
3 257 258 259
3 249 260 250
3 261 262 263
3 264 265 266
3 250 267 268
3 269 270 271
3 248 272 273
3 274 275 276
3 248 277 278
3 266 279 252
3 280 281 282
3 251 283 284
3 285 286 287
3 276 262 288
3 289 290 291
3 285 292 254
3 293 251 284
3 294 295 296
3 282 297 280
3 271 298 299
3 298 300 301
3 256 262 254
3 302 303 304
3 305 306 307
3 251 264 266
3 268 248 250
3 308 309 300
3 297 289 280
3 262 285 254
3 285 310 311
3 312 313 314
3 291 315 289
3 316 271 299
3 317 134 318
3 319 109 53
3 162 320 321
3 322 323 324
3 325 153 326
3 327 11 10
3 321 328 140
3 318 0 159
3 105 141 143
3 176 49 163
3 112 168 110
3 150 132 3
3 113 152 73
3 134 148 0
3 125 135 126
3 122 171 132
3 108 157 50
3 319 118 329
3 117 6 141
3 116 330 6
3 114 73 148
3 112 331 25
3 109 50 54
3 106 143 171
3 167 332 333
3 334 335 336
3 337 338 334
3 339 340 341
3 342 343 344
3 344 345 346
3 347 348 349
3 350 351 352
3 353 348 354
3 355 356 342
3 357 358 359
3 360 361 362
3 363 364 365
3 366 367 368
3 346 369 370
3 371 361 372
3 373 374 375
3 376 374 377
3 378 379 351
3 376 380 381
3 382 381 380
3 383 356 384
3 385 386 387
3 388 386 389
3 390 391 392
3 393 394 395
3 345 396 369
3 397 345 398
3 357 399 400
3 401 402 403
3 404 405 406
3 407 408 401
3 409 404 402
3 402 410 411
3 410 406 412
3 407 403 413
3 414 411 415
3 411 416 415
3 417 418 419
3 420 421 414
3 422 413 417
3 422 423 407
3 419 420 424
3 403 411 421
3 425 417 426
3 427 424 428
3 410 429 416
3 426 419 427
3 413 421 418
3 430 431 405
3 432 429 433
3 434 428 435
3 436 437 425
3 428 438 427
3 429 439 416
3 405 440 406
3 406 441 412
3 412 442 429
3 427 443 426
3 420 444 424
3 426 436 425
3 409 445 430
3 424 435 428
3 416 446 415
3 401 447 409
3 448 449 450
3 415 451 414
3 405 452 453
3 414 454 420
3 455 456 457
3 458 455 459
3 460 461 462
3 463 464 465
3 466 467 468
3 469 468 461
3 465 470 463
3 464 471 472
3 473 452 431
3 474 437 475
3 476 477 449
3 437 478 479
3 480 469 481
3 479 482 423
3 445 473 431
3 423 483 408
3 484 466 480
3 425 479 422
3 0 148 1
3 3 132 4
3 6 330 7
3 9 39 10
3 12 485 13
3 14 17 15
3 17 22 18
3 18 37 20
3 21 65 22
3 23 12 14
3 25 331 26
3 28 19 20
3 30 48 31
3 33 120 34
3 36 63 37
3 38 62 39
3 40 84 41
3 43 486 44
3 29 20 46
3 48 164 49
3 50 157 51
3 53 109 54
3 56 104 57
3 55 54 59
3 38 66 61
3 63 145 64
3 58 40 42
3 65 36 18
3 66 172 67
3 68 71 69
3 71 160 72
3 73 152 74
3 76 487 77
3 46 64 79
3 81 488 82
3 84 489 85
3 86 490 87
3 89 491 90
3 92 492 93
3 95 493 96
3 98 494 99
3 101 495 102
3 104 56 105
3 32 319 107
3 107 496 30
3 32 31 108
3 110 497 111
3 69 72 113
3 41 85 115
3 42 41 116
3 118 53 55
3 120 57 104
3 31 49 121
3 34 104 106
3 123 174 124
3 126 135 127
3 129 139 130
3 132 171 133
3 70 69 114
3 135 137 136
3 137 131 130
3 12 23 138
3 138 498 21
3 129 25 27
3 72 321 140
3 141 6 8
3 15 17 19
3 143 141 142
3 79 64 147
3 64 145 147
3 148 73 75
3 16 499 149
3 149 24 14
3 54 50 52
3 35 34 122
3 140 328 151
3 153 500 154
3 60 501 119
3 156 51 157
3 2 502 159
3 321 72 162
3 72 160 162
3 163 49 164
3 70 317 166
3 167 333 168
3 152 151 170
3 171 143 144
3 155 154 67
3 503 47 173
3 47 46 173
3 174 332 175
3 158 157 121
3 56 42 117
3 177 244 178
3 180 504 181
3 183 505 184
3 185 506 186
3 188 194 189
3 191 507 192
3 194 508 195
3 197 509 198
3 198 510 511
3 511 196 198
3 199 240 200
3 193 194 188
3 203 512 204
3 200 232 205
3 182 513 183
3 206 514 207
3 210 515 211
3 211 516 517
3 517 209 211
3 184 505 212
3 213 518 214
3 185 187 216
3 218 191 193
3 219 519 220
3 205 232 222
3 179 242 224
3 226 520 227
3 205 223 229
3 231 222 232
3 177 521 234
3 187 245 236
3 201 238 237
3 205 230 238
3 239 241 200
3 233 232 200
3 178 522 242
3 177 235 243
3 186 523 245
3 246 506 185
3 225 521 177
3 248 278 249
3 251 266 252
3 254 292 255
3 257 524 258
3 249 525 260
3 261 288 262
3 264 526 265
3 250 260 267
3 269 527 270
3 248 528 272
3 274 310 275
3 248 273 277
3 266 265 279
3 280 529 281
3 251 253 283
3 285 311 286
3 276 275 262
3 289 530 290
3 285 287 292
3 293 531 251
3 295 532 296
3 296 533 534
3 534 294 296
3 282 535 297
3 271 308 298
3 298 308 300
3 256 263 262
3 302 536 303
3 305 537 306
3 251 531 264
3 268 528 248
3 308 538 309
3 297 530 289
3 262 275 285
3 285 275 310
3 313 539 314
3 314 540 541
3 541 312 314
3 291 542 315
3 316 269 271
3 317 70 134
3 319 32 109
3 325 500 153
3 327 543 11
3 321 320 328
3 318 134 0
3 105 117 141
3 176 121 49
3 112 169 168
3 150 122 132
3 113 140 152
3 134 114 148
3 125 124 135
3 122 106 171
3 108 121 157
3 319 53 118
3 117 116 6
3 116 115 330
3 114 113 73
3 112 111 331
3 109 108 50
3 106 105 143
3 167 175 332
3 334 544 335
3 337 545 338
3 339 367 340
3 342 356 343
3 344 398 345
3 347 546 348
3 350 378 351
3 353 349 348
3 355 384 356
3 357 400 358
3 360 547 361
3 363 391 364
3 366 340 367
3 346 345 369
3 371 362 361
3 373 548 374
3 376 375 374
3 378 549 379
3 376 377 380
3 382 550 381
3 383 551 356
3 385 389 386
3 388 393 386
3 390 364 391
3 393 388 394
3 345 552 396
3 397 552 345
3 357 371 399
3 401 409 402
3 404 430 405
3 407 423 408
3 409 430 404
3 402 404 410
3 410 404 406
3 407 401 403
3 414 421 411
3 411 410 416
3 417 413 418
3 420 418 421
3 422 407 413
3 422 479 423
3 419 418 420
3 403 402 411
3 425 422 417
3 427 419 424
3 410 412 429
3 426 417 419
3 413 403 421
3 430 445 431
3 436 475 437
3 428 434 438
3 429 432 439
3 405 453 440
3 406 440 441
3 412 441 442
3 427 438 443
3 420 454 444
3 426 443 436
3 409 447 445
3 424 444 435
3 416 439 446
3 401 408 447
3 448 476 449
3 415 446 451
3 405 431 452
3 414 451 454
3 455 553 456
3 458 553 455
3 460 469 461
3 463 554 464
3 466 470 467
3 469 466 468
3 465 467 470
3 464 554 471
3 476 555 477
3 437 474 478
3 480 466 469
3 479 478 482
3 445 556 473
3 423 482 483
3 484 470 466
3 425 437 479
