ply
format ascii 1.0
comment Created by Blender 2.79 (sub 0) - www.blender.org, source file: 'new furniture.blend'
element vertex 114
property float x
property float y
property float z
property float s
property float t
property uchar red
property uchar green
property uchar blue
element face 70
property list uchar uint vertex_indices
end_header
-0.000000 0.177757 0.160000 0.000000 0.000000 255 0 0
-0.000000 0.477757 0.080000 0.000000 0.000000 255 0 0
-0.056569 0.477757 0.056569 0.000000 0.000000 255 0 0
-0.113137 0.177757 0.113137 0.000000 0.000000 255 0 0
-0.080000 0.477757 0.000000 0.000000 0.000000 255 0 0
-0.160000 0.177757 0.000000 0.000000 0.000000 255 0 0
-0.056569 0.477757 -0.056568 0.000000 0.000000 255 0 0
-0.113137 0.177757 -0.113137 0.000000 0.000000 255 0 0
0.000000 0.477757 -0.080000 0.000000 0.000000 255 0 0
0.000000 0.177757 -0.160000 0.000000 0.000000 255 0 0
0.056569 0.477757 -0.056568 0.000000 0.000000 255 0 0
0.113137 0.177757 -0.113137 0.000000 0.000000 255 0 0
0.080000 0.477757 0.000000 0.000000 0.000000 255 0 0
0.160000 0.177757 0.000000 0.000000 0.000000 255 0 0
0.056569 0.477757 0.056569 0.000000 0.000000 255 0 0
0.113137 0.177757 0.113137 0.000000 0.000000 255 0 0
-0.072000 0.477757 0.000000 0.000000 0.000000 255 0 0
-0.050912 0.477757 -0.050912 0.000000 0.000000 255 0 0
0.050912 0.477757 -0.050912 0.000000 0.000000 255 0 0
0.072000 0.477757 0.000000 0.000000 0.000000 255 0 0
0.000000 0.477757 -0.072000 0.000000 0.000000 255 0 0
0.050912 0.477757 0.050912 0.000000 0.000000 255 0 0
-0.050912 0.477757 0.050912 0.000000 0.000000 255 0 0
-0.000000 0.477757 0.072000 0.000000 0.000000 255 0 0
0.101823 0.177757 0.101823 0.000000 0.000000 255 0 0
0.144000 0.177757 0.000000 0.000000 0.000000 255 0 0
-0.144000 0.177757 0.000000 0.000000 0.000000 255 0 0
-0.101823 0.177757 0.101823 0.000000 0.000000 255 0 0
0.101823 0.177757 -0.101823 0.000000 0.000000 255 0 0
0.000000 0.177757 -0.144000 0.000000 0.000000 255 0 0
-0.000000 0.177757 0.144000 0.000000 0.000000 255 0 0
-0.101823 0.177757 -0.101823 0.000000 0.000000 255 0 0
-0.120000 -0.488400 0.000000 0.477016 0.548793 0 255 0
-0.084853 -0.488400 0.084853 0.445992 0.623692 0 255 0
-0.042426 -0.468400 0.042426 0.408543 0.586242 0 255 0
-0.060000 -0.468400 0.000000 0.424055 0.548793 0 255 0
-0.000000 -0.488400 -0.120000 0.371094 0.442870 0 255 0
-0.084853 -0.488400 -0.084853 0.445992 0.473894 0 255 0
-0.042426 -0.468400 -0.042426 0.408543 0.511344 0 255 0
-0.000000 -0.468400 -0.060000 0.371094 0.495832 0 255 0
0.120000 -0.488400 -0.000000 0.265171 0.548793 0 255 0
0.084853 -0.488400 -0.084853 0.296195 0.473894 0 255 0
0.042426 -0.468400 -0.042426 0.333644 0.511344 0 255 0
0.060000 -0.468400 0.000000 0.318132 0.548793 0 255 0
0.000000 -0.488400 0.120000 0.371094 0.654716 0 255 0
0.084853 -0.488400 0.084853 0.296195 0.623692 0 255 0
0.042426 -0.468400 0.042426 0.333644 0.586242 0 255 0
-0.000000 -0.468400 0.060000 0.371094 0.601754 0 255 0
0.014142 -0.448400 -0.014142 0.358611 0.536310 0 255 0
0.020000 -0.448400 0.000000 0.353440 0.548793 0 255 0
0.014142 -0.448400 0.014142 0.358611 0.561276 0 255 0
-0.000000 -0.448400 0.020000 0.371094 0.566447 0 255 0
-0.014142 -0.448400 0.014142 0.383577 0.561276 0 255 0
-0.020000 -0.448400 0.000000 0.388748 0.548793 0 255 0
-0.014142 -0.448400 -0.014142 0.383577 0.536310 0 255 0
-0.000000 -0.448400 -0.020000 0.371094 0.531139 0 255 0
-0.020000 -0.448400 0.000000 0.371094 0.152995 0 255 0
-0.014142 -0.448400 0.014142 0.383577 0.152995 0 255 0
-0.014142 0.345473 0.014142 0.383577 0.853738 0 255 0
-0.020000 0.345473 0.000000 0.371094 0.853738 0 255 0
-0.000000 -0.448400 -0.020000 0.371094 0.152995 0 255 0
-0.014142 -0.448400 -0.014142 0.383577 0.152995 0 255 0
-0.014142 0.345473 -0.014142 0.383577 0.853738 0 255 0
-0.000000 0.345473 -0.020000 0.371094 0.853738 0 255 0
0.020000 -0.448400 0.000000 0.371094 0.152995 0 255 0
0.014142 -0.448400 -0.014142 0.358611 0.152995 0 255 0
0.014142 0.345473 -0.014142 0.358611 0.853738 0 255 0
0.020000 0.345473 0.000000 0.371094 0.853738 0 255 0
-0.000000 -0.448400 0.020000 0.371094 0.152995 0 255 0
0.014142 -0.448400 0.014142 0.358611 0.152995 0 255 0
0.014142 0.345473 0.014142 0.358611 0.853738 10 255 10
-0.000000 0.345473 0.020000 0.371094 0.853738 9 255 9
-0.000000 0.345473 0.020000 0.371094 0.853738 0 255 0
-0.014142 -0.448400 -0.014142 0.358611 0.152995 0 255 0
-0.014142 0.345473 -0.014142 0.358611 0.853738 0 255 0
0.014142 -0.448400 0.014142 0.383577 0.152995 0 255 0
0.020000 0.345473 0.000000 0.371094 0.853738 6 255 6
0.014142 0.345473 0.014142 0.383577 0.853738 6 255 6
-0.084853 -0.488400 0.084853 0.445992 0.117688 0 255 0
-0.120000 -0.488400 0.000000 0.371094 0.117688 0 255 0
-0.120000 -0.498400 0.000000 0.371094 0.108861 0 255 0
-0.084853 -0.498400 0.084853 0.445992 0.108861 0 255 0
-0.084853 -0.488400 -0.084853 0.445992 0.117688 0 255 0
-0.000000 -0.488400 -0.120000 0.371094 0.117688 0 255 0
-0.000000 -0.498400 -0.120000 0.371094 0.108861 0 255 0
-0.084853 -0.498400 -0.084853 0.445992 0.108861 0 255 0
0.084853 -0.488400 -0.084853 0.296195 0.117688 0 255 0
0.120000 -0.488400 -0.000000 0.371094 0.117688 0 255 0
0.120000 -0.498400 -0.000000 0.371094 0.108861 0 255 0
0.084853 -0.498400 -0.084853 0.296195 0.108861 0 255 0
0.084853 -0.488400 0.084853 0.296195 0.117688 0 255 0
0.000000 -0.488400 0.120000 0.371094 0.117688 0 255 0
0.000000 -0.498400 0.120000 0.371094 0.108861 0 255 0
0.084853 -0.498400 0.084853 0.296195 0.108861 0 255 0
-0.084853 -0.488400 -0.084853 0.296195 0.117688 0 255 0
-0.084853 -0.498400 -0.084853 0.296195 0.108861 0 255 0
0.084853 -0.488400 0.084853 0.445992 0.117688 0 255 0
0.084853 -0.498400 0.084853 0.445992 0.108861 0 255 0
-0.000000 -0.498400 -0.120000 0.371094 0.442870 0 255 0
0.084853 -0.498400 -0.084853 0.296195 0.473894 0 255 0
0.000000 -0.498400 0.120000 0.371094 0.654716 0 255 0
-0.084853 -0.498400 0.084853 0.445992 0.623692 0 255 0
0.084853 -0.498400 0.084853 0.296195 0.623692 0 255 0
0.120000 -0.498400 -0.000000 0.265171 0.548793 0 255 0
-0.084853 -0.498400 -0.084853 0.445992 0.473894 0 255 0
-0.120000 -0.498400 0.000000 0.477016 0.548793 0 255 0
-0.000000 0.345473 -0.020000 0.371094 0.531139 0 255 0
-0.014142 0.345473 0.014142 0.383577 0.561276 0 255 0
-0.000000 0.345473 0.020000 0.371094 0.566447 0 255 0
0.014142 0.345473 -0.014142 0.358611 0.536310 0 255 0
0.014142 0.345473 0.014142 0.358611 0.561276 0 255 0
0.020000 0.345473 0.000000 0.353440 0.548793 0 255 0
-0.014142 0.345473 -0.014142 0.383577 0.536310 0 255 0
-0.020000 0.345473 0.000000 0.388748 0.548793 0 255 0
4 0 1 2 3
4 3 2 4 5
4 5 4 6 7
4 7 6 8 9
4 9 8 10 11
4 11 10 12 13
4 13 12 14 15
4 1 0 15 14
4 6 4 16 17
4 12 10 18 19
4 8 6 17 20
4 14 12 19 21
4 4 2 22 16
4 10 8 20 18
4 1 14 21 23
4 2 1 23 22
4 13 15 24 25
4 3 5 26 27
4 9 11 28 29
4 15 0 30 24
4 0 3 27 30
4 5 7 31 26
4 11 13 25 28
4 7 9 29 31
4 18 20 29 28
4 19 18 28 25
4 21 19 25 24
4 23 21 24 30
4 22 23 30 27
4 16 22 27 26
4 17 16 26 31
4 20 17 31 29
4 32 33 34 35
4 36 37 38 39
4 40 41 42 43
4 44 45 46 47
4 33 44 47 34
4 37 32 35 38
4 41 36 39 42
4 45 40 43 46
4 43 42 48 49
4 47 46 50 51
4 34 47 51 52
4 38 35 53 54
4 42 39 55 48
4 46 43 49 50
4 35 34 52 53
4 39 38 54 55
4 56 57 58 59
4 60 61 62 63
4 64 65 66 67
4 68 69 70 71
4 57 68 72 58
4 73 56 59 74
4 65 60 63 66
4 75 64 76 77
4 78 79 80 81
4 82 83 84 85
4 86 87 88 89
4 90 91 92 93
4 91 78 81 92
4 79 94 95 80
4 83 86 89 84
4 87 96 97 88
4 98 99 100 101
4 102 100 99 103
4 104 98 101 105
4 106 107 108 109
4 110 111 109 108
4 112 113 107 106
