ply
format ascii 1.0
comment Created by Blender 2.79 (sub 0) - www.blender.org, source file: 'new furniture.blend'
element vertex 72
property float x
property float y
property float z
property float s
property float t
property uchar red
property uchar green
property uchar blue
element face 44
property list uchar uint vertex_indices
end_header
1.356489 -0.515000 1.380000 0.273919 0.020000 255 0 0
-1.356489 -0.515000 -1.380000 0.726081 0.480000 255 0 0
1.356489 -0.515000 -1.380000 0.273919 0.480000 255 0 0
1.356489 -0.485000 -1.380000 0.273919 0.502500 255 0 0
-1.356489 -0.515000 -1.380000 0.726081 0.497500 255 0 0
-1.356489 -0.485000 -1.380000 0.726081 0.502500 255 0 0
-1.356489 -0.515000 -1.380000 0.497500 0.480000 255 0 0
-1.356489 -0.485000 1.380000 0.502500 0.020000 255 0 0
-1.356489 -0.485000 -1.380000 0.502500 0.480000 255 0 0
1.356489 -0.485000 -1.380000 0.273919 0.480000 255 0 0
-1.356489 -0.485000 1.380000 0.726081 0.020000 255 0 0
1.356489 -0.485000 1.380000 0.273919 0.020000 255 0 0
1.356489 -0.515000 1.380000 0.273919 0.497500 255 0 0
-1.356489 -0.485000 1.380000 0.726081 0.502500 255 0 0
-1.356489 -0.515000 1.380000 0.726081 0.497500 255 0 0
1.356489 -0.515000 1.380000 0.497500 0.020000 255 0 0
1.356489 -0.485000 -1.380000 0.502500 0.480000 255 0 0
1.356489 -0.485000 1.380000 0.502500 0.020000 255 0 0
1.130407 -0.500000 1.150000 0.273919 0.020000 0 255 0
-0.942006 -0.500000 0.958333 0.688401 0.058333 0 255 0
0.942006 -0.500000 0.958333 0.311599 0.058333 0 255 0
-0.942006 -0.500000 -0.958333 0.688401 0.441667 0 255 0
-1.130407 -0.500000 1.150000 0.726081 0.020000 0 255 0
-1.130407 -0.500000 -1.150000 0.726081 0.480000 0 255 0
1.130407 -0.480000 -1.150000 0.273919 0.502500 255 255 255
-1.130407 -0.500000 -1.150000 0.726081 0.497500 255 255 255
-1.130407 -0.480000 -1.150000 0.726081 0.502500 255 255 255
1.130407 -0.500000 1.150000 0.497500 0.020000 255 255 255
1.130407 -0.480000 -1.150000 0.502500 0.480000 255 255 255
1.130407 -0.480000 1.150000 0.502500 0.020000 255 255 255
1.130407 -0.500000 1.150000 0.273919 0.497500 255 255 255
-1.130407 -0.480000 1.150000 0.726081 0.502500 255 255 255
-1.130407 -0.500000 1.150000 0.726081 0.497500 255 255 255
-1.130407 -0.500000 -1.150000 0.497500 0.480000 0 255 0
-1.130407 -0.480000 1.150000 0.502500 0.020000 0 255 0
-1.130407 -0.480000 -1.150000 0.502500 0.480000 0 255 0
-1.130407 -0.480000 -1.150000 0.726081 0.480000 0 255 0
-0.942006 -0.480000 0.958333 0.688401 0.058333 0 255 0
-0.942006 -0.480000 -0.958333 0.688401 0.441667 0 255 0
0.942006 -0.480000 0.958333 0.311599 0.058333 0 255 0
-1.130407 -0.480000 1.150000 0.726081 0.020000 0 255 0
1.130407 -0.480000 1.150000 0.273919 0.020000 0 255 0
-0.942006 -0.480000 -0.958333 0.637614 0.500001 0 255 0
0.942006 -0.500000 -0.958333 0.362386 0.499999 0 255 0
0.942006 -0.480000 -0.958333 0.362386 0.500001 0 255 0
0.942006 -0.480000 -0.958333 0.499257 0.441020 0 255 0
0.942006 -0.500000 0.958333 0.497917 0.404164 0 255 0
0.942006 -0.480000 0.958333 0.502083 0.404164 0 255 0
-0.942006 -0.480000 0.958333 0.502083 0.404164 0 255 0
-0.942006 -0.500000 -0.958333 0.500743 0.441021 0 255 0
-0.942006 -0.480000 -0.958333 0.499257 0.441020 0 255 0
-0.942006 -0.500000 0.958333 0.548898 0.500000 0 255 0
0.942006 -0.480000 0.958333 0.451102 0.500000 0 255 0
0.942006 -0.500000 0.958333 0.451102 0.500000 0 255 0
-1.356489 -0.515000 1.380000 0.726081 0.020000 255 0 0
1.356489 -0.515000 -1.380000 0.273919 0.497500 255 0 0
-1.356489 -0.515000 1.380000 0.497500 0.020000 255 0 0
-1.356489 -0.485000 -1.380000 0.726081 0.480000 255 0 0
1.356489 -0.485000 1.380000 0.273919 0.502500 255 0 0
1.356489 -0.515000 -1.380000 0.497500 0.480000 255 0 0
0.942006 -0.500000 -0.958333 0.311599 0.441667 0 255 0
1.130407 -0.500000 -1.150000 0.273919 0.480000 0 255 0
1.130407 -0.500000 -1.150000 0.273919 0.497500 255 255 255
1.130407 -0.500000 -1.150000 0.497500 0.480000 255 255 255
1.130407 -0.480000 1.150000 0.273919 0.502500 255 255 255
-1.130407 -0.500000 1.150000 0.497500 0.020000 0 255 0
0.942006 -0.480000 -0.958333 0.311599 0.441667 0 255 0
1.130407 -0.480000 -1.150000 0.273919 0.480000 0 255 0
-0.942006 -0.500000 -0.958333 0.637614 0.499999 0 255 0
0.942006 -0.500000 -0.958333 0.500743 0.441021 0 255 0
-0.942006 -0.500000 0.958333 0.497917 0.404164 0 255 0
-0.942006 -0.480000 0.958333 0.548898 0.500000 0 255 0
3 0 1 2
3 3 4 5
3 6 7 8
3 9 10 11
3 12 13 14
3 15 16 17
3 18 19 20
3 21 22 23
3 24 25 26
3 27 28 29
3 30 31 32
3 33 34 35
3 36 37 38
3 39 40 41
3 42 43 44
3 45 46 47
3 48 49 50
3 51 52 53
3 0 54 1
3 3 55 4
3 6 56 7
3 9 57 10
3 12 58 13
3 15 59 16
3 20 60 61
3 18 22 19
3 20 61 18
3 61 60 21
3 21 19 22
3 23 61 21
3 24 62 25
3 27 63 28
3 30 64 31
3 33 65 34
3 38 66 67
3 36 40 37
3 38 67 36
3 67 66 39
3 39 37 40
3 41 67 39
3 42 68 43
3 45 69 46
3 48 70 49
3 51 71 52
