ply
format ascii 1.0
comment Created by Blender 2.79 (sub 0) - www.blender.org, source file: 'new furniture.blend'
element vertex 472
property float x
property float y
property float z
property float s
property float t
element face 320
property list uchar uint vertex_indices
end_header
0.210000 0.160354 0.400001 0.707131 0.174964
0.210000 0.126263 -0.399999 0.643552 0.853143
0.210000 0.160354 -0.399999 0.707131 0.853143
-0.210000 0.126263 0.400001 0.643552 0.174964
-0.210000 0.160354 -0.399999 0.707131 0.853143
-0.210000 0.126263 -0.399999 0.643552 0.853143
0.170000 0.126263 -0.449999 0.296291 0.278575
-0.170000 0.160354 -0.449999 0.656574 0.214996
0.170000 0.160354 -0.449999 0.296291 0.214996
-0.210000 0.433081 -0.399999 1.215765 0.853143
-0.210000 0.398990 0.400001 1.152186 0.174964
-0.210000 0.433081 0.400001 1.215765 0.174964
0.170000 -0.419192 -0.449999 0.296291 1.295844
-0.170000 -0.385101 -0.449999 0.656574 1.232264
0.170000 -0.385101 -0.449999 0.296291 1.232264
-0.170000 -0.112374 -0.449999 0.656574 0.723630
0.170000 -0.146465 -0.449999 0.296291 0.787209
-0.170000 -0.146465 -0.449999 0.656574 0.787209
-0.170000 -0.419192 0.450001 0.656574 1.295844
0.170000 -0.385101 0.450001 0.296291 1.232264
-0.170000 -0.385101 0.450001 0.656574 1.232264
0.170000 -0.385101 -0.399999 0.296291 0.853143
-0.170000 -0.385101 0.400001 0.656574 0.174964
0.170000 -0.385101 0.400001 0.296291 0.174964
-0.170000 0.126263 0.450001 0.656574 0.278575
0.170000 0.160354 0.450001 0.296291 0.214996
-0.170000 0.160354 0.450001 0.656574 0.214996
-0.170000 0.433081 -0.449999 0.656574 0.895529
0.170000 0.433081 -0.399999 0.296291 0.853143
0.170000 0.433081 -0.449999 0.296291 0.895529
0.210000 -0.385101 0.400001 -0.310138 0.174964
0.210000 -0.419192 -0.399999 -0.373717 0.853143
0.210000 -0.385101 -0.399999 -0.310138 0.853143
-0.170000 -0.385101 -0.449999 0.656574 0.895529
0.170000 -0.385101 -0.449999 0.296291 0.895529
-0.170000 0.160354 -0.399999 0.656574 0.853143
-0.170000 0.160354 0.400001 0.656574 0.174964
0.170000 0.160354 0.400001 0.296291 0.174964
-0.170000 0.433081 -0.449999 0.656574 -0.293639
0.170000 0.398990 -0.449999 0.296291 -0.230060
-0.170000 0.398990 -0.449999 0.656574 -0.230060
0.170000 0.398990 -0.449999 0.296291 0.895529
-0.170000 0.398990 -0.399999 0.656574 0.853143
-0.170000 0.398990 -0.449999 0.656574 0.895529
0.170000 -0.419192 0.400001 0.296291 0.174964
-0.170000 -0.419192 0.400001 0.656574 0.174964
-0.170000 -0.419192 -0.399999 0.656574 0.853143
-0.210000 -0.112374 -0.399999 0.198497 0.853143
-0.210000 -0.146465 0.400001 0.134917 0.174964
-0.210000 -0.112374 0.400001 0.198497 0.174964
-0.170000 -0.146465 0.450001 0.656574 0.787209
0.170000 -0.112374 0.450001 0.296291 0.723630
-0.170000 -0.112374 0.450001 0.656574 0.723630
-0.170000 0.433081 0.400001 0.656574 0.174964
0.170000 0.433081 0.400001 0.296291 0.174964
-0.210000 -0.385101 -0.399999 -0.310138 0.853143
-0.210000 -0.419192 0.400001 -0.373717 0.174964
-0.210000 -0.385101 0.400001 -0.310138 0.174964
0.170000 -0.419192 -0.449999 0.296291 0.895529
-0.170000 -0.419192 -0.449999 0.656574 0.895529
0.170000 0.126263 0.400001 0.296291 0.174964
-0.170000 0.126263 0.400001 0.656574 0.174964
-0.170000 0.126263 -0.399999 0.656574 0.853143
-0.170000 0.398990 0.450001 0.656574 -0.230060
0.170000 0.433081 0.450001 0.296291 -0.293639
-0.170000 0.433081 0.450001 0.656574 -0.293639
-0.170000 -0.112374 -0.449999 0.656574 0.895529
0.170000 -0.112374 -0.399999 0.296291 0.853143
0.170000 -0.112374 -0.449999 0.296291 0.895529
0.210000 0.433081 0.400001 1.215765 0.174964
0.210000 0.398990 -0.399999 1.152186 0.853143
0.210000 0.433081 -0.399999 1.215765 0.853143
0.170000 0.398990 0.400001 0.296291 0.174964
-0.170000 0.398990 0.400001 0.656574 0.174964
-0.170000 -0.146465 0.400001 0.656574 0.174964
-0.170000 -0.146465 -0.399999 0.656574 0.853143
0.170000 -0.146465 -0.399999 0.296291 0.853143
-0.170000 -0.112374 0.400001 0.656574 0.174964
0.170000 -0.112374 0.400001 0.296291 0.174964
-0.170000 0.126263 -0.449999 0.656574 0.895529
0.170000 0.126263 -0.399999 0.296291 0.853143
-0.170000 0.398990 -0.399999 1.187153 0.813438
0.170000 0.398990 -0.399999 1.187153 0.813438
0.210000 0.398990 -0.399999 1.187153 0.813438
0.250000 0.467172 -0.399999 0.251821 -0.308522
0.210000 -0.419192 -0.399999 0.291112 1.223806
0.250000 -0.532828 -0.399999 0.251821 1.420258
0.170000 -0.385101 -0.449999 0.330402 0.852729
0.210000 -0.385101 -0.399999 0.291112 0.813438
0.210000 -0.385101 -0.449999 0.291112 0.852729
0.170000 0.160354 -0.399999 0.330402 0.221899
0.210000 0.398990 -0.399999 0.291112 -0.190651
0.170000 0.398990 -0.399999 0.330402 -0.190651
0.170000 0.433081 -0.399999 1.246089 0.813438
-0.170000 0.433081 -0.399999 1.246089 0.813438
-0.210000 0.433081 -0.399999 1.246089 0.813438
-0.250000 0.467172 0.400001 0.417424 -0.621234
-0.250000 -0.532828 0.500001 0.338843 1.107547
-0.250000 0.467172 0.500001 0.338843 -0.621234
-0.170000 -0.532828 0.400001 0.640934 0.184791
-0.250000 -0.532828 0.500001 0.719515 0.106210
-0.250000 -0.532828 0.400001 0.719515 0.184791
-0.170000 -0.419192 -0.399999 -0.227304 0.813438
0.170000 -0.419192 -0.399999 -0.227304 0.813438
0.210000 -0.419192 -0.399999 -0.227304 0.813438
0.170000 -0.532828 -0.499999 0.479924 1.717119
0.170000 -0.385101 -0.449999 0.440634 1.461731
0.170000 -0.146465 -0.449999 0.440634 1.049181
0.170000 -0.385101 0.450001 0.440634 0.754503
0.170000 -0.419192 0.450001 0.440634 0.813438
0.170000 -0.532828 0.500001 0.401343 1.009891
-0.170000 -0.532828 -0.399999 0.597965 1.404633
-0.170000 -0.419192 -0.399999 0.597965 1.208181
-0.210000 -0.419192 -0.399999 0.637255 1.208181
0.170000 -0.385101 -0.399999 -0.168369 0.813438
-0.170000 -0.385101 -0.399999 -0.168369 0.813438
-0.210000 -0.385101 -0.399999 -0.168369 0.813438
-0.170000 0.160354 0.450001 0.664371 0.145500
-0.210000 0.160354 0.400001 0.703662 0.184791
-0.210000 0.160354 0.450001 0.703662 0.145500
0.170000 0.467172 0.400001 0.330402 0.184791
0.250000 0.467172 0.500001 0.251821 0.106210
0.250000 0.467172 0.400001 0.251821 0.184791
0.170000 0.467172 0.400001 0.388996 -0.300710
0.250000 0.467172 0.400001 0.310415 -0.300710
0.210000 0.433081 0.400001 0.349705 -0.241774
0.170000 -0.112374 -0.399999 0.330402 0.693385
0.210000 0.126263 -0.399999 0.291112 0.280835
0.170000 0.126263 -0.399999 0.330402 0.280835
-0.170000 0.126263 -0.399999 0.715667 0.813438
0.170000 0.126263 -0.399999 0.715667 0.813438
0.210000 0.126263 -0.399999 0.715667 0.813438
-0.250000 0.467172 0.400001 0.742952 0.184791
-0.170000 0.467172 0.500001 0.664371 0.106210
-0.170000 0.467172 0.400001 0.664371 0.184791
0.210000 -0.385101 0.450001 0.291112 0.145500
0.170000 -0.385101 0.400001 0.330402 0.184791
0.170000 -0.385101 0.450001 0.330402 0.145500
0.170000 0.433081 0.400001 0.330402 0.184791
0.210000 0.433081 0.450001 0.291112 0.145500
0.210000 0.433081 0.400001 0.291112 0.184791
-0.170000 -0.532828 -0.499999 0.613590 0.892019
-0.250000 -0.532828 -0.399999 0.692171 0.813438
-0.250000 -0.532828 -0.499999 0.692171 0.892019
0.170000 0.398990 0.400001 0.388996 -0.182839
0.210000 0.160354 0.400001 0.349706 0.229711
0.170000 0.160354 0.400001 0.388996 0.229711
0.170000 -0.532828 0.500001 0.361652 0.114022
0.250000 -0.532828 0.400001 0.283071 0.192603
0.250000 -0.532828 0.500001 0.283071 0.114022
-0.250000 0.467172 -0.499999 0.405705 -0.062443
-0.250000 -0.532828 -0.399999 0.327125 1.666338
-0.250000 0.467172 -0.399999 0.327124 -0.062443
0.170000 -0.532828 0.500001 0.330402 1.420258
0.250000 0.467172 0.500001 0.251821 -0.308522
0.170000 0.467172 0.500001 0.330402 -0.308522
-0.210000 -0.385101 0.400001 0.703662 0.184791
-0.170000 -0.385101 0.450001 0.664371 0.145500
-0.170000 -0.385101 0.400001 0.664371 0.184791
0.170000 0.160354 -0.449999 0.330402 0.852729
0.210000 0.160354 -0.399999 0.291112 0.813438
0.210000 0.160354 -0.449999 0.291112 0.852729
0.210000 0.160354 -0.399999 0.774603 0.813438
0.170000 0.433081 -0.449999 0.330402 0.852729
0.210000 0.433081 -0.399999 0.291112 0.813438
0.210000 0.433081 -0.449999 0.291112 0.852729
0.210000 0.160354 0.400001 0.774603 0.184791
0.210000 0.398990 0.400001 1.187153 0.184791
0.210000 0.433081 0.400001 1.246089 0.184791
0.170000 0.467172 -0.499999 0.330402 -0.308522
0.250000 -0.532828 -0.499999 0.251821 1.420258
0.170000 -0.532828 -0.499999 0.330402 1.420258
0.250000 0.467172 0.500001 0.401343 -0.718890
0.250000 -0.532828 0.400001 0.479924 1.009891
0.250000 0.467172 0.400001 0.479924 -0.718890
0.250000 0.467172 -0.399999 0.251821 0.813438
0.170000 0.467172 -0.499999 0.330402 0.892019
0.170000 0.467172 -0.399999 0.330402 0.813438
-0.170000 0.467172 0.500001 0.582340 -0.308522
-0.250000 -0.532828 0.500001 0.660921 1.420258
-0.170000 -0.532828 0.500001 0.582340 1.420258
-0.170000 -0.112374 0.450001 0.664371 0.145500
-0.210000 -0.112374 0.400001 0.703662 0.184791
-0.210000 -0.112374 0.450001 0.703662 0.145500
0.210000 -0.112374 -0.399999 0.291112 0.813438
0.170000 -0.112374 -0.449999 0.330402 0.852729
0.170000 -0.112374 -0.399999 0.330402 0.813438
0.210000 -0.112374 0.450001 0.291112 0.145500
0.170000 -0.112374 0.400001 0.330402 0.184791
0.170000 -0.112374 0.450001 0.330402 0.145500
0.210000 -0.146465 0.400001 0.244181 0.184791
0.210000 -0.112374 0.400001 0.303117 0.184791
0.210000 -0.112374 0.400001 0.349706 0.701197
0.170000 0.126263 0.400001 0.388996 0.288647
0.210000 0.126263 0.400001 0.349706 0.288647
-0.210000 0.433081 -0.399999 0.703662 0.813438
-0.170000 0.433081 -0.449999 0.664371 0.852729
-0.210000 0.433081 -0.449999 0.703662 0.852729
0.170000 -0.112374 -0.399999 0.303117 0.813438
-0.170000 -0.112374 -0.399999 0.303117 0.813438
-0.210000 -0.112374 -0.399999 0.303117 0.813438
0.170000 -0.385101 -0.399999 0.330402 1.164870
0.210000 -0.146465 -0.399999 0.291112 0.752320
0.170000 -0.146465 -0.399999 0.330402 0.752320
-0.170000 0.160354 -0.449999 0.664371 0.852729
-0.210000 0.160354 -0.399999 0.703662 0.813438
-0.170000 0.160354 -0.399999 0.664371 0.813438
-0.250000 0.467172 -0.499999 0.742952 0.892019
-0.170000 0.467172 -0.399999 0.664371 0.813438
-0.170000 0.467172 -0.499999 0.664371 0.892019
-0.170000 -0.532828 0.500001 0.393987 -0.621234
-0.170000 -0.385101 0.450001 0.354696 -0.365846
-0.170000 -0.146465 0.450001 0.354696 0.046704
-0.210000 -0.112374 0.400001 0.629443 0.705103
-0.210000 -0.146465 0.400001 0.629443 0.764039
-0.250000 -0.532828 0.400001 0.668733 1.431977
0.250000 0.467172 -0.399999 0.401343 -0.011661
0.250000 -0.532828 -0.499999 0.479924 1.717119
0.250000 0.467172 -0.499999 0.479924 -0.011661
0.210000 -0.146465 -0.399999 0.244181 0.813438
0.210000 -0.112374 -0.399999 0.303117 0.813438
-0.210000 -0.385101 -0.449999 0.703662 0.852729
-0.170000 -0.385101 -0.399999 0.664371 0.813438
-0.170000 -0.385101 -0.449999 0.664371 0.852729
-0.210000 -0.112374 -0.449999 0.703662 0.852729
-0.170000 -0.112374 -0.399999 0.664371 0.813438
-0.170000 -0.112374 -0.449999 0.664371 0.852729
0.250000 -0.532828 -0.499999 0.290884 0.899832
0.170000 -0.532828 -0.399999 0.369465 0.821251
0.170000 -0.532828 -0.499999 0.369465 0.899832
0.170000 0.160354 0.400001 0.330402 0.184791
0.210000 0.160354 0.450001 0.291112 0.145500
0.210000 0.160354 0.400001 0.291112 0.184791
-0.170000 0.433081 0.450001 0.664371 0.145500
-0.210000 0.433081 0.400001 0.703662 0.184791
-0.210000 0.433081 0.450001 0.703662 0.145500
-0.250000 0.467172 -0.499999 0.684358 -0.328053
-0.170000 -0.532828 -0.499999 0.605778 1.400727
-0.250000 -0.532828 -0.499999 0.684358 1.400727
-0.170000 -0.419192 -0.449999 0.358603 1.434729
-0.170000 -0.532828 -0.399999 0.319312 1.631182
-0.170000 -0.532828 -0.499999 0.397893 1.631182
0.210000 -0.385101 -0.399999 -0.168369 0.813438
0.210000 0.126263 0.400001 0.643552 0.174964
-0.210000 0.160354 0.400001 0.707131 0.174964
-0.170000 0.126263 -0.449999 0.656574 0.278575
-0.210000 0.398990 -0.399999 1.152186 0.853143
-0.170000 -0.419192 -0.449999 0.656574 1.295844
0.170000 -0.112374 -0.449999 0.296291 0.723630
0.170000 -0.419192 0.450001 0.296291 1.295844
0.210000 -0.385101 0.400001 0.253905 0.174964
0.210000 -0.385101 -0.399999 0.253905 0.853143
-0.210000 -0.385101 -0.399999 0.698960 0.853143
-0.210000 -0.385101 0.400001 0.698960 0.174964
-0.170000 -0.385101 0.450001 0.656574 0.132577
0.170000 -0.385101 0.450001 0.296291 0.132577
0.170000 0.126263 0.450001 0.296291 0.278575
-0.170000 0.433081 -0.399999 0.656574 0.853143
0.210000 -0.419192 0.400001 -0.373717 0.174964
-0.170000 -0.385101 -0.399999 0.656574 0.853143
0.210000 0.160354 0.400001 0.253905 0.174964
0.210000 0.160354 -0.399999 0.253905 0.853143
0.170000 0.160354 -0.399999 0.296291 0.853143
0.170000 0.160354 -0.449999 0.296291 0.895529
-0.170000 0.160354 -0.449999 0.656574 0.895529
-0.210000 0.160354 -0.399999 0.698960 0.853143
-0.210000 0.160354 0.400001 0.698960 0.174964
-0.170000 0.160354 0.450001 0.656574 0.132577
0.170000 0.160354 0.450001 0.296291 0.132577
0.170000 0.433081 -0.449999 0.296291 -0.293639
0.170000 0.398990 -0.399999 0.296291 0.853143
0.210000 -0.419192 -0.399999 0.253905 0.853143
0.210000 -0.419192 0.400001 0.253905 0.174964
0.170000 -0.419192 0.450001 0.296291 0.132577
-0.170000 -0.419192 0.450001 0.656574 0.132577
-0.210000 -0.419192 0.400001 0.698960 0.174964
-0.210000 -0.419192 -0.399999 0.698960 0.853143
-0.210000 -0.146465 -0.399999 0.134918 0.853143
0.170000 -0.146465 0.450001 0.296291 0.787209
0.210000 0.433081 0.400001 0.253905 0.174964
0.210000 0.433081 -0.399999 0.253905 0.853143
-0.210000 0.433081 -0.399999 0.698960 0.853143
-0.210000 0.433081 0.400001 0.698960 0.174964
-0.170000 0.433081 0.450001 0.656574 0.132577
0.170000 0.433081 0.450001 0.296291 0.132577
-0.210000 -0.419192 -0.399999 -0.373717 0.853143
0.170000 -0.419192 -0.399999 0.296291 0.853143
0.210000 0.126263 -0.399999 0.253905 0.853143
0.210000 0.126263 0.400001 0.253905 0.174964
0.170000 0.126263 0.450001 0.296291 0.132577
-0.170000 0.126263 0.450001 0.656574 0.132577
-0.210000 0.126263 0.400001 0.698960 0.174964
-0.210000 0.126263 -0.399999 0.698960 0.853143
0.170000 0.398990 0.450001 0.296291 -0.230060
-0.170000 -0.112374 -0.399999 0.656574 0.853143
0.210000 0.398990 0.400001 1.152186 0.174964
0.210000 0.398990 -0.399999 0.253905 0.853143
0.210000 0.398990 0.400001 0.253905 0.174964
0.170000 0.398990 0.450001 0.296291 0.132577
-0.170000 0.398990 0.450001 0.656574 0.132577
-0.210000 0.398990 0.400001 0.698960 0.174964
-0.210000 0.398990 -0.399999 0.698960 0.853143
0.210000 -0.146465 -0.399999 0.253905 0.853143
0.210000 -0.146465 0.400001 0.253905 0.174964
0.170000 -0.146465 0.400001 0.296291 0.174964
0.170000 -0.146465 0.450001 0.296291 0.132577
-0.170000 -0.146465 0.450001 0.656574 0.132577
-0.210000 -0.146465 0.400001 0.698960 0.174964
-0.210000 -0.146465 -0.399999 0.698960 0.853143
-0.170000 -0.146465 -0.449999 0.656574 0.895529
0.170000 -0.146465 -0.449999 0.296291 0.895529
0.210000 -0.112374 0.400001 0.253905 0.174964
0.210000 -0.112374 -0.399999 0.253905 0.853143
-0.210000 -0.112374 -0.399999 0.698960 0.853143
-0.210000 -0.112374 0.400001 0.698960 0.174964
-0.170000 -0.112374 0.450001 0.656574 0.132577
0.170000 -0.112374 0.450001 0.296291 0.132577
0.170000 0.126263 -0.449999 0.296291 0.895529
0.170000 0.467172 -0.399999 0.330402 -0.308522
0.210000 0.433081 -0.399999 0.291112 -0.249587
0.170000 0.433081 -0.399999 0.330402 -0.249587
0.170000 -0.419192 -0.399999 0.330402 1.223806
0.170000 -0.532828 -0.399999 0.330402 1.420258
0.170000 -0.385101 -0.399999 0.330402 0.813438
0.210000 0.160354 -0.399999 0.291112 0.221899
-0.250000 -0.532828 0.400001 0.417424 1.107547
-0.170000 -0.532828 0.500001 0.640934 0.106210
0.170000 0.160354 -0.399999 0.401343 0.518760
0.170000 0.398990 -0.399999 0.401343 0.106210
0.170000 0.398990 -0.449999 0.440634 0.106210
0.170000 0.433081 -0.449999 0.440634 0.047274
0.170000 0.433081 -0.399999 0.401343 0.047274
0.170000 0.467172 -0.399999 0.401343 -0.011661
0.170000 0.160354 -0.449999 0.440634 0.518760
0.170000 0.467172 -0.499999 0.479924 -0.011661
0.170000 -0.112374 -0.399999 0.401343 0.990245
0.170000 0.126263 -0.399999 0.401343 0.577695
0.170000 0.126263 -0.449999 0.440634 0.577695
0.170000 -0.112374 -0.449999 0.440634 0.990245
0.170000 -0.532828 -0.399999 0.401343 1.717119
0.170000 -0.419192 -0.449999 0.440634 1.520667
0.170000 -0.419192 -0.399999 0.401343 1.520667
0.170000 -0.385101 -0.399999 0.401343 1.461731
0.170000 -0.146465 -0.399999 0.401343 1.049181
0.170000 -0.146465 0.450001 0.440633 0.341953
0.170000 -0.146465 0.400001 0.479924 0.341953
0.170000 -0.385101 0.400001 0.479924 0.754503
0.170000 0.126263 0.400001 0.479924 -0.129533
0.170000 -0.112374 0.400001 0.479924 0.283017
0.170000 -0.112374 0.450001 0.440633 0.283017
0.170000 0.126263 0.450001 0.440633 -0.129533
0.170000 0.398990 0.400001 0.479924 -0.601019
0.170000 0.160354 0.400001 0.479924 -0.188469
0.170000 0.160354 0.450001 0.440633 -0.188469
0.170000 0.467172 0.500001 0.401343 -0.718890
0.170000 0.398990 0.450001 0.440633 -0.601019
0.170000 0.467172 0.400001 0.479924 -0.718890
0.170000 0.433081 0.400001 0.479924 -0.659955
0.170000 0.433081 0.450001 0.440633 -0.659955
0.170000 -0.419192 0.400001 0.479924 0.813438
0.170000 -0.532828 0.400001 0.479924 1.009891
-0.210000 -0.112374 -0.399999 0.637255 0.677760
-0.170000 -0.112374 -0.399999 0.597965 0.677760
-0.170000 0.126263 -0.399999 0.597965 0.265210
-0.210000 0.126263 -0.399999 0.637255 0.265210
-0.170000 -0.385101 -0.399999 0.597965 1.149245
-0.170000 -0.146465 -0.399999 0.597965 0.736695
-0.210000 -0.146465 -0.399999 0.637255 0.736695
-0.250000 0.467172 -0.399999 0.676546 -0.324147
-0.210000 0.160354 -0.399999 0.637255 0.206274
-0.250000 -0.532828 -0.399999 0.676546 1.404633
-0.210000 -0.385101 -0.399999 0.637255 1.149245
-0.170000 0.160354 -0.399999 0.597965 0.206274
-0.170000 0.398990 -0.399999 0.597965 -0.206276
-0.210000 0.398990 -0.399999 0.637255 -0.206276
-0.210000 0.433081 -0.399999 0.637255 -0.265212
-0.170000 0.433081 -0.399999 0.597965 -0.265212
-0.170000 0.467172 -0.399999 0.597965 -0.324147
-0.170000 0.160354 0.400001 0.664371 0.184791
0.170000 0.467172 0.500001 0.330402 0.106210
0.210000 -0.385101 0.400001 0.349706 1.172683
0.170000 -0.385101 0.400001 0.388996 1.172683
0.170000 -0.146465 0.400001 0.388996 0.760133
0.210000 -0.146465 0.400001 0.349705 0.760133
0.170000 -0.532828 0.400001 0.388996 1.428071
0.170000 -0.419192 0.400001 0.388996 1.231618
0.210000 -0.419192 0.400001 0.349706 1.231618
0.250000 -0.532828 0.400001 0.310415 1.428071
0.170000 0.433081 0.400001 0.388996 -0.241774
0.210000 -0.112374 -0.399999 0.291112 0.693385
-0.250000 0.467172 0.500001 0.742952 0.106210
0.210000 -0.385101 0.400001 0.291112 0.184791
0.170000 0.433081 0.450001 0.330402 0.145500
-0.170000 -0.532828 -0.399999 0.613590 0.813438
0.210000 0.398990 0.400001 0.349705 -0.182839
0.170000 -0.532828 0.400001 0.361652 0.192603
-0.250000 -0.532828 -0.499999 0.405705 1.666338
0.250000 -0.532828 0.500001 0.251821 1.420258
-0.210000 -0.385101 0.450001 0.703662 0.145500
0.170000 0.160354 -0.399999 0.330402 0.813438
0.170000 0.433081 -0.399999 0.330402 0.813438
0.250000 0.467172 -0.499999 0.251821 -0.308522
0.250000 -0.532828 0.500001 0.401343 1.009891
0.250000 0.467172 -0.499999 0.251821 0.892019
-0.250000 0.467172 0.500001 0.660921 -0.308522
-0.170000 -0.112374 0.400001 0.664371 0.184791
0.210000 -0.112374 -0.449999 0.291112 0.852729
0.210000 -0.112374 0.400001 0.291112 0.184791
0.170000 -0.112374 0.400001 0.388996 0.701197
-0.170000 0.433081 -0.399999 0.664371 0.813438
0.210000 -0.385101 -0.399999 0.291112 1.164870
-0.210000 0.160354 -0.449999 0.703662 0.852729
-0.250000 0.467172 -0.399999 0.742952 0.813438
-0.170000 0.160354 0.400001 0.315406 0.577126
-0.170000 0.398990 0.400001 0.315406 0.989676
-0.170000 0.398990 0.450001 0.354696 0.989676
-0.170000 0.433081 0.450001 0.354696 1.048611
-0.170000 0.433081 0.400001 0.315406 1.048611
-0.170000 0.467172 0.400001 0.315406 1.107547
-0.170000 0.160354 0.450001 0.354696 0.577126
-0.170000 0.467172 0.500001 0.393987 1.107547
-0.170000 -0.112374 0.400001 0.315406 0.105640
-0.170000 0.126263 0.400001 0.315406 0.518190
-0.170000 0.126263 0.450001 0.354696 0.518190
-0.170000 -0.112374 0.450001 0.354696 0.105640
-0.170000 -0.532828 0.400001 0.315406 -0.621234
-0.170000 -0.419192 0.450001 0.354696 -0.424781
-0.170000 -0.419192 0.400001 0.315406 -0.424781
-0.170000 -0.385101 0.400001 0.315406 -0.365846
-0.170000 -0.146465 0.400001 0.315406 0.046704
-0.210000 -0.419192 0.400001 0.629443 1.235525
-0.170000 -0.419192 0.400001 0.590153 1.235525
-0.170000 -0.532828 0.400001 0.590153 1.431977
-0.250000 0.467172 0.400001 0.668733 -0.296803
-0.170000 0.467172 0.400001 0.590152 -0.296803
-0.210000 0.433081 0.400001 0.629443 -0.237868
-0.170000 0.433081 0.400001 0.590152 -0.237868
-0.170000 -0.146465 0.400001 0.590153 0.764039
-0.170000 -0.385101 0.400001 0.590153 1.176589
-0.210000 -0.385101 0.400001 0.629443 1.176589
-0.210000 0.398990 0.400001 0.629443 -0.178932
-0.170000 0.398990 0.400001 0.590152 -0.178932
-0.170000 0.160354 0.400001 0.590153 0.233618
-0.210000 0.160354 0.400001 0.629443 0.233618
-0.210000 0.126263 0.400001 0.629443 0.292553
-0.170000 0.126263 0.400001 0.590153 0.292553
-0.170000 -0.112374 0.400001 0.590153 0.705103
0.250000 -0.532828 -0.399999 0.401343 1.717119
-0.210000 -0.385101 -0.399999 0.703662 0.813438
-0.210000 -0.112374 -0.399999 0.703662 0.813438
0.250000 -0.532828 -0.399999 0.290884 0.821251
0.170000 0.160354 0.450001 0.330402 0.145500
0.210000 0.126263 0.400001 0.715667 0.184791
-0.170000 0.433081 0.400001 0.664371 0.184791
-0.170000 0.467172 -0.499999 0.605777 -0.328053
-0.170000 -0.146465 -0.449999 0.358602 0.963243
-0.170000 -0.146465 -0.399999 0.319312 0.963243
-0.170000 -0.385101 -0.399999 0.319312 1.375794
-0.170000 -0.385101 -0.449999 0.358603 1.375794
-0.170000 0.126263 -0.399999 0.319312 0.491758
-0.170000 -0.112374 -0.399999 0.319312 0.904308
-0.170000 -0.112374 -0.449999 0.358602 0.904308
-0.170000 0.467172 -0.499999 0.397893 -0.097599
-0.170000 -0.419192 -0.399999 0.319312 1.434729
-0.170000 0.126263 -0.449999 0.358602 0.491758
-0.170000 0.398990 -0.399999 0.319312 0.020272
-0.170000 0.160354 -0.399999 0.319312 0.432822
-0.170000 0.160354 -0.449999 0.358602 0.432822
-0.170000 0.398990 -0.449999 0.358602 0.020272
-0.170000 0.467172 -0.399999 0.319312 -0.097599
-0.170000 0.433081 -0.399999 0.319312 -0.038663
-0.170000 0.433081 -0.449999 0.358602 -0.038663
3 0 1 2
3 3 4 5
3 6 7 8
3 9 10 11
3 12 13 14
3 15 16 17
3 18 19 20
3 21 22 23
3 24 25 26
3 27 28 29
3 30 31 32
3 33 21 34
3 35 36 37
3 38 39 40
3 41 42 43
3 44 45 46
3 47 48 49
3 50 51 52
3 28 53 54
3 55 56 57
3 58 46 59
3 60 61 62
3 63 64 65
3 66 67 68
3 69 70 71
3 72 73 42
3 74 75 76
3 67 77 78
3 79 80 62
3 81 82 83
3 84 85 86
3 87 88 89
3 90 91 92
3 93 94 95
3 96 97 98
3 99 100 101
3 102 103 104
3 105 106 107
3 108 109 110
3 111 112 113
3 114 115 116
3 117 118 119
3 120 121 122
3 123 124 125
3 126 127 128
3 129 130 131
3 132 133 134
3 135 136 137
3 138 139 140
3 141 142 143
3 144 145 146
3 147 148 149
3 150 151 152
3 153 154 155
3 156 157 158
3 159 160 161
3 162 131 104
3 163 164 165
3 166 167 168
3 169 170 171
3 172 173 174
3 175 176 177
3 178 179 180
3 181 182 183
3 184 185 186
3 187 188 189
3 190 191 168
3 192 193 194
3 195 196 197
3 198 199 200
3 201 202 203
3 204 205 206
3 207 208 209
3 210 211 212
3 213 214 215
3 216 217 218
3 191 219 220
3 221 222 223
3 224 225 226
3 83 162 104
3 227 228 229
3 230 231 232
3 220 219 104
3 191 166 168
3 131 220 104
3 233 234 235
3 236 237 238
3 239 240 241
3 219 242 104
3 0 243 1
3 3 244 4
3 6 245 7
3 9 246 10
3 12 247 13
3 15 248 16
3 18 249 19
3 250 251 21
3 21 252 22
3 252 253 22
3 22 254 255
3 23 250 21
3 22 255 23
3 24 256 25
3 27 257 28
3 30 258 31
3 33 259 21
3 260 261 262
3 262 263 35
3 263 264 35
3 35 265 266
3 37 260 262
3 267 268 37
3 35 266 36
3 36 267 37
3 37 262 35
3 38 269 39
3 41 270 42
3 271 272 44
3 44 273 274
3 45 275 276
3 44 274 45
3 46 271 44
3 45 276 46
3 47 277 48
3 50 278 51
3 279 280 28
3 28 281 53
3 281 282 53
3 53 283 284
3 54 279 28
3 53 284 54
3 55 285 56
3 58 286 46
3 287 288 60
3 60 289 290
3 61 291 292
3 60 290 61
3 62 287 60
3 61 292 62
3 63 293 64
3 66 294 67
3 69 295 70
3 296 297 72
3 72 298 299
3 73 300 301
3 72 299 73
3 42 296 72
3 73 301 42
3 302 303 304
3 304 305 306
3 74 307 308
3 304 306 74
3 76 302 304
3 309 310 76
3 74 308 75
3 75 309 76
3 76 304 74
3 311 312 67
3 67 313 77
3 313 314 77
3 77 315 316
3 78 311 67
3 77 316 78
3 79 317 80
3 84 318 319
3 318 320 319
3 319 91 84
3 91 85 84
3 321 322 85
3 322 86 85
3 87 323 88
3 90 324 91
3 96 325 97
3 99 326 100
3 327 328 329
3 330 331 332
3 333 327 329
3 330 332 334
3 333 329 334
3 329 330 334
3 335 336 337
3 338 335 337
3 337 333 334
3 105 339 340
3 339 341 340
3 337 334 338
3 334 105 338
3 105 340 106
3 106 342 343
3 107 338 105
3 106 343 107
3 344 345 346
3 344 346 108
3 347 348 349
3 349 344 110
3 344 108 110
3 350 347 349
3 351 352 353
3 353 350 354
3 350 349 354
3 354 349 110
3 355 351 353
3 356 357 358
3 355 353 354
3 354 356 358
3 354 358 355
3 359 360 109
3 360 110 109
3 361 362 363
3 361 363 364
3 365 366 367
3 361 364 368
3 364 369 368
3 361 368 370
3 371 365 367
3 367 361 370
3 113 371 370
3 371 367 370
3 369 372 373
3 369 373 374
3 375 376 377
3 369 374 368
3 375 377 368
3 374 375 368
3 370 111 113
3 117 378 118
3 120 379 121
3 380 381 382
3 380 382 383
3 384 385 386
3 380 383 387
3 383 125 124
3 387 384 386
3 386 380 387
3 383 124 387
3 388 123 125
3 126 389 127
3 132 390 133
3 135 391 136
3 138 392 139
3 141 393 142
3 144 394 145
3 147 395 148
3 150 396 151
3 153 397 154
3 156 398 157
3 159 399 160
3 163 400 164
3 169 401 170
3 172 402 173
3 175 403 176
3 178 404 179
3 181 405 182
3 184 406 185
3 187 407 188
3 192 408 193
3 195 409 196
3 201 410 202
3 204 411 205
3 207 412 208
3 413 414 415
3 416 417 418
3 419 413 415
3 416 418 420
3 419 415 420
3 415 416 420
3 421 422 423
3 424 421 423
3 423 419 420
3 210 425 426
3 425 427 426
3 423 420 424
3 420 210 424
3 210 426 211
3 211 428 429
3 212 424 210
3 211 429 212
3 430 431 432
3 433 434 435
3 434 436 435
3 430 432 215
3 437 438 439
3 439 430 215
3 215 433 213
3 433 435 440
3 440 441 442
3 433 440 443
3 437 439 214
3 439 215 214
3 440 442 443
3 444 445 446
3 433 443 444
3 444 446 213
3 433 444 213
3 216 447 217
3 191 190 219
3 221 448 222
3 224 449 225
3 227 450 228
3 230 451 231
3 191 452 166
3 233 453 234
3 236 454 237
3 455 456 457
3 455 457 458
3 459 460 461
3 461 455 241
3 455 458 241
3 461 241 462
3 239 463 240
3 458 239 241
3 464 459 461
3 465 466 467
3 467 464 462
3 464 461 462
3 468 465 467
3 469 470 471
3 471 468 462
3 468 467 462
3 462 469 471
