ply
format ascii 1.0
comment Created by Blender 2.79 (sub 0) - www.blender.org, source file: 'shop.blend'
element vertex 42
property float x
property float y
property float z
property float s
property float t
property uchar red
property uchar green
property uchar blue
element face 28
property list uchar uint vertex_indices
end_header
0.500000 0.500000 -1.500000 -1.390393 2.363049 255 0 0
0.500000 -0.500000 1.500000 1.445080 -0.472424 255 0 0
0.500000 -0.500000 -1.500000 -1.390393 -0.472424 255 0 0
0.500000 -0.500000 1.500000 -1.390393 2.363049 255 0 0
0.000000 -0.500000 -1.000000 0.027344 0.000155 255 0 0
-0.500000 0.500000 -1.500000 1.445080 2.363049 255 0 0
0.500000 -0.500000 -1.500000 -1.390393 -0.472424 255 8 8
-0.500000 -0.500000 -1.500000 1.445080 -0.472424 255 1 1
0.500000 0.500000 1.500000 -1.390393 2.363049 255 0 0
0.500000 0.500000 -1.500000 -1.390393 -0.472424 255 0 0
0.000000 0.500000 1.000000 0.027344 1.890470 255 0 0
-0.500000 -0.500000 1.500000 1.445080 -0.472424 255 0 0
0.500000 -0.500000 1.500000 -1.390393 -0.472424 255 0 0
-0.500000 0.500000 1.500000 1.445080 2.363049 255 0 0
-0.500000 -0.500000 1.000000 0.972502 -0.472424 255 0 0
-0.500000 0.500000 -1.500000 -1.390393 2.363049 255 0 0
-0.500000 -0.500000 -1.000000 -0.917814 -0.472424 255 0 0
-0.500000 0.500000 -1.000000 -0.917814 2.363049 255 0 0
0.000000 -0.500000 1.000000 0.972502 -0.472424 255 0 0
0.000000 0.500000 -1.000000 -0.917814 2.363049 255 0 0
0.000000 -0.500000 -1.000000 -0.917814 -0.472424 255 0 0
-0.500000 0.500000 -1.000000 1.445080 2.363049 255 0 0
0.000000 -0.500000 -1.000000 0.027344 -0.472424 255 0 0
0.000000 0.500000 -1.000000 0.027344 2.363049 255 0 0
-0.500000 -0.500000 1.000000 1.445080 -0.472424 255 0 0
0.000000 0.500000 1.000000 0.027344 2.363049 255 0 0
0.000000 -0.500000 1.000000 0.027344 -0.472424 255 0 0
0.500000 0.500000 1.500000 1.445080 2.363049 255 0 0
-0.500000 -0.500000 1.500000 1.445080 2.363049 255 0 0
0.000000 -0.500000 1.000000 0.027344 1.890470 255 0 0
-0.500000 -0.500000 1.000000 1.445080 1.890470 255 0 0
-0.500000 -0.500000 -1.000000 1.445080 0.000155 255 0 0
-0.500000 -0.500000 -1.500000 1.445080 -0.472424 255 0 0
-0.500000 0.500000 1.000000 1.445080 1.890470 255 0 0
-0.500000 0.500000 -1.500000 1.445080 -0.472424 255 0 0
0.000000 0.500000 -1.000000 0.027344 0.000155 255 0 0
-0.500000 0.500000 -1.000000 1.445080 0.000155 255 0 0
-0.500000 0.500000 1.000000 0.972502 2.363049 255 0 0
-0.500000 -0.500000 -1.500000 -1.390393 -0.472424 255 0 0
0.000000 0.500000 1.000000 0.972502 2.363049 255 0 0
-0.500000 -0.500000 -1.000000 1.445080 -0.472424 255 0 0
-0.500000 0.500000 1.000000 1.445080 2.363049 255 0 0
3 0 1 2
3 3 4 2
3 5 6 7
3 8 9 10
3 8 11 12
3 13 14 11
3 15 16 17
3 18 19 20
3 21 22 23
3 24 25 26
3 0 27 1
3 3 28 29
3 28 30 29
3 31 32 4
3 32 2 4
3 3 29 4
3 5 0 6
3 33 13 10
3 13 8 10
3 9 34 35
3 34 36 35
3 9 35 10
3 8 13 11
3 13 37 14
3 15 38 16
3 18 39 19
3 21 40 22
3 24 41 25
