ply
format ascii 1.0
comment Created by Blender 2.79 (sub 0) - www.blender.org, source file: 'shop.blend'
element vertex 184
property float x
property float y
property float z
property float s
property float t
property uchar red
property uchar green
property uchar blue
element face 96
property list uchar uint vertex_indices
end_header
0.337218 0.205000 -0.333333 -2.556259 -0.674774 255 0 0
0.337218 0.205000 2.333333 -0.770871 -0.674774 255 0 0
-0.482782 0.205000 1.000000 -1.663565 0.049914 255 0 0
-0.368602 0.455000 1.757713 0.285141 1.060230 255 0 0
-0.077225 0.205000 2.333333 0.506082 0.674840 255 0 0
-0.077225 0.455000 2.333333 0.285141 0.674840 255 0 0
-0.482782 0.205000 1.000000 0.506082 -0.199999 255 0 0
-0.368602 0.455000 1.757713 0.285141 -0.707304 255 0 0
-0.482782 0.455000 1.000000 0.285141 -0.199999 255 0 0
-0.368602 0.205000 0.242287 0.506082 0.307305 255 0 0
-0.368602 0.455000 0.242287 0.285141 0.307305 255 0 0
-0.368602 0.205000 0.242287 0.506082 -1.460228 255 0 0
-0.077225 0.455000 -0.333333 0.285141 -1.074839 255 0 0
-0.077225 0.205000 -0.333333 0.506082 -1.074839 255 0 0
0.337218 0.455000 2.333333 2.764196 -0.674775 255 0 0
0.337218 0.455000 -0.333333 0.978808 -0.674774 255 0 0
-0.482782 0.455000 1.000000 1.871502 0.049914 255 0 0
0.337218 0.205000 2.333333 0.506082 0.674840 255 0 0
0.337218 0.455000 -0.333333 0.285141 2.460228 255 0 0
0.337218 0.455000 2.333333 0.285141 0.674840 255 0 0
0.337218 0.455000 2.333333 0.285141 -0.674774 255 0 0
-0.077225 0.205000 2.333333 0.506082 -0.308504 255 0 0
0.337218 0.205000 2.333333 0.506082 -0.674774 255 0 0
0.337218 0.205000 -0.333333 0.506082 -0.674774 255 0 0
-0.077225 0.455000 -0.333333 0.285141 -0.308504 255 0 0
0.337218 0.455000 -0.333333 0.285141 -0.674774 255 0 0
-0.480000 1.260000 2.200000 0.858059 -1.028057 255 0 0
-0.480000 1.160000 2.200000 0.944330 -1.028057 255 0 0
-0.480000 1.160000 2.300000 0.944330 -0.941786 255 0 0
-0.480000 1.260000 2.300000 0.858059 0.464433 255 0 0
-0.480000 1.160000 2.300000 0.944330 0.464433 255 0 0
0.080000 1.160000 2.300000 0.944330 0.947552 255 0 0
0.080000 1.260000 2.300000 0.858059 -0.941786 255 255 255
0.080000 1.160000 2.300000 0.944330 -0.941786 255 255 255
0.080000 1.160000 2.200000 0.944330 -1.028057 255 255 255
0.080000 1.260000 2.200000 0.858059 -0.777871 255 0 0
0.080000 1.160000 2.200000 0.944330 -0.777871 255 0 0
-0.480000 1.160000 2.200000 0.944330 -1.260990 255 0 0
0.080000 1.160000 2.300000 0.124754 0.947552 255 0 0
-0.480000 1.160000 2.300000 0.124754 0.464433 255 0 0
-0.480000 1.160000 2.200000 0.038483 0.464433 255 0 0
-0.480000 1.260000 2.300000 0.124754 -1.260990 255 0 0
0.080000 1.260000 2.300000 0.124754 -0.777871 255 0 0
0.080000 1.260000 2.200000 0.038483 -0.777871 255 0 0
0.060719 1.500000 2.125000 0.763861 0.662746 255 0 0
0.060719 0.500000 2.125000 0.763861 0.014897 255 0 0
0.060719 0.500000 2.375000 0.925823 0.014897 255 0 0
0.060719 1.500000 2.375000 0.792426 0.662746 255 0 0
0.060719 0.500000 2.375000 0.792426 0.014897 255 0 0
0.310719 0.500000 2.375000 0.954389 0.014897 255 0 0
0.310719 1.500000 2.375000 0.925823 0.662746 255 0 0
0.310719 0.500000 2.375000 0.925823 0.014897 255 0 0
0.310719 0.500000 2.125000 0.763861 0.014897 255 0 0
0.310719 1.500000 2.125000 0.954389 0.662746 255 0 0
0.310719 0.500000 2.125000 0.954389 0.014897 255 0 0
0.060719 0.500000 2.125000 0.792426 0.014897 255 0 0
0.310719 0.500000 2.375000 0.954389 0.813937 255 0 0
0.060719 0.500000 2.375000 0.792426 0.813937 255 0 0
0.060719 0.500000 2.125000 0.792426 0.975900 255 0 0
0.060719 1.500000 2.375000 0.792426 0.813937 255 0 0
0.310719 1.500000 2.375000 0.954389 0.813937 255 0 0
0.310719 1.500000 2.125000 0.954389 0.975900 255 0 0
-0.480000 1.260000 -0.300000 0.858059 -1.028057 255 0 0
-0.480000 1.160000 -0.300000 0.944330 -1.028057 255 0 0
-0.480000 1.160000 -0.200000 0.944330 -0.941786 255 0 0
-0.480000 1.260000 -0.200000 0.858059 0.464433 255 0 0
-0.480000 1.160000 -0.200000 0.944330 0.464433 255 0 0
0.080000 1.160000 -0.200000 0.944330 0.947552 255 0 0
0.080000 1.260000 -0.200000 0.858059 -0.941786 255 255 255
0.080000 1.160000 -0.200000 0.944330 -0.941786 255 255 255
0.080000 1.160000 -0.300000 0.944330 -1.028057 255 255 255
0.080000 1.260000 -0.300000 0.858059 -0.777871 255 0 0
0.080000 1.160000 -0.300000 0.944330 -0.777871 255 0 0
-0.480000 1.160000 -0.300000 0.944330 -1.260990 255 0 0
0.080000 1.160000 -0.200000 0.124754 0.947552 255 0 0
-0.480000 1.160000 -0.200000 0.124754 0.464433 255 0 0
-0.480000 1.160000 -0.300000 0.038483 0.464433 255 0 0
-0.480000 1.260000 -0.200000 0.124754 -1.260990 255 0 0
0.080000 1.260000 -0.200000 0.124754 -0.777871 255 0 0
0.080000 1.260000 -0.300000 0.038483 -0.777871 255 0 0
0.060719 1.500000 -0.375000 0.763861 0.662746 255 0 0
0.060719 0.500000 -0.375000 0.763861 0.014897 255 0 0
0.060719 0.500000 -0.125000 0.925823 0.014897 255 0 0
0.060719 1.500000 -0.125000 0.792426 0.662746 255 0 0
0.060719 0.500000 -0.125000 0.792426 0.014897 255 0 0
0.310719 0.500000 -0.125000 0.954389 0.014897 255 0 0
0.310719 1.500000 -0.125000 0.925823 0.662746 255 0 0
0.310719 0.500000 -0.125000 0.925823 0.014897 255 0 0
0.310719 0.500000 -0.375000 0.763861 0.014897 255 0 0
0.310719 1.500000 -0.375000 0.954389 0.662746 255 0 0
0.310719 0.500000 -0.375000 0.954389 0.014897 255 0 0
0.060719 0.500000 -0.375000 0.792426 0.014897 255 0 0
0.310719 0.500000 -0.125000 0.954389 0.813937 255 0 0
0.060719 0.500000 -0.125000 0.792426 0.813937 255 0 0
0.060719 0.500000 -0.375000 0.792426 0.975900 255 0 0
0.060719 1.500000 -0.125000 0.792426 0.813937 255 0 0
0.310719 1.500000 -0.125000 0.954389 0.813937 255 0 0
0.310719 1.500000 -0.375000 0.954389 0.975900 255 0 0
0.100000 1.510000 -0.325001 0.108476 -0.879112 255 0 0
0.100000 1.450000 2.325000 0.164512 1.922680 255 0 0
0.100000 1.450000 -0.325001 0.164512 -0.879112 255 0 0
0.100000 1.450000 2.325000 0.887662 0.311854 255 0 0
0.040000 1.510000 2.325000 0.831626 0.367890 255 0 0
0.040000 1.450000 2.325000 0.887662 0.367890 255 0 0
0.040000 1.510000 2.325000 0.102685 1.922219 255 0 0
0.040000 1.450000 -0.325001 0.158721 -0.879573 255 0 0
0.040000 1.450000 2.325000 0.158721 1.922219 255 0 0
0.040000 1.510000 -0.325001 0.825704 0.269667 255 0 0
0.100000 1.450000 -0.325001 0.881740 0.213631 255 0 0
0.040000 1.450000 -0.325001 0.881740 0.269667 255 0 0
0.040000 1.450000 2.325000 0.132219 -0.876172 255 0 0
0.100000 1.450000 -0.325001 0.076184 1.925621 255 0 0
0.100000 1.450000 2.325000 0.076183 -0.876172 255 0 0
0.100000 1.510000 2.325000 0.064601 -0.876172 255 0 0
0.040000 1.510000 -0.325001 0.120637 1.925621 255 0 0
0.040000 1.510000 2.325000 0.120637 -0.876172 255 0 0
-0.404281 1.270000 -0.325001 0.108476 -0.879112 255 0 0
-0.404281 1.210000 2.325000 0.164512 1.922680 255 0 0
-0.404281 1.210000 -0.325001 0.164512 -0.879112 255 0 0
-0.404281 1.210000 2.325000 0.887662 0.311854 255 0 0
-0.464281 1.270000 2.325000 0.831626 0.367890 255 0 0
-0.464281 1.210000 2.325000 0.887662 0.367890 255 0 0
-0.464281 1.270000 2.325000 0.102685 1.922219 255 0 0
-0.464281 1.210000 -0.325001 0.158721 -0.879573 255 0 0
-0.464281 1.210000 2.325000 0.158721 1.922219 255 0 0
-0.464281 1.270000 -0.325001 0.825704 0.269667 255 0 0
-0.404281 1.210000 -0.325001 0.881740 0.213631 255 0 0
-0.464281 1.210000 -0.325001 0.881740 0.269667 255 0 0
-0.464281 1.210000 2.325000 0.132219 -0.876172 255 0 0
-0.404281 1.210000 -0.325001 0.076184 1.925621 255 0 0
-0.404281 1.210000 2.325000 0.076183 -0.876172 255 0 0
-0.404281 1.270000 2.325000 0.064601 -0.876172 255 0 0
-0.464281 1.270000 -0.325001 0.120637 1.925621 255 0 0
-0.464281 1.270000 2.325000 0.120637 -0.876172 255 0 0
-0.077225 0.205000 2.333333 -0.770871 -0.308504 255 0 0
-0.368602 0.205000 1.757713 -1.156260 -0.050995 255 0 0
-0.368602 0.205000 0.242287 -2.170870 -0.050995 255 0 0
-0.077225 0.205000 -0.333333 -2.556259 -0.308504 255 0 0
-0.368602 0.205000 1.757713 0.506082 1.060230 255 0 0
-0.368602 0.205000 1.757713 0.506082 -0.707304 255 0 0
-0.368602 0.455000 0.242287 0.285141 -1.460228 255 0 0
-0.077225 0.455000 -0.333333 0.978808 -0.308504 255 0 0
-0.368602 0.455000 0.242287 1.364197 -0.050995 255 0 0
-0.368602 0.455000 1.757713 2.378806 -0.050995 255 0 0
-0.077225 0.455000 2.333333 2.764196 -0.308504 255 0 0
0.337218 0.205000 -0.333333 0.506083 2.460228 255 0 0
-0.077225 0.455000 2.333333 0.285141 -0.308504 255 0 0
-0.077225 0.205000 -0.333333 0.506082 -0.308504 255 0 0
-0.480000 1.260000 2.300000 0.858059 -0.941786 255 0 0
0.080000 1.260000 2.300000 0.858059 0.947552 255 0 0
0.080000 1.260000 2.200000 0.858059 -1.028057 255 255 255
-0.480000 1.260000 2.200000 0.858059 -1.260990 255 0 0
0.080000 1.160000 2.200000 0.038483 0.947552 255 0 0
-0.480000 1.260000 2.200000 0.038483 -1.260990 255 0 0
0.060719 1.500000 2.375000 0.925823 0.662746 255 0 0
0.310719 1.500000 2.375000 0.954389 0.662746 255 0 0
0.310719 1.500000 2.125000 0.763861 0.662746 255 0 0
0.060719 1.500000 2.125000 0.792426 0.662746 255 0 0
0.310719 0.500000 2.125000 0.954389 0.975900 255 0 0
0.060719 1.500000 2.125000 0.792426 0.975900 255 0 0
-0.480000 1.260000 -0.200000 0.858059 -0.941786 255 0 0
0.080000 1.260000 -0.200000 0.858059 0.947552 255 0 0
0.080000 1.260000 -0.300000 0.858059 -1.028057 255 255 255
-0.480000 1.260000 -0.300000 0.858059 -1.260990 255 0 0
0.080000 1.160000 -0.300000 0.038483 0.947552 255 0 0
-0.480000 1.260000 -0.300000 0.038483 -1.260990 255 0 0
0.060719 1.500000 -0.125000 0.925823 0.662746 255 0 0
0.310719 1.500000 -0.125000 0.954389 0.662746 255 0 0
0.310719 1.500000 -0.375000 0.763861 0.662746 255 0 0
0.060719 1.500000 -0.375000 0.792426 0.662746 255 0 0
0.310719 0.500000 -0.375000 0.954389 0.975900 255 0 0
0.060719 1.500000 -0.375000 0.792426 0.975900 255 0 0
0.100000 1.510000 2.325000 0.108476 1.922680 255 0 0
0.100000 1.510000 2.325000 0.831626 0.311854 255 0 0
0.040000 1.510000 -0.325001 0.102685 -0.879573 255 0 0
0.100000 1.510000 -0.325001 0.825704 0.213631 255 0 0
0.040000 1.450000 -0.325001 0.132219 1.925621 255 0 0
0.100000 1.510000 -0.325001 0.064601 1.925621 255 0 0
-0.404281 1.270000 2.325000 0.108476 1.922680 255 0 0
-0.404281 1.270000 2.325000 0.831626 0.311854 255 0 0
-0.464281 1.270000 -0.325001 0.102685 -0.879573 255 0 0
-0.404281 1.270000 -0.325001 0.825704 0.213631 255 0 0
-0.464281 1.210000 -0.325001 0.132219 1.925621 255 0 0
-0.404281 1.270000 -0.325001 0.064601 1.925621 255 0 0
3 0 1 2
3 3 4 5
3 6 7 8
3 9 8 10
3 11 12 13
3 14 15 16
3 17 18 19
3 20 21 22
3 23 24 25
3 26 27 28
3 29 30 31
3 32 33 34
3 35 36 37
3 38 39 40
3 41 42 43
3 44 45 46
3 47 48 49
3 50 51 52
3 53 54 55
3 56 57 58
3 59 60 61
3 62 63 64
3 65 66 67
3 68 69 70
3 71 72 73
3 74 75 76
3 77 78 79
3 80 81 82
3 83 84 85
3 86 87 88
3 89 90 91
3 92 93 94
3 95 96 97
3 98 99 100
3 101 102 103
3 104 105 106
3 107 108 109
3 110 111 112
3 113 114 115
3 116 117 118
3 119 120 121
3 122 123 124
3 125 126 127
3 128 129 130
3 131 132 133
3 1 134 135
3 135 2 1
3 2 136 0
3 136 137 0
3 3 138 4
3 6 139 7
3 9 6 8
3 11 140 12
3 15 141 142
3 142 16 15
3 16 143 14
3 143 144 14
3 17 145 18
3 20 146 21
3 23 147 24
3 26 28 148
3 29 31 149
3 32 34 150
3 35 37 151
3 38 40 152
3 41 43 153
3 44 46 154
3 47 49 155
3 50 52 156
3 53 55 157
3 56 58 158
3 59 61 159
3 62 64 160
3 65 67 161
3 68 70 162
3 71 73 163
3 74 76 164
3 77 79 165
3 80 82 166
3 83 85 167
3 86 88 168
3 89 91 169
3 92 94 170
3 95 97 171
3 98 172 99
3 101 173 102
3 104 174 105
3 107 175 108
3 110 176 111
3 113 177 114
3 116 178 117
3 119 179 120
3 122 180 123
3 125 181 126
3 128 182 129
3 131 183 132
