ply
format ascii 1.0
comment Created by Blender 2.79 (sub 0) - www.blender.org, source file: 'sculptor.blend'
element vertex 348
property float x
property float y
property float z
property float s
property float t
property uchar red
property uchar green
property uchar blue
element face 192
property list uchar uint vertex_indices
end_header
0.199951 1.131028 0.023158 0.244658 0.249833 255 0 0
-0.199951 0.745740 0.130732 0.487594 0.001508 255 0 0
0.199951 0.745740 0.130732 0.487594 0.251341 255 0 0
0.199951 1.077258 -0.169428 0.000000 0.395153 255 0 0
0.199951 0.745740 0.130732 0.149717 0.598011 255 0 0
0.199951 0.691969 -0.061853 0.027782 0.601764 255 0 0
-0.199951 1.077258 -0.169428 0.027782 0.254560 255 0 0
0.199951 1.131028 0.023158 0.121935 0.391400 255 0 0
-0.199951 0.691969 -0.061853 0.487594 0.000000 255 0 0
-0.199951 1.131028 0.023158 0.611076 0.249976 255 0 0
-0.199951 1.077258 -0.169428 0.487594 0.249886 255 0 0
0.199951 0.691969 -0.061853 0.482894 0.801938 255 0 0
-0.199951 0.745740 0.130732 0.638267 0.725579 255 0 0
-0.199951 0.691969 -0.061853 0.638267 0.801938 255 0 0
-0.199951 0.691969 -0.061853 0.000000 0.000924 255 0 0
0.199951 1.077258 -0.169428 0.244658 0.249882 255 0 0
0.199951 0.691969 -0.061853 0.000000 0.250807 255 0 0
0.500000 -0.501355 0.501754 0.333329 0.500087 255 0 0
-0.405102 0.499122 0.418763 0.635049 0.013575 255 0 0
-0.500000 -0.501355 0.501754 0.666658 0.500087 255 0 0
-0.405102 0.499122 0.418763 0.362169 0.500087 255 0 0
-0.500000 -0.497866 -0.498240 0.666684 0.986982 255 0 0
-0.500000 -0.501355 0.501754 0.333342 0.986982 255 0 0
-0.405102 0.502007 -0.408272 0.031609 0.013575 255 0 0
0.500000 -0.497866 -0.498240 0.333329 0.500087 255 0 0
-0.500000 -0.497866 -0.498240 0.000000 0.500087 255 0 0
0.500000 -0.497866 -0.498240 0.000000 1.000000 255 0 0
0.433094 0.528255 0.432656 0.309112 0.500087 255 0 0
0.500000 -0.501355 0.501754 0.333342 1.000000 255 0 0
-0.500000 -0.501355 0.501754 0.666658 0.484631 255 0 0
0.500000 -0.497866 -0.498240 1.000000 0.000000 255 0 0
0.500000 -0.501355 0.501754 1.000000 0.484631 255 0 0
-0.405102 0.499122 0.418763 0.666684 0.506771 255 0 0
0.433094 0.531236 -0.421961 0.946259 0.914263 255 0 0
-0.405102 0.502007 -0.408272 0.666684 0.907579 255 0 0
-0.029983 0.129224 0.263641 0.460686 0.400628 255 255 255
-0.190017 -0.143043 0.389446 0.399371 0.285243 255 255 255
-0.029983 -0.143043 0.389446 0.461063 0.285243 255 255 255
-0.029983 0.045328 0.082075 0.537802 0.400628 255 255 255
-0.029983 -0.226939 0.207880 0.538179 0.285243 255 255 255
-0.190017 0.045328 0.082075 0.777467 0.415355 255 255 255
-0.029983 0.129224 0.263641 0.700447 0.353739 255 255 255
-0.029983 0.045328 0.082075 0.777467 0.353739 255 255 255
-0.190017 0.045328 0.082075 0.599495 0.400628 255 255 255
-0.190017 -0.143043 0.389446 0.676987 0.285243 255 255 255
-0.190017 0.129224 0.263641 0.676610 0.400628 255 255 255
-0.029983 -0.226939 0.207880 0.756747 0.346421 255 255 255
-0.190017 -0.143043 0.389446 0.679358 0.285099 255 255 255
-0.190017 -0.226939 0.207880 0.756747 0.285099 255 255 255
-0.190017 -0.226939 0.207880 0.599871 0.285243 255 255 255
0.189998 0.708682 -0.312613 0.080500 0.409472 255 255 255
0.029964 0.426372 -0.210974 0.018817 0.294587 255 255 255
0.189998 0.426372 -0.210974 0.080778 0.294587 255 255 255
0.189998 0.640930 -0.500800 0.532076 0.521696 255 0 0
0.189998 0.426372 -0.210974 0.670380 0.680934 255 0 0
0.189998 0.358620 -0.399162 0.549256 0.678716 255 0 0
0.029964 0.640930 -0.500800 0.549256 0.467016 255 0 0
0.189998 0.708682 -0.312613 0.653200 0.523914 255 0 0
0.029964 0.640930 -0.500800 0.670380 0.654441 255 0 0
0.029964 0.426372 -0.210974 0.793907 0.467097 255 0 0
0.029964 0.708682 -0.312613 0.793907 0.654521 255 0 0
0.189998 0.358620 -0.399162 0.311390 0.284635 255 255 255
0.029964 0.426372 -0.210974 0.388779 0.345957 255 255 255
0.029964 0.358620 -0.399162 0.311390 0.345957 255 255 255
0.029964 0.358620 -0.399162 0.630890 0.681507 255 0 0
0.189998 0.640930 -0.500800 0.532076 0.864223 255 0 0
0.189998 0.358620 -0.399162 0.532076 0.680934 255 0 0
0.200027 0.359923 -0.037497 0.085242 0.571741 255 0 0
0.020034 0.530192 -0.399340 0.016025 0.417718 255 0 0
0.200027 0.530192 -0.399340 0.085349 0.417718 255 0 0
0.200027 0.711169 -0.314179 0.348971 0.274368 255 0 0
0.200027 0.359923 -0.037497 0.244658 0.500644 255 0 0
0.200027 0.530192 -0.399340 0.244658 0.258130 255 0 0
0.020034 0.540899 0.047664 0.314478 0.504459 255 255 255
0.200027 0.359923 -0.037497 0.391867 0.573446 255 255 255
0.200027 0.540899 0.047664 0.314478 0.573446 255 255 255
0.020034 0.711169 -0.314179 0.532076 0.716801 255 0 0
0.020034 0.359923 -0.037497 0.408543 0.467084 255 0 0
0.020034 0.540899 0.047664 0.532075 0.467016 255 0 0
0.200027 0.711169 -0.314179 0.392811 0.492966 255 0 0
0.020034 0.530192 -0.399340 0.315422 0.423979 255 0 0
0.020034 0.711169 -0.314179 0.392811 0.423979 255 0 0
0.020034 0.711169 -0.314179 0.408543 0.251341 255 0 0
0.200027 0.540899 0.047664 0.348971 0.516883 255 0 0
0.280072 1.025847 0.003377 0.947310 0.654521 255 0 0
0.098664 0.736017 -0.227080 0.886029 0.410273 255 0 0
0.195262 0.710134 -0.227170 0.947310 0.412216 255 0 0
0.294918 1.081539 -0.078350 0.949476 0.352418 255 0 0
0.195262 0.710134 -0.227170 0.898480 0.179865 255 0 0
0.210108 0.765826 -0.308897 0.949476 0.157729 255 0 0
0.294918 1.081539 -0.078350 0.407580 0.519565 255 0 0
0.183474 1.051730 0.003467 0.368196 0.579297 255 0 0
0.280072 1.025847 0.003377 0.368196 0.516883 255 0 0
0.113510 0.791709 -0.308807 0.944928 0.900654 255 0 0
0.183474 1.051730 0.003467 0.883537 0.654521 255 0 0
0.198320 1.107422 -0.078259 0.944928 0.655947 255 0 0
0.210108 0.765826 -0.308897 0.951221 0.396730 255 0 0
0.098664 0.736017 -0.227080 0.989143 0.357623 255 0 0
0.113510 0.791709 -0.308807 0.989143 0.396730 255 0 0
0.113510 0.791709 -0.308807 0.306226 0.737100 255 0 0
0.294918 1.081539 -0.078350 0.244658 0.926295 255 0 0
0.210108 0.765826 -0.308897 0.244658 0.740502 255 0 0
0.066606 0.745763 -0.067414 0.901428 0.620406 255 255 255
-0.003402 0.678078 -0.049531 0.874198 0.593607 255 255 255
0.066606 0.678078 -0.049531 0.901313 0.593607 255 255 255
0.066606 0.727880 -0.135099 0.714741 0.193686 255 0 0
0.066606 0.678078 -0.049531 0.668381 0.157439 255 0 0
0.066606 0.660195 -0.117215 0.711145 0.157438 255 0 0
-0.003402 0.727880 -0.135099 0.709424 0.218202 255 0 0
0.066606 0.745763 -0.067414 0.671978 0.193686 255 0 0
-0.003402 0.727880 -0.135099 0.955659 0.620406 255 255 255
-0.003402 0.678078 -0.049531 0.982660 0.593607 255 255 255
-0.003402 0.745763 -0.067414 0.982775 0.620406 255 255 255
0.066606 0.660195 -0.117215 0.983643 0.589003 255 0 0
-0.003402 0.678078 -0.049531 0.956892 0.561839 255 0 0
-0.003402 0.660195 -0.117215 0.983643 0.561839 255 0 0
-0.003402 0.660195 -0.117215 0.719156 0.407825 255 0 0
0.066606 0.727880 -0.135099 0.762053 0.451424 255 0 0
0.066606 0.660195 -0.117215 0.719156 0.451570 255 0 0
-0.303751 0.742836 -0.123163 0.725970 0.812447 255 0 0
-0.013927 0.652538 -0.045819 0.781330 0.996360 255 0 0
-0.013927 0.742565 -0.045505 0.725970 0.995162 255 0 0
-0.277876 0.743172 -0.219731 0.306226 0.862125 255 0 0
-0.013927 0.742565 -0.045505 0.364149 0.993958 255 0 0
0.011949 0.742902 -0.142073 0.306226 0.976815 255 0 0
-0.277876 0.653146 -0.220045 0.666660 0.157825 255 0 0
-0.303751 0.742836 -0.123163 0.611076 0.218246 255 0 0
-0.277876 0.743172 -0.219731 0.611076 0.157438 255 0 0
0.011949 0.652875 -0.142387 0.943957 0.665251 255 0 0
-0.303751 0.652809 -0.123477 0.982763 0.780410 255 0 0
-0.277876 0.653146 -0.220045 0.944088 0.780516 255 0 0
0.011949 0.652875 -0.142387 0.980799 0.627567 255 0 0
-0.013927 0.742565 -0.045505 0.941692 0.661697 255 0 0
-0.013927 0.652538 -0.045819 0.941692 0.627567 255 0 0
0.011949 0.652875 -0.142387 0.944928 0.838809 255 0 0
-0.277876 0.743172 -0.219731 1.000000 0.654521 255 0 0
0.011949 0.742902 -0.142073 1.000000 0.837009 255 0 0
-0.205996 1.086020 -0.011119 0.408543 0.716868 255 0 0
-0.306002 0.692438 -0.081935 0.470279 0.958576 255 0 0
-0.205996 0.692438 -0.081935 0.408543 0.958013 255 0 0
-0.205996 1.103729 -0.109545 0.877167 0.860692 255 0 0
-0.205996 0.692438 -0.081935 0.822115 0.656842 255 0 0
-0.205996 0.710147 -0.180360 0.883537 0.654521 255 0 0
-0.306002 1.103729 -0.109545 0.883537 0.895962 255 0 0
-0.205996 1.086020 -0.011119 0.815745 0.863012 255 0 0
-0.306002 0.710147 -0.180360 0.898480 0.407679 255 0 0
-0.306002 1.086020 -0.011119 0.836742 0.157729 255 0 0
-0.306002 1.103729 -0.109545 0.898480 0.157779 255 0 0
-0.205996 0.710147 -0.180360 0.982303 0.828757 255 0 0
-0.306002 0.692438 -0.081935 0.943196 0.790835 255 0 0
-0.306002 0.710147 -0.180360 0.982303 0.790835 255 0 0
-0.306002 0.710147 -0.180360 0.470279 0.955470 255 0 0
-0.205996 1.103729 -0.109545 0.532028 0.716868 255 0 0
-0.205996 0.710147 -0.180360 0.532028 0.954942 255 0 0
0.125000 1.381959 -0.111158 0.670380 0.810705 255 0 0
-0.125000 1.155015 -0.006295 0.815745 0.656263 255 0 0
0.125000 1.155015 -0.006295 0.815745 0.812447 255 0 0
0.125000 1.050152 -0.233239 0.428600 0.467016 255 0 0
0.125000 1.381959 -0.111158 0.558359 0.335073 255 0 0
0.125000 1.155015 -0.006295 0.578416 0.467016 255 0 0
-0.125000 1.277096 -0.338103 0.440148 0.251341 255 0 0
0.125000 1.277096 -0.338103 0.408543 0.335073 255 0 0
-0.125000 1.050152 -0.233239 0.744272 0.251341 255 0 0
-0.125000 1.381959 -0.111158 0.589964 0.407679 255 0 0
-0.125000 1.277096 -0.338103 0.589964 0.251425 255 0 0
0.125000 1.050152 -0.233239 0.148895 0.757567 255 0 0
-0.125000 1.155015 -0.006295 0.000000 0.604963 255 0 0
-0.125000 1.050152 -0.233239 0.148895 0.601764 255 0 0
-0.125000 1.050152 -0.233239 0.611076 0.001224 255 0 0
0.125000 1.277096 -0.338103 0.758555 0.156215 255 0 0
0.125000 1.050152 -0.233239 0.611076 0.157438 255 0 0
0.175049 0.763907 0.124343 0.886029 0.435803 255 0 0
-0.175049 0.616791 0.153739 0.793907 0.654186 255 0 0
0.175049 0.616791 0.153739 0.793907 0.435467 255 0 0
0.175049 0.577612 -0.042336 0.927580 0.124165 255 0 0
0.175049 0.763907 0.124343 0.851170 0.006067 255 0 0
0.175049 0.616791 0.153739 0.927580 0.000000 255 0 0
-0.175049 0.724728 -0.071733 0.442512 0.720449 255 0 0
0.175049 0.763907 0.124343 0.578379 0.644043 255 0 0
0.175049 0.724728 -0.071733 0.578379 0.720449 255 0 0
-0.175049 0.577612 -0.042336 0.398840 0.737100 255 0 0
-0.175049 0.763907 0.124343 0.306226 0.862125 255 0 0
-0.175049 0.724728 -0.071733 0.306226 0.737172 255 0 0
0.175049 0.577612 -0.042336 0.584851 0.722115 255 0 0
-0.175049 0.616791 0.153739 0.720717 0.645710 255 0 0
-0.175049 0.577612 -0.042336 0.720717 0.722115 255 0 0
-0.175049 0.577612 -0.042336 0.836742 0.407517 255 0 0
0.175049 0.724728 -0.071733 0.744272 0.188918 255 0 0
0.175049 0.577612 -0.042336 0.836742 0.188756 255 0 0
0.200001 0.629789 0.175698 0.149717 0.500987 255 0 0
-0.200001 0.479791 0.175174 0.241977 0.250807 255 0 0
0.200001 0.479791 0.175174 0.241977 0.500702 255 0 0
0.200001 0.630487 -0.024302 0.244658 0.660295 255 0 0
0.200001 0.479791 0.175174 0.368196 0.737100 255 0 0
0.200001 0.480488 -0.024825 0.244658 0.737100 255 0 0
-0.200001 0.630487 -0.024302 0.244658 0.516883 255 0 0
0.200001 0.629789 0.175698 0.368196 0.660295 255 0 0
-0.200001 0.480488 -0.024825 0.758556 0.125042 255 0 0
-0.200001 0.629789 0.175698 0.851169 0.000000 255 0 0
-0.200001 0.630487 -0.024302 0.851169 0.124963 255 0 0
0.200001 0.480488 -0.024825 0.641358 0.640498 255 255 255
-0.200001 0.479791 0.175174 0.796731 0.564139 255 255 255
-0.200001 0.480488 -0.024825 0.796731 0.640498 255 255 255
-0.200001 0.480488 -0.024825 0.241523 0.751266 255 0 0
0.200001 0.630487 -0.024302 0.149717 0.500987 255 0 0
0.200001 0.480488 -0.024825 0.241523 0.501321 255 0 0
-0.020034 0.492344 0.095881 0.627016 0.406047 255 255 255
-0.200027 0.129322 0.263622 0.695067 0.560529 255 255 255
-0.020034 0.129322 0.263622 0.625731 0.559697 255 255 255
-0.020034 0.408448 -0.085685 0.548925 0.406889 255 255 255
-0.020034 0.045426 0.082056 0.549066 0.559355 255 255 255
-0.200027 0.408448 -0.085685 0.779275 0.560182 255 255 255
-0.020034 0.492344 0.095881 0.701886 0.491195 255 255 255
-0.020034 0.408448 -0.085685 0.779275 0.491195 255 255 255
-0.200027 0.045426 0.082056 0.480240 0.559747 255 255 255
-0.200027 0.492344 0.095881 0.402662 0.405675 255 255 255
-0.200027 0.408448 -0.085685 0.480312 0.405962 255 255 255
-0.020034 0.045426 0.082056 0.700078 0.419035 255 255 255
-0.200027 0.129322 0.263622 0.777467 0.488022 255 255 255
-0.200027 0.045426 0.082056 0.700078 0.488022 255 255 255
0.034594 1.020107 -0.222537 0.670380 1.000000 255 0 0
0.206695 0.774637 -0.313390 0.725970 0.812447 255 0 0
0.034594 1.020421 -0.312532 0.725970 1.000000 255 0 0
0.124800 0.716980 -0.223594 0.149717 0.751418 255 0 0
0.034594 1.020107 -0.222537 0.211450 0.937984 255 0 0
-0.047301 0.962763 -0.222737 0.149717 0.938136 255 0 0
0.124800 0.717293 -0.313590 0.949543 0.229470 255 0 0
0.206695 0.774323 -0.223394 0.911033 0.194811 255 0 0
0.124800 0.716980 -0.223594 0.949543 0.194811 255 0 0
-0.047301 0.963077 -0.312732 0.061656 0.947274 255 0 0
0.206695 0.774637 -0.313390 0.000000 0.760766 255 0 0
0.124800 0.717293 -0.313590 0.061656 0.761207 255 0 0
-0.047301 0.962763 -0.222737 0.061656 0.798062 255 0 0
0.034594 1.020421 -0.312532 0.119006 0.761302 255 0 0
-0.047301 0.963077 -0.312732 0.117220 0.798598 255 0 0
0.124800 0.716980 -0.223594 0.063442 0.948541 255 0 0
-0.017834 1.068871 -0.232310 0.633207 0.407679 255 0 0
0.022320 1.011769 -0.302517 0.589964 0.451439 255 0 0
-0.017834 1.069116 -0.302317 0.589964 0.407679 255 0 0
-0.035027 0.971371 -0.232651 0.633207 0.451425 255 0 0
-0.017834 1.068871 -0.232310 0.676257 0.407785 255 0 0
-0.075181 1.028717 -0.232450 0.676257 0.451531 255 0 0
-0.035027 0.971615 -0.302657 0.960799 0.132583 255 255 255
0.022320 1.011525 -0.232510 0.933842 0.159540 255 255 255
-0.035027 0.971371 -0.232651 0.933842 0.132583 255 255 255
-0.075181 1.028961 -0.302457 0.719156 0.407679 255 0 0
0.022320 1.011769 -0.302517 0.676257 0.451678 255 0 0
-0.035027 0.971615 -0.302657 0.676257 0.407986 255 0 0
-0.075181 1.028717 -0.232450 0.758555 0.151170 255 0 0
-0.017834 1.069116 -0.302317 0.802784 0.125042 255 0 0
-0.075181 1.028961 -0.302457 0.801780 0.151170 255 0 0
-0.035027 0.971615 -0.302657 0.802528 0.186274 255 0 0
-0.035027 0.971371 -0.232651 0.759303 0.186274 255 0 0
-0.009784 -0.185470 0.398663 0.489403 0.275039 255 255 255
-0.209797 -0.335493 0.398140 0.412424 0.217277 255 255 255
-0.009784 -0.335493 0.398140 0.489445 0.217276 255 255 255
-0.009784 -0.184423 0.098738 0.604934 0.275039 255 255 255
-0.009784 -0.334447 0.098215 0.604976 0.217276 255 255 255
-0.209797 -0.184423 0.098738 0.416094 0.130795 255 255 255
-0.009784 -0.185470 0.398663 0.531995 0.207567 255 255 255
-0.009784 -0.184423 0.098738 0.416093 0.207567 255 255 255
-0.209797 -0.334447 0.098215 0.681997 0.217275 255 255 255
-0.209797 -0.185470 0.398663 0.797489 0.275039 255 255 255
-0.209797 -0.184423 0.098738 0.681955 0.275039 255 255 255
-0.009784 -0.334447 0.098215 0.542557 0.127963 255 255 255
-0.209797 -0.335493 0.398140 0.658459 0.204735 255 255 255
-0.209797 -0.334447 0.098215 0.542557 0.204735 255 255 255
-0.199951 1.131028 0.023158 0.244658 0.000000 255 0 0
-0.199951 1.131028 0.023158 0.149717 0.250807 255 0 0
-0.199951 0.745740 0.130732 0.611076 0.000089 255 0 0
0.199951 0.745740 0.130732 0.482894 0.725579 255 0 0
-0.199951 1.077258 -0.169428 0.244658 0.000000 255 0 0
0.433094 0.528255 0.432656 0.355607 0.000000 255 0 0
-0.405102 0.502007 -0.408272 0.637856 0.500087 255 0 0
0.433094 0.531236 -0.421961 0.311051 0.000000 255 0 0
0.433094 0.531236 -0.421961 0.024230 0.500087 255 0 0
-0.500000 -0.497866 -0.498240 0.666658 0.000000 255 0 0
0.433094 0.528255 0.432656 0.946259 0.500087 255 0 0
-0.190017 0.129224 0.263641 0.398994 0.400628 255 255 255
-0.190017 0.129224 0.263641 0.700447 0.415355 255 255 255
-0.029983 -0.143043 0.389446 0.679358 0.346421 255 255 255
0.029964 0.708682 -0.312613 0.018538 0.409472 255 255 255
0.029964 0.708682 -0.312613 0.670380 0.469235 255 0 0
0.029964 0.358620 -0.399162 0.670380 0.467016 255 0 0
0.189998 0.426372 -0.210974 0.388779 0.284635 255 255 255
0.029964 0.640930 -0.500800 0.630890 0.864796 255 0 0
0.020034 0.359923 -0.037497 0.015917 0.571741 255 0 0
0.020034 0.359923 -0.037497 0.391867 0.504459 255 255 255
0.020034 0.530192 -0.399340 0.408543 0.716868 255 0 0
0.200027 0.530192 -0.399340 0.315422 0.492966 255 0 0
0.020034 0.540899 0.047664 0.408543 0.493856 255 0 0
0.183474 1.051730 0.003467 0.886029 0.652578 255 0 0
0.280072 1.025847 0.003377 0.898480 0.374554 255 0 0
0.198320 1.107422 -0.078259 0.407580 0.581980 255 0 0
0.098664 0.736017 -0.227080 0.883537 0.899229 255 0 0
0.195262 0.710134 -0.227170 0.951221 0.357623 255 0 0
0.198320 1.107422 -0.078259 0.306226 0.922893 255 0 0
-0.003402 0.745763 -0.067414 0.874312 0.620406 255 255 255
-0.003402 0.745763 -0.067414 0.666660 0.218202 255 0 0
-0.003402 0.660195 -0.117215 0.955544 0.593607 255 255 255
0.066606 0.678078 -0.049531 0.956892 0.589003 255 0 0
-0.003402 0.727880 -0.135099 0.762053 0.407679 255 0 0
-0.303751 0.652809 -0.123477 0.781330 0.813645 255 0 0
-0.303751 0.742836 -0.123163 0.364149 0.879269 255 0 0
-0.303751 0.652809 -0.123477 0.666660 0.218632 255 0 0
-0.013927 0.652538 -0.045819 0.982527 0.665023 255 0 0
0.011949 0.742902 -0.142073 0.980799 0.661697 255 0 0
-0.277876 0.653146 -0.220045 0.944928 0.656322 255 0 0
-0.306002 1.086020 -0.011119 0.470279 0.717432 255 0 0
-0.306002 1.086020 -0.011119 0.822115 0.898283 255 0 0
-0.306002 0.692438 -0.081935 0.836742 0.407630 255 0 0
-0.205996 0.692438 -0.081935 0.943196 0.828757 255 0 0
-0.306002 1.103729 -0.109545 0.470279 0.717397 255 0 0
-0.125000 1.381959 -0.111158 0.670380 0.654521 255 0 0
-0.125000 1.381959 -0.111158 0.589964 0.251341 255 0 0
-0.125000 1.155015 -0.006295 0.744272 0.407595 255 0 0
0.125000 1.155015 -0.006295 0.000000 0.760766 255 0 0
-0.125000 1.277096 -0.338103 0.758555 0.000000 255 0 0
-0.175049 0.763907 0.124343 0.886029 0.654521 255 0 0
0.175049 0.724728 -0.071733 0.851169 0.130232 255 0 0
-0.175049 0.763907 0.124343 0.442512 0.644043 255 0 0
-0.175049 0.616791 0.153739 0.398840 0.862053 255 0 0
0.175049 0.616791 0.153739 0.584851 0.645710 255 0 0
-0.175049 0.724728 -0.071733 0.744272 0.407679 255 0 0
-0.200001 0.629789 0.175698 0.149717 0.251092 255 0 0
-0.200001 0.629789 0.175698 0.368196 0.516883 255 0 0
-0.200001 0.479791 0.175174 0.758555 0.000079 255 0 0
0.200001 0.479791 0.175174 0.641358 0.564139 255 255 255
-0.200001 0.630487 -0.024302 0.149717 0.750931 255 0 0
-0.200027 0.492344 0.095881 0.697051 0.406547 255 255 255
-0.200027 0.492344 0.095881 0.701886 0.560182 255 255 255
-0.200027 0.129322 0.263622 0.402662 0.561045 255 255 255
-0.020034 0.129322 0.263622 0.777467 0.419035 255 255 255
0.206695 0.774323 -0.223394 0.670380 0.812447 255 0 0
0.206695 0.774323 -0.223394 0.211450 0.751266 255 0 0
0.206695 0.774637 -0.313390 0.911033 0.229470 255 0 0
0.034594 1.020421 -0.312532 0.000000 0.946833 255 0 0
0.034594 1.020107 -0.222537 0.063442 0.760766 255 0 0
0.124800 0.717293 -0.313590 0.119006 0.949077 255 0 0
0.022320 1.011525 -0.232510 0.633207 0.451439 255 0 0
0.022320 1.011525 -0.232510 0.633207 0.407679 255 0 0
0.022320 1.011769 -0.302517 0.960799 0.159540 255 255 255
-0.017834 1.069116 -0.302317 0.719156 0.451371 255 0 0
-0.017834 1.068871 -0.232310 0.759560 0.125042 255 0 0
-0.209797 -0.185470 0.398663 0.412383 0.275039 255 255 255
-0.209797 -0.185470 0.398663 0.531995 0.130795 255 255 255
-0.209797 -0.335493 0.398140 0.797531 0.217275 255 255 255
-0.009784 -0.335493 0.398140 0.658459 0.127963 255 255 255
3 0 1 2
3 3 4 5
3 6 7 3
3 8 9 10
3 11 12 13
3 14 15 16
3 17 18 19
3 20 21 22
3 23 24 25
3 26 27 28
3 29 30 31
3 32 33 34
3 35 36 37
3 38 37 39
3 40 41 42
3 43 44 45
3 46 47 48
3 49 38 39
3 50 51 52
3 53 54 55
3 56 57 53
3 58 59 60
3 61 62 63
3 64 65 66
3 67 68 69
3 70 71 72
3 73 74 75
3 76 77 78
3 79 80 81
3 82 83 70
3 84 85 86
3 87 88 89
3 90 91 92
3 93 94 95
3 96 97 98
3 99 100 101
3 102 103 104
3 105 106 107
3 108 109 105
3 110 111 112
3 113 114 115
3 116 117 118
3 119 120 121
3 122 123 124
3 125 126 127
3 128 129 130
3 131 132 133
3 134 135 136
3 137 138 139
3 140 141 142
3 143 144 140
3 145 146 147
3 148 149 150
3 151 152 153
3 154 155 156
3 157 158 159
3 160 158 161
3 162 163 164
3 165 166 167
3 168 169 170
3 171 172 173
3 174 175 176
3 177 178 179
3 180 181 182
3 183 184 185
3 186 187 188
3 189 190 191
3 192 193 194
3 195 196 192
3 197 198 199
3 200 201 202
3 203 204 205
3 206 207 208
3 209 208 210
3 211 212 213
3 214 215 216
3 217 218 219
3 214 209 210
3 220 221 222
3 223 224 225
3 226 227 228
3 229 230 231
3 232 233 234
3 234 235 232
3 236 237 238
3 239 240 241
3 242 243 244
3 245 246 247
3 248 249 250
3 248 251 252
3 253 254 255
3 256 255 257
3 258 259 260
3 261 262 263
3 264 265 266
3 261 256 257
3 0 267 1
3 3 7 4
3 6 268 7
3 8 269 9
3 11 270 12
3 14 271 15
3 17 272 18
3 20 273 21
3 23 274 24
3 26 275 27
3 29 276 30
3 32 277 33
3 35 278 36
3 38 35 37
3 40 279 41
3 43 49 44
3 46 280 47
3 49 43 38
3 50 281 51
3 53 57 54
3 56 282 57
3 58 283 59
3 61 284 62
3 64 285 65
3 67 286 68
3 70 83 71
3 73 287 74
3 76 288 77
3 79 289 80
3 82 290 83
3 84 291 85
3 87 292 88
3 90 293 91
3 93 294 94
3 96 295 97
3 99 296 100
3 102 297 103
3 105 109 106
3 108 298 109
3 110 299 111
3 113 300 114
3 116 301 117
3 119 302 120
3 122 303 123
3 125 304 126
3 128 305 129
3 131 306 132
3 134 307 135
3 137 308 138
3 140 144 141
3 143 309 144
3 145 310 146
3 148 311 149
3 151 312 152
3 154 313 155
3 157 161 158
3 160 314 158
3 162 315 163
3 165 316 166
3 168 317 169
3 171 318 172
3 174 319 175
3 177 320 178
3 180 321 181
3 183 322 184
3 186 323 187
3 189 324 190
3 192 196 193
3 195 325 196
3 197 326 198
3 200 327 201
3 203 328 204
3 206 329 207
3 209 206 208
3 211 330 212
3 214 331 215
3 217 332 218
3 214 216 209
3 220 333 221
3 223 334 224
3 226 335 227
3 229 336 230
3 232 337 233
3 234 338 235
3 236 339 237
3 239 340 240
3 242 341 243
3 245 342 246
3 248 343 249
3 248 250 251
3 253 344 254
3 256 253 255
3 258 345 259
3 261 346 262
3 264 347 265
3 261 263 256
