ply
format ascii 1.0
comment Created by Blender 2.79 (sub 0) - www.blender.org, source file: 'new furniture.blend'
element vertex 333
property float x
property float y
property float z
property float s
property float t
property uchar red
property uchar green
property uchar blue
element face 268
property list uchar uint vertex_indices
end_header
0.500000 0.500000 -0.375000 0.125000 0.350000 255 0 0
0.433333 0.500000 -0.500000 0.175000 0.300000 255 0 0
0.433333 0.500000 -0.375000 0.175000 0.350000 255 0 0
-0.433333 0.500000 -0.375000 0.825000 0.350000 255 0 0
-0.500000 0.500000 -0.500000 0.875000 0.300000 255 0 0
-0.500000 0.500000 -0.375000 0.875000 0.350000 255 0 0
-0.366667 0.500000 -0.375000 0.775000 0.350000 255 0 0
-0.433333 0.500000 -0.500000 0.825000 0.300000 255 0 0
0.366667 0.500000 -0.500000 0.225000 0.300000 255 0 0
0.366667 0.500000 -0.375000 0.225000 0.350000 255 0 0
0.433333 0.500000 0.500000 0.175000 0.700000 255 0 0
0.366667 0.500000 0.375000 0.225000 0.650000 255 0 0
0.366667 0.500000 0.500000 0.225000 0.700000 255 0 0
0.433333 0.500000 0.375000 0.175000 0.650000 255 0 0
0.366667 0.500000 0.250000 0.225000 0.600000 255 0 0
0.433333 0.500000 -0.250000 0.175000 0.400000 255 0 0
0.433333 0.500000 0.250000 0.175000 0.600000 255 0 0
0.366667 0.500000 -0.250000 0.225000 0.400000 255 0 0
-0.366667 0.500000 0.250000 0.775000 0.600000 255 0 0
-0.366667 0.500000 0.375000 0.775000 0.650000 255 0 0
-0.366667 0.500000 -0.250000 0.775000 0.400000 255 0 0
-0.366667 0.500000 0.500000 0.775000 0.700000 255 0 0
-0.433333 0.500000 0.375000 0.825000 0.650000 255 0 0
-0.433333 0.500000 0.500000 0.825000 0.700000 255 0 0
-0.433333 0.500000 0.250000 0.825000 0.600000 255 0 0
-0.433333 0.500000 -0.250000 0.825000 0.400000 255 0 0
-0.500000 0.500000 0.375000 0.875000 0.650000 255 0 0
-0.500000 0.500000 0.500000 0.875000 0.700000 255 0 0
-0.500000 0.500000 0.250000 0.875000 0.600000 255 0 0
-0.500000 0.500000 -0.250000 0.875000 0.400000 255 0 0
0.500000 0.500000 0.500000 0.125000 0.700000 255 0 0
0.500000 0.500000 0.250000 0.125000 0.600000 255 0 0
0.500000 0.500000 -0.250000 0.125000 0.400000 255 0 0
0.500000 0.500000 0.375000 0.650000 0.550000 255 0 0
0.500000 0.416667 0.500000 0.700000 0.525000 255 0 0
0.500000 0.416667 0.375000 0.650000 0.525000 255 0 0
-0.433333 0.500000 0.500000 0.825000 0.550000 255 0 0
-0.500000 0.416667 0.500000 0.875000 0.525000 255 0 0
-0.433333 0.416667 0.500000 0.825000 0.525000 255 0 0
-0.500000 0.500000 -0.375000 0.350000 0.550000 255 0 0
-0.500000 0.416667 -0.500000 0.300000 0.525000 255 0 0
-0.500000 0.416667 -0.375000 0.350000 0.525000 255 0 0
0.433333 0.500000 -0.500000 0.175000 0.550000 255 0 0
0.500000 0.416667 -0.500000 0.125000 0.525000 255 0 0
0.433333 0.416667 -0.500000 0.175000 0.525000 255 0 0
-0.500000 0.500000 -0.500000 0.875000 0.550000 255 0 0
-0.433333 0.416667 -0.500000 0.825000 0.525000 255 0 0
-0.500000 0.416667 -0.500000 0.875000 0.525000 255 0 0
-0.433333 0.500000 -0.500000 0.825000 0.550000 255 0 0
-0.366667 0.416667 -0.500000 0.775000 0.525000 255 0 0
-0.366667 0.500000 -0.500000 0.775000 0.550000 255 0 0
0.366667 0.416667 -0.500000 0.225000 0.525000 255 0 0
0.366667 0.500000 -0.500000 0.225000 0.550000 255 0 0
0.500000 0.500000 0.500000 0.125000 0.550000 255 0 0
0.433333 0.416667 0.500000 0.175000 0.525000 255 0 0
0.500000 0.416667 0.500000 0.125000 0.525000 255 0 0
0.433333 0.500000 0.500000 0.175000 0.550000 255 0 0
0.366667 0.416667 0.500000 0.225000 0.525000 255 0 0
0.366667 0.500000 0.500000 0.225000 0.550000 255 0 0
-0.366667 0.416667 0.500000 0.775000 0.525000 255 0 0
-0.366667 0.500000 0.500000 0.775000 0.550000 255 0 0
-0.500000 0.500000 0.500000 0.700000 0.550000 255 0 0
-0.500000 0.416667 0.375000 0.650000 0.525000 255 0 0
-0.500000 0.416667 0.500000 0.700000 0.525000 255 0 0
-0.500000 0.500000 0.375000 0.650000 0.550000 255 0 0
-0.500000 0.416667 0.250000 0.600000 0.525000 255 0 0
-0.500000 0.500000 0.250000 0.600000 0.550000 255 0 0
-0.500000 0.416667 -0.250000 0.400000 0.525000 255 0 0
-0.500000 0.500000 -0.250000 0.400000 0.550000 255 0 0
0.500000 0.500000 -0.500000 0.300000 0.550000 255 0 0
0.500000 0.416667 -0.375000 0.350000 0.525000 255 0 0
0.500000 0.416667 -0.500000 0.300000 0.525000 255 0 0
0.500000 0.500000 -0.375000 0.350000 0.550000 255 0 0
0.500000 0.416667 -0.250000 0.400000 0.525000 255 0 0
0.500000 0.500000 -0.250000 0.400000 0.550000 255 0 0
0.500000 0.416667 0.250000 0.600000 0.525000 255 0 0
0.500000 0.500000 0.250000 0.600000 0.550000 255 0 0
-0.500000 0.416667 -0.375000 0.875000 0.350000 0 255 0
-0.433333 0.416667 -0.500000 0.825000 0.300000 0 255 0
-0.433333 0.416667 -0.375000 0.825000 0.350000 0 255 0
0.433333 0.416667 -0.375000 0.175000 0.350000 0 255 0
0.500000 0.416667 -0.500000 0.125000 0.300000 0 255 0
0.500000 0.416667 -0.375000 0.125000 0.350000 0 255 0
0.366667 0.416667 -0.375000 0.225000 0.350000 0 255 0
0.433333 0.416667 -0.500000 0.175000 0.300000 0 255 0
-0.366667 0.416667 -0.500000 0.775000 0.300000 0 255 0
-0.366667 0.416667 -0.375000 0.775000 0.350000 0 255 0
-0.433333 0.416667 0.500000 0.825000 0.700000 0 255 0
-0.366667 0.416667 0.375000 0.775000 0.650000 0 255 0
-0.366667 0.416667 0.500000 0.775000 0.700000 0 255 0
-0.366667 0.416667 -0.375000 0.775000 0.525000 0 255 0
-0.433333 0.250000 -0.375000 0.825000 0.475000 0 255 0
-0.433333 0.416667 -0.375000 0.825000 0.525000 0 255 0
0.433333 0.416667 -0.250000 0.400000 0.525000 0 255 0
0.433333 0.250000 -0.375000 0.350000 0.475000 0 255 0
0.433333 0.416667 -0.375000 0.350000 0.525000 0 255 0
-0.366667 0.416667 0.250000 0.600000 0.525000 0 255 0
-0.366667 0.250000 -0.250000 0.400000 0.475000 0 255 0
-0.366667 0.416667 -0.250000 0.400000 0.525000 0 255 0
0.433333 0.416667 0.250000 0.600000 0.525000 0 255 0
0.433333 0.250000 -0.250000 0.400000 0.475000 0 255 0
-0.366667 0.416667 -0.250000 0.775000 0.400000 0 255 0
0.366667 0.416667 0.250000 0.225000 0.600000 0 255 0
-0.366667 0.416667 0.250000 0.775000 0.600000 0 255 0
0.366667 0.416667 0.375000 0.225000 0.525000 0 255 0
0.433333 0.250000 0.375000 0.175000 0.475000 0 255 0
0.433333 0.416667 0.375000 0.175000 0.525000 0 255 0
0.366667 0.416667 0.375000 0.225000 0.650000 0 255 0
0.366667 0.416667 0.500000 0.225000 0.700000 0 255 0
0.433333 0.416667 0.375000 0.175000 0.650000 0 255 0
0.433333 0.416667 0.500000 0.175000 0.700000 0 255 0
-0.433333 0.416667 0.375000 0.825000 0.525000 0 255 0
-0.366667 0.250000 0.375000 0.775000 0.475000 0 255 0
-0.366667 0.416667 0.375000 0.775000 0.525000 0 255 0
0.433333 0.416667 0.375000 0.650000 0.525000 0 255 0
0.433333 0.250000 0.250000 0.600000 0.475000 0 255 0
0.366667 0.416667 -0.375000 0.225000 0.525000 0 255 0
-0.366667 0.250000 -0.375000 0.775000 0.475000 0 255 0
0.500000 0.416667 0.375000 0.125000 0.650000 0 255 0
0.500000 0.416667 0.500000 0.125000 0.700000 0 255 0
0.500000 0.416667 0.250000 0.125000 0.600000 0 255 0
0.433333 0.416667 -0.250000 0.175000 0.400000 0 255 0
0.433333 0.416667 0.250000 0.175000 0.600000 0 255 0
0.500000 0.416667 -0.250000 0.125000 0.400000 0 255 0
-0.500000 0.416667 0.500000 0.875000 0.700000 0 255 0
-0.433333 0.416667 0.375000 0.825000 0.650000 0 255 0
-0.500000 0.416667 0.250000 0.875000 0.600000 0 255 0
-0.433333 0.416667 0.250000 0.825000 0.600000 0 255 0
-0.500000 0.416667 -0.250000 0.875000 0.400000 0 255 0
-0.433333 0.416667 -0.250000 0.825000 0.400000 0 255 0
0.366667 0.250000 0.375000 0.225000 0.475000 0 255 0
0.433333 -0.083333 0.375000 0.175000 0.375000 0 255 0
-0.433333 0.250000 -0.250000 0.825000 0.400000 0 255 0
-0.366667 0.250000 0.250000 0.775000 0.600000 0 255 0
-0.433333 0.250000 0.250000 0.825000 0.600000 0 255 0
0.366667 0.250000 -0.375000 0.350000 0.475000 0 255 0
0.366667 -0.083333 -0.250000 0.400000 0.375000 0 255 0
0.366667 0.250000 -0.250000 0.400000 0.475000 0 255 0
-0.366667 0.250000 0.375000 0.775000 0.650000 0 255 0
0.366667 0.250000 0.250000 0.225000 0.600000 0 255 0
0.366667 0.250000 0.375000 0.225000 0.650000 0 255 0
-0.366667 0.250000 -0.250000 0.775000 0.400000 0 255 0
0.366667 0.250000 -0.375000 0.225000 0.350000 0 255 0
0.366667 0.250000 -0.250000 0.225000 0.400000 0 255 0
-0.433333 0.250000 0.375000 0.825000 0.475000 0 255 0
-0.366667 -0.083333 0.375000 0.775000 0.375000 0 255 0
0.433333 0.250000 0.250000 0.175000 0.600000 0 255 0
-0.433333 0.250000 -0.375000 0.350000 0.475000 0 255 0
-0.433333 -0.083333 -0.250000 0.400000 0.375000 0 255 0
-0.433333 0.250000 -0.250000 0.400000 0.475000 0 255 0
0.433333 0.416667 -0.375000 0.175000 0.525000 0 255 0
0.366667 0.250000 -0.375000 0.225000 0.475000 0 255 0
-0.433333 0.416667 0.250000 0.600000 0.525000 0 255 0
-0.433333 0.250000 0.375000 0.650000 0.475000 0 255 0
-0.433333 0.416667 0.375000 0.650000 0.525000 0 255 0
0.366667 0.416667 -0.250000 0.400000 0.525000 0 255 0
0.366667 0.250000 0.250000 0.600000 0.475000 0 255 0
0.366667 0.416667 0.250000 0.600000 0.525000 0 255 0
0.366667 0.416667 0.250000 0.225000 0.525000 0 255 0
-0.366667 0.250000 0.250000 0.775000 0.475000 0 255 0
-0.366667 0.416667 0.250000 0.775000 0.525000 0 255 0
-0.433333 0.416667 -0.250000 0.400000 0.525000 0 255 0
-0.433333 0.250000 0.250000 0.600000 0.475000 0 255 0
-0.366667 0.416667 -0.250000 0.775000 0.525000 0 255 0
0.366667 0.250000 -0.250000 0.225000 0.475000 0 255 0
0.366667 0.416667 -0.250000 0.225000 0.525000 0 255 0
-0.433333 0.416667 -0.375000 0.350000 0.525000 0 255 0
-0.433333 -0.083333 -0.250000 0.825000 0.400000 0 255 0
-0.375000 -0.083333 -0.265625 0.781250 0.393750 0 255 0
-0.366667 -0.083333 -0.250000 0.775000 0.400000 0 255 0
0.366667 -0.083333 0.375000 0.225000 0.650000 0 255 0
0.375000 -0.083333 0.265625 0.218750 0.606250 0 255 0
0.375000 -0.083333 0.359375 0.218750 0.643750 0 255 0
-0.366667 -0.083333 0.250000 0.775000 0.600000 0 255 0
-0.425000 -0.083333 0.265625 0.818750 0.606250 0 255 0
-0.433333 -0.083333 0.250000 0.825000 0.600000 0 255 0
0.433333 -0.083333 -0.250000 0.175000 0.400000 0 255 0
0.425000 -0.083333 -0.359375 0.181250 0.356250 0 255 0
0.433333 -0.083333 -0.375000 0.175000 0.350000 0 255 0
-0.433333 -0.083333 0.250000 0.825000 0.375000 0 255 0
-0.433333 0.250000 0.250000 0.825000 0.475000 0 255 0
-0.366667 0.250000 0.375000 0.650000 0.475000 0 255 0
-0.366667 -0.083333 0.250000 0.600000 0.375000 0 255 0
-0.366667 0.250000 0.250000 0.600000 0.475000 0 255 0
0.433333 0.250000 0.250000 0.175000 0.475000 0 255 0
0.366667 -0.083333 0.250000 0.225000 0.375000 0 255 0
0.366667 0.250000 0.250000 0.225000 0.475000 0 255 0
-0.433333 0.250000 -0.250000 0.825000 0.475000 0 255 0
-0.366667 -0.083333 -0.250000 0.775000 0.375000 0 255 0
-0.366667 0.250000 -0.250000 0.775000 0.475000 0 255 0
0.366667 0.250000 -0.250000 0.225000 0.475000 255 255 255
0.433333 -0.083333 -0.250000 0.175000 0.375000 255 255 255
0.433333 0.250000 -0.250000 0.175000 0.475000 255 255 255
0.433333 0.250000 0.375000 0.650000 0.475000 0 255 0
0.433333 -0.083333 0.250000 0.600000 0.375000 0 255 0
-0.433333 -0.083333 -0.375000 0.825000 0.375000 0 255 0
-0.366667 -0.083333 -0.375000 0.350000 0.375000 0 255 0
-0.366667 0.250000 -0.375000 0.350000 0.475000 0 255 0
0.433333 0.250000 -0.375000 0.175000 0.475000 0 255 0
0.366667 -0.083333 -0.375000 0.225000 0.375000 0 255 0
-0.433333 -0.083333 0.375000 0.650000 0.375000 0 255 0
0.433333 -0.083333 -0.375000 0.350000 0.375000 0 255 0
0.366667 -0.083333 0.375000 0.650000 0.375000 0 255 0
0.366667 0.250000 0.375000 0.650000 0.475000 0 255 0
0.425000 -0.083333 0.359375 0.643750 0.375000 0 255 0
0.425000 -0.500000 0.265625 0.606250 0.250000 0 255 0
0.425000 -0.083333 0.265625 0.606250 0.375000 0 255 0
-0.425000 -0.083333 -0.359375 0.356250 0.375000 0 255 0
-0.425000 -0.500000 -0.265625 0.393750 0.250000 0 255 0
-0.425000 -0.083333 -0.265625 0.393750 0.375000 0 255 0
0.375000 -0.083333 -0.265625 0.218750 0.375000 0 255 0
0.425000 -0.500000 -0.265625 0.181250 0.250000 0 255 0
0.425000 -0.083333 -0.265625 0.181250 0.375000 0 255 0
-0.425000 -0.083333 0.265625 0.606250 0.375000 0 255 0
-0.425000 -0.500000 0.359375 0.643750 0.250000 0 255 0
-0.425000 -0.083333 0.359375 0.643750 0.375000 0 255 0
0.366667 -0.083333 -0.250000 0.225000 0.400000 0 255 0
0.375000 -0.083333 -0.359375 0.218750 0.356250 0 255 0
0.375000 -0.083333 -0.265625 0.218750 0.393750 0 255 0
-0.366667 -0.083333 -0.375000 0.775000 0.350000 0 255 0
-0.425000 -0.083333 -0.359375 0.818750 0.356250 0 255 0
-0.433333 -0.083333 -0.375000 0.825000 0.350000 0 255 0
-0.366667 -0.083333 0.375000 0.775000 0.650000 0 255 0
-0.375000 -0.083333 0.265625 0.781250 0.606250 0 255 0
0.425000 -0.083333 0.359375 0.181250 0.643750 0 255 0
0.433333 -0.083333 0.375000 0.175000 0.650000 0 255 0
-0.375000 -0.083333 -0.359375 0.781250 0.356250 0 255 0
0.433333 -0.083333 0.250000 0.175000 0.600000 0 255 0
0.366667 -0.083333 0.250000 0.225000 0.600000 0 255 0
-0.433333 -0.083333 0.375000 0.825000 0.650000 0 255 0
-0.425000 -0.083333 0.359375 0.818750 0.643750 0 255 0
0.425000 -0.083333 -0.265625 0.181250 0.393750 0 255 0
-0.425000 -0.083333 -0.265625 0.818750 0.393750 0 255 0
0.425000 -0.083333 0.265625 0.181250 0.606250 0 255 0
0.366667 -0.083333 -0.375000 0.225000 0.350000 0 255 0
-0.375000 -0.083333 0.359375 0.781250 0.643750 0 255 0
-0.425000 -0.500000 0.359375 0.818750 0.643750 0 255 0
-0.375000 -0.500000 0.265625 0.781250 0.606250 0 255 0
-0.375000 -0.500000 0.359375 0.781250 0.643750 0 255 0
-0.425000 -0.500000 -0.265625 0.818750 0.393750 0 255 0
-0.375000 -0.500000 -0.359375 0.781250 0.356250 0 255 0
-0.375000 -0.500000 -0.265625 0.781250 0.393750 0 255 0
0.375000 -0.500000 0.359375 0.218750 0.643750 0 255 0
0.425000 -0.500000 0.265625 0.181250 0.606250 0 255 0
0.425000 -0.500000 0.359375 0.181250 0.643750 0 255 0
0.375000 -0.500000 -0.265625 0.218750 0.393750 0 255 0
0.425000 -0.500000 -0.359375 0.181250 0.356250 0 255 0
0.425000 -0.500000 -0.265625 0.181250 0.393750 0 255 0
0.425000 -0.083333 -0.359375 0.181250 0.375000 0 255 0
0.375000 -0.500000 -0.359375 0.218750 0.250000 0 255 0
0.375000 -0.083333 -0.359375 0.218750 0.375000 0 255 0
-0.425000 -0.083333 0.359375 0.818750 0.375000 0 255 0
-0.375000 -0.500000 0.359375 0.781250 0.250000 0 255 0
-0.375000 -0.083333 0.359375 0.781250 0.375000 0 255 0
0.425000 -0.083333 -0.265625 0.393750 0.375000 0 255 0
0.425000 -0.500000 -0.359375 0.356250 0.250000 0 255 0
0.425000 -0.083333 -0.359375 0.356250 0.375000 0 255 0
-0.375000 -0.083333 0.265625 0.781250 0.375000 0 255 0
-0.425000 -0.500000 0.265625 0.818750 0.250000 0 255 0
-0.425000 -0.083333 0.265625 0.818750 0.375000 0 255 0
0.375000 -0.083333 0.265625 0.606250 0.375000 0 255 0
0.375000 -0.500000 0.359375 0.643750 0.250000 0 255 0
0.375000 -0.083333 0.359375 0.643750 0.375000 0 255 0
-0.425000 -0.083333 -0.265625 0.818750 0.375000 0 255 0
-0.375000 -0.500000 -0.265625 0.781250 0.250000 0 255 0
-0.375000 -0.083333 -0.265625 0.781250 0.375000 0 255 0
0.375000 -0.083333 -0.359375 0.356250 0.375000 0 255 0
0.375000 -0.500000 -0.265625 0.393750 0.250000 0 255 0
0.375000 -0.083333 -0.265625 0.393750 0.375000 0 255 0
-0.375000 -0.083333 -0.359375 0.781250 0.375000 0 255 0
-0.425000 -0.500000 -0.359375 0.818750 0.250000 0 255 0
-0.425000 -0.083333 -0.359375 0.818750 0.375000 0 255 0
-0.375000 -0.083333 0.359375 0.643750 0.375000 0 255 0
-0.375000 -0.500000 0.265625 0.606250 0.250000 0 255 0
-0.375000 -0.083333 0.265625 0.606250 0.375000 0 255 0
0.375000 -0.083333 0.359375 0.218750 0.375000 0 255 0
0.425000 -0.500000 0.359375 0.181250 0.250000 0 255 0
0.425000 -0.083333 0.359375 0.181250 0.375000 0 255 0
-0.375000 -0.083333 -0.265625 0.393750 0.375000 0 255 0
-0.375000 -0.500000 -0.359375 0.356250 0.250000 1 255 1
-0.375000 -0.083333 -0.359375 0.356250 0.375000 0 255 0
0.425000 -0.083333 0.265625 0.181250 0.375000 0 255 0
0.375000 -0.500000 0.265625 0.218750 0.250000 0 255 0
0.375000 -0.083333 0.265625 0.218750 0.375000 0 255 0
0.500000 0.500000 -0.500000 0.125000 0.300000 255 0 0
-0.366667 0.500000 -0.500000 0.775000 0.300000 255 0 0
0.500000 0.500000 0.375000 0.125000 0.650000 255 0 0
0.500000 0.500000 0.500000 0.700000 0.550000 255 0 0
-0.500000 0.500000 0.500000 0.875000 0.550000 255 0 0
-0.500000 0.500000 -0.500000 0.300000 0.550000 255 0 0
0.500000 0.500000 -0.500000 0.125000 0.550000 255 0 0
-0.500000 0.416667 -0.500000 0.875000 0.300000 0 255 0
0.366667 0.416667 -0.500000 0.225000 0.300000 0 255 0
0.366667 0.416667 -0.250000 0.225000 0.400000 0 255 0
-0.500000 0.416667 0.375000 0.875000 0.650000 0 255 0
0.366667 -0.083333 0.375000 0.225000 0.375000 0 255 0
0.366667 -0.083333 -0.375000 0.350000 0.375000 0 255 0
-0.366667 0.250000 -0.375000 0.775000 0.350000 0 255 0
-0.433333 -0.083333 0.375000 0.825000 0.375000 0 255 0
0.433333 0.250000 -0.250000 0.175000 0.400000 0 255 0
-0.433333 -0.083333 -0.375000 0.350000 0.375000 0 255 0
-0.366667 -0.083333 0.250000 0.775000 0.375000 0 255 0
-0.366667 -0.083333 0.375000 0.650000 0.375000 0 255 0
0.433333 -0.083333 0.250000 0.175000 0.375000 0 255 0
-0.433333 -0.083333 -0.250000 0.825000 0.375000 0 255 0
0.366667 -0.083333 -0.250000 0.225000 0.375000 255 255 255
0.433333 -0.083333 0.375000 0.650000 0.375000 0 255 0
-0.366667 -0.083333 -0.375000 0.775000 0.375000 0 255 0
-0.366667 -0.083333 -0.250000 0.400000 0.375000 0 255 0
0.433333 -0.083333 -0.375000 0.175000 0.375000 0 255 0
-0.433333 -0.083333 0.250000 0.600000 0.375000 0 255 0
0.433333 -0.083333 -0.250000 0.400000 0.375000 0 255 0
0.366667 -0.083333 0.250000 0.600000 0.375000 0 255 0
0.425000 -0.500000 0.359375 0.643750 0.250000 0 255 0
-0.425000 -0.500000 -0.359375 0.356250 0.250000 0 255 0
0.375000 -0.500000 -0.265625 0.218750 0.250000 0 255 0
-0.425000 -0.500000 0.265625 0.606250 0.250000 0 255 0
-0.425000 -0.500000 0.265625 0.818750 0.606250 0 255 0
-0.425000 -0.500000 -0.359375 0.818750 0.356250 0 255 0
0.375000 -0.500000 0.265625 0.218750 0.606250 0 255 0
0.375000 -0.500000 -0.359375 0.218750 0.356250 0 255 0
0.425000 -0.500000 -0.359375 0.181250 0.250000 0 255 0
-0.425000 -0.500000 0.359375 0.818750 0.250000 0 255 0
0.425000 -0.500000 -0.265625 0.393750 0.250000 0 255 0
-0.375000 -0.500000 0.265625 0.781250 0.250000 0 255 0
0.375000 -0.500000 0.265625 0.606250 0.250000 0 255 0
-0.425000 -0.500000 -0.265625 0.818750 0.250000 0 255 0
0.375000 -0.500000 -0.359375 0.356250 0.250000 0 255 0
-0.375000 -0.500000 -0.359375 0.781250 0.250000 0 255 0
-0.375000 -0.500000 0.359375 0.643750 0.250000 0 255 0
0.375000 -0.500000 0.359375 0.218750 0.250000 0 255 0
-0.375000 -0.500000 -0.265625 0.393750 0.250000 0 255 0
0.425000 -0.500000 0.265625 0.181250 0.250000 0 255 0
3 0 1 2
3 3 4 5
3 6 7 3
3 8 6 9
3 2 8 9
3 10 11 12
3 13 14 11
3 15 14 16
3 15 9 17
3 11 18 19
3 17 18 14
3 17 6 20
3 12 19 21
3 21 22 23
3 19 24 22
3 20 24 18
3 20 3 25
3 23 26 27
3 22 28 26
3 25 28 24
3 25 5 29
3 30 13 10
3 13 31 16
3 32 16 31
3 15 0 2
3 33 34 35
3 36 37 38
3 39 40 41
3 42 43 44
3 45 46 47
3 48 49 46
3 50 51 49
3 52 44 51
3 53 54 55
3 56 57 54
3 58 59 57
3 60 38 59
3 61 62 63
3 64 65 62
3 66 67 65
3 68 41 67
3 69 70 71
3 72 73 70
3 74 75 73
3 76 35 75
3 77 78 79
3 80 81 82
3 83 84 80
3 85 83 86
3 79 85 86
3 87 88 89
3 90 91 92
3 93 94 95
3 96 97 98
3 99 100 93
3 101 102 103
3 104 105 106
3 89 107 108
3 108 109 110
3 111 112 113
3 114 115 99
3 116 117 90
3 110 118 119
3 109 120 118
3 121 120 122
3 121 82 123
3 124 125 87
3 125 126 127
3 128 127 126
3 129 77 79
3 130 131 105
3 132 133 134
3 135 136 137
3 138 139 140
3 141 142 143
3 144 145 112
3 143 146 139
3 147 148 149
3 150 151 116
3 113 130 104
3 152 153 154
3 155 156 157
3 158 159 160
3 161 162 152
3 163 164 165
3 166 149 161
3 167 168 169
3 170 171 172
3 173 174 175
3 176 177 178
3 159 179 180
3 181 182 183
3 184 185 186
3 187 188 189
3 190 191 192
3 193 194 115
3 117 195 91
3 97 196 197
3 198 199 151
3 162 200 153
3 100 201 94
3 156 202 203
3 204 205 206
3 207 208 209
3 210 211 212
3 213 214 215
3 216 217 218
3 219 220 221
3 222 223 173
3 170 224 225
3 169 226 219
3 227 171 228
3 229 174 230
3 216 231 176
3 221 232 167
3 225 233 227
3 178 217 234
3 229 235 222
3 236 237 238
3 239 240 241
3 242 243 244
3 245 246 247
3 248 249 250
3 251 252 253
3 254 255 256
3 257 258 259
3 260 261 262
3 263 264 265
3 266 267 268
3 269 270 271
3 272 273 274
3 275 276 277
3 278 279 280
3 281 282 283
3 0 284 1
3 3 7 4
3 6 285 7
3 8 285 6
3 2 1 8
3 10 13 11
3 13 16 14
3 15 17 14
3 15 2 9
3 11 14 18
3 17 20 18
3 17 9 6
3 12 11 19
3 21 19 22
3 19 18 24
3 20 25 24
3 20 6 3
3 23 22 26
3 22 24 28
3 25 29 28
3 25 3 5
3 30 286 13
3 13 286 31
3 32 15 16
3 15 32 0
3 33 287 34
3 36 288 37
3 39 289 40
3 42 290 43
3 45 48 46
3 48 50 49
3 50 52 51
3 52 42 44
3 53 56 54
3 56 58 57
3 58 60 59
3 60 36 38
3 61 64 62
3 64 66 65
3 66 68 67
3 68 39 41
3 69 72 70
3 72 74 73
3 74 76 75
3 76 33 35
3 77 291 78
3 80 84 81
3 83 292 84
3 85 292 83
3 79 78 85
3 87 125 88
3 90 117 91
3 93 100 94
3 96 183 97
3 99 115 100
3 101 293 102
3 104 130 105
3 89 88 107
3 108 107 109
3 111 144 112
3 114 193 115
3 116 151 117
3 110 109 118
3 109 122 120
3 121 123 120
3 121 80 82
3 124 294 125
3 125 294 126
3 128 129 127
3 129 128 77
3 130 295 131
3 132 141 133
3 135 296 136
3 138 133 139
3 141 297 142
3 144 298 145
3 143 299 146
3 147 300 148
3 150 198 151
3 113 112 130
3 152 162 153
3 155 137 156
3 158 186 159
3 161 149 162
3 163 189 164
3 166 147 149
3 167 232 168
3 170 228 171
3 173 223 174
3 176 231 177
3 159 301 179
3 181 302 182
3 184 303 185
3 187 304 188
3 190 305 191
3 193 306 194
3 117 307 195
3 97 308 196
3 198 309 199
3 162 310 200
3 100 311 201
3 156 312 202
3 204 313 205
3 207 314 208
3 210 315 211
3 213 316 214
3 216 234 217
3 219 226 220
3 222 235 223
3 170 172 224
3 169 168 226
3 227 233 171
3 229 175 174
3 216 218 231
3 221 220 232
3 225 224 233
3 178 177 217
3 229 230 235
3 236 317 237
3 239 318 240
3 242 319 243
3 245 320 246
3 248 321 249
3 251 322 252
3 254 323 255
3 257 324 258
3 260 325 261
3 263 326 264
3 266 327 267
3 269 328 270
3 272 329 273
3 275 330 276
3 278 331 279
3 281 332 282
