ply
format ascii 1.0
comment Created by Blender 2.79 (sub 0) - www.blender.org, source file: 'new furniture.blend'
element vertex 112
property float x
property float y
property float z
property float s
property float t
property uchar red
property uchar green
property uchar blue
element face 140
property list uchar uint vertex_indices
end_header
0.000000 -0.022243 0.080000 0.000000 0.000000 255 0 0
-0.113137 -0.222243 0.113137 0.000000 0.000000 255 0 0
-0.000000 -0.222243 0.160000 0.000000 0.000000 255 0 0
-0.080000 -0.022243 0.000000 0.000000 0.000000 255 0 0
-0.160000 -0.222243 0.000000 0.000000 0.000000 255 0 0
-0.113137 -0.222243 -0.113137 0.000000 0.000000 255 0 0
-0.056569 -0.022243 -0.056568 0.000000 0.000000 255 0 0
0.000000 -0.222243 -0.160000 0.000000 0.000000 255 0 0
0.000000 -0.022243 -0.080000 0.000000 0.000000 255 0 0
0.113137 -0.222243 -0.113137 0.000000 0.000000 255 0 0
0.056569 -0.022243 -0.056568 0.000000 0.000000 255 0 0
0.160000 -0.222243 0.000000 0.000000 0.000000 255 0 0
0.056569 -0.022243 0.056569 0.000000 0.000000 255 0 0
0.113137 -0.222243 0.113137 0.000000 0.000000 255 0 0
-0.072000 -0.022243 0.000000 0.000000 0.000000 255 0 0
-0.050912 -0.022243 -0.050912 0.000000 0.000000 255 0 0
0.072000 -0.022243 0.000000 0.000000 0.000000 255 0 0
0.080000 -0.022243 0.000000 0.000000 0.000000 255 0 0
0.000000 -0.022243 -0.072000 0.000000 0.000000 255 0 0
0.050912 -0.022243 0.050912 0.000000 0.000000 255 0 0
-0.056569 -0.022243 0.056569 0.000000 0.000000 255 0 0
0.050912 -0.022243 -0.050912 0.000000 0.000000 255 0 0
0.000000 -0.022243 0.072000 0.000000 0.000000 255 0 0
-0.050912 -0.022243 0.050912 0.000000 0.000000 255 0 0
0.144000 -0.222243 0.000000 0.000000 0.000000 255 0 0
-0.144000 -0.222243 0.000000 0.000000 0.000000 255 0 0
-0.101823 -0.222243 0.101823 0.000000 0.000000 255 0 0
0.000000 -0.222243 -0.144000 0.000000 0.000000 255 0 0
-0.000000 -0.222243 0.144000 0.000000 0.000000 255 0 0
0.101823 -0.222243 0.101823 0.000000 0.000000 255 0 0
0.101823 -0.222243 -0.101823 0.000000 0.000000 255 0 0
-0.101823 -0.222243 -0.101823 0.000000 0.000000 255 0 0
-0.080000 -0.488400 0.000000 0.472213 0.749670 0 255 0
-0.028284 -0.468400 0.028284 0.406845 0.785421 0 255 0
-0.040000 -0.468400 0.000000 0.421653 0.749670 0 255 0
-0.056569 -0.488400 -0.056569 0.442596 0.678168 0 255 0
-0.000000 -0.468400 -0.040000 0.371094 0.699110 0 255 0
-0.000000 -0.488400 -0.080000 0.371094 0.648551 0 255 0
0.056569 -0.488400 -0.056569 0.299592 0.678168 0 255 0
0.040000 -0.468400 0.000000 0.320534 0.749670 0 255 0
0.080000 -0.488400 -0.000000 0.269975 0.749670 0 255 0
0.056569 -0.488400 0.056569 0.299592 0.821171 0 255 0
-0.000000 -0.468400 0.040000 0.371094 0.800229 0 255 0
-0.000000 -0.488400 0.080000 0.371094 0.850789 0 255 0
-0.056569 -0.488400 0.056569 0.442596 0.821171 0 255 0
-0.028284 -0.468400 -0.028284 0.406845 0.713919 0 255 0
0.028284 -0.468400 -0.028284 0.335343 0.713919 0 255 0
0.028284 -0.468400 0.028284 0.335343 0.785421 0 255 0
0.020000 -0.458400 0.000000 0.345814 0.749670 0 255 0
-0.000000 -0.458400 0.020000 0.371094 0.774949 0 255 0
-0.014142 -0.458400 0.014142 0.388969 0.767545 0 255 0
-0.020000 -0.458400 0.000000 0.396373 0.749670 0 255 0
-0.014142 -0.458400 -0.014142 0.388969 0.731794 0 255 0
0.014142 -0.458400 -0.014142 0.353218 0.731794 0 255 0
0.014142 -0.458400 0.014142 0.353218 0.767545 0 255 0
-0.000000 -0.458400 -0.020000 0.371094 0.724390 0 255 0
-0.014142 -0.458400 0.014142 0.388969 0.170258 0 255 0
-0.020000 -0.154527 0.000000 0.371094 0.554349 0 255 0
-0.020000 -0.458400 0.000000 0.371094 0.170258 0 255 0
-0.014142 -0.458400 -0.014142 0.388969 0.170258 0 255 0
-0.000000 -0.154527 -0.020000 0.371094 0.554349 0 255 0
-0.000000 -0.458400 -0.020000 0.371094 0.170258 0 255 0
0.014142 -0.458400 -0.014142 0.353218 0.170258 0 255 0
0.020000 -0.154527 0.000000 0.371094 0.554349 0 255 0
0.020000 -0.458400 0.000000 0.371094 0.170258 0 255 0
0.014142 -0.458400 0.014142 0.353218 0.170258 0 255 0
-0.000000 -0.154527 0.020000 0.371094 0.554349 0 255 0
-0.000000 -0.458400 0.020000 0.371094 0.170258 0 255 0
-0.014142 -0.154527 0.014142 0.388969 0.554349 0 255 0
-0.014142 -0.154527 -0.014142 0.353218 0.554349 0 255 0
-0.014142 -0.458400 -0.014142 0.353218 0.170258 0 255 0
0.014142 -0.154527 -0.014142 0.353218 0.554349 0 255 0
0.014142 -0.154527 0.014142 0.388969 0.554349 0 255 0
0.014142 -0.458400 0.014142 0.388969 0.170258 0 255 0
-0.080000 -0.488400 0.000000 0.371094 0.132339 0 255 0
-0.056569 -0.498400 0.056569 0.442596 0.119699 0 255 0
-0.056569 -0.488400 0.056569 0.442596 0.132339 0 255 0
-0.000000 -0.488400 -0.080000 0.371094 0.132339 0 255 0
-0.056569 -0.498400 -0.056569 0.442596 0.119699 0 255 0
-0.056569 -0.488400 -0.056569 0.442596 0.132339 0 255 0
0.080000 -0.488400 -0.000000 0.371094 0.132339 0 255 0
0.056569 -0.498400 -0.056569 0.299592 0.119699 0 255 0
0.056569 -0.488400 -0.056569 0.299592 0.132339 0 255 0
-0.000000 -0.488400 0.080000 0.371094 0.132339 0 255 0
0.056569 -0.498400 0.056569 0.299592 0.119699 0 255 0
0.056569 -0.488400 0.056569 0.299592 0.132339 0 255 0
-0.000000 -0.498400 0.080000 0.371094 0.119699 0 255 0
-0.056569 -0.488400 -0.056569 0.299592 0.132339 0 255 0
-0.080000 -0.498400 0.000000 0.371094 0.119699 0 255 0
-0.000000 -0.498400 -0.080000 0.371094 0.119699 0 255 0
0.056569 -0.488400 0.056569 0.442596 0.132339 0 255 0
0.080000 -0.498400 -0.000000 0.371094 0.119699 0 255 0
0.056569 -0.498400 -0.056569 0.299592 0.678168 0 255 0
-0.056569 -0.498400 0.056569 0.442596 0.821171 0 255 0
-0.000000 -0.498400 -0.080000 0.371094 0.648551 0 255 0
-0.000000 -0.498400 0.080000 0.371094 0.850789 0 255 0
0.080000 -0.498400 -0.000000 0.269975 0.749670 0 255 0
0.056569 -0.498400 0.056569 0.299592 0.821171 0 255 0
-0.056569 -0.498400 -0.056569 0.442596 0.678168 0 255 0
-0.080000 -0.498400 0.000000 0.472213 0.749670 0 255 0
-0.000000 -0.154527 -0.020000 0.371094 0.724390 0 255 0
-0.000000 -0.154527 0.020000 0.371094 0.774949 0 255 0
0.014142 -0.154527 -0.014142 0.353218 0.731794 0 255 0
0.020000 -0.154527 0.000000 0.345814 0.749670 0 255 0
0.014142 -0.154527 0.014142 0.353218 0.767545 0 255 0
-0.014142 -0.154527 -0.014142 0.388969 0.731794 0 255 0
-0.014142 -0.154527 0.014142 0.388969 0.767545 0 255 0
-0.014142 -0.154527 -0.014142 0.388969 0.554349 0 255 0
0.014142 -0.154527 0.014142 0.353218 0.554349 0 255 0
-0.056569 -0.498400 -0.056569 0.299592 0.119699 0 255 0
0.056569 -0.498400 0.056569 0.442596 0.119699 0 255 0
-0.020000 -0.154527 0.000000 0.396373 0.749670 0 255 0
3 0 1 2
3 1 3 4
3 3 5 4
3 6 7 5
3 8 9 7
3 10 11 9
3 11 12 13
3 12 2 13
3 6 14 15
3 10 16 17
3 6 18 8
3 17 19 12
3 20 14 3
3 10 18 21
3 12 22 0
3 0 23 20
3 13 24 11
3 1 25 26
3 9 27 7
3 13 28 29
3 1 28 2
3 5 25 4
3 9 24 30
3 5 27 31
3 18 30 21
3 21 24 16
3 19 24 29
3 19 28 22
3 23 28 26
3 23 25 14
3 15 25 31
3 15 27 18
3 32 33 34
3 35 36 37
3 38 39 40
3 41 42 43
3 43 33 44
3 32 45 35
3 38 36 46
3 41 39 47
3 46 48 39
3 47 49 42
3 42 50 33
3 45 51 52
3 36 53 46
3 39 54 47
3 33 51 34
3 45 55 36
3 56 57 58
3 59 60 61
3 62 63 64
3 65 66 67
3 67 68 56
3 58 69 70
3 61 71 62
3 64 72 73
3 74 75 76
3 77 78 79
3 80 81 82
3 83 84 85
3 76 86 83
3 87 88 74
3 82 89 77
3 90 91 80
3 92 93 94
3 95 96 97
3 98 93 99
3 100 101 102
3 103 101 104
3 105 106 100
3 0 20 1
3 1 20 3
3 3 6 5
3 6 8 7
3 8 10 9
3 10 17 11
3 11 17 12
3 12 0 2
3 6 3 14
3 10 21 16
3 6 15 18
3 17 16 19
3 20 23 14
3 10 8 18
3 12 19 22
3 0 22 23
3 13 29 24
3 1 4 25
3 9 30 27
3 13 2 28
3 1 26 28
3 5 31 25
3 9 11 24
3 5 7 27
3 18 27 30
3 21 30 24
3 19 16 24
3 19 29 28
3 23 22 28
3 23 26 25
3 15 14 25
3 15 31 27
3 32 44 33
3 35 45 36
3 38 46 39
3 41 47 42
3 43 42 33
3 32 34 45
3 38 37 36
3 41 40 39
3 46 53 48
3 47 54 49
3 42 49 50
3 45 34 51
3 36 55 53
3 39 48 54
3 33 50 51
3 45 52 55
3 56 68 57
3 59 107 60
3 62 71 63
3 65 108 66
3 67 66 68
3 58 57 69
3 61 60 71
3 64 63 72
3 74 88 75
3 77 89 78
3 80 91 81
3 83 86 84
3 76 75 86
3 87 109 88
3 82 81 89
3 90 110 91
3 92 95 93
3 95 92 96
3 98 94 93
3 100 106 101
3 103 102 101
3 105 111 106
