ply
format ascii 1.0
comment Created by Blender 2.79 (sub 0) - www.blender.org, source file: 'throne.blend'
element vertex 77
property float x
property float y
property float z
property uchar red
property uchar green
property uchar blue
element face 96
property list uchar uint vertex_indices
end_header
0.500000 0.600000 -0.708333 0 255 0
0.500000 -0.150000 -0.458333 0 255 0
0.500000 -0.150000 -0.708333 0 255 0
0.500000 0.600000 -0.458333 0 255 0
-0.500000 -0.150000 -0.458333 0 255 0
-0.500000 0.600000 -0.458333 0 255 0
-0.500000 -0.150000 -0.708333 0 255 0
-0.500000 0.600000 -0.708333 0 255 0
0.625000 1.850000 -0.700000 0 255 0
0.625000 -0.150000 0.700000 0 255 0
0.625000 -0.150000 -0.700000 0 255 0
0.625000 1.850000 0.700000 0 255 0
0.375000 -0.150000 0.700000 0 255 0
0.375000 1.850000 0.700000 0 255 0
0.375000 -0.150000 -0.700000 0 255 0
0.375000 1.850000 -0.700000 0 255 0
0.500000 0.600000 0.461667 122 90 17
0.500000 -0.150000 0.711667 0 255 0
0.500000 -0.150000 0.461667 0 255 0
0.500000 0.600000 0.711667 0 255 0
-0.500000 -0.150000 0.711667 0 255 0
-0.500000 0.600000 0.711667 0 255 0
-0.500000 -0.150000 0.461667 0 255 0
-0.500000 0.600000 0.461667 0 255 0
-0.450000 -0.125000 -0.500000 0 255 0
0.500000 -0.125000 0.500000 0 255 0
-0.450000 -0.125000 0.500000 0 255 0
0.500000 0.350000 0.500000 0 255 0
-0.449999 0.350000 -0.500000 0 255 0
-0.450000 0.350000 0.499999 0 255 0
-0.449999 0.350000 -0.500000 255 255 255
0.500000 -0.125000 -0.500000 255 255 255
-0.450000 -0.125000 -0.500000 255 255 255
0.500000 0.350000 -0.500000 255 255 255
0.500000 -0.125000 0.500000 255 255 255
-0.450000 -0.125000 0.500000 255 255 255
0.500000 0.350000 0.500000 255 255 255
-0.450000 0.350000 0.499999 255 255 255
0.500000 0.600000 0.461667 0 255 0
0.500000 -0.125000 -0.500000 0 255 0
0.500000 0.350000 -0.500000 0 255 0
0.400000 0.375000 -0.400000 255 0 0
0.400000 0.325000 0.400000 255 0 0
0.400000 0.325000 -0.400000 255 0 0
0.400000 0.375000 0.400000 255 0 0
-0.400000 0.325000 0.400000 255 0 0
-0.400000 0.375000 0.400000 255 0 0
-0.400000 0.325000 -0.400000 255 0 0
-0.400000 0.375000 -0.400000 255 0 0
0.415000 1.785000 -0.400000 255 0 0
0.415000 0.335000 0.400000 255 0 0
0.415000 0.335000 -0.400000 255 0 0
0.415000 1.785000 0.400000 255 0 0
0.365000 0.335000 0.400000 255 0 0
0.365000 1.785000 0.400000 255 0 0
0.365000 0.335000 -0.400000 255 0 0
0.365000 1.785000 -0.400000 255 0 0
0.700000 -0.050000 -0.800000 169 169 169
0.700000 -0.290000 0.800000 169 169 169
0.700000 -0.290000 -0.800000 169 169 169
0.700000 -0.050000 0.800000 169 169 169
-0.980000 -0.290000 0.800000 169 169 169
-0.980000 -0.050000 0.800000 169 169 169
-0.980000 -0.290000 -0.800000 169 169 169
-0.980000 -0.050000 -0.800000 169 169 169
-0.980000 -0.290000 0.800000 255 255 255
0.700000 -0.290000 -0.800000 255 255 255
0.700000 -0.290000 0.800000 255 255 255
0.700000 -0.260000 -0.850000 169 169 169
0.700000 -0.500000 0.850000 169 169 169
0.700000 -0.500000 -0.850000 169 169 169
0.700000 -0.260000 0.850000 169 169 169
-1.260000 -0.500000 0.850000 169 169 169
-1.260000 -0.260000 0.850000 169 169 169
-1.260000 -0.500000 -0.850000 169 169 169
-1.260000 -0.260000 -0.850000 169 169 169
-0.980000 -0.290000 -0.800000 255 255 255
3 0 1 2
3 3 4 1
3 5 6 4
3 7 2 6
3 4 2 1
3 3 7 5
3 8 9 10
3 11 12 9
3 13 14 12
3 15 10 14
3 12 10 9
3 11 15 13
3 16 17 18
3 19 20 17
3 21 22 20
3 23 18 22
3 20 18 17
3 19 23 21
3 24 25 26
3 27 28 29
3 26 28 24
3 30 31 32
3 33 34 31
3 35 36 37
3 0 3 1
3 3 5 4
3 5 7 6
3 7 0 2
3 4 6 2
3 3 0 7
3 8 11 9
3 11 13 12
3 13 15 14
3 15 8 10
3 12 14 10
3 11 8 15
3 38 19 17
3 19 21 20
3 21 23 22
3 23 38 18
3 20 22 18
3 19 38 23
3 24 39 25
3 27 40 28
3 26 29 28
3 30 33 31
3 33 36 34
3 35 34 36
3 41 42 43
3 44 45 42
3 46 47 45
3 48 43 47
3 45 43 42
3 44 48 46
3 49 50 51
3 52 53 50
3 54 55 53
3 56 51 55
3 53 51 50
3 52 56 54
3 57 58 59
3 60 61 58
3 62 63 61
3 64 59 63
3 65 66 67
3 60 64 62
3 68 69 70
3 71 72 69
3 73 74 72
3 75 70 74
3 72 70 69
3 71 75 73
3 41 44 42
3 44 46 45
3 46 48 47
3 48 41 43
3 45 47 43
3 44 41 48
3 49 52 50
3 52 54 53
3 54 56 55
3 56 49 51
3 53 55 51
3 52 49 56
3 57 60 58
3 60 62 61
3 62 64 63
3 64 57 59
3 65 76 66
3 60 57 64
3 68 71 69
3 71 73 72
3 73 75 74
3 75 68 70
3 72 74 70
3 71 68 75
