ply
format ascii 1.0
comment Created by Blender 2.79 (sub 0) - www.blender.org, source file: 'displaycabinet.blend'
element vertex 136
property float x
property float y
property float z
property float s
property float t
property uchar red
property uchar green
property uchar blue
element face 108
property list uchar uint vertex_indices
end_header
0.350000 0.400000 0.500000 0.998909 0.899127 255 0 0
0.350000 0.440000 -0.500000 0.001091 0.939040 255 0 0
0.350000 0.440000 0.500000 0.998909 0.939040 255 0 0
0.290000 0.450000 0.500000 0.086619 0.949018 255 0 0
-0.290000 0.450000 0.500000 0.913381 0.949018 255 0 0
-0.350000 0.400000 0.500000 0.998909 0.899127 255 0 0
0.350000 0.400000 0.500000 0.001091 0.998909 255 0 0
-0.350000 0.400000 0.500000 0.998909 0.998909 255 0 0
0.000000 0.400000 0.250000 0.500000 0.749454 255 0 0
-0.290000 0.450000 -0.500000 0.913381 0.949018 255 0 0
0.290000 0.450000 -0.500000 0.086619 0.949018 255 0 0
0.350000 0.400000 -0.500000 0.001091 0.899127 255 0 0
-0.266000 0.500000 -0.500000 0.879171 0.001091 255 0 0
0.266000 0.500000 0.500000 0.120829 0.998909 255 0 0
0.266000 0.500000 -0.500000 0.120829 0.001091 255 0 0
-0.266000 0.500000 0.500000 0.998909 0.998909 255 0 0
-0.290000 0.450000 -0.500000 0.001091 0.949018 255 0 0
-0.290000 0.450000 0.500000 0.998909 0.949018 255 0 0
-0.350000 0.440000 -0.500000 0.998909 0.001091 255 0 0
-0.290000 0.450000 0.500000 0.913381 0.998909 255 0 0
-0.290000 0.450000 -0.500000 0.913381 0.001091 255 0 0
-0.350000 0.400000 -0.500000 0.001091 0.899127 255 0 0
-0.350000 0.440000 0.500000 0.998909 0.939040 255 0 0
-0.350000 0.440000 -0.500000 0.001091 0.939040 255 0 0
0.266000 0.500000 -0.500000 0.001091 0.998909 255 0 0
0.290000 0.450000 0.500000 0.998909 0.949018 255 0 0
0.290000 0.450000 -0.500000 0.001091 0.949018 255 0 0
0.350000 0.440000 0.500000 0.001091 0.998909 255 0 0
0.290000 0.450000 -0.500000 0.086619 0.001091 255 0 0
0.290000 0.450000 0.500000 0.086619 0.998909 255 0 0
0.495000 -0.400000 -0.500000 0.001091 0.100873 255 0 0
0.550000 -0.500000 0.500000 0.998909 0.001091 255 0 0
0.550000 -0.500000 -0.500000 0.001091 0.001091 255 0 0
0.495000 -0.400000 0.500000 -0.205600 0.100873 255 0 0
-0.550000 -0.500000 0.500000 1.284000 0.001091 255 0 0
0.550000 -0.500000 0.500000 -0.284000 0.001091 255 0 0
-0.495000 -0.400000 0.500000 0.998909 0.100873 255 0 0
-0.550000 -0.500000 -0.500000 0.001091 0.001091 255 0 0
-0.550000 -0.500000 0.500000 0.998909 0.001091 255 0 0
-0.495000 -0.400000 -0.500000 1.205600 0.100873 255 0 0
0.550000 -0.500000 -0.500000 -0.284000 0.001091 255 0 0
-0.550000 -0.500000 -0.500000 1.284000 0.001091 255 0 0
-0.550000 -0.500000 0.500000 1.284000 0.998909 255 0 0
0.550000 -0.500000 0.500000 -0.284000 0.998909 255 0 0
-0.000000 -0.400000 -0.250000 0.500000 0.250545 255 0 0
0.495000 -0.400000 -0.500000 -0.205600 0.001091 255 0 0
-0.495000 -0.400000 -0.500000 1.205600 0.001091 255 0 0
-0.176777 -0.400000 -0.176777 0.751987 0.100873 255 0 0
-0.095671 0.400000 -0.230970 0.636374 0.899127 255 0 0
-0.095671 -0.400000 -0.230970 0.636374 0.100873 255 0 0
-0.176777 -0.400000 0.176777 0.676391 0.100873 255 0 0
-0.230970 0.400000 0.095671 0.595462 0.899127 255 0 0
-0.230970 -0.400000 0.095671 0.595462 0.100873 255 0 0
-0.230970 -0.400000 -0.095671 0.404538 0.100873 255 0 0
-0.176777 0.400000 -0.176777 0.323609 0.899127 255 0 0
-0.176777 -0.400000 -0.176777 0.323609 0.100873 255 0 0
-0.000000 0.400000 -0.250000 0.500000 0.899127 255 0 0
-0.000000 -0.400000 -0.250000 0.500000 0.100873 255 0 0
-0.250000 0.400000 -0.000000 0.500000 0.899127 255 0 0
-0.250000 -0.400000 -0.000000 0.500000 0.100873 255 0 0
0.350000 0.400000 -0.500000 0.001091 0.001091 255 0 0
0.095671 0.400000 -0.230970 0.363626 0.269534 255 0 0
-0.000000 0.400000 -0.250000 0.500000 0.250545 255 0 0
0.095671 0.400000 -0.230970 0.363626 0.899127 255 0 0
0.095671 -0.400000 -0.230970 0.363626 0.100873 255 0 0
0.176777 -0.400000 -0.176777 0.323609 0.100873 255 0 0
0.230970 0.400000 -0.095671 0.404538 0.899127 255 0 0
0.230970 -0.400000 -0.095671 0.404538 0.100873 255 0 0
0.176777 0.400000 -0.176777 0.248013 0.899127 255 0 0
0.176777 -0.400000 -0.176777 0.248013 0.100873 255 0 0
0.176777 -0.400000 0.176777 0.248013 0.100873 255 0 0
0.095671 0.400000 0.230970 0.363626 0.899127 255 0 0
0.095671 -0.400000 0.230970 0.363626 0.100873 255 0 0
0.250000 0.400000 0.000000 0.500000 0.899127 255 0 0
0.250000 -0.400000 0.000000 0.500000 0.100873 255 0 0
0.000000 -0.400000 0.250000 0.500000 0.749454 255 0 0
-0.495000 -0.400000 0.500000 1.205600 0.998909 255 0 0
0.495000 -0.400000 0.500000 -0.205600 0.998909 255 0 0
0.000000 -0.400000 0.250000 0.500000 0.100873 255 0 0
-0.095671 0.400000 0.230970 0.636374 0.899127 255 0 0
-0.095671 -0.400000 0.230970 0.636374 0.100873 255 0 0
0.000000 0.400000 0.250000 0.500000 0.899127 255 0 0
0.230970 -0.400000 0.095671 0.595462 0.100873 255 0 0
0.176777 0.400000 0.176777 0.676391 0.899127 255 0 0
0.176777 -0.400000 0.176777 0.676391 0.100873 255 0 0
-0.176777 0.400000 0.176777 0.751987 0.899127 255 0 0
-0.176777 -0.400000 0.176777 0.751987 0.100873 255 0 0
0.230970 0.400000 0.095671 0.595462 0.899127 255 0 0
-0.230970 0.400000 -0.095671 0.404538 0.899127 255 0 0
0.350000 0.400000 0.500000 0.001091 0.899127 255 0 0
0.350000 0.440000 0.500000 0.001091 0.939040 255 0 0
-0.266000 0.500000 0.500000 0.879171 0.998909 255 0 0
-0.350000 0.400000 -0.500000 0.998909 0.001091 255 0 0
-0.250000 0.400000 -0.000000 0.856364 0.500000 255 0 0
-0.230970 0.400000 0.095671 0.829237 0.595462 255 0 0
0.230970 0.400000 0.095671 0.170763 0.595462 255 0 0
0.250000 0.400000 0.000000 0.143636 0.500000 255 0 0
0.176777 0.400000 0.176777 0.248013 0.676391 255 0 0
-0.176777 0.400000 0.176777 0.751987 0.676391 255 0 0
-0.095671 0.400000 0.230970 0.636374 0.730466 255 0 0
0.095671 0.400000 0.230970 0.363626 0.730466 255 0 0
-0.350000 0.400000 -0.500000 0.998909 0.899127 255 0 0
-0.350000 0.440000 -0.500000 0.998909 0.939040 255 0 0
-0.266000 0.500000 -0.500000 0.879171 0.998909 255 0 0
0.266000 0.500000 -0.500000 0.120829 0.998909 255 0 0
-0.266000 0.500000 -0.500000 0.001091 0.998909 255 0 0
-0.350000 0.440000 0.500000 0.998909 0.998909 255 0 0
0.266000 0.500000 0.500000 0.998909 0.998909 255 0 0
0.350000 0.440000 -0.500000 0.001091 0.001091 255 0 0
0.495000 -0.400000 0.500000 0.998909 0.100873 255 0 0
-0.495000 -0.400000 0.500000 1.205600 0.100873 255 0 0
-0.495000 -0.400000 -0.500000 0.001091 0.100873 255 0 0
0.495000 -0.400000 -0.500000 -0.205600 0.100873 255 0 0
-0.250000 -0.400000 -0.000000 0.856364 0.500000 255 0 0
-0.230970 -0.400000 -0.095671 0.829237 0.404538 255 0 0
0.230970 -0.400000 -0.095671 0.170763 0.404538 255 0 0
0.250000 -0.400000 0.000000 0.143636 0.500000 255 0 0
0.176777 -0.400000 -0.176777 0.248013 0.323609 255 0 0
-0.176777 -0.400000 -0.176777 0.751987 0.323609 255 0 0
-0.095671 -0.400000 -0.230970 0.636374 0.269534 255 0 0
0.095671 -0.400000 -0.230970 0.363626 0.269534 255 0 0
-0.176777 0.400000 -0.176777 0.751987 0.899127 255 0 0
-0.176777 0.400000 0.176777 0.676391 0.899127 255 0 0
-0.230970 0.400000 -0.095671 0.829237 0.404538 255 0 0
0.230970 0.400000 -0.095671 0.170763 0.404538 255 0 0
-0.176777 0.400000 -0.176777 0.751987 0.323609 255 0 0
-0.095671 0.400000 -0.230970 0.636374 0.269534 255 0 0
0.176777 0.400000 -0.176777 0.248013 0.323609 255 0 0
0.176777 0.400000 -0.176777 0.323609 0.899127 255 0 0
0.176777 0.400000 0.176777 0.248013 0.899127 255 0 0
0.230970 -0.400000 0.095671 0.170763 0.595462 255 0 0
-0.230970 -0.400000 0.095671 0.829237 0.595462 255 0 0
-0.176777 -0.400000 0.176777 0.751987 0.676391 255 0 0
0.176777 -0.400000 0.176777 0.248013 0.676391 255 0 0
0.095671 -0.400000 0.230970 0.363626 0.730466 255 0 0
-0.095671 -0.400000 0.230970 0.636374 0.730466 255 0 0
3 0 1 2
3 3 4 5
3 6 7 8
3 9 10 11
3 12 13 14
3 15 16 17
3 18 19 20
3 21 22 23
3 24 25 26
3 27 28 29
3 30 31 32
3 33 34 35
3 36 37 38
3 39 40 41
3 42 40 43
3 44 45 46
3 47 48 49
3 50 51 52
3 53 54 55
3 49 56 57
3 52 58 59
3 60 61 62
3 57 63 64
3 65 66 67
3 64 68 69
3 70 71 72
3 67 73 74
3 75 76 77
3 78 79 80
3 72 81 78
3 82 83 84
3 80 85 86
3 74 87 82
3 59 88 53
3 0 11 1
3 5 89 3
3 89 90 3
3 3 13 91
3 4 22 5
3 3 91 4
3 7 92 93
3 7 93 94
3 95 96 6
3 97 95 6
3 7 94 98
3 7 98 99
3 100 97 6
3 7 99 8
3 8 100 6
3 11 101 9
3 101 102 9
3 9 103 10
3 103 104 10
3 10 1 11
3 12 91 13
3 15 105 16
3 18 106 19
3 21 5 22
3 24 107 25
3 27 108 28
3 30 109 31
3 33 110 34
3 36 111 37
3 39 112 40
3 42 41 40
3 46 76 113
3 46 113 114
3 115 116 45
3 117 115 45
3 46 114 118
3 46 118 119
3 120 117 45
3 46 119 44
3 44 120 45
3 47 121 48
3 50 122 51
3 53 88 54
3 49 48 56
3 52 51 58
3 123 93 92
3 60 6 96
3 60 96 124
3 125 123 92
3 126 125 92
3 60 124 127
3 60 127 61
3 126 92 62
3 92 60 62
3 57 56 63
3 65 128 66
3 64 63 68
3 70 129 71
3 67 66 73
3 77 45 116
3 77 116 130
3 131 113 76
3 132 131 76
3 77 130 133
3 77 133 134
3 135 132 76
3 77 134 75
3 75 135 76
3 78 81 79
3 72 71 81
3 82 87 83
3 80 79 85
3 74 73 87
3 59 58 88
