ply
format ascii 1.0
comment Created by Blender 2.79 (sub 0) - www.blender.org, source file: ''
element vertex 24
property float x
property float y
property float z
property uchar red
property uchar green
property uchar blue
element face 48
property list uchar uint vertex_indices
end_header
0.500000 0.450000 0.450000 255 0 0
0.500000 0.500000 0.500000 255 0 0
0.500000 -0.500000 0.500000 255 0 0
0.300000 -0.500000 -0.300000 255 0 0
-0.500000 -0.500000 -0.500000 255 0 0
0.500000 -0.500000 -0.500000 255 0 0
-0.500000 0.500000 -0.500000 255 0 0
-0.450000 -0.450000 -0.500000 255 0 0
0.300000 0.500000 -0.300000 255 0 0
0.500000 0.500000 -0.500000 255 0 0
0.300000 0.500000 0.500000 255 0 0
0.300000 -0.500000 0.500000 255 0 0
0.300000 -0.450000 0.450000 255 0 0
-0.500000 0.500000 -0.300000 255 0 0
-0.500000 -0.500000 -0.300000 255 0 0
-0.450000 0.450000 -0.300000 255 0 0
0.500000 -0.450000 0.450000 255 0 0
0.300000 0.450000 0.450000 255 0 0
0.300000 0.450000 -0.300000 255 0 0
-0.450000 0.450000 -0.500000 255 0 0
0.500000 0.450000 -0.500000 255 0 0
-0.450000 -0.450000 -0.300000 255 0 0
0.300000 -0.450000 -0.300000 255 0 0
0.500000 -0.450000 -0.500000 255 0 0
3 0 1 2
3 3 4 5
3 4 6 7
3 8 1 9
3 2 10 11
3 11 10 12
3 13 14 15
3 6 14 13
3 16 17 0
3 18 19 20
3 7 21 22
3 21 19 15
3 2 5 16
3 5 23 16
3 20 9 0
3 9 1 0
3 2 16 0
3 5 2 3
3 2 11 3
3 3 14 4
3 6 9 19
3 9 20 19
3 23 5 7
3 5 4 7
3 6 19 7
3 8 10 1
3 9 6 8
3 6 13 8
3 2 1 10
3 22 3 12
3 3 11 12
3 10 8 17
3 8 18 17
3 10 17 12
3 18 8 15
3 8 13 15
3 14 3 21
3 3 22 21
3 14 21 15
3 6 4 14
3 16 12 17
3 0 17 18
3 18 15 19
3 20 0 18
3 12 16 22
3 16 23 22
3 23 7 22
3 21 7 19
