ply
format ascii 1.0
comment Created by Blender 2.79 (sub 0) - www.blender.org, source file: 'windows.blend'
element vertex 84
property float x
property float y
property float z
property uchar red
property uchar green
property uchar blue
element face 152
property list uchar uint vertex_indices
end_header
-0.055543 0.500000 -0.165175 255 0 0
0.065686 0.500000 -0.065685 255 0 0
0.207107 0.500000 -0.207106 255 0 0
0.294791 -0.500000 0.500000 255 0 0
0.294791 0.500000 0.500000 255 0 0
0.291535 -0.450000 0.450000 255 0 0
0.500000 -0.500000 0.500000 255 0 0
0.495075 0.450000 0.450000 255 0 0
0.500000 0.500000 0.500000 255 0 0
0.423880 0.500000 0.117317 255 0 0
0.480785 0.450000 0.304911 255 0 0
0.423880 0.450000 0.117317 255 0 0
0.331470 0.500000 -0.055570 255 0 0
0.331470 0.450000 -0.055570 255 0 0
0.207107 0.450000 -0.207106 255 0 0
0.055571 0.500000 -0.331469 255 0 0
0.055571 0.450000 -0.331469 255 0 0
-0.117316 0.500000 -0.423879 255 0 0
-0.117316 0.450000 -0.423879 255 0 0
-0.304909 0.500000 -0.480785 255 0 0
-0.304909 0.450000 -0.480785 255 0 0
-0.500000 -0.500000 -0.500000 255 0 0
-0.500000 0.500000 -0.500000 255 0 0
-0.450000 -0.450000 -0.495075 255 0 0
-0.500000 0.500000 -0.500000 255 255 255
-0.500000 -0.500000 -0.500000 255 255 255
-0.500000 0.500000 -0.500000 255 255 255
-0.500000 0.500000 -0.500000 255 0 0
-0.500000 -0.500000 -0.300000 255 0 0
-0.500000 0.500000 -0.300000 255 0 0
-0.500000 0.500000 -0.300000 255 255 255
-0.500000 -0.500000 -0.300000 255 255 255
-0.500000 0.500000 -0.300000 255 255 255
-0.500000 -0.500000 -0.300000 255 0 0
-0.450000 0.450000 -0.295075 255 0 0
-0.500000 0.500000 -0.300000 255 0 0
-0.193853 0.500000 -0.239103 255 0 0
-0.343927 0.450000 -0.284628 255 0 0
-0.193853 0.450000 -0.239103 255 0 0
-0.055543 0.450000 -0.165175 255 0 0
0.065686 0.450000 -0.065685 255 0 0
0.165176 0.500000 0.055544 255 0 0
0.165176 0.450000 0.055544 255 0 0
0.239104 0.500000 0.193854 255 0 0
0.239104 0.450000 0.193854 255 0 0
0.284628 0.500000 0.343928 255 0 0
0.284628 0.450000 0.343928 255 0 0
0.284628 -0.500000 0.343928 255 0 0
0.239104 -0.450000 0.193854 255 0 0
0.239104 -0.500000 0.193854 255 0 0
0.207107 -0.500000 -0.207106 255 0 0
0.065686 -0.500000 -0.065685 255 0 0
-0.055543 -0.500000 -0.165175 255 0 0
0.423880 -0.450000 0.117317 255 0 0
0.480785 -0.500000 0.304911 255 0 0
0.423880 -0.500000 0.117317 255 0 0
-0.304909 -0.450000 -0.480785 255 0 0
-0.117316 -0.500000 -0.423879 255 0 0
-0.304909 -0.500000 -0.480785 255 0 0
-0.193853 -0.500000 -0.239103 255 0 0
-0.343927 -0.450000 -0.284628 255 0 0
-0.343927 -0.500000 -0.284628 255 0 0
0.165176 -0.450000 0.055544 255 0 0
0.165176 -0.500000 0.055544 255 0 0
-0.117316 -0.450000 -0.423879 255 0 0
0.055571 -0.500000 -0.331469 255 0 0
0.055571 -0.450000 -0.331469 255 0 0
0.207107 -0.450000 -0.207106 255 0 0
0.331470 -0.500000 -0.055570 255 0 0
0.331470 -0.450000 -0.055570 255 0 0
0.065686 -0.450000 -0.065685 255 0 0
-0.055543 -0.450000 -0.165175 255 0 0
-0.193853 -0.450000 -0.239103 255 0 0
0.495075 -0.450000 0.450000 255 0 0
0.291535 0.450000 0.450000 255 0 0
-0.450000 -0.450000 -0.295075 255 0 0
-0.450000 0.450000 -0.495075 255 0 0
0.480785 0.500000 0.304911 255 0 0
-0.343927 0.500000 -0.284628 255 0 0
0.284628 -0.450000 0.343928 255 0 0
0.480785 -0.450000 0.304911 255 0 0
-0.500000 -0.500000 -0.500000 255 255 255
-0.500000 -0.500000 -0.500000 255 0 0
-0.500000 -0.500000 -0.300000 255 255 255
3 0 1 2
3 3 4 5
3 6 4 3
3 6 7 8
3 9 10 11
3 12 11 13
3 2 13 14
3 15 14 16
3 17 16 18
3 19 18 20
3 21 22 23
3 24 25 26
3 27 28 29
3 30 31 32
3 33 34 35
3 36 37 38
3 0 38 39
3 1 39 40
3 41 40 42
3 43 42 44
3 45 44 46
3 47 48 49
3 50 51 52
3 53 54 55
3 56 57 58
3 59 60 61
3 49 62 63
3 64 65 57
3 66 50 65
3 67 68 50
3 69 55 68
3 63 70 51
3 51 71 52
3 52 72 59
3 73 74 7
3 40 39 14
3 70 62 69
3 75 76 34
3 45 4 8
3 8 77 45
3 77 9 43
3 9 12 41
3 12 2 41
3 2 15 0
3 15 17 36
3 17 19 36
3 19 22 78
3 36 19 78
3 22 27 29
3 22 29 35
3 15 36 0
3 77 43 45
3 41 43 9
3 22 35 78
3 1 41 2
3 79 47 5
3 47 3 5
3 4 45 74
3 45 46 74
3 4 74 5
3 6 8 4
3 6 54 73
3 54 80 73
3 10 77 7
3 77 8 7
3 6 73 7
3 9 77 10
3 12 9 11
3 2 12 13
3 15 2 14
3 17 15 16
3 19 17 18
3 22 19 76
3 19 20 76
3 56 58 23
3 58 21 23
3 22 76 23
3 24 81 25
3 27 82 28
3 30 83 31
3 33 61 75
3 61 60 75
3 37 78 34
3 78 35 34
3 33 75 34
3 36 78 37
3 0 36 38
3 1 0 39
3 41 1 40
3 43 41 42
3 45 43 44
3 47 79 48
3 28 82 21
3 21 58 61
3 58 57 61
3 57 65 59
3 65 50 52
3 59 65 52
3 50 68 63
3 68 55 49
3 55 54 49
3 54 6 47
3 49 54 47
3 6 3 47
3 68 49 63
3 61 57 59
3 33 28 21
3 61 33 21
3 50 63 51
3 53 80 54
3 56 64 57
3 59 72 60
3 49 48 62
3 64 66 65
3 66 67 50
3 67 69 68
3 69 53 55
3 63 62 70
3 51 70 71
3 52 71 72
3 73 5 74
3 7 74 46
3 7 46 10
3 46 44 10
3 11 10 44
3 14 13 42
3 13 11 42
3 18 16 38
3 16 14 39
3 38 16 39
3 76 20 37
3 20 18 38
3 37 34 76
3 38 37 20
3 42 11 44
3 42 40 14
3 5 73 79
3 73 80 79
3 80 53 79
3 53 69 48
3 79 53 48
3 69 67 70
3 67 66 71
3 66 64 71
3 64 56 72
3 71 64 72
3 56 23 75
3 56 75 60
3 67 71 70
3 56 60 72
3 62 48 69
3 75 23 76
