ply
format ascii 1.0
comment Created by Blender 2.79 (sub 0) - www.blender.org, source file: 'window2.blend'
element vertex 301
property float x
property float y
property float z
property float s
property float t
element face 209
property list uchar uint vertex_indices
end_header
-0.025000 0.500000 0.450000 0.957031 0.394531
-0.025000 0.500000 0.050000 0.957031 0.000000
-0.025000 0.475000 0.450000 0.863281 0.394531
-0.025000 0.500000 0.008333 0.800781 0.480469
0.025000 0.500000 0.450000 0.933594 -0.000000
0.025000 0.500000 -0.041667 0.933594 0.535156
0.025000 0.475000 0.450000 0.999934 0.434791
-0.025000 0.475000 0.050000 0.000066 0.000066
0.025000 0.475000 0.050000 0.999934 0.000066
0.025000 0.475000 0.450000 0.972656 0.000000
0.025000 0.475000 0.050000 0.972656 0.378906
0.025000 0.500000 0.050000 0.777344 0.378906
-0.025000 0.500000 -0.050000 0.972656 0.203125
-0.025000 0.500000 -0.450000 0.972656 1.000000
-0.025000 0.475000 -0.050000 0.789062 0.203125
-0.025000 0.500000 -0.460000 0.816406 0.445312
0.025000 0.500000 -0.050000 0.949219 0.000000
0.025000 0.500000 -0.460000 0.949219 0.445312
0.025000 0.475000 -0.050000 0.999934 0.434791
-0.025000 0.475000 -0.450000 0.000066 0.000066
0.025000 0.475000 -0.450000 0.999934 0.000066
0.025000 0.475000 -0.050000 0.179688 0.000000
0.025000 0.475000 -0.450000 0.179688 0.429688
0.025000 0.500000 -0.450000 0.066406 0.429688
0.013750 0.500000 0.460000 0.000000 0.000000
0.025000 0.500000 0.460000 1.000000 0.000000
0.025000 0.500000 0.453571 1.000000 1.000000
-0.025000 -0.500000 -0.050000 0.839844 0.515625
-0.025000 -0.500000 -0.450000 0.824219 1.000000
-0.025000 -0.500000 -0.460000 0.824219 1.000000
0.008421 -0.500000 0.460000 0.933594 0.484375
-0.025000 -0.500000 0.460000 0.957031 1.000000
-0.012500 -0.500000 0.050000 0.847656 0.667969
-0.012500 -0.500000 -0.450000 0.812500 0.750000
0.025000 -0.500000 0.050000 0.929688 0.000000
-0.012500 -0.500000 0.050000 0.929688 0.750000
-0.025000 -0.475000 0.450000 0.000066 0.000066
0.025000 -0.475000 0.050000 0.999934 0.434789
-0.025000 -0.475000 0.050000 0.000066 0.434792
-0.025000 -0.475000 -0.050000 0.000066 0.000066
0.025000 -0.475000 -0.450000 0.999934 0.434789
-0.025000 -0.475000 -0.450000 0.000066 0.434792
0.025000 -0.500000 -0.050000 0.975528 0.654508
0.025000 -0.475000 0.050000 0.206107 0.095492
0.025000 -0.500000 0.050000 0.024472 0.654509
0.025000 -0.475000 -0.050000 0.945312 0.691406
0.025000 -0.500000 -0.450000 0.789062 0.000000
0.025000 -0.475000 -0.450000 0.945312 0.000000
0.025000 -0.500000 0.450000 1.000000 0.000000
0.025000 -0.475000 0.460000 0.000000 1.000000
0.025000 -0.500000 0.460000 0.000000 0.000000
0.025000 -0.500000 0.050000 0.546875 0.441406
0.025000 -0.475000 0.450000 0.648438 1.000000
0.025000 -0.500000 0.450000 0.546875 1.000000
-0.025000 -0.475000 0.460000 0.206107 0.095492
0.008421 -0.500000 0.460000 0.500000 1.000000
0.025000 -0.475000 0.460000 0.793893 0.095491
-0.025000 -0.475000 0.050000 1.000000 0.000000
0.025000 -0.475000 -0.050000 0.000000 1.000000
-0.025000 -0.475000 -0.050000 0.000000 0.000000
-0.025000 -0.475000 0.460000 1.000000 0.000000
0.025000 -0.475000 0.450000 0.000000 1.000000
-0.025000 -0.475000 0.450000 0.000000 0.000000
-0.025000 -0.500000 0.450000 0.000000 1.000000
-0.025000 -0.500000 0.460000 0.000000 0.000000
-0.025000 -0.475000 -0.050000 1.000000 0.000000
-0.025000 -0.500000 0.050000 0.000000 1.000000
-0.025000 -0.475000 0.050000 0.000000 0.000000
-0.025000 0.025000 0.050000 0.191406 1.000000
-0.025000 -0.025000 0.450000 0.074219 0.324219
-0.025000 0.025000 0.450000 0.191406 0.324219
-0.025000 0.025000 0.450000 0.000066 0.000066
0.025000 0.025000 0.050000 0.999934 0.434791
-0.025000 0.025000 0.050000 0.000066 0.434791
0.025000 -0.025000 0.450000 0.999934 0.434791
-0.025000 -0.025000 0.050000 0.000066 0.000066
0.025000 -0.025000 0.050000 0.999934 0.000066
0.025000 0.025000 0.450000 0.429688 0.542969
0.025000 -0.025000 0.050000 0.296875 0.000000
0.025000 0.025000 0.050000 0.429688 0.000000
-0.025000 0.025000 -0.450000 0.074219 0.269531
-0.025000 -0.025000 -0.050000 0.167969 1.000000
-0.025000 0.025000 -0.050000 0.074219 1.000000
-0.025000 0.025000 -0.050000 0.000066 0.000066
0.025000 0.025000 -0.450000 0.999934 0.434791
-0.025000 0.025000 -0.450000 0.000066 0.434791
0.025000 -0.025000 -0.050000 0.999934 0.434793
-0.025000 -0.025000 -0.450000 0.000066 0.000068
0.025000 -0.025000 -0.450000 0.999934 0.000066
0.025000 0.025000 -0.050000 0.320312 0.000000
0.025000 -0.025000 -0.450000 0.441406 0.796875
0.025000 0.025000 -0.450000 0.320312 0.796875
0.050000 0.500000 -0.500000 0.050781 1.000000
-0.050000 -0.500000 -0.500000 0.175781 0.000000
-0.050000 0.500000 -0.500000 0.175781 1.000000
0.050000 0.500000 -0.500000 0.910156 0.000000
-0.025000 0.500000 -0.460000 0.871094 0.750000
0.025000 0.500000 -0.460000 0.863281 0.601562
0.050000 0.500000 -0.450000 0.113281 1.000000
0.050000 -0.500000 -0.500000 0.175781 0.000000
0.050000 0.500000 -0.500000 0.175781 1.000000
-0.013684 -0.500000 -0.460000 0.867188 0.472656
-0.025000 -0.500000 -0.460000 0.832031 0.484375
-0.050000 -0.500000 -0.500000 0.789062 0.484375
-0.050000 -0.500000 -0.450000 0.171875 0.000000
-0.050000 0.500000 -0.500000 0.109375 1.000000
-0.050000 -0.500000 -0.500000 0.109375 0.000000
-0.025000 0.025000 -0.450000 0.078125 0.562500
-0.025000 0.475000 -0.450000 0.082031 0.968750
-0.050000 0.500000 -0.450000 0.050781 1.000000
0.050000 -0.500000 -0.450000 0.175781 0.253906
0.025000 -0.025000 -0.450000 0.140625 0.500000
0.025000 -0.475000 -0.450000 0.148438 0.035156
0.025000 -0.025000 0.450000 0.082031 0.488281
0.025000 0.025000 0.450000 0.082031 0.535156
0.050000 0.500000 0.450000 0.050781 1.000000
-0.025000 0.025000 0.450000 0.144531 0.535156
-0.025000 -0.025000 0.450000 0.144531 0.488281
-0.050000 0.500000 0.450000 0.171875 1.000000
0.050000 0.500000 0.450000 0.929688 0.007812
-0.050000 0.500000 0.450000 0.867188 1.000000
0.025000 0.500000 0.453571 0.867188 0.597656
0.050000 0.500000 0.500000 0.839844 0.000000
0.025000 0.500000 0.460000 0.863281 0.250000
0.013750 0.500000 0.460000 0.871094 0.363281
0.050000 0.500000 0.500000 0.050781 1.000000
0.050000 -0.500000 0.450000 0.113281 0.000000
0.050000 0.500000 0.450000 0.113281 1.000000
-0.025000 -0.500000 0.460000 0.933594 0.753906
0.025000 -0.500000 0.450000 0.937500 0.386719
0.050000 -0.500000 0.500000 0.968750 0.019531
0.025000 -0.500000 0.450000 0.000000 0.000000
0.008421 -0.500000 0.460000 1.000000 1.000000
-0.050000 -0.500000 0.500000 0.109375 0.000000
-0.050000 0.500000 0.450000 0.050781 1.000000
-0.050000 -0.500000 0.450000 0.050781 0.000000
0.050000 0.500000 0.500000 0.175781 1.000000
-0.050000 -0.500000 0.500000 0.050781 0.000000
0.050000 -0.500000 0.500000 0.175781 0.000000
-0.025000 -0.500000 0.450000 1.000000 0.000000
0.025000 -0.025000 -0.050000 0.089844 0.488281
0.025000 0.025000 -0.050000 0.089844 0.535156
0.050000 0.500000 -0.050000 0.050781 1.000000
-0.025000 0.025000 -0.050000 0.140625 0.535156
-0.025000 -0.025000 -0.050000 0.140625 0.488281
-0.050000 0.500000 -0.050000 0.175781 1.000000
0.050000 0.500000 -0.050000 0.968750 0.000000
-0.050000 0.500000 -0.050000 0.968750 1.000000
0.025000 0.500000 -0.041667 0.867188 0.250000
0.050000 0.500000 0.050000 0.050781 1.000000
0.050000 -0.500000 -0.050000 0.175781 0.000000
0.050000 0.500000 -0.050000 0.175781 1.000000
0.025000 -0.500000 -0.050000 0.878906 0.250000
0.050000 -0.500000 0.050000 0.933594 0.000000
-0.012500 -0.500000 0.050000 0.933594 0.625000
-0.025000 -0.500000 0.050000 0.933594 0.750000
-0.050000 -0.500000 -0.050000 0.878906 1.000000
-0.025000 -0.500000 -0.050000 0.878906 0.750000
-0.050000 -0.500000 -0.050000 0.050781 -0.000000
-0.050000 0.500000 0.050000 0.171875 1.000000
-0.050000 0.500000 -0.050000 0.050781 1.000000
-0.025000 0.025000 0.050000 0.082031 0.500000
0.025000 0.025000 0.050000 0.144531 0.500000
-0.025000 0.475000 0.050000 0.074219 0.976562
0.050000 -0.500000 0.050000 0.175781 0.000000
0.025000 -0.025000 0.050000 0.144531 0.457031
0.025000 -0.475000 0.050000 0.148438 0.023438
-0.025000 -0.500000 -0.050000 1.000000 0.000000
0.025000 -0.500000 -0.050000 0.000000 0.000000
-0.012500 -0.500000 0.050000 0.975528 0.654508
-0.025000 -0.475000 0.050000 0.024472 0.654509
-0.025000 0.500000 0.008333 0.957031 0.167969
-0.025000 0.475000 0.050000 0.863281 -0.000000
-0.025000 0.500000 0.450000 0.800781 0.000000
-0.025000 0.475000 0.450000 0.000066 0.434791
0.025000 0.500000 -0.041667 0.773438 0.531250
0.025000 0.500000 0.450000 0.777344 0.000000
-0.025000 0.500000 -0.460000 0.972656 0.316406
-0.025000 0.475000 -0.450000 0.789062 1.000000
-0.025000 0.500000 -0.050000 0.816406 0.000000
-0.025000 0.475000 -0.050000 0.000066 0.434791
0.025000 0.500000 -0.460000 0.070312 0.429688
0.025000 0.500000 -0.050000 0.070312 0.000000
-0.025000 -0.500000 0.450000 0.824219 0.000000
-0.025000 -0.475000 0.450000 0.910156 0.000000
-0.025000 -0.475000 0.050000 0.910156 0.515625
-0.025000 -0.500000 0.050000 0.839844 0.515625
-0.025000 -0.500000 0.460000 0.824219 0.832031
-0.025000 -0.475000 -0.050000 0.910156 0.515625
-0.025000 -0.475000 -0.450000 0.910156 1.000000
0.025000 -0.500000 0.050000 0.820312 0.328125
0.025000 -0.500000 0.460000 0.937500 0.351562
-0.025000 -0.500000 -0.460000 0.789062 0.882812
-0.025000 -0.500000 -0.460000 0.800781 1.000000
-0.013684 -0.500000 -0.460000 0.800781 0.773438
0.025000 -0.500000 -0.450000 0.812500 0.000000
0.025000 -0.475000 0.450000 0.999934 0.000066
0.025000 -0.475000 -0.050000 0.999934 0.000066
0.025000 -0.500000 -0.450000 0.500000 1.000000
0.025000 -0.475000 -0.050000 0.793893 0.095491
0.025000 -0.500000 -0.050000 0.789062 0.691406
0.025000 -0.475000 0.450000 1.000000 1.000000
0.025000 -0.500000 0.460000 0.546875 0.722656
0.025000 -0.475000 0.050000 0.648438 0.441406
-0.025000 -0.500000 0.460000 0.024472 0.654509
0.025000 -0.500000 0.460000 0.975528 0.654508
0.025000 -0.475000 0.050000 1.000000 1.000000
0.025000 -0.475000 0.460000 1.000000 1.000000
-0.025000 -0.475000 0.450000 1.000000 1.000000
-0.025000 -0.500000 -0.050000 1.000000 1.000000
-0.025000 -0.025000 0.050000 0.074219 1.000000
0.025000 0.025000 0.450000 0.999934 0.000066
-0.025000 -0.025000 0.450000 0.000066 0.434791
0.025000 -0.025000 0.450000 0.296875 0.542969
-0.025000 -0.025000 -0.450000 0.167969 0.269531
0.025000 0.025000 -0.050000 0.999934 0.000066
-0.025000 -0.025000 -0.050000 0.000066 0.434793
0.025000 -0.025000 -0.050000 0.441406 0.000000
0.050000 -0.500000 -0.500000 0.050781 -0.000000
0.025000 0.500000 -0.450000 0.847656 0.601562
0.050000 0.500000 -0.450000 0.882812 0.000000
-0.050000 0.500000 -0.500000 0.910156 1.000000
-0.050000 0.500000 -0.450000 0.882812 1.000000
-0.025000 0.500000 -0.450000 0.882812 0.750000
0.050000 -0.500000 -0.450000 0.113281 0.000000
0.050000 -0.500000 -0.500000 0.839844 0.371094
0.050000 -0.500000 -0.450000 0.851562 0.371094
-0.012500 -0.500000 -0.450000 0.863281 0.429688
-0.025000 -0.500000 -0.450000 0.828125 0.523438
-0.050000 -0.500000 -0.450000 0.800781 0.507812
-0.050000 0.500000 -0.450000 0.171875 1.000000
-0.050000 -0.500000 -0.450000 0.046875 0.000000
-0.025000 -0.025000 -0.450000 0.078125 0.500000
-0.025000 -0.500000 -0.450000 0.074219 0.000000
-0.025000 -0.475000 -0.450000 0.074219 0.035156
-0.025000 0.500000 -0.450000 0.082031 1.000000
0.025000 0.025000 -0.450000 0.140625 0.562500
0.025000 0.475000 -0.450000 0.140625 0.968750
0.050000 0.500000 -0.450000 0.175781 1.000000
0.025000 0.500000 -0.450000 0.140625 1.000000
0.025000 -0.500000 -0.450000 0.148438 0.000000
-0.012500 -0.500000 -0.450000 0.175781 0.000000
0.050000 -0.500000 0.450000 0.050781 0.000000
0.025000 -0.500000 0.450000 0.085938 0.000000
0.025000 -0.475000 0.450000 0.085938 0.035156
-0.025000 -0.475000 0.450000 0.144531 0.035156
0.025000 0.475000 0.450000 0.078125 0.968750
0.025000 0.500000 0.450000 0.078125 1.000000
-0.025000 0.475000 0.450000 0.144531 0.968750
-0.025000 0.500000 0.450000 0.144531 1.000000
-0.025000 -0.500000 0.450000 0.144531 0.000000
-0.050000 -0.500000 0.450000 0.171875 0.000000
0.013750 0.500000 0.460000 0.871094 0.742188
0.025000 0.500000 0.460000 0.871094 0.597656
0.050000 0.500000 0.500000 0.867188 -0.000000
-0.050000 0.500000 0.500000 0.839844 1.000000
0.050000 -0.500000 0.500000 0.050781 -0.000000
0.050000 -0.500000 0.450000 0.941406 0.019531
-0.050000 -0.500000 0.500000 0.968750 1.000000
-0.050000 -0.500000 0.450000 0.941406 1.000000
-0.025000 -0.500000 0.450000 0.941406 0.753906
-0.025000 -0.500000 0.460000 1.000000 0.000000
-0.050000 0.500000 0.500000 0.109375 1.000000
-0.050000 0.500000 0.500000 0.050781 1.000000
0.050000 -0.500000 -0.050000 0.050781 0.000000
0.025000 -0.500000 -0.050000 0.082031 -0.000000
0.025000 -0.475000 -0.050000 0.082031 0.035156
-0.025000 -0.475000 -0.050000 0.140625 0.035156
0.025000 0.475000 -0.050000 0.089844 0.968750
0.025000 0.500000 -0.050000 0.089844 1.000000
-0.025000 0.475000 -0.050000 0.140625 0.968750
-0.025000 0.500000 -0.050000 0.140625 1.000000
-0.025000 -0.500000 -0.050000 0.140625 0.000000
-0.050000 -0.500000 -0.050000 0.175781 0.000000
0.025000 0.500000 0.050000 0.820312 0.230469
0.050000 0.500000 0.050000 0.914062 0.000000
-0.050000 0.500000 0.050000 0.914062 1.000000
-0.025000 0.500000 0.008333 0.890625 0.750000
-0.025000 0.500000 0.050000 0.914062 0.750000
0.050000 -0.500000 0.050000 0.050781 0.000000
0.050000 -0.500000 -0.050000 0.878906 0.000000
-0.050000 -0.500000 0.050000 0.933594 1.000000
-0.050000 -0.500000 0.050000 0.171875 0.000000
-0.025000 0.500000 0.050000 0.074219 1.000000
-0.050000 0.500000 0.050000 0.039062 1.000000
-0.050000 -0.500000 0.050000 0.039062 0.000000
-0.025000 -0.500000 0.050000 0.039062 0.000000
-0.025000 -0.475000 0.050000 0.082031 0.000000
-0.025000 -0.025000 0.050000 0.082031 0.000000
0.025000 0.475000 0.050000 0.144531 0.976562
0.050000 0.500000 0.050000 0.175781 1.000000
0.025000 0.025000 0.050000 0.144531 0.507812
0.025000 0.500000 0.050000 0.144531 1.000000
0.025000 0.475000 0.050000 0.144531 0.667969
0.025000 -0.500000 0.050000 0.148438 0.000000
-0.012500 -0.500000 0.050000 0.152344 0.000000
-0.025000 -0.025000 0.050000 0.078125 0.457031
-0.025000 -0.475000 0.050000 0.078125 0.023438
-0.025000 -0.475000 -0.050000 1.000000 1.000000
-0.025000 -0.500000 0.050000 0.500000 1.000000
0.025000 -0.500000 0.050000 0.793893 0.095491
3 0 1 2
3 3 4 5
3 6 7 8
3 9 10 11
3 12 13 14
3 15 16 17
3 18 19 20
3 21 22 23
3 24 25 26
3 27 28 29
3 30 31 32
3 33 34 35
3 36 37 38
3 39 40 41
3 42 43 44
3 45 46 47
3 48 49 50
3 51 52 53
3 54 55 56
3 57 58 59
3 60 61 62
3 60 63 64
3 65 66 67
3 68 69 70
3 71 72 73
3 74 75 76
3 77 78 79
3 80 81 82
3 83 84 85
3 86 87 88
3 89 90 91
3 92 93 94
3 95 96 97
3 98 99 100
3 101 102 103
3 104 105 106
3 107 108 109
3 110 111 112
3 113 114 115
3 116 117 118
3 119 120 121
3 122 123 124
3 125 126 127
3 128 129 130
3 131 132 63
3 133 134 135
3 136 137 138
3 139 61 131
3 140 141 142
3 143 144 145
3 146 147 148
3 149 150 151
3 152 153 154
3 155 156 157
3 158 159 160
3 161 162 163
3 164 165 166
3 167 58 168
3 169 43 170
3 0 171 1
3 1 172 2
3 3 173 4
3 6 174 7
3 11 175 176
3 176 9 11
3 12 177 13
3 13 178 14
3 15 179 16
3 18 180 19
3 23 181 182
3 182 21 23
3 183 184 185
3 183 185 186
3 187 183 186
3 27 188 189
3 187 186 27
3 27 189 28
3 29 187 27
3 190 191 30
3 31 192 32
3 32 190 30
3 35 193 33
3 193 194 33
3 33 195 34
3 36 196 37
3 39 197 40
3 44 198 42
3 42 199 43
3 45 200 46
3 48 201 49
3 53 202 51
3 51 203 52
3 204 55 54
3 55 205 56
3 57 206 58
3 60 207 61
3 60 208 63
3 65 209 66
3 68 210 69
3 71 211 72
3 74 212 75
3 77 213 78
3 80 214 81
3 83 215 84
3 86 216 87
3 89 217 90
3 92 218 93
3 219 220 97
3 220 95 97
3 95 221 96
3 221 222 96
3 222 223 96
3 98 224 99
3 103 225 101
3 225 226 227
3 101 225 227
3 102 228 229
3 102 229 103
3 104 230 105
3 109 231 232
3 231 233 234
3 234 232 231
3 232 107 109
3 108 235 109
3 236 237 108
3 107 236 108
3 110 238 236
3 238 239 237
3 237 236 238
3 236 111 110
3 240 241 110
3 232 234 112
3 112 240 110
3 111 232 112
3 115 242 113
3 242 243 244
3 244 245 117
3 242 244 113
3 246 247 115
3 116 248 246
3 114 116 246
3 244 117 113
3 114 246 115
3 118 115 247
3 249 248 118
3 248 116 118
3 118 247 249
3 250 251 245
3 251 118 117
3 245 251 117
3 120 252 121
3 121 253 119
3 253 254 119
3 124 120 255
3 255 122 124
3 125 256 126
3 257 130 129
3 130 258 128
3 258 259 128
3 259 260 128
3 131 261 132
3 133 262 134
3 136 263 137
3 139 208 61
3 142 264 140
3 264 265 266
3 266 267 144
3 264 266 140
3 268 269 142
3 143 270 268
3 141 143 268
3 266 144 140
3 141 268 142
3 145 142 269
3 271 270 145
3 270 143 145
3 145 269 271
3 272 273 267
3 273 145 144
3 267 273 144
3 274 275 148
3 275 146 148
3 147 276 277
3 276 278 277
3 147 277 148
3 149 279 150
3 155 157 154
3 157 152 154
3 152 280 153
3 155 281 156
3 158 282 159
3 283 284 163
3 284 285 161
3 163 284 161
3 285 286 287
3 287 288 285
3 288 161 285
3 162 289 163
3 164 290 291
3 290 292 293
3 293 291 290
3 291 165 164
3 294 295 164
3 296 297 166
3 166 294 164
3 165 296 166
3 167 298 58
3 170 299 169
3 169 300 43
