ply
format ascii 1.0
comment Created by Blender 2.79 (sub 0) - www.blender.org, source file: ''
element vertex 16
property float x
property float y
property float z
property uchar red
property uchar green
property uchar blue
element face 32
property list uchar uint vertex_indices
end_header
0.500000 0.450000 -0.450000 255 0 0
0.500000 -0.500000 -0.500000 255 0 0
0.500000 0.500000 -0.500000 255 0 0
0.500000 -0.450000 0.450000 255 0 0
0.500000 0.500000 0.500000 255 0 0
0.500000 -0.500000 0.500000 255 0 0
0.300000 -0.500000 0.500000 255 0 0
0.300000 -0.500000 -0.500000 255 0 0
0.300000 0.500000 -0.500000 255 0 0
0.300000 0.500000 0.500000 255 0 0
0.300000 0.450000 0.450000 255 0 0
0.300000 -0.450000 0.450000 255 0 0
0.300000 0.450000 -0.450000 255 0 0
0.300000 -0.450000 -0.450000 255 0 0
0.500000 0.450000 0.450000 255 0 0
0.500000 -0.450000 -0.450000 255 0 0
3 0 1 2
3 3 4 5
3 1 6 7
3 2 7 8
3 4 8 9
3 5 9 6
3 6 10 11
3 12 8 13
3 3 10 14
3 12 14 10
3 15 11 3
3 13 0 12
3 0 15 1
3 2 4 0
3 4 14 0
3 1 15 5
3 15 3 5
3 3 14 4
3 1 5 6
3 2 1 7
3 4 2 8
3 5 4 9
3 11 13 6
3 13 7 6
3 6 9 10
3 12 10 9
3 8 7 13
3 12 9 8
3 3 11 10
3 12 0 14
3 15 13 11
3 13 15 0
