ply
format ascii 1.0
comment Created by Blender 2.91.2 - www.blender.org
element vertex 88
property float x
property float y
property float z
property float s
property float t
element face 48
property list uchar uint vertex_indices
end_header
-0.350000 0.500000 0.150000 0.007812 0.996094
-0.150000 -0.500000 0.150000 0.207031 -0.003906
-0.350000 -0.500000 0.150000 0.007812 -0.003906
-0.150000 0.500000 0.150000 0.007812 0.996094
-0.150000 -0.500000 0.350000 0.207031 -0.003906
-0.150000 -0.500000 0.150000 0.007812 -0.003906
-0.150000 0.500000 0.350000 0.207031 0.996094
-0.350000 -0.500000 0.350000 0.007812 -0.003906
-0.350000 0.500000 0.350000 0.207031 0.996094
-0.350000 -0.500000 0.350000 0.207031 -0.003906
-0.150000 -0.500000 0.350000 0.203125 0.996094
-0.350000 -0.500000 0.150000 0.003906 0.796875
-0.150000 -0.500000 0.150000 0.003906 0.996094
-0.150000 0.500000 0.150000 0.250000 0.750000
-0.350000 0.500000 0.350000 0.449219 0.550781
-0.150000 0.500000 0.350000 0.449219 0.750000
-0.535633 0.350000 0.464923 0.013672 -0.009766
0.464923 0.150000 -0.535633 0.216797 0.994141
-0.535633 0.150000 0.464923 0.220703 -0.009766
0.464923 0.350000 -0.535633 0.041016 0.818359
0.535633 0.150000 -0.464923 0.193359 0.666016
0.464923 0.150000 -0.535633 0.041016 0.666016
0.535633 0.350000 -0.464923 0.013672 0.994141
-0.464923 0.150000 0.535633 0.220703 -0.009766
0.535633 0.150000 -0.464923 0.220703 0.994141
-0.464923 0.350000 0.535633 0.193359 0.818359
-0.535633 0.150000 0.464923 0.041016 0.666016
-0.464923 0.150000 0.535633 0.193359 0.666016
0.535633 0.150000 -0.464923 0.224609 0.994141
-0.535633 0.150000 0.464923 0.009766 0.005859
0.464923 0.150000 -0.535633 0.009766 0.994141
0.464923 0.350000 -0.535633 0.009766 0.994141
-0.464923 0.350000 0.535633 0.224609 0.005859
0.535633 0.350000 -0.464923 0.224609 0.994141
-0.535633 -0.150000 0.464923 0.013672 -0.009766
0.464923 -0.350000 -0.535633 0.220703 0.994141
-0.535633 -0.350000 0.464923 0.220703 -0.009766
0.464923 -0.150000 -0.535633 0.041016 0.443359
0.535633 -0.350000 -0.464923 0.193359 0.291016
0.464923 -0.350000 -0.535633 0.041016 0.291016
0.535633 -0.150000 -0.464923 0.013672 1.001953
-0.464923 -0.350000 0.535633 0.220703 -0.009766
0.535633 -0.350000 -0.464923 0.216797 1.001953
-0.464923 -0.150000 0.535633 0.193359 0.443359
-0.535633 -0.350000 0.464923 0.041016 0.291016
-0.464923 -0.350000 0.535633 0.193359 0.291016
0.535633 -0.350000 -0.464923 0.224609 0.994141
-0.535633 -0.350000 0.464923 0.009766 0.005859
0.464923 -0.350000 -0.535633 0.009766 0.994141
0.464923 -0.150000 -0.535633 0.009766 0.994141
-0.464923 -0.150000 0.535633 0.224609 0.005859
0.535633 -0.150000 -0.464923 0.224609 0.994141
0.150000 0.500000 -0.350000 0.007812 0.996094
0.350000 -0.500000 -0.350000 0.207031 -0.003906
0.150000 -0.500000 -0.350000 0.007812 -0.003906
0.350000 0.500000 -0.350000 0.007812 0.996094
0.350000 -0.500000 -0.150000 0.207031 -0.003906
0.350000 -0.500000 -0.350000 0.007812 -0.003906
0.350000 0.500000 -0.150000 0.207031 0.996094
0.150000 -0.500000 -0.150000 0.007812 -0.003906
0.150000 0.500000 -0.150000 0.207031 0.996094
0.150000 -0.500000 -0.150000 0.207031 -0.003906
0.350000 -0.500000 -0.150000 0.203125 0.996094
0.150000 -0.500000 -0.350000 0.003906 0.796875
0.350000 -0.500000 -0.350000 0.003906 0.996094
0.350000 0.500000 -0.350000 0.250000 0.750000
0.150000 0.500000 -0.150000 0.449219 0.550781
0.350000 0.500000 -0.150000 0.449219 0.750000
-0.150000 0.500000 0.150000 0.207031 0.996094
-0.350000 0.500000 0.350000 0.007812 0.996094
-0.350000 -0.500000 0.350000 0.203125 0.796875
-0.350000 0.500000 0.150000 0.250000 0.550781
0.464923 0.350000 -0.535633 0.013672 0.994141
0.535633 0.350000 -0.464923 0.193359 0.818359
-0.464923 0.350000 0.535633 0.013672 -0.009766
-0.535633 0.350000 0.464923 0.041016 0.818359
-0.464923 0.150000 0.535633 0.224609 0.005859
-0.535633 0.350000 0.464923 0.009766 0.005859
0.464923 -0.150000 -0.535633 0.013672 0.994141
0.535633 -0.150000 -0.464923 0.193359 0.443359
-0.464923 -0.150000 0.535633 0.017578 -0.009766
-0.535633 -0.150000 0.464923 0.041016 0.443359
-0.464923 -0.350000 0.535633 0.224609 0.005859
-0.535633 -0.150000 0.464923 0.009766 0.005859
0.350000 0.500000 -0.350000 0.207031 0.996094
0.150000 0.500000 -0.150000 0.007812 0.996094
0.150000 -0.500000 -0.150000 0.203125 0.796875
0.150000 0.500000 -0.350000 0.250000 0.550781
3 0 1 2
3 3 4 5
3 6 7 4
3 8 2 9
3 10 11 12
3 13 14 15
3 16 17 18
3 19 20 21
3 22 23 24
3 25 26 27
3 28 29 30
3 31 32 33
3 34 35 36
3 37 38 39
3 40 41 42
3 43 44 45
3 46 47 48
3 49 50 51
3 52 53 54
3 55 56 57
3 58 59 56
3 60 54 61
3 62 63 64
3 65 66 67
3 0 68 1
3 3 6 4
3 6 69 7
3 8 0 2
3 10 70 11
3 13 71 14
3 16 72 17
3 19 73 20
3 22 74 23
3 25 75 26
3 28 76 29
3 31 77 32
3 34 78 35
3 37 79 38
3 40 80 41
3 43 81 44
3 46 82 47
3 49 83 50
3 52 84 53
3 55 58 56
3 58 85 59
3 60 52 54
3 62 86 63
3 65 87 66
