ply
format ascii 1.0
comment Created by Blender 2.91.2 - www.blender.org
element vertex 68
property float x
property float y
property float z
property float s
property float t
element face 36
property list uchar uint vertex_indices
end_header
-0.100000 0.500000 -0.100000 0.007812 0.996094
0.100000 -0.500000 -0.100000 0.207031 -0.003906
-0.100000 -0.500000 -0.100000 0.007812 -0.003906
0.100000 0.500000 -0.100000 0.007812 0.996094
0.100000 -0.500000 0.100000 0.207031 -0.003906
0.100000 -0.500000 -0.100000 0.007812 -0.003906
0.100000 0.500000 0.100000 0.207031 0.996094
-0.100000 -0.500000 0.100000 0.007812 -0.003906
-0.100000 0.500000 0.100000 0.207031 0.996094
-0.100000 -0.500000 0.100000 0.207031 -0.003906
0.100000 -0.500000 0.100000 0.203125 0.996094
-0.100000 -0.500000 -0.100000 0.003906 0.796875
0.100000 -0.500000 -0.100000 0.003906 0.996094
0.100000 0.500000 -0.100000 0.250000 0.750000
-0.100000 0.500000 0.100000 0.449219 0.550781
0.100000 0.500000 0.100000 0.449219 0.750000
-0.500000 0.350000 -0.050000 0.013672 -0.009766
0.500000 0.150000 -0.050000 0.216797 0.994141
-0.500000 0.150000 -0.050000 0.220703 -0.009766
0.500000 0.350000 -0.050000 0.041016 0.818359
0.500000 0.150000 0.050000 0.193359 0.666016
0.500000 0.150000 -0.050000 0.041016 0.666016
0.500000 0.350000 0.050000 0.013672 0.994141
-0.500000 0.150000 0.050000 0.220703 -0.009766
0.500000 0.150000 0.050000 0.220703 0.994141
-0.500000 0.350000 0.050000 0.193359 0.818359
-0.500000 0.150000 -0.050000 0.041016 0.666016
-0.500000 0.150000 0.050000 0.193359 0.666016
0.500000 0.150000 0.050000 0.224609 0.994141
-0.500000 0.150000 -0.050000 0.009766 0.005859
0.500000 0.150000 -0.050000 0.009766 0.994141
0.500000 0.350000 -0.050000 0.009766 0.994141
-0.500000 0.350000 0.050000 0.224609 0.005859
0.500000 0.350000 0.050000 0.224609 0.994141
-0.500000 -0.150000 -0.050000 0.013672 -0.009766
0.500000 -0.350000 -0.050000 0.220703 0.994141
-0.500000 -0.350000 -0.050000 0.220703 -0.009766
0.500000 -0.150000 -0.050000 0.041016 0.443359
0.500000 -0.350000 0.050000 0.193359 0.291016
0.500000 -0.350000 -0.050000 0.041016 0.291016
0.500000 -0.150000 0.050000 0.013672 1.001953
-0.500000 -0.350000 0.050000 0.220703 -0.009766
0.500000 -0.350000 0.050000 0.216797 1.001953
-0.500000 -0.150000 0.050000 0.193359 0.443359
-0.500000 -0.350000 -0.050000 0.041016 0.291016
-0.500000 -0.350000 0.050000 0.193359 0.291016
0.500000 -0.350000 0.050000 0.224609 0.994141
-0.500000 -0.350000 -0.050000 0.009766 0.005859
0.500000 -0.350000 -0.050000 0.009766 0.994141
0.500000 -0.150000 -0.050000 0.009766 0.994141
-0.500000 -0.150000 0.050000 0.224609 0.005859
0.500000 -0.150000 0.050000 0.224609 0.994141
0.100000 0.500000 -0.100000 0.207031 0.996094
-0.100000 0.500000 0.100000 0.007812 0.996094
-0.100000 -0.500000 0.100000 0.203125 0.796875
-0.100000 0.500000 -0.100000 0.250000 0.550781
0.500000 0.350000 -0.050000 0.013672 0.994141
0.500000 0.350000 0.050000 0.193359 0.818359
-0.500000 0.350000 0.050000 0.013672 -0.009766
-0.500000 0.350000 -0.050000 0.041016 0.818359
-0.500000 0.150000 0.050000 0.224609 0.005859
-0.500000 0.350000 -0.050000 0.009766 0.005859
0.500000 -0.150000 -0.050000 0.013672 0.994141
0.500000 -0.150000 0.050000 0.193359 0.443359
-0.500000 -0.150000 0.050000 0.017578 -0.009766
-0.500000 -0.150000 -0.050000 0.041016 0.443359
-0.500000 -0.350000 0.050000 0.224609 0.005859
-0.500000 -0.150000 -0.050000 0.009766 0.005859
3 0 1 2
3 3 4 5
3 6 7 4
3 8 2 9
3 10 11 12
3 13 14 15
3 16 17 18
3 19 20 21
3 22 23 24
3 25 26 27
3 28 29 30
3 31 32 33
3 34 35 36
3 37 38 39
3 40 41 42
3 43 44 45
3 46 47 48
3 49 50 51
3 0 52 1
3 3 6 4
3 6 53 7
3 8 0 2
3 10 54 11
3 13 55 14
3 16 56 17
3 19 57 20
3 22 58 23
3 25 59 26
3 28 60 29
3 31 61 32
3 34 62 35
3 37 63 38
3 40 64 41
3 43 65 44
3 46 66 47
3 49 67 50
