ply
format ascii 1.0
comment Created by Blender 2.91.2 - www.blender.org
element vertex 116
property float x
property float y
property float z
property float s
property float t
element face 60
property list uchar uint vertex_indices
end_header
-0.100000 0.500000 -0.100000 0.007812 0.996094
0.100000 -0.500000 -0.100000 0.207031 -0.003906
-0.100000 -0.500000 -0.100000 0.007812 -0.003906
0.100000 0.500000 -0.100000 0.007812 0.996094
0.100000 -0.500000 0.100000 0.207031 -0.003906
0.100000 -0.500000 -0.100000 0.007812 -0.003906
0.100000 0.500000 0.100000 0.207031 0.996094
-0.100000 -0.500000 0.100000 0.007812 -0.003906
-0.100000 0.500000 0.100000 0.207031 0.996094
-0.100000 -0.500000 0.100000 0.207031 -0.003906
0.100000 -0.500000 0.100000 0.203125 0.996094
-0.100000 -0.500000 -0.100000 0.003906 0.796875
0.100000 -0.500000 -0.100000 0.003906 0.996094
0.100000 0.500000 -0.100000 0.250000 0.750000
-0.100000 0.500000 0.100000 0.449219 0.550781
0.100000 0.500000 0.100000 0.449219 0.750000
-0.500000 0.350000 -0.050000 0.013672 -0.009766
0.500000 0.150000 -0.050000 0.216797 0.994141
-0.500000 0.150000 -0.050000 0.220703 -0.009766
0.500000 0.350000 -0.050000 0.041016 0.818359
0.500000 0.150000 0.050000 0.193359 0.666016
0.500000 0.150000 -0.050000 0.041016 0.666016
0.500000 0.350000 0.050000 0.013672 0.994141
-0.500000 0.150000 0.050000 0.220703 -0.009766
0.500000 0.150000 0.050000 0.220703 0.994141
-0.500000 0.350000 0.050000 0.193359 0.818359
-0.500000 0.150000 -0.050000 0.041016 0.666016
-0.500000 0.150000 0.050000 0.193359 0.666016
0.500000 0.150000 0.050000 0.224609 0.994141
-0.500000 0.150000 -0.050000 0.009766 0.005859
0.500000 0.150000 -0.050000 0.009766 0.994141
0.500000 0.350000 -0.050000 0.009766 0.994141
-0.500000 0.350000 0.050000 0.224609 0.005859
0.500000 0.350000 0.050000 0.224609 0.994141
-0.500000 -0.150000 -0.050000 0.013672 -0.009766
0.500000 -0.350000 -0.050000 0.220703 0.994141
-0.500000 -0.350000 -0.050000 0.220703 -0.009766
0.500000 -0.150000 -0.050000 0.041016 0.443359
0.500000 -0.350000 0.050000 0.193359 0.291016
0.500000 -0.350000 -0.050000 0.041016 0.291016
0.500000 -0.150000 0.050000 0.013672 1.001953
-0.500000 -0.350000 0.050000 0.220703 -0.009766
0.500000 -0.350000 0.050000 0.216797 1.001953
-0.500000 -0.150000 0.050000 0.193359 0.443359
-0.500000 -0.350000 -0.050000 0.041016 0.291016
-0.500000 -0.350000 0.050000 0.193359 0.291016
0.500000 -0.350000 0.050000 0.224609 0.994141
-0.500000 -0.350000 -0.050000 0.009766 0.005859
0.500000 -0.350000 -0.050000 0.009766 0.994141
0.500000 -0.150000 -0.050000 0.009766 0.994141
-0.500000 -0.150000 0.050000 0.224609 0.005859
0.500000 -0.150000 0.050000 0.224609 0.994141
-0.050000 0.350000 0.500000 0.013672 -0.009766
-0.050000 0.150000 0.000000 0.216797 0.994141
-0.050000 0.150000 0.500000 0.220703 -0.009766
-0.050000 0.350000 0.000000 0.041016 0.818359
0.050000 0.150000 0.000000 0.193359 0.666016
-0.050000 0.150000 0.000000 0.041016 0.666016
0.050000 0.350000 0.000000 0.013672 0.994141
0.050000 0.150000 0.500000 0.220703 -0.009766
0.050000 0.150000 0.000000 0.220703 0.994141
0.050000 0.350000 0.500000 0.193359 0.818359
-0.050000 0.150000 0.500000 0.041016 0.666016
0.050000 0.150000 0.500000 0.193359 0.666016
0.050000 0.150000 0.000000 0.224609 0.994141
-0.050000 0.150000 0.500000 0.009766 0.005859
-0.050000 0.150000 0.000000 0.009766 0.994141
-0.050000 0.350000 0.000000 0.009766 0.994141
0.050000 0.350000 0.500000 0.224609 0.005859
0.050000 0.350000 0.000000 0.224609 0.994141
-0.050000 -0.150000 0.500000 0.013672 -0.009766
-0.050000 -0.350000 0.000000 0.220703 0.994141
-0.050000 -0.350000 0.500000 0.220703 -0.009766
-0.050000 -0.150000 0.000000 0.041016 0.443359
0.050000 -0.350000 0.000000 0.193359 0.291016
-0.050000 -0.350000 0.000000 0.041016 0.291016
0.050000 -0.150000 0.000000 0.013672 1.001953
0.050000 -0.350000 0.500000 0.220703 -0.009766
0.050000 -0.350000 0.000000 0.216797 1.001953
0.050000 -0.150000 0.500000 0.193359 0.443359
-0.050000 -0.350000 0.500000 0.041016 0.291016
0.050000 -0.350000 0.500000 0.193359 0.291016
0.050000 -0.350000 0.000000 0.224609 0.994141
-0.050000 -0.350000 0.500000 0.009766 0.005859
-0.050000 -0.350000 0.000000 0.009766 0.994141
-0.050000 -0.150000 0.000000 0.009766 0.994141
0.050000 -0.150000 0.500000 0.224609 0.005859
0.050000 -0.150000 0.000000 0.224609 0.994141
0.100000 0.500000 -0.100000 0.207031 0.996094
-0.100000 0.500000 0.100000 0.007812 0.996094
-0.100000 -0.500000 0.100000 0.203125 0.796875
-0.100000 0.500000 -0.100000 0.250000 0.550781
0.500000 0.350000 -0.050000 0.013672 0.994141
0.500000 0.350000 0.050000 0.193359 0.818359
-0.500000 0.350000 0.050000 0.013672 -0.009766
-0.500000 0.350000 -0.050000 0.041016 0.818359
-0.500000 0.150000 0.050000 0.224609 0.005859
-0.500000 0.350000 -0.050000 0.009766 0.005859
0.500000 -0.150000 -0.050000 0.013672 0.994141
0.500000 -0.150000 0.050000 0.193359 0.443359
-0.500000 -0.150000 0.050000 0.017578 -0.009766
-0.500000 -0.150000 -0.050000 0.041016 0.443359
-0.500000 -0.350000 0.050000 0.224609 0.005859
-0.500000 -0.150000 -0.050000 0.009766 0.005859
-0.050000 0.350000 0.000000 0.013672 0.994141
0.050000 0.350000 0.000000 0.193359 0.818359
0.050000 0.350000 0.500000 0.013672 -0.009766
-0.050000 0.350000 0.500000 0.041016 0.818359
0.050000 0.150000 0.500000 0.224609 0.005859
-0.050000 0.350000 0.500000 0.009766 0.005859
-0.050000 -0.150000 0.000000 0.013672 0.994141
0.050000 -0.150000 0.000000 0.193359 0.443359
0.050000 -0.150000 0.500000 0.017578 -0.009766
-0.050000 -0.150000 0.500000 0.041016 0.443359
0.050000 -0.350000 0.500000 0.224609 0.005859
-0.050000 -0.150000 0.500000 0.009766 0.005859
3 0 1 2
3 3 4 5
3 6 7 4
3 8 2 9
3 10 11 12
3 13 14 15
3 16 17 18
3 19 20 21
3 22 23 24
3 25 26 27
3 28 29 30
3 31 32 33
3 34 35 36
3 37 38 39
3 40 41 42
3 43 44 45
3 46 47 48
3 49 50 51
3 52 53 54
3 55 56 57
3 58 59 60
3 61 62 63
3 64 65 66
3 67 68 69
3 70 71 72
3 73 74 75
3 76 77 78
3 79 80 81
3 82 83 84
3 85 86 87
3 0 88 1
3 3 6 4
3 6 89 7
3 8 0 2
3 10 90 11
3 13 91 14
3 16 92 17
3 19 93 20
3 22 94 23
3 25 95 26
3 28 96 29
3 31 97 32
3 34 98 35
3 37 99 38
3 40 100 41
3 43 101 44
3 46 102 47
3 49 103 50
3 52 104 53
3 55 105 56
3 58 106 59
3 61 107 62
3 64 108 65
3 67 109 68
3 70 110 71
3 73 111 74
3 76 112 77
3 79 113 80
3 82 114 83
3 85 115 86
