ply
format ascii 1.0
comment Created by Blender 2.91.2 - www.blender.org
element vertex 48
property float x
property float y
property float z
property float s
property float t
element face 24
property list uchar uint vertex_indices
end_header
-0.464923 0.350000 -0.535633 0.013672 -0.009766
0.535633 0.150000 0.464923 0.216797 0.994141
-0.464923 0.150000 -0.535633 0.220703 -0.009766
0.535633 0.350000 0.464923 0.041016 0.818359
0.464923 0.150000 0.535633 0.193359 0.666016
0.535633 0.150000 0.464923 0.041016 0.666016
0.464923 0.350000 0.535633 0.013672 0.994141
-0.535633 0.150000 -0.464923 0.220703 -0.009766
0.464923 0.150000 0.535633 0.220703 0.994141
-0.535633 0.350000 -0.464923 0.193359 0.818359
-0.464923 0.150000 -0.535633 0.041016 0.666016
-0.535633 0.150000 -0.464923 0.193359 0.666016
0.464923 0.150000 0.535633 0.224609 0.994141
-0.464923 0.150000 -0.535633 0.009766 0.005859
0.535633 0.150000 0.464923 0.009766 0.994141
0.535633 0.350000 0.464923 0.009766 0.994141
-0.535633 0.350000 -0.464923 0.224609 0.005859
0.464923 0.350000 0.535633 0.224609 0.994141
-0.464923 -0.150000 -0.535633 0.013672 -0.009766
0.535633 -0.350000 0.464923 0.220703 0.994141
-0.464923 -0.350000 -0.535633 0.220703 -0.009766
0.535633 -0.150000 0.464923 0.041016 0.443359
0.464923 -0.350000 0.535633 0.193359 0.291016
0.535633 -0.350000 0.464923 0.041016 0.291016
0.464923 -0.150000 0.535633 0.013672 1.001953
-0.535633 -0.350000 -0.464923 0.220703 -0.009766
0.464923 -0.350000 0.535633 0.216797 1.001953
-0.535633 -0.150000 -0.464923 0.193359 0.443359
-0.464923 -0.350000 -0.535633 0.041016 0.291016
-0.535633 -0.350000 -0.464923 0.193359 0.291016
0.464923 -0.350000 0.535633 0.224609 0.994141
-0.464923 -0.350000 -0.535633 0.009766 0.005859
0.535633 -0.350000 0.464923 0.009766 0.994141
0.535633 -0.150000 0.464923 0.009766 0.994141
-0.535633 -0.150000 -0.464923 0.224609 0.005859
0.464923 -0.150000 0.535633 0.224609 0.994141
0.535633 0.350000 0.464923 0.013672 0.994141
0.464923 0.350000 0.535633 0.193359 0.818359
-0.535633 0.350000 -0.464923 0.013672 -0.009766
-0.464923 0.350000 -0.535633 0.041016 0.818359
-0.535633 0.150000 -0.464923 0.224609 0.005859
-0.464923 0.350000 -0.535633 0.009766 0.005859
0.535633 -0.150000 0.464923 0.013672 0.994141
0.464923 -0.150000 0.535633 0.193359 0.443359
-0.535633 -0.150000 -0.464923 0.017578 -0.009766
-0.464923 -0.150000 -0.535633 0.041016 0.443359
-0.535633 -0.350000 -0.464923 0.224609 0.005859
-0.464923 -0.150000 -0.535633 0.009766 0.005859
3 0 1 2
3 3 4 5
3 6 7 8
3 9 10 11
3 12 13 14
3 15 16 17
3 18 19 20
3 21 22 23
3 24 25 26
3 27 28 29
3 30 31 32
3 33 34 35
3 0 36 1
3 3 37 4
3 6 38 7
3 9 39 10
3 12 40 13
3 15 41 16
3 18 42 19
3 21 43 22
3 24 44 25
3 27 45 28
3 30 46 31
3 33 47 34
