ply
format ascii 1.0
comment Created by Blender 2.91.2 - www.blender.org
element vertex 68
property float x
property float y
property float z
property float s
property float t
element face 36
property list uchar uint vertex_indices
end_header
-0.500000 0.350000 -0.050000 0.013672 -0.009766
0.000000 0.150000 -0.050000 0.216797 0.994141
-0.500000 0.150000 -0.050000 0.220703 -0.009766
0.000000 0.350000 -0.050000 0.041016 0.818359
0.000000 0.150000 0.050000 0.193359 0.666016
0.000000 0.150000 -0.050000 0.041016 0.666016
0.000000 0.350000 0.050000 0.013672 0.994141
-0.500000 0.150000 0.050000 0.220703 -0.009766
0.000000 0.150000 0.050000 0.220703 0.994141
-0.500000 0.350000 0.050000 0.193359 0.818359
-0.500000 0.150000 -0.050000 0.041016 0.666016
-0.500000 0.150000 0.050000 0.193359 0.666016
0.000000 0.150000 0.050000 0.224609 0.994141
-0.500000 0.150000 -0.050000 0.009766 0.005859
0.000000 0.150000 -0.050000 0.009766 0.994141
0.000000 0.350000 -0.050000 0.009766 0.994141
-0.500000 0.350000 0.050000 0.224609 0.005859
0.000000 0.350000 0.050000 0.224609 0.994141
-0.500000 -0.150000 -0.050000 0.013672 -0.009766
0.000000 -0.350000 -0.050000 0.220703 0.994141
-0.500000 -0.350000 -0.050000 0.220703 -0.009766
0.000000 -0.150000 -0.050000 0.041016 0.443359
0.000000 -0.350000 0.050000 0.193359 0.291016
0.000000 -0.350000 -0.050000 0.041016 0.291016
0.000000 -0.150000 0.050000 0.013672 1.001953
-0.500000 -0.350000 0.050000 0.220703 -0.009766
0.000000 -0.350000 0.050000 0.216797 1.001953
-0.500000 -0.150000 0.050000 0.193359 0.443359
-0.500000 -0.350000 -0.050000 0.041016 0.291016
-0.500000 -0.350000 0.050000 0.193359 0.291016
0.000000 -0.350000 0.050000 0.224609 0.994141
-0.500000 -0.350000 -0.050000 0.009766 0.005859
0.000000 -0.350000 -0.050000 0.009766 0.994141
0.000000 -0.150000 -0.050000 0.009766 0.994141
-0.500000 -0.150000 0.050000 0.224609 0.005859
0.000000 -0.150000 0.050000 0.224609 0.994141
0.100000 0.500000 -0.100000 0.007812 0.996094
0.100000 -0.500000 0.100000 0.207031 -0.003906
0.100000 -0.500000 -0.100000 0.007812 -0.003906
0.100000 0.500000 0.100000 0.007812 0.996094
-0.100000 -0.500000 0.100000 0.207031 -0.003906
0.100000 -0.500000 0.100000 0.007812 -0.003906
-0.100000 0.500000 0.100000 0.207031 0.996094
-0.100000 -0.500000 -0.100000 0.007812 -0.003906
-0.100000 0.500000 -0.100000 0.207031 0.996094
-0.100000 -0.500000 -0.100000 0.207031 -0.003906
-0.100000 -0.500000 0.100000 0.203125 0.996094
0.100000 -0.500000 -0.100000 0.003906 0.796875
0.100000 -0.500000 0.100000 0.003906 0.996094
-0.100000 0.500000 0.100000 0.449219 0.750000
0.100000 0.500000 -0.100000 0.250000 0.550781
-0.100000 0.500000 -0.100000 0.449219 0.550781
0.000000 0.350000 -0.050000 0.013672 0.994141
0.000000 0.350000 0.050000 0.193359 0.818359
-0.500000 0.350000 0.050000 0.013672 -0.009766
-0.500000 0.350000 -0.050000 0.041016 0.818359
-0.500000 0.150000 0.050000 0.224609 0.005859
-0.500000 0.350000 -0.050000 0.009766 0.005859
0.000000 -0.150000 -0.050000 0.013672 0.994141
0.000000 -0.150000 0.050000 0.193359 0.443359
-0.500000 -0.150000 0.050000 0.017578 -0.009766
-0.500000 -0.150000 -0.050000 0.041016 0.443359
-0.500000 -0.350000 0.050000 0.224609 0.005859
-0.500000 -0.150000 -0.050000 0.009766 0.005859
0.100000 0.500000 0.100000 0.207031 0.996094
-0.100000 0.500000 -0.100000 0.007812 0.996094
-0.100000 -0.500000 -0.100000 0.203125 0.796875
0.100000 0.500000 0.100000 0.250000 0.750000
3 0 1 2
3 3 4 5
3 6 7 8
3 9 10 11
3 12 13 14
3 15 16 17
3 18 19 20
3 21 22 23
3 24 25 26
3 27 28 29
3 30 31 32
3 33 34 35
3 36 37 38
3 39 40 41
3 42 43 40
3 44 38 45
3 46 47 48
3 49 50 51
3 0 52 1
3 3 53 4
3 6 54 7
3 9 55 10
3 12 56 13
3 15 57 16
3 18 58 19
3 21 59 22
3 24 60 25
3 27 61 28
3 30 62 31
3 33 63 34
3 36 64 37
3 39 42 40
3 42 65 43
3 44 36 38
3 46 66 47
3 49 67 50
