ply
format ascii 1.0
comment Created by Blender 2.91.2 - www.blender.org
element vertex 164
property float x
property float y
property float z
property float s
property float t
element face 84
property list uchar uint vertex_indices
end_header
-0.100000 0.500000 -0.100000 0.007812 0.996094
0.100000 -0.500000 -0.100000 0.207031 -0.003906
-0.100000 -0.500000 -0.100000 0.007812 -0.003906
0.100000 0.500000 -0.100000 0.007812 0.996094
0.100000 -0.500000 0.100000 0.207031 -0.003906
0.100000 -0.500000 -0.100000 0.007812 -0.003906
0.100000 0.500000 0.100000 0.207031 0.996094
-0.100000 -0.500000 0.100000 0.007812 -0.003906
-0.100000 0.500000 0.100000 0.207031 0.996094
-0.100000 -0.500000 0.100000 0.207031 -0.003906
0.100000 -0.500000 0.100000 0.203125 0.996094
-0.100000 -0.500000 -0.100000 0.003906 0.796875
0.100000 -0.500000 -0.100000 0.003906 0.996094
0.100000 0.500000 -0.100000 0.250000 0.750000
-0.100000 0.500000 0.100000 0.449219 0.550781
0.100000 0.500000 0.100000 0.449219 0.750000
-0.535494 0.350000 0.464784 0.013672 -0.009766
-0.035216 0.150000 -0.035494 0.216797 0.994141
-0.535494 0.150000 0.464784 0.220703 -0.009766
-0.035216 0.350000 -0.035494 0.041016 0.818359
0.035494 0.150000 0.035216 0.193359 0.666016
-0.035216 0.150000 -0.035494 0.041016 0.666016
0.035494 0.350000 0.035216 0.013672 0.994141
-0.464784 0.150000 0.535494 0.220703 -0.009766
0.035494 0.150000 0.035216 0.220703 0.994141
-0.464784 0.350000 0.535494 0.193359 0.818359
-0.535494 0.150000 0.464784 0.041016 0.666016
-0.464784 0.150000 0.535494 0.193359 0.666016
0.035494 0.150000 0.035216 0.224609 0.994141
-0.535494 0.150000 0.464784 0.009766 0.005859
-0.035216 0.150000 -0.035494 0.009766 0.994141
-0.035216 0.350000 -0.035494 0.009766 0.994141
-0.464784 0.350000 0.535494 0.224609 0.005859
0.035494 0.350000 0.035216 0.224609 0.994141
-0.535494 -0.150000 0.464784 0.013672 -0.009766
-0.035216 -0.350000 -0.035494 0.220703 0.994141
-0.535494 -0.350000 0.464784 0.220703 -0.009766
-0.035216 -0.150000 -0.035494 0.041016 0.443359
0.035494 -0.350000 0.035216 0.193359 0.291016
-0.035216 -0.350000 -0.035494 0.041016 0.291016
0.035494 -0.150000 0.035216 0.013672 1.001953
-0.464784 -0.350000 0.535494 0.220703 -0.009766
0.035494 -0.350000 0.035216 0.216797 1.001953
-0.464784 -0.150000 0.535494 0.193359 0.443359
-0.535494 -0.350000 0.464784 0.041016 0.291016
-0.464784 -0.350000 0.535494 0.193359 0.291016
0.035494 -0.350000 0.035216 0.224609 0.994141
-0.535494 -0.350000 0.464784 0.009766 0.005859
-0.035216 -0.350000 -0.035494 0.009766 0.994141
-0.035216 -0.150000 -0.035494 0.009766 0.994141
-0.464784 -0.150000 0.535494 0.224609 0.005859
0.035494 -0.150000 0.035216 0.224609 0.994141
-0.050000 0.350000 -0.000000 0.013672 -0.009766
-0.050000 0.150000 -0.500000 0.216797 0.994141
-0.050000 0.150000 -0.000000 0.220703 -0.009766
-0.050000 0.350000 -0.500000 0.041016 0.818359
0.050000 0.150000 -0.500000 0.193359 0.666016
-0.050000 0.150000 -0.500000 0.041016 0.666016
0.050000 0.350000 -0.500000 0.013672 0.994141
0.050000 0.150000 -0.000000 0.220703 -0.009766
0.050000 0.150000 -0.500000 0.220703 0.994141
0.050000 0.350000 -0.000000 0.193359 0.818359
-0.050000 0.150000 -0.000000 0.041016 0.666016
0.050000 0.150000 -0.000000 0.193359 0.666016
0.050000 0.150000 -0.500000 0.224609 0.994141
-0.050000 0.150000 -0.000000 0.009766 0.005859
-0.050000 0.150000 -0.500000 0.009766 0.994141
-0.050000 0.350000 -0.500000 0.009766 0.994141
0.050000 0.350000 -0.000000 0.224609 0.005859
0.050000 0.350000 -0.500000 0.224609 0.994141
-0.050000 -0.150000 -0.000000 0.013672 -0.009766
-0.050000 -0.350000 -0.500000 0.220703 0.994141
-0.050000 -0.350000 -0.000000 0.220703 -0.009766
-0.050000 -0.150000 -0.500000 0.041016 0.443359
0.050000 -0.350000 -0.500000 0.193359 0.291016
-0.050000 -0.350000 -0.500000 0.041016 0.291016
0.050000 -0.150000 -0.500000 0.013672 1.001953
0.050000 -0.350000 -0.000000 0.220703 -0.009766
0.050000 -0.350000 -0.500000 0.216797 1.001953
0.050000 -0.150000 -0.000000 0.193359 0.443359
-0.050000 -0.350000 -0.000000 0.041016 0.291016
0.050000 -0.350000 -0.000000 0.193359 0.291016
0.050000 -0.350000 -0.500000 0.224609 0.994141
-0.050000 -0.350000 -0.000000 0.009766 0.005859
-0.050000 -0.350000 -0.500000 0.009766 0.994141
-0.050000 -0.150000 -0.500000 0.009766 0.994141
0.050000 -0.150000 -0.000000 0.224609 0.005859
0.050000 -0.150000 -0.500000 0.224609 0.994141
0.464784 0.350000 0.535494 0.013672 -0.009766
-0.035494 0.150000 0.035216 0.216797 0.994141
0.464784 0.150000 0.535494 0.220703 -0.009766
-0.035494 0.350000 0.035216 0.041016 0.818359
0.035216 0.150000 -0.035494 0.193359 0.666016
-0.035494 0.150000 0.035216 0.041016 0.666016
0.035216 0.350000 -0.035494 0.013672 0.994141
0.535494 0.150000 0.464784 0.220703 -0.009766
0.035216 0.150000 -0.035494 0.220703 0.994141
0.535494 0.350000 0.464784 0.193359 0.818359
0.464784 0.150000 0.535494 0.041016 0.666016
0.535494 0.150000 0.464784 0.193359 0.666016
0.035216 0.150000 -0.035494 0.224609 0.994141
0.464784 0.150000 0.535494 0.009766 0.005859
-0.035494 0.150000 0.035216 0.009766 0.994141
-0.035494 0.350000 0.035216 0.009766 0.994141
0.535494 0.350000 0.464784 0.224609 0.005859
0.035216 0.350000 -0.035494 0.224609 0.994141
0.464784 -0.150000 0.535494 0.013672 -0.009766
-0.035494 -0.350000 0.035216 0.220703 0.994141
0.464784 -0.350000 0.535494 0.220703 -0.009766
-0.035494 -0.150000 0.035216 0.041016 0.443359
0.035216 -0.350000 -0.035494 0.193359 0.291016
-0.035494 -0.350000 0.035216 0.041016 0.291016
0.035216 -0.150000 -0.035494 0.013672 1.001953
0.535494 -0.350000 0.464784 0.220703 -0.009766
0.035216 -0.350000 -0.035494 0.216797 1.001953
0.535494 -0.150000 0.464784 0.193359 0.443359
0.464784 -0.350000 0.535494 0.041016 0.291016
0.535494 -0.350000 0.464784 0.193359 0.291016
0.035216 -0.350000 -0.035494 0.224609 0.994141
0.464784 -0.350000 0.535494 0.009766 0.005859
-0.035494 -0.350000 0.035216 0.009766 0.994141
-0.035494 -0.150000 0.035216 0.009766 0.994141
0.535494 -0.150000 0.464784 0.224609 0.005859
0.035216 -0.150000 -0.035494 0.224609 0.994141
0.100000 0.500000 -0.100000 0.207031 0.996094
-0.100000 0.500000 0.100000 0.007812 0.996094
-0.100000 -0.500000 0.100000 0.203125 0.796875
-0.100000 0.500000 -0.100000 0.250000 0.550781
-0.035216 0.350000 -0.035494 0.013672 0.994141
0.035494 0.350000 0.035216 0.193359 0.818359
-0.464784 0.350000 0.535494 0.013672 -0.009766
-0.535494 0.350000 0.464784 0.041016 0.818359
-0.464784 0.150000 0.535494 0.224609 0.005859
-0.535494 0.350000 0.464784 0.009766 0.005859
-0.035216 -0.150000 -0.035494 0.013672 0.994141
0.035494 -0.150000 0.035216 0.193359 0.443359
-0.464784 -0.150000 0.535494 0.017578 -0.009766
-0.535494 -0.150000 0.464784 0.041016 0.443359
-0.464784 -0.350000 0.535494 0.224609 0.005859
-0.535494 -0.150000 0.464784 0.009766 0.005859
-0.050000 0.350000 -0.500000 0.013672 0.994141
0.050000 0.350000 -0.500000 0.193359 0.818359
0.050000 0.350000 -0.000000 0.013672 -0.009766
-0.050000 0.350000 -0.000000 0.041016 0.818359
0.050000 0.150000 -0.000000 0.224609 0.005859
-0.050000 0.350000 -0.000000 0.009766 0.005859
-0.050000 -0.150000 -0.500000 0.013672 0.994141
0.050000 -0.150000 -0.500000 0.193359 0.443359
0.050000 -0.150000 -0.000000 0.017578 -0.009766
-0.050000 -0.150000 -0.000000 0.041016 0.443359
0.050000 -0.350000 -0.000000 0.224609 0.005859
-0.050000 -0.150000 -0.000000 0.009766 0.005859
-0.035494 0.350000 0.035216 0.013672 0.994141
0.035216 0.350000 -0.035494 0.193359 0.818359
0.535494 0.350000 0.464784 0.013672 -0.009766
0.464784 0.350000 0.535494 0.041016 0.818359
0.535494 0.150000 0.464784 0.224609 0.005859
0.464784 0.350000 0.535494 0.009766 0.005859
-0.035494 -0.150000 0.035216 0.013672 0.994141
0.035216 -0.150000 -0.035494 0.193359 0.443359
0.535494 -0.150000 0.464784 0.017578 -0.009766
0.464784 -0.150000 0.535494 0.041016 0.443359
0.535494 -0.350000 0.464784 0.224609 0.005859
0.464784 -0.150000 0.535494 0.009766 0.005859
3 0 1 2
3 3 4 5
3 6 7 4
3 8 2 9
3 10 11 12
3 13 14 15
3 16 17 18
3 19 20 21
3 22 23 24
3 25 26 27
3 28 29 30
3 31 32 33
3 34 35 36
3 37 38 39
3 40 41 42
3 43 44 45
3 46 47 48
3 49 50 51
3 52 53 54
3 55 56 57
3 58 59 60
3 61 62 63
3 64 65 66
3 67 68 69
3 70 71 72
3 73 74 75
3 76 77 78
3 79 80 81
3 82 83 84
3 85 86 87
3 88 89 90
3 91 92 93
3 94 95 96
3 97 98 99
3 100 101 102
3 103 104 105
3 106 107 108
3 109 110 111
3 112 113 114
3 115 116 117
3 118 119 120
3 121 122 123
3 0 124 1
3 3 6 4
3 6 125 7
3 8 0 2
3 10 126 11
3 13 127 14
3 16 128 17
3 19 129 20
3 22 130 23
3 25 131 26
3 28 132 29
3 31 133 32
3 34 134 35
3 37 135 38
3 40 136 41
3 43 137 44
3 46 138 47
3 49 139 50
3 52 140 53
3 55 141 56
3 58 142 59
3 61 143 62
3 64 144 65
3 67 145 68
3 70 146 71
3 73 147 74
3 76 148 77
3 79 149 80
3 82 150 83
3 85 151 86
3 88 152 89
3 91 153 92
3 94 154 95
3 97 155 98
3 100 156 101
3 103 157 104
3 106 158 107
3 109 159 110
3 112 160 113
3 115 161 116
3 118 162 119
3 121 163 122
