ply
format ascii 1.0
comment Created by Blender 2.79 (sub 0) - www.blender.org, source file: 'door.blend'
element vertex 170
property float x
property float y
property float z
property uchar red
property uchar green
property uchar blue
element face 304
property list uchar uint vertex_indices
end_header
0.500000 1.500000 0.000000 0 255 0
0.500000 -0.500000 -0.250000 0 255 0
0.500000 1.500000 -0.250000 0 255 0
0.500000 1.500000 0.250000 0 255 0
0.500000 -0.500000 0.000000 0 255 0
0.410000 1.414286 0.250000 0 255 0
0.500000 -0.500000 0.250000 0 255 0
0.410000 1.414286 0.230769 0 255 0
0.410000 -0.500000 0.250000 0 255 0
0.400000 1.404762 0.230769 0 255 0
0.410000 -0.500000 0.230769 11 255 11
0.400000 1.404762 -0.250000 0 255 0
0.400000 -0.500000 0.230769 0 255 0
0.400000 -0.500000 -0.250000 0 255 0
-0.500000 1.500000 0.000000 0 255 0
-0.500000 1.500000 -0.250000 0 255 0
-0.500000 1.500000 0.250000 0 255 0
-0.410000 1.414286 0.250000 0 255 0
-0.410000 1.414286 0.230769 0 255 0
-0.400000 1.404762 0.230769 0 255 0
-0.400000 1.404762 -0.250000 0 255 0
-0.500000 -0.500000 0.000000 0 255 0
-0.500000 -0.500000 -0.250000 0 255 0
-0.500000 -0.500000 0.250000 0 255 0
-0.410000 -0.500000 0.230769 0 255 0
-0.410000 -0.500000 0.250000 0 255 0
-0.400000 -0.500000 -0.250000 0 255 0
-0.400000 -0.500000 0.230769 0 255 0
0.410000 -0.500000 0.230769 0 255 0
0.400000 -0.500000 0.230769 9 255 9
0.405000 1.409524 -0.038462 255 0 0
0.255000 -0.357143 -0.038462 255 0 0
0.255000 1.266667 -0.038462 255 0 0
0.405000 1.409524 0.000000 255 0 0
0.405000 -0.500000 -0.038462 255 0 0
0.255000 1.266667 0.000000 255 0 0
0.405000 -0.500000 0.000000 255 0 0
-0.405000 1.409524 -0.038462 255 0 0
-0.255000 1.266667 -0.038462 255 0 0
-0.405000 1.409524 0.000000 255 0 0
-0.405000 -0.500000 -0.038462 255 0 0
-0.255000 -0.357143 -0.038462 255 0 0
-0.405000 -0.500000 0.000000 255 0 0
-0.255000 -0.357143 0.000000 255 0 0
0.255000 -0.357143 0.000000 255 0 0
-0.255000 1.266667 0.000000 255 0 0
-0.354000 0.430000 0.003846 192 192 192
-0.350000 0.368095 0.005769 192 192 192
-0.354000 0.430000 0.005769 192 192 192
-0.320000 0.352857 0.000000 192 192 192
-0.320000 0.368095 0.003846 192 192 192
-0.320000 0.352857 0.003846 192 192 192
-0.317000 0.430000 0.005769 192 192 192
-0.317000 0.430000 0.003846 192 192 192
-0.320000 0.368095 0.005769 192 192 192
-0.320000 0.352857 0.005769 192 192 192
-0.350000 0.352857 0.003846 192 192 192
-0.317000 0.430000 0.000000 192 192 192
-0.317000 0.487143 0.003846 192 192 192
-0.317000 0.487143 0.005769 192 192 192
-0.350000 0.496667 0.005769 192 192 192
-0.354000 0.487143 0.005769 192 192 192
-0.343000 0.448095 0.080769 192 192 192
-0.343000 0.461429 0.078846 192 192 192
-0.343000 0.448095 0.078846 192 192 192
-0.328000 0.448095 0.003846 192 192 192
-0.343000 0.448095 0.003846 192 192 192
-0.343000 0.461429 0.003846 192 192 192
-0.328000 0.461429 0.003846 192 192 192
-0.310000 0.443333 0.092308 192 192 192
-0.328000 0.470000 0.090385 192 192 192
-0.328000 0.439524 0.090385 192 192 192
-0.343000 0.461429 0.080769 192 192 192
-0.328000 0.461429 0.078846 192 192 192
-0.328000 0.461429 0.080769 192 192 192
-0.328000 0.448095 0.078846 192 192 192
-0.328000 0.448095 0.080769 192 192 192
-0.343000 0.437619 0.092308 192 192 192
-0.228000 0.467143 0.092308 192 192 192
-0.310000 0.467143 0.078846 192 192 192
-0.310000 0.467143 0.092308 192 192 192
-0.310000 0.443333 0.078846 192 192 192
-0.350000 0.368095 0.000000 192 192 192
-0.350000 0.368095 0.003846 192 192 192
-0.350000 0.352857 0.000000 192 192 192
-0.320000 0.496667 0.000000 192 192 192
-0.317000 0.487143 0.000000 192 192 192
-0.354000 0.487143 0.000000 192 192 192
-0.354000 0.487143 0.003846 192 192 192
-0.354000 0.430000 0.000000 192 192 192
-0.215000 0.467143 0.092308 192 192 192
-0.228000 0.467143 0.078846 192 192 192
-0.228000 0.443333 0.078846 192 192 192
-0.228000 0.443333 0.092308 192 192 192
-0.215000 0.443333 0.078846 192 192 192
-0.215000 0.467143 0.078846 192 192 192
-0.215000 0.443333 0.092308 192 192 192
-0.328000 0.448095 0.009615 192 192 192
-0.328000 0.461429 0.009615 192 192 192
-0.343000 0.461429 0.009615 192 192 192
-0.343000 0.448095 0.009615 192 192 192
-0.320000 0.368095 0.000000 192 192 192
-0.350000 0.352857 0.005769 192 192 192
-0.320000 0.496667 0.003846 192 192 192
-0.350000 0.496667 0.003846 192 192 192
-0.350000 0.368095 -0.042308 192 192 192
-0.354000 0.430000 -0.044231 192 192 192
-0.350000 0.368095 -0.044231 192 192 192
-0.320000 0.368095 -0.038462 192 192 192
-0.320000 0.352857 -0.042308 192 192 192
-0.320000 0.368095 -0.042308 192 192 192
-0.320000 0.368095 -0.044231 192 192 192
-0.317000 0.430000 -0.042308 192 192 192
-0.317000 0.430000 -0.044231 192 192 192
-0.350000 0.352857 -0.044231 192 192 192
-0.350000 0.352857 -0.042308 192 192 192
-0.317000 0.487143 -0.038462 192 192 192
-0.317000 0.487143 -0.042308 192 192 192
-0.350000 0.496667 -0.044231 192 192 192
-0.317000 0.487143 -0.044231 192 192 192
-0.354000 0.487143 -0.044231 192 192 192
-0.354000 0.487143 -0.042308 192 192 192
-0.354000 0.430000 -0.042308 192 192 192
-0.343000 0.461429 -0.119231 192 192 192
-0.343000 0.448095 -0.117308 192 192 192
-0.343000 0.461429 -0.117308 192 192 192
-0.343000 0.448095 -0.042308 192 192 192
-0.328000 0.448095 -0.042308 192 192 192
-0.328000 0.461429 -0.042308 192 192 192
-0.343000 0.461429 -0.042308 192 192 192
-0.328000 0.470000 -0.128846 192 192 192
-0.310000 0.443333 -0.130769 192 192 192
-0.328000 0.439524 -0.128846 192 192 192
-0.328000 0.461429 -0.119231 192 192 192
-0.328000 0.461429 -0.117308 192 192 192
-0.328000 0.448095 -0.119231 192 192 192
-0.328000 0.448095 -0.117308 192 192 192
-0.343000 0.448095 -0.119231 192 192 192
-0.343000 0.471905 -0.130769 192 192 192
-0.343000 0.437619 -0.130769 192 192 192
-0.228000 0.467143 -0.117308 192 192 192
-0.310000 0.467143 -0.130769 192 192 192
-0.310000 0.467143 -0.117308 192 192 192
-0.310000 0.443333 -0.117308 192 192 192
-0.320000 0.352857 -0.044231 192 192 192
-0.350000 0.352857 -0.038462 192 192 192
-0.320000 0.352857 -0.038462 192 192 192
-0.320000 0.496667 -0.042308 192 192 192
-0.354000 0.430000 -0.038462 192 192 192
-0.350000 0.368095 -0.038462 192 192 192
-0.215000 0.467143 -0.117308 192 192 192
-0.228000 0.467143 -0.130769 192 192 192
-0.228000 0.443333 -0.117308 192 192 192
-0.228000 0.443333 -0.130769 192 192 192
-0.215000 0.443333 -0.130769 192 192 192
-0.215000 0.443333 -0.117308 192 192 192
-0.215000 0.467143 -0.130769 192 192 192
-0.343000 0.448095 -0.048077 192 192 192
-0.328000 0.448095 -0.048077 192 192 192
-0.328000 0.461429 -0.048077 192 192 192
-0.343000 0.461429 -0.048077 192 192 192
-0.317000 0.430000 -0.038462 192 192 192
-0.320000 0.496667 -0.044231 192 192 192
-0.350000 0.496667 -0.042308 192 192 192
-0.350000 0.496667 -0.038462 192 192 192
-0.354000 0.487143 -0.038462 192 192 192
-0.320000 0.496667 0.005769 192 192 192
-0.343000 0.471905 0.092308 192 192 192
-0.350000 0.496667 0.000000 192 192 192
-0.320000 0.496667 -0.038462 192 192 192
3 0 1 2
3 3 4 0
3 5 6 3
3 7 8 5
3 9 10 7
3 11 12 9
3 11 1 13
3 14 2 15
3 16 0 14
3 17 3 16
3 18 5 17
3 19 7 18
3 20 9 19
3 15 11 20
3 21 15 22
3 23 14 21
3 23 17 16
3 24 17 25
3 24 19 18
3 26 19 27
3 22 20 26
3 12 13 4
3 24 23 21
3 0 4 1
3 3 6 4
3 5 8 6
3 7 28 8
3 9 29 10
3 11 13 12
3 11 2 1
3 14 0 2
3 16 3 0
3 17 5 3
3 18 7 5
3 19 9 7
3 20 11 9
3 15 2 11
3 21 14 15
3 23 16 14
3 23 25 17
3 24 18 17
3 24 27 19
3 26 20 19
3 22 15 20
3 13 1 4
3 4 6 28
3 6 8 28
3 28 12 4
3 22 26 21
3 26 27 21
3 24 25 23
3 27 24 21
3 30 31 32
3 33 34 30
3 35 36 33
3 37 32 38
3 39 30 37
3 39 35 33
3 40 38 41
3 42 37 40
3 43 39 42
3 31 40 41
3 36 40 34
3 44 42 36
3 35 43 44
3 38 31 41
3 30 34 31
3 33 36 34
3 35 44 36
3 37 30 32
3 39 33 30
3 39 45 35
3 40 37 38
3 42 39 37
3 43 45 39
3 31 34 40
3 36 42 40
3 44 43 42
3 35 45 43
3 38 32 31
3 46 47 48
3 49 50 51
3 52 50 53
3 52 47 54
3 55 56 51
3 57 58 53
3 59 60 61
3 58 52 53
3 61 46 48
3 62 63 64
3 48 65 66
3 59 67 68
3 52 68 65
3 67 48 66
3 69 70 71
3 72 73 63
3 74 75 73
3 76 64 75
3 70 77 71
3 71 62 76
3 77 72 62
3 72 70 74
3 78 79 80
3 74 81 76
3 81 71 76
3 70 79 74
3 47 55 54
3 82 56 83
3 84 51 56
3 85 58 86
3 87 46 88
3 89 83 46
3 90 91 78
3 91 81 79
3 92 69 81
3 93 80 69
3 90 94 95
3 95 92 91
3 94 93 92
3 96 78 93
3 97 66 65
3 98 65 68
3 99 68 67
3 100 67 66
3 75 100 97
3 73 97 98
3 63 98 99
3 64 99 100
3 54 51 50
3 101 53 50
3 83 102 47
3 60 103 104
3 85 104 103
3 104 87 88
3 103 59 58
3 60 88 61
3 105 106 107
3 108 109 110
3 111 112 110
3 107 113 111
3 114 109 115
3 116 112 117
3 118 119 120
3 119 112 113
3 121 106 122
3 123 124 125
3 113 126 127
3 120 128 129
3 128 113 127
3 106 129 126
3 130 131 132
3 133 125 134
3 135 134 136
3 137 136 124
3 138 132 139
3 137 132 135
3 138 137 123
3 130 123 133
3 140 141 142
3 143 133 135
3 132 143 135
3 142 130 133
3 114 111 144
3 145 105 115
3 146 115 109
3 147 116 117
3 148 121 122
3 149 122 105
3 150 151 140
3 152 142 143
3 153 143 131
3 151 131 141
3 154 150 155
3 155 140 152
3 154 152 153
3 156 153 151
3 157 127 126
3 158 128 127
3 159 129 128
3 160 126 129
3 124 158 157
3 136 159 158
3 134 160 159
3 125 157 160
3 144 110 109
3 161 110 112
3 115 107 114
3 162 163 147
3 164 147 163
3 164 121 165
3 162 117 119
3 163 120 121
3 46 83 47
3 49 101 50
3 52 54 50
3 52 48 47
3 55 102 56
3 57 86 58
3 59 166 60
3 58 59 52
3 61 88 46
3 62 72 63
3 48 52 65
3 59 61 67
3 52 59 68
3 67 61 48
3 69 80 70
3 72 74 73
3 74 76 75
3 76 62 64
3 70 167 77
3 71 77 62
3 77 167 72
3 72 167 70
3 78 91 79
3 74 79 81
3 81 69 71
3 70 80 79
3 47 102 55
3 82 84 56
3 84 49 51
3 85 103 58
3 87 89 46
3 89 82 83
3 90 95 91
3 91 92 81
3 92 93 69
3 93 78 80
3 90 96 94
3 95 94 92
3 94 96 93
3 96 90 78
3 97 100 66
3 98 97 65
3 99 98 68
3 100 99 67
3 75 64 100
3 73 75 97
3 63 73 98
3 64 63 99
3 54 55 51
3 101 57 53
3 83 56 102
3 60 166 103
3 85 168 104
3 104 168 87
3 103 166 59
3 60 104 88
3 105 122 106
3 108 146 109
3 111 113 112
3 107 106 113
3 114 144 109
3 116 161 112
3 118 162 119
3 119 117 112
3 121 120 106
3 123 137 124
3 113 106 126
3 120 119 128
3 128 119 113
3 106 120 129
3 130 141 131
3 133 123 125
3 135 133 134
3 137 135 136
3 138 130 132
3 137 139 132
3 138 139 137
3 130 138 123
3 140 151 141
3 143 142 133
3 132 131 143
3 142 141 130
3 114 107 111
3 145 149 105
3 146 145 115
3 147 169 116
3 148 165 121
3 149 148 122
3 150 156 151
3 152 140 142
3 153 152 143
3 151 153 131
3 154 156 150
3 155 150 140
3 154 155 152
3 156 154 153
3 157 158 127
3 158 159 128
3 159 160 129
3 160 157 126
3 124 136 158
3 136 134 159
3 134 125 160
3 125 124 157
3 144 111 110
3 161 108 110
3 115 105 107
3 162 118 163
3 164 169 147
3 164 163 121
3 162 147 117
3 163 118 120
