ply
format ascii 1.0
comment Created by Blender 2.79 (sub 0) - www.blender.org, source file: 'door.blend'
element vertex 200
property float x
property float y
property float z
property float s
property float t
property uchar red
property uchar green
property uchar blue
element face 304
property list uchar uint vertex_indices
end_header
0.405000 1.500000 0.000000 0.130000 2.000000 0 255 0
0.405000 -0.500000 -0.250000 0.000000 0.000000 0 255 0
0.405000 1.500000 -0.250000 0.000000 2.000000 0 255 0
0.405000 1.500000 0.250000 0.260000 2.000000 0 255 0
0.405000 -0.500000 0.000000 0.130000 0.000000 0 255 0
0.315000 1.414286 0.250000 0.350000 2.000000 0 255 0
0.405000 -0.500000 0.250000 0.260000 0.000000 0 255 0
0.315000 1.414286 0.230769 0.360000 2.000000 0 255 0
0.315000 -0.500000 0.250000 0.350000 0.000000 0 255 0
0.305000 1.404762 0.230769 0.370000 2.000000 0 255 0
0.315000 -0.500000 0.230769 0.360000 0.000000 11 255 11
0.305000 1.404762 -0.250000 0.620000 2.000000 0 255 0
0.305000 -0.500000 0.230769 0.370000 0.000000 0 255 0
0.405000 -0.500000 -0.250000 0.720000 0.000000 0 255 0
0.305000 -0.500000 -0.250000 0.620000 0.000000 0 255 0
-0.595000 1.500000 0.000000 0.130000 2.800000 0 255 0
-0.595000 1.500000 -0.250000 0.000000 2.800000 0 255 0
-0.595000 1.500000 0.250000 0.260000 2.800000 0 255 0
-0.505000 1.414286 0.250000 0.350000 2.800000 0 255 0
-0.505000 1.414286 0.230769 0.360000 2.800000 0 255 0
-0.495000 1.404762 0.230769 0.370000 2.800000 0 255 0
-0.495000 1.404762 -0.250000 0.620000 2.800000 0 255 0
-0.595000 1.500000 -0.250000 0.720000 2.800000 0 255 0
-0.595000 -0.500000 0.000000 0.130000 4.800000 0 255 0
-0.595000 -0.500000 -0.250000 0.000000 4.800000 0 255 0
-0.595000 -0.500000 0.250000 0.260000 4.800000 0 255 0
-0.505000 -0.500000 0.230769 0.360000 4.800000 0 255 0
-0.505000 -0.500000 0.250000 0.350000 4.800000 0 255 0
-0.495000 -0.500000 -0.250000 0.620000 4.800000 0 255 0
-0.495000 -0.500000 0.230769 0.370000 4.800000 0 255 0
-0.595000 -0.500000 -0.250000 0.720000 4.800000 0 255 0
0.305000 -0.500000 0.230769 0.000000 0.120000 0 255 0
0.305000 -0.500000 -0.250000 0.000000 -0.130000 0 255 0
0.405000 -0.500000 0.000000 -0.100000 0.000000 0 255 0
-0.505000 -0.500000 0.230769 -0.010000 0.120000 0 255 0
-0.595000 -0.500000 0.250000 -0.100000 0.130000 0 255 0
-0.595000 -0.500000 0.000000 -0.100000 0.000000 0 255 0
0.315000 -0.500000 0.230769 0.360000 0.000000 0 255 0
0.305000 -0.500000 0.230769 0.370000 0.000000 9 255 9
0.405000 1.500000 -0.250000 0.720000 2.000000 0 255 0
0.405000 -0.500000 -0.250000 -0.100000 -0.130000 0 255 0
0.405000 -0.500000 0.250000 -0.100000 0.130000 0 255 0
0.315000 -0.500000 0.230769 -0.010000 0.120000 0 255 0
0.315000 -0.500000 0.250000 -0.010000 0.130000 0 255 0
-0.595000 -0.500000 -0.250000 -0.100000 -0.130000 0 255 0
-0.495000 -0.500000 -0.250000 0.000000 -0.130000 0 255 0
-0.495000 -0.500000 0.230769 0.000000 0.120000 0 255 0
-0.505000 -0.500000 0.250000 -0.010000 0.130000 0 255 0
0.310000 1.409524 -0.038462 0.150000 2.005000 255 0 0
0.160000 -0.357143 -0.038462 0.000000 0.000000 255 0 0
0.160000 1.266667 -0.038462 0.000000 2.005000 255 0 0
0.310000 1.409524 0.000000 0.170000 2.005000 255 0 0
0.310000 -0.500000 -0.038462 0.150000 0.000000 255 0 0
0.160000 1.266667 0.000000 0.320000 2.005000 255 0 0
0.310000 -0.500000 0.000000 0.170000 0.000000 255 0 0
-0.500000 1.409524 -0.038462 0.150000 2.815000 255 0 0
-0.350000 1.266667 -0.038462 0.000000 2.815000 255 0 0
-0.500000 1.409524 0.000000 0.170000 2.815000 255 0 0
-0.500000 -0.500000 -0.038462 0.150000 4.820000 255 0 0
-0.350000 -0.357143 -0.038462 0.000000 4.820000 255 0 0
-0.500000 -0.500000 0.000000 0.170000 4.820000 255 0 0
-0.350000 -0.357143 0.000000 0.320000 4.820000 255 0 0
0.160000 -0.357143 -0.038462 0.000000 5.630000 255 0 0
0.310000 -0.500000 0.000000 0.170000 5.630000 255 0 0
0.310000 -0.500000 -0.038462 0.150000 5.630000 255 0 0
0.160000 -0.357143 0.000000 0.320000 5.630000 255 0 0
0.160000 1.266667 0.000000 0.200000 1.805000 255 0 0
-0.350000 -0.357143 0.000000 0.610000 0.200000 255 0 0
0.160000 -0.357143 0.000000 0.200000 0.200000 255 0 0
-0.350000 1.266667 -0.038462 0.610000 1.805000 255 0 0
0.160000 -0.357143 -0.038462 0.200000 0.200000 255 0 0
-0.350000 -0.357143 -0.038462 0.610000 0.200000 255 0 0
0.160000 -0.357143 0.000000 0.320000 0.000000 255 0 0
-0.350000 1.266667 0.000000 0.320000 2.815000 255 0 0
-0.350000 1.266667 0.000000 0.610000 1.805000 255 0 0
0.160000 1.266667 -0.038462 0.200000 1.805000 255 0 0
-0.449000 0.430000 0.003846 0.000000 0.000000 192 192 192
-0.445000 0.368095 0.005769 0.000000 0.000000 192 192 192
-0.449000 0.430000 0.005769 0.000000 0.000000 192 192 192
-0.415000 0.352857 0.000000 0.000000 0.000000 192 192 192
-0.415000 0.368095 0.003846 0.000000 0.000000 192 192 192
-0.415000 0.352857 0.003846 0.000000 0.000000 192 192 192
-0.412000 0.430000 0.005769 0.000000 0.000000 192 192 192
-0.412000 0.430000 0.003846 0.000000 0.000000 192 192 192
-0.415000 0.368095 0.005769 0.000000 0.000000 192 192 192
-0.415000 0.352857 0.005769 0.000000 0.000000 192 192 192
-0.445000 0.352857 0.003846 0.000000 0.000000 192 192 192
-0.412000 0.430000 0.000000 0.000000 0.000000 192 192 192
-0.412000 0.487143 0.003846 0.000000 0.000000 192 192 192
-0.412000 0.487143 0.005769 0.000000 0.000000 192 192 192
-0.445000 0.496667 0.005769 0.000000 0.000000 192 192 192
-0.449000 0.487143 0.005769 0.000000 0.000000 192 192 192
-0.438000 0.448095 0.080769 0.000000 0.000000 192 192 192
-0.438000 0.461429 0.078846 0.000000 0.000000 192 192 192
-0.438000 0.448095 0.078846 0.000000 0.000000 192 192 192
-0.423000 0.448095 0.003846 0.000000 0.000000 192 192 192
-0.438000 0.448095 0.003846 0.000000 0.000000 192 192 192
-0.438000 0.461429 0.003846 0.000000 0.000000 192 192 192
-0.423000 0.461429 0.003846 0.000000 0.000000 192 192 192
-0.405000 0.443333 0.092308 0.000000 0.000000 192 192 192
-0.423000 0.470000 0.090385 0.000000 0.000000 192 192 192
-0.423000 0.439524 0.090385 0.000000 0.000000 192 192 192
-0.438000 0.461429 0.080769 0.000000 0.000000 192 192 192
-0.423000 0.461429 0.078846 0.000000 0.000000 192 192 192
-0.423000 0.461429 0.080769 0.000000 0.000000 192 192 192
-0.423000 0.448095 0.078846 0.000000 0.000000 192 192 192
-0.423000 0.448095 0.080769 0.000000 0.000000 192 192 192
-0.438000 0.437619 0.092308 0.000000 0.000000 192 192 192
-0.323000 0.467143 0.092308 0.000000 0.000000 192 192 192
-0.405000 0.467143 0.078846 0.000000 0.000000 192 192 192
-0.405000 0.467143 0.092308 0.000000 0.000000 192 192 192
-0.405000 0.443333 0.078846 0.000000 0.000000 192 192 192
-0.445000 0.368095 0.000000 0.000000 0.000000 192 192 192
-0.445000 0.368095 0.003846 0.000000 0.000000 192 192 192
-0.445000 0.352857 0.000000 0.000000 0.000000 192 192 192
-0.415000 0.496667 0.000000 0.000000 0.000000 192 192 192
-0.412000 0.487143 0.000000 0.000000 0.000000 192 192 192
-0.449000 0.487143 0.000000 0.000000 0.000000 192 192 192
-0.449000 0.487143 0.003846 0.000000 0.000000 192 192 192
-0.449000 0.430000 0.000000 0.000000 0.000000 192 192 192
-0.310000 0.467143 0.092308 0.000000 0.000000 192 192 192
-0.323000 0.467143 0.078846 0.000000 0.000000 192 192 192
-0.323000 0.443333 0.078846 0.000000 0.000000 192 192 192
-0.323000 0.443333 0.092308 0.000000 0.000000 192 192 192
-0.310000 0.443333 0.078846 0.000000 0.000000 192 192 192
-0.310000 0.467143 0.078846 0.000000 0.000000 192 192 192
-0.310000 0.443333 0.092308 0.000000 0.000000 192 192 192
-0.423000 0.448095 0.009615 0.000000 0.000000 192 192 192
-0.423000 0.461429 0.009615 0.000000 0.000000 192 192 192
-0.438000 0.461429 0.009615 0.000000 0.000000 192 192 192
-0.438000 0.448095 0.009615 0.000000 0.000000 192 192 192
-0.415000 0.368095 0.000000 0.000000 0.000000 192 192 192
-0.445000 0.352857 0.005769 0.000000 0.000000 192 192 192
-0.415000 0.496667 0.003846 0.000000 0.000000 192 192 192
-0.445000 0.496667 0.003846 0.000000 0.000000 192 192 192
-0.445000 0.368095 -0.042308 0.000000 0.000000 192 192 192
-0.449000 0.430000 -0.044231 0.000000 0.000000 192 192 192
-0.445000 0.368095 -0.044231 0.000000 0.000000 192 192 192
-0.415000 0.368095 -0.038462 0.000000 0.000000 192 192 192
-0.415000 0.352857 -0.042308 0.000000 0.000000 192 192 192
-0.415000 0.368095 -0.042308 0.000000 0.000000 192 192 192
-0.415000 0.368095 -0.044231 0.000000 0.000000 192 192 192
-0.412000 0.430000 -0.042308 0.000000 0.000000 192 192 192
-0.412000 0.430000 -0.044231 0.000000 0.000000 192 192 192
-0.445000 0.352857 -0.044231 0.000000 0.000000 192 192 192
-0.445000 0.352857 -0.042308 0.000000 0.000000 192 192 192
-0.412000 0.487143 -0.038462 0.000000 0.000000 192 192 192
-0.412000 0.487143 -0.042308 0.000000 0.000000 192 192 192
-0.445000 0.496667 -0.044231 0.000000 0.000000 192 192 192
-0.412000 0.487143 -0.044231 0.000000 0.000000 192 192 192
-0.449000 0.487143 -0.044231 0.000000 0.000000 192 192 192
-0.449000 0.487143 -0.042308 0.000000 0.000000 192 192 192
-0.449000 0.430000 -0.042308 0.000000 0.000000 192 192 192
-0.438000 0.461429 -0.119231 0.000000 0.000000 192 192 192
-0.438000 0.448095 -0.117308 0.000000 0.000000 192 192 192
-0.438000 0.461429 -0.117308 0.000000 0.000000 192 192 192
-0.438000 0.448095 -0.042308 0.000000 0.000000 192 192 192
-0.423000 0.448095 -0.042308 0.000000 0.000000 192 192 192
-0.423000 0.461429 -0.042308 0.000000 0.000000 192 192 192
-0.438000 0.461429 -0.042308 0.000000 0.000000 192 192 192
-0.423000 0.470000 -0.128846 0.000000 0.000000 192 192 192
-0.405000 0.443333 -0.130769 0.000000 0.000000 192 192 192
-0.423000 0.439524 -0.128846 0.000000 0.000000 192 192 192
-0.423000 0.461429 -0.119231 0.000000 0.000000 192 192 192
-0.423000 0.461429 -0.117308 0.000000 0.000000 192 192 192
-0.423000 0.448095 -0.119231 0.000000 0.000000 192 192 192
-0.423000 0.448095 -0.117308 0.000000 0.000000 192 192 192
-0.438000 0.448095 -0.119231 0.000000 0.000000 192 192 192
-0.438000 0.471905 -0.130769 0.000000 0.000000 192 192 192
-0.438000 0.437619 -0.130769 0.000000 0.000000 192 192 192
-0.323000 0.467143 -0.117308 0.000000 0.000000 192 192 192
-0.405000 0.467143 -0.130769 0.000000 0.000000 192 192 192
-0.405000 0.467143 -0.117308 0.000000 0.000000 192 192 192
-0.405000 0.443333 -0.117308 0.000000 0.000000 192 192 192
-0.415000 0.352857 -0.044231 0.000000 0.000000 192 192 192
-0.445000 0.352857 -0.038462 0.000000 0.000000 192 192 192
-0.415000 0.352857 -0.038462 0.000000 0.000000 192 192 192
-0.415000 0.496667 -0.042308 0.000000 0.000000 192 192 192
-0.449000 0.430000 -0.038462 0.000000 0.000000 192 192 192
-0.445000 0.368095 -0.038462 0.000000 0.000000 192 192 192
-0.310000 0.467143 -0.117308 0.000000 0.000000 192 192 192
-0.323000 0.467143 -0.130769 0.000000 0.000000 192 192 192
-0.323000 0.443333 -0.117308 0.000000 0.000000 192 192 192
-0.323000 0.443333 -0.130769 0.000000 0.000000 192 192 192
-0.310000 0.443333 -0.130769 0.000000 0.000000 192 192 192
-0.310000 0.443333 -0.117308 0.000000 0.000000 192 192 192
-0.310000 0.467143 -0.130769 0.000000 0.000000 192 192 192
-0.438000 0.448095 -0.048077 0.000000 0.000000 192 192 192
-0.423000 0.448095 -0.048077 0.000000 0.000000 192 192 192
-0.423000 0.461429 -0.048077 0.000000 0.000000 192 192 192
-0.438000 0.461429 -0.048077 0.000000 0.000000 192 192 192
-0.412000 0.430000 -0.038462 0.000000 0.000000 192 192 192
-0.415000 0.496667 -0.044231 0.000000 0.000000 192 192 192
-0.445000 0.496667 -0.042308 0.000000 0.000000 192 192 192
-0.445000 0.496667 -0.038462 0.000000 0.000000 192 192 192
-0.449000 0.487143 -0.038462 0.000000 0.000000 192 192 192
-0.415000 0.496667 0.005769 0.000000 0.000000 192 192 192
-0.438000 0.471905 0.092308 0.000000 0.000000 192 192 192
-0.445000 0.496667 0.000000 0.000000 0.000000 192 192 192
-0.415000 0.496667 -0.038462 0.000000 0.000000 192 192 192
3 0 1 2
3 3 4 0
3 5 6 3
3 7 8 5
3 9 10 7
3 11 12 9
3 11 13 14
3 15 2 16
3 17 0 15
3 18 3 17
3 19 5 18
3 20 7 19
3 21 9 20
3 22 11 21
3 23 16 24
3 25 15 23
3 25 18 17
3 26 18 27
3 26 20 19
3 28 20 29
3 30 21 28
3 31 32 33
3 34 35 36
3 0 4 1
3 3 6 4
3 5 8 6
3 7 37 8
3 9 38 10
3 11 14 12
3 11 39 13
3 15 0 2
3 17 3 0
3 18 5 3
3 19 7 5
3 20 9 7
3 21 11 9
3 22 39 11
3 23 15 16
3 25 17 15
3 25 27 18
3 26 19 18
3 26 29 20
3 28 21 20
3 30 22 21
3 32 40 33
3 33 41 42
3 41 43 42
3 42 31 33
3 44 45 36
3 45 46 36
3 34 47 35
3 46 34 36
3 48 49 50
3 51 52 48
3 53 54 51
3 55 50 56
3 57 48 55
3 57 53 51
3 58 56 59
3 60 55 58
3 61 57 60
3 62 58 59
3 63 58 64
3 65 60 63
3 66 67 68
3 69 70 71
3 48 52 49
3 51 54 52
3 53 72 54
3 55 48 50
3 57 51 48
3 57 73 53
3 58 55 56
3 60 57 55
3 61 73 57
3 62 64 58
3 63 60 58
3 65 61 60
3 66 74 67
3 69 75 70
3 76 77 78
3 79 80 81
3 82 80 83
3 82 77 84
3 85 86 81
3 87 88 83
3 89 90 91
3 88 82 83
3 91 76 78
3 92 93 94
3 78 95 96
3 89 97 98
3 82 98 95
3 97 78 96
3 99 100 101
3 102 103 93
3 104 105 103
3 106 94 105
3 100 107 101
3 101 92 106
3 107 102 92
3 102 100 104
3 108 109 110
3 104 111 106
3 111 101 106
3 100 109 104
3 77 85 84
3 112 86 113
3 114 81 86
3 115 88 116
3 117 76 118
3 119 113 76
3 120 121 108
3 121 111 109
3 122 99 111
3 123 110 99
3 120 124 125
3 125 122 121
3 124 123 122
3 126 108 123
3 127 96 95
3 128 95 98
3 129 98 97
3 130 97 96
3 105 130 127
3 103 127 128
3 93 128 129
3 94 129 130
3 84 81 80
3 131 83 80
3 113 132 77
3 90 133 134
3 115 134 133
3 134 117 118
3 133 89 88
3 90 118 91
3 135 136 137
3 138 139 140
3 141 142 140
3 137 143 141
3 144 139 145
3 146 142 147
3 148 149 150
3 149 142 143
3 151 136 152
3 153 154 155
3 143 156 157
3 150 158 159
3 158 143 157
3 136 159 156
3 160 161 162
3 163 155 164
3 165 164 166
3 167 166 154
3 168 162 169
3 167 162 165
3 168 167 153
3 160 153 163
3 170 171 172
3 173 163 165
3 162 173 165
3 172 160 163
3 144 141 174
3 175 135 145
3 176 145 139
3 177 146 147
3 178 151 152
3 179 152 135
3 180 181 170
3 182 172 173
3 183 173 161
3 181 161 171
3 184 180 185
3 185 170 182
3 184 182 183
3 186 183 181
3 187 157 156
3 188 158 157
3 189 159 158
3 190 156 159
3 154 188 187
3 166 189 188
3 164 190 189
3 155 187 190
3 174 140 139
3 191 140 142
3 145 137 144
3 192 193 177
3 194 177 193
3 194 151 195
3 192 147 149
3 193 150 151
3 76 113 77
3 79 131 80
3 82 84 80
3 82 78 77
3 85 132 86
3 87 116 88
3 89 196 90
3 88 89 82
3 91 118 76
3 92 102 93
3 78 82 95
3 89 91 97
3 82 89 98
3 97 91 78
3 99 110 100
3 102 104 103
3 104 106 105
3 106 92 94
3 100 197 107
3 101 107 92
3 107 197 102
3 102 197 100
3 108 121 109
3 104 109 111
3 111 99 101
3 100 110 109
3 77 132 85
3 112 114 86
3 114 79 81
3 115 133 88
3 117 119 76
3 119 112 113
3 120 125 121
3 121 122 111
3 122 123 99
3 123 108 110
3 120 126 124
3 125 124 122
3 124 126 123
3 126 120 108
3 127 130 96
3 128 127 95
3 129 128 98
3 130 129 97
3 105 94 130
3 103 105 127
3 93 103 128
3 94 93 129
3 84 85 81
3 131 87 83
3 113 86 132
3 90 196 133
3 115 198 134
3 134 198 117
3 133 196 89
3 90 134 118
3 135 152 136
3 138 176 139
3 141 143 142
3 137 136 143
3 144 174 139
3 146 191 142
3 148 192 149
3 149 147 142
3 151 150 136
3 153 167 154
3 143 136 156
3 150 149 158
3 158 149 143
3 136 150 159
3 160 171 161
3 163 153 155
3 165 163 164
3 167 165 166
3 168 160 162
3 167 169 162
3 168 169 167
3 160 168 153
3 170 181 171
3 173 172 163
3 162 161 173
3 172 171 160
3 144 137 141
3 175 179 135
3 176 175 145
3 177 199 146
3 178 195 151
3 179 178 152
3 180 186 181
3 182 170 172
3 183 182 173
3 181 183 161
3 184 186 180
3 185 180 170
3 184 185 182
3 186 184 183
3 187 188 157
3 188 189 158
3 189 190 159
3 190 187 156
3 154 166 188
3 166 164 189
3 164 155 190
3 155 154 187
3 174 141 140
3 191 138 140
3 145 135 137
3 192 148 193
3 194 199 177
3 194 193 151
3 192 177 147
3 193 148 150
