ply
format ascii 1.0
comment Created by Blender 2.79 (sub 0) - www.blender.org, source file: '2seater.blend'
element vertex 49
property float x
property float y
property float z
property uchar red
property uchar green
property uchar blue
element face 60
property list uchar uint vertex_indices
end_header
0.625000 0.490000 -1.200000 0 255 0
0.625000 -0.500000 1.200000 0 255 0
0.625000 -0.500000 -1.200000 0 255 0
0.625000 0.490000 1.200000 0 255 0
0.375000 -0.500000 1.200000 0 255 0
0.375000 0.490000 1.200000 0 255 0
0.375000 -0.500000 -1.200000 0 255 0
0.375000 0.490000 -1.200000 0 255 0
0.500000 0.250000 0.961667 0 255 0
0.500000 -0.500000 1.211667 0 255 0
0.500000 -0.500000 0.961667 0 255 0
0.500000 0.250000 1.211667 0 255 0
-0.500000 -0.500000 1.211667 0 255 0
-0.500000 0.250000 1.211667 0 255 0
-0.500000 -0.500000 0.961667 0 255 0
-0.500000 0.250000 0.961667 0 255 0
0.500000 0.250000 -1.208333 0 255 0
0.500000 -0.500000 -0.958333 0 254 0
0.500000 -0.500000 -1.208333 0 255 0
0.500000 0.250000 -0.958333 0 255 0
-0.500000 -0.500000 -0.958333 0 255 0
0.500000 -0.500000 -0.958333 0 255 0
-0.500000 0.250000 -0.958333 0 255 0
-0.500000 -0.500000 -1.208333 0 255 0
-0.500000 0.250000 -1.208333 0 255 0
-0.450000 -0.475000 -1.000000 0 255 0
0.500000 -0.475000 1.000000 0 255 0
-0.450000 -0.475000 0.999999 0 255 0
0.500000 0.000000 1.000000 0 255 0
-0.450000 0.000000 -1.000000 0 255 0
-0.450000 0.000000 0.999999 0 255 0
-0.450000 0.000000 -1.000000 255 255 255
0.500000 -0.475000 -0.999999 255 255 255
-0.450000 -0.475000 -1.000000 255 255 255
0.500000 0.000000 1.000000 255 255 255
0.500000 -0.475000 1.000000 255 255 255
-0.450000 -0.475000 0.999999 255 255 255
-0.450000 0.000000 0.999999 255 255 255
0.500000 -0.475000 -0.999999 0 255 0
0.500000 0.000000 -0.999999 0 255 0
0.500000 0.000000 -0.999999 255 255 255
-0.480000 -0.148158 -1.000000 255 0 0
0.470000 -0.148158 1.000000 255 0 0
-0.480000 -0.148158 0.999999 255 0 0
0.470000 0.016842 1.000000 255 0 0
-0.480000 0.016842 -1.000000 255 0 0
-0.480000 0.016842 0.999999 255 0 0
0.470000 -0.148158 -0.999999 255 0 0
0.470000 0.016842 -0.999999 255 0 0
3 0 1 2
3 3 4 1
3 5 6 4
3 7 2 6
3 4 2 1
3 3 7 5
3 8 9 10
3 11 12 9
3 13 14 12
3 15 10 14
3 12 10 9
3 11 15 13
3 16 17 18
3 19 20 21
3 22 23 20
3 24 18 23
3 20 18 21
3 19 24 22
3 25 26 27
3 28 29 30
3 30 25 27
3 31 32 33
3 32 34 35
3 36 34 37
3 0 3 1
3 3 5 4
3 5 7 6
3 7 0 2
3 4 6 2
3 3 0 7
3 8 11 9
3 11 13 12
3 13 15 14
3 15 8 10
3 12 14 10
3 11 8 15
3 16 19 17
3 19 22 20
3 22 24 23
3 24 16 18
3 20 23 18
3 19 16 24
3 25 38 26
3 28 39 29
3 30 29 25
3 31 40 32
3 32 40 34
3 36 35 34
3 41 42 43
3 44 45 46
3 46 41 43
3 45 47 41
3 47 44 42
3 43 44 46
3 41 47 42
3 44 48 45
3 46 45 41
3 45 48 47
3 47 48 44
3 43 42 44
