ply
format ascii 1.0
comment Created by Blender 2.79 (sub 0) - www.blender.org, source file: 'castledoor.blend'
element vertex 624
property float x
property float y
property float z
property float s
property float t
property uchar red
property uchar green
property uchar blue
element face 569
property list uchar uint vertex_indices
end_header
-2.400000 -0.500000 -0.500000 -0.916940 1.995974 255 255 255
-2.500000 -0.500000 -0.500000 -1.019266 1.995974 255 255 255
-2.500000 2.500000 -0.500000 -1.019266 5.065755 255 255 255
0.500000 2.500000 -0.500000 2.050516 5.065755 255 255 255
0.500000 -0.500000 -0.500000 2.050516 1.995974 255 255 255
0.400000 -0.500000 -0.500000 1.948190 1.995974 255 255 255
0.400000 1.000000 -0.500000 1.948190 3.530865 255 255 255
0.400000 1.000000 -0.500000 1.948190 3.530865 255 255 255
0.400000 1.000000 -0.500000 1.948190 3.530865 255 255 255
-2.400000 1.000001 -0.500000 -0.916940 3.530866 255 255 255
-2.400000 1.000000 -0.500000 -0.916940 3.530865 255 255 255
0.373100 1.273124 -0.500000 1.920664 3.810343 255 255 255
-2.373099 1.273127 -0.500000 -0.889414 3.810346 255 255 255
-2.293431 1.535758 -0.500000 -0.807892 4.079085 255 255 255
0.293432 1.535755 -0.500000 1.839143 4.079082 255 255 255
0.164058 1.777797 -0.500000 1.706761 4.326754 255 255 255
-2.164057 1.777799 -0.500000 -0.675509 4.326756 255 255 255
-1.989949 1.989950 -0.500000 -0.497351 4.543841 255 255 255
-0.010049 1.989948 -0.500000 1.528603 4.543840 255 255 255
-0.222200 2.164057 -0.500000 1.311517 4.721999 255 255 255
-1.777797 2.164058 -0.500000 -0.280264 4.722000 255 255 255
-1.535756 2.293432 -0.500000 -0.032593 4.854383 255 255 255
-0.464242 2.293431 -0.500000 1.063845 4.854383 255 255 255
-0.726872 2.373099 -0.500000 0.795106 4.935904 255 255 255
-1.273125 2.373100 -0.500000 0.236147 4.935904 255 255 255
-0.999999 2.400000 -0.500000 0.515626 4.963431 255 255 255
-2.500000 -0.500000 -0.500000 -4.042159 -1.046605 255 255 255
-2.400000 -0.500000 -0.500000 -4.042159 -0.945321 255 255 255
-2.400000 -0.500000 0.500000 -1.003636 -0.945321 255 255 255
-2.500000 -0.500000 0.500000 -1.003636 -1.046605 255 255 255
-2.500000 2.500000 -0.500000 3.440715 -3.291536 255 255 255
-2.500000 -0.500000 -0.500000 3.440715 -0.364339 255 255 255
-2.500000 -0.500000 0.500000 2.159987 -0.364338 255 255 255
-2.500000 2.500000 0.500000 2.159987 -3.291536 255 255 255
0.500000 2.500000 0.500000 1.481242 1.870838 255 255 255
0.500000 2.500000 -0.500000 1.481241 0.546342 255 255 255
-2.500000 2.500000 -0.500000 4.508474 0.546342 255 255 255
-2.500000 2.500000 0.500000 4.508474 1.870838 255 255 255
0.500000 -0.500000 -0.500000 0.879260 1.282134 255 255 255
0.500000 2.500000 -0.500000 0.879260 -1.645065 255 255 255
0.500000 2.500000 0.500000 -0.401467 -1.645065 255 255 255
0.500000 -0.500000 0.500000 -0.401467 1.282134 255 255 255
0.500000 -0.500000 -0.500000 2.034887 1.991918 255 255 255
0.500000 -0.500000 0.500000 5.073408 1.991918 255 255 255
0.400000 -0.500000 0.500000 5.073408 1.890634 255 255 255
0.400000 -0.500000 -0.500000 2.034887 1.890634 255 255 255
0.400000 -0.500000 0.500000 1.933602 1.991918 255 255 255
0.500000 -0.500000 0.500000 2.034887 1.991918 255 255 255
0.500000 2.500000 0.500000 2.034887 5.030439 255 255 255
-2.500000 2.500000 0.500000 -1.003636 5.030439 255 255 255
-2.500000 -0.500000 0.500000 -1.003636 1.991918 255 255 255
-2.400000 -0.500000 0.500000 -0.902352 1.991918 255 255 255
-2.400000 1.000000 0.500000 -0.902352 3.511179 255 255 255
0.400000 1.000000 0.500000 1.933602 3.511179 255 255 255
0.400000 1.000000 0.500000 1.933602 3.511179 255 255 255
0.373100 1.273124 0.500000 1.906357 3.787811 255 255 255
0.400000 1.000000 0.500000 1.933602 3.511179 255 255 255
0.293432 1.535755 0.500000 1.825666 4.053814 255 255 255
0.164058 1.777797 0.500000 1.694631 4.298963 255 255 255
-0.010049 1.989948 0.500000 1.518288 4.513839 255 255 255
-0.222200 2.164057 0.500000 1.303412 4.690182 255 255 255
-0.464242 2.293431 0.500000 1.058263 4.821218 255 255 255
-0.726872 2.373099 0.500000 0.792260 4.901910 255 255 255
-0.999999 2.400000 0.500000 0.515626 4.929157 255 255 255
-1.273125 2.373100 0.500000 0.238993 4.901910 255 255 255
-1.535756 2.293432 0.500000 -0.027010 4.821219 255 255 255
-1.777797 2.164058 0.500000 -0.272160 4.690185 255 255 255
-1.989949 1.989950 0.500000 -0.487036 4.513840 255 255 255
-2.164057 1.777799 0.500000 -0.663380 4.298965 255 255 255
-2.293431 1.535757 0.500000 -0.794415 4.053816 255 255 255
-2.373099 1.273127 0.500000 -0.875106 3.787814 255 255 255
-2.400000 1.000000 0.500000 -0.902352 3.511179 255 255 255
-2.400000 1.000000 0.500000 -1.211538 -1.469249 255 255 255
-2.400000 -0.500000 0.500000 -1.211538 -3.019236 255 255 255
-2.400000 -0.500000 -0.500000 -4.311507 -3.019235 255 255 255
-2.400000 1.000000 -0.500000 -4.311507 -1.469249 255 255 255
-2.400000 1.000000 -0.500000 2.034887 -2.565866 255 255 255
-2.400000 1.000001 -0.500000 2.034887 -2.565866 255 255 255
-2.400000 1.000000 0.500000 5.073408 -2.565866 255 255 255
-2.400000 1.000000 0.500000 5.073408 -2.565866 255 255 255
-2.400000 1.000001 -0.500000 1.888434 -1.469250 255 255 255
-2.373099 1.273127 -0.500000 1.888434 -1.187021 255 255 255
-2.373099 1.273127 0.500000 4.988404 -1.187022 255 255 255
-2.400000 1.000000 0.500000 4.988404 -1.469250 255 255 255
-2.293431 1.535758 -0.500000 1.888434 -0.915638 255 255 255
-2.293431 1.535757 0.500000 4.988404 -0.915640 255 255 255
-2.164057 1.777799 -0.500000 1.888434 -0.665531 255 255 255
-2.164057 1.777799 0.500000 4.988404 -0.665532 255 255 255
-1.989949 1.989950 -0.500000 1.888434 -0.446311 255 255 255
-1.989949 1.989950 0.500000 4.988404 -0.446311 255 255 255
-1.989949 1.989950 -0.500000 1.888434 0.607784 255 255 255
-1.777797 2.164058 -0.500000 1.888434 0.827005 255 255 255
-1.777797 2.164058 0.500000 4.988404 0.827004 255 255 255
-1.989949 1.989950 0.500000 4.988404 0.607783 255 255 255
-1.535756 2.293432 -0.500000 1.888434 1.077112 255 255 255
-1.535756 2.293432 0.500000 4.988404 1.077112 255 255 255
-1.273125 2.373100 -0.500000 1.888435 1.348495 255 255 255
-1.273125 2.373100 0.500000 4.988404 1.348494 255 255 255
-0.999999 2.400000 -0.500000 1.888435 1.630723 255 255 255
-0.999999 2.400000 0.500000 4.988404 1.630722 255 255 255
-0.726872 2.373099 -0.500000 1.888435 1.912951 255 255 255
-0.726872 2.373099 0.500000 4.988404 1.912950 255 255 255
-0.464242 2.293431 -0.500000 1.888435 2.184334 255 255 255
-0.464242 2.293431 0.500000 4.988403 2.184333 255 255 255
-0.222200 2.164057 -0.500000 1.888434 2.434441 255 255 255
-0.222200 2.164057 0.500000 4.988404 2.434440 255 255 255
-0.010049 1.989948 -0.500000 1.888434 2.653661 255 255 255
-0.010049 1.989948 0.500000 4.988404 2.653661 255 255 255
-0.010049 1.989948 -0.500000 1.888434 -0.446312 255 255 255
0.164058 1.777797 -0.500000 1.888434 -0.665534 255 255 255
0.164058 1.777797 0.500000 4.988404 -0.665535 255 255 255
-0.010049 1.989948 0.500000 4.988404 -0.446313 255 255 255
0.293432 1.535755 -0.500000 1.888434 -0.915641 255 255 255
0.293432 1.535755 0.500000 4.988403 -0.915642 255 255 255
0.373100 1.273124 -0.500000 1.888434 -1.187024 255 255 255
0.373100 1.273124 0.500000 4.988404 -1.187024 255 255 255
0.400000 1.000000 -0.500000 1.888434 -1.469250 255 255 255
0.400000 1.000000 0.500000 4.988404 -1.469250 255 255 255
0.400000 1.000000 -0.500000 2.034887 -2.565866 255 255 255
0.400000 1.000000 -0.500000 2.034887 -2.565866 255 255 255
0.400000 1.000000 0.500000 5.073408 -2.565866 255 255 255
0.400000 1.000000 0.500000 5.073408 -2.565866 255 255 255
0.400000 1.000000 -0.500000 2.034887 -2.565866 255 255 255
0.400000 1.000000 0.500000 5.073408 -2.565866 255 255 255
0.400000 1.000000 -0.500000 1.888434 -1.469250 255 255 255
0.400000 -0.500000 -0.500000 1.888433 -3.019236 255 255 255
0.400000 -0.500000 0.500000 4.988404 -3.019237 255 255 255
0.400000 1.000000 0.500000 4.988404 -1.469250 255 255 255
0.427646 0.420000 1.788481 0.000000 0.000000 128 128 128
0.427646 0.472901 1.771293 0.000000 0.000000 128 128 128
0.418986 0.469962 1.767248 0.000000 0.000000 128 128 128
0.418986 0.420000 1.783481 0.000000 0.000000 128 128 128
0.418986 0.464084 1.759157 0.000000 0.000000 128 128 128
0.418986 0.420000 1.773481 0.000000 0.000000 128 128 128
0.427646 0.461145 1.755112 0.000000 0.000000 128 128 128
0.427646 0.420000 1.768481 0.000000 0.000000 128 128 128
0.436306 0.464084 1.759157 0.000000 0.000000 128 128 128
0.436306 0.420000 1.773481 0.000000 0.000000 128 128 128
0.436306 0.469962 1.767248 0.000000 0.000000 128 128 128
0.436306 0.420000 1.783481 0.000000 0.000000 128 128 128
0.427646 0.505595 1.726293 0.000000 0.000000 128 128 128
0.418986 0.500840 1.724748 0.000000 0.000000 128 128 128
0.418986 0.491329 1.721657 0.000000 0.000000 128 128 128
0.427646 0.486574 1.720112 0.000000 0.000000 128 128 128
0.436306 0.491329 1.721657 0.000000 0.000000 128 128 128
0.436306 0.500840 1.724748 0.000000 0.000000 128 128 128
0.427646 0.505595 1.726293 0.000000 0.000000 255 255 255
0.427646 0.505595 1.670670 0.000000 0.000000 255 255 255
0.418986 0.500840 1.672215 0.000000 0.000000 255 255 255
0.418986 0.500840 1.724748 0.000000 0.000000 255 255 255
0.418986 0.491329 1.675305 0.000000 0.000000 255 255 255
0.418986 0.491329 1.721657 0.000000 0.000000 255 255 255
0.427646 0.486574 1.676850 0.000000 0.000000 255 255 255
0.427646 0.486574 1.720112 0.000000 0.000000 255 255 255
0.436306 0.491329 1.675305 0.000000 0.000000 255 255 255
0.436306 0.491329 1.721657 0.000000 0.000000 255 255 255
0.436306 0.500840 1.672215 0.000000 0.000000 255 255 255
0.436306 0.500840 1.724748 0.000000 0.000000 255 255 255
0.427646 0.505595 1.670670 0.000000 0.000000 128 128 128
0.427646 0.472901 1.625670 0.000000 0.000000 128 128 128
0.418986 0.469962 1.629715 0.000000 0.000000 128 128 128
0.418986 0.500840 1.672215 0.000000 0.000000 128 128 128
0.418986 0.464084 1.637805 0.000000 0.000000 128 128 128
0.418986 0.491329 1.675305 0.000000 0.000000 128 128 128
0.427646 0.461145 1.641850 0.000000 0.000000 128 128 128
0.427646 0.486574 1.676850 0.000000 0.000000 128 128 128
0.436306 0.464084 1.637805 0.000000 0.000000 128 128 128
0.436306 0.491329 1.675305 0.000000 0.000000 128 128 128
0.436306 0.469962 1.629715 0.000000 0.000000 128 128 128
0.436306 0.500840 1.672215 0.000000 0.000000 128 128 128
0.427646 0.420000 1.608481 0.000000 0.000000 128 128 128
0.418986 0.420000 1.613481 0.000000 0.000000 128 128 128
0.418986 0.420000 1.623481 0.000000 0.000000 128 128 128
0.427646 0.420000 1.628481 0.000000 0.000000 128 128 128
0.436306 0.420000 1.623481 0.000000 0.000000 128 128 128
0.436306 0.420000 1.613481 0.000000 0.000000 128 128 128
0.427646 0.367099 1.625670 0.000000 0.000000 128 128 128
0.418986 0.370038 1.629715 0.000000 0.000000 128 128 128
0.418986 0.375916 1.637805 0.000000 0.000000 128 128 128
0.427646 0.378855 1.641850 0.000000 0.000000 128 128 128
0.436306 0.375916 1.637805 0.000000 0.000000 128 128 128
0.436306 0.370038 1.629715 0.000000 0.000000 128 128 128
0.427646 0.334405 1.670670 0.000000 0.000000 128 128 128
0.418986 0.339160 1.672215 0.000000 0.000000 128 128 128
0.418986 0.348671 1.675305 0.000000 0.000000 128 128 128
0.427646 0.353426 1.676850 0.000000 0.000000 128 128 128
0.436306 0.348671 1.675305 0.000000 0.000000 128 128 128
0.436306 0.339160 1.672215 0.000000 0.000000 128 128 128
0.427646 0.334405 1.726293 0.000000 0.000000 128 128 128
0.418986 0.339160 1.724748 0.000000 0.000000 128 128 128
0.418986 0.348671 1.721657 0.000000 0.000000 128 128 128
0.427646 0.353426 1.720112 0.000000 0.000000 128 128 128
0.436306 0.348671 1.721657 0.000000 0.000000 128 128 128
0.436306 0.339160 1.724748 0.000000 0.000000 128 128 128
0.427646 0.367099 1.771293 0.000000 0.000000 128 128 128
0.418986 0.370038 1.767248 0.000000 0.000000 128 128 128
0.418986 0.375916 1.759157 0.000000 0.000000 128 128 128
0.427646 0.378855 1.755112 0.000000 0.000000 128 128 128
0.436306 0.375916 1.759157 0.000000 0.000000 128 128 128
0.436306 0.370038 1.767248 0.000000 0.000000 128 128 128
0.267646 0.420000 1.788481 0.000000 0.000000 128 128 128
0.267646 0.472901 1.771293 0.000000 0.000000 128 128 128
0.258986 0.469962 1.767248 0.000000 0.000000 128 128 128
0.258986 0.420000 1.783481 0.000000 0.000000 128 128 128
0.258986 0.464084 1.759158 0.000000 0.000000 128 128 128
0.258986 0.420000 1.773481 0.000000 0.000000 128 128 128
0.267646 0.461145 1.755112 0.000000 0.000000 128 128 128
0.267646 0.420000 1.768481 0.000000 0.000000 128 128 128
0.276307 0.464084 1.759158 0.000000 0.000000 128 128 128
0.276307 0.420000 1.773481 0.000000 0.000000 128 128 128
0.276307 0.469962 1.767248 0.000000 0.000000 128 128 128
0.276307 0.420000 1.783481 0.000000 0.000000 128 128 128
0.267646 0.505595 1.726293 0.000000 0.000000 128 128 128
0.258986 0.500840 1.724748 0.000000 0.000000 128 128 128
0.258986 0.491329 1.721658 0.000000 0.000000 128 128 128
0.267646 0.486574 1.720112 0.000000 0.000000 128 128 128
0.276307 0.491329 1.721658 0.000000 0.000000 128 128 128
0.276307 0.500840 1.724748 0.000000 0.000000 128 128 128
0.267646 0.505595 1.726293 0.000000 0.000000 255 255 255
0.267646 0.505595 1.670670 0.000000 0.000000 255 255 255
0.258986 0.500840 1.672215 0.000000 0.000000 255 255 255
0.258986 0.500840 1.724748 0.000000 0.000000 255 255 255
0.258986 0.491329 1.675305 0.000000 0.000000 255 255 255
0.258986 0.491329 1.721658 0.000000 0.000000 255 255 255
0.267646 0.486574 1.676850 0.000000 0.000000 255 255 255
0.267646 0.486574 1.720112 0.000000 0.000000 255 255 255
0.276307 0.491329 1.675305 0.000000 0.000000 255 255 255
0.276307 0.491329 1.721658 0.000000 0.000000 255 255 255
0.276307 0.500840 1.672215 0.000000 0.000000 255 255 255
0.276307 0.500840 1.724748 0.000000 0.000000 255 255 255
0.267646 0.505595 1.670670 0.000000 0.000000 128 128 128
0.267646 0.472901 1.625670 0.000000 0.000000 128 128 128
0.258986 0.469962 1.629715 0.000000 0.000000 128 128 128
0.258986 0.500840 1.672215 0.000000 0.000000 128 128 128
0.258986 0.464084 1.637805 0.000000 0.000000 128 128 128
0.258986 0.491329 1.675305 0.000000 0.000000 128 128 128
0.267646 0.461145 1.641850 0.000000 0.000000 128 128 128
0.267646 0.486574 1.676850 0.000000 0.000000 128 128 128
0.276307 0.464084 1.637805 0.000000 0.000000 128 128 128
0.276307 0.491329 1.675305 0.000000 0.000000 128 128 128
0.276307 0.469962 1.629715 0.000000 0.000000 128 128 128
0.276307 0.500840 1.672215 0.000000 0.000000 128 128 128
0.267646 0.420000 1.608481 0.000000 0.000000 128 128 128
0.258986 0.420000 1.613481 0.000000 0.000000 128 128 128
0.258986 0.420000 1.623481 0.000000 0.000000 128 128 128
0.267646 0.420000 1.628481 0.000000 0.000000 128 128 128
0.276307 0.420000 1.623481 0.000000 0.000000 128 128 128
0.276307 0.420000 1.613481 0.000000 0.000000 128 128 128
0.267646 0.367099 1.625670 0.000000 0.000000 128 128 128
0.258986 0.370038 1.629715 0.000000 0.000000 128 128 128
0.258986 0.375916 1.637805 0.000000 0.000000 128 128 128
0.267646 0.378855 1.641850 0.000000 0.000000 128 128 128
0.276307 0.375916 1.637805 0.000000 0.000000 128 128 128
0.276307 0.370038 1.629715 0.000000 0.000000 128 128 128
0.267646 0.334405 1.670670 0.000000 0.000000 128 128 128
0.258986 0.339160 1.672215 0.000000 0.000000 128 128 128
0.258986 0.348671 1.675305 0.000000 0.000000 128 128 128
0.267646 0.353426 1.676850 0.000000 0.000000 128 128 128
0.276307 0.348671 1.675305 0.000000 0.000000 128 128 128
0.276307 0.339160 1.672215 0.000000 0.000000 128 128 128
0.267646 0.334405 1.726293 0.000000 0.000000 128 128 128
0.258986 0.339160 1.724748 0.000000 0.000000 128 128 128
0.258986 0.348671 1.721658 0.000000 0.000000 128 128 128
0.267646 0.353426 1.720112 0.000000 0.000000 128 128 128
0.276307 0.348671 1.721658 0.000000 0.000000 128 128 128
0.276307 0.339160 1.724748 0.000000 0.000000 128 128 128
0.267646 0.367099 1.771293 0.000000 0.000000 128 128 128
0.258986 0.370038 1.767248 0.000000 0.000000 128 128 128
0.258986 0.375916 1.759158 0.000000 0.000000 128 128 128
0.267646 0.378855 1.755112 0.000000 0.000000 128 128 128
0.276307 0.375916 1.759158 0.000000 0.000000 128 128 128
0.276307 0.370038 1.767248 0.000000 0.000000 128 128 128
0.447646 0.550000 1.698481 0.000000 0.000000 128 128 128
0.247646 0.550000 1.698481 0.000000 0.000000 128 128 128
0.247646 0.540451 1.727870 0.000000 0.000000 128 128 128
0.447646 0.540451 1.727870 0.000000 0.000000 128 128 128
0.247646 0.515451 1.746034 0.000000 0.000000 128 128 128
0.447646 0.515451 1.746034 0.000000 0.000000 128 128 128
0.247646 0.484549 1.746034 0.000000 0.000000 128 128 128
0.447646 0.484549 1.746034 0.000000 0.000000 128 128 128
0.247646 0.459549 1.727870 0.000000 0.000000 128 128 128
0.447646 0.459549 1.727870 0.000000 0.000000 128 128 128
0.247646 0.450000 1.698481 0.000000 0.000000 128 128 128
0.447646 0.450000 1.698481 0.000000 0.000000 128 128 128
0.247646 0.459549 1.669092 0.000000 0.000000 128 128 128
0.447646 0.459549 1.669092 0.000000 0.000000 128 128 128
0.247646 0.484549 1.650928 0.000000 0.000000 128 128 128
0.447646 0.484549 1.650928 0.000000 0.000000 128 128 128
0.247646 0.515451 1.650928 0.000000 0.000000 128 128 128
0.447646 0.515451 1.650928 0.000000 0.000000 128 128 128
0.247646 0.540451 1.669092 0.000000 0.000000 128 128 128
0.447646 0.540451 1.669092 0.000000 0.000000 128 128 128
0.297646 1.000000 0.498481 0.000000 0.000000 160 82 45
0.397646 1.000000 0.498481 0.000000 0.000000 160 82 45
0.397646 1.000000 0.498481 0.000000 0.000000 160 82 45
0.397646 1.000000 0.498481 0.000000 0.000000 160 82 45
0.397646 -0.500000 0.498481 0.000000 0.000000 160 82 45
0.297646 -0.500000 0.498481 0.000000 0.000000 160 82 45
0.297646 1.000000 0.498481 0.000000 0.000000 160 82 45
0.297646 1.000000 0.498481 0.000000 0.000000 160 82 45
0.397646 -0.500000 1.898481 0.000000 0.000000 160 82 45
0.397646 1.273124 0.525382 0.000000 0.000000 160 82 45
0.397646 2.400000 1.898479 0.000000 0.000000 160 82 45
0.397646 2.400000 1.898481 0.000000 0.000000 160 82 45
0.397646 2.293431 1.362723 0.000000 0.000000 160 82 45
0.397646 2.373099 1.625353 0.000000 0.000000 160 82 45
0.397646 1.989949 0.908530 0.000000 0.000000 160 82 45
0.397646 2.164057 1.120681 0.000000 0.000000 160 82 45
0.397646 1.535755 0.605049 0.000000 0.000000 160 82 45
0.397646 1.777797 0.734423 0.000000 0.000000 160 82 45
0.297646 -0.500000 1.898481 0.000000 0.000000 160 82 45
0.297646 2.400000 1.898479 0.000000 0.000000 255 255 255
0.297646 2.400000 1.898481 0.000000 0.000000 255 255 255
0.397646 2.400000 1.898481 0.000000 0.000000 255 255 255
0.397646 2.400000 1.898479 0.000000 0.000000 255 255 255
0.297646 2.400000 1.898481 0.000000 0.000000 160 82 45
0.297646 2.400000 1.898479 0.000000 0.000000 160 82 45
0.297646 2.373099 1.625353 0.000000 0.000000 160 82 45
0.297646 2.293431 1.362723 0.000000 0.000000 160 82 45
0.297646 2.164057 1.120682 0.000000 0.000000 160 82 45
0.297646 1.989949 0.908530 0.000000 0.000000 160 82 45
0.297646 1.777797 0.734423 0.000000 0.000000 160 82 45
0.297646 1.535755 0.605049 0.000000 0.000000 160 82 45
0.297646 1.273124 0.525382 0.000000 0.000000 160 82 45
0.447646 0.900000 0.498481 0.000000 0.000000 128 128 128
0.438097 0.900000 0.469092 0.000000 0.000000 128 128 128
0.438097 1.100000 0.469092 0.000000 0.000000 128 128 128
0.447646 1.100000 0.498481 0.000000 0.000000 128 128 128
0.413097 0.900000 0.450928 0.000000 0.000000 128 128 128
0.413097 1.100000 0.450928 0.000000 0.000000 128 128 128
0.382195 0.900000 0.450928 0.000000 0.000000 128 128 128
0.382195 1.100000 0.450928 0.000000 0.000000 128 128 128
0.357195 0.900000 0.469092 0.000000 0.000000 128 128 128
0.357195 1.100000 0.469092 0.000000 0.000000 128 128 128
0.347646 0.900000 0.498481 0.000000 0.000000 128 128 128
0.347646 1.100000 0.498481 0.000000 0.000000 128 128 128
0.357195 0.900000 0.527870 0.000000 0.000000 128 128 128
0.357195 1.100000 0.527870 0.000000 0.000000 128 128 128
0.382195 0.900000 0.546034 0.000000 0.000000 128 128 128
0.382195 1.100000 0.546034 0.000000 0.000000 128 128 128
0.413097 0.900000 0.546034 0.000000 0.000000 128 128 128
0.413097 1.100000 0.546034 0.000000 0.000000 128 128 128
0.438097 1.100000 0.527870 0.000000 0.000000 128 128 128
0.438097 0.900000 0.527870 0.000000 0.000000 128 128 128
0.317646 0.950000 1.308481 0.000000 0.000000 128 128 128
0.417646 0.950000 1.308481 0.000000 0.000000 128 128 128
0.417646 1.050000 1.308481 0.000000 0.000000 128 128 128
0.317646 1.050000 1.308481 0.000000 0.000000 128 128 128
0.417646 0.950000 0.508481 0.000000 0.000000 128 128 128
0.417646 1.050000 0.508481 0.000000 0.000000 128 128 128
0.317646 0.950000 0.508481 0.000000 0.000000 128 128 128
0.317646 1.050000 0.508481 0.000000 0.000000 128 128 128
0.447646 -0.100000 0.498481 0.000000 0.000000 128 128 128
0.438097 -0.100000 0.469092 0.000000 0.000000 128 128 128
0.438097 0.100000 0.469092 0.000000 0.000000 128 128 128
0.447646 0.100000 0.498481 0.000000 0.000000 128 128 128
0.413097 -0.100000 0.450928 0.000000 0.000000 128 128 128
0.413097 0.100000 0.450928 0.000000 0.000000 128 128 128
0.382195 -0.100000 0.450928 0.000000 0.000000 128 128 128
0.382195 0.100000 0.450928 0.000000 0.000000 128 128 128
0.357195 -0.100000 0.469092 0.000000 0.000000 128 128 128
0.357195 0.100000 0.469092 0.000000 0.000000 128 128 128
0.347646 -0.100000 0.498481 0.000000 0.000000 128 128 128
0.347646 0.100000 0.498481 0.000000 0.000000 128 128 128
0.357195 -0.100000 0.527870 0.000000 0.000000 128 128 128
0.357195 0.100000 0.527870 0.000000 0.000000 128 128 128
0.382195 -0.100000 0.546034 0.000000 0.000000 128 128 128
0.382195 0.100000 0.546034 0.000000 0.000000 128 128 128
0.413097 -0.100000 0.546034 0.000000 0.000000 128 128 128
0.413097 0.100000 0.546034 0.000000 0.000000 128 128 128
0.438097 0.100000 0.527870 0.000000 0.000000 128 128 128
0.438097 -0.100000 0.527870 0.000000 0.000000 128 128 128
0.317646 -0.050000 1.308481 0.000000 0.000000 128 128 128
0.417646 -0.050000 1.308481 0.000000 0.000000 128 128 128
0.417646 0.050000 1.308481 0.000000 0.000000 128 128 128
0.317646 0.050000 1.308481 0.000000 0.000000 128 128 128
0.417646 -0.050000 0.508481 0.000000 0.000000 128 128 128
0.417646 0.050000 0.508481 0.000000 0.000000 128 128 128
0.317646 -0.050000 0.508481 0.000000 0.000000 128 128 128
0.317646 0.050000 0.508481 0.000000 0.000000 128 128 128
-2.447646 0.900000 0.498482 0.000000 0.000000 128 128 128
-2.447646 1.100000 0.498482 0.000000 0.000000 128 128 128
-2.438097 1.100000 0.469093 0.000000 0.000000 128 128 128
-2.438097 0.900000 0.469093 0.000000 0.000000 128 128 128
-2.413097 1.100000 0.450929 0.000000 0.000000 128 128 128
-2.413097 0.900000 0.450929 0.000000 0.000000 128 128 128
-2.382195 1.100000 0.450929 0.000000 0.000000 128 128 128
-2.382195 0.900000 0.450929 0.000000 0.000000 128 128 128
-2.357195 1.100000 0.469093 0.000000 0.000000 128 128 128
-2.357195 0.900000 0.469093 0.000000 0.000000 128 128 128
-2.347646 1.100000 0.498482 0.000000 0.000000 128 128 128
-2.347646 0.900000 0.498482 0.000000 0.000000 128 128 128
-2.357195 1.100000 0.527871 0.000000 0.000000 128 128 128
-2.357195 0.900000 0.527871 0.000000 0.000000 128 128 128
-2.382195 1.100000 0.546035 0.000000 0.000000 128 128 128
-2.382195 0.900000 0.546035 0.000000 0.000000 128 128 128
-2.413097 1.100000 0.546035 0.000000 0.000000 128 128 128
-2.413097 0.900000 0.546035 0.000000 0.000000 128 128 128
-2.438097 1.100000 0.527871 0.000000 0.000000 128 128 128
-2.438097 0.900000 0.527871 0.000000 0.000000 128 128 128
-2.317646 0.950000 1.308482 0.000000 0.000000 128 128 128
-2.317646 1.050000 1.308482 0.000000 0.000000 128 128 128
-2.417646 1.050000 1.308482 0.000000 0.000000 128 128 128
-2.417646 0.950000 1.308482 0.000000 0.000000 128 128 128
-2.417646 1.050000 0.508482 0.000000 0.000000 128 128 128
-2.417646 0.950000 0.508482 0.000000 0.000000 128 128 128
-2.317646 1.050000 0.508482 0.000000 0.000000 128 128 128
-2.317646 0.950000 0.508482 0.000000 0.000000 128 128 128
-2.447646 -0.100000 0.498482 0.000000 0.000000 128 128 128
-2.447646 0.100000 0.498482 0.000000 0.000000 128 128 128
-2.438097 0.100000 0.469093 0.000000 0.000000 128 128 128
-2.438097 -0.100000 0.469093 0.000000 0.000000 128 128 128
-2.413096 0.100000 0.450929 0.000000 0.000000 128 128 128
-2.413096 -0.100000 0.450929 0.000000 0.000000 128 128 128
-2.382195 0.100000 0.450929 0.000000 0.000000 128 128 128
-2.382195 -0.100000 0.450929 0.000000 0.000000 128 128 128
-2.357195 0.100000 0.469093 0.000000 0.000000 128 128 128
-2.357195 -0.100000 0.469093 0.000000 0.000000 128 128 128
-2.347646 0.100000 0.498482 0.000000 0.000000 128 128 128
-2.347646 -0.100000 0.498482 0.000000 0.000000 128 128 128
-2.357195 0.100000 0.527871 0.000000 0.000000 128 128 128
-2.357195 -0.100000 0.527871 0.000000 0.000000 128 128 128
-2.382195 0.100000 0.546035 0.000000 0.000000 128 128 128
-2.382195 -0.100000 0.546035 0.000000 0.000000 128 128 128
-2.413096 0.100000 0.546035 0.000000 0.000000 128 128 128
-2.413097 -0.100000 0.546035 0.000000 0.000000 128 128 128
-2.438097 0.100000 0.527871 0.000000 0.000000 128 128 128
-2.438097 -0.100000 0.527871 0.000000 0.000000 128 128 128
-2.317646 -0.050000 1.308482 0.000000 0.000000 128 128 128
-2.317646 0.050000 1.308482 0.000000 0.000000 128 128 128
-2.417646 0.050000 1.308482 0.000000 0.000000 128 128 128
-2.417646 -0.050000 1.308482 0.000000 0.000000 128 128 128
-2.417646 0.050000 0.508482 0.000000 0.000000 128 128 128
-2.417646 -0.050000 0.508482 0.000000 0.000000 128 128 128
-2.317646 0.050000 0.508482 0.000000 0.000000 128 128 128
-2.317646 -0.050000 0.508482 0.000000 0.000000 128 128 128
-2.297646 -0.500000 1.898482 0.000000 0.000000 160 82 45
-2.297646 2.400000 1.898482 0.000000 0.000000 160 82 45
-2.397646 2.400000 1.898482 0.000000 0.000000 160 82 45
-2.397646 -0.500000 1.898482 0.000000 0.000000 160 82 45
-2.397646 -0.500000 0.498482 0.000000 0.000000 160 82 45
-2.297646 -0.500000 0.498482 0.000000 0.000000 160 82 45
-2.297646 1.000000 0.498482 0.000000 0.000000 160 82 45
-2.297646 1.000000 0.498482 0.000000 0.000000 160 82 45
-2.297646 1.273127 0.525383 0.000000 0.000000 160 82 45
-2.297646 1.535757 0.605051 0.000000 0.000000 160 82 45
-2.297646 1.777799 0.734425 0.000000 0.000000 160 82 45
-2.297646 1.989950 0.908533 0.000000 0.000000 160 82 45
-2.297646 2.164058 1.120685 0.000000 0.000000 160 82 45
-2.297646 2.293432 1.362726 0.000000 0.000000 160 82 45
-2.297646 2.373100 1.625357 0.000000 0.000000 160 82 45
-2.397646 2.373099 1.625357 0.000000 0.000000 160 82 45
-2.397646 2.293432 1.362726 0.000000 0.000000 160 82 45
-2.397646 2.164058 1.120685 0.000000 0.000000 160 82 45
-2.397646 1.989950 0.908533 0.000000 0.000000 160 82 45
-2.397646 1.777799 0.734425 0.000000 0.000000 160 82 45
-2.397646 1.535757 0.605051 0.000000 0.000000 160 82 45
-2.397646 1.273127 0.525383 0.000000 0.000000 160 82 45
-2.397646 1.000000 0.498482 0.000000 0.000000 160 82 45
-2.397646 1.000000 0.498482 0.000000 0.000000 160 82 45
-2.427646 0.420000 1.608482 0.000000 0.000000 128 128 128
-2.427646 0.472900 1.625671 0.000000 0.000000 128 128 128
-2.418986 0.469962 1.629716 0.000000 0.000000 128 128 128
-2.418986 0.420000 1.613482 0.000000 0.000000 128 128 128
-2.418986 0.464084 1.637806 0.000000 0.000000 128 128 128
-2.418986 0.420000 1.623482 0.000000 0.000000 128 128 128
-2.427646 0.461145 1.641851 0.000000 0.000000 128 128 128
-2.427646 0.420000 1.628482 0.000000 0.000000 128 128 128
-2.436306 0.464084 1.637806 0.000000 0.000000 128 128 128
-2.436306 0.420000 1.623482 0.000000 0.000000 128 128 128
-2.436306 0.469962 1.629716 0.000000 0.000000 128 128 128
-2.436306 0.420000 1.613482 0.000000 0.000000 128 128 128
-2.427646 0.505595 1.670671 0.000000 0.000000 128 128 128
-2.418986 0.500840 1.672216 0.000000 0.000000 128 128 128
-2.418986 0.491329 1.675306 0.000000 0.000000 128 128 128
-2.427646 0.486574 1.676851 0.000000 0.000000 128 128 128
-2.436306 0.491329 1.675306 0.000000 0.000000 128 128 128
-2.436306 0.500840 1.672216 0.000000 0.000000 128 128 128
-2.427646 0.505595 1.670671 0.000000 0.000000 255 255 255
-2.427646 0.505595 1.726294 0.000000 0.000000 255 255 255
-2.418986 0.500840 1.724749 0.000000 0.000000 255 255 255
-2.418986 0.500840 1.672216 0.000000 0.000000 255 255 255
-2.418986 0.491329 1.721658 0.000000 0.000000 255 255 255
-2.418986 0.491329 1.675306 0.000000 0.000000 255 255 255
-2.427646 0.486574 1.720113 0.000000 0.000000 255 255 255
-2.427646 0.486574 1.676851 0.000000 0.000000 255 255 255
-2.436306 0.491329 1.721658 0.000000 0.000000 255 255 255
-2.436306 0.491329 1.675306 0.000000 0.000000 255 255 255
-2.436306 0.500840 1.724749 0.000000 0.000000 255 255 255
-2.436306 0.500840 1.672216 0.000000 0.000000 255 255 255
-2.427646 0.505595 1.726294 0.000000 0.000000 128 128 128
-2.427646 0.472900 1.771294 0.000000 0.000000 128 128 128
-2.418986 0.469961 1.767249 0.000000 0.000000 128 128 128
-2.418986 0.500840 1.724749 0.000000 0.000000 128 128 128
-2.418986 0.464084 1.759158 0.000000 0.000000 128 128 128
-2.418986 0.491329 1.721658 0.000000 0.000000 128 128 128
-2.427646 0.461145 1.755113 0.000000 0.000000 128 128 128
-2.427646 0.486574 1.720113 0.000000 0.000000 128 128 128
-2.436306 0.464084 1.759158 0.000000 0.000000 128 128 128
-2.436306 0.491329 1.721658 0.000000 0.000000 128 128 128
-2.436306 0.469961 1.767249 0.000000 0.000000 128 128 128
-2.436306 0.500840 1.724749 0.000000 0.000000 128 128 128
-2.427646 0.420000 1.788482 0.000000 0.000000 128 128 128
-2.418986 0.420000 1.783482 0.000000 0.000000 128 128 128
-2.418986 0.420000 1.773482 0.000000 0.000000 128 128 128
-2.427646 0.420000 1.768482 0.000000 0.000000 128 128 128
-2.436306 0.420000 1.773482 0.000000 0.000000 128 128 128
-2.436306 0.420000 1.783482 0.000000 0.000000 128 128 128
-2.427646 0.367099 1.771294 0.000000 0.000000 128 128 128
-2.418986 0.370038 1.767249 0.000000 0.000000 128 128 128
-2.418986 0.375916 1.759158 0.000000 0.000000 128 128 128
-2.427646 0.378855 1.755113 0.000000 0.000000 128 128 128
-2.436306 0.375916 1.759158 0.000000 0.000000 128 128 128
-2.436306 0.370038 1.767249 0.000000 0.000000 128 128 128
-2.427646 0.334405 1.726294 0.000000 0.000000 128 128 128
-2.418986 0.339160 1.724749 0.000000 0.000000 128 128 128
-2.418986 0.348670 1.721658 0.000000 0.000000 128 128 128
-2.427646 0.353426 1.720113 0.000000 0.000000 128 128 128
-2.436306 0.348670 1.721658 0.000000 0.000000 128 128 128
-2.436306 0.339160 1.724749 0.000000 0.000000 128 128 128
-2.427646 0.334405 1.670671 0.000000 0.000000 128 128 128
-2.418986 0.339160 1.672216 0.000000 0.000000 128 128 128
-2.418986 0.348670 1.675306 0.000000 0.000000 128 128 128
-2.427646 0.353426 1.676851 0.000000 0.000000 128 128 128
-2.436306 0.348670 1.675306 0.000000 0.000000 128 128 128
-2.436306 0.339160 1.672216 0.000000 0.000000 128 128 128
-2.427646 0.367099 1.625671 0.000000 0.000000 128 128 128
-2.418986 0.370038 1.629716 0.000000 0.000000 128 128 128
-2.418986 0.375916 1.637806 0.000000 0.000000 128 128 128
-2.427646 0.378855 1.641851 0.000000 0.000000 128 128 128
-2.436306 0.375916 1.637806 0.000000 0.000000 128 128 128
-2.436306 0.370038 1.629716 0.000000 0.000000 128 128 128
-2.267646 0.420000 1.608482 0.000000 0.000000 128 128 128
-2.267646 0.472900 1.625670 0.000000 0.000000 128 128 128
-2.258986 0.469961 1.629716 0.000000 0.000000 128 128 128
-2.258986 0.420000 1.613482 0.000000 0.000000 128 128 128
-2.258986 0.464084 1.637806 0.000000 0.000000 128 128 128
-2.258986 0.420000 1.623482 0.000000 0.000000 128 128 128
-2.267646 0.461145 1.641851 0.000000 0.000000 128 128 128
-2.267646 0.420000 1.628482 0.000000 0.000000 128 128 128
-2.276306 0.464084 1.637806 0.000000 0.000000 128 128 128
-2.276306 0.420000 1.623482 0.000000 0.000000 128 128 128
-2.276306 0.469961 1.629716 0.000000 0.000000 128 128 128
-2.276306 0.420000 1.613482 0.000000 0.000000 128 128 128
-2.267646 0.505595 1.670670 0.000000 0.000000 128 128 128
-2.258986 0.500840 1.672216 0.000000 0.000000 128 128 128
-2.258986 0.491329 1.675306 0.000000 0.000000 128 128 128
-2.267646 0.486574 1.676851 0.000000 0.000000 128 128 128
-2.276306 0.491329 1.675306 0.000000 0.000000 128 128 128
-2.276306 0.500840 1.672216 0.000000 0.000000 128 128 128
-2.267646 0.505595 1.670670 0.000000 0.000000 255 255 255
-2.267646 0.505595 1.726293 0.000000 0.000000 255 255 255
-2.258986 0.500840 1.724748 0.000000 0.000000 255 255 255
-2.258986 0.500840 1.672216 0.000000 0.000000 255 255 255
-2.258986 0.491329 1.721658 0.000000 0.000000 255 255 255
-2.258986 0.491329 1.675306 0.000000 0.000000 255 255 255
-2.267646 0.486574 1.720113 0.000000 0.000000 255 255 255
-2.267646 0.486574 1.676851 0.000000 0.000000 255 255 255
-2.276306 0.491329 1.721658 0.000000 0.000000 255 255 255
-2.276306 0.491329 1.675306 0.000000 0.000000 255 255 255
-2.276306 0.500840 1.724748 0.000000 0.000000 255 255 255
-2.276306 0.500840 1.672216 0.000000 0.000000 255 255 255
-2.267646 0.505595 1.726293 0.000000 0.000000 128 128 128
-2.267646 0.472900 1.771294 0.000000 0.000000 128 128 128
-2.258986 0.469961 1.767248 0.000000 0.000000 128 128 128
-2.258986 0.500840 1.724748 0.000000 0.000000 128 128 128
-2.258986 0.464084 1.759158 0.000000 0.000000 128 128 128
-2.258986 0.491329 1.721658 0.000000 0.000000 128 128 128
-2.267646 0.461145 1.755113 0.000000 0.000000 128 128 128
-2.267646 0.486574 1.720113 0.000000 0.000000 128 128 128
-2.276306 0.464084 1.759158 0.000000 0.000000 128 128 128
-2.276306 0.491329 1.721658 0.000000 0.000000 128 128 128
-2.276306 0.469961 1.767248 0.000000 0.000000 128 128 128
-2.276306 0.500840 1.724748 0.000000 0.000000 128 128 128
-2.267646 0.420000 1.788482 0.000000 0.000000 128 128 128
-2.258986 0.420000 1.783482 0.000000 0.000000 128 128 128
-2.258986 0.420000 1.773482 0.000000 0.000000 128 128 128
-2.267646 0.420000 1.768482 0.000000 0.000000 128 128 128
-2.276306 0.420000 1.773482 0.000000 0.000000 128 128 128
-2.276306 0.420000 1.783482 0.000000 0.000000 128 128 128
-2.267646 0.367099 1.771294 0.000000 0.000000 128 128 128
-2.258986 0.370038 1.767248 0.000000 0.000000 128 128 128
-2.258986 0.375916 1.759158 0.000000 0.000000 128 128 128
-2.267646 0.378855 1.755113 0.000000 0.000000 128 128 128
-2.276306 0.375916 1.759158 0.000000 0.000000 128 128 128
-2.276306 0.370038 1.767248 0.000000 0.000000 128 128 128
-2.267646 0.334405 1.726293 0.000000 0.000000 128 128 128
-2.258986 0.339160 1.724748 0.000000 0.000000 128 128 128
-2.258986 0.348670 1.721658 0.000000 0.000000 128 128 128
-2.267646 0.353426 1.720113 0.000000 0.000000 128 128 128
-2.276306 0.348670 1.721658 0.000000 0.000000 128 128 128
-2.276306 0.339160 1.724748 0.000000 0.000000 128 128 128
-2.267646 0.334405 1.670670 0.000000 0.000000 128 128 128
-2.258986 0.339160 1.672216 0.000000 0.000000 128 128 128
-2.258986 0.348670 1.675306 0.000000 0.000000 128 128 128
-2.267646 0.353426 1.676851 0.000000 0.000000 128 128 128
-2.276306 0.348670 1.675306 0.000000 0.000000 128 128 128
-2.276306 0.339160 1.672216 0.000000 0.000000 128 128 128
-2.267646 0.367099 1.625670 0.000000 0.000000 128 128 128
-2.258986 0.370038 1.629716 0.000000 0.000000 128 128 128
-2.258986 0.375916 1.637806 0.000000 0.000000 128 128 128
-2.267646 0.378855 1.641851 0.000000 0.000000 128 128 128
-2.276306 0.375916 1.637806 0.000000 0.000000 128 128 128
-2.276306 0.370038 1.629716 0.000000 0.000000 128 128 128
-2.447646 0.550000 1.698482 0.000000 0.000000 128 128 128
-2.247646 0.550000 1.698482 0.000000 0.000000 128 128 128
-2.247646 0.540451 1.669093 0.000000 0.000000 128 128 128
-2.447646 0.540451 1.669093 0.000000 0.000000 128 128 128
-2.247646 0.515451 1.650929 0.000000 0.000000 128 128 128
-2.447646 0.515451 1.650929 0.000000 0.000000 128 128 128
-2.247646 0.484549 1.650929 0.000000 0.000000 128 128 128
-2.447646 0.484549 1.650929 0.000000 0.000000 128 128 128
-2.247646 0.459549 1.669093 0.000000 0.000000 128 128 128
-2.447646 0.459549 1.669093 0.000000 0.000000 128 128 128
-2.247646 0.450000 1.698482 0.000000 0.000000 128 128 128
-2.447646 0.450000 1.698482 0.000000 0.000000 128 128 128
-2.247646 0.459549 1.727871 0.000000 0.000000 128 128 128
-2.447646 0.459549 1.727871 0.000000 0.000000 128 128 128
-2.247646 0.484549 1.746035 0.000000 0.000000 128 128 128
-2.447646 0.484549 1.746035 0.000000 0.000000 128 128 128
-2.247646 0.515451 1.746035 0.000000 0.000000 128 128 128
-2.447646 0.515451 1.746035 0.000000 0.000000 128 128 128
-2.247646 0.540451 1.727871 0.000000 0.000000 128 128 128
-2.447646 0.540451 1.727871 0.000000 0.000000 128 128 128
3 0 1 2
3 3 4 5
3 6 7 8
3 3 5 6
3 9 10 0
3 9 0 2
3 3 6 8
3 3 8 11
3 12 9 2
3 13 12 2
3 3 11 14
3 3 14 15
3 16 13 2
3 17 16 2
3 3 15 18
3 3 18 19
3 20 17 2
3 21 20 2
3 3 19 22
3 3 22 23
3 24 21 2
3 3 23 25
3 25 24 2
3 2 3 25
4 26 27 28 29
4 30 31 32 33
4 34 35 36 37
4 38 39 40 41
4 42 43 44 45
3 46 47 48
3 49 50 51
3 49 51 52
3 53 54 46
3 55 56 53
3 53 46 48
3 55 53 48
3 57 55 48
3 58 57 48
3 59 58 48
3 60 59 48
3 61 60 48
3 62 61 48
3 63 62 48
3 63 48 49
3 64 63 49
3 65 64 49
3 66 65 49
3 67 66 49
3 68 67 49
3 69 68 49
3 70 69 49
3 71 70 49
3 49 52 71
4 72 73 74 75
4 76 77 78 79
4 80 81 82 83
4 81 84 85 82
4 84 86 87 85
4 86 88 89 87
4 90 91 92 93
4 91 94 95 92
4 94 96 97 95
4 96 98 99 97
4 98 100 101 99
4 100 102 103 101
4 102 104 105 103
4 104 106 107 105
4 108 109 110 111
4 109 112 113 110
4 112 114 115 113
4 114 116 117 115
4 118 119 120 121
4 119 122 123 120
4 124 125 126 127
4 128 129 130 131
4 131 130 132 133
4 133 132 134 135
4 135 134 136 137
4 137 136 138 139
4 139 138 129 128
4 129 140 141 130
4 130 141 142 132
4 132 142 143 134
4 134 143 144 136
4 136 144 145 138
4 138 145 140 129
4 146 147 148 149
4 149 148 150 151
4 151 150 152 153
4 153 152 154 155
4 155 154 156 157
4 157 156 147 146
4 158 159 160 161
4 161 160 162 163
4 163 162 164 165
4 165 164 166 167
4 167 166 168 169
4 169 168 159 158
4 159 170 171 160
4 160 171 172 162
4 162 172 173 164
4 164 173 174 166
4 166 174 175 168
4 168 175 170 159
4 170 176 177 171
4 171 177 178 172
4 172 178 179 173
4 173 179 180 174
4 174 180 181 175
4 175 181 176 170
4 176 182 183 177
4 177 183 184 178
4 178 184 185 179
4 179 185 186 180
4 180 186 187 181
4 181 187 182 176
4 182 188 189 183
4 183 189 190 184
4 184 190 191 185
4 185 191 192 186
4 186 192 193 187
4 187 193 188 182
4 188 194 195 189
4 189 195 196 190
4 190 196 197 191
4 191 197 198 192
4 192 198 199 193
4 193 199 194 188
4 194 128 131 195
4 195 131 133 196
4 196 133 135 197
4 197 135 137 198
4 198 137 139 199
4 199 139 128 194
4 200 201 202 203
4 203 202 204 205
4 205 204 206 207
4 207 206 208 209
4 209 208 210 211
4 211 210 201 200
4 201 212 213 202
4 202 213 214 204
4 204 214 215 206
4 206 215 216 208
4 208 216 217 210
4 210 217 212 201
4 218 219 220 221
4 221 220 222 223
4 223 222 224 225
4 225 224 226 227
4 227 226 228 229
4 229 228 219 218
4 230 231 232 233
4 233 232 234 235
4 235 234 236 237
4 237 236 238 239
4 239 238 240 241
4 241 240 231 230
4 231 242 243 232
4 232 243 244 234
4 234 244 245 236
4 236 245 246 238
4 238 246 247 240
4 240 247 242 231
4 242 248 249 243
4 243 249 250 244
4 244 250 251 245
4 245 251 252 246
4 246 252 253 247
4 247 253 248 242
4 248 254 255 249
4 249 255 256 250
4 250 256 257 251
4 251 257 258 252
4 252 258 259 253
4 253 259 254 248
4 254 260 261 255
4 255 261 262 256
4 256 262 263 257
4 257 263 264 258
4 258 264 265 259
4 259 265 260 254
4 260 266 267 261
4 261 267 268 262
4 262 268 269 263
4 263 269 270 264
4 264 270 271 265
4 265 271 266 260
4 266 200 203 267
4 267 203 205 268
4 268 205 207 269
4 269 207 209 270
4 270 209 211 271
4 271 211 200 266
4 272 273 274 275
4 275 274 276 277
4 277 276 278 279
4 279 278 280 281
4 281 280 282 283
4 283 282 284 285
4 285 284 286 287
4 287 286 288 289
3 276 274 273
3 273 290 288
3 288 286 284
3 284 282 280
3 280 278 276
3 276 273 288
3 288 284 280
3 288 280 276
4 289 288 290 291
4 291 290 273 272
3 291 272 275
3 275 277 279
3 279 281 283
3 283 285 287
3 287 289 291
3 291 275 279
3 279 283 287
3 279 287 291
3 292 293 294
3 295 296 297
3 292 294 295
3 297 298 299
3 299 292 295
3 295 297 299
3 300 296 295
3 294 293 301
3 300 295 294
3 302 303 300
3 304 305 302
3 306 307 304
3 308 309 306
3 294 301 308
3 302 300 294
3 306 304 302
3 294 308 306
3 294 306 302
4 296 300 310 297
4 311 312 313 314
4 300 303 315 310
3 297 310 315
3 315 316 317
3 317 318 319
3 319 320 321
3 321 322 323
3 323 292 299
3 298 297 315
3 323 299 298
3 319 321 323
3 315 317 319
3 323 298 315
3 315 319 323
4 317 316 302 305
4 318 317 305 304
4 319 318 304 307
4 320 319 307 306
4 321 320 306 309
4 322 321 309 308
4 323 322 308 301
4 292 323 301 293
4 324 325 326 327
4 325 328 329 326
4 328 330 331 329
4 330 332 333 331
4 332 334 335 333
4 334 336 337 335
4 336 338 339 337
4 338 340 341 339
3 327 326 329
3 329 331 333
3 333 335 337
3 337 339 341
3 341 342 327
3 327 329 333
3 333 337 341
3 333 341 327
4 340 343 342 341
4 343 324 327 342
3 325 324 343
3 343 340 338
3 338 336 334
3 334 332 330
3 330 328 325
3 325 343 338
3 338 334 330
3 338 330 325
4 344 345 346 347
4 345 348 349 346
4 348 350 351 349
4 350 344 347 351
4 345 344 350 348
4 349 351 347 346
4 352 353 354 355
4 353 356 357 354
4 356 358 359 357
4 358 360 361 359
4 360 362 363 361
4 362 364 365 363
4 364 366 367 365
4 366 368 369 367
3 355 354 357
3 357 359 361
3 361 363 365
3 365 367 369
3 369 370 355
3 355 357 361
3 361 365 369
3 361 369 355
4 368 371 370 369
4 371 352 355 370
3 353 352 371
3 371 368 366
3 366 364 362
3 362 360 358
3 358 356 353
3 353 371 366
3 366 362 358
3 366 358 353
4 372 373 374 375
4 373 376 377 374
4 376 378 379 377
4 378 372 375 379
4 373 372 378 376
4 377 379 375 374
4 380 381 382 383
4 383 382 384 385
4 385 384 386 387
4 387 386 388 389
4 389 388 390 391
4 391 390 392 393
4 393 392 394 395
4 395 394 396 397
3 384 382 381
3 381 398 396
3 396 394 392
3 392 390 388
3 388 386 384
3 384 381 396
3 396 392 388
3 396 388 384
4 397 396 398 399
4 399 398 381 380
3 399 380 383
3 383 385 387
3 387 389 391
3 391 393 395
3 395 397 399
3 399 383 387
3 387 391 395
3 387 395 399
4 400 401 402 403
4 403 402 404 405
4 405 404 406 407
4 407 406 401 400
4 403 405 407 400
4 404 402 401 406
4 408 409 410 411
4 411 410 412 413
4 413 412 414 415
4 415 414 416 417
4 417 416 418 419
4 419 418 420 421
4 421 420 422 423
4 423 422 424 425
3 412 410 409
3 409 426 424
3 424 422 420
3 420 418 416
3 416 414 412
3 412 409 424
3 424 420 416
3 424 416 412
4 425 424 426 427
4 427 426 409 408
3 427 408 411
3 411 413 415
3 415 417 419
3 419 421 423
3 423 425 427
3 427 411 415
3 415 419 423
3 415 423 427
4 428 429 430 431
4 431 430 432 433
4 433 432 434 435
4 435 434 429 428
4 431 433 435 428
4 432 430 429 434
4 436 437 438 439
4 439 440 441 436
3 436 441 442
3 442 443 444
3 444 445 446
3 446 447 448
3 448 449 450
3 450 437 436
3 436 442 444
3 444 446 448
3 448 450 436
3 444 448 436
3 440 439 438
3 438 451 452
3 452 453 454
3 454 455 456
3 456 457 458
3 459 440 438
3 456 458 459
3 452 454 456
3 459 438 452
3 452 456 459
3 458 443 442
3 442 441 440
3 459 458 442
3 442 440 459
4 444 443 458 457
4 445 444 457 456
4 446 445 456 455
4 447 446 455 454
4 448 447 454 453
4 449 448 453 452
4 450 449 452 451
4 451 438 437 450
4 460 461 462 463
4 463 462 464 465
4 465 464 466 467
4 467 466 468 469
4 469 468 470 471
4 471 470 461 460
4 461 472 473 462
4 462 473 474 464
4 464 474 475 466
4 466 475 476 468
4 468 476 477 470
4 470 477 472 461
4 478 479 480 481
4 481 480 482 483
4 483 482 484 485
4 485 484 486 487
4 487 486 488 489
4 489 488 479 478
4 490 491 492 493
4 493 492 494 495
4 495 494 496 497
4 497 496 498 499
4 499 498 500 501
4 501 500 491 490
4 491 502 503 492
4 492 503 504 494
4 494 504 505 496
4 496 505 506 498
4 498 506 507 500
4 500 507 502 491
4 502 508 509 503
4 503 509 510 504
4 504 510 511 505
4 505 511 512 506
4 506 512 513 507
4 507 513 508 502
4 508 514 515 509
4 509 515 516 510
4 510 516 517 511
4 511 517 518 512
4 512 518 519 513
4 513 519 514 508
4 514 520 521 515
4 515 521 522 516
4 516 522 523 517
4 517 523 524 518
4 518 524 525 519
4 519 525 520 514
4 520 526 527 521
4 521 527 528 522
4 522 528 529 523
4 523 529 530 524
4 524 530 531 525
4 525 531 526 520
4 526 460 463 527
4 527 463 465 528
4 528 465 467 529
4 529 467 469 530
4 530 469 471 531
4 531 471 460 526
4 532 533 534 535
4 535 534 536 537
4 537 536 538 539
4 539 538 540 541
4 541 540 542 543
4 543 542 533 532
4 533 544 545 534
4 534 545 546 536
4 536 546 547 538
4 538 547 548 540
4 540 548 549 542
4 542 549 544 533
4 550 551 552 553
4 553 552 554 555
4 555 554 556 557
4 557 556 558 559
4 559 558 560 561
4 561 560 551 550
4 562 563 564 565
4 565 564 566 567
4 567 566 568 569
4 569 568 570 571
4 571 570 572 573
4 573 572 563 562
4 563 574 575 564
4 564 575 576 566
4 566 576 577 568
4 568 577 578 570
4 570 578 579 572
4 572 579 574 563
4 574 580 581 575
4 575 581 582 576
4 576 582 583 577
4 577 583 584 578
4 578 584 585 579
4 579 585 580 574
4 580 586 587 581
4 581 587 588 582
4 582 588 589 583
4 583 589 590 584
4 584 590 591 585
4 585 591 586 580
4 586 592 593 587
4 587 593 594 588
4 588 594 595 589
4 589 595 596 590
4 590 596 597 591
4 591 597 592 586
4 592 598 599 593
4 593 599 600 594
4 594 600 601 595
4 595 601 602 596
4 596 602 603 597
4 597 603 598 592
4 598 532 535 599
4 599 535 537 600
4 600 537 539 601
4 601 539 541 602
4 602 541 543 603
4 603 543 532 598
4 604 605 606 607
4 607 606 608 609
4 609 608 610 611
4 611 610 612 613
4 613 612 614 615
4 615 614 616 617
4 617 616 618 619
4 619 618 620 621
3 608 606 605
3 605 622 620
3 620 618 616
3 616 614 612
3 612 610 608
3 608 605 620
3 620 616 612
3 620 612 608
4 621 620 622 623
4 623 622 605 604
3 623 604 607
3 607 609 611
3 611 613 615
3 615 617 619
3 619 621 623
3 623 607 611
3 611 615 619
3 611 619 623
