ply
format ascii 1.0
comment Created by Blender 2.79 (sub 0) - www.blender.org, source file: 'castledoor.blend'
element vertex 624
property float x
property float y
property float z
property float s
property float t
property uchar red
property uchar green
property uchar blue
element face 569
property list uchar uint vertex_indices
end_header
-2.400000 -0.500000 -0.500000 -0.916940 1.995974 255 255 255
-2.500000 -0.500000 -0.500000 -1.019266 1.995974 255 255 255
-2.500000 2.500000 -0.500000 -1.019266 5.065755 255 255 255
0.500000 2.500000 -0.500000 2.050516 5.065755 255 255 255
0.500000 -0.500000 -0.500000 2.050516 1.995974 255 255 255
0.400000 -0.500000 -0.500000 1.948190 1.995974 255 255 255
0.400000 1.000000 -0.500000 1.948190 3.530865 255 255 255
0.400000 1.000000 -0.500000 1.948190 3.530865 255 255 255
0.400000 1.000000 -0.500000 1.948190 3.530865 255 255 255
-2.400000 1.000001 -0.500000 -0.916940 3.530866 255 255 255
-2.400000 1.000000 -0.500000 -0.916940 3.530865 255 255 255
0.373100 1.273124 -0.500000 1.920664 3.810343 255 255 255
-2.373099 1.273127 -0.500000 -0.889414 3.810346 255 255 255
-2.293431 1.535758 -0.500000 -0.807892 4.079085 255 255 255
0.293432 1.535755 -0.500000 1.839143 4.079082 255 255 255
0.164058 1.777797 -0.500000 1.706761 4.326754 255 255 255
-2.164057 1.777799 -0.500000 -0.675509 4.326756 255 255 255
-1.989949 1.989950 -0.500000 -0.497351 4.543841 255 255 255
-0.010049 1.989948 -0.500000 1.528603 4.543840 255 255 255
-0.222200 2.164057 -0.500000 1.311517 4.721999 255 255 255
-1.777797 2.164058 -0.500000 -0.280264 4.722000 255 255 255
-1.535756 2.293432 -0.500000 -0.032593 4.854383 255 255 255
-0.464242 2.293431 -0.500000 1.063845 4.854383 255 255 255
-0.726872 2.373099 -0.500000 0.795106 4.935904 255 255 255
-1.273125 2.373100 -0.500000 0.236147 4.935904 255 255 255
-0.999999 2.400000 -0.500000 0.515626 4.963431 255 255 255
-2.500000 -0.500000 -0.500000 -4.042159 -1.046605 255 255 255
-2.400000 -0.500000 -0.500000 -4.042159 -0.945321 255 255 255
-2.400000 -0.500000 0.500000 -1.003636 -0.945321 255 255 255
-2.500000 -0.500000 0.500000 -1.003636 -1.046605 255 255 255
-2.500000 2.500000 -0.500000 3.440715 -3.291536 255 255 255
-2.500000 -0.500000 -0.500000 3.440715 -0.364339 255 255 255
-2.500000 -0.500000 0.500000 2.159987 -0.364338 255 255 255
-2.500000 2.500000 0.500000 2.159987 -3.291536 255 255 255
0.500000 2.500000 0.500000 1.481242 1.870838 255 255 255
0.500000 2.500000 -0.500000 1.481241 0.546342 255 255 255
-2.500000 2.500000 -0.500000 4.508474 0.546342 255 255 255
-2.500000 2.500000 0.500000 4.508474 1.870838 255 255 255
0.500000 -0.500000 -0.500000 0.879260 1.282134 255 255 255
0.500000 2.500000 -0.500000 0.879260 -1.645065 255 255 255
0.500000 2.500000 0.500000 -0.401467 -1.645065 255 255 255
0.500000 -0.500000 0.500000 -0.401467 1.282134 255 255 255
0.500000 -0.500000 -0.500000 2.034887 1.991918 255 255 255
0.500000 -0.500000 0.500000 5.073408 1.991918 255 255 255
0.400000 -0.500000 0.500000 5.073408 1.890634 255 255 255
0.400000 -0.500000 -0.500000 2.034887 1.890634 255 255 255
0.400000 -0.500000 0.500000 1.933602 1.991918 255 255 255
0.500000 -0.500000 0.500000 2.034887 1.991918 255 255 255
0.500000 2.500000 0.500000 2.034887 5.030439 255 255 255
-2.500000 2.500000 0.500000 -1.003636 5.030439 255 255 255
-2.500000 -0.500000 0.500000 -1.003636 1.991918 255 255 255
-2.400000 -0.500000 0.500000 -0.902352 1.991918 255 255 255
-2.400000 1.000000 0.500000 -0.902352 3.511179 255 255 255
0.400000 1.000000 0.500000 1.933602 3.511179 255 255 255
0.400000 1.000000 0.500000 1.933602 3.511179 255 255 255
0.373100 1.273124 0.500000 1.906357 3.787811 255 255 255
0.400000 1.000000 0.500000 1.933602 3.511179 255 255 255
0.293432 1.535755 0.500000 1.825666 4.053814 255 255 255
0.164058 1.777797 0.500000 1.694631 4.298963 255 255 255
-0.010049 1.989948 0.500000 1.518288 4.513839 255 255 255
-0.222200 2.164057 0.500000 1.303412 4.690182 255 255 255
-0.464242 2.293431 0.500000 1.058263 4.821218 255 255 255
-0.726872 2.373099 0.500000 0.792260 4.901910 255 255 255
-0.999999 2.400000 0.500000 0.515626 4.929157 255 255 255
-1.273125 2.373100 0.500000 0.238993 4.901910 255 255 255
-1.535756 2.293432 0.500000 -0.027010 4.821219 255 255 255
-1.777797 2.164058 0.500000 -0.272160 4.690185 255 255 255
-1.989949 1.989950 0.500000 -0.487036 4.513840 255 255 255
-2.164057 1.777799 0.500000 -0.663380 4.298965 255 255 255
-2.293431 1.535757 0.500000 -0.794415 4.053816 255 255 255
-2.373099 1.273127 0.500000 -0.875106 3.787814 255 255 255
-2.400000 1.000000 0.500000 -0.902352 3.511179 255 255 255
-2.400000 1.000000 0.500000 -1.211538 -1.469249 255 255 255
-2.400000 -0.500000 0.500000 -1.211538 -3.019236 255 255 255
-2.400000 -0.500000 -0.500000 -4.311507 -3.019235 255 255 255
-2.400000 1.000000 -0.500000 -4.311507 -1.469249 255 255 255
-2.400000 1.000000 -0.500000 2.034887 -2.565866 255 255 255
-2.400000 1.000001 -0.500000 2.034887 -2.565866 255 255 255
-2.400000 1.000000 0.500000 5.073408 -2.565866 255 255 255
-2.400000 1.000000 0.500000 5.073408 -2.565866 255 255 255
-2.400000 1.000001 -0.500000 1.888434 -1.469250 255 255 255
-2.373099 1.273127 -0.500000 1.888434 -1.187021 255 255 255
-2.373099 1.273127 0.500000 4.988404 -1.187022 255 255 255
-2.400000 1.000000 0.500000 4.988404 -1.469250 255 255 255
-2.293431 1.535758 -0.500000 1.888434 -0.915638 255 255 255
-2.293431 1.535757 0.500000 4.988404 -0.915640 255 255 255
-2.164057 1.777799 -0.500000 1.888434 -0.665531 255 255 255
-2.164057 1.777799 0.500000 4.988404 -0.665532 255 255 255
-1.989949 1.989950 -0.500000 1.888434 -0.446311 255 255 255
-1.989949 1.989950 0.500000 4.988404 -0.446311 255 255 255
-1.989949 1.989950 -0.500000 1.888434 0.607784 255 255 255
-1.777797 2.164058 -0.500000 1.888434 0.827005 255 255 255
-1.777797 2.164058 0.500000 4.988404 0.827004 255 255 255
-1.989949 1.989950 0.500000 4.988404 0.607783 255 255 255
-1.535756 2.293432 -0.500000 1.888434 1.077112 255 255 255
-1.535756 2.293432 0.500000 4.988404 1.077112 255 255 255
-1.273125 2.373100 -0.500000 1.888435 1.348495 255 255 255
-1.273125 2.373100 0.500000 4.988404 1.348494 255 255 255
-0.999999 2.400000 -0.500000 1.888435 1.630723 255 255 255
-0.999999 2.400000 0.500000 4.988404 1.630722 255 255 255
-0.726872 2.373099 -0.500000 1.888435 1.912951 255 255 255
-0.726872 2.373099 0.500000 4.988404 1.912950 255 255 255
-0.464242 2.293431 -0.500000 1.888435 2.184334 255 255 255
-0.464242 2.293431 0.500000 4.988403 2.184333 255 255 255
-0.222200 2.164057 -0.500000 1.888434 2.434441 255 255 255
-0.222200 2.164057 0.500000 4.988404 2.434440 255 255 255
-0.010049 1.989948 -0.500000 1.888434 2.653661 255 255 255
-0.010049 1.989948 0.500000 4.988404 2.653661 255 255 255
-0.010049 1.989948 -0.500000 1.888434 -0.446312 255 255 255
0.164058 1.777797 -0.500000 1.888434 -0.665534 255 255 255
0.164058 1.777797 0.500000 4.988404 -0.665535 255 255 255
-0.010049 1.989948 0.500000 4.988404 -0.446313 255 255 255
0.293432 1.535755 -0.500000 1.888434 -0.915641 255 255 255
0.293432 1.535755 0.500000 4.988403 -0.915642 255 255 255
0.373100 1.273124 -0.500000 1.888434 -1.187024 255 255 255
0.373100 1.273124 0.500000 4.988404 -1.187024 255 255 255
0.400000 1.000000 -0.500000 1.888434 -1.469250 255 255 255
0.400000 1.000000 0.500000 4.988404 -1.469250 255 255 255
0.400000 1.000000 -0.500000 2.034887 -2.565866 255 255 255
0.400000 1.000000 -0.500000 2.034887 -2.565866 255 255 255
0.400000 1.000000 0.500000 5.073408 -2.565866 255 255 255
0.400000 1.000000 0.500000 5.073408 -2.565866 255 255 255
0.400000 1.000000 -0.500000 2.034887 -2.565866 255 255 255
0.400000 1.000000 0.500000 5.073408 -2.565866 255 255 255
0.400000 1.000000 -0.500000 1.888434 -1.469250 255 255 255
0.400000 -0.500000 -0.500000 1.888433 -3.019236 255 255 255
0.400000 -0.500000 0.500000 4.988404 -3.019237 255 255 255
0.400000 1.000000 0.500000 4.988404 -1.469250 255 255 255
-2.400000 0.900000 0.550000 0.000000 0.000000 128 128 128
-2.400000 1.100000 0.550000 0.000000 0.000000 128 128 128
-2.429389 1.100000 0.540451 0.000000 0.000000 128 128 128
-2.429389 0.900000 0.540451 0.000000 0.000000 128 128 128
-2.447553 1.100000 0.515451 0.000000 0.000000 128 128 128
-2.447553 0.900000 0.515451 0.000000 0.000000 128 128 128
-2.447553 1.100000 0.484549 0.000000 0.000000 128 128 128
-2.447553 0.900000 0.484549 0.000000 0.000000 128 128 128
-2.429389 1.100000 0.459550 0.000000 0.000000 128 128 128
-2.429389 0.900000 0.459550 0.000000 0.000000 128 128 128
-2.400000 1.100000 0.450000 0.000000 0.000000 128 128 128
-2.400000 0.900000 0.450000 0.000000 0.000000 128 128 128
-2.370611 1.100000 0.459550 0.000000 0.000000 128 128 128
-2.370611 0.900000 0.459550 0.000000 0.000000 128 128 128
-2.352447 1.100000 0.484549 0.000000 0.000000 128 128 128
-2.352447 0.900000 0.484549 0.000000 0.000000 128 128 128
-2.352447 1.100000 0.515451 0.000000 0.000000 128 128 128
-2.352447 0.900000 0.515451 0.000000 0.000000 128 128 128
-2.370611 1.100000 0.540451 0.000000 0.000000 128 128 128
-2.370611 0.900000 0.540451 0.000000 0.000000 128 128 128
-1.590000 0.950000 0.420000 0.000000 0.000000 128 128 128
-1.590000 1.050000 0.420000 0.000000 0.000000 128 128 128
-1.590000 1.050000 0.520000 0.000000 0.000000 128 128 128
-1.590000 0.950000 0.520000 0.000000 0.000000 128 128 128
-2.390000 1.050000 0.520000 0.000000 0.000000 128 128 128
-2.390000 0.950000 0.520000 0.000000 0.000000 128 128 128
-2.390000 1.050000 0.420000 0.000000 0.000000 128 128 128
-2.390000 0.950000 0.420000 0.000000 0.000000 128 128 128
-2.400000 -0.100000 0.550000 0.000000 0.000000 128 128 128
-2.400000 0.100000 0.550000 0.000000 0.000000 128 128 128
-2.429389 0.100000 0.540451 0.000000 0.000000 128 128 128
-2.429389 -0.100000 0.540451 0.000000 0.000000 128 128 128
-2.447553 0.100000 0.515451 0.000000 0.000000 128 128 128
-2.447553 -0.100000 0.515451 0.000000 0.000000 128 128 128
-2.447553 0.100000 0.484549 0.000000 0.000000 128 128 128
-2.447553 -0.100000 0.484549 0.000000 0.000000 128 128 128
-2.429389 0.100000 0.459550 0.000000 0.000000 128 128 128
-2.429389 -0.100000 0.459550 0.000000 0.000000 128 128 128
-2.400000 0.100000 0.450000 0.000000 0.000000 128 128 128
-2.400000 -0.100000 0.450000 0.000000 0.000000 128 128 128
-2.370611 0.100000 0.459550 0.000000 0.000000 128 128 128
-2.370611 -0.100000 0.459550 0.000000 0.000000 128 128 128
-2.352447 0.100000 0.484549 0.000000 0.000000 128 128 128
-2.352447 -0.100000 0.484549 0.000000 0.000000 128 128 128
-2.352447 0.100000 0.515451 0.000000 0.000000 128 128 128
-2.352447 -0.100000 0.515451 0.000000 0.000000 128 128 128
-2.370611 0.100000 0.540451 0.000000 0.000000 128 128 128
-2.370611 -0.100000 0.540451 0.000000 0.000000 128 128 128
-1.590000 -0.050000 0.420000 0.000000 0.000000 128 128 128
-1.590000 0.050000 0.420000 0.000000 0.000000 128 128 128
-1.590000 0.050000 0.520000 0.000000 0.000000 128 128 128
-1.590000 -0.050000 0.520000 0.000000 0.000000 128 128 128
-2.390000 0.050000 0.520000 0.000000 0.000000 128 128 128
-2.390000 -0.050000 0.520000 0.000000 0.000000 128 128 128
-2.390000 0.050000 0.420000 0.000000 0.000000 128 128 128
-2.390000 -0.050000 0.420000 0.000000 0.000000 128 128 128
-1.000000 -0.500000 0.400000 0.000000 0.000000 160 82 45
-1.000000 2.400000 0.400000 0.000000 0.000000 160 82 45
-1.000000 2.400000 0.500000 0.000000 0.000000 160 82 45
-1.000000 -0.500000 0.500000 0.000000 0.000000 160 82 45
-2.400000 -0.500000 0.500000 0.000000 0.000000 160 82 45
-2.400000 -0.500000 0.400000 0.000000 0.000000 160 82 45
-2.400000 1.000000 0.400000 0.000000 0.000000 160 82 45
-2.400000 1.000001 0.400000 0.000000 0.000000 160 82 45
-2.373099 1.273127 0.400000 0.000000 0.000000 160 82 45
-2.293431 1.535758 0.400000 0.000000 0.000000 160 82 45
-2.164057 1.777799 0.400000 0.000000 0.000000 160 82 45
-1.989949 1.989950 0.400000 0.000000 0.000000 160 82 45
-1.777797 2.164058 0.400000 0.000000 0.000000 160 82 45
-1.535756 2.293432 0.400000 0.000000 0.000000 160 82 45
-1.273125 2.373100 0.400000 0.000000 0.000000 160 82 45
-1.273125 2.373100 0.500000 0.000000 0.000000 160 82 45
-1.535756 2.293432 0.500000 0.000000 0.000000 160 82 45
-1.777797 2.164058 0.500000 0.000000 0.000000 160 82 45
-1.989949 1.989950 0.500000 0.000000 0.000000 160 82 45
-2.164057 1.777799 0.500000 0.000000 0.000000 160 82 45
-2.293431 1.535757 0.500000 0.000000 0.000000 160 82 45
-2.373099 1.273127 0.500000 0.000000 0.000000 160 82 45
-2.400000 1.000000 0.500000 0.000000 0.000000 160 82 45
-2.400000 1.000000 0.500000 0.000000 0.000000 160 82 45
-1.290000 0.420000 0.530001 0.000000 0.000000 128 128 128
-1.272811 0.472901 0.530001 0.000000 0.000000 128 128 128
-1.268766 0.469962 0.521340 0.000000 0.000000 128 128 128
-1.285000 0.420000 0.521340 0.000000 0.000000 128 128 128
-1.260676 0.464084 0.521340 0.000000 0.000000 128 128 128
-1.275000 0.420000 0.521340 0.000000 0.000000 128 128 128
-1.256631 0.461145 0.530001 0.000000 0.000000 128 128 128
-1.270000 0.420000 0.530001 0.000000 0.000000 128 128 128
-1.260676 0.464084 0.538661 0.000000 0.000000 128 128 128
-1.275000 0.420000 0.538661 0.000000 0.000000 128 128 128
-1.268766 0.469962 0.538661 0.000000 0.000000 128 128 128
-1.285000 0.420000 0.538661 0.000000 0.000000 128 128 128
-1.227811 0.505595 0.530001 0.000000 0.000000 128 128 128
-1.226266 0.500840 0.521340 0.000000 0.000000 128 128 128
-1.223176 0.491329 0.521340 0.000000 0.000000 128 128 128
-1.221631 0.486574 0.530001 0.000000 0.000000 128 128 128
-1.223176 0.491329 0.538661 0.000000 0.000000 128 128 128
-1.226266 0.500840 0.538661 0.000000 0.000000 128 128 128
-1.227811 0.505595 0.530001 0.000000 0.000000 255 255 255
-1.172188 0.505595 0.530001 0.000000 0.000000 255 255 255
-1.173733 0.500840 0.521340 0.000000 0.000000 255 255 255
-1.226266 0.500840 0.521340 0.000000 0.000000 255 255 255
-1.176824 0.491329 0.521340 0.000000 0.000000 255 255 255
-1.223176 0.491329 0.521340 0.000000 0.000000 255 255 255
-1.178369 0.486574 0.530001 0.000000 0.000000 255 255 255
-1.221631 0.486574 0.530001 0.000000 0.000000 255 255 255
-1.176824 0.491329 0.538661 0.000000 0.000000 255 255 255
-1.223176 0.491329 0.538661 0.000000 0.000000 255 255 255
-1.173733 0.500840 0.538661 0.000000 0.000000 255 255 255
-1.226266 0.500840 0.538661 0.000000 0.000000 255 255 255
-1.172188 0.505595 0.530001 0.000000 0.000000 128 128 128
-1.127188 0.472901 0.530001 0.000000 0.000000 128 128 128
-1.131233 0.469962 0.521340 0.000000 0.000000 128 128 128
-1.173733 0.500840 0.521340 0.000000 0.000000 128 128 128
-1.139324 0.464084 0.521340 0.000000 0.000000 128 128 128
-1.176824 0.491329 0.521340 0.000000 0.000000 128 128 128
-1.143369 0.461145 0.530001 0.000000 0.000000 128 128 128
-1.178369 0.486574 0.530001 0.000000 0.000000 128 128 128
-1.139324 0.464084 0.538661 0.000000 0.000000 128 128 128
-1.176824 0.491329 0.538661 0.000000 0.000000 128 128 128
-1.131233 0.469962 0.538661 0.000000 0.000000 128 128 128
-1.173733 0.500840 0.538661 0.000000 0.000000 128 128 128
-1.110000 0.420000 0.530001 0.000000 0.000000 128 128 128
-1.115000 0.420000 0.521340 0.000000 0.000000 128 128 128
-1.125000 0.420000 0.521340 0.000000 0.000000 128 128 128
-1.130000 0.420000 0.530001 0.000000 0.000000 128 128 128
-1.125000 0.420000 0.538661 0.000000 0.000000 128 128 128
-1.115000 0.420000 0.538661 0.000000 0.000000 128 128 128
-1.127188 0.367099 0.530001 0.000000 0.000000 128 128 128
-1.131233 0.370038 0.521340 0.000000 0.000000 128 128 128
-1.139324 0.375916 0.521340 0.000000 0.000000 128 128 128
-1.143369 0.378855 0.530001 0.000000 0.000000 128 128 128
-1.139324 0.375916 0.538661 0.000000 0.000000 128 128 128
-1.131233 0.370038 0.538661 0.000000 0.000000 128 128 128
-1.172188 0.334405 0.530001 0.000000 0.000000 128 128 128
-1.173733 0.339160 0.521340 0.000000 0.000000 128 128 128
-1.176824 0.348671 0.521340 0.000000 0.000000 128 128 128
-1.178369 0.353426 0.530001 0.000000 0.000000 128 128 128
-1.176824 0.348671 0.538661 0.000000 0.000000 128 128 128
-1.173733 0.339160 0.538661 0.000000 0.000000 128 128 128
-1.227811 0.334405 0.530001 0.000000 0.000000 128 128 128
-1.226266 0.339160 0.521340 0.000000 0.000000 128 128 128
-1.223176 0.348671 0.521340 0.000000 0.000000 128 128 128
-1.221631 0.353426 0.530001 0.000000 0.000000 128 128 128
-1.223176 0.348671 0.538661 0.000000 0.000000 128 128 128
-1.226266 0.339160 0.538661 0.000000 0.000000 128 128 128
-1.272811 0.367099 0.530001 0.000000 0.000000 128 128 128
-1.268766 0.370038 0.521340 0.000000 0.000000 128 128 128
-1.260676 0.375916 0.521340 0.000000 0.000000 128 128 128
-1.256631 0.378855 0.530001 0.000000 0.000000 128 128 128
-1.260676 0.375916 0.538661 0.000000 0.000000 128 128 128
-1.268766 0.370038 0.538661 0.000000 0.000000 128 128 128
-1.290000 0.420000 0.370001 0.000000 0.000000 128 128 128
-1.272812 0.472901 0.370001 0.000000 0.000000 128 128 128
-1.268766 0.469962 0.361340 0.000000 0.000000 128 128 128
-1.285000 0.420000 0.361340 0.000000 0.000000 128 128 128
-1.260676 0.464084 0.361340 0.000000 0.000000 128 128 128
-1.275000 0.420000 0.361340 0.000000 0.000000 128 128 128
-1.256631 0.461145 0.370001 0.000000 0.000000 128 128 128
-1.270000 0.420000 0.370001 0.000000 0.000000 128 128 128
-1.260676 0.464084 0.378661 0.000000 0.000000 128 128 128
-1.275000 0.420000 0.378661 0.000000 0.000000 128 128 128
-1.268766 0.469962 0.378661 0.000000 0.000000 128 128 128
-1.285000 0.420000 0.378661 0.000000 0.000000 128 128 128
-1.227812 0.505595 0.370001 0.000000 0.000000 128 128 128
-1.226266 0.500840 0.361340 0.000000 0.000000 128 128 128
-1.223176 0.491329 0.361340 0.000000 0.000000 128 128 128
-1.221631 0.486574 0.370001 0.000000 0.000000 128 128 128
-1.223176 0.491329 0.378661 0.000000 0.000000 128 128 128
-1.226266 0.500840 0.378661 0.000000 0.000000 128 128 128
-1.227812 0.505595 0.370001 0.000000 0.000000 255 255 255
-1.172189 0.505595 0.370001 0.000000 0.000000 255 255 255
-1.173734 0.500840 0.361340 0.000000 0.000000 255 255 255
-1.226266 0.500840 0.361340 0.000000 0.000000 255 255 255
-1.176824 0.491329 0.361340 0.000000 0.000000 255 255 255
-1.223176 0.491329 0.361340 0.000000 0.000000 255 255 255
-1.178369 0.486574 0.370001 0.000000 0.000000 255 255 255
-1.221631 0.486574 0.370001 0.000000 0.000000 255 255 255
-1.176824 0.491329 0.378661 0.000000 0.000000 255 255 255
-1.223176 0.491329 0.378661 0.000000 0.000000 255 255 255
-1.173734 0.500840 0.378661 0.000000 0.000000 255 255 255
-1.226266 0.500840 0.378661 0.000000 0.000000 255 255 255
-1.172189 0.505595 0.370001 0.000000 0.000000 128 128 128
-1.127188 0.472901 0.370001 0.000000 0.000000 128 128 128
-1.131234 0.469962 0.361340 0.000000 0.000000 128 128 128
-1.173734 0.500840 0.361340 0.000000 0.000000 128 128 128
-1.139324 0.464084 0.361340 0.000000 0.000000 128 128 128
-1.176824 0.491329 0.361340 0.000000 0.000000 128 128 128
-1.143369 0.461145 0.370001 0.000000 0.000000 128 128 128
-1.178369 0.486574 0.370001 0.000000 0.000000 128 128 128
-1.139324 0.464084 0.378661 0.000000 0.000000 128 128 128
-1.176824 0.491329 0.378661 0.000000 0.000000 128 128 128
-1.131234 0.469962 0.378661 0.000000 0.000000 128 128 128
-1.173734 0.500840 0.378661 0.000000 0.000000 128 128 128
-1.110000 0.420000 0.370001 0.000000 0.000000 128 128 128
-1.115000 0.420000 0.361340 0.000000 0.000000 128 128 128
-1.125000 0.420000 0.361340 0.000000 0.000000 128 128 128
-1.130000 0.420000 0.370001 0.000000 0.000000 128 128 128
-1.125000 0.420000 0.378661 0.000000 0.000000 128 128 128
-1.115000 0.420000 0.378661 0.000000 0.000000 128 128 128
-1.127188 0.367099 0.370001 0.000000 0.000000 128 128 128
-1.131234 0.370038 0.361340 0.000000 0.000000 128 128 128
-1.139324 0.375916 0.361340 0.000000 0.000000 128 128 128
-1.143369 0.378855 0.370001 0.000000 0.000000 128 128 128
-1.139324 0.375916 0.378661 0.000000 0.000000 128 128 128
-1.131234 0.370038 0.378661 0.000000 0.000000 128 128 128
-1.172189 0.334405 0.370001 0.000000 0.000000 128 128 128
-1.173734 0.339160 0.361340 0.000000 0.000000 128 128 128
-1.176824 0.348671 0.361340 0.000000 0.000000 128 128 128
-1.178369 0.353426 0.370001 0.000000 0.000000 128 128 128
-1.176824 0.348671 0.378661 0.000000 0.000000 128 128 128
-1.173734 0.339160 0.378661 0.000000 0.000000 128 128 128
-1.227812 0.334405 0.370001 0.000000 0.000000 128 128 128
-1.226266 0.339160 0.361340 0.000000 0.000000 128 128 128
-1.223176 0.348671 0.361340 0.000000 0.000000 128 128 128
-1.221631 0.353426 0.370001 0.000000 0.000000 128 128 128
-1.223176 0.348671 0.378661 0.000000 0.000000 128 128 128
-1.226266 0.339160 0.378661 0.000000 0.000000 128 128 128
-1.272812 0.367099 0.370001 0.000000 0.000000 128 128 128
-1.268766 0.370038 0.361340 0.000000 0.000000 128 128 128
-1.260676 0.375916 0.361340 0.000000 0.000000 128 128 128
-1.256631 0.378855 0.370001 0.000000 0.000000 128 128 128
-1.260676 0.375916 0.378661 0.000000 0.000000 128 128 128
-1.268766 0.370038 0.378661 0.000000 0.000000 128 128 128
-1.200000 0.550000 0.550000 0.000000 0.000000 128 128 128
-1.200000 0.550000 0.350000 0.000000 0.000000 128 128 128
-1.229389 0.540451 0.350000 0.000000 0.000000 128 128 128
-1.229389 0.540451 0.550000 0.000000 0.000000 128 128 128
-1.247553 0.515451 0.350000 0.000000 0.000000 128 128 128
-1.247553 0.515451 0.550000 0.000000 0.000000 128 128 128
-1.247553 0.484549 0.350000 0.000000 0.000000 128 128 128
-1.247553 0.484549 0.550000 0.000000 0.000000 128 128 128
-1.229389 0.459549 0.350000 0.000000 0.000000 128 128 128
-1.229389 0.459549 0.550000 0.000000 0.000000 128 128 128
-1.200000 0.450000 0.350000 0.000000 0.000000 128 128 128
-1.200000 0.450000 0.550000 0.000000 0.000000 128 128 128
-1.170611 0.459549 0.350000 0.000000 0.000000 128 128 128
-1.170611 0.459549 0.550000 0.000000 0.000000 128 128 128
-1.152447 0.484549 0.350000 0.000000 0.000000 128 128 128
-1.152447 0.484549 0.550000 0.000000 0.000000 128 128 128
-1.152447 0.515451 0.350000 0.000000 0.000000 128 128 128
-1.152447 0.515451 0.550000 0.000000 0.000000 128 128 128
-1.170611 0.540451 0.350000 0.000000 0.000000 128 128 128
-1.170611 0.540451 0.550000 0.000000 0.000000 128 128 128
-0.890000 0.420000 0.530000 0.000000 0.000000 128 128 128
-0.872811 0.472901 0.530000 0.000000 0.000000 128 128 128
-0.868766 0.469962 0.521340 0.000000 0.000000 128 128 128
-0.885000 0.420000 0.521340 0.000000 0.000000 128 128 128
-0.860676 0.464084 0.521340 0.000000 0.000000 128 128 128
-0.875000 0.420000 0.521340 0.000000 0.000000 128 128 128
-0.856631 0.461145 0.530000 0.000000 0.000000 128 128 128
-0.870000 0.420000 0.530000 0.000000 0.000000 128 128 128
-0.860676 0.464084 0.538661 0.000000 0.000000 128 128 128
-0.875000 0.420000 0.538661 0.000000 0.000000 128 128 128
-0.868766 0.469962 0.538661 0.000000 0.000000 128 128 128
-0.885000 0.420000 0.538661 0.000000 0.000000 128 128 128
-0.827811 0.505595 0.530000 0.000000 0.000000 128 128 128
-0.826266 0.500840 0.521340 0.000000 0.000000 128 128 128
-0.823176 0.491329 0.521340 0.000000 0.000000 128 128 128
-0.821631 0.486574 0.530000 0.000000 0.000000 128 128 128
-0.823176 0.491329 0.538661 0.000000 0.000000 128 128 128
-0.826266 0.500840 0.538661 0.000000 0.000000 128 128 128
-0.827811 0.505595 0.530000 0.000000 0.000000 255 255 255
-0.772188 0.505595 0.530000 0.000000 0.000000 255 255 255
-0.773733 0.500840 0.521340 0.000000 0.000000 255 255 255
-0.826266 0.500840 0.521340 0.000000 0.000000 255 255 255
-0.776824 0.491329 0.521340 0.000000 0.000000 255 255 255
-0.823176 0.491329 0.521340 0.000000 0.000000 255 255 255
-0.778369 0.486574 0.530000 0.000000 0.000000 255 255 255
-0.821631 0.486574 0.530000 0.000000 0.000000 255 255 255
-0.776824 0.491329 0.538661 0.000000 0.000000 255 255 255
-0.823176 0.491329 0.538661 0.000000 0.000000 255 255 255
-0.773733 0.500840 0.538661 0.000000 0.000000 255 255 255
-0.826266 0.500840 0.538661 0.000000 0.000000 255 255 255
-0.772188 0.505595 0.530000 0.000000 0.000000 128 128 128
-0.727188 0.472901 0.530000 0.000000 0.000000 128 128 128
-0.731233 0.469962 0.521340 0.000000 0.000000 128 128 128
-0.773733 0.500840 0.521340 0.000000 0.000000 128 128 128
-0.739324 0.464084 0.521340 0.000000 0.000000 128 128 128
-0.776824 0.491329 0.521340 0.000000 0.000000 128 128 128
-0.743369 0.461145 0.530000 0.000000 0.000000 128 128 128
-0.778369 0.486574 0.530000 0.000000 0.000000 128 128 128
-0.739324 0.464084 0.538661 0.000000 0.000000 128 128 128
-0.776824 0.491329 0.538661 0.000000 0.000000 128 128 128
-0.731233 0.469962 0.538661 0.000000 0.000000 128 128 128
-0.773733 0.500840 0.538661 0.000000 0.000000 128 128 128
-0.710000 0.420000 0.530000 0.000000 0.000000 128 128 128
-0.715000 0.420000 0.521340 0.000000 0.000000 128 128 128
-0.725000 0.420000 0.521340 0.000000 0.000000 128 128 128
-0.730000 0.420000 0.530000 0.000000 0.000000 128 128 128
-0.725000 0.420000 0.538661 0.000000 0.000000 128 128 128
-0.715000 0.420000 0.538661 0.000000 0.000000 128 128 128
-0.727188 0.367099 0.530000 0.000000 0.000000 128 128 128
-0.731233 0.370038 0.521340 0.000000 0.000000 128 128 128
-0.739324 0.375916 0.521340 0.000000 0.000000 128 128 128
-0.743369 0.378855 0.530000 0.000000 0.000000 128 128 128
-0.739324 0.375916 0.538661 0.000000 0.000000 128 128 128
-0.731233 0.370038 0.538661 0.000000 0.000000 128 128 128
-0.772188 0.334405 0.530000 0.000000 0.000000 128 128 128
-0.773733 0.339160 0.521340 0.000000 0.000000 128 128 128
-0.776824 0.348671 0.521340 0.000000 0.000000 128 128 128
-0.778369 0.353426 0.530000 0.000000 0.000000 128 128 128
-0.776824 0.348671 0.538661 0.000000 0.000000 128 128 128
-0.773733 0.339160 0.538661 0.000000 0.000000 128 128 128
-0.827811 0.334405 0.530000 0.000000 0.000000 128 128 128
-0.826266 0.339160 0.521340 0.000000 0.000000 128 128 128
-0.823176 0.348671 0.521340 0.000000 0.000000 128 128 128
-0.821631 0.353426 0.530000 0.000000 0.000000 128 128 128
-0.823176 0.348671 0.538661 0.000000 0.000000 128 128 128
-0.826266 0.339160 0.538661 0.000000 0.000000 128 128 128
-0.872811 0.367099 0.530000 0.000000 0.000000 128 128 128
-0.868766 0.370038 0.521340 0.000000 0.000000 128 128 128
-0.860676 0.375916 0.521340 0.000000 0.000000 128 128 128
-0.856631 0.378855 0.530000 0.000000 0.000000 128 128 128
-0.860676 0.375916 0.538661 0.000000 0.000000 128 128 128
-0.868766 0.370038 0.538661 0.000000 0.000000 128 128 128
-0.890000 0.420000 0.370000 0.000000 0.000000 128 128 128
-0.872811 0.472901 0.370000 0.000000 0.000000 128 128 128
-0.868766 0.469962 0.361340 0.000000 0.000000 128 128 128
-0.885000 0.420000 0.361340 0.000000 0.000000 128 128 128
-0.860676 0.464084 0.361340 0.000000 0.000000 128 128 128
-0.875000 0.420000 0.361340 0.000000 0.000000 128 128 128
-0.856631 0.461145 0.370000 0.000000 0.000000 128 128 128
-0.870000 0.420000 0.370000 0.000000 0.000000 128 128 128
-0.860676 0.464084 0.378661 0.000000 0.000000 128 128 128
-0.875000 0.420000 0.378661 0.000000 0.000000 128 128 128
-0.868766 0.469962 0.378661 0.000000 0.000000 128 128 128
-0.885000 0.420000 0.378661 0.000000 0.000000 128 128 128
-0.827811 0.505595 0.370000 0.000000 0.000000 128 128 128
-0.826266 0.500840 0.361340 0.000000 0.000000 128 128 128
-0.823176 0.491329 0.361340 0.000000 0.000000 128 128 128
-0.821631 0.486574 0.370000 0.000000 0.000000 128 128 128
-0.823176 0.491329 0.378661 0.000000 0.000000 128 128 128
-0.826266 0.500840 0.378661 0.000000 0.000000 128 128 128
-0.827811 0.505595 0.370000 0.000000 0.000000 255 255 255
-0.772188 0.505595 0.370000 0.000000 0.000000 255 255 255
-0.773733 0.500840 0.361340 0.000000 0.000000 255 255 255
-0.826266 0.500840 0.361340 0.000000 0.000000 255 255 255
-0.776824 0.491329 0.361340 0.000000 0.000000 255 255 255
-0.823176 0.491329 0.361340 0.000000 0.000000 255 255 255
-0.778369 0.486574 0.370000 0.000000 0.000000 255 255 255
-0.821631 0.486574 0.370000 0.000000 0.000000 255 255 255
-0.776824 0.491329 0.378661 0.000000 0.000000 255 255 255
-0.823176 0.491329 0.378661 0.000000 0.000000 255 255 255
-0.773733 0.500840 0.378661 0.000000 0.000000 255 255 255
-0.826266 0.500840 0.378661 0.000000 0.000000 255 255 255
-0.772188 0.505595 0.370000 0.000000 0.000000 128 128 128
-0.727188 0.472901 0.370000 0.000000 0.000000 128 128 128
-0.731233 0.469962 0.361340 0.000000 0.000000 128 128 128
-0.773733 0.500840 0.361340 0.000000 0.000000 128 128 128
-0.739324 0.464084 0.361340 0.000000 0.000000 128 128 128
-0.776824 0.491329 0.361340 0.000000 0.000000 128 128 128
-0.743369 0.461145 0.370000 0.000000 0.000000 128 128 128
-0.778369 0.486574 0.370000 0.000000 0.000000 128 128 128
-0.739324 0.464084 0.378661 0.000000 0.000000 128 128 128
-0.776824 0.491329 0.378661 0.000000 0.000000 128 128 128
-0.731233 0.469962 0.378661 0.000000 0.000000 128 128 128
-0.773733 0.500840 0.378661 0.000000 0.000000 128 128 128
-0.710000 0.420000 0.370000 0.000000 0.000000 128 128 128
-0.715000 0.420000 0.361340 0.000000 0.000000 128 128 128
-0.725000 0.420000 0.361340 0.000000 0.000000 128 128 128
-0.730000 0.420000 0.370000 0.000000 0.000000 128 128 128
-0.725000 0.420000 0.378661 0.000000 0.000000 128 128 128
-0.715000 0.420000 0.378661 0.000000 0.000000 128 128 128
-0.727188 0.367099 0.370000 0.000000 0.000000 128 128 128
-0.731233 0.370038 0.361340 0.000000 0.000000 128 128 128
-0.739324 0.375916 0.361340 0.000000 0.000000 128 128 128
-0.743369 0.378855 0.370000 0.000000 0.000000 128 128 128
-0.739324 0.375916 0.378661 0.000000 0.000000 128 128 128
-0.731233 0.370038 0.378661 0.000000 0.000000 128 128 128
-0.772188 0.334405 0.370000 0.000000 0.000000 128 128 128
-0.773733 0.339160 0.361340 0.000000 0.000000 128 128 128
-0.776824 0.348671 0.361340 0.000000 0.000000 128 128 128
-0.778369 0.353426 0.370000 0.000000 0.000000 128 128 128
-0.776824 0.348671 0.378661 0.000000 0.000000 128 128 128
-0.773733 0.339160 0.378661 0.000000 0.000000 128 128 128
-0.827811 0.334405 0.370000 0.000000 0.000000 128 128 128
-0.826266 0.339160 0.361340 0.000000 0.000000 128 128 128
-0.823176 0.348671 0.361340 0.000000 0.000000 128 128 128
-0.821631 0.353426 0.370000 0.000000 0.000000 128 128 128
-0.823176 0.348671 0.378661 0.000000 0.000000 128 128 128
-0.826266 0.339160 0.378661 0.000000 0.000000 128 128 128
-0.872811 0.367099 0.370000 0.000000 0.000000 128 128 128
-0.868766 0.370038 0.361340 0.000000 0.000000 128 128 128
-0.860676 0.375916 0.361340 0.000000 0.000000 128 128 128
-0.856631 0.378855 0.370000 0.000000 0.000000 128 128 128
-0.860676 0.375916 0.378661 0.000000 0.000000 128 128 128
-0.868766 0.370038 0.378661 0.000000 0.000000 128 128 128
-0.800000 0.550000 0.550000 0.000000 0.000000 128 128 128
-0.800000 0.550000 0.350000 0.000000 0.000000 128 128 128
-0.829389 0.540451 0.350000 0.000000 0.000000 128 128 128
-0.829389 0.540451 0.550000 0.000000 0.000000 128 128 128
-0.847553 0.515451 0.350000 0.000000 0.000000 128 128 128
-0.847553 0.515451 0.550000 0.000000 0.000000 128 128 128
-0.847553 0.484549 0.350000 0.000000 0.000000 128 128 128
-0.847553 0.484549 0.550000 0.000000 0.000000 128 128 128
-0.829389 0.459549 0.350000 0.000000 0.000000 128 128 128
-0.829389 0.459549 0.550000 0.000000 0.000000 128 128 128
-0.800000 0.450000 0.350000 0.000000 0.000000 128 128 128
-0.800000 0.450000 0.550000 0.000000 0.000000 128 128 128
-0.770611 0.459549 0.350000 0.000000 0.000000 128 128 128
-0.770611 0.459549 0.550000 0.000000 0.000000 128 128 128
-0.752447 0.484549 0.350000 0.000000 0.000000 128 128 128
-0.752447 0.484549 0.550000 0.000000 0.000000 128 128 128
-0.752447 0.515451 0.350000 0.000000 0.000000 128 128 128
-0.752447 0.515451 0.550000 0.000000 0.000000 128 128 128
-0.770611 0.540451 0.350000 0.000000 0.000000 128 128 128
-0.770611 0.540451 0.550000 0.000000 0.000000 128 128 128
0.400000 1.000000 0.400000 0.000000 0.000000 160 82 45
0.400000 1.000000 0.500000 0.000000 0.000000 160 82 45
0.400000 1.000000 0.500000 0.000000 0.000000 160 82 45
0.400000 1.000000 0.500000 0.000000 0.000000 160 82 45
0.400000 -0.500000 0.500000 0.000000 0.000000 160 82 45
0.400000 -0.500000 0.400000 0.000000 0.000000 160 82 45
0.400000 1.000000 0.400000 0.000000 0.000000 160 82 45
0.400000 1.000000 0.400000 0.000000 0.000000 160 82 45
-1.000000 -0.500000 0.500000 0.000000 0.000000 160 82 45
0.373100 1.273124 0.500000 0.000000 0.000000 160 82 45
-0.999997 2.400000 0.500000 0.000000 0.000000 160 82 45
-1.000000 2.400000 0.500000 0.000000 0.000000 160 82 45
-0.464242 2.293431 0.500000 0.000000 0.000000 160 82 45
-0.726872 2.373099 0.500000 0.000000 0.000000 160 82 45
-0.010049 1.989949 0.500000 0.000000 0.000000 160 82 45
-0.222200 2.164057 0.500000 0.000000 0.000000 160 82 45
0.293432 1.535755 0.500000 0.000000 0.000000 160 82 45
0.164059 1.777797 0.500000 0.000000 0.000000 160 82 45
-1.000000 -0.500000 0.400000 0.000000 0.000000 160 82 45
-0.999997 2.400000 0.400000 0.000000 0.000000 255 255 255
-1.000000 2.400000 0.400000 0.000000 0.000000 255 255 255
-1.000000 2.400000 0.500000 0.000000 0.000000 255 255 255
-0.999997 2.400000 0.500000 0.000000 0.000000 255 255 255
-1.000000 2.400000 0.400000 0.000000 0.000000 160 82 45
-0.999997 2.400000 0.400000 0.000000 0.000000 160 82 45
-0.726872 2.373099 0.400000 0.000000 0.000000 160 82 45
-0.464242 2.293431 0.400000 0.000000 0.000000 160 82 45
-0.222200 2.164057 0.400000 0.000000 0.000000 160 82 45
-0.010049 1.989949 0.400000 0.000000 0.000000 160 82 45
0.164059 1.777797 0.400000 0.000000 0.000000 160 82 45
0.293432 1.535755 0.400000 0.000000 0.000000 160 82 45
0.373100 1.273124 0.400000 0.000000 0.000000 160 82 45
0.400000 0.900000 0.550000 0.000000 0.000000 128 128 128
0.429389 0.900000 0.540451 0.000000 0.000000 128 128 128
0.429389 1.100000 0.540451 0.000000 0.000000 128 128 128
0.400000 1.100000 0.550000 0.000000 0.000000 128 128 128
0.447553 0.900000 0.515451 0.000000 0.000000 128 128 128
0.447553 1.100000 0.515451 0.000000 0.000000 128 128 128
0.447553 0.900000 0.484549 0.000000 0.000000 128 128 128
0.447553 1.100000 0.484549 0.000000 0.000000 128 128 128
0.429389 0.900000 0.459549 0.000000 0.000000 128 128 128
0.429389 1.100000 0.459549 0.000000 0.000000 128 128 128
0.400000 0.900000 0.450000 0.000000 0.000000 128 128 128
0.400000 1.100000 0.450000 0.000000 0.000000 128 128 128
0.370611 0.900000 0.459549 0.000000 0.000000 128 128 128
0.370611 1.100000 0.459549 0.000000 0.000000 128 128 128
0.352448 0.900000 0.484549 0.000000 0.000000 128 128 128
0.352448 1.100000 0.484549 0.000000 0.000000 128 128 128
0.352448 0.900000 0.515451 0.000000 0.000000 128 128 128
0.352448 1.100000 0.515451 0.000000 0.000000 128 128 128
0.370611 1.100000 0.540451 0.000000 0.000000 128 128 128
0.370611 0.900000 0.540451 0.000000 0.000000 128 128 128
-0.410000 0.950000 0.420000 0.000000 0.000000 128 128 128
-0.410000 0.950000 0.520000 0.000000 0.000000 128 128 128
-0.410000 1.050000 0.520000 0.000000 0.000000 128 128 128
-0.410000 1.050000 0.420000 0.000000 0.000000 128 128 128
0.390000 0.950000 0.520000 0.000000 0.000000 128 128 128
0.390000 1.050000 0.520000 0.000000 0.000000 128 128 128
0.390000 0.950000 0.420000 0.000000 0.000000 128 128 128
0.390000 1.050000 0.420000 0.000000 0.000000 128 128 128
0.400000 -0.100000 0.550000 0.000000 0.000000 128 128 128
0.429389 -0.100000 0.540451 0.000000 0.000000 128 128 128
0.429389 0.100000 0.540451 0.000000 0.000000 128 128 128
0.400000 0.100000 0.550000 0.000000 0.000000 128 128 128
0.447553 -0.100000 0.515451 0.000000 0.000000 128 128 128
0.447553 0.100000 0.515451 0.000000 0.000000 128 128 128
0.447553 -0.100000 0.484549 0.000000 0.000000 128 128 128
0.447553 0.100000 0.484549 0.000000 0.000000 128 128 128
0.429389 -0.100000 0.459549 0.000000 0.000000 128 128 128
0.429389 0.100000 0.459549 0.000000 0.000000 128 128 128
0.400000 -0.100000 0.450000 0.000000 0.000000 128 128 128
0.400000 0.100000 0.450000 0.000000 0.000000 128 128 128
0.370611 -0.100000 0.459549 0.000000 0.000000 128 128 128
0.370611 0.100000 0.459549 0.000000 0.000000 128 128 128
0.352448 -0.100000 0.484549 0.000000 0.000000 128 128 128
0.352448 0.100000 0.484549 0.000000 0.000000 128 128 128
0.352448 -0.100000 0.515451 0.000000 0.000000 128 128 128
0.352448 0.100000 0.515451 0.000000 0.000000 128 128 128
0.370611 0.100000 0.540451 0.000000 0.000000 128 128 128
0.370611 -0.100000 0.540451 0.000000 0.000000 128 128 128
-0.410000 -0.050000 0.420000 0.000000 0.000000 128 128 128
-0.410000 -0.050000 0.520000 0.000000 0.000000 128 128 128
-0.410000 0.050000 0.520000 0.000000 0.000000 128 128 128
-0.410000 0.050000 0.420000 0.000000 0.000000 128 128 128
0.390000 -0.050000 0.520000 0.000000 0.000000 128 128 128
0.390000 0.050000 0.520000 0.000000 0.000000 128 128 128
0.390000 -0.050000 0.420000 0.000000 0.000000 128 128 128
0.390000 0.050000 0.420000 0.000000 0.000000 128 128 128
3 0 1 2
3 3 4 5
3 6 7 8
3 3 5 6
3 9 10 0
3 9 0 2
3 3 6 8
3 3 8 11
3 12 9 2
3 13 12 2
3 3 11 14
3 3 14 15
3 16 13 2
3 17 16 2
3 3 15 18
3 3 18 19
3 20 17 2
3 21 20 2
3 3 19 22
3 3 22 23
3 24 21 2
3 3 23 25
3 25 24 2
3 2 3 25
4 26 27 28 29
4 30 31 32 33
4 34 35 36 37
4 38 39 40 41
4 42 43 44 45
3 46 47 48
3 49 50 51
3 49 51 52
3 53 54 46
3 55 56 53
3 53 46 48
3 55 53 48
3 57 55 48
3 58 57 48
3 59 58 48
3 60 59 48
3 61 60 48
3 62 61 48
3 63 62 48
3 63 48 49
3 64 63 49
3 65 64 49
3 66 65 49
3 67 66 49
3 68 67 49
3 69 68 49
3 70 69 49
3 71 70 49
3 49 52 71
4 72 73 74 75
4 76 77 78 79
4 80 81 82 83
4 81 84 85 82
4 84 86 87 85
4 86 88 89 87
4 90 91 92 93
4 91 94 95 92
4 94 96 97 95
4 96 98 99 97
4 98 100 101 99
4 100 102 103 101
4 102 104 105 103
4 104 106 107 105
4 108 109 110 111
4 109 112 113 110
4 112 114 115 113
4 114 116 117 115
4 118 119 120 121
4 119 122 123 120
4 124 125 126 127
4 128 129 130 131
4 131 130 132 133
4 133 132 134 135
4 135 134 136 137
4 137 136 138 139
4 139 138 140 141
4 141 140 142 143
4 143 142 144 145
3 132 130 129
3 129 146 144
3 144 142 140
3 140 138 136
3 136 134 132
3 132 129 144
3 144 140 136
3 144 136 132
4 145 144 146 147
4 147 146 129 128
3 147 128 131
3 131 133 135
3 135 137 139
3 139 141 143
3 143 145 147
3 147 131 135
3 135 139 143
3 135 143 147
4 148 149 150 151
4 151 150 152 153
4 153 152 154 155
4 155 154 149 148
4 151 153 155 148
4 152 150 149 154
4 156 157 158 159
4 159 158 160 161
4 161 160 162 163
4 163 162 164 165
4 165 164 166 167
4 167 166 168 169
4 169 168 170 171
4 171 170 172 173
3 160 158 157
3 157 174 172
3 172 170 168
3 168 166 164
3 164 162 160
3 160 157 172
3 172 168 164
3 172 164 160
4 173 172 174 175
4 175 174 157 156
3 175 156 159
3 159 161 163
3 163 165 167
3 167 169 171
3 171 173 175
3 175 159 163
3 163 167 171
3 163 171 175
4 176 177 178 179
4 179 178 180 181
4 181 180 182 183
4 183 182 177 176
4 179 181 183 176
4 180 178 177 182
4 184 185 186 187
4 187 188 189 184
3 184 189 190
3 190 191 192
3 192 193 194
3 194 195 196
3 196 197 198
3 198 185 184
3 184 190 192
3 192 194 196
3 196 198 184
3 192 196 184
3 188 187 186
3 186 199 200
3 200 201 202
3 202 203 204
3 204 205 206
3 206 207 188
3 188 186 200
3 200 202 204
3 204 206 188
3 200 204 188
3 206 191 190
3 190 189 188
3 207 206 190
3 190 188 207
4 192 191 206 205
4 193 192 205 204
4 194 193 204 203
4 195 194 203 202
4 196 195 202 201
4 197 196 201 200
4 198 197 200 199
4 199 186 185 198
4 208 209 210 211
4 211 210 212 213
4 213 212 214 215
4 215 214 216 217
4 217 216 218 219
4 219 218 209 208
4 209 220 221 210
4 210 221 222 212
4 212 222 223 214
4 214 223 224 216
4 216 224 225 218
4 218 225 220 209
4 226 227 228 229
4 229 228 230 231
4 231 230 232 233
4 233 232 234 235
4 235 234 236 237
4 237 236 227 226
4 238 239 240 241
4 241 240 242 243
4 243 242 244 245
4 245 244 246 247
4 247 246 248 249
4 249 248 239 238
4 239 250 251 240
4 240 251 252 242
4 242 252 253 244
4 244 253 254 246
4 246 254 255 248
4 248 255 250 239
4 250 256 257 251
4 251 257 258 252
4 252 258 259 253
4 253 259 260 254
4 254 260 261 255
4 255 261 256 250
4 256 262 263 257
4 257 263 264 258
4 258 264 265 259
4 259 265 266 260
4 260 266 267 261
4 261 267 262 256
4 262 268 269 263
4 263 269 270 264
4 264 270 271 265
4 265 271 272 266
4 266 272 273 267
4 267 273 268 262
4 268 274 275 269
4 269 275 276 270
4 270 276 277 271
4 271 277 278 272
4 272 278 279 273
4 273 279 274 268
4 274 208 211 275
4 275 211 213 276
4 276 213 215 277
4 277 215 217 278
4 278 217 219 279
4 279 219 208 274
4 280 281 282 283
4 283 282 284 285
4 285 284 286 287
4 287 286 288 289
4 289 288 290 291
4 291 290 281 280
4 281 292 293 282
4 282 293 294 284
4 284 294 295 286
4 286 295 296 288
4 288 296 297 290
4 290 297 292 281
4 298 299 300 301
4 301 300 302 303
4 303 302 304 305
4 305 304 306 307
4 307 306 308 309
4 309 308 299 298
4 310 311 312 313
4 313 312 314 315
4 315 314 316 317
4 317 316 318 319
4 319 318 320 321
4 321 320 311 310
4 311 322 323 312
4 312 323 324 314
4 314 324 325 316
4 316 325 326 318
4 318 326 327 320
4 320 327 322 311
4 322 328 329 323
4 323 329 330 324
4 324 330 331 325
4 325 331 332 326
4 326 332 333 327
4 327 333 328 322
4 328 334 335 329
4 329 335 336 330
4 330 336 337 331
4 331 337 338 332
4 332 338 339 333
4 333 339 334 328
4 334 340 341 335
4 335 341 342 336
4 336 342 343 337
4 337 343 344 338
4 338 344 345 339
4 339 345 340 334
4 340 346 347 341
4 341 347 348 342
4 342 348 349 343
4 343 349 350 344
4 344 350 351 345
4 345 351 346 340
4 346 280 283 347
4 347 283 285 348
4 348 285 287 349
4 349 287 289 350
4 350 289 291 351
4 351 291 280 346
4 352 353 354 355
4 355 354 356 357
4 357 356 358 359
4 359 358 360 361
4 361 360 362 363
4 363 362 364 365
4 365 364 366 367
4 367 366 368 369
3 356 354 353
3 353 370 368
3 368 366 364
3 364 362 360
3 360 358 356
3 356 353 368
3 368 364 360
3 368 360 356
4 369 368 370 371
4 371 370 353 352
3 371 352 355
3 355 357 359
3 359 361 363
3 363 365 367
3 367 369 371
3 371 355 359
3 359 363 367
3 359 367 371
4 372 373 374 375
4 375 374 376 377
4 377 376 378 379
4 379 378 380 381
4 381 380 382 383
4 383 382 373 372
4 373 384 385 374
4 374 385 386 376
4 376 386 387 378
4 378 387 388 380
4 380 388 389 382
4 382 389 384 373
4 390 391 392 393
4 393 392 394 395
4 395 394 396 397
4 397 396 398 399
4 399 398 400 401
4 401 400 391 390
4 402 403 404 405
4 405 404 406 407
4 407 406 408 409
4 409 408 410 411
4 411 410 412 413
4 413 412 403 402
4 403 414 415 404
4 404 415 416 406
4 406 416 417 408
4 408 417 418 410
4 410 418 419 412
4 412 419 414 403
4 414 420 421 415
4 415 421 422 416
4 416 422 423 417
4 417 423 424 418
4 418 424 425 419
4 419 425 420 414
4 420 426 427 421
4 421 427 428 422
4 422 428 429 423
4 423 429 430 424
4 424 430 431 425
4 425 431 426 420
4 426 432 433 427
4 427 433 434 428
4 428 434 435 429
4 429 435 436 430
4 430 436 437 431
4 431 437 432 426
4 432 438 439 433
4 433 439 440 434
4 434 440 441 435
4 435 441 442 436
4 436 442 443 437
4 437 443 438 432
4 438 372 375 439
4 439 375 377 440
4 440 377 379 441
4 441 379 381 442
4 442 381 383 443
4 443 383 372 438
4 444 445 446 447
4 447 446 448 449
4 449 448 450 451
4 451 450 452 453
4 453 452 454 455
4 455 454 445 444
4 445 456 457 446
4 446 457 458 448
4 448 458 459 450
4 450 459 460 452
4 452 460 461 454
4 454 461 456 445
4 462 463 464 465
4 465 464 466 467
4 467 466 468 469
4 469 468 470 471
4 471 470 472 473
4 473 472 463 462
4 474 475 476 477
4 477 476 478 479
4 479 478 480 481
4 481 480 482 483
4 483 482 484 485
4 485 484 475 474
4 475 486 487 476
4 476 487 488 478
4 478 488 489 480
4 480 489 490 482
4 482 490 491 484
4 484 491 486 475
4 486 492 493 487
4 487 493 494 488
4 488 494 495 489
4 489 495 496 490
4 490 496 497 491
4 491 497 492 486
4 492 498 499 493
4 493 499 500 494
4 494 500 501 495
4 495 501 502 496
4 496 502 503 497
4 497 503 498 492
4 498 504 505 499
4 499 505 506 500
4 500 506 507 501
4 501 507 508 502
4 502 508 509 503
4 503 509 504 498
4 504 510 511 505
4 505 511 512 506
4 506 512 513 507
4 507 513 514 508
4 508 514 515 509
4 509 515 510 504
4 510 444 447 511
4 511 447 449 512
4 512 449 451 513
4 513 451 453 514
4 514 453 455 515
4 515 455 444 510
4 516 517 518 519
4 519 518 520 521
4 521 520 522 523
4 523 522 524 525
4 525 524 526 527
4 527 526 528 529
4 529 528 530 531
4 531 530 532 533
3 520 518 517
3 517 534 532
3 532 530 528
3 528 526 524
3 524 522 520
3 520 517 532
3 532 528 524
3 532 524 520
4 533 532 534 535
4 535 534 517 516
3 535 516 519
3 519 521 523
3 523 525 527
3 527 529 531
3 531 533 535
3 535 519 523
3 523 527 531
3 523 531 535
3 536 537 538
3 539 540 541
3 536 538 539
3 542 543 536
3 539 541 542
3 539 542 536
3 544 540 539
3 538 537 545
3 544 539 538
3 546 547 544
3 548 549 546
3 550 551 548
3 552 553 550
3 538 545 552
3 546 544 538
3 550 548 546
3 538 552 550
3 538 550 546
4 540 544 554 541
4 555 556 557 558
4 544 547 559 554
3 541 554 559
3 559 560 561
3 561 562 563
3 563 564 565
3 565 566 567
3 567 536 543
3 542 541 559
3 567 543 542
3 563 565 567
3 559 561 563
3 567 542 559
3 559 563 567
4 561 560 546 549
4 562 561 549 548
4 563 562 548 551
4 564 563 551 550
4 565 564 550 553
4 566 565 553 552
4 567 566 552 545
4 536 567 545 537
4 568 569 570 571
4 569 572 573 570
4 572 574 575 573
4 574 576 577 575
4 576 578 579 577
4 578 580 581 579
4 580 582 583 581
4 582 584 585 583
3 571 570 573
3 573 575 577
3 577 579 581
3 581 583 585
3 585 586 571
3 571 573 577
3 577 581 585
3 577 585 571
4 584 587 586 585
4 587 568 571 586
3 569 568 587
3 587 584 582
3 582 580 578
3 578 576 574
3 574 572 569
3 569 587 582
3 582 578 574
3 582 574 569
4 588 589 590 591
4 589 592 593 590
4 592 594 595 593
4 594 588 591 595
4 589 588 594 592
4 593 595 591 590
4 596 597 598 599
4 597 600 601 598
4 600 602 603 601
4 602 604 605 603
4 604 606 607 605
4 606 608 609 607
4 608 610 611 609
4 610 612 613 611
3 599 598 601
3 601 603 605
3 605 607 609
3 609 611 613
3 613 614 599
3 599 601 605
3 605 609 613
3 605 613 599
4 612 615 614 613
4 615 596 599 614
3 597 596 615
3 615 612 610
3 610 608 606
3 606 604 602
3 602 600 597
3 597 615 610
3 610 606 602
3 610 602 597
4 616 617 618 619
4 617 620 621 618
4 620 622 623 621
4 622 616 619 623
4 617 616 622 620
4 621 623 619 618
