ply
format ascii 1.0
comment Created by Blender 2.79 (sub 0) - www.blender.org, source file: ''
element vertex 220
property float x
property float y
property float z
property float s
property float t
property uchar red
property uchar green
property uchar blue
element face 204
property list uchar uint vertex_indices
end_header
0.127500 0.446018 -0.220837 0.218395 0.850685 255 0 0
0.127500 0.446018 0.220837 0.192802 0.656279 255 0 0
-0.255000 0.446018 0.000000 0.373958 0.731317 255 0 0
-0.246311 0.446018 0.065999 0.747879 0.432702 0 255 0
-0.272500 0.284128 0.000000 0.734375 0.293062 0 255 0
-0.255000 0.446018 0.000000 0.734375 0.432702 0 255 0
-0.263215 0.284128 0.070528 0.788230 0.520791 0 255 0
-0.307500 0.284128 0.000000 0.797291 0.506360 0 255 0
-0.272500 0.284128 0.000000 0.790130 0.506360 0 255 0
-0.297022 0.284128 0.079587 0.750659 0.620431 0 255 0
-0.325000 0.446018 0.000000 0.734375 0.760071 0 255 0
-0.307500 0.284128 0.000000 0.734375 0.620431 0 255 0
-0.220836 0.446018 0.127500 0.760462 0.432702 0 255 0
-0.263215 0.284128 0.070528 0.748805 0.293062 0 255 0
-0.235992 0.284128 0.136250 0.782660 0.534238 0 255 0
-0.297022 0.284128 0.079587 0.795147 0.522644 0 255 0
-0.266303 0.284128 0.153750 0.765833 0.620431 0 255 0
-0.313926 0.446018 0.084116 0.751586 0.760071 0 255 0
-0.180312 0.446018 0.180312 0.771268 0.432702 0 255 0
-0.235992 0.284128 0.136250 0.762253 0.293062 0 255 0
-0.217435 0.284128 0.217435 0.778863 0.550849 0 255 0
-0.266303 0.284128 0.153750 0.788862 0.537818 0 255 0
-0.217435 0.284128 0.217435 0.778863 0.620431 0 255 0
-0.281458 0.446018 0.162500 0.767623 0.760071 0 255 0
-0.127500 0.446018 0.220837 0.760462 0.432702 0 255 0
-0.192687 0.284128 0.192687 0.773800 0.293062 0 255 0
-0.192687 0.284128 0.192687 0.773800 0.545785 0 255 0
-0.153750 0.284128 0.266303 0.765833 0.560847 0 255 0
-0.153750 0.284128 0.266303 0.765833 0.620431 0 255 0
-0.229810 0.446018 0.229810 0.781395 0.760071 0 255 0
-0.065999 0.446018 0.246311 0.747879 0.432702 0 255 0
-0.136250 0.284128 0.235992 0.762253 0.293062 0 255 0
-0.070528 0.284128 0.263215 0.748805 0.560216 0 255 0
-0.136250 0.284128 0.235992 0.762253 0.554646 0 255 0
-0.079587 0.284128 0.297022 0.750659 0.620431 0 255 0
-0.162500 0.446018 0.281458 0.767623 0.760071 0 255 0
-0.000000 0.446018 0.255000 0.734375 0.432702 0 255 0
-0.070528 0.284128 0.263215 0.748805 0.293062 0 255 0
-0.000000 0.284128 0.272500 0.734375 0.562115 0 255 0
-0.079587 0.284128 0.297022 0.750659 0.567133 0 255 0
-0.000000 0.284128 0.307500 0.734375 0.620431 0 255 0
-0.084116 0.446018 0.313926 0.751586 0.760071 0 255 0
0.065999 0.446018 0.246311 0.720871 0.432702 0 255 0
-0.000000 0.284128 0.272500 0.734375 0.293062 0 255 0
0.079587 0.284128 0.297022 0.718091 0.567133 0 255 0
-0.000000 0.284128 0.307500 0.734375 0.569277 0 255 0
0.079587 0.284128 0.297022 0.718091 0.620431 0 255 0
-0.000000 0.446018 0.325000 0.734375 0.760071 0 255 0
0.127500 0.446018 0.220837 0.708288 0.432702 0 255 0
0.070528 0.284128 0.263215 0.719945 0.293062 0 255 0
0.070528 0.284128 0.263215 0.719945 0.560216 0 255 0
0.153750 0.284128 0.266303 0.702917 0.560847 0 255 0
0.153750 0.284128 0.266303 0.702917 0.620431 0 255 0
0.084116 0.446018 0.313926 0.717164 0.760071 0 255 0
0.180312 0.446018 0.180312 0.697482 0.432702 0 255 0
0.136250 0.284128 0.235992 0.706498 0.293062 0 255 0
0.136250 0.284128 0.235992 0.706498 0.554646 0 255 0
0.217435 0.284128 0.217435 0.689887 0.550849 0 255 0
0.217435 0.284128 0.217435 0.689887 0.620431 0 255 0
0.162500 0.446018 0.281458 0.701127 0.760071 0 255 0
0.220836 0.446018 0.127500 0.760462 0.432702 0 255 0
0.192687 0.284128 0.192687 0.773800 0.293062 0 255 0
0.180312 0.446018 0.180312 0.771268 0.432702 0 255 0
0.192687 0.284128 0.192687 0.694950 0.545785 0 255 0
0.266303 0.284128 0.153750 0.679888 0.537818 0 255 0
0.266303 0.284128 0.153750 0.765833 0.620431 0 255 0
0.229810 0.446018 0.229810 0.781395 0.760071 0 255 0
0.217435 0.284128 0.217435 0.778863 0.620431 0 255 0
0.246311 0.446018 0.065999 0.747879 0.432702 0 255 0
0.235992 0.284128 0.136250 0.762253 0.293062 0 255 0
0.263215 0.284128 0.070528 0.680520 0.520791 0 255 0
0.235992 0.284128 0.136250 0.686090 0.534238 0 255 0
0.297022 0.284128 0.079587 0.750659 0.620431 0 255 0
0.281458 0.446018 0.162500 0.767623 0.760071 0 255 0
0.255000 0.446018 0.000000 0.734375 0.432702 0 255 0
0.263215 0.284128 0.070528 0.748805 0.293062 0 255 0
0.307500 0.284128 0.000000 0.671459 0.506360 0 255 0
0.297022 0.284128 0.079587 0.673603 0.522644 0 255 0
0.307500 0.284128 0.000000 0.734375 0.620431 0 255 0
0.313926 0.446018 0.084116 0.751586 0.760071 0 255 0
0.246311 0.446018 -0.065999 0.720871 0.432702 0 255 0
0.272500 0.284128 0.000000 0.734375 0.293062 0 255 0
0.263215 0.284128 -0.070528 0.680520 0.491930 0 255 0
0.272500 0.284128 0.000000 0.678620 0.506360 0 255 0
0.297022 0.284128 -0.079587 0.718091 0.620431 0 255 0
0.325000 0.446018 0.000000 0.734375 0.760071 0 255 0
0.220837 0.446018 -0.127500 0.708288 0.432702 0 255 0
0.263215 0.284128 -0.070528 0.719945 0.293062 0 255 0
0.266303 0.284128 -0.153750 0.679888 0.474902 0 255 0
0.297022 0.284128 -0.079587 0.673603 0.490076 0 255 0
0.266303 0.284128 -0.153750 0.702917 0.620431 0 255 0
0.313926 0.446018 -0.084116 0.717164 0.760071 0 255 0
0.180312 0.446018 -0.180312 0.697482 0.432702 0 255 0
0.235992 0.284128 -0.136250 0.706498 0.293062 0 255 0
0.235992 0.284128 -0.136250 0.686090 0.478483 0 255 0
0.217435 0.284128 -0.217435 0.689887 0.461872 0 255 0
0.217435 0.284128 -0.217435 0.689887 0.620431 0 255 0
0.281458 0.446018 -0.162500 0.701127 0.760071 0 255 0
0.127500 0.446018 -0.220837 0.708288 0.432702 0 255 0
0.192687 0.284128 -0.192687 0.694950 0.293062 0 255 0
0.136250 0.284128 -0.235992 0.706498 0.458075 0 255 0
0.192687 0.284128 -0.192687 0.694950 0.466936 0 255 0
0.153750 0.284128 -0.266303 0.702917 0.620431 0 255 0
0.229810 0.446018 -0.229810 0.687355 0.760071 0 255 0
0.065999 0.446018 -0.246311 0.720871 0.432702 0 255 0
0.136250 0.284128 -0.235992 0.706498 0.293062 0 255 0
0.079587 0.284128 -0.297022 0.718091 0.445588 0 255 0
0.153750 0.284128 -0.266303 0.702917 0.451873 0 255 0
0.079587 0.284128 -0.297022 0.718091 0.620431 0 255 0
0.162500 0.446018 -0.281458 0.701127 0.760071 0 255 0
-0.000000 0.446018 -0.255000 0.734375 0.432702 0 255 0
0.070528 0.284128 -0.263215 0.719945 0.293062 0 255 0
-0.000000 0.284128 -0.272500 0.734375 0.450605 0 255 0
0.070528 0.284128 -0.263215 0.719945 0.452505 0 255 0
-0.000000 0.284128 -0.307500 0.734375 0.620431 0 255 0
0.084116 0.446018 -0.313926 0.717164 0.760071 0 255 0
-0.065999 0.446018 -0.246311 0.747879 0.432702 0 255 0
-0.000000 0.284128 -0.272500 0.734375 0.293062 0 255 0
-0.070528 0.284128 -0.263215 0.748805 0.452505 0 255 0
-0.000000 0.284128 -0.307500 0.734375 0.443444 0 255 0
-0.079587 0.284128 -0.297022 0.750659 0.620431 0 255 0
-0.000000 0.446018 -0.325000 0.734375 0.760071 0 255 0
-0.127500 0.446018 -0.220837 0.760462 0.432702 0 255 0
-0.070528 0.284128 -0.263215 0.748805 0.293062 0 255 0
-0.136250 0.284128 -0.235992 0.762253 0.458075 0 255 0
-0.079587 0.284128 -0.297022 0.750659 0.445588 0 255 0
-0.153750 0.284128 -0.266303 0.765833 0.620431 0 255 0
-0.084116 0.446018 -0.313926 0.751586 0.760071 0 255 0
-0.180312 0.446018 -0.180312 0.771268 0.432702 0 255 0
-0.136250 0.284128 -0.235992 0.762253 0.293062 0 255 0
-0.192686 0.284128 -0.192687 0.773800 0.466936 0 255 0
-0.153750 0.284128 -0.266303 0.765833 0.451873 0 255 0
-0.217435 0.284128 -0.217435 0.778863 0.620431 0 255 0
-0.162500 0.446018 -0.281458 0.767623 0.760071 0 255 0
-0.220836 0.446018 -0.127500 0.708288 0.432702 0 255 0
-0.192686 0.284128 -0.192687 0.694950 0.293062 0 255 0
-0.180312 0.446018 -0.180312 0.697482 0.432702 0 255 0
-0.266303 0.284128 -0.153750 0.788862 0.474902 0 255 0
-0.217435 0.284128 -0.217435 0.778863 0.461872 0 255 0
-0.266303 0.284128 -0.153750 0.702917 0.620431 0 255 0
-0.229810 0.446018 -0.229810 0.687355 0.760071 0 255 0
-0.217435 0.284128 -0.217435 0.689887 0.620431 0 255 0
-0.246311 0.446018 -0.065999 0.720871 0.432702 0 255 0
-0.235992 0.284128 -0.136250 0.706497 0.293062 0 255 0
-0.263215 0.284128 -0.070528 0.788230 0.491930 0 255 0
-0.235992 0.284128 -0.136250 0.782660 0.478483 0 255 0
-0.297022 0.284128 -0.079587 0.718091 0.620431 0 255 0
-0.281458 0.446018 -0.162500 0.701127 0.760071 0 255 0
-0.263215 0.284128 -0.070528 0.719945 0.293062 0 255 0
-0.297022 0.284128 -0.079587 0.795147 0.490076 0 255 0
-0.313926 0.446018 -0.084116 0.717164 0.760071 0 255 0
0.400000 0.499982 -0.400000 0.652533 0.596387 0 0 255
0.400000 0.446018 0.400000 0.816217 0.432702 5 5 255
0.400000 0.446018 -0.400000 0.652533 0.432702 1 1 255
0.400000 0.446018 -0.400000 0.652533 0.424518 1 1 255
-0.000000 0.446018 -0.325000 0.734375 0.439864 1 1 255
-0.400000 0.446018 -0.400000 0.816217 0.424518 1 1 255
0.400000 0.446018 0.400000 0.652533 0.588203 5 5 255
-0.400000 0.446018 0.400000 0.816217 0.588203 0 0 255
-0.000000 0.446018 0.325000 0.734375 0.572857 0 0 255
-0.400000 0.499982 -0.400000 0.816217 0.596387 0 0 255
-0.400000 0.446018 -0.400000 0.816217 0.432702 1 1 255
0.400000 0.499982 0.400000 0.652533 0.588203 0 0 255
-0.400000 0.499982 -0.400000 0.816217 0.424518 0 0 255
-0.400000 0.499982 0.400000 0.816217 0.588203 0 0 255
0.400000 0.499982 0.400000 0.652533 0.596387 0 0 255
-0.400000 0.446018 0.400000 0.816217 0.432702 0 0 255
0.400000 0.446018 0.400000 0.652533 0.432702 0 0 255
-0.400000 0.499982 0.400000 0.816217 0.596387 0 0 255
-0.400000 0.446018 -0.400000 0.652533 0.432702 1 1 255
-0.246311 0.446018 -0.065999 0.373958 0.760870 255 0 0
-0.220836 0.446018 -0.127500 0.366309 0.789417 255 0 0
-0.180312 0.446018 -0.180312 0.351533 0.815011 255 0 0
-0.127500 0.446018 -0.220837 0.330635 0.835908 255 0 0
-0.065999 0.446018 -0.246311 0.305041 0.850685 255 0 0
-0.000000 0.446018 -0.255000 0.276495 0.858334 255 0 0
0.065999 0.446018 -0.246311 0.246942 0.858334 255 0 0
0.180312 0.446018 -0.180312 0.192801 0.835908 255 0 0
0.220837 0.446018 -0.127500 0.171904 0.815011 255 0 0
0.246311 0.446018 -0.065999 0.157127 0.789417 255 0 0
0.255000 0.446018 0.000000 0.149478 0.760870 255 0 0
0.246311 0.446018 0.065999 0.149478 0.731317 255 0 0
0.220836 0.446018 0.127500 0.157127 0.702771 255 0 0
0.180312 0.446018 0.180312 0.171904 0.677177 255 0 0
0.065999 0.446018 0.246311 0.218396 0.641503 255 0 0
-0.000000 0.446018 0.255000 0.246942 0.633854 255 0 0
-0.065999 0.446018 0.246311 0.276495 0.633854 255 0 0
-0.127500 0.446018 0.220837 0.305042 0.641503 255 0 0
-0.180312 0.446018 0.180312 0.330636 0.656279 255 0 0
-0.220836 0.446018 0.127500 0.351533 0.677177 255 0 0
-0.246311 0.446018 0.065999 0.366310 0.702771 255 0 0
0.192687 0.284128 0.192687 0.694950 0.293062 0 255 0
0.229810 0.446018 0.229810 0.687355 0.760071 0 255 0
-0.192686 0.284128 -0.192687 0.773800 0.293062 0 255 0
-0.229810 0.446018 -0.229810 0.781395 0.760071 0 255 0
0.400000 0.499982 0.400000 0.816217 0.596387 0 0 255
0.325000 0.446018 0.000000 0.667878 0.506360 0 0 255
0.313926 0.446018 -0.084116 0.670144 0.489150 0 0 255
-0.313926 0.446018 -0.084116 0.798606 0.489150 1 1 255
-0.281458 0.446018 -0.162500 0.791963 0.473112 1 1 255
0.281458 0.446018 -0.162500 0.676787 0.473112 0 0 255
0.229810 0.446018 -0.229810 0.687355 0.459340 0 0 255
-0.229810 0.446018 -0.229810 0.781395 0.459340 1 1 255
-0.162500 0.446018 -0.281458 0.767623 0.448772 1 1 255
0.162500 0.446018 -0.281458 0.701127 0.448772 1 1 255
0.084116 0.446018 -0.313926 0.717164 0.442129 1 1 255
-0.084116 0.446018 -0.313926 0.751586 0.442129 1 1 255
-0.325000 0.446018 0.000000 0.800872 0.506360 1 1 255
-0.313926 0.446018 0.084116 0.798606 0.523571 0 0 255
0.313926 0.446018 0.084116 0.670144 0.523571 0 0 255
0.281458 0.446018 0.162500 0.676787 0.539609 0 0 255
-0.281458 0.446018 0.162500 0.791963 0.539609 0 0 255
-0.229810 0.446018 0.229810 0.781395 0.553381 0 0 255
0.229810 0.446018 0.229810 0.687355 0.553381 0 0 255
0.162500 0.446018 0.281458 0.701127 0.563948 0 0 255
-0.162500 0.446018 0.281458 0.767623 0.563948 0 0 255
-0.084116 0.446018 0.313926 0.751586 0.570591 0 0 255
0.084116 0.446018 0.313926 0.717164 0.570591 0 0 255
0.400000 0.499982 -0.400000 0.652533 0.424518 0 0 255
-0.400000 0.499982 -0.400000 0.652533 0.596387 0 0 255
3 0 1 2
3 3 4 5
3 6 7 8
3 9 10 11
3 12 13 3
3 14 15 6
3 16 17 9
3 18 19 12
3 14 20 21
3 22 23 16
3 24 25 18
3 26 27 20
3 28 29 22
3 30 31 24
3 32 27 33
3 34 35 28
3 36 37 30
3 38 39 32
3 40 41 34
3 42 43 36
3 38 44 45
3 46 47 40
3 48 49 42
3 50 51 44
3 52 53 46
3 54 55 48
3 56 57 51
3 58 59 52
3 60 61 62
3 63 64 57
3 65 66 67
3 68 69 60
3 70 64 71
3 72 73 65
3 74 75 68
3 70 76 77
3 78 79 72
3 80 81 74
3 82 76 83
3 84 85 78
3 86 87 80
3 82 88 89
3 90 91 84
3 92 93 86
3 94 95 88
3 96 97 90
3 98 99 92
3 100 95 101
3 102 103 96
3 104 105 98
3 100 106 107
3 108 109 102
3 110 111 104
3 112 106 113
3 114 115 108
3 116 117 110
3 118 119 112
3 120 121 114
3 122 123 116
3 124 125 118
3 126 127 120
3 128 129 122
3 130 131 124
3 132 133 126
3 134 135 136
3 130 137 138
3 139 140 141
3 142 143 134
3 144 137 145
3 146 147 139
3 5 148 142
3 8 149 144
3 11 150 146
3 151 152 153
3 154 155 156
3 157 158 159
3 160 153 161
3 162 163 164
3 165 166 167
3 168 169 166
3 2 170 171
3 171 172 173
3 173 174 175
3 175 176 0
3 0 177 178
3 178 179 180
3 180 181 182
3 182 183 180
3 183 1 180
3 1 184 185
3 185 186 187
3 187 188 2
3 188 189 2
3 189 190 2
3 2 171 173
3 173 175 2
3 175 0 2
3 0 178 1
3 178 180 1
3 1 185 2
3 185 187 2
3 3 13 4
3 6 15 7
3 9 17 10
3 12 19 13
3 14 21 15
3 16 23 17
3 18 25 19
3 14 26 20
3 22 29 23
3 24 31 25
3 26 33 27
3 28 35 29
3 30 37 31
3 32 39 27
3 34 41 35
3 36 43 37
3 38 45 39
3 40 47 41
3 42 49 43
3 38 50 44
3 46 53 47
3 48 55 49
3 50 56 51
3 52 59 53
3 54 191 55
3 56 63 57
3 58 192 59
3 60 69 61
3 63 71 64
3 65 73 66
3 68 75 69
3 70 77 64
3 72 79 73
3 74 81 75
3 70 83 76
3 78 85 79
3 80 87 81
3 82 89 76
3 84 91 85
3 86 93 87
3 82 94 88
3 90 97 91
3 92 99 93
3 94 101 95
3 96 103 97
3 98 105 99
3 100 107 95
3 102 109 103
3 104 111 105
3 100 113 106
3 108 115 109
3 110 117 111
3 112 119 106
3 114 121 115
3 116 123 117
3 118 125 119
3 120 127 121
3 122 129 123
3 124 131 125
3 126 133 127
3 128 193 129
3 130 138 131
3 132 194 133
3 134 143 135
3 130 145 137
3 139 147 140
3 142 148 143
3 144 149 137
3 146 150 147
3 5 4 148
3 8 7 149
3 11 10 150
3 151 195 152
3 154 157 196
3 154 196 197
3 198 158 156
3 199 198 156
3 154 197 200
3 154 200 201
3 202 199 156
3 203 202 156
3 154 201 204
3 154 204 205
3 206 203 156
3 154 205 155
3 155 206 156
3 158 198 207
3 158 207 208
3 209 196 157
3 210 209 157
3 158 208 211
3 158 211 212
3 213 210 157
3 214 213 157
3 158 212 215
3 158 215 216
3 217 214 157
3 158 216 159
3 159 217 157
3 160 151 153
3 162 218 163
3 165 168 166
3 168 219 169
