ply
format ascii 1.0
comment Created by Blender 2.79 (sub 0) - www.blender.org, source file: 'streetlight.blend'
element vertex 274
property float x
property float y
property float z
property uchar red
property uchar green
property uchar blue
element face 472
property list uchar uint vertex_indices
end_header
-0.058115 2.817665 0.140302 112 128 144
0.000000 2.755000 0.500000 112 128 144
0.000000 2.817665 0.151861 112 128 144
-0.061872 2.811788 0.149372 112 128 144
-0.191342 2.755000 0.461940 112 128 144
0.058115 2.817665 0.140302 112 128 144
0.000000 2.811788 0.161679 112 128 144
-0.107382 2.817665 0.107382 112 128 144
-0.059818 2.755000 0.144414 112 128 144
0.191341 2.755000 0.461940 112 128 144
0.061872 2.811788 0.149372 112 128 144
-0.000000 2.785000 0.175000 112 128 144
-0.114324 2.811788 0.114324 112 128 144
-0.353553 2.755000 0.353553 112 128 144
-0.000000 2.755000 0.156313 112 128 144
-0.110530 2.755000 0.110530 112 128 144
0.059818 2.755000 0.144414 112 128 144
0.058115 2.817665 0.140302 112 128 144
0.066969 2.785000 0.161679 112 128 144
-0.066970 2.785000 0.161679 112 128 144
-0.140302 2.817665 0.058115 112 128 144
-0.123744 2.785000 0.123744 112 128 144
-0.461940 2.755000 0.191342 112 128 144
-0.061872 2.758213 0.149372 112 128 144
0.353553 2.755000 0.353554 112 128 144
0.107382 2.817665 0.107382 112 128 144
0.114324 2.811788 0.114324 112 128 144
0.000000 2.758213 0.161679 112 128 144
-0.149372 2.811788 0.061872 112 128 144
-0.161679 2.785000 0.066970 112 128 144
-0.144414 2.755000 0.059818 112 128 144
0.061872 2.758213 0.149372 112 128 144
-0.114324 2.758213 0.114324 112 128 144
0.110530 2.755000 0.110530 112 128 144
0.123744 2.785000 0.123744 112 128 144
-0.161679 2.811788 -0.000000 112 128 144
-0.500000 2.755000 -0.000000 112 128 144
0.114324 2.758213 0.114324 112 128 144
0.461940 2.755000 0.191342 112 128 144
0.107382 2.817665 0.107382 112 128 144
0.149372 2.811788 0.061872 112 128 144
-0.151861 2.817665 -0.000000 112 128 144
-0.175000 2.785000 -0.000000 112 128 144
-0.149372 2.758213 0.061872 112 128 144
-0.156313 2.755000 -0.000000 112 128 144
0.149372 2.758213 0.061872 112 128 144
0.144414 2.755000 0.059818 112 128 144
0.140302 2.817665 0.058115 112 128 144
0.161679 2.785000 0.066970 112 128 144
-0.149372 2.811788 -0.061872 112 128 144
-0.161679 2.785000 -0.066970 112 128 144
-0.461940 2.755000 -0.191342 112 128 144
-0.144414 2.755000 -0.059818 112 128 144
0.500000 2.755000 0.000000 112 128 144
0.140302 2.817665 0.058115 112 128 144
0.175000 2.785000 0.000000 112 128 144
-0.140302 2.817665 -0.058115 112 128 144
-0.161679 2.758213 -0.000000 112 128 144
0.156313 2.755000 0.000000 112 128 144
0.151861 2.817665 0.000000 112 128 144
0.151861 2.817665 0.000000 112 128 144
0.161679 2.811788 0.000000 112 128 144
-0.107382 2.817665 -0.107382 112 128 144
-0.123744 2.785000 -0.123744 112 128 144
-0.149372 2.758213 -0.061872 112 128 144
-0.353553 2.755000 -0.353553 112 128 144
0.161679 2.758213 0.000000 112 128 144
0.144414 2.755000 -0.059818 112 128 144
0.140302 2.817665 -0.058115 112 128 144
0.161679 2.785000 -0.066969 112 128 144
-0.114324 2.811788 -0.114324 112 128 144
-0.114324 2.758213 -0.114324 112 128 144
-0.110530 2.755000 -0.110530 112 128 144
0.149372 2.758213 -0.061872 112 128 144
0.461940 2.755000 -0.191342 112 128 144
0.149372 2.811788 -0.061872 112 128 144
-0.191342 2.755000 -0.461940 112 128 144
-0.107382 2.817665 -0.107382 112 128 144
-0.061872 2.758213 -0.149372 112 128 144
-0.066969 2.785000 -0.161679 112 128 144
0.114324 2.758213 -0.114324 112 128 144
0.353553 2.755000 -0.353554 112 128 144
0.140302 2.817665 -0.058115 112 128 144
0.107382 2.817665 -0.107382 112 128 144
0.123744 2.785000 -0.123744 112 128 144
-0.058115 2.817665 -0.140302 112 128 144
-0.059818 2.755000 -0.144414 112 128 144
-0.061872 2.811788 -0.149372 112 128 144
0.110530 2.755000 -0.110530 112 128 144
0.114324 2.811788 -0.114324 112 128 144
0.000000 2.755000 -0.156313 112 128 144
0.000000 2.758213 -0.161679 112 128 144
0.000000 2.811788 -0.161679 112 128 144
-0.000000 2.755000 -0.500000 112 128 144
0.059818 2.755000 -0.144414 112 128 144
0.066970 2.785000 -0.161679 112 128 144
0.191342 2.755000 -0.461940 112 128 144
0.107382 2.817665 -0.107382 112 128 144
0.058115 2.817665 -0.140302 112 128 144
-0.058115 2.817665 -0.140302 112 128 144
0.000000 2.785000 -0.175000 112 128 144
0.061872 2.758213 -0.149372 112 128 144
0.061872 2.811788 -0.149372 112 128 144
0.000000 2.817665 -0.151861 112 128 144
-0.000000 2.817665 -0.151861 112 128 144
0.058115 2.817665 -0.140302 112 128 144
-0.000000 2.915112 0.060620 105 105 105
-0.001777 2.839965 0.063144 105 105 105
-0.000000 2.839965 0.063497 105 105 105
0.023198 2.915112 0.056006 105 105 105
0.019926 2.700805 0.064862 105 105 105
0.000000 0.335075 0.159407 105 105 105
-0.019926 2.700805 0.064862 105 105 105
-0.019926 2.839965 0.059534 105 105 105
-0.023198 2.915112 0.056006 105 105 105
0.061002 0.335075 0.147273 105 105 105
0.042865 2.915112 0.042865 105 105 105
-0.005067 2.700805 0.067818 105 105 105
-0.000000 2.700805 0.068826 105 105 105
-0.042865 2.915112 0.042865 105 105 105
-0.112718 0.335075 0.112718 105 105 105
-0.061002 0.335075 0.147273 105 105 105
0.023911 2.915112 0.023911 105 105 105
0.015205 2.915112 0.023911 105 105 105
-0.020285 2.915112 0.023911 105 105 105
0.112718 0.335075 0.112718 105 105 105
0.056006 2.915112 -0.023198 105 105 105
0.042865 2.915112 -0.042865 105 105 105
0.023911 2.915112 0.002894 105 105 105
0.023911 2.915112 -0.023911 105 105 105
-0.023911 2.915112 -0.023911 105 105 105
-0.020285 2.915112 -0.023911 105 105 105
-0.042865 2.915112 -0.042865 105 105 105
-0.147273 0.335075 0.061002 105 105 105
0.056006 2.915112 0.023198 105 105 105
0.147273 0.335075 0.061002 105 105 105
0.060620 2.915112 0.000000 105 105 105
0.147273 0.335075 -0.061002 105 105 105
-0.000000 2.915112 -0.060620 105 105 105
-0.060620 2.915112 -0.000000 105 105 105
-0.056006 2.915112 0.023198 105 105 105
-0.061002 0.335075 -0.147273 105 105 105
0.064862 2.700805 -0.019926 105 105 105
0.159407 0.335075 0.000000 105 105 105
0.112718 0.335075 -0.112718 105 105 105
0.023198 2.915112 -0.056006 105 105 105
-0.023198 2.915112 -0.056006 105 105 105
-0.056006 2.915112 -0.023198 105 105 105
-0.159407 0.335075 -0.000000 105 105 105
-0.147273 0.335075 -0.061002 105 105 105
0.064862 2.700805 0.019926 105 105 105
0.059534 2.839965 0.019926 105 105 105
0.063144 2.839965 0.001777 105 105 105
0.063497 2.839965 0.000000 105 105 105
0.067818 2.700805 0.005067 105 105 105
0.068826 2.700805 0.000000 105 105 105
0.061002 0.335075 -0.147273 105 105 105
0.019926 2.700805 -0.064862 105 105 105
0.019926 2.839965 -0.059534 105 105 105
-0.019926 2.700805 -0.064862 105 105 105
-0.000000 0.335075 -0.159407 105 105 105
-0.112718 0.335075 -0.112718 105 105 105
-0.064862 2.700805 -0.019926 105 105 105
-0.059534 2.839965 -0.019926 105 105 105
-0.064862 2.700805 0.019926 105 105 105
0.001777 2.839965 -0.063144 105 105 105
-0.000000 2.839965 -0.063497 105 105 105
0.005067 2.700805 -0.067818 105 105 105
-0.000000 2.700805 -0.068826 105 105 105
-0.063144 2.839965 -0.001777 105 105 105
-0.063497 2.839965 -0.000000 105 105 105
-0.067818 2.700805 -0.005067 105 105 105
-0.068826 2.700805 -0.000000 105 105 105
0.019926 2.839965 -0.059534 255 255 255
0.019926 2.700805 -0.023911 255 255 255
0.019926 2.839965 -0.023911 255 255 255
-0.019926 2.839965 -0.023911 255 255 255
-0.000000 2.839965 -0.063497 255 255 255
0.001777 2.839965 -0.063144 255 255 255
0.023911 2.283323 -0.023911 255 255 255
0.023911 2.915112 -0.023911 255 255 255
0.005067 2.700805 -0.067818 255 255 255
-0.000000 2.700805 -0.068826 255 255 255
-0.019926 2.700805 -0.023911 255 255 255
-0.019926 2.839965 -0.059534 255 255 255
-0.019926 2.700805 -0.064862 255 255 255
0.023911 2.700805 -0.019926 255 255 255
0.023911 2.839965 -0.019926 255 255 255
-0.023911 2.915112 -0.023911 255 255 255
-0.023911 2.283323 -0.023911 255 255 255
0.063497 2.839965 0.000000 255 255 255
0.063144 2.839965 0.001777 255 255 255
0.059534 2.839965 -0.019926 255 255 255
0.064862 2.700805 -0.019926 255 255 255
0.023911 2.700805 0.019926 255 255 255
0.023911 2.283323 0.023911 255 255 255
-0.023911 2.283323 0.023911 255 255 255
-0.023911 2.700805 -0.019926 255 255 255
0.059534 2.839965 0.019926 255 255 255
0.023911 2.839965 0.019926 255 255 255
0.067818 2.700805 0.005067 255 255 255
0.068826 2.700805 0.000000 255 255 255
0.015205 2.915112 0.023911 255 255 255
0.023911 2.915112 0.023911 255 255 255
0.019926 2.839965 0.023911 255 255 255
-0.019926 2.700805 0.023911 255 255 255
-0.023911 2.915112 0.023911 255 255 255
-0.023911 2.700805 0.019926 255 255 255
-0.059534 2.839965 -0.019926 255 255 255
-0.023911 2.839965 -0.019926 255 255 255
-0.023911 2.839965 0.019926 255 255 255
-0.063497 2.839965 -0.000000 255 255 255
-0.063144 2.839965 -0.001777 255 255 255
0.019926 2.839965 0.059534 255 255 255
0.019926 2.700805 0.023911 255 255 255
0.019926 2.700805 0.064862 255 255 255
-0.000000 2.839965 0.063497 255 255 255
-0.001777 2.839965 0.063144 255 255 255
-0.005067 2.700805 0.067818 255 255 255
-0.000000 2.700805 0.068826 255 255 255
-0.019926 2.839965 0.059534 255 255 255
-0.019926 2.839965 0.023911 255 255 255
-0.059534 2.839965 0.019926 255 255 255
-0.064862 2.700805 0.019926 255 255 255
-0.067818 2.700805 -0.005067 255 255 255
-0.068826 2.700805 -0.000000 255 255 255
-0.000000 0.891718 0.175000 105 105 105
-0.056319 -0.499888 0.135965 105 105 105
-0.000000 -0.499888 0.147167 105 105 105
0.066970 0.891718 0.161679 105 105 105
-0.066970 0.891718 0.161679 105 105 105
0.056318 -0.499888 0.135965 105 105 105
0.123744 0.891718 0.123744 105 105 105
-0.104063 -0.499888 0.104063 105 105 105
-0.135965 -0.499888 0.056318 105 105 105
-0.123744 0.891718 0.123744 105 105 105
0.135965 -0.499888 -0.056319 105 105 105
0.104063 -0.499888 0.104063 105 105 105
0.175000 0.891718 0.000000 105 105 105
-0.056319 -0.499888 -0.135965 105 105 105
0.161679 0.891718 0.066970 105 105 105
0.123744 0.891718 -0.123744 105 105 105
-0.161679 0.891718 0.066970 105 105 105
0.135965 -0.499888 0.056319 105 105 105
-0.135965 -0.499888 -0.056319 105 105 105
0.056318 -0.499888 -0.135965 105 105 105
0.161679 0.891718 -0.066970 105 105 105
-0.000000 0.891718 -0.175000 105 105 105
-0.123744 0.891718 -0.123744 105 105 105
-0.147167 -0.499888 -0.000000 105 105 105
0.147167 -0.499888 0.000000 105 105 105
-0.104063 -0.499888 -0.104063 105 105 105
-0.000000 -0.499888 -0.147167 105 105 105
0.104063 -0.499888 -0.104063 105 105 105
0.066970 0.891718 -0.161679 105 105 105
-0.175000 0.891718 -0.000000 105 105 105
-0.161679 0.891718 -0.066970 105 105 105
-0.066970 0.891718 -0.161679 105 105 105
0.019926 2.839965 0.059534 105 105 105
0.023911 2.915112 0.020285 105 105 105
-0.023911 2.915112 0.023911 105 105 105
-0.023911 2.915112 0.020285 105 105 105
0.059534 2.839965 -0.019926 105 105 105
-0.019926 2.839965 -0.059534 105 105 105
-0.059534 2.839965 0.019926 105 105 105
0.019926 2.700805 -0.064862 255 255 255
-0.020285 2.915112 -0.023911 255 255 255
0.023911 2.915112 0.002894 255 255 255
0.023911 2.915112 0.020285 255 255 255
-0.023911 2.915112 0.020285 255 255 255
0.064862 2.700805 0.019926 255 255 255
-0.020285 2.915112 0.023911 255 255 255
-0.064862 2.700805 -0.019926 255 255 255
-0.019926 2.700805 0.064862 255 255 255
3 0 1 2
3 2 3 0
3 0 4 1
3 5 2 1
3 2 6 3
3 7 0 3
3 7 4 0
3 1 4 8
3 1 9 5
3 2 5 10
3 2 10 6
3 11 3 6
3 7 3 12
3 7 13 4
3 1 8 14
3 15 8 4
3 9 1 16
3 9 17 5
3 10 5 17
3 18 6 10
3 18 11 6
3 11 19 3
3 20 7 12
3 21 12 3
3 22 13 7
3 4 13 15
3 1 14 16
3 14 8 23
3 15 23 8
3 24 9 16
3 25 17 9
3 10 17 25
3 18 10 26
3 27 11 18
3 23 19 11
3 21 3 19
3 20 12 28
3 22 7 20
3 29 12 21
3 13 22 30
3 15 13 30
3 14 31 16
3 14 23 27
3 15 32 23
3 33 24 16
3 9 24 25
3 25 26 10
3 18 26 34
3 27 18 31
3 23 11 27
3 32 19 23
3 32 21 19
3 20 28 35
3 29 28 12
3 36 22 20
3 32 29 21
3 22 36 30
3 30 32 15
3 14 27 31
3 16 31 37
3 16 37 33
3 38 24 33
3 24 39 25
3 26 25 39
3 31 18 34
3 34 26 40
3 20 35 41
3 42 35 28
3 42 28 29
3 36 20 41
3 32 43 29
3 44 30 36
3 30 43 32
3 31 34 37
3 33 37 45
3 38 33 46
3 24 38 47
3 47 39 24
3 40 26 39
3 34 40 48
3 41 35 49
3 50 35 42
3 43 42 29
3 51 36 41
3 36 52 44
3 44 43 30
3 37 34 48
3 33 45 46
3 37 48 45
3 53 38 46
3 38 54 47
3 47 40 39
3 55 48 40
3 41 49 56
3 50 49 35
3 57 50 42
3 43 57 42
3 51 41 56
3 36 51 52
3 52 57 44
3 44 57 43
3 58 46 45
3 45 48 55
3 53 46 58
3 38 53 59
3 60 54 38
3 40 47 54
3 55 40 61
3 56 49 62
3 63 49 50
3 57 64 50
3 65 51 56
3 51 65 52
3 52 64 57
3 58 45 66
3 45 55 66
3 58 67 53
3 59 60 38
3 68 59 53
3 60 61 54
3 61 40 54
3 69 55 61
3 65 56 62
3 49 70 62
3 71 63 50
3 63 70 49
3 71 50 64
3 65 72 52
3 72 64 52
3 58 66 73
3 66 55 69
3 58 73 67
3 74 53 67
3 61 60 59
3 74 68 53
3 68 75 59
3 69 61 75
3 76 65 62
3 70 77 62
3 78 63 71
3 79 70 63
3 72 71 64
3 65 76 72
3 66 69 73
3 67 73 80
3 81 74 67
3 75 61 59
3 74 82 68
3 75 68 83
3 84 69 75
3 62 77 76
3 77 70 85
3 86 78 71
3 78 79 63
3 79 87 70
3 86 71 72
3 86 72 76
3 73 69 84
3 67 80 88
3 73 84 80
3 88 81 67
3 81 83 74
3 83 82 74
3 68 82 83
3 83 89 75
3 84 75 89
3 77 85 76
3 70 87 85
3 90 78 86
3 91 79 78
3 79 92 87
3 93 86 76
3 94 88 80
3 80 84 95
3 96 81 88
3 81 97 83
3 89 83 98
3 95 84 89
3 76 85 99
3 87 99 85
3 93 90 86
3 90 91 78
3 91 100 79
3 79 100 92
3 99 87 92
3 93 76 99
3 94 80 101
3 88 94 96
3 80 95 101
3 96 98 81
3 98 97 81
3 83 97 98
3 98 102 89
3 95 89 102
3 94 90 93
3 90 101 91
3 101 100 91
3 100 102 92
3 92 103 99
3 99 104 93
3 90 94 101
3 93 96 94
3 101 95 100
3 96 105 98
3 102 98 103
3 100 95 102
3 103 92 102
3 103 104 99
3 93 104 103
3 93 103 96
3 103 105 96
3 98 105 103
3 106 107 108
3 109 110 111
3 112 113 114
3 109 111 115
3 106 109 116
3 117 111 118
3 119 114 106
3 114 120 121
3 116 109 115
3 115 111 121
3 122 123 116
3 106 123 124
3 114 119 120
3 121 120 115
3 116 115 125
3 126 127 116
3 128 127 129
3 130 131 132
3 119 133 120
3 120 133 115
3 134 116 125
3 135 125 115
3 136 126 116
3 127 126 137
3 127 138 132
3 132 139 119
3 119 140 133
3 115 133 141
3 134 125 135
3 116 134 136
3 135 115 141
3 126 142 143
3 127 137 144
3 126 143 137
3 127 145 138
3 138 146 132
3 132 147 139
3 139 140 119
3 140 148 133
3 133 149 141
3 150 151 134
3 137 135 141
3 136 152 153
3 154 143 155
3 145 127 144
3 156 144 137
3 137 143 135
3 157 158 145
3 146 159 160
3 132 146 141
3 147 132 161
3 162 163 147
3 140 164 148
3 133 148 149
3 149 161 141
3 141 156 137
3 145 144 156
3 138 165 166
3 167 160 168
3 146 160 141
3 132 141 161
3 147 161 149
3 139 169 170
3 171 148 172
3 141 160 156
3 173 174 175
3 176 177 178
3 174 179 180
3 181 182 183
3 184 183 185
3 186 187 180
3 188 189 183
3 190 191 187
3 192 186 193
3 194 179 195
3 179 196 195
3 197 189 188
3 198 194 199
3 200 201 186
3 202 203 204
3 205 195 196
3 206 196 207
3 208 197 209
3 210 211 212
3 213 214 215
3 204 216 217
3 218 219 214
3 220 205 221
3 222 207 223
3 224 225 207
3 226 227 228
3 229 226 228
3 226 230 227
3 231 228 227
3 229 228 231
3 226 229 232
3 230 226 232
3 230 233 227
3 231 227 234
3 232 229 231
3 235 230 232
3 230 235 233
3 227 233 234
3 231 234 236
3 232 231 237
3 232 238 235
3 235 234 233
3 237 231 236
3 234 239 236
3 240 232 237
3 232 240 238
3 238 241 235
3 235 242 234
3 243 237 236
3 234 244 239
3 239 245 236
3 240 237 243
3 238 240 243
3 238 246 241
3 241 247 235
3 242 235 248
3 242 249 234
3 236 250 243
3 234 249 244
3 244 251 239
3 239 252 245
3 245 253 236
3 238 243 250
3 246 238 250
3 241 246 236
3 241 254 247
3 247 248 235
3 255 242 248
3 242 255 249
3 246 250 236
3 255 244 249
3 256 251 244
3 248 239 251
3 257 252 239
3 247 245 252
3 254 253 245
3 241 236 253
3 254 241 253
3 247 254 245
3 247 257 248
3 248 256 255
3 255 256 244
3 256 248 251
3 248 257 239
3 257 247 252
3 109 106 258
3 106 108 258
3 110 118 111
3 109 258 110
3 107 106 113
3 106 114 113
3 121 117 112
3 121 112 114
3 117 121 111
3 123 106 116
3 116 127 128
3 128 259 116
3 259 122 116
3 260 119 124
3 119 106 124
3 129 127 131
3 127 132 131
3 132 119 261
3 119 260 261
3 261 130 132
3 126 136 262
3 136 153 262
3 142 155 143
3 126 262 142
3 152 136 151
3 136 134 151
3 135 154 150
3 135 150 134
3 154 135 143
3 165 138 158
3 138 145 158
3 156 167 157
3 156 157 145
3 146 138 263
3 138 166 263
3 159 168 160
3 146 263 159
3 169 139 163
3 139 147 163
3 149 171 162
3 149 162 147
3 140 139 264
3 139 170 264
3 164 172 148
3 140 264 164
3 167 156 160
3 171 149 148
3 173 265 174
3 173 175 178
3 175 176 178
3 176 184 177
3 180 266 175
3 266 176 175
3 175 174 180
3 185 183 182
3 183 174 181
3 174 265 181
3 184 176 183
3 187 199 267
3 199 268 267
3 267 180 187
3 179 186 180
3 176 266 188
3 189 179 174
3 183 176 188
3 189 174 183
3 198 199 191
3 199 187 191
3 187 192 190
3 192 187 186
3 195 203 194
3 203 268 199
3 194 203 199
3 194 186 179
3 179 189 196
3 188 269 209
3 269 210 209
3 209 197 188
3 198 270 194
3 193 186 201
3 186 194 200
3 194 270 200
3 195 214 203
3 214 204 203
3 204 221 202
3 221 271 202
3 196 206 205
3 206 271 221
3 205 206 221
3 205 214 195
3 210 269 206
3 196 189 197
3 207 210 206
3 196 197 207
3 208 272 197
3 208 209 212
3 209 210 212
3 210 222 211
3 213 204 214
3 220 221 217
3 221 204 217
3 204 213 216
3 215 214 219
3 214 205 218
3 205 273 218
3 220 273 205
3 222 210 207
3 223 207 225
3 207 197 224
3 197 272 224
