ply
format ascii 1.0
comment Created by Blender 2.79 (sub 0) - www.blender.org, source file: 'walllight.blend'
element vertex 190
property float x
property float y
property float z
property float s
property float t
property uchar red
property uchar green
property uchar blue
element face 144
property list uchar uint vertex_indices
end_header
0.100000 0.150000 0.400000 0.937143 0.581964 0 255 0
0.100000 -0.150000 0.500000 0.851376 0.496197 0 255 0
0.100000 -0.150000 0.400000 0.851376 0.581964 0 255 0
0.100000 0.150000 0.500000 0.937143 0.620559 0 255 0
-0.100000 -0.150000 0.500000 0.851376 0.534792 0 255 0
0.100000 -0.150000 0.500000 0.851376 0.620559 0 255 0
-0.100000 0.150000 0.500000 0.937143 0.496197 0 255 0
-0.100000 -0.150000 0.400000 0.851376 0.581964 0 255 0
-0.100000 -0.150000 0.500000 0.851376 0.496197 0 255 0
-0.100000 0.150000 0.400000 0.937143 0.534792 0 255 0
0.100000 -0.150000 0.400000 0.851376 0.620559 0 255 0
-0.100000 -0.150000 0.400000 0.851376 0.534792 0 255 0
-0.100000 -0.150000 0.500000 0.975738 0.534792 0 255 0
0.100000 -0.150000 0.400000 0.889971 0.620559 0 255 0
0.100000 -0.150000 0.500000 0.975738 0.620559 0 255 0
0.100000 0.150000 0.500000 0.975738 0.620559 1 255 1
-0.100000 0.150000 0.400000 0.889971 0.534792 0 255 0
-0.100000 0.150000 0.500000 0.975738 0.534792 0 255 0
0.025000 0.090000 -0.010000 0.919989 0.590541 0 255 0
0.025000 -0.090000 0.490000 0.868529 0.161705 0 255 0
0.025000 -0.090000 -0.010000 0.868529 0.590541 0 255 0
0.025000 0.090000 0.490000 0.919989 0.588397 255 255 255
-0.025000 -0.090000 0.490000 0.868529 0.566955 255 255 255
0.025000 -0.090000 0.490000 0.868529 0.588397 255 255 255
-0.025000 0.090000 0.490000 0.919989 0.504774 0 255 0
-0.025000 -0.090000 -0.010000 0.868529 0.933609 0 255 0
-0.025000 -0.090000 0.490000 0.868529 0.504774 0 255 0
-0.025000 0.090000 -0.010000 0.919989 0.566955 255 255 255
0.025000 -0.090000 -0.010000 0.868529 0.588397 255 255 255
-0.025000 -0.090000 -0.010000 0.868529 0.566955 255 255 255
-0.025000 -0.090000 0.490000 0.967161 0.566955 0 255 0
0.025000 -0.090000 -0.010000 0.538326 0.588397 0 255 0
0.025000 -0.090000 0.490000 0.967161 0.588397 0 255 0
0.025000 0.090000 0.490000 0.967161 0.588397 0 255 0
-0.025000 0.090000 -0.010000 0.538326 0.566955 0 255 0
-0.025000 0.090000 0.490000 0.967161 0.566955 0 255 0
0.000000 0.100000 0.100000 0.922848 0.577676 0 255 0
-0.038268 -0.100000 0.092388 0.865670 0.561265 0 255 0
0.000000 -0.100000 0.100000 0.865670 0.577676 0 255 0
-0.038268 0.100000 0.092388 0.922848 0.502726 0 255 0
-0.070711 -0.100000 0.070711 0.865670 0.521318 0 255 0
-0.038268 -0.100000 0.092388 0.865670 0.502726 0 255 0
-0.070711 0.100000 0.070711 0.922848 0.521318 0 255 0
-0.092388 -0.100000 0.038268 0.865670 0.549142 0 255 0
-0.092388 0.100000 0.038268 0.922848 0.549142 0 255 0
-0.100000 -0.100000 0.000000 0.865670 0.581964 0 255 0
-0.100000 0.100000 0.000000 0.922848 0.581964 0 255 0
-0.092388 -0.100000 -0.038268 0.865670 0.614786 0 255 0
-0.092388 0.100000 -0.038268 0.922848 0.614786 0 255 0
-0.070711 -0.100000 -0.070711 0.865670 0.642610 0 255 0
-0.070711 0.100000 -0.070711 0.922848 0.642610 0 255 0
-0.038268 -0.100000 -0.092388 0.865670 0.661202 0 255 0
-0.038268 0.100000 -0.092388 0.922848 0.561265 0 255 0
-0.000000 -0.100000 -0.100000 0.865670 0.577676 0 255 0
-0.038268 -0.100000 -0.092388 0.865670 0.561265 0 255 0
-0.000000 0.100000 -0.100000 0.922848 0.577676 0 255 0
0.038268 -0.100000 -0.092388 0.865670 0.594087 0 255 0
0.038268 0.100000 -0.092388 0.922848 0.661202 0 255 0
0.070711 -0.100000 -0.070711 0.865670 0.642611 0 255 0
0.038268 -0.100000 -0.092388 0.865670 0.661202 0 255 0
0.070711 0.100000 -0.070711 0.922848 0.642611 0 255 0
0.092388 -0.100000 -0.038268 0.865670 0.614786 0 255 0
0.092388 0.100000 -0.038268 0.922848 0.614786 0 255 0
0.100000 -0.100000 0.000000 0.865670 0.581964 0 255 0
0.100000 0.100000 0.000000 0.922848 0.581964 0 255 0
0.092388 -0.100000 0.038268 0.865670 0.549142 0 255 0
0.092388 0.100000 0.038268 0.922848 0.549142 0 255 0
0.070711 -0.100000 0.070711 0.865670 0.521317 0 255 0
-0.100000 0.100000 0.000000 0.889971 0.534792 0 255 0
-0.092388 0.100000 0.038268 0.922793 0.538057 0 255 0
0.100000 0.100000 0.000000 0.889971 0.620559 0 255 0
0.070711 0.100000 0.070711 0.922848 0.521317 0 255 0
0.038268 -0.100000 0.092388 0.865670 0.502726 0 255 0
0.038268 0.100000 0.092388 0.922848 0.594087 0 255 0
0.038268 -0.100000 0.092388 0.865670 0.594087 0 255 0
0.092388 -0.100000 0.038268 0.922793 0.617295 0 255 0
0.070711 -0.100000 0.070711 0.950618 0.607999 0 255 0
-0.092388 -0.100000 0.038268 0.922793 0.538057 0 255 0
0.000000 0.200000 0.080000 0.246094 0.853906 255 0 0
-0.030615 -0.200000 0.073910 0.261401 0.653906 255 0 0
0.000000 -0.200000 0.080000 0.246094 0.653906 255 0 0
-0.030615 0.200000 0.073910 0.261401 0.853906 255 0 0
-0.056569 -0.200000 0.056569 0.274378 0.653906 255 0 0
-0.056569 0.200000 0.056569 0.274378 0.853906 255 0 0
-0.073910 -0.200000 0.030615 0.261401 0.653906 255 0 0
-0.073910 0.200000 0.030615 0.261401 0.853906 255 0 0
-0.080000 -0.200000 0.000000 0.246094 0.653906 255 0 0
-0.080000 0.200000 0.000000 0.246094 0.853906 255 0 0
-0.073910 -0.200000 -0.030615 0.230786 0.653906 255 0 0
-0.073910 0.200000 -0.030615 0.230786 0.853906 255 0 0
-0.056569 -0.200000 -0.056569 0.217809 0.653906 255 0 0
-0.056569 0.200000 -0.056569 0.274378 0.853906 255 0 0
-0.030615 -0.200000 -0.073910 0.261401 0.653906 255 0 0
-0.056569 -0.200000 -0.056569 0.274378 0.653906 255 0 0
-0.030615 0.200000 -0.073910 0.261401 0.853906 255 0 0
-0.000000 -0.200000 -0.080000 0.246094 0.653906 255 0 0
-0.000000 0.200000 -0.080000 0.246094 0.853906 255 0 0
0.030615 -0.200000 -0.073910 0.230786 0.653906 255 0 0
0.030615 0.200000 -0.073910 0.230786 0.853906 255 0 0
0.056569 -0.200000 -0.056569 0.217810 0.653906 255 0 0
0.056569 0.200000 -0.056569 0.217809 0.853906 255 0 0
0.073910 -0.200000 -0.030615 0.230786 0.653906 255 0 0
0.056569 -0.200000 -0.056569 0.217809 0.653906 255 0 0
0.073910 0.200000 -0.030615 0.230786 0.853906 255 0 0
0.080000 -0.200000 0.000000 0.246094 0.653906 255 0 0
0.080000 0.200000 0.000000 0.246094 0.853906 255 0 0
0.073910 -0.200000 0.030615 0.261401 0.653906 255 0 0
0.073910 0.200000 0.030615 0.261401 0.853906 255 0 0
0.056569 -0.200000 0.056569 0.274378 0.653906 255 0 0
-0.080000 0.200000 0.000000 0.286094 0.753906 255 0 0
-0.073910 0.200000 0.030615 0.283049 0.769214 255 0 0
0.080000 0.200000 0.000000 0.206094 0.753906 255 0 0
0.056569 0.200000 0.056569 0.217810 0.853906 255 0 0
0.030615 -0.200000 0.073910 0.230786 0.653906 255 0 0
0.056569 -0.200000 0.056569 0.217810 0.653906 255 0 0
0.030615 0.200000 0.073910 0.230786 0.853906 255 0 0
0.073910 -0.200000 0.030615 0.209139 0.769214 255 0 0
0.056569 -0.200000 0.056569 0.217810 0.782190 255 0 0
-0.073910 -0.200000 0.030615 0.283049 0.769214 255 0 0
0.100000 0.150000 0.500000 0.937143 0.496197 1 255 1
-0.100000 0.150000 0.500000 0.937143 0.534792 0 255 0
-0.100000 0.150000 0.400000 0.937143 0.581964 0 255 0
0.100000 0.150000 0.400000 0.937143 0.620559 0 255 0
-0.100000 -0.150000 0.400000 0.889971 0.534792 0 255 0
0.100000 0.150000 0.400000 0.889971 0.620559 0 255 0
0.025000 0.090000 0.490000 0.919989 0.161705 0 255 0
-0.025000 0.090000 0.490000 0.919989 0.566955 255 255 255
-0.025000 0.090000 -0.010000 0.919989 0.933609 0 255 0
0.025000 0.090000 -0.010000 0.919989 0.588397 255 255 255
-0.025000 -0.090000 -0.010000 0.538326 0.566955 0 255 0
0.025000 0.090000 -0.010000 0.538326 0.588397 0 255 0
-0.038268 0.100000 0.092388 0.922848 0.561265 0 255 0
-0.038268 0.100000 -0.092388 0.922848 0.661202 1 255 1
0.038268 0.100000 -0.092388 0.922848 0.594087 0 255 0
-0.070711 0.100000 0.070711 0.950618 0.547353 0 255 0
-0.038268 0.100000 0.092388 0.969210 0.561265 0 255 0
0.070711 0.100000 0.070711 0.950618 0.607999 0 255 0
0.000000 0.100000 0.100000 0.975738 0.577676 0 255 0
0.038268 0.100000 0.092388 0.969210 0.594087 0 255 0
0.092388 0.100000 0.038268 0.922793 0.617295 0 255 0
0.092388 0.100000 -0.038268 0.857149 0.617295 0 255 0
0.070711 0.100000 -0.070711 0.829325 0.607999 0 255 0
-0.092388 0.100000 -0.038268 0.857149 0.538057 0 255 0
0.038268 0.100000 -0.092388 0.810733 0.594087 0 255 0
-0.070711 0.100000 -0.070711 0.829325 0.547353 0 255 0
-0.000000 0.100000 -0.100000 0.804204 0.577676 0 255 0
-0.038268 0.100000 -0.092388 0.810733 0.561265 0 255 0
0.038268 0.100000 0.092388 0.922848 0.502726 0 255 0
0.038268 -0.100000 0.092388 0.969210 0.594087 0 255 0
0.000000 -0.100000 0.100000 0.975738 0.577676 0 255 0
-0.038268 -0.100000 0.092388 0.969210 0.561265 0 255 0
-0.070711 -0.100000 0.070711 0.950618 0.547353 0 255 0
-0.100000 -0.100000 0.000000 0.889971 0.534792 0 255 0
0.100000 -0.100000 0.000000 0.889971 0.620559 0 255 0
-0.092388 -0.100000 -0.038268 0.857149 0.538057 0 255 0
0.092388 -0.100000 -0.038268 0.857149 0.617295 0 255 0
-0.070711 -0.100000 -0.070711 0.829325 0.547353 0 255 0
-0.038268 -0.100000 -0.092388 0.810733 0.561265 0 255 0
0.070711 -0.100000 -0.070711 0.829325 0.607999 0 255 0
-0.000000 -0.100000 -0.100000 0.804204 0.577676 0 255 0
0.038268 -0.100000 -0.092388 0.810733 0.594087 0 255 0
-0.056569 0.200000 -0.056569 0.217809 0.853906 255 0 0
0.056569 0.200000 -0.056569 0.217810 0.853906 255 0 0
0.056569 0.200000 0.056569 0.274378 0.853906 255 0 0
-0.056569 0.200000 0.056569 0.274378 0.782190 255 0 0
-0.030615 0.200000 0.073910 0.261401 0.790861 255 0 0
0.056569 0.200000 0.056569 0.217810 0.782190 255 0 0
0.000000 0.200000 0.080000 0.246094 0.793906 255 0 0
0.030615 0.200000 0.073910 0.230786 0.790861 255 0 0
0.073910 0.200000 0.030615 0.209139 0.769214 255 0 0
0.073910 0.200000 -0.030615 0.209139 0.738599 255 0 0
0.056569 0.200000 -0.056569 0.217810 0.725622 255 0 0
-0.073910 0.200000 -0.030615 0.283049 0.738599 255 0 0
0.030615 0.200000 -0.073910 0.230786 0.716951 255 0 0
-0.030615 0.200000 -0.073910 0.261401 0.716951 255 0 0
-0.000000 0.200000 -0.080000 0.246094 0.713906 255 0 0
-0.056569 0.200000 -0.056569 0.274378 0.725622 255 0 0
0.030615 -0.200000 0.073910 0.230786 0.790861 255 0 0
0.000000 -0.200000 0.080000 0.246094 0.793906 255 0 0
-0.030615 -0.200000 0.073910 0.261401 0.790861 255 0 0
-0.056569 -0.200000 0.056569 0.274378 0.782190 255 0 0
-0.080000 -0.200000 0.000000 0.286094 0.753906 255 0 0
0.080000 -0.200000 0.000000 0.206094 0.753906 255 0 0
-0.073910 -0.200000 -0.030615 0.283049 0.738599 255 0 0
0.073910 -0.200000 -0.030615 0.209139 0.738599 255 0 0
-0.056569 -0.200000 -0.056569 0.274378 0.725622 255 0 0
-0.030615 -0.200000 -0.073910 0.261401 0.716951 255 0 0
0.056569 -0.200000 -0.056569 0.217810 0.725622 255 0 0
-0.000000 -0.200000 -0.080000 0.246094 0.713906 255 0 0
0.030615 -0.200000 -0.073910 0.230786 0.716951 255 0 0
3 0 1 2
3 3 4 5
3 6 7 8
3 9 10 11
3 12 13 14
3 15 16 17
3 18 19 20
3 21 22 23
3 24 25 26
3 27 28 29
3 30 31 32
3 33 34 35
3 36 37 38
3 39 40 41
3 42 43 40
3 44 45 43
3 46 47 45
3 48 49 47
3 50 51 49
3 52 53 54
3 55 56 53
3 57 58 59
3 60 61 58
3 62 63 61
3 64 65 63
3 66 67 65
3 68 69 70
3 71 72 67
3 73 38 74
3 75 76 77
3 78 79 80
3 81 82 79
3 83 84 82
3 85 86 84
3 87 88 86
3 89 90 88
3 91 92 93
3 94 95 92
3 96 97 95
3 98 99 97
3 100 101 102
3 103 104 101
3 105 106 104
3 107 108 106
3 109 110 111
3 112 113 114
3 115 80 113
3 116 117 118
3 0 119 1
3 3 120 4
3 6 121 7
3 9 122 10
3 12 123 13
3 15 124 16
3 18 125 19
3 21 126 22
3 24 127 25
3 27 128 28
3 30 129 31
3 33 130 34
3 36 131 37
3 39 42 40
3 42 44 43
3 44 46 45
3 46 48 47
3 48 50 49
3 50 132 51
3 52 55 53
3 55 133 56
3 57 60 58
3 60 62 61
3 62 64 63
3 64 66 65
3 66 71 67
3 134 135 136
3 135 137 138
3 136 135 138
3 136 139 134
3 139 70 69
3 134 139 69
3 70 140 68
3 140 141 142
3 68 140 142
3 141 143 144
3 143 145 146
3 144 143 146
3 144 142 141
3 71 147 72
3 73 36 38
3 148 149 150
3 150 151 148
3 151 77 76
3 148 151 76
3 77 152 153
3 152 154 155
3 154 156 155
3 156 157 158
3 155 156 158
3 157 159 160
3 160 158 157
3 155 153 152
3 153 75 77
3 78 81 79
3 81 83 82
3 83 85 84
3 85 87 86
3 87 89 88
3 89 161 90
3 91 94 92
3 94 96 95
3 96 98 97
3 98 162 99
3 100 103 101
3 103 105 104
3 105 107 106
3 107 163 108
3 164 165 166
3 165 167 168
3 166 165 168
3 166 169 164
3 169 111 110
3 164 169 110
3 111 170 109
3 170 171 172
3 109 170 172
3 171 173 174
3 173 175 174
3 174 176 171
3 176 172 171
3 112 115 113
3 115 78 80
3 177 178 179
3 179 180 177
3 180 118 117
3 177 180 117
3 118 181 182
3 181 183 184
3 183 185 184
3 185 186 187
3 184 185 187
3 186 188 189
3 189 187 186
3 184 182 181
3 182 116 118
